G04 #@! TF.GenerationSoftware,KiCad,Pcbnew,(5.1.5-0-10_14)*
G04 #@! TF.CreationDate,2020-04-22T00:02:06+01:00*
G04 #@! TF.ProjectId,Display,44697370-6c61-4792-9e6b-696361645f70,rev?*
G04 #@! TF.SameCoordinates,Original*
G04 #@! TF.FileFunction,Legend,Top*
G04 #@! TF.FilePolarity,Positive*
%FSLAX46Y46*%
G04 Gerber Fmt 4.6, Leading zero omitted, Abs format (unit mm)*
G04 Created by KiCad (PCBNEW (5.1.5-0-10_14)) date 2020-04-22 00:02:06*
%MOMM*%
%LPD*%
G04 APERTURE LIST*
%ADD10C,0.300000*%
%ADD11C,0.150000*%
%ADD12C,0.120000*%
%ADD13C,0.010000*%
G04 APERTURE END LIST*
D10*
X168678571Y-54835714D02*
X168607142Y-54907142D01*
X168392857Y-54978571D01*
X168250000Y-54978571D01*
X168035714Y-54907142D01*
X167892857Y-54764285D01*
X167821428Y-54621428D01*
X167750000Y-54335714D01*
X167750000Y-54121428D01*
X167821428Y-53835714D01*
X167892857Y-53692857D01*
X168035714Y-53550000D01*
X168250000Y-53478571D01*
X168392857Y-53478571D01*
X168607142Y-53550000D01*
X168678571Y-53621428D01*
X169535714Y-54978571D02*
X169392857Y-54907142D01*
X169321428Y-54764285D01*
X169321428Y-53478571D01*
X170321428Y-54978571D02*
X170178571Y-54907142D01*
X170107142Y-54835714D01*
X170035714Y-54692857D01*
X170035714Y-54264285D01*
X170107142Y-54121428D01*
X170178571Y-54050000D01*
X170321428Y-53978571D01*
X170535714Y-53978571D01*
X170678571Y-54050000D01*
X170750000Y-54121428D01*
X170821428Y-54264285D01*
X170821428Y-54692857D01*
X170750000Y-54835714D01*
X170678571Y-54907142D01*
X170535714Y-54978571D01*
X170321428Y-54978571D01*
X172107142Y-54907142D02*
X171964285Y-54978571D01*
X171678571Y-54978571D01*
X171535714Y-54907142D01*
X171464285Y-54835714D01*
X171392857Y-54692857D01*
X171392857Y-54264285D01*
X171464285Y-54121428D01*
X171535714Y-54050000D01*
X171678571Y-53978571D01*
X171964285Y-53978571D01*
X172107142Y-54050000D01*
X172750000Y-54978571D02*
X172750000Y-53478571D01*
X172892857Y-54407142D02*
X173321428Y-54978571D01*
X173321428Y-53978571D02*
X172750000Y-54550000D01*
X174178571Y-54978571D02*
X174035714Y-54907142D01*
X173964285Y-54764285D01*
X173964285Y-53478571D01*
X175321428Y-54907142D02*
X175178571Y-54978571D01*
X174892857Y-54978571D01*
X174750000Y-54907142D01*
X174678571Y-54764285D01*
X174678571Y-54192857D01*
X174750000Y-54050000D01*
X174892857Y-53978571D01*
X175178571Y-53978571D01*
X175321428Y-54050000D01*
X175392857Y-54192857D01*
X175392857Y-54335714D01*
X174678571Y-54478571D01*
X175821428Y-53978571D02*
X176392857Y-53978571D01*
X176035714Y-53478571D02*
X176035714Y-54764285D01*
X176107142Y-54907142D01*
X176250000Y-54978571D01*
X176392857Y-54978571D01*
X178035714Y-54978571D02*
X178035714Y-53478571D01*
X178392857Y-53478571D01*
X178607142Y-53550000D01*
X178750000Y-53692857D01*
X178821428Y-53835714D01*
X178892857Y-54121428D01*
X178892857Y-54335714D01*
X178821428Y-54621428D01*
X178750000Y-54764285D01*
X178607142Y-54907142D01*
X178392857Y-54978571D01*
X178035714Y-54978571D01*
X179535714Y-54978571D02*
X179535714Y-53978571D01*
X179535714Y-53478571D02*
X179464285Y-53550000D01*
X179535714Y-53621428D01*
X179607142Y-53550000D01*
X179535714Y-53478571D01*
X179535714Y-53621428D01*
X180178571Y-54907142D02*
X180321428Y-54978571D01*
X180607142Y-54978571D01*
X180750000Y-54907142D01*
X180821428Y-54764285D01*
X180821428Y-54692857D01*
X180750000Y-54550000D01*
X180607142Y-54478571D01*
X180392857Y-54478571D01*
X180250000Y-54407142D01*
X180178571Y-54264285D01*
X180178571Y-54192857D01*
X180250000Y-54050000D01*
X180392857Y-53978571D01*
X180607142Y-53978571D01*
X180750000Y-54050000D01*
X181464285Y-53978571D02*
X181464285Y-55478571D01*
X181464285Y-54050000D02*
X181607142Y-53978571D01*
X181892857Y-53978571D01*
X182035714Y-54050000D01*
X182107142Y-54121428D01*
X182178571Y-54264285D01*
X182178571Y-54692857D01*
X182107142Y-54835714D01*
X182035714Y-54907142D01*
X181892857Y-54978571D01*
X181607142Y-54978571D01*
X181464285Y-54907142D01*
X183035714Y-54978571D02*
X182892857Y-54907142D01*
X182821428Y-54764285D01*
X182821428Y-53478571D01*
X184250000Y-54978571D02*
X184250000Y-54192857D01*
X184178571Y-54050000D01*
X184035714Y-53978571D01*
X183750000Y-53978571D01*
X183607142Y-54050000D01*
X184250000Y-54907142D02*
X184107142Y-54978571D01*
X183750000Y-54978571D01*
X183607142Y-54907142D01*
X183535714Y-54764285D01*
X183535714Y-54621428D01*
X183607142Y-54478571D01*
X183750000Y-54407142D01*
X184107142Y-54407142D01*
X184250000Y-54335714D01*
X184821428Y-53978571D02*
X185178571Y-54978571D01*
X185535714Y-53978571D02*
X185178571Y-54978571D01*
X185035714Y-55335714D01*
X184964285Y-55407142D01*
X184821428Y-55478571D01*
X187107142Y-53978571D02*
X187464285Y-54978571D01*
X187821428Y-53978571D01*
X189035714Y-53478571D02*
X188749999Y-53478571D01*
X188607142Y-53550000D01*
X188535714Y-53621428D01*
X188392857Y-53835714D01*
X188321428Y-54121428D01*
X188321428Y-54692857D01*
X188392857Y-54835714D01*
X188464285Y-54907142D01*
X188607142Y-54978571D01*
X188892857Y-54978571D01*
X189035714Y-54907142D01*
X189107142Y-54835714D01*
X189178571Y-54692857D01*
X189178571Y-54335714D01*
X189107142Y-54192857D01*
X189035714Y-54121428D01*
X188892857Y-54050000D01*
X188607142Y-54050000D01*
X188464285Y-54121428D01*
X188392857Y-54192857D01*
X188321428Y-54335714D01*
X190964285Y-54978571D02*
X190964285Y-53978571D01*
X190964285Y-54264285D02*
X191035714Y-54121428D01*
X191107142Y-54050000D01*
X191249999Y-53978571D01*
X191392857Y-53978571D01*
X192464285Y-54907142D02*
X192321428Y-54978571D01*
X192035714Y-54978571D01*
X191892857Y-54907142D01*
X191821428Y-54764285D01*
X191821428Y-54192857D01*
X191892857Y-54050000D01*
X192035714Y-53978571D01*
X192321428Y-53978571D01*
X192464285Y-54050000D01*
X192535714Y-54192857D01*
X192535714Y-54335714D01*
X191821428Y-54478571D01*
X193035714Y-53978571D02*
X193392857Y-54978571D01*
X193750000Y-53978571D01*
X196249999Y-54978571D02*
X195392857Y-54978571D01*
X195821428Y-54978571D02*
X195821428Y-53478571D01*
X195678571Y-53692857D01*
X195535714Y-53835714D01*
X195392857Y-53907142D01*
D11*
X211621309Y-54252380D02*
X211621309Y-54966666D01*
X211573690Y-55109523D01*
X211478452Y-55204761D01*
X211335595Y-55252380D01*
X211240357Y-55252380D01*
X212573690Y-55252380D02*
X212097500Y-55252380D01*
X212097500Y-54252380D01*
X213478452Y-55157142D02*
X213430833Y-55204761D01*
X213287976Y-55252380D01*
X213192738Y-55252380D01*
X213049880Y-55204761D01*
X212954642Y-55109523D01*
X212907023Y-55014285D01*
X212859404Y-54823809D01*
X212859404Y-54680952D01*
X212907023Y-54490476D01*
X212954642Y-54395238D01*
X213049880Y-54300000D01*
X213192738Y-54252380D01*
X213287976Y-54252380D01*
X213430833Y-54300000D01*
X213478452Y-54347619D01*
X214192738Y-54252380D02*
X214192738Y-54966666D01*
X214145119Y-55109523D01*
X214049880Y-55204761D01*
X213907023Y-55252380D01*
X213811785Y-55252380D01*
X215145119Y-55252380D02*
X214668928Y-55252380D01*
X214668928Y-54252380D01*
X216049880Y-55157142D02*
X216002261Y-55204761D01*
X215859404Y-55252380D01*
X215764166Y-55252380D01*
X215621309Y-55204761D01*
X215526071Y-55109523D01*
X215478452Y-55014285D01*
X215430833Y-54823809D01*
X215430833Y-54680952D01*
X215478452Y-54490476D01*
X215526071Y-54395238D01*
X215621309Y-54300000D01*
X215764166Y-54252380D01*
X215859404Y-54252380D01*
X216002261Y-54300000D01*
X216049880Y-54347619D01*
X216764166Y-54252380D02*
X216764166Y-54966666D01*
X216716547Y-55109523D01*
X216621309Y-55204761D01*
X216478452Y-55252380D01*
X216383214Y-55252380D01*
X217716547Y-55252380D02*
X217240357Y-55252380D01*
X217240357Y-54252380D01*
X218621309Y-55157142D02*
X218573690Y-55204761D01*
X218430833Y-55252380D01*
X218335595Y-55252380D01*
X218192738Y-55204761D01*
X218097500Y-55109523D01*
X218049880Y-55014285D01*
X218002261Y-54823809D01*
X218002261Y-54680952D01*
X218049880Y-54490476D01*
X218097500Y-54395238D01*
X218192738Y-54300000D01*
X218335595Y-54252380D01*
X218430833Y-54252380D01*
X218573690Y-54300000D01*
X218621309Y-54347619D01*
X219335595Y-54252380D02*
X219335595Y-54966666D01*
X219287976Y-55109523D01*
X219192738Y-55204761D01*
X219049880Y-55252380D01*
X218954642Y-55252380D01*
X220287976Y-55252380D02*
X219811785Y-55252380D01*
X219811785Y-54252380D01*
X221192738Y-55157142D02*
X221145119Y-55204761D01*
X221002261Y-55252380D01*
X220907023Y-55252380D01*
X220764166Y-55204761D01*
X220668928Y-55109523D01*
X220621309Y-55014285D01*
X220573690Y-54823809D01*
X220573690Y-54680952D01*
X220621309Y-54490476D01*
X220668928Y-54395238D01*
X220764166Y-54300000D01*
X220907023Y-54252380D01*
X221002261Y-54252380D01*
X221145119Y-54300000D01*
X221192738Y-54347619D01*
D12*
X173810000Y-89762779D02*
X173810000Y-89437221D01*
X172790000Y-89762779D02*
X172790000Y-89437221D01*
X174390000Y-89437221D02*
X174390000Y-89762779D01*
X175410000Y-89437221D02*
X175410000Y-89762779D01*
X160670000Y-91830000D02*
X160670000Y-90500000D01*
X162000000Y-91830000D02*
X160670000Y-91830000D01*
X160670000Y-89230000D02*
X160670000Y-86630000D01*
X163270000Y-89230000D02*
X160670000Y-89230000D01*
X163270000Y-91830000D02*
X163270000Y-89230000D01*
X160670000Y-86630000D02*
X170950000Y-86630000D01*
X163270000Y-91830000D02*
X170950000Y-91830000D01*
X170950000Y-91830000D02*
X170950000Y-86630000D01*
X177590000Y-89437221D02*
X177590000Y-89762779D01*
X178610000Y-89437221D02*
X178610000Y-89762779D01*
D13*
G36*
X182270000Y-90700000D02*
G01*
X182270000Y-90920000D01*
X182010000Y-90920000D01*
X182010000Y-90700000D01*
X182270000Y-90700000D01*
G37*
X182270000Y-90700000D02*
X182270000Y-90920000D01*
X182010000Y-90920000D01*
X182010000Y-90700000D01*
X182270000Y-90700000D01*
G36*
X181990000Y-90700000D02*
G01*
X181990000Y-90920000D01*
X181730000Y-90920000D01*
X181730000Y-90700000D01*
X181990000Y-90700000D01*
G37*
X181990000Y-90700000D02*
X181990000Y-90920000D01*
X181730000Y-90920000D01*
X181730000Y-90700000D01*
X181990000Y-90700000D01*
D12*
X223837221Y-76410000D02*
X224162779Y-76410000D01*
X223837221Y-75390000D02*
X224162779Y-75390000D01*
X211837221Y-76410000D02*
X212162779Y-76410000D01*
X211837221Y-75390000D02*
X212162779Y-75390000D01*
X199837221Y-75390000D02*
X200162779Y-75390000D01*
X199837221Y-76410000D02*
X200162779Y-76410000D01*
X187837221Y-76410000D02*
X188162779Y-76410000D01*
X187837221Y-75390000D02*
X188162779Y-75390000D01*
X175837221Y-75390000D02*
X176162779Y-75390000D01*
X175837221Y-76410000D02*
X176162779Y-76410000D01*
X163837221Y-76410000D02*
X164162779Y-76410000D01*
X163837221Y-75390000D02*
X164162779Y-75390000D01*
X151837221Y-75390000D02*
X152162779Y-75390000D01*
X151837221Y-76410000D02*
X152162779Y-76410000D01*
X139837221Y-76410000D02*
X140162779Y-76410000D01*
X139837221Y-75390000D02*
X140162779Y-75390000D01*
X135250000Y-58750000D02*
X134750000Y-58750000D01*
X135250000Y-59250000D02*
X135250000Y-58750000D01*
X132750000Y-59000000D02*
X132750000Y-61000000D01*
X231250000Y-82750000D02*
X230750000Y-82750000D01*
X231250000Y-83250000D02*
X231250000Y-82750000D01*
X228750000Y-83000000D02*
X228750000Y-85000000D01*
X225250000Y-82750000D02*
X224750000Y-82750000D01*
X225250000Y-83250000D02*
X225250000Y-82750000D01*
X222750000Y-83000000D02*
X222750000Y-85000000D01*
X219250000Y-82750000D02*
X218750000Y-82750000D01*
X219250000Y-83250000D02*
X219250000Y-82750000D01*
X216750000Y-83000000D02*
X216750000Y-85000000D01*
X213250000Y-82750000D02*
X212750000Y-82750000D01*
X213250000Y-83250000D02*
X213250000Y-82750000D01*
X210750000Y-83000000D02*
X210750000Y-85000000D01*
X207250000Y-82750000D02*
X206750000Y-82750000D01*
X207250000Y-83250000D02*
X207250000Y-82750000D01*
X204750000Y-83000000D02*
X204750000Y-85000000D01*
X201250000Y-82750000D02*
X200750000Y-82750000D01*
X201250000Y-83250000D02*
X201250000Y-82750000D01*
X198750000Y-83000000D02*
X198750000Y-85000000D01*
X195250000Y-82750000D02*
X194750000Y-82750000D01*
X195250000Y-83250000D02*
X195250000Y-82750000D01*
X192750000Y-83000000D02*
X192750000Y-85000000D01*
X189250000Y-82750000D02*
X188750000Y-82750000D01*
X189250000Y-83250000D02*
X189250000Y-82750000D01*
X186750000Y-83000000D02*
X186750000Y-85000000D01*
X183250000Y-82750000D02*
X182750000Y-82750000D01*
X183250000Y-83250000D02*
X183250000Y-82750000D01*
X180750000Y-83000000D02*
X180750000Y-85000000D01*
X177250000Y-82750000D02*
X176750000Y-82750000D01*
X177250000Y-83250000D02*
X177250000Y-82750000D01*
X174750000Y-83000000D02*
X174750000Y-85000000D01*
X171250000Y-82750000D02*
X170750000Y-82750000D01*
X171250000Y-83250000D02*
X171250000Y-82750000D01*
X168750000Y-83000000D02*
X168750000Y-85000000D01*
X165250000Y-82750000D02*
X164750000Y-82750000D01*
X165250000Y-83250000D02*
X165250000Y-82750000D01*
X162750000Y-83000000D02*
X162750000Y-85000000D01*
X159250000Y-82750000D02*
X158750000Y-82750000D01*
X159250000Y-83250000D02*
X159250000Y-82750000D01*
X156750000Y-83000000D02*
X156750000Y-85000000D01*
X153250000Y-82750000D02*
X152750000Y-82750000D01*
X153250000Y-83250000D02*
X153250000Y-82750000D01*
X150750000Y-83000000D02*
X150750000Y-85000000D01*
X147250000Y-82750000D02*
X146750000Y-82750000D01*
X147250000Y-83250000D02*
X147250000Y-82750000D01*
X144750000Y-83000000D02*
X144750000Y-85000000D01*
X141250000Y-82750000D02*
X140750000Y-82750000D01*
X141250000Y-83250000D02*
X141250000Y-82750000D01*
X138750000Y-83000000D02*
X138750000Y-85000000D01*
X135250000Y-82750000D02*
X134750000Y-82750000D01*
X135250000Y-83250000D02*
X135250000Y-82750000D01*
X132750000Y-83000000D02*
X132750000Y-85000000D01*
X228750000Y-79250000D02*
X229250000Y-79250000D01*
X228750000Y-78750000D02*
X228750000Y-79250000D01*
X231250000Y-79000000D02*
X231250000Y-77000000D01*
X222750000Y-79250000D02*
X223250000Y-79250000D01*
X222750000Y-78750000D02*
X222750000Y-79250000D01*
X225250000Y-79000000D02*
X225250000Y-77000000D01*
X216750000Y-79250000D02*
X217250000Y-79250000D01*
X216750000Y-78750000D02*
X216750000Y-79250000D01*
X219250000Y-79000000D02*
X219250000Y-77000000D01*
X210750000Y-79250000D02*
X211250000Y-79250000D01*
X210750000Y-78750000D02*
X210750000Y-79250000D01*
X213250000Y-79000000D02*
X213250000Y-77000000D01*
X204750000Y-79250000D02*
X205250000Y-79250000D01*
X204750000Y-78750000D02*
X204750000Y-79250000D01*
X207250000Y-79000000D02*
X207250000Y-77000000D01*
X198750000Y-79250000D02*
X199250000Y-79250000D01*
X198750000Y-78750000D02*
X198750000Y-79250000D01*
X201250000Y-79000000D02*
X201250000Y-77000000D01*
X192750000Y-79250000D02*
X193250000Y-79250000D01*
X192750000Y-78750000D02*
X192750000Y-79250000D01*
X195250000Y-79000000D02*
X195250000Y-77000000D01*
X186750000Y-79250000D02*
X187250000Y-79250000D01*
X186750000Y-78750000D02*
X186750000Y-79250000D01*
X189250000Y-79000000D02*
X189250000Y-77000000D01*
X180750000Y-79250000D02*
X181250000Y-79250000D01*
X180750000Y-78750000D02*
X180750000Y-79250000D01*
X183250000Y-79000000D02*
X183250000Y-77000000D01*
X174750000Y-79250000D02*
X175250000Y-79250000D01*
X174750000Y-78750000D02*
X174750000Y-79250000D01*
X177250000Y-79000000D02*
X177250000Y-77000000D01*
X168750000Y-79250000D02*
X169250000Y-79250000D01*
X168750000Y-78750000D02*
X168750000Y-79250000D01*
X171250000Y-79000000D02*
X171250000Y-77000000D01*
X162750000Y-79250000D02*
X163250000Y-79250000D01*
X162750000Y-78750000D02*
X162750000Y-79250000D01*
X165250000Y-79000000D02*
X165250000Y-77000000D01*
X156750000Y-79250000D02*
X157250000Y-79250000D01*
X156750000Y-78750000D02*
X156750000Y-79250000D01*
X159250000Y-79000000D02*
X159250000Y-77000000D01*
X150750000Y-79250000D02*
X151250000Y-79250000D01*
X150750000Y-78750000D02*
X150750000Y-79250000D01*
X153250000Y-79000000D02*
X153250000Y-77000000D01*
X144750000Y-79250000D02*
X145250000Y-79250000D01*
X144750000Y-78750000D02*
X144750000Y-79250000D01*
X147250000Y-79000000D02*
X147250000Y-77000000D01*
X138750000Y-79250000D02*
X139250000Y-79250000D01*
X138750000Y-78750000D02*
X138750000Y-79250000D01*
X141250000Y-79000000D02*
X141250000Y-77000000D01*
X132750000Y-79250000D02*
X133250000Y-79250000D01*
X132750000Y-78750000D02*
X132750000Y-79250000D01*
X135250000Y-79000000D02*
X135250000Y-77000000D01*
X231250000Y-70750000D02*
X230750000Y-70750000D01*
X231250000Y-71250000D02*
X231250000Y-70750000D01*
X228750000Y-71000000D02*
X228750000Y-73000000D01*
X225250000Y-70750000D02*
X224750000Y-70750000D01*
X225250000Y-71250000D02*
X225250000Y-70750000D01*
X222750000Y-71000000D02*
X222750000Y-73000000D01*
X219250000Y-70750000D02*
X218750000Y-70750000D01*
X219250000Y-71250000D02*
X219250000Y-70750000D01*
X216750000Y-71000000D02*
X216750000Y-73000000D01*
X213250000Y-70750000D02*
X212750000Y-70750000D01*
X213250000Y-71250000D02*
X213250000Y-70750000D01*
X210750000Y-71000000D02*
X210750000Y-73000000D01*
X207250000Y-70750000D02*
X206750000Y-70750000D01*
X207250000Y-71250000D02*
X207250000Y-70750000D01*
X204750000Y-71000000D02*
X204750000Y-73000000D01*
X201250000Y-70750000D02*
X200750000Y-70750000D01*
X201250000Y-71250000D02*
X201250000Y-70750000D01*
X198750000Y-71000000D02*
X198750000Y-73000000D01*
X195250000Y-70750000D02*
X194750000Y-70750000D01*
X195250000Y-71250000D02*
X195250000Y-70750000D01*
X192750000Y-71000000D02*
X192750000Y-73000000D01*
X189250000Y-70750000D02*
X188750000Y-70750000D01*
X189250000Y-71250000D02*
X189250000Y-70750000D01*
X186750000Y-71000000D02*
X186750000Y-73000000D01*
X183250000Y-70750000D02*
X182750000Y-70750000D01*
X183250000Y-71250000D02*
X183250000Y-70750000D01*
X180750000Y-71000000D02*
X180750000Y-73000000D01*
X177250000Y-70750000D02*
X176750000Y-70750000D01*
X177250000Y-71250000D02*
X177250000Y-70750000D01*
X174750000Y-71000000D02*
X174750000Y-73000000D01*
X171250000Y-70750000D02*
X170750000Y-70750000D01*
X171250000Y-71250000D02*
X171250000Y-70750000D01*
X168750000Y-71000000D02*
X168750000Y-73000000D01*
X165250000Y-70750000D02*
X164750000Y-70750000D01*
X165250000Y-71250000D02*
X165250000Y-70750000D01*
X162750000Y-71000000D02*
X162750000Y-73000000D01*
X159250000Y-70750000D02*
X158750000Y-70750000D01*
X159250000Y-71250000D02*
X159250000Y-70750000D01*
X156750000Y-71000000D02*
X156750000Y-73000000D01*
X153250000Y-70750000D02*
X152750000Y-70750000D01*
X153250000Y-71250000D02*
X153250000Y-70750000D01*
X150750000Y-71000000D02*
X150750000Y-73000000D01*
X147250000Y-70750000D02*
X146750000Y-70750000D01*
X147250000Y-71250000D02*
X147250000Y-70750000D01*
X144750000Y-71000000D02*
X144750000Y-73000000D01*
X141250000Y-70750000D02*
X140750000Y-70750000D01*
X141250000Y-71250000D02*
X141250000Y-70750000D01*
X138750000Y-71000000D02*
X138750000Y-73000000D01*
X135250000Y-70750000D02*
X134750000Y-70750000D01*
X135250000Y-71250000D02*
X135250000Y-70750000D01*
X132750000Y-71000000D02*
X132750000Y-73000000D01*
X228750000Y-67250000D02*
X229250000Y-67250000D01*
X228750000Y-66750000D02*
X228750000Y-67250000D01*
X231250000Y-67000000D02*
X231250000Y-65000000D01*
X222750000Y-67250000D02*
X223250000Y-67250000D01*
X222750000Y-66750000D02*
X222750000Y-67250000D01*
X225250000Y-67000000D02*
X225250000Y-65000000D01*
X216750000Y-67250000D02*
X217250000Y-67250000D01*
X216750000Y-66750000D02*
X216750000Y-67250000D01*
X219250000Y-67000000D02*
X219250000Y-65000000D01*
X210750000Y-67250000D02*
X211250000Y-67250000D01*
X210750000Y-66750000D02*
X210750000Y-67250000D01*
X213250000Y-67000000D02*
X213250000Y-65000000D01*
X204750000Y-67250000D02*
X205250000Y-67250000D01*
X204750000Y-66750000D02*
X204750000Y-67250000D01*
X207250000Y-67000000D02*
X207250000Y-65000000D01*
X198750000Y-67250000D02*
X199250000Y-67250000D01*
X198750000Y-66750000D02*
X198750000Y-67250000D01*
X201250000Y-67000000D02*
X201250000Y-65000000D01*
X192750000Y-67250000D02*
X193250000Y-67250000D01*
X192750000Y-66750000D02*
X192750000Y-67250000D01*
X195250000Y-67000000D02*
X195250000Y-65000000D01*
X186750000Y-67250000D02*
X187250000Y-67250000D01*
X186750000Y-66750000D02*
X186750000Y-67250000D01*
X189250000Y-67000000D02*
X189250000Y-65000000D01*
X180750000Y-67250000D02*
X181250000Y-67250000D01*
X180750000Y-66750000D02*
X180750000Y-67250000D01*
X183250000Y-67000000D02*
X183250000Y-65000000D01*
X174750000Y-67250000D02*
X175250000Y-67250000D01*
X174750000Y-66750000D02*
X174750000Y-67250000D01*
X177250000Y-67000000D02*
X177250000Y-65000000D01*
X168750000Y-67250000D02*
X169250000Y-67250000D01*
X168750000Y-66750000D02*
X168750000Y-67250000D01*
X171250000Y-67000000D02*
X171250000Y-65000000D01*
X162750000Y-67250000D02*
X163250000Y-67250000D01*
X162750000Y-66750000D02*
X162750000Y-67250000D01*
X165250000Y-67000000D02*
X165250000Y-65000000D01*
X156750000Y-67250000D02*
X157250000Y-67250000D01*
X156750000Y-66750000D02*
X156750000Y-67250000D01*
X159250000Y-67000000D02*
X159250000Y-65000000D01*
X150750000Y-67250000D02*
X151250000Y-67250000D01*
X150750000Y-66750000D02*
X150750000Y-67250000D01*
X153250000Y-67000000D02*
X153250000Y-65000000D01*
X144750000Y-67250000D02*
X145250000Y-67250000D01*
X144750000Y-66750000D02*
X144750000Y-67250000D01*
X147250000Y-67000000D02*
X147250000Y-65000000D01*
X138750000Y-67250000D02*
X139250000Y-67250000D01*
X138750000Y-66750000D02*
X138750000Y-67250000D01*
X141250000Y-67000000D02*
X141250000Y-65000000D01*
X132750000Y-67250000D02*
X133250000Y-67250000D01*
X132750000Y-66750000D02*
X132750000Y-67250000D01*
X135250000Y-67000000D02*
X135250000Y-65000000D01*
X231250000Y-58750000D02*
X230750000Y-58750000D01*
X231250000Y-59250000D02*
X231250000Y-58750000D01*
X228750000Y-59000000D02*
X228750000Y-61000000D01*
X225250000Y-58750000D02*
X224750000Y-58750000D01*
X225250000Y-59250000D02*
X225250000Y-58750000D01*
X222750000Y-59000000D02*
X222750000Y-61000000D01*
X219250000Y-58750000D02*
X218750000Y-58750000D01*
X219250000Y-59250000D02*
X219250000Y-58750000D01*
X216750000Y-59000000D02*
X216750000Y-61000000D01*
X213250000Y-58750000D02*
X212750000Y-58750000D01*
X213250000Y-59250000D02*
X213250000Y-58750000D01*
X210750000Y-59000000D02*
X210750000Y-61000000D01*
X207250000Y-58750000D02*
X206750000Y-58750000D01*
X207250000Y-59250000D02*
X207250000Y-58750000D01*
X204750000Y-59000000D02*
X204750000Y-61000000D01*
X201250000Y-58750000D02*
X200750000Y-58750000D01*
X201250000Y-59250000D02*
X201250000Y-58750000D01*
X198750000Y-59000000D02*
X198750000Y-61000000D01*
X195250000Y-58750000D02*
X194750000Y-58750000D01*
X195250000Y-59250000D02*
X195250000Y-58750000D01*
X192750000Y-59000000D02*
X192750000Y-61000000D01*
X189250000Y-58750000D02*
X188750000Y-58750000D01*
X189250000Y-59250000D02*
X189250000Y-58750000D01*
X186750000Y-59000000D02*
X186750000Y-61000000D01*
X183250000Y-58750000D02*
X182750000Y-58750000D01*
X183250000Y-59250000D02*
X183250000Y-58750000D01*
X180750000Y-59000000D02*
X180750000Y-61000000D01*
X177250000Y-58750000D02*
X176750000Y-58750000D01*
X177250000Y-59250000D02*
X177250000Y-58750000D01*
X174750000Y-59000000D02*
X174750000Y-61000000D01*
X171250000Y-58750000D02*
X170750000Y-58750000D01*
X171250000Y-59250000D02*
X171250000Y-58750000D01*
X168750000Y-59000000D02*
X168750000Y-61000000D01*
X165250000Y-58750000D02*
X164750000Y-58750000D01*
X165250000Y-59250000D02*
X165250000Y-58750000D01*
X162750000Y-59000000D02*
X162750000Y-61000000D01*
X159250000Y-58750000D02*
X158750000Y-58750000D01*
X159250000Y-59250000D02*
X159250000Y-58750000D01*
X156750000Y-59000000D02*
X156750000Y-61000000D01*
X153250000Y-58750000D02*
X152750000Y-58750000D01*
X153250000Y-59250000D02*
X153250000Y-58750000D01*
X150750000Y-59000000D02*
X150750000Y-61000000D01*
X147250000Y-58750000D02*
X146750000Y-58750000D01*
X147250000Y-59250000D02*
X147250000Y-58750000D01*
X144750000Y-59000000D02*
X144750000Y-61000000D01*
X141250000Y-58750000D02*
X140750000Y-58750000D01*
X141250000Y-59250000D02*
X141250000Y-58750000D01*
X138750000Y-59000000D02*
X138750000Y-61000000D01*
X223837221Y-63390000D02*
X224162779Y-63390000D01*
X223837221Y-64410000D02*
X224162779Y-64410000D01*
X211837221Y-63390000D02*
X212162779Y-63390000D01*
X211837221Y-64410000D02*
X212162779Y-64410000D01*
X199837221Y-64410000D02*
X200162779Y-64410000D01*
X199837221Y-63390000D02*
X200162779Y-63390000D01*
X187837221Y-63390000D02*
X188162779Y-63390000D01*
X187837221Y-64410000D02*
X188162779Y-64410000D01*
X175837221Y-64410000D02*
X176162779Y-64410000D01*
X175837221Y-63390000D02*
X176162779Y-63390000D01*
X163837221Y-63390000D02*
X164162779Y-63390000D01*
X163837221Y-64410000D02*
X164162779Y-64410000D01*
X151837221Y-64410000D02*
X152162779Y-64410000D01*
X151837221Y-63390000D02*
X152162779Y-63390000D01*
X139837221Y-63390000D02*
X140162779Y-63390000D01*
X139837221Y-64410000D02*
X140162779Y-64410000D01*
X175990000Y-89437221D02*
X175990000Y-89762779D01*
X177010000Y-89437221D02*
X177010000Y-89762779D01*
D11*
X173752380Y-87366666D02*
X173276190Y-87700000D01*
X173752380Y-87938095D02*
X172752380Y-87938095D01*
X172752380Y-87557142D01*
X172800000Y-87461904D01*
X172847619Y-87414285D01*
X172942857Y-87366666D01*
X173085714Y-87366666D01*
X173180952Y-87414285D01*
X173228571Y-87461904D01*
X173276190Y-87557142D01*
X173276190Y-87938095D01*
X172752380Y-87033333D02*
X172752380Y-86414285D01*
X173133333Y-86747619D01*
X173133333Y-86604761D01*
X173180952Y-86509523D01*
X173228571Y-86461904D01*
X173323809Y-86414285D01*
X173561904Y-86414285D01*
X173657142Y-86461904D01*
X173704761Y-86509523D01*
X173752380Y-86604761D01*
X173752380Y-86890476D01*
X173704761Y-86985714D01*
X173657142Y-87033333D01*
X175352380Y-87366666D02*
X174876190Y-87700000D01*
X175352380Y-87938095D02*
X174352380Y-87938095D01*
X174352380Y-87557142D01*
X174400000Y-87461904D01*
X174447619Y-87414285D01*
X174542857Y-87366666D01*
X174685714Y-87366666D01*
X174780952Y-87414285D01*
X174828571Y-87461904D01*
X174876190Y-87557142D01*
X174876190Y-87938095D01*
X175352380Y-86414285D02*
X175352380Y-86985714D01*
X175352380Y-86700000D02*
X174352380Y-86700000D01*
X174495238Y-86795238D01*
X174590476Y-86890476D01*
X174638095Y-86985714D01*
X161066666Y-85352380D02*
X161066666Y-86066666D01*
X161019047Y-86209523D01*
X160923809Y-86304761D01*
X160780952Y-86352380D01*
X160685714Y-86352380D01*
X162066666Y-86352380D02*
X161495238Y-86352380D01*
X161780952Y-86352380D02*
X161780952Y-85352380D01*
X161685714Y-85495238D01*
X161590476Y-85590476D01*
X161495238Y-85638095D01*
X178457142Y-87366666D02*
X178504761Y-87414285D01*
X178552380Y-87557142D01*
X178552380Y-87652380D01*
X178504761Y-87795238D01*
X178409523Y-87890476D01*
X178314285Y-87938095D01*
X178123809Y-87985714D01*
X177980952Y-87985714D01*
X177790476Y-87938095D01*
X177695238Y-87890476D01*
X177600000Y-87795238D01*
X177552380Y-87652380D01*
X177552380Y-87557142D01*
X177600000Y-87414285D01*
X177647619Y-87366666D01*
X177647619Y-86985714D02*
X177600000Y-86938095D01*
X177552380Y-86842857D01*
X177552380Y-86604761D01*
X177600000Y-86509523D01*
X177647619Y-86461904D01*
X177742857Y-86414285D01*
X177838095Y-86414285D01*
X177980952Y-86461904D01*
X178552380Y-87033333D01*
X178552380Y-86414285D01*
X183702380Y-91261904D02*
X184511904Y-91261904D01*
X184607142Y-91214285D01*
X184654761Y-91166666D01*
X184702380Y-91071428D01*
X184702380Y-90880952D01*
X184654761Y-90785714D01*
X184607142Y-90738095D01*
X184511904Y-90690476D01*
X183702380Y-90690476D01*
X183797619Y-90261904D02*
X183750000Y-90214285D01*
X183702380Y-90119047D01*
X183702380Y-89880952D01*
X183750000Y-89785714D01*
X183797619Y-89738095D01*
X183892857Y-89690476D01*
X183988095Y-89690476D01*
X184130952Y-89738095D01*
X184702380Y-90309523D01*
X184702380Y-89690476D01*
X223833333Y-74827142D02*
X223785714Y-74874761D01*
X223642857Y-74922380D01*
X223547619Y-74922380D01*
X223404761Y-74874761D01*
X223309523Y-74779523D01*
X223261904Y-74684285D01*
X223214285Y-74493809D01*
X223214285Y-74350952D01*
X223261904Y-74160476D01*
X223309523Y-74065238D01*
X223404761Y-73970000D01*
X223547619Y-73922380D01*
X223642857Y-73922380D01*
X223785714Y-73970000D01*
X223833333Y-74017619D01*
X224785714Y-74922380D02*
X224214285Y-74922380D01*
X224500000Y-74922380D02*
X224500000Y-73922380D01*
X224404761Y-74065238D01*
X224309523Y-74160476D01*
X224214285Y-74208095D01*
X211833333Y-74827142D02*
X211785714Y-74874761D01*
X211642857Y-74922380D01*
X211547619Y-74922380D01*
X211404761Y-74874761D01*
X211309523Y-74779523D01*
X211261904Y-74684285D01*
X211214285Y-74493809D01*
X211214285Y-74350952D01*
X211261904Y-74160476D01*
X211309523Y-74065238D01*
X211404761Y-73970000D01*
X211547619Y-73922380D01*
X211642857Y-73922380D01*
X211785714Y-73970000D01*
X211833333Y-74017619D01*
X212785714Y-74922380D02*
X212214285Y-74922380D01*
X212500000Y-74922380D02*
X212500000Y-73922380D01*
X212404761Y-74065238D01*
X212309523Y-74160476D01*
X212214285Y-74208095D01*
X199833333Y-74827142D02*
X199785714Y-74874761D01*
X199642857Y-74922380D01*
X199547619Y-74922380D01*
X199404761Y-74874761D01*
X199309523Y-74779523D01*
X199261904Y-74684285D01*
X199214285Y-74493809D01*
X199214285Y-74350952D01*
X199261904Y-74160476D01*
X199309523Y-74065238D01*
X199404761Y-73970000D01*
X199547619Y-73922380D01*
X199642857Y-73922380D01*
X199785714Y-73970000D01*
X199833333Y-74017619D01*
X200785714Y-74922380D02*
X200214285Y-74922380D01*
X200500000Y-74922380D02*
X200500000Y-73922380D01*
X200404761Y-74065238D01*
X200309523Y-74160476D01*
X200214285Y-74208095D01*
X187833333Y-74827142D02*
X187785714Y-74874761D01*
X187642857Y-74922380D01*
X187547619Y-74922380D01*
X187404761Y-74874761D01*
X187309523Y-74779523D01*
X187261904Y-74684285D01*
X187214285Y-74493809D01*
X187214285Y-74350952D01*
X187261904Y-74160476D01*
X187309523Y-74065238D01*
X187404761Y-73970000D01*
X187547619Y-73922380D01*
X187642857Y-73922380D01*
X187785714Y-73970000D01*
X187833333Y-74017619D01*
X188785714Y-74922380D02*
X188214285Y-74922380D01*
X188500000Y-74922380D02*
X188500000Y-73922380D01*
X188404761Y-74065238D01*
X188309523Y-74160476D01*
X188214285Y-74208095D01*
X175833333Y-74827142D02*
X175785714Y-74874761D01*
X175642857Y-74922380D01*
X175547619Y-74922380D01*
X175404761Y-74874761D01*
X175309523Y-74779523D01*
X175261904Y-74684285D01*
X175214285Y-74493809D01*
X175214285Y-74350952D01*
X175261904Y-74160476D01*
X175309523Y-74065238D01*
X175404761Y-73970000D01*
X175547619Y-73922380D01*
X175642857Y-73922380D01*
X175785714Y-73970000D01*
X175833333Y-74017619D01*
X176785714Y-74922380D02*
X176214285Y-74922380D01*
X176500000Y-74922380D02*
X176500000Y-73922380D01*
X176404761Y-74065238D01*
X176309523Y-74160476D01*
X176214285Y-74208095D01*
X163833333Y-74827142D02*
X163785714Y-74874761D01*
X163642857Y-74922380D01*
X163547619Y-74922380D01*
X163404761Y-74874761D01*
X163309523Y-74779523D01*
X163261904Y-74684285D01*
X163214285Y-74493809D01*
X163214285Y-74350952D01*
X163261904Y-74160476D01*
X163309523Y-74065238D01*
X163404761Y-73970000D01*
X163547619Y-73922380D01*
X163642857Y-73922380D01*
X163785714Y-73970000D01*
X163833333Y-74017619D01*
X164785714Y-74922380D02*
X164214285Y-74922380D01*
X164500000Y-74922380D02*
X164500000Y-73922380D01*
X164404761Y-74065238D01*
X164309523Y-74160476D01*
X164214285Y-74208095D01*
X151833333Y-74827142D02*
X151785714Y-74874761D01*
X151642857Y-74922380D01*
X151547619Y-74922380D01*
X151404761Y-74874761D01*
X151309523Y-74779523D01*
X151261904Y-74684285D01*
X151214285Y-74493809D01*
X151214285Y-74350952D01*
X151261904Y-74160476D01*
X151309523Y-74065238D01*
X151404761Y-73970000D01*
X151547619Y-73922380D01*
X151642857Y-73922380D01*
X151785714Y-73970000D01*
X151833333Y-74017619D01*
X152785714Y-74922380D02*
X152214285Y-74922380D01*
X152500000Y-74922380D02*
X152500000Y-73922380D01*
X152404761Y-74065238D01*
X152309523Y-74160476D01*
X152214285Y-74208095D01*
X139833333Y-74827142D02*
X139785714Y-74874761D01*
X139642857Y-74922380D01*
X139547619Y-74922380D01*
X139404761Y-74874761D01*
X139309523Y-74779523D01*
X139261904Y-74684285D01*
X139214285Y-74493809D01*
X139214285Y-74350952D01*
X139261904Y-74160476D01*
X139309523Y-74065238D01*
X139404761Y-73970000D01*
X139547619Y-73922380D01*
X139642857Y-73922380D01*
X139785714Y-73970000D01*
X139833333Y-74017619D01*
X140785714Y-74922380D02*
X140214285Y-74922380D01*
X140500000Y-74922380D02*
X140500000Y-73922380D01*
X140404761Y-74065238D01*
X140309523Y-74160476D01*
X140214285Y-74208095D01*
X132202380Y-60738095D02*
X131202380Y-60738095D01*
X131202380Y-60500000D01*
X131250000Y-60357142D01*
X131345238Y-60261904D01*
X131440476Y-60214285D01*
X131630952Y-60166666D01*
X131773809Y-60166666D01*
X131964285Y-60214285D01*
X132059523Y-60261904D01*
X132154761Y-60357142D01*
X132202380Y-60500000D01*
X132202380Y-60738095D01*
X132202380Y-59214285D02*
X132202380Y-59785714D01*
X132202380Y-59500000D02*
X131202380Y-59500000D01*
X131345238Y-59595238D01*
X131440476Y-59690476D01*
X131488095Y-59785714D01*
X228202380Y-84738095D02*
X227202380Y-84738095D01*
X227202380Y-84500000D01*
X227250000Y-84357142D01*
X227345238Y-84261904D01*
X227440476Y-84214285D01*
X227630952Y-84166666D01*
X227773809Y-84166666D01*
X227964285Y-84214285D01*
X228059523Y-84261904D01*
X228154761Y-84357142D01*
X228202380Y-84500000D01*
X228202380Y-84738095D01*
X228202380Y-83214285D02*
X228202380Y-83785714D01*
X228202380Y-83500000D02*
X227202380Y-83500000D01*
X227345238Y-83595238D01*
X227440476Y-83690476D01*
X227488095Y-83785714D01*
X222202380Y-84738095D02*
X221202380Y-84738095D01*
X221202380Y-84500000D01*
X221250000Y-84357142D01*
X221345238Y-84261904D01*
X221440476Y-84214285D01*
X221630952Y-84166666D01*
X221773809Y-84166666D01*
X221964285Y-84214285D01*
X222059523Y-84261904D01*
X222154761Y-84357142D01*
X222202380Y-84500000D01*
X222202380Y-84738095D01*
X222202380Y-83214285D02*
X222202380Y-83785714D01*
X222202380Y-83500000D02*
X221202380Y-83500000D01*
X221345238Y-83595238D01*
X221440476Y-83690476D01*
X221488095Y-83785714D01*
X216202380Y-84738095D02*
X215202380Y-84738095D01*
X215202380Y-84500000D01*
X215250000Y-84357142D01*
X215345238Y-84261904D01*
X215440476Y-84214285D01*
X215630952Y-84166666D01*
X215773809Y-84166666D01*
X215964285Y-84214285D01*
X216059523Y-84261904D01*
X216154761Y-84357142D01*
X216202380Y-84500000D01*
X216202380Y-84738095D01*
X216202380Y-83214285D02*
X216202380Y-83785714D01*
X216202380Y-83500000D02*
X215202380Y-83500000D01*
X215345238Y-83595238D01*
X215440476Y-83690476D01*
X215488095Y-83785714D01*
X210202380Y-84738095D02*
X209202380Y-84738095D01*
X209202380Y-84500000D01*
X209250000Y-84357142D01*
X209345238Y-84261904D01*
X209440476Y-84214285D01*
X209630952Y-84166666D01*
X209773809Y-84166666D01*
X209964285Y-84214285D01*
X210059523Y-84261904D01*
X210154761Y-84357142D01*
X210202380Y-84500000D01*
X210202380Y-84738095D01*
X210202380Y-83214285D02*
X210202380Y-83785714D01*
X210202380Y-83500000D02*
X209202380Y-83500000D01*
X209345238Y-83595238D01*
X209440476Y-83690476D01*
X209488095Y-83785714D01*
X204202380Y-84738095D02*
X203202380Y-84738095D01*
X203202380Y-84500000D01*
X203250000Y-84357142D01*
X203345238Y-84261904D01*
X203440476Y-84214285D01*
X203630952Y-84166666D01*
X203773809Y-84166666D01*
X203964285Y-84214285D01*
X204059523Y-84261904D01*
X204154761Y-84357142D01*
X204202380Y-84500000D01*
X204202380Y-84738095D01*
X204202380Y-83214285D02*
X204202380Y-83785714D01*
X204202380Y-83500000D02*
X203202380Y-83500000D01*
X203345238Y-83595238D01*
X203440476Y-83690476D01*
X203488095Y-83785714D01*
X198202380Y-84738095D02*
X197202380Y-84738095D01*
X197202380Y-84500000D01*
X197250000Y-84357142D01*
X197345238Y-84261904D01*
X197440476Y-84214285D01*
X197630952Y-84166666D01*
X197773809Y-84166666D01*
X197964285Y-84214285D01*
X198059523Y-84261904D01*
X198154761Y-84357142D01*
X198202380Y-84500000D01*
X198202380Y-84738095D01*
X198202380Y-83214285D02*
X198202380Y-83785714D01*
X198202380Y-83500000D02*
X197202380Y-83500000D01*
X197345238Y-83595238D01*
X197440476Y-83690476D01*
X197488095Y-83785714D01*
X192202380Y-84738095D02*
X191202380Y-84738095D01*
X191202380Y-84500000D01*
X191250000Y-84357142D01*
X191345238Y-84261904D01*
X191440476Y-84214285D01*
X191630952Y-84166666D01*
X191773809Y-84166666D01*
X191964285Y-84214285D01*
X192059523Y-84261904D01*
X192154761Y-84357142D01*
X192202380Y-84500000D01*
X192202380Y-84738095D01*
X192202380Y-83214285D02*
X192202380Y-83785714D01*
X192202380Y-83500000D02*
X191202380Y-83500000D01*
X191345238Y-83595238D01*
X191440476Y-83690476D01*
X191488095Y-83785714D01*
X186202380Y-84738095D02*
X185202380Y-84738095D01*
X185202380Y-84500000D01*
X185250000Y-84357142D01*
X185345238Y-84261904D01*
X185440476Y-84214285D01*
X185630952Y-84166666D01*
X185773809Y-84166666D01*
X185964285Y-84214285D01*
X186059523Y-84261904D01*
X186154761Y-84357142D01*
X186202380Y-84500000D01*
X186202380Y-84738095D01*
X186202380Y-83214285D02*
X186202380Y-83785714D01*
X186202380Y-83500000D02*
X185202380Y-83500000D01*
X185345238Y-83595238D01*
X185440476Y-83690476D01*
X185488095Y-83785714D01*
X180202380Y-84738095D02*
X179202380Y-84738095D01*
X179202380Y-84500000D01*
X179250000Y-84357142D01*
X179345238Y-84261904D01*
X179440476Y-84214285D01*
X179630952Y-84166666D01*
X179773809Y-84166666D01*
X179964285Y-84214285D01*
X180059523Y-84261904D01*
X180154761Y-84357142D01*
X180202380Y-84500000D01*
X180202380Y-84738095D01*
X180202380Y-83214285D02*
X180202380Y-83785714D01*
X180202380Y-83500000D02*
X179202380Y-83500000D01*
X179345238Y-83595238D01*
X179440476Y-83690476D01*
X179488095Y-83785714D01*
X174202380Y-84738095D02*
X173202380Y-84738095D01*
X173202380Y-84500000D01*
X173250000Y-84357142D01*
X173345238Y-84261904D01*
X173440476Y-84214285D01*
X173630952Y-84166666D01*
X173773809Y-84166666D01*
X173964285Y-84214285D01*
X174059523Y-84261904D01*
X174154761Y-84357142D01*
X174202380Y-84500000D01*
X174202380Y-84738095D01*
X174202380Y-83214285D02*
X174202380Y-83785714D01*
X174202380Y-83500000D02*
X173202380Y-83500000D01*
X173345238Y-83595238D01*
X173440476Y-83690476D01*
X173488095Y-83785714D01*
X168202380Y-84738095D02*
X167202380Y-84738095D01*
X167202380Y-84500000D01*
X167250000Y-84357142D01*
X167345238Y-84261904D01*
X167440476Y-84214285D01*
X167630952Y-84166666D01*
X167773809Y-84166666D01*
X167964285Y-84214285D01*
X168059523Y-84261904D01*
X168154761Y-84357142D01*
X168202380Y-84500000D01*
X168202380Y-84738095D01*
X168202380Y-83214285D02*
X168202380Y-83785714D01*
X168202380Y-83500000D02*
X167202380Y-83500000D01*
X167345238Y-83595238D01*
X167440476Y-83690476D01*
X167488095Y-83785714D01*
X162202380Y-84738095D02*
X161202380Y-84738095D01*
X161202380Y-84500000D01*
X161250000Y-84357142D01*
X161345238Y-84261904D01*
X161440476Y-84214285D01*
X161630952Y-84166666D01*
X161773809Y-84166666D01*
X161964285Y-84214285D01*
X162059523Y-84261904D01*
X162154761Y-84357142D01*
X162202380Y-84500000D01*
X162202380Y-84738095D01*
X162202380Y-83214285D02*
X162202380Y-83785714D01*
X162202380Y-83500000D02*
X161202380Y-83500000D01*
X161345238Y-83595238D01*
X161440476Y-83690476D01*
X161488095Y-83785714D01*
X156202380Y-84738095D02*
X155202380Y-84738095D01*
X155202380Y-84500000D01*
X155250000Y-84357142D01*
X155345238Y-84261904D01*
X155440476Y-84214285D01*
X155630952Y-84166666D01*
X155773809Y-84166666D01*
X155964285Y-84214285D01*
X156059523Y-84261904D01*
X156154761Y-84357142D01*
X156202380Y-84500000D01*
X156202380Y-84738095D01*
X156202380Y-83214285D02*
X156202380Y-83785714D01*
X156202380Y-83500000D02*
X155202380Y-83500000D01*
X155345238Y-83595238D01*
X155440476Y-83690476D01*
X155488095Y-83785714D01*
X150202380Y-84738095D02*
X149202380Y-84738095D01*
X149202380Y-84500000D01*
X149250000Y-84357142D01*
X149345238Y-84261904D01*
X149440476Y-84214285D01*
X149630952Y-84166666D01*
X149773809Y-84166666D01*
X149964285Y-84214285D01*
X150059523Y-84261904D01*
X150154761Y-84357142D01*
X150202380Y-84500000D01*
X150202380Y-84738095D01*
X150202380Y-83214285D02*
X150202380Y-83785714D01*
X150202380Y-83500000D02*
X149202380Y-83500000D01*
X149345238Y-83595238D01*
X149440476Y-83690476D01*
X149488095Y-83785714D01*
X144202380Y-84738095D02*
X143202380Y-84738095D01*
X143202380Y-84500000D01*
X143250000Y-84357142D01*
X143345238Y-84261904D01*
X143440476Y-84214285D01*
X143630952Y-84166666D01*
X143773809Y-84166666D01*
X143964285Y-84214285D01*
X144059523Y-84261904D01*
X144154761Y-84357142D01*
X144202380Y-84500000D01*
X144202380Y-84738095D01*
X144202380Y-83214285D02*
X144202380Y-83785714D01*
X144202380Y-83500000D02*
X143202380Y-83500000D01*
X143345238Y-83595238D01*
X143440476Y-83690476D01*
X143488095Y-83785714D01*
X138202380Y-84738095D02*
X137202380Y-84738095D01*
X137202380Y-84500000D01*
X137250000Y-84357142D01*
X137345238Y-84261904D01*
X137440476Y-84214285D01*
X137630952Y-84166666D01*
X137773809Y-84166666D01*
X137964285Y-84214285D01*
X138059523Y-84261904D01*
X138154761Y-84357142D01*
X138202380Y-84500000D01*
X138202380Y-84738095D01*
X138202380Y-83214285D02*
X138202380Y-83785714D01*
X138202380Y-83500000D02*
X137202380Y-83500000D01*
X137345238Y-83595238D01*
X137440476Y-83690476D01*
X137488095Y-83785714D01*
X132202380Y-84738095D02*
X131202380Y-84738095D01*
X131202380Y-84500000D01*
X131250000Y-84357142D01*
X131345238Y-84261904D01*
X131440476Y-84214285D01*
X131630952Y-84166666D01*
X131773809Y-84166666D01*
X131964285Y-84214285D01*
X132059523Y-84261904D01*
X132154761Y-84357142D01*
X132202380Y-84500000D01*
X132202380Y-84738095D01*
X132202380Y-83214285D02*
X132202380Y-83785714D01*
X132202380Y-83500000D02*
X131202380Y-83500000D01*
X131345238Y-83595238D01*
X131440476Y-83690476D01*
X131488095Y-83785714D01*
X232702380Y-78738095D02*
X231702380Y-78738095D01*
X231702380Y-78500000D01*
X231750000Y-78357142D01*
X231845238Y-78261904D01*
X231940476Y-78214285D01*
X232130952Y-78166666D01*
X232273809Y-78166666D01*
X232464285Y-78214285D01*
X232559523Y-78261904D01*
X232654761Y-78357142D01*
X232702380Y-78500000D01*
X232702380Y-78738095D01*
X232702380Y-77214285D02*
X232702380Y-77785714D01*
X232702380Y-77500000D02*
X231702380Y-77500000D01*
X231845238Y-77595238D01*
X231940476Y-77690476D01*
X231988095Y-77785714D01*
X226702380Y-78738095D02*
X225702380Y-78738095D01*
X225702380Y-78500000D01*
X225750000Y-78357142D01*
X225845238Y-78261904D01*
X225940476Y-78214285D01*
X226130952Y-78166666D01*
X226273809Y-78166666D01*
X226464285Y-78214285D01*
X226559523Y-78261904D01*
X226654761Y-78357142D01*
X226702380Y-78500000D01*
X226702380Y-78738095D01*
X226702380Y-77214285D02*
X226702380Y-77785714D01*
X226702380Y-77500000D02*
X225702380Y-77500000D01*
X225845238Y-77595238D01*
X225940476Y-77690476D01*
X225988095Y-77785714D01*
X220702380Y-78738095D02*
X219702380Y-78738095D01*
X219702380Y-78500000D01*
X219750000Y-78357142D01*
X219845238Y-78261904D01*
X219940476Y-78214285D01*
X220130952Y-78166666D01*
X220273809Y-78166666D01*
X220464285Y-78214285D01*
X220559523Y-78261904D01*
X220654761Y-78357142D01*
X220702380Y-78500000D01*
X220702380Y-78738095D01*
X220702380Y-77214285D02*
X220702380Y-77785714D01*
X220702380Y-77500000D02*
X219702380Y-77500000D01*
X219845238Y-77595238D01*
X219940476Y-77690476D01*
X219988095Y-77785714D01*
X214702380Y-78738095D02*
X213702380Y-78738095D01*
X213702380Y-78500000D01*
X213750000Y-78357142D01*
X213845238Y-78261904D01*
X213940476Y-78214285D01*
X214130952Y-78166666D01*
X214273809Y-78166666D01*
X214464285Y-78214285D01*
X214559523Y-78261904D01*
X214654761Y-78357142D01*
X214702380Y-78500000D01*
X214702380Y-78738095D01*
X214702380Y-77214285D02*
X214702380Y-77785714D01*
X214702380Y-77500000D02*
X213702380Y-77500000D01*
X213845238Y-77595238D01*
X213940476Y-77690476D01*
X213988095Y-77785714D01*
X208702380Y-78738095D02*
X207702380Y-78738095D01*
X207702380Y-78500000D01*
X207750000Y-78357142D01*
X207845238Y-78261904D01*
X207940476Y-78214285D01*
X208130952Y-78166666D01*
X208273809Y-78166666D01*
X208464285Y-78214285D01*
X208559523Y-78261904D01*
X208654761Y-78357142D01*
X208702380Y-78500000D01*
X208702380Y-78738095D01*
X208702380Y-77214285D02*
X208702380Y-77785714D01*
X208702380Y-77500000D02*
X207702380Y-77500000D01*
X207845238Y-77595238D01*
X207940476Y-77690476D01*
X207988095Y-77785714D01*
X202702380Y-78738095D02*
X201702380Y-78738095D01*
X201702380Y-78500000D01*
X201750000Y-78357142D01*
X201845238Y-78261904D01*
X201940476Y-78214285D01*
X202130952Y-78166666D01*
X202273809Y-78166666D01*
X202464285Y-78214285D01*
X202559523Y-78261904D01*
X202654761Y-78357142D01*
X202702380Y-78500000D01*
X202702380Y-78738095D01*
X202702380Y-77214285D02*
X202702380Y-77785714D01*
X202702380Y-77500000D02*
X201702380Y-77500000D01*
X201845238Y-77595238D01*
X201940476Y-77690476D01*
X201988095Y-77785714D01*
X196702380Y-78738095D02*
X195702380Y-78738095D01*
X195702380Y-78500000D01*
X195750000Y-78357142D01*
X195845238Y-78261904D01*
X195940476Y-78214285D01*
X196130952Y-78166666D01*
X196273809Y-78166666D01*
X196464285Y-78214285D01*
X196559523Y-78261904D01*
X196654761Y-78357142D01*
X196702380Y-78500000D01*
X196702380Y-78738095D01*
X196702380Y-77214285D02*
X196702380Y-77785714D01*
X196702380Y-77500000D02*
X195702380Y-77500000D01*
X195845238Y-77595238D01*
X195940476Y-77690476D01*
X195988095Y-77785714D01*
X190702380Y-78738095D02*
X189702380Y-78738095D01*
X189702380Y-78500000D01*
X189750000Y-78357142D01*
X189845238Y-78261904D01*
X189940476Y-78214285D01*
X190130952Y-78166666D01*
X190273809Y-78166666D01*
X190464285Y-78214285D01*
X190559523Y-78261904D01*
X190654761Y-78357142D01*
X190702380Y-78500000D01*
X190702380Y-78738095D01*
X190702380Y-77214285D02*
X190702380Y-77785714D01*
X190702380Y-77500000D02*
X189702380Y-77500000D01*
X189845238Y-77595238D01*
X189940476Y-77690476D01*
X189988095Y-77785714D01*
X184702380Y-78738095D02*
X183702380Y-78738095D01*
X183702380Y-78500000D01*
X183750000Y-78357142D01*
X183845238Y-78261904D01*
X183940476Y-78214285D01*
X184130952Y-78166666D01*
X184273809Y-78166666D01*
X184464285Y-78214285D01*
X184559523Y-78261904D01*
X184654761Y-78357142D01*
X184702380Y-78500000D01*
X184702380Y-78738095D01*
X184702380Y-77214285D02*
X184702380Y-77785714D01*
X184702380Y-77500000D02*
X183702380Y-77500000D01*
X183845238Y-77595238D01*
X183940476Y-77690476D01*
X183988095Y-77785714D01*
X178702380Y-78738095D02*
X177702380Y-78738095D01*
X177702380Y-78500000D01*
X177750000Y-78357142D01*
X177845238Y-78261904D01*
X177940476Y-78214285D01*
X178130952Y-78166666D01*
X178273809Y-78166666D01*
X178464285Y-78214285D01*
X178559523Y-78261904D01*
X178654761Y-78357142D01*
X178702380Y-78500000D01*
X178702380Y-78738095D01*
X178702380Y-77214285D02*
X178702380Y-77785714D01*
X178702380Y-77500000D02*
X177702380Y-77500000D01*
X177845238Y-77595238D01*
X177940476Y-77690476D01*
X177988095Y-77785714D01*
X172702380Y-78738095D02*
X171702380Y-78738095D01*
X171702380Y-78500000D01*
X171750000Y-78357142D01*
X171845238Y-78261904D01*
X171940476Y-78214285D01*
X172130952Y-78166666D01*
X172273809Y-78166666D01*
X172464285Y-78214285D01*
X172559523Y-78261904D01*
X172654761Y-78357142D01*
X172702380Y-78500000D01*
X172702380Y-78738095D01*
X172702380Y-77214285D02*
X172702380Y-77785714D01*
X172702380Y-77500000D02*
X171702380Y-77500000D01*
X171845238Y-77595238D01*
X171940476Y-77690476D01*
X171988095Y-77785714D01*
X166702380Y-78738095D02*
X165702380Y-78738095D01*
X165702380Y-78500000D01*
X165750000Y-78357142D01*
X165845238Y-78261904D01*
X165940476Y-78214285D01*
X166130952Y-78166666D01*
X166273809Y-78166666D01*
X166464285Y-78214285D01*
X166559523Y-78261904D01*
X166654761Y-78357142D01*
X166702380Y-78500000D01*
X166702380Y-78738095D01*
X166702380Y-77214285D02*
X166702380Y-77785714D01*
X166702380Y-77500000D02*
X165702380Y-77500000D01*
X165845238Y-77595238D01*
X165940476Y-77690476D01*
X165988095Y-77785714D01*
X160702380Y-78738095D02*
X159702380Y-78738095D01*
X159702380Y-78500000D01*
X159750000Y-78357142D01*
X159845238Y-78261904D01*
X159940476Y-78214285D01*
X160130952Y-78166666D01*
X160273809Y-78166666D01*
X160464285Y-78214285D01*
X160559523Y-78261904D01*
X160654761Y-78357142D01*
X160702380Y-78500000D01*
X160702380Y-78738095D01*
X160702380Y-77214285D02*
X160702380Y-77785714D01*
X160702380Y-77500000D02*
X159702380Y-77500000D01*
X159845238Y-77595238D01*
X159940476Y-77690476D01*
X159988095Y-77785714D01*
X154702380Y-78738095D02*
X153702380Y-78738095D01*
X153702380Y-78500000D01*
X153750000Y-78357142D01*
X153845238Y-78261904D01*
X153940476Y-78214285D01*
X154130952Y-78166666D01*
X154273809Y-78166666D01*
X154464285Y-78214285D01*
X154559523Y-78261904D01*
X154654761Y-78357142D01*
X154702380Y-78500000D01*
X154702380Y-78738095D01*
X154702380Y-77214285D02*
X154702380Y-77785714D01*
X154702380Y-77500000D02*
X153702380Y-77500000D01*
X153845238Y-77595238D01*
X153940476Y-77690476D01*
X153988095Y-77785714D01*
X148702380Y-78738095D02*
X147702380Y-78738095D01*
X147702380Y-78500000D01*
X147750000Y-78357142D01*
X147845238Y-78261904D01*
X147940476Y-78214285D01*
X148130952Y-78166666D01*
X148273809Y-78166666D01*
X148464285Y-78214285D01*
X148559523Y-78261904D01*
X148654761Y-78357142D01*
X148702380Y-78500000D01*
X148702380Y-78738095D01*
X148702380Y-77214285D02*
X148702380Y-77785714D01*
X148702380Y-77500000D02*
X147702380Y-77500000D01*
X147845238Y-77595238D01*
X147940476Y-77690476D01*
X147988095Y-77785714D01*
X142702380Y-78738095D02*
X141702380Y-78738095D01*
X141702380Y-78500000D01*
X141750000Y-78357142D01*
X141845238Y-78261904D01*
X141940476Y-78214285D01*
X142130952Y-78166666D01*
X142273809Y-78166666D01*
X142464285Y-78214285D01*
X142559523Y-78261904D01*
X142654761Y-78357142D01*
X142702380Y-78500000D01*
X142702380Y-78738095D01*
X142702380Y-77214285D02*
X142702380Y-77785714D01*
X142702380Y-77500000D02*
X141702380Y-77500000D01*
X141845238Y-77595238D01*
X141940476Y-77690476D01*
X141988095Y-77785714D01*
X136702380Y-78738095D02*
X135702380Y-78738095D01*
X135702380Y-78500000D01*
X135750000Y-78357142D01*
X135845238Y-78261904D01*
X135940476Y-78214285D01*
X136130952Y-78166666D01*
X136273809Y-78166666D01*
X136464285Y-78214285D01*
X136559523Y-78261904D01*
X136654761Y-78357142D01*
X136702380Y-78500000D01*
X136702380Y-78738095D01*
X136702380Y-77214285D02*
X136702380Y-77785714D01*
X136702380Y-77500000D02*
X135702380Y-77500000D01*
X135845238Y-77595238D01*
X135940476Y-77690476D01*
X135988095Y-77785714D01*
X228202380Y-72738095D02*
X227202380Y-72738095D01*
X227202380Y-72500000D01*
X227250000Y-72357142D01*
X227345238Y-72261904D01*
X227440476Y-72214285D01*
X227630952Y-72166666D01*
X227773809Y-72166666D01*
X227964285Y-72214285D01*
X228059523Y-72261904D01*
X228154761Y-72357142D01*
X228202380Y-72500000D01*
X228202380Y-72738095D01*
X228202380Y-71214285D02*
X228202380Y-71785714D01*
X228202380Y-71500000D02*
X227202380Y-71500000D01*
X227345238Y-71595238D01*
X227440476Y-71690476D01*
X227488095Y-71785714D01*
X222202380Y-72738095D02*
X221202380Y-72738095D01*
X221202380Y-72500000D01*
X221250000Y-72357142D01*
X221345238Y-72261904D01*
X221440476Y-72214285D01*
X221630952Y-72166666D01*
X221773809Y-72166666D01*
X221964285Y-72214285D01*
X222059523Y-72261904D01*
X222154761Y-72357142D01*
X222202380Y-72500000D01*
X222202380Y-72738095D01*
X222202380Y-71214285D02*
X222202380Y-71785714D01*
X222202380Y-71500000D02*
X221202380Y-71500000D01*
X221345238Y-71595238D01*
X221440476Y-71690476D01*
X221488095Y-71785714D01*
X216202380Y-72738095D02*
X215202380Y-72738095D01*
X215202380Y-72500000D01*
X215250000Y-72357142D01*
X215345238Y-72261904D01*
X215440476Y-72214285D01*
X215630952Y-72166666D01*
X215773809Y-72166666D01*
X215964285Y-72214285D01*
X216059523Y-72261904D01*
X216154761Y-72357142D01*
X216202380Y-72500000D01*
X216202380Y-72738095D01*
X216202380Y-71214285D02*
X216202380Y-71785714D01*
X216202380Y-71500000D02*
X215202380Y-71500000D01*
X215345238Y-71595238D01*
X215440476Y-71690476D01*
X215488095Y-71785714D01*
X210202380Y-72738095D02*
X209202380Y-72738095D01*
X209202380Y-72500000D01*
X209250000Y-72357142D01*
X209345238Y-72261904D01*
X209440476Y-72214285D01*
X209630952Y-72166666D01*
X209773809Y-72166666D01*
X209964285Y-72214285D01*
X210059523Y-72261904D01*
X210154761Y-72357142D01*
X210202380Y-72500000D01*
X210202380Y-72738095D01*
X210202380Y-71214285D02*
X210202380Y-71785714D01*
X210202380Y-71500000D02*
X209202380Y-71500000D01*
X209345238Y-71595238D01*
X209440476Y-71690476D01*
X209488095Y-71785714D01*
X204202380Y-72738095D02*
X203202380Y-72738095D01*
X203202380Y-72500000D01*
X203250000Y-72357142D01*
X203345238Y-72261904D01*
X203440476Y-72214285D01*
X203630952Y-72166666D01*
X203773809Y-72166666D01*
X203964285Y-72214285D01*
X204059523Y-72261904D01*
X204154761Y-72357142D01*
X204202380Y-72500000D01*
X204202380Y-72738095D01*
X204202380Y-71214285D02*
X204202380Y-71785714D01*
X204202380Y-71500000D02*
X203202380Y-71500000D01*
X203345238Y-71595238D01*
X203440476Y-71690476D01*
X203488095Y-71785714D01*
X198202380Y-72738095D02*
X197202380Y-72738095D01*
X197202380Y-72500000D01*
X197250000Y-72357142D01*
X197345238Y-72261904D01*
X197440476Y-72214285D01*
X197630952Y-72166666D01*
X197773809Y-72166666D01*
X197964285Y-72214285D01*
X198059523Y-72261904D01*
X198154761Y-72357142D01*
X198202380Y-72500000D01*
X198202380Y-72738095D01*
X198202380Y-71214285D02*
X198202380Y-71785714D01*
X198202380Y-71500000D02*
X197202380Y-71500000D01*
X197345238Y-71595238D01*
X197440476Y-71690476D01*
X197488095Y-71785714D01*
X192202380Y-72738095D02*
X191202380Y-72738095D01*
X191202380Y-72500000D01*
X191250000Y-72357142D01*
X191345238Y-72261904D01*
X191440476Y-72214285D01*
X191630952Y-72166666D01*
X191773809Y-72166666D01*
X191964285Y-72214285D01*
X192059523Y-72261904D01*
X192154761Y-72357142D01*
X192202380Y-72500000D01*
X192202380Y-72738095D01*
X192202380Y-71214285D02*
X192202380Y-71785714D01*
X192202380Y-71500000D02*
X191202380Y-71500000D01*
X191345238Y-71595238D01*
X191440476Y-71690476D01*
X191488095Y-71785714D01*
X186202380Y-72738095D02*
X185202380Y-72738095D01*
X185202380Y-72500000D01*
X185250000Y-72357142D01*
X185345238Y-72261904D01*
X185440476Y-72214285D01*
X185630952Y-72166666D01*
X185773809Y-72166666D01*
X185964285Y-72214285D01*
X186059523Y-72261904D01*
X186154761Y-72357142D01*
X186202380Y-72500000D01*
X186202380Y-72738095D01*
X186202380Y-71214285D02*
X186202380Y-71785714D01*
X186202380Y-71500000D02*
X185202380Y-71500000D01*
X185345238Y-71595238D01*
X185440476Y-71690476D01*
X185488095Y-71785714D01*
X180202380Y-72738095D02*
X179202380Y-72738095D01*
X179202380Y-72500000D01*
X179250000Y-72357142D01*
X179345238Y-72261904D01*
X179440476Y-72214285D01*
X179630952Y-72166666D01*
X179773809Y-72166666D01*
X179964285Y-72214285D01*
X180059523Y-72261904D01*
X180154761Y-72357142D01*
X180202380Y-72500000D01*
X180202380Y-72738095D01*
X180202380Y-71214285D02*
X180202380Y-71785714D01*
X180202380Y-71500000D02*
X179202380Y-71500000D01*
X179345238Y-71595238D01*
X179440476Y-71690476D01*
X179488095Y-71785714D01*
X174202380Y-72738095D02*
X173202380Y-72738095D01*
X173202380Y-72500000D01*
X173250000Y-72357142D01*
X173345238Y-72261904D01*
X173440476Y-72214285D01*
X173630952Y-72166666D01*
X173773809Y-72166666D01*
X173964285Y-72214285D01*
X174059523Y-72261904D01*
X174154761Y-72357142D01*
X174202380Y-72500000D01*
X174202380Y-72738095D01*
X174202380Y-71214285D02*
X174202380Y-71785714D01*
X174202380Y-71500000D02*
X173202380Y-71500000D01*
X173345238Y-71595238D01*
X173440476Y-71690476D01*
X173488095Y-71785714D01*
X168202380Y-72738095D02*
X167202380Y-72738095D01*
X167202380Y-72500000D01*
X167250000Y-72357142D01*
X167345238Y-72261904D01*
X167440476Y-72214285D01*
X167630952Y-72166666D01*
X167773809Y-72166666D01*
X167964285Y-72214285D01*
X168059523Y-72261904D01*
X168154761Y-72357142D01*
X168202380Y-72500000D01*
X168202380Y-72738095D01*
X168202380Y-71214285D02*
X168202380Y-71785714D01*
X168202380Y-71500000D02*
X167202380Y-71500000D01*
X167345238Y-71595238D01*
X167440476Y-71690476D01*
X167488095Y-71785714D01*
X162202380Y-72738095D02*
X161202380Y-72738095D01*
X161202380Y-72500000D01*
X161250000Y-72357142D01*
X161345238Y-72261904D01*
X161440476Y-72214285D01*
X161630952Y-72166666D01*
X161773809Y-72166666D01*
X161964285Y-72214285D01*
X162059523Y-72261904D01*
X162154761Y-72357142D01*
X162202380Y-72500000D01*
X162202380Y-72738095D01*
X162202380Y-71214285D02*
X162202380Y-71785714D01*
X162202380Y-71500000D02*
X161202380Y-71500000D01*
X161345238Y-71595238D01*
X161440476Y-71690476D01*
X161488095Y-71785714D01*
X156202380Y-72738095D02*
X155202380Y-72738095D01*
X155202380Y-72500000D01*
X155250000Y-72357142D01*
X155345238Y-72261904D01*
X155440476Y-72214285D01*
X155630952Y-72166666D01*
X155773809Y-72166666D01*
X155964285Y-72214285D01*
X156059523Y-72261904D01*
X156154761Y-72357142D01*
X156202380Y-72500000D01*
X156202380Y-72738095D01*
X156202380Y-71214285D02*
X156202380Y-71785714D01*
X156202380Y-71500000D02*
X155202380Y-71500000D01*
X155345238Y-71595238D01*
X155440476Y-71690476D01*
X155488095Y-71785714D01*
X150202380Y-72738095D02*
X149202380Y-72738095D01*
X149202380Y-72500000D01*
X149250000Y-72357142D01*
X149345238Y-72261904D01*
X149440476Y-72214285D01*
X149630952Y-72166666D01*
X149773809Y-72166666D01*
X149964285Y-72214285D01*
X150059523Y-72261904D01*
X150154761Y-72357142D01*
X150202380Y-72500000D01*
X150202380Y-72738095D01*
X150202380Y-71214285D02*
X150202380Y-71785714D01*
X150202380Y-71500000D02*
X149202380Y-71500000D01*
X149345238Y-71595238D01*
X149440476Y-71690476D01*
X149488095Y-71785714D01*
X144202380Y-72738095D02*
X143202380Y-72738095D01*
X143202380Y-72500000D01*
X143250000Y-72357142D01*
X143345238Y-72261904D01*
X143440476Y-72214285D01*
X143630952Y-72166666D01*
X143773809Y-72166666D01*
X143964285Y-72214285D01*
X144059523Y-72261904D01*
X144154761Y-72357142D01*
X144202380Y-72500000D01*
X144202380Y-72738095D01*
X144202380Y-71214285D02*
X144202380Y-71785714D01*
X144202380Y-71500000D02*
X143202380Y-71500000D01*
X143345238Y-71595238D01*
X143440476Y-71690476D01*
X143488095Y-71785714D01*
X138202380Y-72738095D02*
X137202380Y-72738095D01*
X137202380Y-72500000D01*
X137250000Y-72357142D01*
X137345238Y-72261904D01*
X137440476Y-72214285D01*
X137630952Y-72166666D01*
X137773809Y-72166666D01*
X137964285Y-72214285D01*
X138059523Y-72261904D01*
X138154761Y-72357142D01*
X138202380Y-72500000D01*
X138202380Y-72738095D01*
X138202380Y-71214285D02*
X138202380Y-71785714D01*
X138202380Y-71500000D02*
X137202380Y-71500000D01*
X137345238Y-71595238D01*
X137440476Y-71690476D01*
X137488095Y-71785714D01*
X132202380Y-72738095D02*
X131202380Y-72738095D01*
X131202380Y-72500000D01*
X131250000Y-72357142D01*
X131345238Y-72261904D01*
X131440476Y-72214285D01*
X131630952Y-72166666D01*
X131773809Y-72166666D01*
X131964285Y-72214285D01*
X132059523Y-72261904D01*
X132154761Y-72357142D01*
X132202380Y-72500000D01*
X132202380Y-72738095D01*
X132202380Y-71214285D02*
X132202380Y-71785714D01*
X132202380Y-71500000D02*
X131202380Y-71500000D01*
X131345238Y-71595238D01*
X131440476Y-71690476D01*
X131488095Y-71785714D01*
X232702380Y-66738095D02*
X231702380Y-66738095D01*
X231702380Y-66500000D01*
X231750000Y-66357142D01*
X231845238Y-66261904D01*
X231940476Y-66214285D01*
X232130952Y-66166666D01*
X232273809Y-66166666D01*
X232464285Y-66214285D01*
X232559523Y-66261904D01*
X232654761Y-66357142D01*
X232702380Y-66500000D01*
X232702380Y-66738095D01*
X232702380Y-65214285D02*
X232702380Y-65785714D01*
X232702380Y-65500000D02*
X231702380Y-65500000D01*
X231845238Y-65595238D01*
X231940476Y-65690476D01*
X231988095Y-65785714D01*
X226702380Y-66738095D02*
X225702380Y-66738095D01*
X225702380Y-66500000D01*
X225750000Y-66357142D01*
X225845238Y-66261904D01*
X225940476Y-66214285D01*
X226130952Y-66166666D01*
X226273809Y-66166666D01*
X226464285Y-66214285D01*
X226559523Y-66261904D01*
X226654761Y-66357142D01*
X226702380Y-66500000D01*
X226702380Y-66738095D01*
X226702380Y-65214285D02*
X226702380Y-65785714D01*
X226702380Y-65500000D02*
X225702380Y-65500000D01*
X225845238Y-65595238D01*
X225940476Y-65690476D01*
X225988095Y-65785714D01*
X220702380Y-66738095D02*
X219702380Y-66738095D01*
X219702380Y-66500000D01*
X219750000Y-66357142D01*
X219845238Y-66261904D01*
X219940476Y-66214285D01*
X220130952Y-66166666D01*
X220273809Y-66166666D01*
X220464285Y-66214285D01*
X220559523Y-66261904D01*
X220654761Y-66357142D01*
X220702380Y-66500000D01*
X220702380Y-66738095D01*
X220702380Y-65214285D02*
X220702380Y-65785714D01*
X220702380Y-65500000D02*
X219702380Y-65500000D01*
X219845238Y-65595238D01*
X219940476Y-65690476D01*
X219988095Y-65785714D01*
X214702380Y-66738095D02*
X213702380Y-66738095D01*
X213702380Y-66500000D01*
X213750000Y-66357142D01*
X213845238Y-66261904D01*
X213940476Y-66214285D01*
X214130952Y-66166666D01*
X214273809Y-66166666D01*
X214464285Y-66214285D01*
X214559523Y-66261904D01*
X214654761Y-66357142D01*
X214702380Y-66500000D01*
X214702380Y-66738095D01*
X214702380Y-65214285D02*
X214702380Y-65785714D01*
X214702380Y-65500000D02*
X213702380Y-65500000D01*
X213845238Y-65595238D01*
X213940476Y-65690476D01*
X213988095Y-65785714D01*
X208702380Y-66738095D02*
X207702380Y-66738095D01*
X207702380Y-66500000D01*
X207750000Y-66357142D01*
X207845238Y-66261904D01*
X207940476Y-66214285D01*
X208130952Y-66166666D01*
X208273809Y-66166666D01*
X208464285Y-66214285D01*
X208559523Y-66261904D01*
X208654761Y-66357142D01*
X208702380Y-66500000D01*
X208702380Y-66738095D01*
X208702380Y-65214285D02*
X208702380Y-65785714D01*
X208702380Y-65500000D02*
X207702380Y-65500000D01*
X207845238Y-65595238D01*
X207940476Y-65690476D01*
X207988095Y-65785714D01*
X202702380Y-66738095D02*
X201702380Y-66738095D01*
X201702380Y-66500000D01*
X201750000Y-66357142D01*
X201845238Y-66261904D01*
X201940476Y-66214285D01*
X202130952Y-66166666D01*
X202273809Y-66166666D01*
X202464285Y-66214285D01*
X202559523Y-66261904D01*
X202654761Y-66357142D01*
X202702380Y-66500000D01*
X202702380Y-66738095D01*
X202702380Y-65214285D02*
X202702380Y-65785714D01*
X202702380Y-65500000D02*
X201702380Y-65500000D01*
X201845238Y-65595238D01*
X201940476Y-65690476D01*
X201988095Y-65785714D01*
X196702380Y-66738095D02*
X195702380Y-66738095D01*
X195702380Y-66500000D01*
X195750000Y-66357142D01*
X195845238Y-66261904D01*
X195940476Y-66214285D01*
X196130952Y-66166666D01*
X196273809Y-66166666D01*
X196464285Y-66214285D01*
X196559523Y-66261904D01*
X196654761Y-66357142D01*
X196702380Y-66500000D01*
X196702380Y-66738095D01*
X196702380Y-65214285D02*
X196702380Y-65785714D01*
X196702380Y-65500000D02*
X195702380Y-65500000D01*
X195845238Y-65595238D01*
X195940476Y-65690476D01*
X195988095Y-65785714D01*
X190702380Y-66738095D02*
X189702380Y-66738095D01*
X189702380Y-66500000D01*
X189750000Y-66357142D01*
X189845238Y-66261904D01*
X189940476Y-66214285D01*
X190130952Y-66166666D01*
X190273809Y-66166666D01*
X190464285Y-66214285D01*
X190559523Y-66261904D01*
X190654761Y-66357142D01*
X190702380Y-66500000D01*
X190702380Y-66738095D01*
X190702380Y-65214285D02*
X190702380Y-65785714D01*
X190702380Y-65500000D02*
X189702380Y-65500000D01*
X189845238Y-65595238D01*
X189940476Y-65690476D01*
X189988095Y-65785714D01*
X184702380Y-66738095D02*
X183702380Y-66738095D01*
X183702380Y-66500000D01*
X183750000Y-66357142D01*
X183845238Y-66261904D01*
X183940476Y-66214285D01*
X184130952Y-66166666D01*
X184273809Y-66166666D01*
X184464285Y-66214285D01*
X184559523Y-66261904D01*
X184654761Y-66357142D01*
X184702380Y-66500000D01*
X184702380Y-66738095D01*
X184702380Y-65214285D02*
X184702380Y-65785714D01*
X184702380Y-65500000D02*
X183702380Y-65500000D01*
X183845238Y-65595238D01*
X183940476Y-65690476D01*
X183988095Y-65785714D01*
X178702380Y-66738095D02*
X177702380Y-66738095D01*
X177702380Y-66500000D01*
X177750000Y-66357142D01*
X177845238Y-66261904D01*
X177940476Y-66214285D01*
X178130952Y-66166666D01*
X178273809Y-66166666D01*
X178464285Y-66214285D01*
X178559523Y-66261904D01*
X178654761Y-66357142D01*
X178702380Y-66500000D01*
X178702380Y-66738095D01*
X178702380Y-65214285D02*
X178702380Y-65785714D01*
X178702380Y-65500000D02*
X177702380Y-65500000D01*
X177845238Y-65595238D01*
X177940476Y-65690476D01*
X177988095Y-65785714D01*
X172702380Y-66738095D02*
X171702380Y-66738095D01*
X171702380Y-66500000D01*
X171750000Y-66357142D01*
X171845238Y-66261904D01*
X171940476Y-66214285D01*
X172130952Y-66166666D01*
X172273809Y-66166666D01*
X172464285Y-66214285D01*
X172559523Y-66261904D01*
X172654761Y-66357142D01*
X172702380Y-66500000D01*
X172702380Y-66738095D01*
X172702380Y-65214285D02*
X172702380Y-65785714D01*
X172702380Y-65500000D02*
X171702380Y-65500000D01*
X171845238Y-65595238D01*
X171940476Y-65690476D01*
X171988095Y-65785714D01*
X166702380Y-66738095D02*
X165702380Y-66738095D01*
X165702380Y-66500000D01*
X165750000Y-66357142D01*
X165845238Y-66261904D01*
X165940476Y-66214285D01*
X166130952Y-66166666D01*
X166273809Y-66166666D01*
X166464285Y-66214285D01*
X166559523Y-66261904D01*
X166654761Y-66357142D01*
X166702380Y-66500000D01*
X166702380Y-66738095D01*
X166702380Y-65214285D02*
X166702380Y-65785714D01*
X166702380Y-65500000D02*
X165702380Y-65500000D01*
X165845238Y-65595238D01*
X165940476Y-65690476D01*
X165988095Y-65785714D01*
X160702380Y-66738095D02*
X159702380Y-66738095D01*
X159702380Y-66500000D01*
X159750000Y-66357142D01*
X159845238Y-66261904D01*
X159940476Y-66214285D01*
X160130952Y-66166666D01*
X160273809Y-66166666D01*
X160464285Y-66214285D01*
X160559523Y-66261904D01*
X160654761Y-66357142D01*
X160702380Y-66500000D01*
X160702380Y-66738095D01*
X160702380Y-65214285D02*
X160702380Y-65785714D01*
X160702380Y-65500000D02*
X159702380Y-65500000D01*
X159845238Y-65595238D01*
X159940476Y-65690476D01*
X159988095Y-65785714D01*
X154702380Y-66738095D02*
X153702380Y-66738095D01*
X153702380Y-66500000D01*
X153750000Y-66357142D01*
X153845238Y-66261904D01*
X153940476Y-66214285D01*
X154130952Y-66166666D01*
X154273809Y-66166666D01*
X154464285Y-66214285D01*
X154559523Y-66261904D01*
X154654761Y-66357142D01*
X154702380Y-66500000D01*
X154702380Y-66738095D01*
X154702380Y-65214285D02*
X154702380Y-65785714D01*
X154702380Y-65500000D02*
X153702380Y-65500000D01*
X153845238Y-65595238D01*
X153940476Y-65690476D01*
X153988095Y-65785714D01*
X148702380Y-66738095D02*
X147702380Y-66738095D01*
X147702380Y-66500000D01*
X147750000Y-66357142D01*
X147845238Y-66261904D01*
X147940476Y-66214285D01*
X148130952Y-66166666D01*
X148273809Y-66166666D01*
X148464285Y-66214285D01*
X148559523Y-66261904D01*
X148654761Y-66357142D01*
X148702380Y-66500000D01*
X148702380Y-66738095D01*
X148702380Y-65214285D02*
X148702380Y-65785714D01*
X148702380Y-65500000D02*
X147702380Y-65500000D01*
X147845238Y-65595238D01*
X147940476Y-65690476D01*
X147988095Y-65785714D01*
X142702380Y-66738095D02*
X141702380Y-66738095D01*
X141702380Y-66500000D01*
X141750000Y-66357142D01*
X141845238Y-66261904D01*
X141940476Y-66214285D01*
X142130952Y-66166666D01*
X142273809Y-66166666D01*
X142464285Y-66214285D01*
X142559523Y-66261904D01*
X142654761Y-66357142D01*
X142702380Y-66500000D01*
X142702380Y-66738095D01*
X142702380Y-65214285D02*
X142702380Y-65785714D01*
X142702380Y-65500000D02*
X141702380Y-65500000D01*
X141845238Y-65595238D01*
X141940476Y-65690476D01*
X141988095Y-65785714D01*
X136702380Y-66738095D02*
X135702380Y-66738095D01*
X135702380Y-66500000D01*
X135750000Y-66357142D01*
X135845238Y-66261904D01*
X135940476Y-66214285D01*
X136130952Y-66166666D01*
X136273809Y-66166666D01*
X136464285Y-66214285D01*
X136559523Y-66261904D01*
X136654761Y-66357142D01*
X136702380Y-66500000D01*
X136702380Y-66738095D01*
X136702380Y-65214285D02*
X136702380Y-65785714D01*
X136702380Y-65500000D02*
X135702380Y-65500000D01*
X135845238Y-65595238D01*
X135940476Y-65690476D01*
X135988095Y-65785714D01*
X228202380Y-60738095D02*
X227202380Y-60738095D01*
X227202380Y-60500000D01*
X227250000Y-60357142D01*
X227345238Y-60261904D01*
X227440476Y-60214285D01*
X227630952Y-60166666D01*
X227773809Y-60166666D01*
X227964285Y-60214285D01*
X228059523Y-60261904D01*
X228154761Y-60357142D01*
X228202380Y-60500000D01*
X228202380Y-60738095D01*
X228202380Y-59214285D02*
X228202380Y-59785714D01*
X228202380Y-59500000D02*
X227202380Y-59500000D01*
X227345238Y-59595238D01*
X227440476Y-59690476D01*
X227488095Y-59785714D01*
X222202380Y-60738095D02*
X221202380Y-60738095D01*
X221202380Y-60500000D01*
X221250000Y-60357142D01*
X221345238Y-60261904D01*
X221440476Y-60214285D01*
X221630952Y-60166666D01*
X221773809Y-60166666D01*
X221964285Y-60214285D01*
X222059523Y-60261904D01*
X222154761Y-60357142D01*
X222202380Y-60500000D01*
X222202380Y-60738095D01*
X222202380Y-59214285D02*
X222202380Y-59785714D01*
X222202380Y-59500000D02*
X221202380Y-59500000D01*
X221345238Y-59595238D01*
X221440476Y-59690476D01*
X221488095Y-59785714D01*
X216202380Y-60738095D02*
X215202380Y-60738095D01*
X215202380Y-60500000D01*
X215250000Y-60357142D01*
X215345238Y-60261904D01*
X215440476Y-60214285D01*
X215630952Y-60166666D01*
X215773809Y-60166666D01*
X215964285Y-60214285D01*
X216059523Y-60261904D01*
X216154761Y-60357142D01*
X216202380Y-60500000D01*
X216202380Y-60738095D01*
X216202380Y-59214285D02*
X216202380Y-59785714D01*
X216202380Y-59500000D02*
X215202380Y-59500000D01*
X215345238Y-59595238D01*
X215440476Y-59690476D01*
X215488095Y-59785714D01*
X210202380Y-60738095D02*
X209202380Y-60738095D01*
X209202380Y-60500000D01*
X209250000Y-60357142D01*
X209345238Y-60261904D01*
X209440476Y-60214285D01*
X209630952Y-60166666D01*
X209773809Y-60166666D01*
X209964285Y-60214285D01*
X210059523Y-60261904D01*
X210154761Y-60357142D01*
X210202380Y-60500000D01*
X210202380Y-60738095D01*
X210202380Y-59214285D02*
X210202380Y-59785714D01*
X210202380Y-59500000D02*
X209202380Y-59500000D01*
X209345238Y-59595238D01*
X209440476Y-59690476D01*
X209488095Y-59785714D01*
X204202380Y-60738095D02*
X203202380Y-60738095D01*
X203202380Y-60500000D01*
X203250000Y-60357142D01*
X203345238Y-60261904D01*
X203440476Y-60214285D01*
X203630952Y-60166666D01*
X203773809Y-60166666D01*
X203964285Y-60214285D01*
X204059523Y-60261904D01*
X204154761Y-60357142D01*
X204202380Y-60500000D01*
X204202380Y-60738095D01*
X204202380Y-59214285D02*
X204202380Y-59785714D01*
X204202380Y-59500000D02*
X203202380Y-59500000D01*
X203345238Y-59595238D01*
X203440476Y-59690476D01*
X203488095Y-59785714D01*
X198202380Y-60738095D02*
X197202380Y-60738095D01*
X197202380Y-60500000D01*
X197250000Y-60357142D01*
X197345238Y-60261904D01*
X197440476Y-60214285D01*
X197630952Y-60166666D01*
X197773809Y-60166666D01*
X197964285Y-60214285D01*
X198059523Y-60261904D01*
X198154761Y-60357142D01*
X198202380Y-60500000D01*
X198202380Y-60738095D01*
X198202380Y-59214285D02*
X198202380Y-59785714D01*
X198202380Y-59500000D02*
X197202380Y-59500000D01*
X197345238Y-59595238D01*
X197440476Y-59690476D01*
X197488095Y-59785714D01*
X192202380Y-60738095D02*
X191202380Y-60738095D01*
X191202380Y-60500000D01*
X191250000Y-60357142D01*
X191345238Y-60261904D01*
X191440476Y-60214285D01*
X191630952Y-60166666D01*
X191773809Y-60166666D01*
X191964285Y-60214285D01*
X192059523Y-60261904D01*
X192154761Y-60357142D01*
X192202380Y-60500000D01*
X192202380Y-60738095D01*
X192202380Y-59214285D02*
X192202380Y-59785714D01*
X192202380Y-59500000D02*
X191202380Y-59500000D01*
X191345238Y-59595238D01*
X191440476Y-59690476D01*
X191488095Y-59785714D01*
X186202380Y-60738095D02*
X185202380Y-60738095D01*
X185202380Y-60500000D01*
X185250000Y-60357142D01*
X185345238Y-60261904D01*
X185440476Y-60214285D01*
X185630952Y-60166666D01*
X185773809Y-60166666D01*
X185964285Y-60214285D01*
X186059523Y-60261904D01*
X186154761Y-60357142D01*
X186202380Y-60500000D01*
X186202380Y-60738095D01*
X186202380Y-59214285D02*
X186202380Y-59785714D01*
X186202380Y-59500000D02*
X185202380Y-59500000D01*
X185345238Y-59595238D01*
X185440476Y-59690476D01*
X185488095Y-59785714D01*
X180202380Y-60738095D02*
X179202380Y-60738095D01*
X179202380Y-60500000D01*
X179250000Y-60357142D01*
X179345238Y-60261904D01*
X179440476Y-60214285D01*
X179630952Y-60166666D01*
X179773809Y-60166666D01*
X179964285Y-60214285D01*
X180059523Y-60261904D01*
X180154761Y-60357142D01*
X180202380Y-60500000D01*
X180202380Y-60738095D01*
X180202380Y-59214285D02*
X180202380Y-59785714D01*
X180202380Y-59500000D02*
X179202380Y-59500000D01*
X179345238Y-59595238D01*
X179440476Y-59690476D01*
X179488095Y-59785714D01*
X174202380Y-60738095D02*
X173202380Y-60738095D01*
X173202380Y-60500000D01*
X173250000Y-60357142D01*
X173345238Y-60261904D01*
X173440476Y-60214285D01*
X173630952Y-60166666D01*
X173773809Y-60166666D01*
X173964285Y-60214285D01*
X174059523Y-60261904D01*
X174154761Y-60357142D01*
X174202380Y-60500000D01*
X174202380Y-60738095D01*
X174202380Y-59214285D02*
X174202380Y-59785714D01*
X174202380Y-59500000D02*
X173202380Y-59500000D01*
X173345238Y-59595238D01*
X173440476Y-59690476D01*
X173488095Y-59785714D01*
X168202380Y-60738095D02*
X167202380Y-60738095D01*
X167202380Y-60500000D01*
X167250000Y-60357142D01*
X167345238Y-60261904D01*
X167440476Y-60214285D01*
X167630952Y-60166666D01*
X167773809Y-60166666D01*
X167964285Y-60214285D01*
X168059523Y-60261904D01*
X168154761Y-60357142D01*
X168202380Y-60500000D01*
X168202380Y-60738095D01*
X168202380Y-59214285D02*
X168202380Y-59785714D01*
X168202380Y-59500000D02*
X167202380Y-59500000D01*
X167345238Y-59595238D01*
X167440476Y-59690476D01*
X167488095Y-59785714D01*
X162202380Y-60738095D02*
X161202380Y-60738095D01*
X161202380Y-60500000D01*
X161250000Y-60357142D01*
X161345238Y-60261904D01*
X161440476Y-60214285D01*
X161630952Y-60166666D01*
X161773809Y-60166666D01*
X161964285Y-60214285D01*
X162059523Y-60261904D01*
X162154761Y-60357142D01*
X162202380Y-60500000D01*
X162202380Y-60738095D01*
X162202380Y-59214285D02*
X162202380Y-59785714D01*
X162202380Y-59500000D02*
X161202380Y-59500000D01*
X161345238Y-59595238D01*
X161440476Y-59690476D01*
X161488095Y-59785714D01*
X156202380Y-60738095D02*
X155202380Y-60738095D01*
X155202380Y-60500000D01*
X155250000Y-60357142D01*
X155345238Y-60261904D01*
X155440476Y-60214285D01*
X155630952Y-60166666D01*
X155773809Y-60166666D01*
X155964285Y-60214285D01*
X156059523Y-60261904D01*
X156154761Y-60357142D01*
X156202380Y-60500000D01*
X156202380Y-60738095D01*
X156202380Y-59214285D02*
X156202380Y-59785714D01*
X156202380Y-59500000D02*
X155202380Y-59500000D01*
X155345238Y-59595238D01*
X155440476Y-59690476D01*
X155488095Y-59785714D01*
X150202380Y-60738095D02*
X149202380Y-60738095D01*
X149202380Y-60500000D01*
X149250000Y-60357142D01*
X149345238Y-60261904D01*
X149440476Y-60214285D01*
X149630952Y-60166666D01*
X149773809Y-60166666D01*
X149964285Y-60214285D01*
X150059523Y-60261904D01*
X150154761Y-60357142D01*
X150202380Y-60500000D01*
X150202380Y-60738095D01*
X150202380Y-59214285D02*
X150202380Y-59785714D01*
X150202380Y-59500000D02*
X149202380Y-59500000D01*
X149345238Y-59595238D01*
X149440476Y-59690476D01*
X149488095Y-59785714D01*
X144202380Y-60738095D02*
X143202380Y-60738095D01*
X143202380Y-60500000D01*
X143250000Y-60357142D01*
X143345238Y-60261904D01*
X143440476Y-60214285D01*
X143630952Y-60166666D01*
X143773809Y-60166666D01*
X143964285Y-60214285D01*
X144059523Y-60261904D01*
X144154761Y-60357142D01*
X144202380Y-60500000D01*
X144202380Y-60738095D01*
X144202380Y-59214285D02*
X144202380Y-59785714D01*
X144202380Y-59500000D02*
X143202380Y-59500000D01*
X143345238Y-59595238D01*
X143440476Y-59690476D01*
X143488095Y-59785714D01*
X138202380Y-60738095D02*
X137202380Y-60738095D01*
X137202380Y-60500000D01*
X137250000Y-60357142D01*
X137345238Y-60261904D01*
X137440476Y-60214285D01*
X137630952Y-60166666D01*
X137773809Y-60166666D01*
X137964285Y-60214285D01*
X138059523Y-60261904D01*
X138154761Y-60357142D01*
X138202380Y-60500000D01*
X138202380Y-60738095D01*
X138202380Y-59214285D02*
X138202380Y-59785714D01*
X138202380Y-59500000D02*
X137202380Y-59500000D01*
X137345238Y-59595238D01*
X137440476Y-59690476D01*
X137488095Y-59785714D01*
X223833333Y-62827142D02*
X223785714Y-62874761D01*
X223642857Y-62922380D01*
X223547619Y-62922380D01*
X223404761Y-62874761D01*
X223309523Y-62779523D01*
X223261904Y-62684285D01*
X223214285Y-62493809D01*
X223214285Y-62350952D01*
X223261904Y-62160476D01*
X223309523Y-62065238D01*
X223404761Y-61970000D01*
X223547619Y-61922380D01*
X223642857Y-61922380D01*
X223785714Y-61970000D01*
X223833333Y-62017619D01*
X224785714Y-62922380D02*
X224214285Y-62922380D01*
X224500000Y-62922380D02*
X224500000Y-61922380D01*
X224404761Y-62065238D01*
X224309523Y-62160476D01*
X224214285Y-62208095D01*
X211833333Y-62827142D02*
X211785714Y-62874761D01*
X211642857Y-62922380D01*
X211547619Y-62922380D01*
X211404761Y-62874761D01*
X211309523Y-62779523D01*
X211261904Y-62684285D01*
X211214285Y-62493809D01*
X211214285Y-62350952D01*
X211261904Y-62160476D01*
X211309523Y-62065238D01*
X211404761Y-61970000D01*
X211547619Y-61922380D01*
X211642857Y-61922380D01*
X211785714Y-61970000D01*
X211833333Y-62017619D01*
X212785714Y-62922380D02*
X212214285Y-62922380D01*
X212500000Y-62922380D02*
X212500000Y-61922380D01*
X212404761Y-62065238D01*
X212309523Y-62160476D01*
X212214285Y-62208095D01*
X199833333Y-62827142D02*
X199785714Y-62874761D01*
X199642857Y-62922380D01*
X199547619Y-62922380D01*
X199404761Y-62874761D01*
X199309523Y-62779523D01*
X199261904Y-62684285D01*
X199214285Y-62493809D01*
X199214285Y-62350952D01*
X199261904Y-62160476D01*
X199309523Y-62065238D01*
X199404761Y-61970000D01*
X199547619Y-61922380D01*
X199642857Y-61922380D01*
X199785714Y-61970000D01*
X199833333Y-62017619D01*
X200785714Y-62922380D02*
X200214285Y-62922380D01*
X200500000Y-62922380D02*
X200500000Y-61922380D01*
X200404761Y-62065238D01*
X200309523Y-62160476D01*
X200214285Y-62208095D01*
X187833333Y-62827142D02*
X187785714Y-62874761D01*
X187642857Y-62922380D01*
X187547619Y-62922380D01*
X187404761Y-62874761D01*
X187309523Y-62779523D01*
X187261904Y-62684285D01*
X187214285Y-62493809D01*
X187214285Y-62350952D01*
X187261904Y-62160476D01*
X187309523Y-62065238D01*
X187404761Y-61970000D01*
X187547619Y-61922380D01*
X187642857Y-61922380D01*
X187785714Y-61970000D01*
X187833333Y-62017619D01*
X188785714Y-62922380D02*
X188214285Y-62922380D01*
X188500000Y-62922380D02*
X188500000Y-61922380D01*
X188404761Y-62065238D01*
X188309523Y-62160476D01*
X188214285Y-62208095D01*
X175833333Y-62827142D02*
X175785714Y-62874761D01*
X175642857Y-62922380D01*
X175547619Y-62922380D01*
X175404761Y-62874761D01*
X175309523Y-62779523D01*
X175261904Y-62684285D01*
X175214285Y-62493809D01*
X175214285Y-62350952D01*
X175261904Y-62160476D01*
X175309523Y-62065238D01*
X175404761Y-61970000D01*
X175547619Y-61922380D01*
X175642857Y-61922380D01*
X175785714Y-61970000D01*
X175833333Y-62017619D01*
X176785714Y-62922380D02*
X176214285Y-62922380D01*
X176500000Y-62922380D02*
X176500000Y-61922380D01*
X176404761Y-62065238D01*
X176309523Y-62160476D01*
X176214285Y-62208095D01*
X163833333Y-62827142D02*
X163785714Y-62874761D01*
X163642857Y-62922380D01*
X163547619Y-62922380D01*
X163404761Y-62874761D01*
X163309523Y-62779523D01*
X163261904Y-62684285D01*
X163214285Y-62493809D01*
X163214285Y-62350952D01*
X163261904Y-62160476D01*
X163309523Y-62065238D01*
X163404761Y-61970000D01*
X163547619Y-61922380D01*
X163642857Y-61922380D01*
X163785714Y-61970000D01*
X163833333Y-62017619D01*
X164785714Y-62922380D02*
X164214285Y-62922380D01*
X164500000Y-62922380D02*
X164500000Y-61922380D01*
X164404761Y-62065238D01*
X164309523Y-62160476D01*
X164214285Y-62208095D01*
X151833333Y-62827142D02*
X151785714Y-62874761D01*
X151642857Y-62922380D01*
X151547619Y-62922380D01*
X151404761Y-62874761D01*
X151309523Y-62779523D01*
X151261904Y-62684285D01*
X151214285Y-62493809D01*
X151214285Y-62350952D01*
X151261904Y-62160476D01*
X151309523Y-62065238D01*
X151404761Y-61970000D01*
X151547619Y-61922380D01*
X151642857Y-61922380D01*
X151785714Y-61970000D01*
X151833333Y-62017619D01*
X152785714Y-62922380D02*
X152214285Y-62922380D01*
X152500000Y-62922380D02*
X152500000Y-61922380D01*
X152404761Y-62065238D01*
X152309523Y-62160476D01*
X152214285Y-62208095D01*
X139833333Y-62827142D02*
X139785714Y-62874761D01*
X139642857Y-62922380D01*
X139547619Y-62922380D01*
X139404761Y-62874761D01*
X139309523Y-62779523D01*
X139261904Y-62684285D01*
X139214285Y-62493809D01*
X139214285Y-62350952D01*
X139261904Y-62160476D01*
X139309523Y-62065238D01*
X139404761Y-61970000D01*
X139547619Y-61922380D01*
X139642857Y-61922380D01*
X139785714Y-61970000D01*
X139833333Y-62017619D01*
X140785714Y-62922380D02*
X140214285Y-62922380D01*
X140500000Y-62922380D02*
X140500000Y-61922380D01*
X140404761Y-62065238D01*
X140309523Y-62160476D01*
X140214285Y-62208095D01*
X176952380Y-87366666D02*
X176476190Y-87700000D01*
X176952380Y-87938095D02*
X175952380Y-87938095D01*
X175952380Y-87557142D01*
X176000000Y-87461904D01*
X176047619Y-87414285D01*
X176142857Y-87366666D01*
X176285714Y-87366666D01*
X176380952Y-87414285D01*
X176428571Y-87461904D01*
X176476190Y-87557142D01*
X176476190Y-87938095D01*
X176047619Y-86985714D02*
X176000000Y-86938095D01*
X175952380Y-86842857D01*
X175952380Y-86604761D01*
X176000000Y-86509523D01*
X176047619Y-86461904D01*
X176142857Y-86414285D01*
X176238095Y-86414285D01*
X176380952Y-86461904D01*
X176952380Y-87033333D01*
X176952380Y-86414285D01*
M02*
