G04 #@! TF.GenerationSoftware,KiCad,Pcbnew,(5.1.5-0-10_14)*
G04 #@! TF.CreationDate,2020-04-22T00:02:06+01:00*
G04 #@! TF.ProjectId,Display,44697370-6c61-4792-9e6b-696361645f70,rev?*
G04 #@! TF.SameCoordinates,Original*
G04 #@! TF.FileFunction,Copper,L3,Inr*
G04 #@! TF.FilePolarity,Positive*
%FSLAX46Y46*%
G04 Gerber Fmt 4.6, Leading zero omitted, Abs format (unit mm)*
G04 Created by KiCad (PCBNEW (5.1.5-0-10_14)) date 2020-04-22 00:02:06*
%MOMM*%
%LPD*%
G04 APERTURE LIST*
%ADD10O,1.700000X1.700000*%
%ADD11R,1.700000X1.700000*%
%ADD12C,0.800000*%
%ADD13C,0.254000*%
G04 APERTURE END LIST*
D10*
X169620000Y-87960000D03*
X169620000Y-90500000D03*
X167080000Y-87960000D03*
X167080000Y-90500000D03*
X164540000Y-87960000D03*
X164540000Y-90500000D03*
X162000000Y-87960000D03*
D11*
X162000000Y-90500000D03*
D12*
X133999994Y-58250000D03*
X146000000Y-58250000D03*
X152000000Y-58250000D03*
X158000000Y-58250000D03*
X164000000Y-58250000D03*
X170000000Y-58250000D03*
X176000000Y-58250000D03*
X182000000Y-58250000D03*
X188000000Y-58250000D03*
X194000000Y-58250000D03*
X200000000Y-58250000D03*
X206000000Y-58250000D03*
X212000000Y-58250000D03*
X218000000Y-58250000D03*
X224000000Y-58250000D03*
X230000000Y-58250000D03*
X140000000Y-58250000D03*
X134000000Y-81000000D03*
X134000000Y-69000000D03*
X140000000Y-69000000D03*
X146000000Y-69000000D03*
X152000000Y-69000000D03*
X146000000Y-81000000D03*
X152000000Y-81000000D03*
X158000000Y-81000000D03*
X164000000Y-81000000D03*
X158000000Y-69000000D03*
X164000000Y-69000000D03*
X170000000Y-69000000D03*
X170000000Y-81000000D03*
X176000000Y-81000000D03*
X176000000Y-69000000D03*
X182000000Y-69000000D03*
X182000000Y-81000000D03*
X188000000Y-81000000D03*
X188000000Y-69000000D03*
X194000000Y-69000000D03*
X194000000Y-81000000D03*
X200000000Y-81000000D03*
X200000000Y-69000000D03*
X206000000Y-69000000D03*
X206000000Y-81000000D03*
X212000000Y-81000000D03*
X212000000Y-69000000D03*
X218000000Y-69000000D03*
X218000000Y-81000000D03*
X224000000Y-81000000D03*
X224000000Y-69000000D03*
X230000000Y-69000000D03*
X230000000Y-81000000D03*
X140000000Y-81000000D03*
X141899988Y-63900000D03*
X153900000Y-63900000D03*
X165900000Y-63900000D03*
X177900000Y-63900000D03*
X189900000Y-63900000D03*
X201900000Y-63900000D03*
X213900000Y-63900000D03*
X225900000Y-63900000D03*
X141900000Y-75900000D03*
X153900000Y-75900000D03*
X165900000Y-75900000D03*
X177900000Y-75900000D03*
X189900000Y-75900000D03*
X201900000Y-75900000D03*
X213900000Y-75900000D03*
X225900000Y-75900000D03*
X179300000Y-90400000D03*
X140000000Y-63000002D03*
X146000000Y-63000000D03*
X152000000Y-63000000D03*
X157999994Y-63000000D03*
X164000000Y-63000000D03*
X170000000Y-63000000D03*
X176000000Y-62999994D03*
X182000000Y-63000000D03*
X188000008Y-63000000D03*
X194000000Y-63000000D03*
X200000000Y-62999990D03*
X206000000Y-63000000D03*
X212000000Y-63000000D03*
X218000000Y-63000010D03*
X224000000Y-63000006D03*
X230000000Y-63000000D03*
X134000000Y-75000000D03*
X140000000Y-75000000D03*
X146000000Y-75000000D03*
X152000000Y-75000000D03*
X164000000Y-75000000D03*
X158000000Y-75000000D03*
X170000000Y-75000000D03*
X176000000Y-75000000D03*
X182000000Y-75000000D03*
X188000000Y-75000000D03*
X194000000Y-75000000D03*
X200000000Y-75000000D03*
X206000000Y-75000000D03*
X212000000Y-75000000D03*
X218000000Y-75000000D03*
X224000000Y-75000000D03*
X230000000Y-75000000D03*
X164000000Y-85750000D03*
X176000000Y-85750000D03*
X182000000Y-85750000D03*
X188000000Y-85750000D03*
X194000000Y-85750000D03*
X200000000Y-85750000D03*
X206000000Y-85750000D03*
X212000000Y-85750000D03*
X218000000Y-85750000D03*
X224000000Y-85750000D03*
X230000000Y-85750000D03*
X134000000Y-63000000D03*
X152000000Y-85724979D03*
X146000000Y-85724979D03*
X140000000Y-85724979D03*
X134000000Y-85724979D03*
X158000000Y-85724979D03*
D13*
G36*
X233623001Y-91623000D02*
G01*
X169984488Y-91623000D01*
X170177519Y-91543044D01*
X170370294Y-91414236D01*
X170534236Y-91250294D01*
X170663044Y-91057519D01*
X170751769Y-90843318D01*
X170797000Y-90615924D01*
X170797000Y-90384076D01*
X170785925Y-90328397D01*
X178573000Y-90328397D01*
X178573000Y-90471603D01*
X178600938Y-90612058D01*
X178655741Y-90744364D01*
X178735302Y-90863436D01*
X178836564Y-90964698D01*
X178955636Y-91044259D01*
X179087942Y-91099062D01*
X179228397Y-91127000D01*
X179371603Y-91127000D01*
X179512058Y-91099062D01*
X179644364Y-91044259D01*
X179763436Y-90964698D01*
X179864698Y-90863436D01*
X179944259Y-90744364D01*
X179999062Y-90612058D01*
X180027000Y-90471603D01*
X180027000Y-90328397D01*
X179999062Y-90187942D01*
X179944259Y-90055636D01*
X179864698Y-89936564D01*
X179763436Y-89835302D01*
X179644364Y-89755741D01*
X179512058Y-89700938D01*
X179371603Y-89673000D01*
X179228397Y-89673000D01*
X179087942Y-89700938D01*
X178955636Y-89755741D01*
X178836564Y-89835302D01*
X178735302Y-89936564D01*
X178655741Y-90055636D01*
X178600938Y-90187942D01*
X178573000Y-90328397D01*
X170785925Y-90328397D01*
X170751769Y-90156682D01*
X170663044Y-89942481D01*
X170534236Y-89749706D01*
X170370294Y-89585764D01*
X170177519Y-89456956D01*
X169963318Y-89368231D01*
X169735924Y-89323000D01*
X169504076Y-89323000D01*
X169276682Y-89368231D01*
X169062481Y-89456956D01*
X168869706Y-89585764D01*
X168705764Y-89749706D01*
X168576956Y-89942481D01*
X168488231Y-90156682D01*
X168443000Y-90384076D01*
X168443000Y-90615924D01*
X168488231Y-90843318D01*
X168576956Y-91057519D01*
X168705764Y-91250294D01*
X168869706Y-91414236D01*
X169062481Y-91543044D01*
X169255512Y-91623000D01*
X164904488Y-91623000D01*
X165097519Y-91543044D01*
X165290294Y-91414236D01*
X165454236Y-91250294D01*
X165583044Y-91057519D01*
X165671769Y-90843318D01*
X165717000Y-90615924D01*
X165717000Y-90384076D01*
X165671769Y-90156682D01*
X165583044Y-89942481D01*
X165454236Y-89749706D01*
X165290294Y-89585764D01*
X165097519Y-89456956D01*
X164883318Y-89368231D01*
X164655924Y-89323000D01*
X164424076Y-89323000D01*
X164196682Y-89368231D01*
X163982481Y-89456956D01*
X163789706Y-89585764D01*
X163625764Y-89749706D01*
X163496956Y-89942481D01*
X163408231Y-90156682D01*
X163363000Y-90384076D01*
X163363000Y-90615924D01*
X163408231Y-90843318D01*
X163496956Y-91057519D01*
X163625764Y-91250294D01*
X163789706Y-91414236D01*
X163982481Y-91543044D01*
X164175512Y-91623000D01*
X163032801Y-91623000D01*
X163082343Y-91582343D01*
X163123206Y-91532550D01*
X163153570Y-91475743D01*
X163172268Y-91414103D01*
X163178582Y-91350000D01*
X163178582Y-89650000D01*
X163172268Y-89585897D01*
X163153570Y-89524257D01*
X163123206Y-89467450D01*
X163082343Y-89417657D01*
X163032550Y-89376794D01*
X162975743Y-89346430D01*
X162914103Y-89327732D01*
X162850000Y-89321418D01*
X161150000Y-89321418D01*
X161085897Y-89327732D01*
X161024257Y-89346430D01*
X160967450Y-89376794D01*
X160917657Y-89417657D01*
X160876794Y-89467450D01*
X160846430Y-89524257D01*
X160827732Y-89585897D01*
X160821418Y-89650000D01*
X160821418Y-91350000D01*
X160827732Y-91414103D01*
X160846430Y-91475743D01*
X160876794Y-91532550D01*
X160917657Y-91582343D01*
X160967199Y-91623000D01*
X130377000Y-91623000D01*
X130377000Y-89310207D01*
X130573000Y-89310207D01*
X130573000Y-89689793D01*
X130647053Y-90062085D01*
X130792315Y-90412777D01*
X131003201Y-90728391D01*
X131271609Y-90996799D01*
X131587223Y-91207685D01*
X131937915Y-91352947D01*
X132310207Y-91427000D01*
X132689793Y-91427000D01*
X133062085Y-91352947D01*
X133412777Y-91207685D01*
X133728391Y-90996799D01*
X133996799Y-90728391D01*
X134207685Y-90412777D01*
X134352947Y-90062085D01*
X134427000Y-89689793D01*
X134427000Y-89310207D01*
X134352947Y-88937915D01*
X134314328Y-88844679D01*
X155423000Y-88844679D01*
X155423000Y-89155321D01*
X155483604Y-89459994D01*
X155602481Y-89746989D01*
X155775064Y-90005279D01*
X155994721Y-90224936D01*
X156253011Y-90397519D01*
X156540006Y-90516396D01*
X156844679Y-90577000D01*
X157155321Y-90577000D01*
X157459994Y-90516396D01*
X157746989Y-90397519D01*
X158005279Y-90224936D01*
X158224936Y-90005279D01*
X158397519Y-89746989D01*
X158516396Y-89459994D01*
X158577000Y-89155321D01*
X158577000Y-88844679D01*
X158516396Y-88540006D01*
X158397519Y-88253011D01*
X158224936Y-87994721D01*
X158074291Y-87844076D01*
X160823000Y-87844076D01*
X160823000Y-88075924D01*
X160868231Y-88303318D01*
X160956956Y-88517519D01*
X161085764Y-88710294D01*
X161249706Y-88874236D01*
X161442481Y-89003044D01*
X161656682Y-89091769D01*
X161884076Y-89137000D01*
X162115924Y-89137000D01*
X162343318Y-89091769D01*
X162557519Y-89003044D01*
X162750294Y-88874236D01*
X162914236Y-88710294D01*
X163043044Y-88517519D01*
X163131769Y-88303318D01*
X163177000Y-88075924D01*
X163177000Y-87844076D01*
X163363000Y-87844076D01*
X163363000Y-88075924D01*
X163408231Y-88303318D01*
X163496956Y-88517519D01*
X163625764Y-88710294D01*
X163789706Y-88874236D01*
X163982481Y-89003044D01*
X164196682Y-89091769D01*
X164424076Y-89137000D01*
X164655924Y-89137000D01*
X164883318Y-89091769D01*
X165097519Y-89003044D01*
X165290294Y-88874236D01*
X165454236Y-88710294D01*
X165583044Y-88517519D01*
X165671769Y-88303318D01*
X165717000Y-88075924D01*
X165717000Y-87844076D01*
X165903000Y-87844076D01*
X165903000Y-88075924D01*
X165948231Y-88303318D01*
X166036956Y-88517519D01*
X166165764Y-88710294D01*
X166329706Y-88874236D01*
X166522481Y-89003044D01*
X166736682Y-89091769D01*
X166964076Y-89137000D01*
X167195924Y-89137000D01*
X167423318Y-89091769D01*
X167637519Y-89003044D01*
X167830294Y-88874236D01*
X167994236Y-88710294D01*
X168123044Y-88517519D01*
X168211769Y-88303318D01*
X168257000Y-88075924D01*
X168257000Y-87844076D01*
X168443000Y-87844076D01*
X168443000Y-88075924D01*
X168488231Y-88303318D01*
X168576956Y-88517519D01*
X168705764Y-88710294D01*
X168869706Y-88874236D01*
X169062481Y-89003044D01*
X169276682Y-89091769D01*
X169504076Y-89137000D01*
X169735924Y-89137000D01*
X169963318Y-89091769D01*
X170177519Y-89003044D01*
X170370294Y-88874236D01*
X170399851Y-88844679D01*
X205423000Y-88844679D01*
X205423000Y-89155321D01*
X205483604Y-89459994D01*
X205602481Y-89746989D01*
X205775064Y-90005279D01*
X205994721Y-90224936D01*
X206253011Y-90397519D01*
X206540006Y-90516396D01*
X206844679Y-90577000D01*
X207155321Y-90577000D01*
X207459994Y-90516396D01*
X207746989Y-90397519D01*
X208005279Y-90224936D01*
X208224936Y-90005279D01*
X208397519Y-89746989D01*
X208516396Y-89459994D01*
X208546190Y-89310207D01*
X229573000Y-89310207D01*
X229573000Y-89689793D01*
X229647053Y-90062085D01*
X229792315Y-90412777D01*
X230003201Y-90728391D01*
X230271609Y-90996799D01*
X230587223Y-91207685D01*
X230937915Y-91352947D01*
X231310207Y-91427000D01*
X231689793Y-91427000D01*
X232062085Y-91352947D01*
X232412777Y-91207685D01*
X232728391Y-90996799D01*
X232996799Y-90728391D01*
X233207685Y-90412777D01*
X233352947Y-90062085D01*
X233427000Y-89689793D01*
X233427000Y-89310207D01*
X233352947Y-88937915D01*
X233207685Y-88587223D01*
X232996799Y-88271609D01*
X232728391Y-88003201D01*
X232412777Y-87792315D01*
X232062085Y-87647053D01*
X231689793Y-87573000D01*
X231310207Y-87573000D01*
X230937915Y-87647053D01*
X230587223Y-87792315D01*
X230271609Y-88003201D01*
X230003201Y-88271609D01*
X229792315Y-88587223D01*
X229647053Y-88937915D01*
X229573000Y-89310207D01*
X208546190Y-89310207D01*
X208577000Y-89155321D01*
X208577000Y-88844679D01*
X208516396Y-88540006D01*
X208397519Y-88253011D01*
X208224936Y-87994721D01*
X208005279Y-87775064D01*
X207746989Y-87602481D01*
X207459994Y-87483604D01*
X207155321Y-87423000D01*
X206844679Y-87423000D01*
X206540006Y-87483604D01*
X206253011Y-87602481D01*
X205994721Y-87775064D01*
X205775064Y-87994721D01*
X205602481Y-88253011D01*
X205483604Y-88540006D01*
X205423000Y-88844679D01*
X170399851Y-88844679D01*
X170534236Y-88710294D01*
X170663044Y-88517519D01*
X170751769Y-88303318D01*
X170797000Y-88075924D01*
X170797000Y-87844076D01*
X170751769Y-87616682D01*
X170663044Y-87402481D01*
X170534236Y-87209706D01*
X170370294Y-87045764D01*
X170177519Y-86916956D01*
X169963318Y-86828231D01*
X169735924Y-86783000D01*
X169504076Y-86783000D01*
X169276682Y-86828231D01*
X169062481Y-86916956D01*
X168869706Y-87045764D01*
X168705764Y-87209706D01*
X168576956Y-87402481D01*
X168488231Y-87616682D01*
X168443000Y-87844076D01*
X168257000Y-87844076D01*
X168211769Y-87616682D01*
X168123044Y-87402481D01*
X167994236Y-87209706D01*
X167830294Y-87045764D01*
X167637519Y-86916956D01*
X167423318Y-86828231D01*
X167195924Y-86783000D01*
X166964076Y-86783000D01*
X166736682Y-86828231D01*
X166522481Y-86916956D01*
X166329706Y-87045764D01*
X166165764Y-87209706D01*
X166036956Y-87402481D01*
X165948231Y-87616682D01*
X165903000Y-87844076D01*
X165717000Y-87844076D01*
X165671769Y-87616682D01*
X165583044Y-87402481D01*
X165454236Y-87209706D01*
X165290294Y-87045764D01*
X165097519Y-86916956D01*
X164883318Y-86828231D01*
X164655924Y-86783000D01*
X164424076Y-86783000D01*
X164196682Y-86828231D01*
X163982481Y-86916956D01*
X163789706Y-87045764D01*
X163625764Y-87209706D01*
X163496956Y-87402481D01*
X163408231Y-87616682D01*
X163363000Y-87844076D01*
X163177000Y-87844076D01*
X163131769Y-87616682D01*
X163043044Y-87402481D01*
X162914236Y-87209706D01*
X162750294Y-87045764D01*
X162557519Y-86916956D01*
X162343318Y-86828231D01*
X162115924Y-86783000D01*
X161884076Y-86783000D01*
X161656682Y-86828231D01*
X161442481Y-86916956D01*
X161249706Y-87045764D01*
X161085764Y-87209706D01*
X160956956Y-87402481D01*
X160868231Y-87616682D01*
X160823000Y-87844076D01*
X158074291Y-87844076D01*
X158005279Y-87775064D01*
X157746989Y-87602481D01*
X157459994Y-87483604D01*
X157155321Y-87423000D01*
X156844679Y-87423000D01*
X156540006Y-87483604D01*
X156253011Y-87602481D01*
X155994721Y-87775064D01*
X155775064Y-87994721D01*
X155602481Y-88253011D01*
X155483604Y-88540006D01*
X155423000Y-88844679D01*
X134314328Y-88844679D01*
X134207685Y-88587223D01*
X133996799Y-88271609D01*
X133728391Y-88003201D01*
X133412777Y-87792315D01*
X133062085Y-87647053D01*
X132689793Y-87573000D01*
X132310207Y-87573000D01*
X131937915Y-87647053D01*
X131587223Y-87792315D01*
X131271609Y-88003201D01*
X131003201Y-88271609D01*
X130792315Y-88587223D01*
X130647053Y-88937915D01*
X130573000Y-89310207D01*
X130377000Y-89310207D01*
X130377000Y-80928397D01*
X133273000Y-80928397D01*
X133273000Y-81071603D01*
X133300938Y-81212058D01*
X133355741Y-81344364D01*
X133435302Y-81463436D01*
X133536564Y-81564698D01*
X133655636Y-81644259D01*
X133787942Y-81699062D01*
X133928397Y-81727000D01*
X134071603Y-81727000D01*
X134212058Y-81699062D01*
X134344364Y-81644259D01*
X134463436Y-81564698D01*
X134564698Y-81463436D01*
X134644259Y-81344364D01*
X134699062Y-81212058D01*
X134727000Y-81071603D01*
X134727000Y-80928397D01*
X139273000Y-80928397D01*
X139273000Y-81071603D01*
X139300938Y-81212058D01*
X139355741Y-81344364D01*
X139435302Y-81463436D01*
X139536564Y-81564698D01*
X139655636Y-81644259D01*
X139787942Y-81699062D01*
X139928397Y-81727000D01*
X140071603Y-81727000D01*
X140212058Y-81699062D01*
X140344364Y-81644259D01*
X140463436Y-81564698D01*
X140564698Y-81463436D01*
X140644259Y-81344364D01*
X140699062Y-81212058D01*
X140727000Y-81071603D01*
X140727000Y-80928397D01*
X145273000Y-80928397D01*
X145273000Y-81071603D01*
X145300938Y-81212058D01*
X145355741Y-81344364D01*
X145435302Y-81463436D01*
X145536564Y-81564698D01*
X145655636Y-81644259D01*
X145787942Y-81699062D01*
X145928397Y-81727000D01*
X146071603Y-81727000D01*
X146212058Y-81699062D01*
X146344364Y-81644259D01*
X146463436Y-81564698D01*
X146564698Y-81463436D01*
X146644259Y-81344364D01*
X146699062Y-81212058D01*
X146727000Y-81071603D01*
X146727000Y-80928397D01*
X151273000Y-80928397D01*
X151273000Y-81071603D01*
X151300938Y-81212058D01*
X151355741Y-81344364D01*
X151435302Y-81463436D01*
X151536564Y-81564698D01*
X151655636Y-81644259D01*
X151787942Y-81699062D01*
X151928397Y-81727000D01*
X152071603Y-81727000D01*
X152212058Y-81699062D01*
X152344364Y-81644259D01*
X152463436Y-81564698D01*
X152564698Y-81463436D01*
X152644259Y-81344364D01*
X152699062Y-81212058D01*
X152727000Y-81071603D01*
X152727000Y-80928397D01*
X157273000Y-80928397D01*
X157273000Y-81071603D01*
X157300938Y-81212058D01*
X157355741Y-81344364D01*
X157435302Y-81463436D01*
X157536564Y-81564698D01*
X157655636Y-81644259D01*
X157787942Y-81699062D01*
X157928397Y-81727000D01*
X158071603Y-81727000D01*
X158212058Y-81699062D01*
X158344364Y-81644259D01*
X158463436Y-81564698D01*
X158564698Y-81463436D01*
X158644259Y-81344364D01*
X158699062Y-81212058D01*
X158727000Y-81071603D01*
X158727000Y-80928397D01*
X163273000Y-80928397D01*
X163273000Y-81071603D01*
X163300938Y-81212058D01*
X163355741Y-81344364D01*
X163435302Y-81463436D01*
X163536564Y-81564698D01*
X163655636Y-81644259D01*
X163787942Y-81699062D01*
X163928397Y-81727000D01*
X164071603Y-81727000D01*
X164212058Y-81699062D01*
X164344364Y-81644259D01*
X164463436Y-81564698D01*
X164564698Y-81463436D01*
X164644259Y-81344364D01*
X164699062Y-81212058D01*
X164727000Y-81071603D01*
X164727000Y-80928397D01*
X169273000Y-80928397D01*
X169273000Y-81071603D01*
X169300938Y-81212058D01*
X169355741Y-81344364D01*
X169435302Y-81463436D01*
X169536564Y-81564698D01*
X169655636Y-81644259D01*
X169787942Y-81699062D01*
X169928397Y-81727000D01*
X170071603Y-81727000D01*
X170212058Y-81699062D01*
X170344364Y-81644259D01*
X170463436Y-81564698D01*
X170564698Y-81463436D01*
X170644259Y-81344364D01*
X170699062Y-81212058D01*
X170727000Y-81071603D01*
X170727000Y-80928397D01*
X175273000Y-80928397D01*
X175273000Y-81071603D01*
X175300938Y-81212058D01*
X175355741Y-81344364D01*
X175435302Y-81463436D01*
X175536564Y-81564698D01*
X175655636Y-81644259D01*
X175787942Y-81699062D01*
X175928397Y-81727000D01*
X176071603Y-81727000D01*
X176212058Y-81699062D01*
X176344364Y-81644259D01*
X176463436Y-81564698D01*
X176564698Y-81463436D01*
X176644259Y-81344364D01*
X176699062Y-81212058D01*
X176727000Y-81071603D01*
X176727000Y-80928397D01*
X181273000Y-80928397D01*
X181273000Y-81071603D01*
X181300938Y-81212058D01*
X181355741Y-81344364D01*
X181435302Y-81463436D01*
X181536564Y-81564698D01*
X181655636Y-81644259D01*
X181787942Y-81699062D01*
X181928397Y-81727000D01*
X182071603Y-81727000D01*
X182212058Y-81699062D01*
X182344364Y-81644259D01*
X182463436Y-81564698D01*
X182564698Y-81463436D01*
X182644259Y-81344364D01*
X182699062Y-81212058D01*
X182727000Y-81071603D01*
X182727000Y-80928397D01*
X187273000Y-80928397D01*
X187273000Y-81071603D01*
X187300938Y-81212058D01*
X187355741Y-81344364D01*
X187435302Y-81463436D01*
X187536564Y-81564698D01*
X187655636Y-81644259D01*
X187787942Y-81699062D01*
X187928397Y-81727000D01*
X188071603Y-81727000D01*
X188212058Y-81699062D01*
X188344364Y-81644259D01*
X188463436Y-81564698D01*
X188564698Y-81463436D01*
X188644259Y-81344364D01*
X188699062Y-81212058D01*
X188727000Y-81071603D01*
X188727000Y-80928397D01*
X193273000Y-80928397D01*
X193273000Y-81071603D01*
X193300938Y-81212058D01*
X193355741Y-81344364D01*
X193435302Y-81463436D01*
X193536564Y-81564698D01*
X193655636Y-81644259D01*
X193787942Y-81699062D01*
X193928397Y-81727000D01*
X194071603Y-81727000D01*
X194212058Y-81699062D01*
X194344364Y-81644259D01*
X194463436Y-81564698D01*
X194564698Y-81463436D01*
X194644259Y-81344364D01*
X194699062Y-81212058D01*
X194727000Y-81071603D01*
X194727000Y-80928397D01*
X199273000Y-80928397D01*
X199273000Y-81071603D01*
X199300938Y-81212058D01*
X199355741Y-81344364D01*
X199435302Y-81463436D01*
X199536564Y-81564698D01*
X199655636Y-81644259D01*
X199787942Y-81699062D01*
X199928397Y-81727000D01*
X200071603Y-81727000D01*
X200212058Y-81699062D01*
X200344364Y-81644259D01*
X200463436Y-81564698D01*
X200564698Y-81463436D01*
X200644259Y-81344364D01*
X200699062Y-81212058D01*
X200727000Y-81071603D01*
X200727000Y-80928397D01*
X205273000Y-80928397D01*
X205273000Y-81071603D01*
X205300938Y-81212058D01*
X205355741Y-81344364D01*
X205435302Y-81463436D01*
X205536564Y-81564698D01*
X205655636Y-81644259D01*
X205787942Y-81699062D01*
X205928397Y-81727000D01*
X206071603Y-81727000D01*
X206212058Y-81699062D01*
X206344364Y-81644259D01*
X206463436Y-81564698D01*
X206564698Y-81463436D01*
X206644259Y-81344364D01*
X206699062Y-81212058D01*
X206727000Y-81071603D01*
X206727000Y-80928397D01*
X211273000Y-80928397D01*
X211273000Y-81071603D01*
X211300938Y-81212058D01*
X211355741Y-81344364D01*
X211435302Y-81463436D01*
X211536564Y-81564698D01*
X211655636Y-81644259D01*
X211787942Y-81699062D01*
X211928397Y-81727000D01*
X212071603Y-81727000D01*
X212212058Y-81699062D01*
X212344364Y-81644259D01*
X212463436Y-81564698D01*
X212564698Y-81463436D01*
X212644259Y-81344364D01*
X212699062Y-81212058D01*
X212727000Y-81071603D01*
X212727000Y-80928397D01*
X217273000Y-80928397D01*
X217273000Y-81071603D01*
X217300938Y-81212058D01*
X217355741Y-81344364D01*
X217435302Y-81463436D01*
X217536564Y-81564698D01*
X217655636Y-81644259D01*
X217787942Y-81699062D01*
X217928397Y-81727000D01*
X218071603Y-81727000D01*
X218212058Y-81699062D01*
X218344364Y-81644259D01*
X218463436Y-81564698D01*
X218564698Y-81463436D01*
X218644259Y-81344364D01*
X218699062Y-81212058D01*
X218727000Y-81071603D01*
X218727000Y-80928397D01*
X223273000Y-80928397D01*
X223273000Y-81071603D01*
X223300938Y-81212058D01*
X223355741Y-81344364D01*
X223435302Y-81463436D01*
X223536564Y-81564698D01*
X223655636Y-81644259D01*
X223787942Y-81699062D01*
X223928397Y-81727000D01*
X224071603Y-81727000D01*
X224212058Y-81699062D01*
X224344364Y-81644259D01*
X224463436Y-81564698D01*
X224564698Y-81463436D01*
X224644259Y-81344364D01*
X224699062Y-81212058D01*
X224727000Y-81071603D01*
X224727000Y-80928397D01*
X229273000Y-80928397D01*
X229273000Y-81071603D01*
X229300938Y-81212058D01*
X229355741Y-81344364D01*
X229435302Y-81463436D01*
X229536564Y-81564698D01*
X229655636Y-81644259D01*
X229787942Y-81699062D01*
X229928397Y-81727000D01*
X230071603Y-81727000D01*
X230212058Y-81699062D01*
X230344364Y-81644259D01*
X230463436Y-81564698D01*
X230564698Y-81463436D01*
X230644259Y-81344364D01*
X230699062Y-81212058D01*
X230727000Y-81071603D01*
X230727000Y-80928397D01*
X230699062Y-80787942D01*
X230644259Y-80655636D01*
X230564698Y-80536564D01*
X230463436Y-80435302D01*
X230344364Y-80355741D01*
X230212058Y-80300938D01*
X230071603Y-80273000D01*
X229928397Y-80273000D01*
X229787942Y-80300938D01*
X229655636Y-80355741D01*
X229536564Y-80435302D01*
X229435302Y-80536564D01*
X229355741Y-80655636D01*
X229300938Y-80787942D01*
X229273000Y-80928397D01*
X224727000Y-80928397D01*
X224699062Y-80787942D01*
X224644259Y-80655636D01*
X224564698Y-80536564D01*
X224463436Y-80435302D01*
X224344364Y-80355741D01*
X224212058Y-80300938D01*
X224071603Y-80273000D01*
X223928397Y-80273000D01*
X223787942Y-80300938D01*
X223655636Y-80355741D01*
X223536564Y-80435302D01*
X223435302Y-80536564D01*
X223355741Y-80655636D01*
X223300938Y-80787942D01*
X223273000Y-80928397D01*
X218727000Y-80928397D01*
X218699062Y-80787942D01*
X218644259Y-80655636D01*
X218564698Y-80536564D01*
X218463436Y-80435302D01*
X218344364Y-80355741D01*
X218212058Y-80300938D01*
X218071603Y-80273000D01*
X217928397Y-80273000D01*
X217787942Y-80300938D01*
X217655636Y-80355741D01*
X217536564Y-80435302D01*
X217435302Y-80536564D01*
X217355741Y-80655636D01*
X217300938Y-80787942D01*
X217273000Y-80928397D01*
X212727000Y-80928397D01*
X212699062Y-80787942D01*
X212644259Y-80655636D01*
X212564698Y-80536564D01*
X212463436Y-80435302D01*
X212344364Y-80355741D01*
X212212058Y-80300938D01*
X212071603Y-80273000D01*
X211928397Y-80273000D01*
X211787942Y-80300938D01*
X211655636Y-80355741D01*
X211536564Y-80435302D01*
X211435302Y-80536564D01*
X211355741Y-80655636D01*
X211300938Y-80787942D01*
X211273000Y-80928397D01*
X206727000Y-80928397D01*
X206699062Y-80787942D01*
X206644259Y-80655636D01*
X206564698Y-80536564D01*
X206463436Y-80435302D01*
X206344364Y-80355741D01*
X206212058Y-80300938D01*
X206071603Y-80273000D01*
X205928397Y-80273000D01*
X205787942Y-80300938D01*
X205655636Y-80355741D01*
X205536564Y-80435302D01*
X205435302Y-80536564D01*
X205355741Y-80655636D01*
X205300938Y-80787942D01*
X205273000Y-80928397D01*
X200727000Y-80928397D01*
X200699062Y-80787942D01*
X200644259Y-80655636D01*
X200564698Y-80536564D01*
X200463436Y-80435302D01*
X200344364Y-80355741D01*
X200212058Y-80300938D01*
X200071603Y-80273000D01*
X199928397Y-80273000D01*
X199787942Y-80300938D01*
X199655636Y-80355741D01*
X199536564Y-80435302D01*
X199435302Y-80536564D01*
X199355741Y-80655636D01*
X199300938Y-80787942D01*
X199273000Y-80928397D01*
X194727000Y-80928397D01*
X194699062Y-80787942D01*
X194644259Y-80655636D01*
X194564698Y-80536564D01*
X194463436Y-80435302D01*
X194344364Y-80355741D01*
X194212058Y-80300938D01*
X194071603Y-80273000D01*
X193928397Y-80273000D01*
X193787942Y-80300938D01*
X193655636Y-80355741D01*
X193536564Y-80435302D01*
X193435302Y-80536564D01*
X193355741Y-80655636D01*
X193300938Y-80787942D01*
X193273000Y-80928397D01*
X188727000Y-80928397D01*
X188699062Y-80787942D01*
X188644259Y-80655636D01*
X188564698Y-80536564D01*
X188463436Y-80435302D01*
X188344364Y-80355741D01*
X188212058Y-80300938D01*
X188071603Y-80273000D01*
X187928397Y-80273000D01*
X187787942Y-80300938D01*
X187655636Y-80355741D01*
X187536564Y-80435302D01*
X187435302Y-80536564D01*
X187355741Y-80655636D01*
X187300938Y-80787942D01*
X187273000Y-80928397D01*
X182727000Y-80928397D01*
X182699062Y-80787942D01*
X182644259Y-80655636D01*
X182564698Y-80536564D01*
X182463436Y-80435302D01*
X182344364Y-80355741D01*
X182212058Y-80300938D01*
X182071603Y-80273000D01*
X181928397Y-80273000D01*
X181787942Y-80300938D01*
X181655636Y-80355741D01*
X181536564Y-80435302D01*
X181435302Y-80536564D01*
X181355741Y-80655636D01*
X181300938Y-80787942D01*
X181273000Y-80928397D01*
X176727000Y-80928397D01*
X176699062Y-80787942D01*
X176644259Y-80655636D01*
X176564698Y-80536564D01*
X176463436Y-80435302D01*
X176344364Y-80355741D01*
X176212058Y-80300938D01*
X176071603Y-80273000D01*
X175928397Y-80273000D01*
X175787942Y-80300938D01*
X175655636Y-80355741D01*
X175536564Y-80435302D01*
X175435302Y-80536564D01*
X175355741Y-80655636D01*
X175300938Y-80787942D01*
X175273000Y-80928397D01*
X170727000Y-80928397D01*
X170699062Y-80787942D01*
X170644259Y-80655636D01*
X170564698Y-80536564D01*
X170463436Y-80435302D01*
X170344364Y-80355741D01*
X170212058Y-80300938D01*
X170071603Y-80273000D01*
X169928397Y-80273000D01*
X169787942Y-80300938D01*
X169655636Y-80355741D01*
X169536564Y-80435302D01*
X169435302Y-80536564D01*
X169355741Y-80655636D01*
X169300938Y-80787942D01*
X169273000Y-80928397D01*
X164727000Y-80928397D01*
X164699062Y-80787942D01*
X164644259Y-80655636D01*
X164564698Y-80536564D01*
X164463436Y-80435302D01*
X164344364Y-80355741D01*
X164212058Y-80300938D01*
X164071603Y-80273000D01*
X163928397Y-80273000D01*
X163787942Y-80300938D01*
X163655636Y-80355741D01*
X163536564Y-80435302D01*
X163435302Y-80536564D01*
X163355741Y-80655636D01*
X163300938Y-80787942D01*
X163273000Y-80928397D01*
X158727000Y-80928397D01*
X158699062Y-80787942D01*
X158644259Y-80655636D01*
X158564698Y-80536564D01*
X158463436Y-80435302D01*
X158344364Y-80355741D01*
X158212058Y-80300938D01*
X158071603Y-80273000D01*
X157928397Y-80273000D01*
X157787942Y-80300938D01*
X157655636Y-80355741D01*
X157536564Y-80435302D01*
X157435302Y-80536564D01*
X157355741Y-80655636D01*
X157300938Y-80787942D01*
X157273000Y-80928397D01*
X152727000Y-80928397D01*
X152699062Y-80787942D01*
X152644259Y-80655636D01*
X152564698Y-80536564D01*
X152463436Y-80435302D01*
X152344364Y-80355741D01*
X152212058Y-80300938D01*
X152071603Y-80273000D01*
X151928397Y-80273000D01*
X151787942Y-80300938D01*
X151655636Y-80355741D01*
X151536564Y-80435302D01*
X151435302Y-80536564D01*
X151355741Y-80655636D01*
X151300938Y-80787942D01*
X151273000Y-80928397D01*
X146727000Y-80928397D01*
X146699062Y-80787942D01*
X146644259Y-80655636D01*
X146564698Y-80536564D01*
X146463436Y-80435302D01*
X146344364Y-80355741D01*
X146212058Y-80300938D01*
X146071603Y-80273000D01*
X145928397Y-80273000D01*
X145787942Y-80300938D01*
X145655636Y-80355741D01*
X145536564Y-80435302D01*
X145435302Y-80536564D01*
X145355741Y-80655636D01*
X145300938Y-80787942D01*
X145273000Y-80928397D01*
X140727000Y-80928397D01*
X140699062Y-80787942D01*
X140644259Y-80655636D01*
X140564698Y-80536564D01*
X140463436Y-80435302D01*
X140344364Y-80355741D01*
X140212058Y-80300938D01*
X140071603Y-80273000D01*
X139928397Y-80273000D01*
X139787942Y-80300938D01*
X139655636Y-80355741D01*
X139536564Y-80435302D01*
X139435302Y-80536564D01*
X139355741Y-80655636D01*
X139300938Y-80787942D01*
X139273000Y-80928397D01*
X134727000Y-80928397D01*
X134699062Y-80787942D01*
X134644259Y-80655636D01*
X134564698Y-80536564D01*
X134463436Y-80435302D01*
X134344364Y-80355741D01*
X134212058Y-80300938D01*
X134071603Y-80273000D01*
X133928397Y-80273000D01*
X133787942Y-80300938D01*
X133655636Y-80355741D01*
X133536564Y-80435302D01*
X133435302Y-80536564D01*
X133355741Y-80655636D01*
X133300938Y-80787942D01*
X133273000Y-80928397D01*
X130377000Y-80928397D01*
X130377000Y-75828397D01*
X141173000Y-75828397D01*
X141173000Y-75971603D01*
X141200938Y-76112058D01*
X141255741Y-76244364D01*
X141335302Y-76363436D01*
X141436564Y-76464698D01*
X141555636Y-76544259D01*
X141687942Y-76599062D01*
X141828397Y-76627000D01*
X141971603Y-76627000D01*
X142112058Y-76599062D01*
X142244364Y-76544259D01*
X142363436Y-76464698D01*
X142464698Y-76363436D01*
X142544259Y-76244364D01*
X142599062Y-76112058D01*
X142627000Y-75971603D01*
X142627000Y-75828397D01*
X153173000Y-75828397D01*
X153173000Y-75971603D01*
X153200938Y-76112058D01*
X153255741Y-76244364D01*
X153335302Y-76363436D01*
X153436564Y-76464698D01*
X153555636Y-76544259D01*
X153687942Y-76599062D01*
X153828397Y-76627000D01*
X153971603Y-76627000D01*
X154112058Y-76599062D01*
X154244364Y-76544259D01*
X154363436Y-76464698D01*
X154464698Y-76363436D01*
X154544259Y-76244364D01*
X154599062Y-76112058D01*
X154627000Y-75971603D01*
X154627000Y-75828397D01*
X165173000Y-75828397D01*
X165173000Y-75971603D01*
X165200938Y-76112058D01*
X165255741Y-76244364D01*
X165335302Y-76363436D01*
X165436564Y-76464698D01*
X165555636Y-76544259D01*
X165687942Y-76599062D01*
X165828397Y-76627000D01*
X165971603Y-76627000D01*
X166112058Y-76599062D01*
X166244364Y-76544259D01*
X166363436Y-76464698D01*
X166464698Y-76363436D01*
X166544259Y-76244364D01*
X166599062Y-76112058D01*
X166627000Y-75971603D01*
X166627000Y-75828397D01*
X177173000Y-75828397D01*
X177173000Y-75971603D01*
X177200938Y-76112058D01*
X177255741Y-76244364D01*
X177335302Y-76363436D01*
X177436564Y-76464698D01*
X177555636Y-76544259D01*
X177687942Y-76599062D01*
X177828397Y-76627000D01*
X177971603Y-76627000D01*
X178112058Y-76599062D01*
X178244364Y-76544259D01*
X178363436Y-76464698D01*
X178464698Y-76363436D01*
X178544259Y-76244364D01*
X178599062Y-76112058D01*
X178627000Y-75971603D01*
X178627000Y-75828397D01*
X189173000Y-75828397D01*
X189173000Y-75971603D01*
X189200938Y-76112058D01*
X189255741Y-76244364D01*
X189335302Y-76363436D01*
X189436564Y-76464698D01*
X189555636Y-76544259D01*
X189687942Y-76599062D01*
X189828397Y-76627000D01*
X189971603Y-76627000D01*
X190112058Y-76599062D01*
X190244364Y-76544259D01*
X190363436Y-76464698D01*
X190464698Y-76363436D01*
X190544259Y-76244364D01*
X190599062Y-76112058D01*
X190627000Y-75971603D01*
X190627000Y-75828397D01*
X201173000Y-75828397D01*
X201173000Y-75971603D01*
X201200938Y-76112058D01*
X201255741Y-76244364D01*
X201335302Y-76363436D01*
X201436564Y-76464698D01*
X201555636Y-76544259D01*
X201687942Y-76599062D01*
X201828397Y-76627000D01*
X201971603Y-76627000D01*
X202112058Y-76599062D01*
X202244364Y-76544259D01*
X202363436Y-76464698D01*
X202464698Y-76363436D01*
X202544259Y-76244364D01*
X202599062Y-76112058D01*
X202627000Y-75971603D01*
X202627000Y-75828397D01*
X213173000Y-75828397D01*
X213173000Y-75971603D01*
X213200938Y-76112058D01*
X213255741Y-76244364D01*
X213335302Y-76363436D01*
X213436564Y-76464698D01*
X213555636Y-76544259D01*
X213687942Y-76599062D01*
X213828397Y-76627000D01*
X213971603Y-76627000D01*
X214112058Y-76599062D01*
X214244364Y-76544259D01*
X214363436Y-76464698D01*
X214464698Y-76363436D01*
X214544259Y-76244364D01*
X214599062Y-76112058D01*
X214627000Y-75971603D01*
X214627000Y-75828397D01*
X225173000Y-75828397D01*
X225173000Y-75971603D01*
X225200938Y-76112058D01*
X225255741Y-76244364D01*
X225335302Y-76363436D01*
X225436564Y-76464698D01*
X225555636Y-76544259D01*
X225687942Y-76599062D01*
X225828397Y-76627000D01*
X225971603Y-76627000D01*
X226112058Y-76599062D01*
X226244364Y-76544259D01*
X226363436Y-76464698D01*
X226464698Y-76363436D01*
X226544259Y-76244364D01*
X226599062Y-76112058D01*
X226627000Y-75971603D01*
X226627000Y-75828397D01*
X226599062Y-75687942D01*
X226544259Y-75555636D01*
X226464698Y-75436564D01*
X226363436Y-75335302D01*
X226244364Y-75255741D01*
X226112058Y-75200938D01*
X225971603Y-75173000D01*
X225828397Y-75173000D01*
X225687942Y-75200938D01*
X225555636Y-75255741D01*
X225436564Y-75335302D01*
X225335302Y-75436564D01*
X225255741Y-75555636D01*
X225200938Y-75687942D01*
X225173000Y-75828397D01*
X214627000Y-75828397D01*
X214599062Y-75687942D01*
X214544259Y-75555636D01*
X214464698Y-75436564D01*
X214363436Y-75335302D01*
X214244364Y-75255741D01*
X214112058Y-75200938D01*
X213971603Y-75173000D01*
X213828397Y-75173000D01*
X213687942Y-75200938D01*
X213555636Y-75255741D01*
X213436564Y-75335302D01*
X213335302Y-75436564D01*
X213255741Y-75555636D01*
X213200938Y-75687942D01*
X213173000Y-75828397D01*
X202627000Y-75828397D01*
X202599062Y-75687942D01*
X202544259Y-75555636D01*
X202464698Y-75436564D01*
X202363436Y-75335302D01*
X202244364Y-75255741D01*
X202112058Y-75200938D01*
X201971603Y-75173000D01*
X201828397Y-75173000D01*
X201687942Y-75200938D01*
X201555636Y-75255741D01*
X201436564Y-75335302D01*
X201335302Y-75436564D01*
X201255741Y-75555636D01*
X201200938Y-75687942D01*
X201173000Y-75828397D01*
X190627000Y-75828397D01*
X190599062Y-75687942D01*
X190544259Y-75555636D01*
X190464698Y-75436564D01*
X190363436Y-75335302D01*
X190244364Y-75255741D01*
X190112058Y-75200938D01*
X189971603Y-75173000D01*
X189828397Y-75173000D01*
X189687942Y-75200938D01*
X189555636Y-75255741D01*
X189436564Y-75335302D01*
X189335302Y-75436564D01*
X189255741Y-75555636D01*
X189200938Y-75687942D01*
X189173000Y-75828397D01*
X178627000Y-75828397D01*
X178599062Y-75687942D01*
X178544259Y-75555636D01*
X178464698Y-75436564D01*
X178363436Y-75335302D01*
X178244364Y-75255741D01*
X178112058Y-75200938D01*
X177971603Y-75173000D01*
X177828397Y-75173000D01*
X177687942Y-75200938D01*
X177555636Y-75255741D01*
X177436564Y-75335302D01*
X177335302Y-75436564D01*
X177255741Y-75555636D01*
X177200938Y-75687942D01*
X177173000Y-75828397D01*
X166627000Y-75828397D01*
X166599062Y-75687942D01*
X166544259Y-75555636D01*
X166464698Y-75436564D01*
X166363436Y-75335302D01*
X166244364Y-75255741D01*
X166112058Y-75200938D01*
X165971603Y-75173000D01*
X165828397Y-75173000D01*
X165687942Y-75200938D01*
X165555636Y-75255741D01*
X165436564Y-75335302D01*
X165335302Y-75436564D01*
X165255741Y-75555636D01*
X165200938Y-75687942D01*
X165173000Y-75828397D01*
X154627000Y-75828397D01*
X154599062Y-75687942D01*
X154544259Y-75555636D01*
X154464698Y-75436564D01*
X154363436Y-75335302D01*
X154244364Y-75255741D01*
X154112058Y-75200938D01*
X153971603Y-75173000D01*
X153828397Y-75173000D01*
X153687942Y-75200938D01*
X153555636Y-75255741D01*
X153436564Y-75335302D01*
X153335302Y-75436564D01*
X153255741Y-75555636D01*
X153200938Y-75687942D01*
X153173000Y-75828397D01*
X142627000Y-75828397D01*
X142599062Y-75687942D01*
X142544259Y-75555636D01*
X142464698Y-75436564D01*
X142363436Y-75335302D01*
X142244364Y-75255741D01*
X142112058Y-75200938D01*
X141971603Y-75173000D01*
X141828397Y-75173000D01*
X141687942Y-75200938D01*
X141555636Y-75255741D01*
X141436564Y-75335302D01*
X141335302Y-75436564D01*
X141255741Y-75555636D01*
X141200938Y-75687942D01*
X141173000Y-75828397D01*
X130377000Y-75828397D01*
X130377000Y-68928397D01*
X133273000Y-68928397D01*
X133273000Y-69071603D01*
X133300938Y-69212058D01*
X133355741Y-69344364D01*
X133435302Y-69463436D01*
X133536564Y-69564698D01*
X133655636Y-69644259D01*
X133787942Y-69699062D01*
X133928397Y-69727000D01*
X134071603Y-69727000D01*
X134212058Y-69699062D01*
X134344364Y-69644259D01*
X134463436Y-69564698D01*
X134564698Y-69463436D01*
X134644259Y-69344364D01*
X134699062Y-69212058D01*
X134727000Y-69071603D01*
X134727000Y-68928397D01*
X139273000Y-68928397D01*
X139273000Y-69071603D01*
X139300938Y-69212058D01*
X139355741Y-69344364D01*
X139435302Y-69463436D01*
X139536564Y-69564698D01*
X139655636Y-69644259D01*
X139787942Y-69699062D01*
X139928397Y-69727000D01*
X140071603Y-69727000D01*
X140212058Y-69699062D01*
X140344364Y-69644259D01*
X140463436Y-69564698D01*
X140564698Y-69463436D01*
X140644259Y-69344364D01*
X140699062Y-69212058D01*
X140727000Y-69071603D01*
X140727000Y-68928397D01*
X145273000Y-68928397D01*
X145273000Y-69071603D01*
X145300938Y-69212058D01*
X145355741Y-69344364D01*
X145435302Y-69463436D01*
X145536564Y-69564698D01*
X145655636Y-69644259D01*
X145787942Y-69699062D01*
X145928397Y-69727000D01*
X146071603Y-69727000D01*
X146212058Y-69699062D01*
X146344364Y-69644259D01*
X146463436Y-69564698D01*
X146564698Y-69463436D01*
X146644259Y-69344364D01*
X146699062Y-69212058D01*
X146727000Y-69071603D01*
X146727000Y-68928397D01*
X151273000Y-68928397D01*
X151273000Y-69071603D01*
X151300938Y-69212058D01*
X151355741Y-69344364D01*
X151435302Y-69463436D01*
X151536564Y-69564698D01*
X151655636Y-69644259D01*
X151787942Y-69699062D01*
X151928397Y-69727000D01*
X152071603Y-69727000D01*
X152212058Y-69699062D01*
X152344364Y-69644259D01*
X152463436Y-69564698D01*
X152564698Y-69463436D01*
X152644259Y-69344364D01*
X152699062Y-69212058D01*
X152727000Y-69071603D01*
X152727000Y-68928397D01*
X157273000Y-68928397D01*
X157273000Y-69071603D01*
X157300938Y-69212058D01*
X157355741Y-69344364D01*
X157435302Y-69463436D01*
X157536564Y-69564698D01*
X157655636Y-69644259D01*
X157787942Y-69699062D01*
X157928397Y-69727000D01*
X158071603Y-69727000D01*
X158212058Y-69699062D01*
X158344364Y-69644259D01*
X158463436Y-69564698D01*
X158564698Y-69463436D01*
X158644259Y-69344364D01*
X158699062Y-69212058D01*
X158727000Y-69071603D01*
X158727000Y-68928397D01*
X163273000Y-68928397D01*
X163273000Y-69071603D01*
X163300938Y-69212058D01*
X163355741Y-69344364D01*
X163435302Y-69463436D01*
X163536564Y-69564698D01*
X163655636Y-69644259D01*
X163787942Y-69699062D01*
X163928397Y-69727000D01*
X164071603Y-69727000D01*
X164212058Y-69699062D01*
X164344364Y-69644259D01*
X164463436Y-69564698D01*
X164564698Y-69463436D01*
X164644259Y-69344364D01*
X164699062Y-69212058D01*
X164727000Y-69071603D01*
X164727000Y-68928397D01*
X169273000Y-68928397D01*
X169273000Y-69071603D01*
X169300938Y-69212058D01*
X169355741Y-69344364D01*
X169435302Y-69463436D01*
X169536564Y-69564698D01*
X169655636Y-69644259D01*
X169787942Y-69699062D01*
X169928397Y-69727000D01*
X170071603Y-69727000D01*
X170212058Y-69699062D01*
X170344364Y-69644259D01*
X170463436Y-69564698D01*
X170564698Y-69463436D01*
X170644259Y-69344364D01*
X170699062Y-69212058D01*
X170727000Y-69071603D01*
X170727000Y-68928397D01*
X175273000Y-68928397D01*
X175273000Y-69071603D01*
X175300938Y-69212058D01*
X175355741Y-69344364D01*
X175435302Y-69463436D01*
X175536564Y-69564698D01*
X175655636Y-69644259D01*
X175787942Y-69699062D01*
X175928397Y-69727000D01*
X176071603Y-69727000D01*
X176212058Y-69699062D01*
X176344364Y-69644259D01*
X176463436Y-69564698D01*
X176564698Y-69463436D01*
X176644259Y-69344364D01*
X176699062Y-69212058D01*
X176727000Y-69071603D01*
X176727000Y-68928397D01*
X181273000Y-68928397D01*
X181273000Y-69071603D01*
X181300938Y-69212058D01*
X181355741Y-69344364D01*
X181435302Y-69463436D01*
X181536564Y-69564698D01*
X181655636Y-69644259D01*
X181787942Y-69699062D01*
X181928397Y-69727000D01*
X182071603Y-69727000D01*
X182212058Y-69699062D01*
X182344364Y-69644259D01*
X182463436Y-69564698D01*
X182564698Y-69463436D01*
X182644259Y-69344364D01*
X182699062Y-69212058D01*
X182727000Y-69071603D01*
X182727000Y-68928397D01*
X187273000Y-68928397D01*
X187273000Y-69071603D01*
X187300938Y-69212058D01*
X187355741Y-69344364D01*
X187435302Y-69463436D01*
X187536564Y-69564698D01*
X187655636Y-69644259D01*
X187787942Y-69699062D01*
X187928397Y-69727000D01*
X188071603Y-69727000D01*
X188212058Y-69699062D01*
X188344364Y-69644259D01*
X188463436Y-69564698D01*
X188564698Y-69463436D01*
X188644259Y-69344364D01*
X188699062Y-69212058D01*
X188727000Y-69071603D01*
X188727000Y-68928397D01*
X193273000Y-68928397D01*
X193273000Y-69071603D01*
X193300938Y-69212058D01*
X193355741Y-69344364D01*
X193435302Y-69463436D01*
X193536564Y-69564698D01*
X193655636Y-69644259D01*
X193787942Y-69699062D01*
X193928397Y-69727000D01*
X194071603Y-69727000D01*
X194212058Y-69699062D01*
X194344364Y-69644259D01*
X194463436Y-69564698D01*
X194564698Y-69463436D01*
X194644259Y-69344364D01*
X194699062Y-69212058D01*
X194727000Y-69071603D01*
X194727000Y-68928397D01*
X199273000Y-68928397D01*
X199273000Y-69071603D01*
X199300938Y-69212058D01*
X199355741Y-69344364D01*
X199435302Y-69463436D01*
X199536564Y-69564698D01*
X199655636Y-69644259D01*
X199787942Y-69699062D01*
X199928397Y-69727000D01*
X200071603Y-69727000D01*
X200212058Y-69699062D01*
X200344364Y-69644259D01*
X200463436Y-69564698D01*
X200564698Y-69463436D01*
X200644259Y-69344364D01*
X200699062Y-69212058D01*
X200727000Y-69071603D01*
X200727000Y-68928397D01*
X205273000Y-68928397D01*
X205273000Y-69071603D01*
X205300938Y-69212058D01*
X205355741Y-69344364D01*
X205435302Y-69463436D01*
X205536564Y-69564698D01*
X205655636Y-69644259D01*
X205787942Y-69699062D01*
X205928397Y-69727000D01*
X206071603Y-69727000D01*
X206212058Y-69699062D01*
X206344364Y-69644259D01*
X206463436Y-69564698D01*
X206564698Y-69463436D01*
X206644259Y-69344364D01*
X206699062Y-69212058D01*
X206727000Y-69071603D01*
X206727000Y-68928397D01*
X211273000Y-68928397D01*
X211273000Y-69071603D01*
X211300938Y-69212058D01*
X211355741Y-69344364D01*
X211435302Y-69463436D01*
X211536564Y-69564698D01*
X211655636Y-69644259D01*
X211787942Y-69699062D01*
X211928397Y-69727000D01*
X212071603Y-69727000D01*
X212212058Y-69699062D01*
X212344364Y-69644259D01*
X212463436Y-69564698D01*
X212564698Y-69463436D01*
X212644259Y-69344364D01*
X212699062Y-69212058D01*
X212727000Y-69071603D01*
X212727000Y-68928397D01*
X217273000Y-68928397D01*
X217273000Y-69071603D01*
X217300938Y-69212058D01*
X217355741Y-69344364D01*
X217435302Y-69463436D01*
X217536564Y-69564698D01*
X217655636Y-69644259D01*
X217787942Y-69699062D01*
X217928397Y-69727000D01*
X218071603Y-69727000D01*
X218212058Y-69699062D01*
X218344364Y-69644259D01*
X218463436Y-69564698D01*
X218564698Y-69463436D01*
X218644259Y-69344364D01*
X218699062Y-69212058D01*
X218727000Y-69071603D01*
X218727000Y-68928397D01*
X223273000Y-68928397D01*
X223273000Y-69071603D01*
X223300938Y-69212058D01*
X223355741Y-69344364D01*
X223435302Y-69463436D01*
X223536564Y-69564698D01*
X223655636Y-69644259D01*
X223787942Y-69699062D01*
X223928397Y-69727000D01*
X224071603Y-69727000D01*
X224212058Y-69699062D01*
X224344364Y-69644259D01*
X224463436Y-69564698D01*
X224564698Y-69463436D01*
X224644259Y-69344364D01*
X224699062Y-69212058D01*
X224727000Y-69071603D01*
X224727000Y-68928397D01*
X229273000Y-68928397D01*
X229273000Y-69071603D01*
X229300938Y-69212058D01*
X229355741Y-69344364D01*
X229435302Y-69463436D01*
X229536564Y-69564698D01*
X229655636Y-69644259D01*
X229787942Y-69699062D01*
X229928397Y-69727000D01*
X230071603Y-69727000D01*
X230212058Y-69699062D01*
X230344364Y-69644259D01*
X230463436Y-69564698D01*
X230564698Y-69463436D01*
X230644259Y-69344364D01*
X230699062Y-69212058D01*
X230727000Y-69071603D01*
X230727000Y-68928397D01*
X230699062Y-68787942D01*
X230644259Y-68655636D01*
X230564698Y-68536564D01*
X230463436Y-68435302D01*
X230344364Y-68355741D01*
X230212058Y-68300938D01*
X230071603Y-68273000D01*
X229928397Y-68273000D01*
X229787942Y-68300938D01*
X229655636Y-68355741D01*
X229536564Y-68435302D01*
X229435302Y-68536564D01*
X229355741Y-68655636D01*
X229300938Y-68787942D01*
X229273000Y-68928397D01*
X224727000Y-68928397D01*
X224699062Y-68787942D01*
X224644259Y-68655636D01*
X224564698Y-68536564D01*
X224463436Y-68435302D01*
X224344364Y-68355741D01*
X224212058Y-68300938D01*
X224071603Y-68273000D01*
X223928397Y-68273000D01*
X223787942Y-68300938D01*
X223655636Y-68355741D01*
X223536564Y-68435302D01*
X223435302Y-68536564D01*
X223355741Y-68655636D01*
X223300938Y-68787942D01*
X223273000Y-68928397D01*
X218727000Y-68928397D01*
X218699062Y-68787942D01*
X218644259Y-68655636D01*
X218564698Y-68536564D01*
X218463436Y-68435302D01*
X218344364Y-68355741D01*
X218212058Y-68300938D01*
X218071603Y-68273000D01*
X217928397Y-68273000D01*
X217787942Y-68300938D01*
X217655636Y-68355741D01*
X217536564Y-68435302D01*
X217435302Y-68536564D01*
X217355741Y-68655636D01*
X217300938Y-68787942D01*
X217273000Y-68928397D01*
X212727000Y-68928397D01*
X212699062Y-68787942D01*
X212644259Y-68655636D01*
X212564698Y-68536564D01*
X212463436Y-68435302D01*
X212344364Y-68355741D01*
X212212058Y-68300938D01*
X212071603Y-68273000D01*
X211928397Y-68273000D01*
X211787942Y-68300938D01*
X211655636Y-68355741D01*
X211536564Y-68435302D01*
X211435302Y-68536564D01*
X211355741Y-68655636D01*
X211300938Y-68787942D01*
X211273000Y-68928397D01*
X206727000Y-68928397D01*
X206699062Y-68787942D01*
X206644259Y-68655636D01*
X206564698Y-68536564D01*
X206463436Y-68435302D01*
X206344364Y-68355741D01*
X206212058Y-68300938D01*
X206071603Y-68273000D01*
X205928397Y-68273000D01*
X205787942Y-68300938D01*
X205655636Y-68355741D01*
X205536564Y-68435302D01*
X205435302Y-68536564D01*
X205355741Y-68655636D01*
X205300938Y-68787942D01*
X205273000Y-68928397D01*
X200727000Y-68928397D01*
X200699062Y-68787942D01*
X200644259Y-68655636D01*
X200564698Y-68536564D01*
X200463436Y-68435302D01*
X200344364Y-68355741D01*
X200212058Y-68300938D01*
X200071603Y-68273000D01*
X199928397Y-68273000D01*
X199787942Y-68300938D01*
X199655636Y-68355741D01*
X199536564Y-68435302D01*
X199435302Y-68536564D01*
X199355741Y-68655636D01*
X199300938Y-68787942D01*
X199273000Y-68928397D01*
X194727000Y-68928397D01*
X194699062Y-68787942D01*
X194644259Y-68655636D01*
X194564698Y-68536564D01*
X194463436Y-68435302D01*
X194344364Y-68355741D01*
X194212058Y-68300938D01*
X194071603Y-68273000D01*
X193928397Y-68273000D01*
X193787942Y-68300938D01*
X193655636Y-68355741D01*
X193536564Y-68435302D01*
X193435302Y-68536564D01*
X193355741Y-68655636D01*
X193300938Y-68787942D01*
X193273000Y-68928397D01*
X188727000Y-68928397D01*
X188699062Y-68787942D01*
X188644259Y-68655636D01*
X188564698Y-68536564D01*
X188463436Y-68435302D01*
X188344364Y-68355741D01*
X188212058Y-68300938D01*
X188071603Y-68273000D01*
X187928397Y-68273000D01*
X187787942Y-68300938D01*
X187655636Y-68355741D01*
X187536564Y-68435302D01*
X187435302Y-68536564D01*
X187355741Y-68655636D01*
X187300938Y-68787942D01*
X187273000Y-68928397D01*
X182727000Y-68928397D01*
X182699062Y-68787942D01*
X182644259Y-68655636D01*
X182564698Y-68536564D01*
X182463436Y-68435302D01*
X182344364Y-68355741D01*
X182212058Y-68300938D01*
X182071603Y-68273000D01*
X181928397Y-68273000D01*
X181787942Y-68300938D01*
X181655636Y-68355741D01*
X181536564Y-68435302D01*
X181435302Y-68536564D01*
X181355741Y-68655636D01*
X181300938Y-68787942D01*
X181273000Y-68928397D01*
X176727000Y-68928397D01*
X176699062Y-68787942D01*
X176644259Y-68655636D01*
X176564698Y-68536564D01*
X176463436Y-68435302D01*
X176344364Y-68355741D01*
X176212058Y-68300938D01*
X176071603Y-68273000D01*
X175928397Y-68273000D01*
X175787942Y-68300938D01*
X175655636Y-68355741D01*
X175536564Y-68435302D01*
X175435302Y-68536564D01*
X175355741Y-68655636D01*
X175300938Y-68787942D01*
X175273000Y-68928397D01*
X170727000Y-68928397D01*
X170699062Y-68787942D01*
X170644259Y-68655636D01*
X170564698Y-68536564D01*
X170463436Y-68435302D01*
X170344364Y-68355741D01*
X170212058Y-68300938D01*
X170071603Y-68273000D01*
X169928397Y-68273000D01*
X169787942Y-68300938D01*
X169655636Y-68355741D01*
X169536564Y-68435302D01*
X169435302Y-68536564D01*
X169355741Y-68655636D01*
X169300938Y-68787942D01*
X169273000Y-68928397D01*
X164727000Y-68928397D01*
X164699062Y-68787942D01*
X164644259Y-68655636D01*
X164564698Y-68536564D01*
X164463436Y-68435302D01*
X164344364Y-68355741D01*
X164212058Y-68300938D01*
X164071603Y-68273000D01*
X163928397Y-68273000D01*
X163787942Y-68300938D01*
X163655636Y-68355741D01*
X163536564Y-68435302D01*
X163435302Y-68536564D01*
X163355741Y-68655636D01*
X163300938Y-68787942D01*
X163273000Y-68928397D01*
X158727000Y-68928397D01*
X158699062Y-68787942D01*
X158644259Y-68655636D01*
X158564698Y-68536564D01*
X158463436Y-68435302D01*
X158344364Y-68355741D01*
X158212058Y-68300938D01*
X158071603Y-68273000D01*
X157928397Y-68273000D01*
X157787942Y-68300938D01*
X157655636Y-68355741D01*
X157536564Y-68435302D01*
X157435302Y-68536564D01*
X157355741Y-68655636D01*
X157300938Y-68787942D01*
X157273000Y-68928397D01*
X152727000Y-68928397D01*
X152699062Y-68787942D01*
X152644259Y-68655636D01*
X152564698Y-68536564D01*
X152463436Y-68435302D01*
X152344364Y-68355741D01*
X152212058Y-68300938D01*
X152071603Y-68273000D01*
X151928397Y-68273000D01*
X151787942Y-68300938D01*
X151655636Y-68355741D01*
X151536564Y-68435302D01*
X151435302Y-68536564D01*
X151355741Y-68655636D01*
X151300938Y-68787942D01*
X151273000Y-68928397D01*
X146727000Y-68928397D01*
X146699062Y-68787942D01*
X146644259Y-68655636D01*
X146564698Y-68536564D01*
X146463436Y-68435302D01*
X146344364Y-68355741D01*
X146212058Y-68300938D01*
X146071603Y-68273000D01*
X145928397Y-68273000D01*
X145787942Y-68300938D01*
X145655636Y-68355741D01*
X145536564Y-68435302D01*
X145435302Y-68536564D01*
X145355741Y-68655636D01*
X145300938Y-68787942D01*
X145273000Y-68928397D01*
X140727000Y-68928397D01*
X140699062Y-68787942D01*
X140644259Y-68655636D01*
X140564698Y-68536564D01*
X140463436Y-68435302D01*
X140344364Y-68355741D01*
X140212058Y-68300938D01*
X140071603Y-68273000D01*
X139928397Y-68273000D01*
X139787942Y-68300938D01*
X139655636Y-68355741D01*
X139536564Y-68435302D01*
X139435302Y-68536564D01*
X139355741Y-68655636D01*
X139300938Y-68787942D01*
X139273000Y-68928397D01*
X134727000Y-68928397D01*
X134699062Y-68787942D01*
X134644259Y-68655636D01*
X134564698Y-68536564D01*
X134463436Y-68435302D01*
X134344364Y-68355741D01*
X134212058Y-68300938D01*
X134071603Y-68273000D01*
X133928397Y-68273000D01*
X133787942Y-68300938D01*
X133655636Y-68355741D01*
X133536564Y-68435302D01*
X133435302Y-68536564D01*
X133355741Y-68655636D01*
X133300938Y-68787942D01*
X133273000Y-68928397D01*
X130377000Y-68928397D01*
X130377000Y-63828397D01*
X141172988Y-63828397D01*
X141172988Y-63971603D01*
X141200926Y-64112058D01*
X141255729Y-64244364D01*
X141335290Y-64363436D01*
X141436552Y-64464698D01*
X141555624Y-64544259D01*
X141687930Y-64599062D01*
X141828385Y-64627000D01*
X141971591Y-64627000D01*
X142112046Y-64599062D01*
X142244352Y-64544259D01*
X142363424Y-64464698D01*
X142464686Y-64363436D01*
X142544247Y-64244364D01*
X142599050Y-64112058D01*
X142626988Y-63971603D01*
X142626988Y-63828397D01*
X153173000Y-63828397D01*
X153173000Y-63971603D01*
X153200938Y-64112058D01*
X153255741Y-64244364D01*
X153335302Y-64363436D01*
X153436564Y-64464698D01*
X153555636Y-64544259D01*
X153687942Y-64599062D01*
X153828397Y-64627000D01*
X153971603Y-64627000D01*
X154112058Y-64599062D01*
X154244364Y-64544259D01*
X154363436Y-64464698D01*
X154464698Y-64363436D01*
X154544259Y-64244364D01*
X154599062Y-64112058D01*
X154627000Y-63971603D01*
X154627000Y-63828397D01*
X165173000Y-63828397D01*
X165173000Y-63971603D01*
X165200938Y-64112058D01*
X165255741Y-64244364D01*
X165335302Y-64363436D01*
X165436564Y-64464698D01*
X165555636Y-64544259D01*
X165687942Y-64599062D01*
X165828397Y-64627000D01*
X165971603Y-64627000D01*
X166112058Y-64599062D01*
X166244364Y-64544259D01*
X166363436Y-64464698D01*
X166464698Y-64363436D01*
X166544259Y-64244364D01*
X166599062Y-64112058D01*
X166627000Y-63971603D01*
X166627000Y-63828397D01*
X177173000Y-63828397D01*
X177173000Y-63971603D01*
X177200938Y-64112058D01*
X177255741Y-64244364D01*
X177335302Y-64363436D01*
X177436564Y-64464698D01*
X177555636Y-64544259D01*
X177687942Y-64599062D01*
X177828397Y-64627000D01*
X177971603Y-64627000D01*
X178112058Y-64599062D01*
X178244364Y-64544259D01*
X178363436Y-64464698D01*
X178464698Y-64363436D01*
X178544259Y-64244364D01*
X178599062Y-64112058D01*
X178627000Y-63971603D01*
X178627000Y-63828397D01*
X189173000Y-63828397D01*
X189173000Y-63971603D01*
X189200938Y-64112058D01*
X189255741Y-64244364D01*
X189335302Y-64363436D01*
X189436564Y-64464698D01*
X189555636Y-64544259D01*
X189687942Y-64599062D01*
X189828397Y-64627000D01*
X189971603Y-64627000D01*
X190112058Y-64599062D01*
X190244364Y-64544259D01*
X190363436Y-64464698D01*
X190464698Y-64363436D01*
X190544259Y-64244364D01*
X190599062Y-64112058D01*
X190627000Y-63971603D01*
X190627000Y-63828397D01*
X201173000Y-63828397D01*
X201173000Y-63971603D01*
X201200938Y-64112058D01*
X201255741Y-64244364D01*
X201335302Y-64363436D01*
X201436564Y-64464698D01*
X201555636Y-64544259D01*
X201687942Y-64599062D01*
X201828397Y-64627000D01*
X201971603Y-64627000D01*
X202112058Y-64599062D01*
X202244364Y-64544259D01*
X202363436Y-64464698D01*
X202464698Y-64363436D01*
X202544259Y-64244364D01*
X202599062Y-64112058D01*
X202627000Y-63971603D01*
X202627000Y-63828397D01*
X213173000Y-63828397D01*
X213173000Y-63971603D01*
X213200938Y-64112058D01*
X213255741Y-64244364D01*
X213335302Y-64363436D01*
X213436564Y-64464698D01*
X213555636Y-64544259D01*
X213687942Y-64599062D01*
X213828397Y-64627000D01*
X213971603Y-64627000D01*
X214112058Y-64599062D01*
X214244364Y-64544259D01*
X214363436Y-64464698D01*
X214464698Y-64363436D01*
X214544259Y-64244364D01*
X214599062Y-64112058D01*
X214627000Y-63971603D01*
X214627000Y-63828397D01*
X225173000Y-63828397D01*
X225173000Y-63971603D01*
X225200938Y-64112058D01*
X225255741Y-64244364D01*
X225335302Y-64363436D01*
X225436564Y-64464698D01*
X225555636Y-64544259D01*
X225687942Y-64599062D01*
X225828397Y-64627000D01*
X225971603Y-64627000D01*
X226112058Y-64599062D01*
X226244364Y-64544259D01*
X226363436Y-64464698D01*
X226464698Y-64363436D01*
X226544259Y-64244364D01*
X226599062Y-64112058D01*
X226627000Y-63971603D01*
X226627000Y-63828397D01*
X226599062Y-63687942D01*
X226544259Y-63555636D01*
X226464698Y-63436564D01*
X226363436Y-63335302D01*
X226244364Y-63255741D01*
X226112058Y-63200938D01*
X225971603Y-63173000D01*
X225828397Y-63173000D01*
X225687942Y-63200938D01*
X225555636Y-63255741D01*
X225436564Y-63335302D01*
X225335302Y-63436564D01*
X225255741Y-63555636D01*
X225200938Y-63687942D01*
X225173000Y-63828397D01*
X214627000Y-63828397D01*
X214599062Y-63687942D01*
X214544259Y-63555636D01*
X214464698Y-63436564D01*
X214363436Y-63335302D01*
X214244364Y-63255741D01*
X214112058Y-63200938D01*
X213971603Y-63173000D01*
X213828397Y-63173000D01*
X213687942Y-63200938D01*
X213555636Y-63255741D01*
X213436564Y-63335302D01*
X213335302Y-63436564D01*
X213255741Y-63555636D01*
X213200938Y-63687942D01*
X213173000Y-63828397D01*
X202627000Y-63828397D01*
X202599062Y-63687942D01*
X202544259Y-63555636D01*
X202464698Y-63436564D01*
X202363436Y-63335302D01*
X202244364Y-63255741D01*
X202112058Y-63200938D01*
X201971603Y-63173000D01*
X201828397Y-63173000D01*
X201687942Y-63200938D01*
X201555636Y-63255741D01*
X201436564Y-63335302D01*
X201335302Y-63436564D01*
X201255741Y-63555636D01*
X201200938Y-63687942D01*
X201173000Y-63828397D01*
X190627000Y-63828397D01*
X190599062Y-63687942D01*
X190544259Y-63555636D01*
X190464698Y-63436564D01*
X190363436Y-63335302D01*
X190244364Y-63255741D01*
X190112058Y-63200938D01*
X189971603Y-63173000D01*
X189828397Y-63173000D01*
X189687942Y-63200938D01*
X189555636Y-63255741D01*
X189436564Y-63335302D01*
X189335302Y-63436564D01*
X189255741Y-63555636D01*
X189200938Y-63687942D01*
X189173000Y-63828397D01*
X178627000Y-63828397D01*
X178599062Y-63687942D01*
X178544259Y-63555636D01*
X178464698Y-63436564D01*
X178363436Y-63335302D01*
X178244364Y-63255741D01*
X178112058Y-63200938D01*
X177971603Y-63173000D01*
X177828397Y-63173000D01*
X177687942Y-63200938D01*
X177555636Y-63255741D01*
X177436564Y-63335302D01*
X177335302Y-63436564D01*
X177255741Y-63555636D01*
X177200938Y-63687942D01*
X177173000Y-63828397D01*
X166627000Y-63828397D01*
X166599062Y-63687942D01*
X166544259Y-63555636D01*
X166464698Y-63436564D01*
X166363436Y-63335302D01*
X166244364Y-63255741D01*
X166112058Y-63200938D01*
X165971603Y-63173000D01*
X165828397Y-63173000D01*
X165687942Y-63200938D01*
X165555636Y-63255741D01*
X165436564Y-63335302D01*
X165335302Y-63436564D01*
X165255741Y-63555636D01*
X165200938Y-63687942D01*
X165173000Y-63828397D01*
X154627000Y-63828397D01*
X154599062Y-63687942D01*
X154544259Y-63555636D01*
X154464698Y-63436564D01*
X154363436Y-63335302D01*
X154244364Y-63255741D01*
X154112058Y-63200938D01*
X153971603Y-63173000D01*
X153828397Y-63173000D01*
X153687942Y-63200938D01*
X153555636Y-63255741D01*
X153436564Y-63335302D01*
X153335302Y-63436564D01*
X153255741Y-63555636D01*
X153200938Y-63687942D01*
X153173000Y-63828397D01*
X142626988Y-63828397D01*
X142599050Y-63687942D01*
X142544247Y-63555636D01*
X142464686Y-63436564D01*
X142363424Y-63335302D01*
X142244352Y-63255741D01*
X142112046Y-63200938D01*
X141971591Y-63173000D01*
X141828385Y-63173000D01*
X141687930Y-63200938D01*
X141555624Y-63255741D01*
X141436552Y-63335302D01*
X141335290Y-63436564D01*
X141255729Y-63555636D01*
X141200926Y-63687942D01*
X141172988Y-63828397D01*
X130377000Y-63828397D01*
X130377000Y-58178397D01*
X133272994Y-58178397D01*
X133272994Y-58321603D01*
X133300932Y-58462058D01*
X133355735Y-58594364D01*
X133435296Y-58713436D01*
X133536558Y-58814698D01*
X133655630Y-58894259D01*
X133787936Y-58949062D01*
X133928391Y-58977000D01*
X134071597Y-58977000D01*
X134212052Y-58949062D01*
X134344358Y-58894259D01*
X134463430Y-58814698D01*
X134564692Y-58713436D01*
X134644253Y-58594364D01*
X134699056Y-58462058D01*
X134726994Y-58321603D01*
X134726994Y-58178397D01*
X139273000Y-58178397D01*
X139273000Y-58321603D01*
X139300938Y-58462058D01*
X139355741Y-58594364D01*
X139435302Y-58713436D01*
X139536564Y-58814698D01*
X139655636Y-58894259D01*
X139787942Y-58949062D01*
X139928397Y-58977000D01*
X140071603Y-58977000D01*
X140212058Y-58949062D01*
X140344364Y-58894259D01*
X140463436Y-58814698D01*
X140564698Y-58713436D01*
X140644259Y-58594364D01*
X140699062Y-58462058D01*
X140727000Y-58321603D01*
X140727000Y-58178397D01*
X145273000Y-58178397D01*
X145273000Y-58321603D01*
X145300938Y-58462058D01*
X145355741Y-58594364D01*
X145435302Y-58713436D01*
X145536564Y-58814698D01*
X145655636Y-58894259D01*
X145787942Y-58949062D01*
X145928397Y-58977000D01*
X146071603Y-58977000D01*
X146212058Y-58949062D01*
X146344364Y-58894259D01*
X146463436Y-58814698D01*
X146564698Y-58713436D01*
X146644259Y-58594364D01*
X146699062Y-58462058D01*
X146727000Y-58321603D01*
X146727000Y-58178397D01*
X151273000Y-58178397D01*
X151273000Y-58321603D01*
X151300938Y-58462058D01*
X151355741Y-58594364D01*
X151435302Y-58713436D01*
X151536564Y-58814698D01*
X151655636Y-58894259D01*
X151787942Y-58949062D01*
X151928397Y-58977000D01*
X152071603Y-58977000D01*
X152212058Y-58949062D01*
X152344364Y-58894259D01*
X152463436Y-58814698D01*
X152564698Y-58713436D01*
X152644259Y-58594364D01*
X152699062Y-58462058D01*
X152727000Y-58321603D01*
X152727000Y-58178397D01*
X157273000Y-58178397D01*
X157273000Y-58321603D01*
X157300938Y-58462058D01*
X157355741Y-58594364D01*
X157435302Y-58713436D01*
X157536564Y-58814698D01*
X157655636Y-58894259D01*
X157787942Y-58949062D01*
X157928397Y-58977000D01*
X158071603Y-58977000D01*
X158212058Y-58949062D01*
X158344364Y-58894259D01*
X158463436Y-58814698D01*
X158564698Y-58713436D01*
X158644259Y-58594364D01*
X158699062Y-58462058D01*
X158727000Y-58321603D01*
X158727000Y-58178397D01*
X163273000Y-58178397D01*
X163273000Y-58321603D01*
X163300938Y-58462058D01*
X163355741Y-58594364D01*
X163435302Y-58713436D01*
X163536564Y-58814698D01*
X163655636Y-58894259D01*
X163787942Y-58949062D01*
X163928397Y-58977000D01*
X164071603Y-58977000D01*
X164212058Y-58949062D01*
X164344364Y-58894259D01*
X164463436Y-58814698D01*
X164564698Y-58713436D01*
X164644259Y-58594364D01*
X164699062Y-58462058D01*
X164727000Y-58321603D01*
X164727000Y-58178397D01*
X169273000Y-58178397D01*
X169273000Y-58321603D01*
X169300938Y-58462058D01*
X169355741Y-58594364D01*
X169435302Y-58713436D01*
X169536564Y-58814698D01*
X169655636Y-58894259D01*
X169787942Y-58949062D01*
X169928397Y-58977000D01*
X170071603Y-58977000D01*
X170212058Y-58949062D01*
X170344364Y-58894259D01*
X170463436Y-58814698D01*
X170564698Y-58713436D01*
X170644259Y-58594364D01*
X170699062Y-58462058D01*
X170727000Y-58321603D01*
X170727000Y-58178397D01*
X175273000Y-58178397D01*
X175273000Y-58321603D01*
X175300938Y-58462058D01*
X175355741Y-58594364D01*
X175435302Y-58713436D01*
X175536564Y-58814698D01*
X175655636Y-58894259D01*
X175787942Y-58949062D01*
X175928397Y-58977000D01*
X176071603Y-58977000D01*
X176212058Y-58949062D01*
X176344364Y-58894259D01*
X176463436Y-58814698D01*
X176564698Y-58713436D01*
X176644259Y-58594364D01*
X176699062Y-58462058D01*
X176727000Y-58321603D01*
X176727000Y-58178397D01*
X181273000Y-58178397D01*
X181273000Y-58321603D01*
X181300938Y-58462058D01*
X181355741Y-58594364D01*
X181435302Y-58713436D01*
X181536564Y-58814698D01*
X181655636Y-58894259D01*
X181787942Y-58949062D01*
X181928397Y-58977000D01*
X182071603Y-58977000D01*
X182212058Y-58949062D01*
X182344364Y-58894259D01*
X182463436Y-58814698D01*
X182564698Y-58713436D01*
X182644259Y-58594364D01*
X182699062Y-58462058D01*
X182727000Y-58321603D01*
X182727000Y-58178397D01*
X187273000Y-58178397D01*
X187273000Y-58321603D01*
X187300938Y-58462058D01*
X187355741Y-58594364D01*
X187435302Y-58713436D01*
X187536564Y-58814698D01*
X187655636Y-58894259D01*
X187787942Y-58949062D01*
X187928397Y-58977000D01*
X188071603Y-58977000D01*
X188212058Y-58949062D01*
X188344364Y-58894259D01*
X188463436Y-58814698D01*
X188564698Y-58713436D01*
X188644259Y-58594364D01*
X188699062Y-58462058D01*
X188727000Y-58321603D01*
X188727000Y-58178397D01*
X193273000Y-58178397D01*
X193273000Y-58321603D01*
X193300938Y-58462058D01*
X193355741Y-58594364D01*
X193435302Y-58713436D01*
X193536564Y-58814698D01*
X193655636Y-58894259D01*
X193787942Y-58949062D01*
X193928397Y-58977000D01*
X194071603Y-58977000D01*
X194212058Y-58949062D01*
X194344364Y-58894259D01*
X194463436Y-58814698D01*
X194564698Y-58713436D01*
X194644259Y-58594364D01*
X194699062Y-58462058D01*
X194727000Y-58321603D01*
X194727000Y-58178397D01*
X199273000Y-58178397D01*
X199273000Y-58321603D01*
X199300938Y-58462058D01*
X199355741Y-58594364D01*
X199435302Y-58713436D01*
X199536564Y-58814698D01*
X199655636Y-58894259D01*
X199787942Y-58949062D01*
X199928397Y-58977000D01*
X200071603Y-58977000D01*
X200212058Y-58949062D01*
X200344364Y-58894259D01*
X200463436Y-58814698D01*
X200564698Y-58713436D01*
X200644259Y-58594364D01*
X200699062Y-58462058D01*
X200727000Y-58321603D01*
X200727000Y-58178397D01*
X205273000Y-58178397D01*
X205273000Y-58321603D01*
X205300938Y-58462058D01*
X205355741Y-58594364D01*
X205435302Y-58713436D01*
X205536564Y-58814698D01*
X205655636Y-58894259D01*
X205787942Y-58949062D01*
X205928397Y-58977000D01*
X206071603Y-58977000D01*
X206212058Y-58949062D01*
X206344364Y-58894259D01*
X206463436Y-58814698D01*
X206564698Y-58713436D01*
X206644259Y-58594364D01*
X206699062Y-58462058D01*
X206727000Y-58321603D01*
X206727000Y-58178397D01*
X211273000Y-58178397D01*
X211273000Y-58321603D01*
X211300938Y-58462058D01*
X211355741Y-58594364D01*
X211435302Y-58713436D01*
X211536564Y-58814698D01*
X211655636Y-58894259D01*
X211787942Y-58949062D01*
X211928397Y-58977000D01*
X212071603Y-58977000D01*
X212212058Y-58949062D01*
X212344364Y-58894259D01*
X212463436Y-58814698D01*
X212564698Y-58713436D01*
X212644259Y-58594364D01*
X212699062Y-58462058D01*
X212727000Y-58321603D01*
X212727000Y-58178397D01*
X217273000Y-58178397D01*
X217273000Y-58321603D01*
X217300938Y-58462058D01*
X217355741Y-58594364D01*
X217435302Y-58713436D01*
X217536564Y-58814698D01*
X217655636Y-58894259D01*
X217787942Y-58949062D01*
X217928397Y-58977000D01*
X218071603Y-58977000D01*
X218212058Y-58949062D01*
X218344364Y-58894259D01*
X218463436Y-58814698D01*
X218564698Y-58713436D01*
X218644259Y-58594364D01*
X218699062Y-58462058D01*
X218727000Y-58321603D01*
X218727000Y-58178397D01*
X223273000Y-58178397D01*
X223273000Y-58321603D01*
X223300938Y-58462058D01*
X223355741Y-58594364D01*
X223435302Y-58713436D01*
X223536564Y-58814698D01*
X223655636Y-58894259D01*
X223787942Y-58949062D01*
X223928397Y-58977000D01*
X224071603Y-58977000D01*
X224212058Y-58949062D01*
X224344364Y-58894259D01*
X224463436Y-58814698D01*
X224564698Y-58713436D01*
X224644259Y-58594364D01*
X224699062Y-58462058D01*
X224727000Y-58321603D01*
X224727000Y-58178397D01*
X229273000Y-58178397D01*
X229273000Y-58321603D01*
X229300938Y-58462058D01*
X229355741Y-58594364D01*
X229435302Y-58713436D01*
X229536564Y-58814698D01*
X229655636Y-58894259D01*
X229787942Y-58949062D01*
X229928397Y-58977000D01*
X230071603Y-58977000D01*
X230212058Y-58949062D01*
X230344364Y-58894259D01*
X230463436Y-58814698D01*
X230564698Y-58713436D01*
X230644259Y-58594364D01*
X230699062Y-58462058D01*
X230727000Y-58321603D01*
X230727000Y-58178397D01*
X230699062Y-58037942D01*
X230644259Y-57905636D01*
X230564698Y-57786564D01*
X230463436Y-57685302D01*
X230344364Y-57605741D01*
X230212058Y-57550938D01*
X230071603Y-57523000D01*
X229928397Y-57523000D01*
X229787942Y-57550938D01*
X229655636Y-57605741D01*
X229536564Y-57685302D01*
X229435302Y-57786564D01*
X229355741Y-57905636D01*
X229300938Y-58037942D01*
X229273000Y-58178397D01*
X224727000Y-58178397D01*
X224699062Y-58037942D01*
X224644259Y-57905636D01*
X224564698Y-57786564D01*
X224463436Y-57685302D01*
X224344364Y-57605741D01*
X224212058Y-57550938D01*
X224071603Y-57523000D01*
X223928397Y-57523000D01*
X223787942Y-57550938D01*
X223655636Y-57605741D01*
X223536564Y-57685302D01*
X223435302Y-57786564D01*
X223355741Y-57905636D01*
X223300938Y-58037942D01*
X223273000Y-58178397D01*
X218727000Y-58178397D01*
X218699062Y-58037942D01*
X218644259Y-57905636D01*
X218564698Y-57786564D01*
X218463436Y-57685302D01*
X218344364Y-57605741D01*
X218212058Y-57550938D01*
X218071603Y-57523000D01*
X217928397Y-57523000D01*
X217787942Y-57550938D01*
X217655636Y-57605741D01*
X217536564Y-57685302D01*
X217435302Y-57786564D01*
X217355741Y-57905636D01*
X217300938Y-58037942D01*
X217273000Y-58178397D01*
X212727000Y-58178397D01*
X212699062Y-58037942D01*
X212644259Y-57905636D01*
X212564698Y-57786564D01*
X212463436Y-57685302D01*
X212344364Y-57605741D01*
X212212058Y-57550938D01*
X212071603Y-57523000D01*
X211928397Y-57523000D01*
X211787942Y-57550938D01*
X211655636Y-57605741D01*
X211536564Y-57685302D01*
X211435302Y-57786564D01*
X211355741Y-57905636D01*
X211300938Y-58037942D01*
X211273000Y-58178397D01*
X206727000Y-58178397D01*
X206699062Y-58037942D01*
X206644259Y-57905636D01*
X206564698Y-57786564D01*
X206463436Y-57685302D01*
X206344364Y-57605741D01*
X206212058Y-57550938D01*
X206071603Y-57523000D01*
X205928397Y-57523000D01*
X205787942Y-57550938D01*
X205655636Y-57605741D01*
X205536564Y-57685302D01*
X205435302Y-57786564D01*
X205355741Y-57905636D01*
X205300938Y-58037942D01*
X205273000Y-58178397D01*
X200727000Y-58178397D01*
X200699062Y-58037942D01*
X200644259Y-57905636D01*
X200564698Y-57786564D01*
X200463436Y-57685302D01*
X200344364Y-57605741D01*
X200212058Y-57550938D01*
X200071603Y-57523000D01*
X199928397Y-57523000D01*
X199787942Y-57550938D01*
X199655636Y-57605741D01*
X199536564Y-57685302D01*
X199435302Y-57786564D01*
X199355741Y-57905636D01*
X199300938Y-58037942D01*
X199273000Y-58178397D01*
X194727000Y-58178397D01*
X194699062Y-58037942D01*
X194644259Y-57905636D01*
X194564698Y-57786564D01*
X194463436Y-57685302D01*
X194344364Y-57605741D01*
X194212058Y-57550938D01*
X194071603Y-57523000D01*
X193928397Y-57523000D01*
X193787942Y-57550938D01*
X193655636Y-57605741D01*
X193536564Y-57685302D01*
X193435302Y-57786564D01*
X193355741Y-57905636D01*
X193300938Y-58037942D01*
X193273000Y-58178397D01*
X188727000Y-58178397D01*
X188699062Y-58037942D01*
X188644259Y-57905636D01*
X188564698Y-57786564D01*
X188463436Y-57685302D01*
X188344364Y-57605741D01*
X188212058Y-57550938D01*
X188071603Y-57523000D01*
X187928397Y-57523000D01*
X187787942Y-57550938D01*
X187655636Y-57605741D01*
X187536564Y-57685302D01*
X187435302Y-57786564D01*
X187355741Y-57905636D01*
X187300938Y-58037942D01*
X187273000Y-58178397D01*
X182727000Y-58178397D01*
X182699062Y-58037942D01*
X182644259Y-57905636D01*
X182564698Y-57786564D01*
X182463436Y-57685302D01*
X182344364Y-57605741D01*
X182212058Y-57550938D01*
X182071603Y-57523000D01*
X181928397Y-57523000D01*
X181787942Y-57550938D01*
X181655636Y-57605741D01*
X181536564Y-57685302D01*
X181435302Y-57786564D01*
X181355741Y-57905636D01*
X181300938Y-58037942D01*
X181273000Y-58178397D01*
X176727000Y-58178397D01*
X176699062Y-58037942D01*
X176644259Y-57905636D01*
X176564698Y-57786564D01*
X176463436Y-57685302D01*
X176344364Y-57605741D01*
X176212058Y-57550938D01*
X176071603Y-57523000D01*
X175928397Y-57523000D01*
X175787942Y-57550938D01*
X175655636Y-57605741D01*
X175536564Y-57685302D01*
X175435302Y-57786564D01*
X175355741Y-57905636D01*
X175300938Y-58037942D01*
X175273000Y-58178397D01*
X170727000Y-58178397D01*
X170699062Y-58037942D01*
X170644259Y-57905636D01*
X170564698Y-57786564D01*
X170463436Y-57685302D01*
X170344364Y-57605741D01*
X170212058Y-57550938D01*
X170071603Y-57523000D01*
X169928397Y-57523000D01*
X169787942Y-57550938D01*
X169655636Y-57605741D01*
X169536564Y-57685302D01*
X169435302Y-57786564D01*
X169355741Y-57905636D01*
X169300938Y-58037942D01*
X169273000Y-58178397D01*
X164727000Y-58178397D01*
X164699062Y-58037942D01*
X164644259Y-57905636D01*
X164564698Y-57786564D01*
X164463436Y-57685302D01*
X164344364Y-57605741D01*
X164212058Y-57550938D01*
X164071603Y-57523000D01*
X163928397Y-57523000D01*
X163787942Y-57550938D01*
X163655636Y-57605741D01*
X163536564Y-57685302D01*
X163435302Y-57786564D01*
X163355741Y-57905636D01*
X163300938Y-58037942D01*
X163273000Y-58178397D01*
X158727000Y-58178397D01*
X158699062Y-58037942D01*
X158644259Y-57905636D01*
X158564698Y-57786564D01*
X158463436Y-57685302D01*
X158344364Y-57605741D01*
X158212058Y-57550938D01*
X158071603Y-57523000D01*
X157928397Y-57523000D01*
X157787942Y-57550938D01*
X157655636Y-57605741D01*
X157536564Y-57685302D01*
X157435302Y-57786564D01*
X157355741Y-57905636D01*
X157300938Y-58037942D01*
X157273000Y-58178397D01*
X152727000Y-58178397D01*
X152699062Y-58037942D01*
X152644259Y-57905636D01*
X152564698Y-57786564D01*
X152463436Y-57685302D01*
X152344364Y-57605741D01*
X152212058Y-57550938D01*
X152071603Y-57523000D01*
X151928397Y-57523000D01*
X151787942Y-57550938D01*
X151655636Y-57605741D01*
X151536564Y-57685302D01*
X151435302Y-57786564D01*
X151355741Y-57905636D01*
X151300938Y-58037942D01*
X151273000Y-58178397D01*
X146727000Y-58178397D01*
X146699062Y-58037942D01*
X146644259Y-57905636D01*
X146564698Y-57786564D01*
X146463436Y-57685302D01*
X146344364Y-57605741D01*
X146212058Y-57550938D01*
X146071603Y-57523000D01*
X145928397Y-57523000D01*
X145787942Y-57550938D01*
X145655636Y-57605741D01*
X145536564Y-57685302D01*
X145435302Y-57786564D01*
X145355741Y-57905636D01*
X145300938Y-58037942D01*
X145273000Y-58178397D01*
X140727000Y-58178397D01*
X140699062Y-58037942D01*
X140644259Y-57905636D01*
X140564698Y-57786564D01*
X140463436Y-57685302D01*
X140344364Y-57605741D01*
X140212058Y-57550938D01*
X140071603Y-57523000D01*
X139928397Y-57523000D01*
X139787942Y-57550938D01*
X139655636Y-57605741D01*
X139536564Y-57685302D01*
X139435302Y-57786564D01*
X139355741Y-57905636D01*
X139300938Y-58037942D01*
X139273000Y-58178397D01*
X134726994Y-58178397D01*
X134699056Y-58037942D01*
X134644253Y-57905636D01*
X134564692Y-57786564D01*
X134463430Y-57685302D01*
X134344358Y-57605741D01*
X134212052Y-57550938D01*
X134071597Y-57523000D01*
X133928391Y-57523000D01*
X133787936Y-57550938D01*
X133655630Y-57605741D01*
X133536558Y-57685302D01*
X133435296Y-57786564D01*
X133355735Y-57905636D01*
X133300932Y-58037942D01*
X133272994Y-58178397D01*
X130377000Y-58178397D01*
X130377000Y-57127000D01*
X233623000Y-57127000D01*
X233623001Y-91623000D01*
G37*
X233623001Y-91623000D02*
X169984488Y-91623000D01*
X170177519Y-91543044D01*
X170370294Y-91414236D01*
X170534236Y-91250294D01*
X170663044Y-91057519D01*
X170751769Y-90843318D01*
X170797000Y-90615924D01*
X170797000Y-90384076D01*
X170785925Y-90328397D01*
X178573000Y-90328397D01*
X178573000Y-90471603D01*
X178600938Y-90612058D01*
X178655741Y-90744364D01*
X178735302Y-90863436D01*
X178836564Y-90964698D01*
X178955636Y-91044259D01*
X179087942Y-91099062D01*
X179228397Y-91127000D01*
X179371603Y-91127000D01*
X179512058Y-91099062D01*
X179644364Y-91044259D01*
X179763436Y-90964698D01*
X179864698Y-90863436D01*
X179944259Y-90744364D01*
X179999062Y-90612058D01*
X180027000Y-90471603D01*
X180027000Y-90328397D01*
X179999062Y-90187942D01*
X179944259Y-90055636D01*
X179864698Y-89936564D01*
X179763436Y-89835302D01*
X179644364Y-89755741D01*
X179512058Y-89700938D01*
X179371603Y-89673000D01*
X179228397Y-89673000D01*
X179087942Y-89700938D01*
X178955636Y-89755741D01*
X178836564Y-89835302D01*
X178735302Y-89936564D01*
X178655741Y-90055636D01*
X178600938Y-90187942D01*
X178573000Y-90328397D01*
X170785925Y-90328397D01*
X170751769Y-90156682D01*
X170663044Y-89942481D01*
X170534236Y-89749706D01*
X170370294Y-89585764D01*
X170177519Y-89456956D01*
X169963318Y-89368231D01*
X169735924Y-89323000D01*
X169504076Y-89323000D01*
X169276682Y-89368231D01*
X169062481Y-89456956D01*
X168869706Y-89585764D01*
X168705764Y-89749706D01*
X168576956Y-89942481D01*
X168488231Y-90156682D01*
X168443000Y-90384076D01*
X168443000Y-90615924D01*
X168488231Y-90843318D01*
X168576956Y-91057519D01*
X168705764Y-91250294D01*
X168869706Y-91414236D01*
X169062481Y-91543044D01*
X169255512Y-91623000D01*
X164904488Y-91623000D01*
X165097519Y-91543044D01*
X165290294Y-91414236D01*
X165454236Y-91250294D01*
X165583044Y-91057519D01*
X165671769Y-90843318D01*
X165717000Y-90615924D01*
X165717000Y-90384076D01*
X165671769Y-90156682D01*
X165583044Y-89942481D01*
X165454236Y-89749706D01*
X165290294Y-89585764D01*
X165097519Y-89456956D01*
X164883318Y-89368231D01*
X164655924Y-89323000D01*
X164424076Y-89323000D01*
X164196682Y-89368231D01*
X163982481Y-89456956D01*
X163789706Y-89585764D01*
X163625764Y-89749706D01*
X163496956Y-89942481D01*
X163408231Y-90156682D01*
X163363000Y-90384076D01*
X163363000Y-90615924D01*
X163408231Y-90843318D01*
X163496956Y-91057519D01*
X163625764Y-91250294D01*
X163789706Y-91414236D01*
X163982481Y-91543044D01*
X164175512Y-91623000D01*
X163032801Y-91623000D01*
X163082343Y-91582343D01*
X163123206Y-91532550D01*
X163153570Y-91475743D01*
X163172268Y-91414103D01*
X163178582Y-91350000D01*
X163178582Y-89650000D01*
X163172268Y-89585897D01*
X163153570Y-89524257D01*
X163123206Y-89467450D01*
X163082343Y-89417657D01*
X163032550Y-89376794D01*
X162975743Y-89346430D01*
X162914103Y-89327732D01*
X162850000Y-89321418D01*
X161150000Y-89321418D01*
X161085897Y-89327732D01*
X161024257Y-89346430D01*
X160967450Y-89376794D01*
X160917657Y-89417657D01*
X160876794Y-89467450D01*
X160846430Y-89524257D01*
X160827732Y-89585897D01*
X160821418Y-89650000D01*
X160821418Y-91350000D01*
X160827732Y-91414103D01*
X160846430Y-91475743D01*
X160876794Y-91532550D01*
X160917657Y-91582343D01*
X160967199Y-91623000D01*
X130377000Y-91623000D01*
X130377000Y-89310207D01*
X130573000Y-89310207D01*
X130573000Y-89689793D01*
X130647053Y-90062085D01*
X130792315Y-90412777D01*
X131003201Y-90728391D01*
X131271609Y-90996799D01*
X131587223Y-91207685D01*
X131937915Y-91352947D01*
X132310207Y-91427000D01*
X132689793Y-91427000D01*
X133062085Y-91352947D01*
X133412777Y-91207685D01*
X133728391Y-90996799D01*
X133996799Y-90728391D01*
X134207685Y-90412777D01*
X134352947Y-90062085D01*
X134427000Y-89689793D01*
X134427000Y-89310207D01*
X134352947Y-88937915D01*
X134314328Y-88844679D01*
X155423000Y-88844679D01*
X155423000Y-89155321D01*
X155483604Y-89459994D01*
X155602481Y-89746989D01*
X155775064Y-90005279D01*
X155994721Y-90224936D01*
X156253011Y-90397519D01*
X156540006Y-90516396D01*
X156844679Y-90577000D01*
X157155321Y-90577000D01*
X157459994Y-90516396D01*
X157746989Y-90397519D01*
X158005279Y-90224936D01*
X158224936Y-90005279D01*
X158397519Y-89746989D01*
X158516396Y-89459994D01*
X158577000Y-89155321D01*
X158577000Y-88844679D01*
X158516396Y-88540006D01*
X158397519Y-88253011D01*
X158224936Y-87994721D01*
X158074291Y-87844076D01*
X160823000Y-87844076D01*
X160823000Y-88075924D01*
X160868231Y-88303318D01*
X160956956Y-88517519D01*
X161085764Y-88710294D01*
X161249706Y-88874236D01*
X161442481Y-89003044D01*
X161656682Y-89091769D01*
X161884076Y-89137000D01*
X162115924Y-89137000D01*
X162343318Y-89091769D01*
X162557519Y-89003044D01*
X162750294Y-88874236D01*
X162914236Y-88710294D01*
X163043044Y-88517519D01*
X163131769Y-88303318D01*
X163177000Y-88075924D01*
X163177000Y-87844076D01*
X163363000Y-87844076D01*
X163363000Y-88075924D01*
X163408231Y-88303318D01*
X163496956Y-88517519D01*
X163625764Y-88710294D01*
X163789706Y-88874236D01*
X163982481Y-89003044D01*
X164196682Y-89091769D01*
X164424076Y-89137000D01*
X164655924Y-89137000D01*
X164883318Y-89091769D01*
X165097519Y-89003044D01*
X165290294Y-88874236D01*
X165454236Y-88710294D01*
X165583044Y-88517519D01*
X165671769Y-88303318D01*
X165717000Y-88075924D01*
X165717000Y-87844076D01*
X165903000Y-87844076D01*
X165903000Y-88075924D01*
X165948231Y-88303318D01*
X166036956Y-88517519D01*
X166165764Y-88710294D01*
X166329706Y-88874236D01*
X166522481Y-89003044D01*
X166736682Y-89091769D01*
X166964076Y-89137000D01*
X167195924Y-89137000D01*
X167423318Y-89091769D01*
X167637519Y-89003044D01*
X167830294Y-88874236D01*
X167994236Y-88710294D01*
X168123044Y-88517519D01*
X168211769Y-88303318D01*
X168257000Y-88075924D01*
X168257000Y-87844076D01*
X168443000Y-87844076D01*
X168443000Y-88075924D01*
X168488231Y-88303318D01*
X168576956Y-88517519D01*
X168705764Y-88710294D01*
X168869706Y-88874236D01*
X169062481Y-89003044D01*
X169276682Y-89091769D01*
X169504076Y-89137000D01*
X169735924Y-89137000D01*
X169963318Y-89091769D01*
X170177519Y-89003044D01*
X170370294Y-88874236D01*
X170399851Y-88844679D01*
X205423000Y-88844679D01*
X205423000Y-89155321D01*
X205483604Y-89459994D01*
X205602481Y-89746989D01*
X205775064Y-90005279D01*
X205994721Y-90224936D01*
X206253011Y-90397519D01*
X206540006Y-90516396D01*
X206844679Y-90577000D01*
X207155321Y-90577000D01*
X207459994Y-90516396D01*
X207746989Y-90397519D01*
X208005279Y-90224936D01*
X208224936Y-90005279D01*
X208397519Y-89746989D01*
X208516396Y-89459994D01*
X208546190Y-89310207D01*
X229573000Y-89310207D01*
X229573000Y-89689793D01*
X229647053Y-90062085D01*
X229792315Y-90412777D01*
X230003201Y-90728391D01*
X230271609Y-90996799D01*
X230587223Y-91207685D01*
X230937915Y-91352947D01*
X231310207Y-91427000D01*
X231689793Y-91427000D01*
X232062085Y-91352947D01*
X232412777Y-91207685D01*
X232728391Y-90996799D01*
X232996799Y-90728391D01*
X233207685Y-90412777D01*
X233352947Y-90062085D01*
X233427000Y-89689793D01*
X233427000Y-89310207D01*
X233352947Y-88937915D01*
X233207685Y-88587223D01*
X232996799Y-88271609D01*
X232728391Y-88003201D01*
X232412777Y-87792315D01*
X232062085Y-87647053D01*
X231689793Y-87573000D01*
X231310207Y-87573000D01*
X230937915Y-87647053D01*
X230587223Y-87792315D01*
X230271609Y-88003201D01*
X230003201Y-88271609D01*
X229792315Y-88587223D01*
X229647053Y-88937915D01*
X229573000Y-89310207D01*
X208546190Y-89310207D01*
X208577000Y-89155321D01*
X208577000Y-88844679D01*
X208516396Y-88540006D01*
X208397519Y-88253011D01*
X208224936Y-87994721D01*
X208005279Y-87775064D01*
X207746989Y-87602481D01*
X207459994Y-87483604D01*
X207155321Y-87423000D01*
X206844679Y-87423000D01*
X206540006Y-87483604D01*
X206253011Y-87602481D01*
X205994721Y-87775064D01*
X205775064Y-87994721D01*
X205602481Y-88253011D01*
X205483604Y-88540006D01*
X205423000Y-88844679D01*
X170399851Y-88844679D01*
X170534236Y-88710294D01*
X170663044Y-88517519D01*
X170751769Y-88303318D01*
X170797000Y-88075924D01*
X170797000Y-87844076D01*
X170751769Y-87616682D01*
X170663044Y-87402481D01*
X170534236Y-87209706D01*
X170370294Y-87045764D01*
X170177519Y-86916956D01*
X169963318Y-86828231D01*
X169735924Y-86783000D01*
X169504076Y-86783000D01*
X169276682Y-86828231D01*
X169062481Y-86916956D01*
X168869706Y-87045764D01*
X168705764Y-87209706D01*
X168576956Y-87402481D01*
X168488231Y-87616682D01*
X168443000Y-87844076D01*
X168257000Y-87844076D01*
X168211769Y-87616682D01*
X168123044Y-87402481D01*
X167994236Y-87209706D01*
X167830294Y-87045764D01*
X167637519Y-86916956D01*
X167423318Y-86828231D01*
X167195924Y-86783000D01*
X166964076Y-86783000D01*
X166736682Y-86828231D01*
X166522481Y-86916956D01*
X166329706Y-87045764D01*
X166165764Y-87209706D01*
X166036956Y-87402481D01*
X165948231Y-87616682D01*
X165903000Y-87844076D01*
X165717000Y-87844076D01*
X165671769Y-87616682D01*
X165583044Y-87402481D01*
X165454236Y-87209706D01*
X165290294Y-87045764D01*
X165097519Y-86916956D01*
X164883318Y-86828231D01*
X164655924Y-86783000D01*
X164424076Y-86783000D01*
X164196682Y-86828231D01*
X163982481Y-86916956D01*
X163789706Y-87045764D01*
X163625764Y-87209706D01*
X163496956Y-87402481D01*
X163408231Y-87616682D01*
X163363000Y-87844076D01*
X163177000Y-87844076D01*
X163131769Y-87616682D01*
X163043044Y-87402481D01*
X162914236Y-87209706D01*
X162750294Y-87045764D01*
X162557519Y-86916956D01*
X162343318Y-86828231D01*
X162115924Y-86783000D01*
X161884076Y-86783000D01*
X161656682Y-86828231D01*
X161442481Y-86916956D01*
X161249706Y-87045764D01*
X161085764Y-87209706D01*
X160956956Y-87402481D01*
X160868231Y-87616682D01*
X160823000Y-87844076D01*
X158074291Y-87844076D01*
X158005279Y-87775064D01*
X157746989Y-87602481D01*
X157459994Y-87483604D01*
X157155321Y-87423000D01*
X156844679Y-87423000D01*
X156540006Y-87483604D01*
X156253011Y-87602481D01*
X155994721Y-87775064D01*
X155775064Y-87994721D01*
X155602481Y-88253011D01*
X155483604Y-88540006D01*
X155423000Y-88844679D01*
X134314328Y-88844679D01*
X134207685Y-88587223D01*
X133996799Y-88271609D01*
X133728391Y-88003201D01*
X133412777Y-87792315D01*
X133062085Y-87647053D01*
X132689793Y-87573000D01*
X132310207Y-87573000D01*
X131937915Y-87647053D01*
X131587223Y-87792315D01*
X131271609Y-88003201D01*
X131003201Y-88271609D01*
X130792315Y-88587223D01*
X130647053Y-88937915D01*
X130573000Y-89310207D01*
X130377000Y-89310207D01*
X130377000Y-80928397D01*
X133273000Y-80928397D01*
X133273000Y-81071603D01*
X133300938Y-81212058D01*
X133355741Y-81344364D01*
X133435302Y-81463436D01*
X133536564Y-81564698D01*
X133655636Y-81644259D01*
X133787942Y-81699062D01*
X133928397Y-81727000D01*
X134071603Y-81727000D01*
X134212058Y-81699062D01*
X134344364Y-81644259D01*
X134463436Y-81564698D01*
X134564698Y-81463436D01*
X134644259Y-81344364D01*
X134699062Y-81212058D01*
X134727000Y-81071603D01*
X134727000Y-80928397D01*
X139273000Y-80928397D01*
X139273000Y-81071603D01*
X139300938Y-81212058D01*
X139355741Y-81344364D01*
X139435302Y-81463436D01*
X139536564Y-81564698D01*
X139655636Y-81644259D01*
X139787942Y-81699062D01*
X139928397Y-81727000D01*
X140071603Y-81727000D01*
X140212058Y-81699062D01*
X140344364Y-81644259D01*
X140463436Y-81564698D01*
X140564698Y-81463436D01*
X140644259Y-81344364D01*
X140699062Y-81212058D01*
X140727000Y-81071603D01*
X140727000Y-80928397D01*
X145273000Y-80928397D01*
X145273000Y-81071603D01*
X145300938Y-81212058D01*
X145355741Y-81344364D01*
X145435302Y-81463436D01*
X145536564Y-81564698D01*
X145655636Y-81644259D01*
X145787942Y-81699062D01*
X145928397Y-81727000D01*
X146071603Y-81727000D01*
X146212058Y-81699062D01*
X146344364Y-81644259D01*
X146463436Y-81564698D01*
X146564698Y-81463436D01*
X146644259Y-81344364D01*
X146699062Y-81212058D01*
X146727000Y-81071603D01*
X146727000Y-80928397D01*
X151273000Y-80928397D01*
X151273000Y-81071603D01*
X151300938Y-81212058D01*
X151355741Y-81344364D01*
X151435302Y-81463436D01*
X151536564Y-81564698D01*
X151655636Y-81644259D01*
X151787942Y-81699062D01*
X151928397Y-81727000D01*
X152071603Y-81727000D01*
X152212058Y-81699062D01*
X152344364Y-81644259D01*
X152463436Y-81564698D01*
X152564698Y-81463436D01*
X152644259Y-81344364D01*
X152699062Y-81212058D01*
X152727000Y-81071603D01*
X152727000Y-80928397D01*
X157273000Y-80928397D01*
X157273000Y-81071603D01*
X157300938Y-81212058D01*
X157355741Y-81344364D01*
X157435302Y-81463436D01*
X157536564Y-81564698D01*
X157655636Y-81644259D01*
X157787942Y-81699062D01*
X157928397Y-81727000D01*
X158071603Y-81727000D01*
X158212058Y-81699062D01*
X158344364Y-81644259D01*
X158463436Y-81564698D01*
X158564698Y-81463436D01*
X158644259Y-81344364D01*
X158699062Y-81212058D01*
X158727000Y-81071603D01*
X158727000Y-80928397D01*
X163273000Y-80928397D01*
X163273000Y-81071603D01*
X163300938Y-81212058D01*
X163355741Y-81344364D01*
X163435302Y-81463436D01*
X163536564Y-81564698D01*
X163655636Y-81644259D01*
X163787942Y-81699062D01*
X163928397Y-81727000D01*
X164071603Y-81727000D01*
X164212058Y-81699062D01*
X164344364Y-81644259D01*
X164463436Y-81564698D01*
X164564698Y-81463436D01*
X164644259Y-81344364D01*
X164699062Y-81212058D01*
X164727000Y-81071603D01*
X164727000Y-80928397D01*
X169273000Y-80928397D01*
X169273000Y-81071603D01*
X169300938Y-81212058D01*
X169355741Y-81344364D01*
X169435302Y-81463436D01*
X169536564Y-81564698D01*
X169655636Y-81644259D01*
X169787942Y-81699062D01*
X169928397Y-81727000D01*
X170071603Y-81727000D01*
X170212058Y-81699062D01*
X170344364Y-81644259D01*
X170463436Y-81564698D01*
X170564698Y-81463436D01*
X170644259Y-81344364D01*
X170699062Y-81212058D01*
X170727000Y-81071603D01*
X170727000Y-80928397D01*
X175273000Y-80928397D01*
X175273000Y-81071603D01*
X175300938Y-81212058D01*
X175355741Y-81344364D01*
X175435302Y-81463436D01*
X175536564Y-81564698D01*
X175655636Y-81644259D01*
X175787942Y-81699062D01*
X175928397Y-81727000D01*
X176071603Y-81727000D01*
X176212058Y-81699062D01*
X176344364Y-81644259D01*
X176463436Y-81564698D01*
X176564698Y-81463436D01*
X176644259Y-81344364D01*
X176699062Y-81212058D01*
X176727000Y-81071603D01*
X176727000Y-80928397D01*
X181273000Y-80928397D01*
X181273000Y-81071603D01*
X181300938Y-81212058D01*
X181355741Y-81344364D01*
X181435302Y-81463436D01*
X181536564Y-81564698D01*
X181655636Y-81644259D01*
X181787942Y-81699062D01*
X181928397Y-81727000D01*
X182071603Y-81727000D01*
X182212058Y-81699062D01*
X182344364Y-81644259D01*
X182463436Y-81564698D01*
X182564698Y-81463436D01*
X182644259Y-81344364D01*
X182699062Y-81212058D01*
X182727000Y-81071603D01*
X182727000Y-80928397D01*
X187273000Y-80928397D01*
X187273000Y-81071603D01*
X187300938Y-81212058D01*
X187355741Y-81344364D01*
X187435302Y-81463436D01*
X187536564Y-81564698D01*
X187655636Y-81644259D01*
X187787942Y-81699062D01*
X187928397Y-81727000D01*
X188071603Y-81727000D01*
X188212058Y-81699062D01*
X188344364Y-81644259D01*
X188463436Y-81564698D01*
X188564698Y-81463436D01*
X188644259Y-81344364D01*
X188699062Y-81212058D01*
X188727000Y-81071603D01*
X188727000Y-80928397D01*
X193273000Y-80928397D01*
X193273000Y-81071603D01*
X193300938Y-81212058D01*
X193355741Y-81344364D01*
X193435302Y-81463436D01*
X193536564Y-81564698D01*
X193655636Y-81644259D01*
X193787942Y-81699062D01*
X193928397Y-81727000D01*
X194071603Y-81727000D01*
X194212058Y-81699062D01*
X194344364Y-81644259D01*
X194463436Y-81564698D01*
X194564698Y-81463436D01*
X194644259Y-81344364D01*
X194699062Y-81212058D01*
X194727000Y-81071603D01*
X194727000Y-80928397D01*
X199273000Y-80928397D01*
X199273000Y-81071603D01*
X199300938Y-81212058D01*
X199355741Y-81344364D01*
X199435302Y-81463436D01*
X199536564Y-81564698D01*
X199655636Y-81644259D01*
X199787942Y-81699062D01*
X199928397Y-81727000D01*
X200071603Y-81727000D01*
X200212058Y-81699062D01*
X200344364Y-81644259D01*
X200463436Y-81564698D01*
X200564698Y-81463436D01*
X200644259Y-81344364D01*
X200699062Y-81212058D01*
X200727000Y-81071603D01*
X200727000Y-80928397D01*
X205273000Y-80928397D01*
X205273000Y-81071603D01*
X205300938Y-81212058D01*
X205355741Y-81344364D01*
X205435302Y-81463436D01*
X205536564Y-81564698D01*
X205655636Y-81644259D01*
X205787942Y-81699062D01*
X205928397Y-81727000D01*
X206071603Y-81727000D01*
X206212058Y-81699062D01*
X206344364Y-81644259D01*
X206463436Y-81564698D01*
X206564698Y-81463436D01*
X206644259Y-81344364D01*
X206699062Y-81212058D01*
X206727000Y-81071603D01*
X206727000Y-80928397D01*
X211273000Y-80928397D01*
X211273000Y-81071603D01*
X211300938Y-81212058D01*
X211355741Y-81344364D01*
X211435302Y-81463436D01*
X211536564Y-81564698D01*
X211655636Y-81644259D01*
X211787942Y-81699062D01*
X211928397Y-81727000D01*
X212071603Y-81727000D01*
X212212058Y-81699062D01*
X212344364Y-81644259D01*
X212463436Y-81564698D01*
X212564698Y-81463436D01*
X212644259Y-81344364D01*
X212699062Y-81212058D01*
X212727000Y-81071603D01*
X212727000Y-80928397D01*
X217273000Y-80928397D01*
X217273000Y-81071603D01*
X217300938Y-81212058D01*
X217355741Y-81344364D01*
X217435302Y-81463436D01*
X217536564Y-81564698D01*
X217655636Y-81644259D01*
X217787942Y-81699062D01*
X217928397Y-81727000D01*
X218071603Y-81727000D01*
X218212058Y-81699062D01*
X218344364Y-81644259D01*
X218463436Y-81564698D01*
X218564698Y-81463436D01*
X218644259Y-81344364D01*
X218699062Y-81212058D01*
X218727000Y-81071603D01*
X218727000Y-80928397D01*
X223273000Y-80928397D01*
X223273000Y-81071603D01*
X223300938Y-81212058D01*
X223355741Y-81344364D01*
X223435302Y-81463436D01*
X223536564Y-81564698D01*
X223655636Y-81644259D01*
X223787942Y-81699062D01*
X223928397Y-81727000D01*
X224071603Y-81727000D01*
X224212058Y-81699062D01*
X224344364Y-81644259D01*
X224463436Y-81564698D01*
X224564698Y-81463436D01*
X224644259Y-81344364D01*
X224699062Y-81212058D01*
X224727000Y-81071603D01*
X224727000Y-80928397D01*
X229273000Y-80928397D01*
X229273000Y-81071603D01*
X229300938Y-81212058D01*
X229355741Y-81344364D01*
X229435302Y-81463436D01*
X229536564Y-81564698D01*
X229655636Y-81644259D01*
X229787942Y-81699062D01*
X229928397Y-81727000D01*
X230071603Y-81727000D01*
X230212058Y-81699062D01*
X230344364Y-81644259D01*
X230463436Y-81564698D01*
X230564698Y-81463436D01*
X230644259Y-81344364D01*
X230699062Y-81212058D01*
X230727000Y-81071603D01*
X230727000Y-80928397D01*
X230699062Y-80787942D01*
X230644259Y-80655636D01*
X230564698Y-80536564D01*
X230463436Y-80435302D01*
X230344364Y-80355741D01*
X230212058Y-80300938D01*
X230071603Y-80273000D01*
X229928397Y-80273000D01*
X229787942Y-80300938D01*
X229655636Y-80355741D01*
X229536564Y-80435302D01*
X229435302Y-80536564D01*
X229355741Y-80655636D01*
X229300938Y-80787942D01*
X229273000Y-80928397D01*
X224727000Y-80928397D01*
X224699062Y-80787942D01*
X224644259Y-80655636D01*
X224564698Y-80536564D01*
X224463436Y-80435302D01*
X224344364Y-80355741D01*
X224212058Y-80300938D01*
X224071603Y-80273000D01*
X223928397Y-80273000D01*
X223787942Y-80300938D01*
X223655636Y-80355741D01*
X223536564Y-80435302D01*
X223435302Y-80536564D01*
X223355741Y-80655636D01*
X223300938Y-80787942D01*
X223273000Y-80928397D01*
X218727000Y-80928397D01*
X218699062Y-80787942D01*
X218644259Y-80655636D01*
X218564698Y-80536564D01*
X218463436Y-80435302D01*
X218344364Y-80355741D01*
X218212058Y-80300938D01*
X218071603Y-80273000D01*
X217928397Y-80273000D01*
X217787942Y-80300938D01*
X217655636Y-80355741D01*
X217536564Y-80435302D01*
X217435302Y-80536564D01*
X217355741Y-80655636D01*
X217300938Y-80787942D01*
X217273000Y-80928397D01*
X212727000Y-80928397D01*
X212699062Y-80787942D01*
X212644259Y-80655636D01*
X212564698Y-80536564D01*
X212463436Y-80435302D01*
X212344364Y-80355741D01*
X212212058Y-80300938D01*
X212071603Y-80273000D01*
X211928397Y-80273000D01*
X211787942Y-80300938D01*
X211655636Y-80355741D01*
X211536564Y-80435302D01*
X211435302Y-80536564D01*
X211355741Y-80655636D01*
X211300938Y-80787942D01*
X211273000Y-80928397D01*
X206727000Y-80928397D01*
X206699062Y-80787942D01*
X206644259Y-80655636D01*
X206564698Y-80536564D01*
X206463436Y-80435302D01*
X206344364Y-80355741D01*
X206212058Y-80300938D01*
X206071603Y-80273000D01*
X205928397Y-80273000D01*
X205787942Y-80300938D01*
X205655636Y-80355741D01*
X205536564Y-80435302D01*
X205435302Y-80536564D01*
X205355741Y-80655636D01*
X205300938Y-80787942D01*
X205273000Y-80928397D01*
X200727000Y-80928397D01*
X200699062Y-80787942D01*
X200644259Y-80655636D01*
X200564698Y-80536564D01*
X200463436Y-80435302D01*
X200344364Y-80355741D01*
X200212058Y-80300938D01*
X200071603Y-80273000D01*
X199928397Y-80273000D01*
X199787942Y-80300938D01*
X199655636Y-80355741D01*
X199536564Y-80435302D01*
X199435302Y-80536564D01*
X199355741Y-80655636D01*
X199300938Y-80787942D01*
X199273000Y-80928397D01*
X194727000Y-80928397D01*
X194699062Y-80787942D01*
X194644259Y-80655636D01*
X194564698Y-80536564D01*
X194463436Y-80435302D01*
X194344364Y-80355741D01*
X194212058Y-80300938D01*
X194071603Y-80273000D01*
X193928397Y-80273000D01*
X193787942Y-80300938D01*
X193655636Y-80355741D01*
X193536564Y-80435302D01*
X193435302Y-80536564D01*
X193355741Y-80655636D01*
X193300938Y-80787942D01*
X193273000Y-80928397D01*
X188727000Y-80928397D01*
X188699062Y-80787942D01*
X188644259Y-80655636D01*
X188564698Y-80536564D01*
X188463436Y-80435302D01*
X188344364Y-80355741D01*
X188212058Y-80300938D01*
X188071603Y-80273000D01*
X187928397Y-80273000D01*
X187787942Y-80300938D01*
X187655636Y-80355741D01*
X187536564Y-80435302D01*
X187435302Y-80536564D01*
X187355741Y-80655636D01*
X187300938Y-80787942D01*
X187273000Y-80928397D01*
X182727000Y-80928397D01*
X182699062Y-80787942D01*
X182644259Y-80655636D01*
X182564698Y-80536564D01*
X182463436Y-80435302D01*
X182344364Y-80355741D01*
X182212058Y-80300938D01*
X182071603Y-80273000D01*
X181928397Y-80273000D01*
X181787942Y-80300938D01*
X181655636Y-80355741D01*
X181536564Y-80435302D01*
X181435302Y-80536564D01*
X181355741Y-80655636D01*
X181300938Y-80787942D01*
X181273000Y-80928397D01*
X176727000Y-80928397D01*
X176699062Y-80787942D01*
X176644259Y-80655636D01*
X176564698Y-80536564D01*
X176463436Y-80435302D01*
X176344364Y-80355741D01*
X176212058Y-80300938D01*
X176071603Y-80273000D01*
X175928397Y-80273000D01*
X175787942Y-80300938D01*
X175655636Y-80355741D01*
X175536564Y-80435302D01*
X175435302Y-80536564D01*
X175355741Y-80655636D01*
X175300938Y-80787942D01*
X175273000Y-80928397D01*
X170727000Y-80928397D01*
X170699062Y-80787942D01*
X170644259Y-80655636D01*
X170564698Y-80536564D01*
X170463436Y-80435302D01*
X170344364Y-80355741D01*
X170212058Y-80300938D01*
X170071603Y-80273000D01*
X169928397Y-80273000D01*
X169787942Y-80300938D01*
X169655636Y-80355741D01*
X169536564Y-80435302D01*
X169435302Y-80536564D01*
X169355741Y-80655636D01*
X169300938Y-80787942D01*
X169273000Y-80928397D01*
X164727000Y-80928397D01*
X164699062Y-80787942D01*
X164644259Y-80655636D01*
X164564698Y-80536564D01*
X164463436Y-80435302D01*
X164344364Y-80355741D01*
X164212058Y-80300938D01*
X164071603Y-80273000D01*
X163928397Y-80273000D01*
X163787942Y-80300938D01*
X163655636Y-80355741D01*
X163536564Y-80435302D01*
X163435302Y-80536564D01*
X163355741Y-80655636D01*
X163300938Y-80787942D01*
X163273000Y-80928397D01*
X158727000Y-80928397D01*
X158699062Y-80787942D01*
X158644259Y-80655636D01*
X158564698Y-80536564D01*
X158463436Y-80435302D01*
X158344364Y-80355741D01*
X158212058Y-80300938D01*
X158071603Y-80273000D01*
X157928397Y-80273000D01*
X157787942Y-80300938D01*
X157655636Y-80355741D01*
X157536564Y-80435302D01*
X157435302Y-80536564D01*
X157355741Y-80655636D01*
X157300938Y-80787942D01*
X157273000Y-80928397D01*
X152727000Y-80928397D01*
X152699062Y-80787942D01*
X152644259Y-80655636D01*
X152564698Y-80536564D01*
X152463436Y-80435302D01*
X152344364Y-80355741D01*
X152212058Y-80300938D01*
X152071603Y-80273000D01*
X151928397Y-80273000D01*
X151787942Y-80300938D01*
X151655636Y-80355741D01*
X151536564Y-80435302D01*
X151435302Y-80536564D01*
X151355741Y-80655636D01*
X151300938Y-80787942D01*
X151273000Y-80928397D01*
X146727000Y-80928397D01*
X146699062Y-80787942D01*
X146644259Y-80655636D01*
X146564698Y-80536564D01*
X146463436Y-80435302D01*
X146344364Y-80355741D01*
X146212058Y-80300938D01*
X146071603Y-80273000D01*
X145928397Y-80273000D01*
X145787942Y-80300938D01*
X145655636Y-80355741D01*
X145536564Y-80435302D01*
X145435302Y-80536564D01*
X145355741Y-80655636D01*
X145300938Y-80787942D01*
X145273000Y-80928397D01*
X140727000Y-80928397D01*
X140699062Y-80787942D01*
X140644259Y-80655636D01*
X140564698Y-80536564D01*
X140463436Y-80435302D01*
X140344364Y-80355741D01*
X140212058Y-80300938D01*
X140071603Y-80273000D01*
X139928397Y-80273000D01*
X139787942Y-80300938D01*
X139655636Y-80355741D01*
X139536564Y-80435302D01*
X139435302Y-80536564D01*
X139355741Y-80655636D01*
X139300938Y-80787942D01*
X139273000Y-80928397D01*
X134727000Y-80928397D01*
X134699062Y-80787942D01*
X134644259Y-80655636D01*
X134564698Y-80536564D01*
X134463436Y-80435302D01*
X134344364Y-80355741D01*
X134212058Y-80300938D01*
X134071603Y-80273000D01*
X133928397Y-80273000D01*
X133787942Y-80300938D01*
X133655636Y-80355741D01*
X133536564Y-80435302D01*
X133435302Y-80536564D01*
X133355741Y-80655636D01*
X133300938Y-80787942D01*
X133273000Y-80928397D01*
X130377000Y-80928397D01*
X130377000Y-75828397D01*
X141173000Y-75828397D01*
X141173000Y-75971603D01*
X141200938Y-76112058D01*
X141255741Y-76244364D01*
X141335302Y-76363436D01*
X141436564Y-76464698D01*
X141555636Y-76544259D01*
X141687942Y-76599062D01*
X141828397Y-76627000D01*
X141971603Y-76627000D01*
X142112058Y-76599062D01*
X142244364Y-76544259D01*
X142363436Y-76464698D01*
X142464698Y-76363436D01*
X142544259Y-76244364D01*
X142599062Y-76112058D01*
X142627000Y-75971603D01*
X142627000Y-75828397D01*
X153173000Y-75828397D01*
X153173000Y-75971603D01*
X153200938Y-76112058D01*
X153255741Y-76244364D01*
X153335302Y-76363436D01*
X153436564Y-76464698D01*
X153555636Y-76544259D01*
X153687942Y-76599062D01*
X153828397Y-76627000D01*
X153971603Y-76627000D01*
X154112058Y-76599062D01*
X154244364Y-76544259D01*
X154363436Y-76464698D01*
X154464698Y-76363436D01*
X154544259Y-76244364D01*
X154599062Y-76112058D01*
X154627000Y-75971603D01*
X154627000Y-75828397D01*
X165173000Y-75828397D01*
X165173000Y-75971603D01*
X165200938Y-76112058D01*
X165255741Y-76244364D01*
X165335302Y-76363436D01*
X165436564Y-76464698D01*
X165555636Y-76544259D01*
X165687942Y-76599062D01*
X165828397Y-76627000D01*
X165971603Y-76627000D01*
X166112058Y-76599062D01*
X166244364Y-76544259D01*
X166363436Y-76464698D01*
X166464698Y-76363436D01*
X166544259Y-76244364D01*
X166599062Y-76112058D01*
X166627000Y-75971603D01*
X166627000Y-75828397D01*
X177173000Y-75828397D01*
X177173000Y-75971603D01*
X177200938Y-76112058D01*
X177255741Y-76244364D01*
X177335302Y-76363436D01*
X177436564Y-76464698D01*
X177555636Y-76544259D01*
X177687942Y-76599062D01*
X177828397Y-76627000D01*
X177971603Y-76627000D01*
X178112058Y-76599062D01*
X178244364Y-76544259D01*
X178363436Y-76464698D01*
X178464698Y-76363436D01*
X178544259Y-76244364D01*
X178599062Y-76112058D01*
X178627000Y-75971603D01*
X178627000Y-75828397D01*
X189173000Y-75828397D01*
X189173000Y-75971603D01*
X189200938Y-76112058D01*
X189255741Y-76244364D01*
X189335302Y-76363436D01*
X189436564Y-76464698D01*
X189555636Y-76544259D01*
X189687942Y-76599062D01*
X189828397Y-76627000D01*
X189971603Y-76627000D01*
X190112058Y-76599062D01*
X190244364Y-76544259D01*
X190363436Y-76464698D01*
X190464698Y-76363436D01*
X190544259Y-76244364D01*
X190599062Y-76112058D01*
X190627000Y-75971603D01*
X190627000Y-75828397D01*
X201173000Y-75828397D01*
X201173000Y-75971603D01*
X201200938Y-76112058D01*
X201255741Y-76244364D01*
X201335302Y-76363436D01*
X201436564Y-76464698D01*
X201555636Y-76544259D01*
X201687942Y-76599062D01*
X201828397Y-76627000D01*
X201971603Y-76627000D01*
X202112058Y-76599062D01*
X202244364Y-76544259D01*
X202363436Y-76464698D01*
X202464698Y-76363436D01*
X202544259Y-76244364D01*
X202599062Y-76112058D01*
X202627000Y-75971603D01*
X202627000Y-75828397D01*
X213173000Y-75828397D01*
X213173000Y-75971603D01*
X213200938Y-76112058D01*
X213255741Y-76244364D01*
X213335302Y-76363436D01*
X213436564Y-76464698D01*
X213555636Y-76544259D01*
X213687942Y-76599062D01*
X213828397Y-76627000D01*
X213971603Y-76627000D01*
X214112058Y-76599062D01*
X214244364Y-76544259D01*
X214363436Y-76464698D01*
X214464698Y-76363436D01*
X214544259Y-76244364D01*
X214599062Y-76112058D01*
X214627000Y-75971603D01*
X214627000Y-75828397D01*
X225173000Y-75828397D01*
X225173000Y-75971603D01*
X225200938Y-76112058D01*
X225255741Y-76244364D01*
X225335302Y-76363436D01*
X225436564Y-76464698D01*
X225555636Y-76544259D01*
X225687942Y-76599062D01*
X225828397Y-76627000D01*
X225971603Y-76627000D01*
X226112058Y-76599062D01*
X226244364Y-76544259D01*
X226363436Y-76464698D01*
X226464698Y-76363436D01*
X226544259Y-76244364D01*
X226599062Y-76112058D01*
X226627000Y-75971603D01*
X226627000Y-75828397D01*
X226599062Y-75687942D01*
X226544259Y-75555636D01*
X226464698Y-75436564D01*
X226363436Y-75335302D01*
X226244364Y-75255741D01*
X226112058Y-75200938D01*
X225971603Y-75173000D01*
X225828397Y-75173000D01*
X225687942Y-75200938D01*
X225555636Y-75255741D01*
X225436564Y-75335302D01*
X225335302Y-75436564D01*
X225255741Y-75555636D01*
X225200938Y-75687942D01*
X225173000Y-75828397D01*
X214627000Y-75828397D01*
X214599062Y-75687942D01*
X214544259Y-75555636D01*
X214464698Y-75436564D01*
X214363436Y-75335302D01*
X214244364Y-75255741D01*
X214112058Y-75200938D01*
X213971603Y-75173000D01*
X213828397Y-75173000D01*
X213687942Y-75200938D01*
X213555636Y-75255741D01*
X213436564Y-75335302D01*
X213335302Y-75436564D01*
X213255741Y-75555636D01*
X213200938Y-75687942D01*
X213173000Y-75828397D01*
X202627000Y-75828397D01*
X202599062Y-75687942D01*
X202544259Y-75555636D01*
X202464698Y-75436564D01*
X202363436Y-75335302D01*
X202244364Y-75255741D01*
X202112058Y-75200938D01*
X201971603Y-75173000D01*
X201828397Y-75173000D01*
X201687942Y-75200938D01*
X201555636Y-75255741D01*
X201436564Y-75335302D01*
X201335302Y-75436564D01*
X201255741Y-75555636D01*
X201200938Y-75687942D01*
X201173000Y-75828397D01*
X190627000Y-75828397D01*
X190599062Y-75687942D01*
X190544259Y-75555636D01*
X190464698Y-75436564D01*
X190363436Y-75335302D01*
X190244364Y-75255741D01*
X190112058Y-75200938D01*
X189971603Y-75173000D01*
X189828397Y-75173000D01*
X189687942Y-75200938D01*
X189555636Y-75255741D01*
X189436564Y-75335302D01*
X189335302Y-75436564D01*
X189255741Y-75555636D01*
X189200938Y-75687942D01*
X189173000Y-75828397D01*
X178627000Y-75828397D01*
X178599062Y-75687942D01*
X178544259Y-75555636D01*
X178464698Y-75436564D01*
X178363436Y-75335302D01*
X178244364Y-75255741D01*
X178112058Y-75200938D01*
X177971603Y-75173000D01*
X177828397Y-75173000D01*
X177687942Y-75200938D01*
X177555636Y-75255741D01*
X177436564Y-75335302D01*
X177335302Y-75436564D01*
X177255741Y-75555636D01*
X177200938Y-75687942D01*
X177173000Y-75828397D01*
X166627000Y-75828397D01*
X166599062Y-75687942D01*
X166544259Y-75555636D01*
X166464698Y-75436564D01*
X166363436Y-75335302D01*
X166244364Y-75255741D01*
X166112058Y-75200938D01*
X165971603Y-75173000D01*
X165828397Y-75173000D01*
X165687942Y-75200938D01*
X165555636Y-75255741D01*
X165436564Y-75335302D01*
X165335302Y-75436564D01*
X165255741Y-75555636D01*
X165200938Y-75687942D01*
X165173000Y-75828397D01*
X154627000Y-75828397D01*
X154599062Y-75687942D01*
X154544259Y-75555636D01*
X154464698Y-75436564D01*
X154363436Y-75335302D01*
X154244364Y-75255741D01*
X154112058Y-75200938D01*
X153971603Y-75173000D01*
X153828397Y-75173000D01*
X153687942Y-75200938D01*
X153555636Y-75255741D01*
X153436564Y-75335302D01*
X153335302Y-75436564D01*
X153255741Y-75555636D01*
X153200938Y-75687942D01*
X153173000Y-75828397D01*
X142627000Y-75828397D01*
X142599062Y-75687942D01*
X142544259Y-75555636D01*
X142464698Y-75436564D01*
X142363436Y-75335302D01*
X142244364Y-75255741D01*
X142112058Y-75200938D01*
X141971603Y-75173000D01*
X141828397Y-75173000D01*
X141687942Y-75200938D01*
X141555636Y-75255741D01*
X141436564Y-75335302D01*
X141335302Y-75436564D01*
X141255741Y-75555636D01*
X141200938Y-75687942D01*
X141173000Y-75828397D01*
X130377000Y-75828397D01*
X130377000Y-68928397D01*
X133273000Y-68928397D01*
X133273000Y-69071603D01*
X133300938Y-69212058D01*
X133355741Y-69344364D01*
X133435302Y-69463436D01*
X133536564Y-69564698D01*
X133655636Y-69644259D01*
X133787942Y-69699062D01*
X133928397Y-69727000D01*
X134071603Y-69727000D01*
X134212058Y-69699062D01*
X134344364Y-69644259D01*
X134463436Y-69564698D01*
X134564698Y-69463436D01*
X134644259Y-69344364D01*
X134699062Y-69212058D01*
X134727000Y-69071603D01*
X134727000Y-68928397D01*
X139273000Y-68928397D01*
X139273000Y-69071603D01*
X139300938Y-69212058D01*
X139355741Y-69344364D01*
X139435302Y-69463436D01*
X139536564Y-69564698D01*
X139655636Y-69644259D01*
X139787942Y-69699062D01*
X139928397Y-69727000D01*
X140071603Y-69727000D01*
X140212058Y-69699062D01*
X140344364Y-69644259D01*
X140463436Y-69564698D01*
X140564698Y-69463436D01*
X140644259Y-69344364D01*
X140699062Y-69212058D01*
X140727000Y-69071603D01*
X140727000Y-68928397D01*
X145273000Y-68928397D01*
X145273000Y-69071603D01*
X145300938Y-69212058D01*
X145355741Y-69344364D01*
X145435302Y-69463436D01*
X145536564Y-69564698D01*
X145655636Y-69644259D01*
X145787942Y-69699062D01*
X145928397Y-69727000D01*
X146071603Y-69727000D01*
X146212058Y-69699062D01*
X146344364Y-69644259D01*
X146463436Y-69564698D01*
X146564698Y-69463436D01*
X146644259Y-69344364D01*
X146699062Y-69212058D01*
X146727000Y-69071603D01*
X146727000Y-68928397D01*
X151273000Y-68928397D01*
X151273000Y-69071603D01*
X151300938Y-69212058D01*
X151355741Y-69344364D01*
X151435302Y-69463436D01*
X151536564Y-69564698D01*
X151655636Y-69644259D01*
X151787942Y-69699062D01*
X151928397Y-69727000D01*
X152071603Y-69727000D01*
X152212058Y-69699062D01*
X152344364Y-69644259D01*
X152463436Y-69564698D01*
X152564698Y-69463436D01*
X152644259Y-69344364D01*
X152699062Y-69212058D01*
X152727000Y-69071603D01*
X152727000Y-68928397D01*
X157273000Y-68928397D01*
X157273000Y-69071603D01*
X157300938Y-69212058D01*
X157355741Y-69344364D01*
X157435302Y-69463436D01*
X157536564Y-69564698D01*
X157655636Y-69644259D01*
X157787942Y-69699062D01*
X157928397Y-69727000D01*
X158071603Y-69727000D01*
X158212058Y-69699062D01*
X158344364Y-69644259D01*
X158463436Y-69564698D01*
X158564698Y-69463436D01*
X158644259Y-69344364D01*
X158699062Y-69212058D01*
X158727000Y-69071603D01*
X158727000Y-68928397D01*
X163273000Y-68928397D01*
X163273000Y-69071603D01*
X163300938Y-69212058D01*
X163355741Y-69344364D01*
X163435302Y-69463436D01*
X163536564Y-69564698D01*
X163655636Y-69644259D01*
X163787942Y-69699062D01*
X163928397Y-69727000D01*
X164071603Y-69727000D01*
X164212058Y-69699062D01*
X164344364Y-69644259D01*
X164463436Y-69564698D01*
X164564698Y-69463436D01*
X164644259Y-69344364D01*
X164699062Y-69212058D01*
X164727000Y-69071603D01*
X164727000Y-68928397D01*
X169273000Y-68928397D01*
X169273000Y-69071603D01*
X169300938Y-69212058D01*
X169355741Y-69344364D01*
X169435302Y-69463436D01*
X169536564Y-69564698D01*
X169655636Y-69644259D01*
X169787942Y-69699062D01*
X169928397Y-69727000D01*
X170071603Y-69727000D01*
X170212058Y-69699062D01*
X170344364Y-69644259D01*
X170463436Y-69564698D01*
X170564698Y-69463436D01*
X170644259Y-69344364D01*
X170699062Y-69212058D01*
X170727000Y-69071603D01*
X170727000Y-68928397D01*
X175273000Y-68928397D01*
X175273000Y-69071603D01*
X175300938Y-69212058D01*
X175355741Y-69344364D01*
X175435302Y-69463436D01*
X175536564Y-69564698D01*
X175655636Y-69644259D01*
X175787942Y-69699062D01*
X175928397Y-69727000D01*
X176071603Y-69727000D01*
X176212058Y-69699062D01*
X176344364Y-69644259D01*
X176463436Y-69564698D01*
X176564698Y-69463436D01*
X176644259Y-69344364D01*
X176699062Y-69212058D01*
X176727000Y-69071603D01*
X176727000Y-68928397D01*
X181273000Y-68928397D01*
X181273000Y-69071603D01*
X181300938Y-69212058D01*
X181355741Y-69344364D01*
X181435302Y-69463436D01*
X181536564Y-69564698D01*
X181655636Y-69644259D01*
X181787942Y-69699062D01*
X181928397Y-69727000D01*
X182071603Y-69727000D01*
X182212058Y-69699062D01*
X182344364Y-69644259D01*
X182463436Y-69564698D01*
X182564698Y-69463436D01*
X182644259Y-69344364D01*
X182699062Y-69212058D01*
X182727000Y-69071603D01*
X182727000Y-68928397D01*
X187273000Y-68928397D01*
X187273000Y-69071603D01*
X187300938Y-69212058D01*
X187355741Y-69344364D01*
X187435302Y-69463436D01*
X187536564Y-69564698D01*
X187655636Y-69644259D01*
X187787942Y-69699062D01*
X187928397Y-69727000D01*
X188071603Y-69727000D01*
X188212058Y-69699062D01*
X188344364Y-69644259D01*
X188463436Y-69564698D01*
X188564698Y-69463436D01*
X188644259Y-69344364D01*
X188699062Y-69212058D01*
X188727000Y-69071603D01*
X188727000Y-68928397D01*
X193273000Y-68928397D01*
X193273000Y-69071603D01*
X193300938Y-69212058D01*
X193355741Y-69344364D01*
X193435302Y-69463436D01*
X193536564Y-69564698D01*
X193655636Y-69644259D01*
X193787942Y-69699062D01*
X193928397Y-69727000D01*
X194071603Y-69727000D01*
X194212058Y-69699062D01*
X194344364Y-69644259D01*
X194463436Y-69564698D01*
X194564698Y-69463436D01*
X194644259Y-69344364D01*
X194699062Y-69212058D01*
X194727000Y-69071603D01*
X194727000Y-68928397D01*
X199273000Y-68928397D01*
X199273000Y-69071603D01*
X199300938Y-69212058D01*
X199355741Y-69344364D01*
X199435302Y-69463436D01*
X199536564Y-69564698D01*
X199655636Y-69644259D01*
X199787942Y-69699062D01*
X199928397Y-69727000D01*
X200071603Y-69727000D01*
X200212058Y-69699062D01*
X200344364Y-69644259D01*
X200463436Y-69564698D01*
X200564698Y-69463436D01*
X200644259Y-69344364D01*
X200699062Y-69212058D01*
X200727000Y-69071603D01*
X200727000Y-68928397D01*
X205273000Y-68928397D01*
X205273000Y-69071603D01*
X205300938Y-69212058D01*
X205355741Y-69344364D01*
X205435302Y-69463436D01*
X205536564Y-69564698D01*
X205655636Y-69644259D01*
X205787942Y-69699062D01*
X205928397Y-69727000D01*
X206071603Y-69727000D01*
X206212058Y-69699062D01*
X206344364Y-69644259D01*
X206463436Y-69564698D01*
X206564698Y-69463436D01*
X206644259Y-69344364D01*
X206699062Y-69212058D01*
X206727000Y-69071603D01*
X206727000Y-68928397D01*
X211273000Y-68928397D01*
X211273000Y-69071603D01*
X211300938Y-69212058D01*
X211355741Y-69344364D01*
X211435302Y-69463436D01*
X211536564Y-69564698D01*
X211655636Y-69644259D01*
X211787942Y-69699062D01*
X211928397Y-69727000D01*
X212071603Y-69727000D01*
X212212058Y-69699062D01*
X212344364Y-69644259D01*
X212463436Y-69564698D01*
X212564698Y-69463436D01*
X212644259Y-69344364D01*
X212699062Y-69212058D01*
X212727000Y-69071603D01*
X212727000Y-68928397D01*
X217273000Y-68928397D01*
X217273000Y-69071603D01*
X217300938Y-69212058D01*
X217355741Y-69344364D01*
X217435302Y-69463436D01*
X217536564Y-69564698D01*
X217655636Y-69644259D01*
X217787942Y-69699062D01*
X217928397Y-69727000D01*
X218071603Y-69727000D01*
X218212058Y-69699062D01*
X218344364Y-69644259D01*
X218463436Y-69564698D01*
X218564698Y-69463436D01*
X218644259Y-69344364D01*
X218699062Y-69212058D01*
X218727000Y-69071603D01*
X218727000Y-68928397D01*
X223273000Y-68928397D01*
X223273000Y-69071603D01*
X223300938Y-69212058D01*
X223355741Y-69344364D01*
X223435302Y-69463436D01*
X223536564Y-69564698D01*
X223655636Y-69644259D01*
X223787942Y-69699062D01*
X223928397Y-69727000D01*
X224071603Y-69727000D01*
X224212058Y-69699062D01*
X224344364Y-69644259D01*
X224463436Y-69564698D01*
X224564698Y-69463436D01*
X224644259Y-69344364D01*
X224699062Y-69212058D01*
X224727000Y-69071603D01*
X224727000Y-68928397D01*
X229273000Y-68928397D01*
X229273000Y-69071603D01*
X229300938Y-69212058D01*
X229355741Y-69344364D01*
X229435302Y-69463436D01*
X229536564Y-69564698D01*
X229655636Y-69644259D01*
X229787942Y-69699062D01*
X229928397Y-69727000D01*
X230071603Y-69727000D01*
X230212058Y-69699062D01*
X230344364Y-69644259D01*
X230463436Y-69564698D01*
X230564698Y-69463436D01*
X230644259Y-69344364D01*
X230699062Y-69212058D01*
X230727000Y-69071603D01*
X230727000Y-68928397D01*
X230699062Y-68787942D01*
X230644259Y-68655636D01*
X230564698Y-68536564D01*
X230463436Y-68435302D01*
X230344364Y-68355741D01*
X230212058Y-68300938D01*
X230071603Y-68273000D01*
X229928397Y-68273000D01*
X229787942Y-68300938D01*
X229655636Y-68355741D01*
X229536564Y-68435302D01*
X229435302Y-68536564D01*
X229355741Y-68655636D01*
X229300938Y-68787942D01*
X229273000Y-68928397D01*
X224727000Y-68928397D01*
X224699062Y-68787942D01*
X224644259Y-68655636D01*
X224564698Y-68536564D01*
X224463436Y-68435302D01*
X224344364Y-68355741D01*
X224212058Y-68300938D01*
X224071603Y-68273000D01*
X223928397Y-68273000D01*
X223787942Y-68300938D01*
X223655636Y-68355741D01*
X223536564Y-68435302D01*
X223435302Y-68536564D01*
X223355741Y-68655636D01*
X223300938Y-68787942D01*
X223273000Y-68928397D01*
X218727000Y-68928397D01*
X218699062Y-68787942D01*
X218644259Y-68655636D01*
X218564698Y-68536564D01*
X218463436Y-68435302D01*
X218344364Y-68355741D01*
X218212058Y-68300938D01*
X218071603Y-68273000D01*
X217928397Y-68273000D01*
X217787942Y-68300938D01*
X217655636Y-68355741D01*
X217536564Y-68435302D01*
X217435302Y-68536564D01*
X217355741Y-68655636D01*
X217300938Y-68787942D01*
X217273000Y-68928397D01*
X212727000Y-68928397D01*
X212699062Y-68787942D01*
X212644259Y-68655636D01*
X212564698Y-68536564D01*
X212463436Y-68435302D01*
X212344364Y-68355741D01*
X212212058Y-68300938D01*
X212071603Y-68273000D01*
X211928397Y-68273000D01*
X211787942Y-68300938D01*
X211655636Y-68355741D01*
X211536564Y-68435302D01*
X211435302Y-68536564D01*
X211355741Y-68655636D01*
X211300938Y-68787942D01*
X211273000Y-68928397D01*
X206727000Y-68928397D01*
X206699062Y-68787942D01*
X206644259Y-68655636D01*
X206564698Y-68536564D01*
X206463436Y-68435302D01*
X206344364Y-68355741D01*
X206212058Y-68300938D01*
X206071603Y-68273000D01*
X205928397Y-68273000D01*
X205787942Y-68300938D01*
X205655636Y-68355741D01*
X205536564Y-68435302D01*
X205435302Y-68536564D01*
X205355741Y-68655636D01*
X205300938Y-68787942D01*
X205273000Y-68928397D01*
X200727000Y-68928397D01*
X200699062Y-68787942D01*
X200644259Y-68655636D01*
X200564698Y-68536564D01*
X200463436Y-68435302D01*
X200344364Y-68355741D01*
X200212058Y-68300938D01*
X200071603Y-68273000D01*
X199928397Y-68273000D01*
X199787942Y-68300938D01*
X199655636Y-68355741D01*
X199536564Y-68435302D01*
X199435302Y-68536564D01*
X199355741Y-68655636D01*
X199300938Y-68787942D01*
X199273000Y-68928397D01*
X194727000Y-68928397D01*
X194699062Y-68787942D01*
X194644259Y-68655636D01*
X194564698Y-68536564D01*
X194463436Y-68435302D01*
X194344364Y-68355741D01*
X194212058Y-68300938D01*
X194071603Y-68273000D01*
X193928397Y-68273000D01*
X193787942Y-68300938D01*
X193655636Y-68355741D01*
X193536564Y-68435302D01*
X193435302Y-68536564D01*
X193355741Y-68655636D01*
X193300938Y-68787942D01*
X193273000Y-68928397D01*
X188727000Y-68928397D01*
X188699062Y-68787942D01*
X188644259Y-68655636D01*
X188564698Y-68536564D01*
X188463436Y-68435302D01*
X188344364Y-68355741D01*
X188212058Y-68300938D01*
X188071603Y-68273000D01*
X187928397Y-68273000D01*
X187787942Y-68300938D01*
X187655636Y-68355741D01*
X187536564Y-68435302D01*
X187435302Y-68536564D01*
X187355741Y-68655636D01*
X187300938Y-68787942D01*
X187273000Y-68928397D01*
X182727000Y-68928397D01*
X182699062Y-68787942D01*
X182644259Y-68655636D01*
X182564698Y-68536564D01*
X182463436Y-68435302D01*
X182344364Y-68355741D01*
X182212058Y-68300938D01*
X182071603Y-68273000D01*
X181928397Y-68273000D01*
X181787942Y-68300938D01*
X181655636Y-68355741D01*
X181536564Y-68435302D01*
X181435302Y-68536564D01*
X181355741Y-68655636D01*
X181300938Y-68787942D01*
X181273000Y-68928397D01*
X176727000Y-68928397D01*
X176699062Y-68787942D01*
X176644259Y-68655636D01*
X176564698Y-68536564D01*
X176463436Y-68435302D01*
X176344364Y-68355741D01*
X176212058Y-68300938D01*
X176071603Y-68273000D01*
X175928397Y-68273000D01*
X175787942Y-68300938D01*
X175655636Y-68355741D01*
X175536564Y-68435302D01*
X175435302Y-68536564D01*
X175355741Y-68655636D01*
X175300938Y-68787942D01*
X175273000Y-68928397D01*
X170727000Y-68928397D01*
X170699062Y-68787942D01*
X170644259Y-68655636D01*
X170564698Y-68536564D01*
X170463436Y-68435302D01*
X170344364Y-68355741D01*
X170212058Y-68300938D01*
X170071603Y-68273000D01*
X169928397Y-68273000D01*
X169787942Y-68300938D01*
X169655636Y-68355741D01*
X169536564Y-68435302D01*
X169435302Y-68536564D01*
X169355741Y-68655636D01*
X169300938Y-68787942D01*
X169273000Y-68928397D01*
X164727000Y-68928397D01*
X164699062Y-68787942D01*
X164644259Y-68655636D01*
X164564698Y-68536564D01*
X164463436Y-68435302D01*
X164344364Y-68355741D01*
X164212058Y-68300938D01*
X164071603Y-68273000D01*
X163928397Y-68273000D01*
X163787942Y-68300938D01*
X163655636Y-68355741D01*
X163536564Y-68435302D01*
X163435302Y-68536564D01*
X163355741Y-68655636D01*
X163300938Y-68787942D01*
X163273000Y-68928397D01*
X158727000Y-68928397D01*
X158699062Y-68787942D01*
X158644259Y-68655636D01*
X158564698Y-68536564D01*
X158463436Y-68435302D01*
X158344364Y-68355741D01*
X158212058Y-68300938D01*
X158071603Y-68273000D01*
X157928397Y-68273000D01*
X157787942Y-68300938D01*
X157655636Y-68355741D01*
X157536564Y-68435302D01*
X157435302Y-68536564D01*
X157355741Y-68655636D01*
X157300938Y-68787942D01*
X157273000Y-68928397D01*
X152727000Y-68928397D01*
X152699062Y-68787942D01*
X152644259Y-68655636D01*
X152564698Y-68536564D01*
X152463436Y-68435302D01*
X152344364Y-68355741D01*
X152212058Y-68300938D01*
X152071603Y-68273000D01*
X151928397Y-68273000D01*
X151787942Y-68300938D01*
X151655636Y-68355741D01*
X151536564Y-68435302D01*
X151435302Y-68536564D01*
X151355741Y-68655636D01*
X151300938Y-68787942D01*
X151273000Y-68928397D01*
X146727000Y-68928397D01*
X146699062Y-68787942D01*
X146644259Y-68655636D01*
X146564698Y-68536564D01*
X146463436Y-68435302D01*
X146344364Y-68355741D01*
X146212058Y-68300938D01*
X146071603Y-68273000D01*
X145928397Y-68273000D01*
X145787942Y-68300938D01*
X145655636Y-68355741D01*
X145536564Y-68435302D01*
X145435302Y-68536564D01*
X145355741Y-68655636D01*
X145300938Y-68787942D01*
X145273000Y-68928397D01*
X140727000Y-68928397D01*
X140699062Y-68787942D01*
X140644259Y-68655636D01*
X140564698Y-68536564D01*
X140463436Y-68435302D01*
X140344364Y-68355741D01*
X140212058Y-68300938D01*
X140071603Y-68273000D01*
X139928397Y-68273000D01*
X139787942Y-68300938D01*
X139655636Y-68355741D01*
X139536564Y-68435302D01*
X139435302Y-68536564D01*
X139355741Y-68655636D01*
X139300938Y-68787942D01*
X139273000Y-68928397D01*
X134727000Y-68928397D01*
X134699062Y-68787942D01*
X134644259Y-68655636D01*
X134564698Y-68536564D01*
X134463436Y-68435302D01*
X134344364Y-68355741D01*
X134212058Y-68300938D01*
X134071603Y-68273000D01*
X133928397Y-68273000D01*
X133787942Y-68300938D01*
X133655636Y-68355741D01*
X133536564Y-68435302D01*
X133435302Y-68536564D01*
X133355741Y-68655636D01*
X133300938Y-68787942D01*
X133273000Y-68928397D01*
X130377000Y-68928397D01*
X130377000Y-63828397D01*
X141172988Y-63828397D01*
X141172988Y-63971603D01*
X141200926Y-64112058D01*
X141255729Y-64244364D01*
X141335290Y-64363436D01*
X141436552Y-64464698D01*
X141555624Y-64544259D01*
X141687930Y-64599062D01*
X141828385Y-64627000D01*
X141971591Y-64627000D01*
X142112046Y-64599062D01*
X142244352Y-64544259D01*
X142363424Y-64464698D01*
X142464686Y-64363436D01*
X142544247Y-64244364D01*
X142599050Y-64112058D01*
X142626988Y-63971603D01*
X142626988Y-63828397D01*
X153173000Y-63828397D01*
X153173000Y-63971603D01*
X153200938Y-64112058D01*
X153255741Y-64244364D01*
X153335302Y-64363436D01*
X153436564Y-64464698D01*
X153555636Y-64544259D01*
X153687942Y-64599062D01*
X153828397Y-64627000D01*
X153971603Y-64627000D01*
X154112058Y-64599062D01*
X154244364Y-64544259D01*
X154363436Y-64464698D01*
X154464698Y-64363436D01*
X154544259Y-64244364D01*
X154599062Y-64112058D01*
X154627000Y-63971603D01*
X154627000Y-63828397D01*
X165173000Y-63828397D01*
X165173000Y-63971603D01*
X165200938Y-64112058D01*
X165255741Y-64244364D01*
X165335302Y-64363436D01*
X165436564Y-64464698D01*
X165555636Y-64544259D01*
X165687942Y-64599062D01*
X165828397Y-64627000D01*
X165971603Y-64627000D01*
X166112058Y-64599062D01*
X166244364Y-64544259D01*
X166363436Y-64464698D01*
X166464698Y-64363436D01*
X166544259Y-64244364D01*
X166599062Y-64112058D01*
X166627000Y-63971603D01*
X166627000Y-63828397D01*
X177173000Y-63828397D01*
X177173000Y-63971603D01*
X177200938Y-64112058D01*
X177255741Y-64244364D01*
X177335302Y-64363436D01*
X177436564Y-64464698D01*
X177555636Y-64544259D01*
X177687942Y-64599062D01*
X177828397Y-64627000D01*
X177971603Y-64627000D01*
X178112058Y-64599062D01*
X178244364Y-64544259D01*
X178363436Y-64464698D01*
X178464698Y-64363436D01*
X178544259Y-64244364D01*
X178599062Y-64112058D01*
X178627000Y-63971603D01*
X178627000Y-63828397D01*
X189173000Y-63828397D01*
X189173000Y-63971603D01*
X189200938Y-64112058D01*
X189255741Y-64244364D01*
X189335302Y-64363436D01*
X189436564Y-64464698D01*
X189555636Y-64544259D01*
X189687942Y-64599062D01*
X189828397Y-64627000D01*
X189971603Y-64627000D01*
X190112058Y-64599062D01*
X190244364Y-64544259D01*
X190363436Y-64464698D01*
X190464698Y-64363436D01*
X190544259Y-64244364D01*
X190599062Y-64112058D01*
X190627000Y-63971603D01*
X190627000Y-63828397D01*
X201173000Y-63828397D01*
X201173000Y-63971603D01*
X201200938Y-64112058D01*
X201255741Y-64244364D01*
X201335302Y-64363436D01*
X201436564Y-64464698D01*
X201555636Y-64544259D01*
X201687942Y-64599062D01*
X201828397Y-64627000D01*
X201971603Y-64627000D01*
X202112058Y-64599062D01*
X202244364Y-64544259D01*
X202363436Y-64464698D01*
X202464698Y-64363436D01*
X202544259Y-64244364D01*
X202599062Y-64112058D01*
X202627000Y-63971603D01*
X202627000Y-63828397D01*
X213173000Y-63828397D01*
X213173000Y-63971603D01*
X213200938Y-64112058D01*
X213255741Y-64244364D01*
X213335302Y-64363436D01*
X213436564Y-64464698D01*
X213555636Y-64544259D01*
X213687942Y-64599062D01*
X213828397Y-64627000D01*
X213971603Y-64627000D01*
X214112058Y-64599062D01*
X214244364Y-64544259D01*
X214363436Y-64464698D01*
X214464698Y-64363436D01*
X214544259Y-64244364D01*
X214599062Y-64112058D01*
X214627000Y-63971603D01*
X214627000Y-63828397D01*
X225173000Y-63828397D01*
X225173000Y-63971603D01*
X225200938Y-64112058D01*
X225255741Y-64244364D01*
X225335302Y-64363436D01*
X225436564Y-64464698D01*
X225555636Y-64544259D01*
X225687942Y-64599062D01*
X225828397Y-64627000D01*
X225971603Y-64627000D01*
X226112058Y-64599062D01*
X226244364Y-64544259D01*
X226363436Y-64464698D01*
X226464698Y-64363436D01*
X226544259Y-64244364D01*
X226599062Y-64112058D01*
X226627000Y-63971603D01*
X226627000Y-63828397D01*
X226599062Y-63687942D01*
X226544259Y-63555636D01*
X226464698Y-63436564D01*
X226363436Y-63335302D01*
X226244364Y-63255741D01*
X226112058Y-63200938D01*
X225971603Y-63173000D01*
X225828397Y-63173000D01*
X225687942Y-63200938D01*
X225555636Y-63255741D01*
X225436564Y-63335302D01*
X225335302Y-63436564D01*
X225255741Y-63555636D01*
X225200938Y-63687942D01*
X225173000Y-63828397D01*
X214627000Y-63828397D01*
X214599062Y-63687942D01*
X214544259Y-63555636D01*
X214464698Y-63436564D01*
X214363436Y-63335302D01*
X214244364Y-63255741D01*
X214112058Y-63200938D01*
X213971603Y-63173000D01*
X213828397Y-63173000D01*
X213687942Y-63200938D01*
X213555636Y-63255741D01*
X213436564Y-63335302D01*
X213335302Y-63436564D01*
X213255741Y-63555636D01*
X213200938Y-63687942D01*
X213173000Y-63828397D01*
X202627000Y-63828397D01*
X202599062Y-63687942D01*
X202544259Y-63555636D01*
X202464698Y-63436564D01*
X202363436Y-63335302D01*
X202244364Y-63255741D01*
X202112058Y-63200938D01*
X201971603Y-63173000D01*
X201828397Y-63173000D01*
X201687942Y-63200938D01*
X201555636Y-63255741D01*
X201436564Y-63335302D01*
X201335302Y-63436564D01*
X201255741Y-63555636D01*
X201200938Y-63687942D01*
X201173000Y-63828397D01*
X190627000Y-63828397D01*
X190599062Y-63687942D01*
X190544259Y-63555636D01*
X190464698Y-63436564D01*
X190363436Y-63335302D01*
X190244364Y-63255741D01*
X190112058Y-63200938D01*
X189971603Y-63173000D01*
X189828397Y-63173000D01*
X189687942Y-63200938D01*
X189555636Y-63255741D01*
X189436564Y-63335302D01*
X189335302Y-63436564D01*
X189255741Y-63555636D01*
X189200938Y-63687942D01*
X189173000Y-63828397D01*
X178627000Y-63828397D01*
X178599062Y-63687942D01*
X178544259Y-63555636D01*
X178464698Y-63436564D01*
X178363436Y-63335302D01*
X178244364Y-63255741D01*
X178112058Y-63200938D01*
X177971603Y-63173000D01*
X177828397Y-63173000D01*
X177687942Y-63200938D01*
X177555636Y-63255741D01*
X177436564Y-63335302D01*
X177335302Y-63436564D01*
X177255741Y-63555636D01*
X177200938Y-63687942D01*
X177173000Y-63828397D01*
X166627000Y-63828397D01*
X166599062Y-63687942D01*
X166544259Y-63555636D01*
X166464698Y-63436564D01*
X166363436Y-63335302D01*
X166244364Y-63255741D01*
X166112058Y-63200938D01*
X165971603Y-63173000D01*
X165828397Y-63173000D01*
X165687942Y-63200938D01*
X165555636Y-63255741D01*
X165436564Y-63335302D01*
X165335302Y-63436564D01*
X165255741Y-63555636D01*
X165200938Y-63687942D01*
X165173000Y-63828397D01*
X154627000Y-63828397D01*
X154599062Y-63687942D01*
X154544259Y-63555636D01*
X154464698Y-63436564D01*
X154363436Y-63335302D01*
X154244364Y-63255741D01*
X154112058Y-63200938D01*
X153971603Y-63173000D01*
X153828397Y-63173000D01*
X153687942Y-63200938D01*
X153555636Y-63255741D01*
X153436564Y-63335302D01*
X153335302Y-63436564D01*
X153255741Y-63555636D01*
X153200938Y-63687942D01*
X153173000Y-63828397D01*
X142626988Y-63828397D01*
X142599050Y-63687942D01*
X142544247Y-63555636D01*
X142464686Y-63436564D01*
X142363424Y-63335302D01*
X142244352Y-63255741D01*
X142112046Y-63200938D01*
X141971591Y-63173000D01*
X141828385Y-63173000D01*
X141687930Y-63200938D01*
X141555624Y-63255741D01*
X141436552Y-63335302D01*
X141335290Y-63436564D01*
X141255729Y-63555636D01*
X141200926Y-63687942D01*
X141172988Y-63828397D01*
X130377000Y-63828397D01*
X130377000Y-58178397D01*
X133272994Y-58178397D01*
X133272994Y-58321603D01*
X133300932Y-58462058D01*
X133355735Y-58594364D01*
X133435296Y-58713436D01*
X133536558Y-58814698D01*
X133655630Y-58894259D01*
X133787936Y-58949062D01*
X133928391Y-58977000D01*
X134071597Y-58977000D01*
X134212052Y-58949062D01*
X134344358Y-58894259D01*
X134463430Y-58814698D01*
X134564692Y-58713436D01*
X134644253Y-58594364D01*
X134699056Y-58462058D01*
X134726994Y-58321603D01*
X134726994Y-58178397D01*
X139273000Y-58178397D01*
X139273000Y-58321603D01*
X139300938Y-58462058D01*
X139355741Y-58594364D01*
X139435302Y-58713436D01*
X139536564Y-58814698D01*
X139655636Y-58894259D01*
X139787942Y-58949062D01*
X139928397Y-58977000D01*
X140071603Y-58977000D01*
X140212058Y-58949062D01*
X140344364Y-58894259D01*
X140463436Y-58814698D01*
X140564698Y-58713436D01*
X140644259Y-58594364D01*
X140699062Y-58462058D01*
X140727000Y-58321603D01*
X140727000Y-58178397D01*
X145273000Y-58178397D01*
X145273000Y-58321603D01*
X145300938Y-58462058D01*
X145355741Y-58594364D01*
X145435302Y-58713436D01*
X145536564Y-58814698D01*
X145655636Y-58894259D01*
X145787942Y-58949062D01*
X145928397Y-58977000D01*
X146071603Y-58977000D01*
X146212058Y-58949062D01*
X146344364Y-58894259D01*
X146463436Y-58814698D01*
X146564698Y-58713436D01*
X146644259Y-58594364D01*
X146699062Y-58462058D01*
X146727000Y-58321603D01*
X146727000Y-58178397D01*
X151273000Y-58178397D01*
X151273000Y-58321603D01*
X151300938Y-58462058D01*
X151355741Y-58594364D01*
X151435302Y-58713436D01*
X151536564Y-58814698D01*
X151655636Y-58894259D01*
X151787942Y-58949062D01*
X151928397Y-58977000D01*
X152071603Y-58977000D01*
X152212058Y-58949062D01*
X152344364Y-58894259D01*
X152463436Y-58814698D01*
X152564698Y-58713436D01*
X152644259Y-58594364D01*
X152699062Y-58462058D01*
X152727000Y-58321603D01*
X152727000Y-58178397D01*
X157273000Y-58178397D01*
X157273000Y-58321603D01*
X157300938Y-58462058D01*
X157355741Y-58594364D01*
X157435302Y-58713436D01*
X157536564Y-58814698D01*
X157655636Y-58894259D01*
X157787942Y-58949062D01*
X157928397Y-58977000D01*
X158071603Y-58977000D01*
X158212058Y-58949062D01*
X158344364Y-58894259D01*
X158463436Y-58814698D01*
X158564698Y-58713436D01*
X158644259Y-58594364D01*
X158699062Y-58462058D01*
X158727000Y-58321603D01*
X158727000Y-58178397D01*
X163273000Y-58178397D01*
X163273000Y-58321603D01*
X163300938Y-58462058D01*
X163355741Y-58594364D01*
X163435302Y-58713436D01*
X163536564Y-58814698D01*
X163655636Y-58894259D01*
X163787942Y-58949062D01*
X163928397Y-58977000D01*
X164071603Y-58977000D01*
X164212058Y-58949062D01*
X164344364Y-58894259D01*
X164463436Y-58814698D01*
X164564698Y-58713436D01*
X164644259Y-58594364D01*
X164699062Y-58462058D01*
X164727000Y-58321603D01*
X164727000Y-58178397D01*
X169273000Y-58178397D01*
X169273000Y-58321603D01*
X169300938Y-58462058D01*
X169355741Y-58594364D01*
X169435302Y-58713436D01*
X169536564Y-58814698D01*
X169655636Y-58894259D01*
X169787942Y-58949062D01*
X169928397Y-58977000D01*
X170071603Y-58977000D01*
X170212058Y-58949062D01*
X170344364Y-58894259D01*
X170463436Y-58814698D01*
X170564698Y-58713436D01*
X170644259Y-58594364D01*
X170699062Y-58462058D01*
X170727000Y-58321603D01*
X170727000Y-58178397D01*
X175273000Y-58178397D01*
X175273000Y-58321603D01*
X175300938Y-58462058D01*
X175355741Y-58594364D01*
X175435302Y-58713436D01*
X175536564Y-58814698D01*
X175655636Y-58894259D01*
X175787942Y-58949062D01*
X175928397Y-58977000D01*
X176071603Y-58977000D01*
X176212058Y-58949062D01*
X176344364Y-58894259D01*
X176463436Y-58814698D01*
X176564698Y-58713436D01*
X176644259Y-58594364D01*
X176699062Y-58462058D01*
X176727000Y-58321603D01*
X176727000Y-58178397D01*
X181273000Y-58178397D01*
X181273000Y-58321603D01*
X181300938Y-58462058D01*
X181355741Y-58594364D01*
X181435302Y-58713436D01*
X181536564Y-58814698D01*
X181655636Y-58894259D01*
X181787942Y-58949062D01*
X181928397Y-58977000D01*
X182071603Y-58977000D01*
X182212058Y-58949062D01*
X182344364Y-58894259D01*
X182463436Y-58814698D01*
X182564698Y-58713436D01*
X182644259Y-58594364D01*
X182699062Y-58462058D01*
X182727000Y-58321603D01*
X182727000Y-58178397D01*
X187273000Y-58178397D01*
X187273000Y-58321603D01*
X187300938Y-58462058D01*
X187355741Y-58594364D01*
X187435302Y-58713436D01*
X187536564Y-58814698D01*
X187655636Y-58894259D01*
X187787942Y-58949062D01*
X187928397Y-58977000D01*
X188071603Y-58977000D01*
X188212058Y-58949062D01*
X188344364Y-58894259D01*
X188463436Y-58814698D01*
X188564698Y-58713436D01*
X188644259Y-58594364D01*
X188699062Y-58462058D01*
X188727000Y-58321603D01*
X188727000Y-58178397D01*
X193273000Y-58178397D01*
X193273000Y-58321603D01*
X193300938Y-58462058D01*
X193355741Y-58594364D01*
X193435302Y-58713436D01*
X193536564Y-58814698D01*
X193655636Y-58894259D01*
X193787942Y-58949062D01*
X193928397Y-58977000D01*
X194071603Y-58977000D01*
X194212058Y-58949062D01*
X194344364Y-58894259D01*
X194463436Y-58814698D01*
X194564698Y-58713436D01*
X194644259Y-58594364D01*
X194699062Y-58462058D01*
X194727000Y-58321603D01*
X194727000Y-58178397D01*
X199273000Y-58178397D01*
X199273000Y-58321603D01*
X199300938Y-58462058D01*
X199355741Y-58594364D01*
X199435302Y-58713436D01*
X199536564Y-58814698D01*
X199655636Y-58894259D01*
X199787942Y-58949062D01*
X199928397Y-58977000D01*
X200071603Y-58977000D01*
X200212058Y-58949062D01*
X200344364Y-58894259D01*
X200463436Y-58814698D01*
X200564698Y-58713436D01*
X200644259Y-58594364D01*
X200699062Y-58462058D01*
X200727000Y-58321603D01*
X200727000Y-58178397D01*
X205273000Y-58178397D01*
X205273000Y-58321603D01*
X205300938Y-58462058D01*
X205355741Y-58594364D01*
X205435302Y-58713436D01*
X205536564Y-58814698D01*
X205655636Y-58894259D01*
X205787942Y-58949062D01*
X205928397Y-58977000D01*
X206071603Y-58977000D01*
X206212058Y-58949062D01*
X206344364Y-58894259D01*
X206463436Y-58814698D01*
X206564698Y-58713436D01*
X206644259Y-58594364D01*
X206699062Y-58462058D01*
X206727000Y-58321603D01*
X206727000Y-58178397D01*
X211273000Y-58178397D01*
X211273000Y-58321603D01*
X211300938Y-58462058D01*
X211355741Y-58594364D01*
X211435302Y-58713436D01*
X211536564Y-58814698D01*
X211655636Y-58894259D01*
X211787942Y-58949062D01*
X211928397Y-58977000D01*
X212071603Y-58977000D01*
X212212058Y-58949062D01*
X212344364Y-58894259D01*
X212463436Y-58814698D01*
X212564698Y-58713436D01*
X212644259Y-58594364D01*
X212699062Y-58462058D01*
X212727000Y-58321603D01*
X212727000Y-58178397D01*
X217273000Y-58178397D01*
X217273000Y-58321603D01*
X217300938Y-58462058D01*
X217355741Y-58594364D01*
X217435302Y-58713436D01*
X217536564Y-58814698D01*
X217655636Y-58894259D01*
X217787942Y-58949062D01*
X217928397Y-58977000D01*
X218071603Y-58977000D01*
X218212058Y-58949062D01*
X218344364Y-58894259D01*
X218463436Y-58814698D01*
X218564698Y-58713436D01*
X218644259Y-58594364D01*
X218699062Y-58462058D01*
X218727000Y-58321603D01*
X218727000Y-58178397D01*
X223273000Y-58178397D01*
X223273000Y-58321603D01*
X223300938Y-58462058D01*
X223355741Y-58594364D01*
X223435302Y-58713436D01*
X223536564Y-58814698D01*
X223655636Y-58894259D01*
X223787942Y-58949062D01*
X223928397Y-58977000D01*
X224071603Y-58977000D01*
X224212058Y-58949062D01*
X224344364Y-58894259D01*
X224463436Y-58814698D01*
X224564698Y-58713436D01*
X224644259Y-58594364D01*
X224699062Y-58462058D01*
X224727000Y-58321603D01*
X224727000Y-58178397D01*
X229273000Y-58178397D01*
X229273000Y-58321603D01*
X229300938Y-58462058D01*
X229355741Y-58594364D01*
X229435302Y-58713436D01*
X229536564Y-58814698D01*
X229655636Y-58894259D01*
X229787942Y-58949062D01*
X229928397Y-58977000D01*
X230071603Y-58977000D01*
X230212058Y-58949062D01*
X230344364Y-58894259D01*
X230463436Y-58814698D01*
X230564698Y-58713436D01*
X230644259Y-58594364D01*
X230699062Y-58462058D01*
X230727000Y-58321603D01*
X230727000Y-58178397D01*
X230699062Y-58037942D01*
X230644259Y-57905636D01*
X230564698Y-57786564D01*
X230463436Y-57685302D01*
X230344364Y-57605741D01*
X230212058Y-57550938D01*
X230071603Y-57523000D01*
X229928397Y-57523000D01*
X229787942Y-57550938D01*
X229655636Y-57605741D01*
X229536564Y-57685302D01*
X229435302Y-57786564D01*
X229355741Y-57905636D01*
X229300938Y-58037942D01*
X229273000Y-58178397D01*
X224727000Y-58178397D01*
X224699062Y-58037942D01*
X224644259Y-57905636D01*
X224564698Y-57786564D01*
X224463436Y-57685302D01*
X224344364Y-57605741D01*
X224212058Y-57550938D01*
X224071603Y-57523000D01*
X223928397Y-57523000D01*
X223787942Y-57550938D01*
X223655636Y-57605741D01*
X223536564Y-57685302D01*
X223435302Y-57786564D01*
X223355741Y-57905636D01*
X223300938Y-58037942D01*
X223273000Y-58178397D01*
X218727000Y-58178397D01*
X218699062Y-58037942D01*
X218644259Y-57905636D01*
X218564698Y-57786564D01*
X218463436Y-57685302D01*
X218344364Y-57605741D01*
X218212058Y-57550938D01*
X218071603Y-57523000D01*
X217928397Y-57523000D01*
X217787942Y-57550938D01*
X217655636Y-57605741D01*
X217536564Y-57685302D01*
X217435302Y-57786564D01*
X217355741Y-57905636D01*
X217300938Y-58037942D01*
X217273000Y-58178397D01*
X212727000Y-58178397D01*
X212699062Y-58037942D01*
X212644259Y-57905636D01*
X212564698Y-57786564D01*
X212463436Y-57685302D01*
X212344364Y-57605741D01*
X212212058Y-57550938D01*
X212071603Y-57523000D01*
X211928397Y-57523000D01*
X211787942Y-57550938D01*
X211655636Y-57605741D01*
X211536564Y-57685302D01*
X211435302Y-57786564D01*
X211355741Y-57905636D01*
X211300938Y-58037942D01*
X211273000Y-58178397D01*
X206727000Y-58178397D01*
X206699062Y-58037942D01*
X206644259Y-57905636D01*
X206564698Y-57786564D01*
X206463436Y-57685302D01*
X206344364Y-57605741D01*
X206212058Y-57550938D01*
X206071603Y-57523000D01*
X205928397Y-57523000D01*
X205787942Y-57550938D01*
X205655636Y-57605741D01*
X205536564Y-57685302D01*
X205435302Y-57786564D01*
X205355741Y-57905636D01*
X205300938Y-58037942D01*
X205273000Y-58178397D01*
X200727000Y-58178397D01*
X200699062Y-58037942D01*
X200644259Y-57905636D01*
X200564698Y-57786564D01*
X200463436Y-57685302D01*
X200344364Y-57605741D01*
X200212058Y-57550938D01*
X200071603Y-57523000D01*
X199928397Y-57523000D01*
X199787942Y-57550938D01*
X199655636Y-57605741D01*
X199536564Y-57685302D01*
X199435302Y-57786564D01*
X199355741Y-57905636D01*
X199300938Y-58037942D01*
X199273000Y-58178397D01*
X194727000Y-58178397D01*
X194699062Y-58037942D01*
X194644259Y-57905636D01*
X194564698Y-57786564D01*
X194463436Y-57685302D01*
X194344364Y-57605741D01*
X194212058Y-57550938D01*
X194071603Y-57523000D01*
X193928397Y-57523000D01*
X193787942Y-57550938D01*
X193655636Y-57605741D01*
X193536564Y-57685302D01*
X193435302Y-57786564D01*
X193355741Y-57905636D01*
X193300938Y-58037942D01*
X193273000Y-58178397D01*
X188727000Y-58178397D01*
X188699062Y-58037942D01*
X188644259Y-57905636D01*
X188564698Y-57786564D01*
X188463436Y-57685302D01*
X188344364Y-57605741D01*
X188212058Y-57550938D01*
X188071603Y-57523000D01*
X187928397Y-57523000D01*
X187787942Y-57550938D01*
X187655636Y-57605741D01*
X187536564Y-57685302D01*
X187435302Y-57786564D01*
X187355741Y-57905636D01*
X187300938Y-58037942D01*
X187273000Y-58178397D01*
X182727000Y-58178397D01*
X182699062Y-58037942D01*
X182644259Y-57905636D01*
X182564698Y-57786564D01*
X182463436Y-57685302D01*
X182344364Y-57605741D01*
X182212058Y-57550938D01*
X182071603Y-57523000D01*
X181928397Y-57523000D01*
X181787942Y-57550938D01*
X181655636Y-57605741D01*
X181536564Y-57685302D01*
X181435302Y-57786564D01*
X181355741Y-57905636D01*
X181300938Y-58037942D01*
X181273000Y-58178397D01*
X176727000Y-58178397D01*
X176699062Y-58037942D01*
X176644259Y-57905636D01*
X176564698Y-57786564D01*
X176463436Y-57685302D01*
X176344364Y-57605741D01*
X176212058Y-57550938D01*
X176071603Y-57523000D01*
X175928397Y-57523000D01*
X175787942Y-57550938D01*
X175655636Y-57605741D01*
X175536564Y-57685302D01*
X175435302Y-57786564D01*
X175355741Y-57905636D01*
X175300938Y-58037942D01*
X175273000Y-58178397D01*
X170727000Y-58178397D01*
X170699062Y-58037942D01*
X170644259Y-57905636D01*
X170564698Y-57786564D01*
X170463436Y-57685302D01*
X170344364Y-57605741D01*
X170212058Y-57550938D01*
X170071603Y-57523000D01*
X169928397Y-57523000D01*
X169787942Y-57550938D01*
X169655636Y-57605741D01*
X169536564Y-57685302D01*
X169435302Y-57786564D01*
X169355741Y-57905636D01*
X169300938Y-58037942D01*
X169273000Y-58178397D01*
X164727000Y-58178397D01*
X164699062Y-58037942D01*
X164644259Y-57905636D01*
X164564698Y-57786564D01*
X164463436Y-57685302D01*
X164344364Y-57605741D01*
X164212058Y-57550938D01*
X164071603Y-57523000D01*
X163928397Y-57523000D01*
X163787942Y-57550938D01*
X163655636Y-57605741D01*
X163536564Y-57685302D01*
X163435302Y-57786564D01*
X163355741Y-57905636D01*
X163300938Y-58037942D01*
X163273000Y-58178397D01*
X158727000Y-58178397D01*
X158699062Y-58037942D01*
X158644259Y-57905636D01*
X158564698Y-57786564D01*
X158463436Y-57685302D01*
X158344364Y-57605741D01*
X158212058Y-57550938D01*
X158071603Y-57523000D01*
X157928397Y-57523000D01*
X157787942Y-57550938D01*
X157655636Y-57605741D01*
X157536564Y-57685302D01*
X157435302Y-57786564D01*
X157355741Y-57905636D01*
X157300938Y-58037942D01*
X157273000Y-58178397D01*
X152727000Y-58178397D01*
X152699062Y-58037942D01*
X152644259Y-57905636D01*
X152564698Y-57786564D01*
X152463436Y-57685302D01*
X152344364Y-57605741D01*
X152212058Y-57550938D01*
X152071603Y-57523000D01*
X151928397Y-57523000D01*
X151787942Y-57550938D01*
X151655636Y-57605741D01*
X151536564Y-57685302D01*
X151435302Y-57786564D01*
X151355741Y-57905636D01*
X151300938Y-58037942D01*
X151273000Y-58178397D01*
X146727000Y-58178397D01*
X146699062Y-58037942D01*
X146644259Y-57905636D01*
X146564698Y-57786564D01*
X146463436Y-57685302D01*
X146344364Y-57605741D01*
X146212058Y-57550938D01*
X146071603Y-57523000D01*
X145928397Y-57523000D01*
X145787942Y-57550938D01*
X145655636Y-57605741D01*
X145536564Y-57685302D01*
X145435302Y-57786564D01*
X145355741Y-57905636D01*
X145300938Y-58037942D01*
X145273000Y-58178397D01*
X140727000Y-58178397D01*
X140699062Y-58037942D01*
X140644259Y-57905636D01*
X140564698Y-57786564D01*
X140463436Y-57685302D01*
X140344364Y-57605741D01*
X140212058Y-57550938D01*
X140071603Y-57523000D01*
X139928397Y-57523000D01*
X139787942Y-57550938D01*
X139655636Y-57605741D01*
X139536564Y-57685302D01*
X139435302Y-57786564D01*
X139355741Y-57905636D01*
X139300938Y-58037942D01*
X139273000Y-58178397D01*
X134726994Y-58178397D01*
X134699056Y-58037942D01*
X134644253Y-57905636D01*
X134564692Y-57786564D01*
X134463430Y-57685302D01*
X134344358Y-57605741D01*
X134212052Y-57550938D01*
X134071597Y-57523000D01*
X133928391Y-57523000D01*
X133787936Y-57550938D01*
X133655630Y-57605741D01*
X133536558Y-57685302D01*
X133435296Y-57786564D01*
X133355735Y-57905636D01*
X133300932Y-58037942D01*
X133272994Y-58178397D01*
X130377000Y-58178397D01*
X130377000Y-57127000D01*
X233623000Y-57127000D01*
X233623001Y-91623000D01*
M02*
