G04 #@! TF.GenerationSoftware,KiCad,Pcbnew,(5.1.5-0-10_14)*
G04 #@! TF.CreationDate,2020-04-22T00:02:06+01:00*
G04 #@! TF.ProjectId,Display,44697370-6c61-4792-9e6b-696361645f70,rev?*
G04 #@! TF.SameCoordinates,Original*
G04 #@! TF.FileFunction,Copper,L2,Inr*
G04 #@! TF.FilePolarity,Positive*
%FSLAX46Y46*%
G04 Gerber Fmt 4.6, Leading zero omitted, Abs format (unit mm)*
G04 Created by KiCad (PCBNEW (5.1.5-0-10_14)) date 2020-04-22 00:02:06*
%MOMM*%
%LPD*%
G04 APERTURE LIST*
%ADD10O,1.700000X1.700000*%
%ADD11R,1.700000X1.700000*%
%ADD12C,0.800000*%
%ADD13C,0.254000*%
G04 APERTURE END LIST*
D10*
X169620000Y-87960000D03*
X169620000Y-90500000D03*
X167080000Y-87960000D03*
X167080000Y-90500000D03*
X164540000Y-87960000D03*
X164540000Y-90500000D03*
X162000000Y-87960000D03*
D11*
X162000000Y-90500000D03*
D12*
X133999994Y-58250000D03*
X146000000Y-58250000D03*
X152000000Y-58250000D03*
X158000000Y-58250000D03*
X164000000Y-58250000D03*
X170000000Y-58250000D03*
X176000000Y-58250000D03*
X182000000Y-58250000D03*
X188000000Y-58250000D03*
X194000000Y-58250000D03*
X200000000Y-58250000D03*
X206000000Y-58250000D03*
X212000000Y-58250000D03*
X218000000Y-58250000D03*
X224000000Y-58250000D03*
X230000000Y-58250000D03*
X140000000Y-58250000D03*
X134000000Y-81000000D03*
X134000000Y-69000000D03*
X140000000Y-69000000D03*
X146000000Y-69000000D03*
X152000000Y-69000000D03*
X146000000Y-81000000D03*
X152000000Y-81000000D03*
X158000000Y-81000000D03*
X164000000Y-81000000D03*
X158000000Y-69000000D03*
X164000000Y-69000000D03*
X170000000Y-69000000D03*
X170000000Y-81000000D03*
X176000000Y-81000000D03*
X176000000Y-69000000D03*
X182000000Y-69000000D03*
X182000000Y-81000000D03*
X188000000Y-81000000D03*
X188000000Y-69000000D03*
X194000000Y-69000000D03*
X194000000Y-81000000D03*
X200000000Y-81000000D03*
X200000000Y-69000000D03*
X206000000Y-69000000D03*
X206000000Y-81000000D03*
X212000000Y-81000000D03*
X212000000Y-69000000D03*
X218000000Y-69000000D03*
X218000000Y-81000000D03*
X224000000Y-81000000D03*
X224000000Y-69000000D03*
X230000000Y-69000000D03*
X230000000Y-81000000D03*
X140000000Y-81000000D03*
X141899988Y-63900000D03*
X153900000Y-63900000D03*
X165900000Y-63900000D03*
X177900000Y-63900000D03*
X189900000Y-63900000D03*
X201900000Y-63900000D03*
X213900000Y-63900000D03*
X225900000Y-63900000D03*
X141900000Y-75900000D03*
X153900000Y-75900000D03*
X165900000Y-75900000D03*
X177900000Y-75900000D03*
X189900000Y-75900000D03*
X201900000Y-75900000D03*
X213900000Y-75900000D03*
X225900000Y-75900000D03*
X179300000Y-90400000D03*
X140000000Y-63000002D03*
X146000000Y-63000000D03*
X152000000Y-63000000D03*
X157999994Y-63000000D03*
X164000000Y-63000000D03*
X170000000Y-63000000D03*
X176000000Y-62999994D03*
X182000000Y-63000000D03*
X188000008Y-63000000D03*
X194000000Y-63000000D03*
X200000000Y-62999990D03*
X206000000Y-63000000D03*
X212000000Y-63000000D03*
X218000000Y-63000010D03*
X224000000Y-63000006D03*
X230000000Y-63000000D03*
X134000000Y-75000000D03*
X140000000Y-75000000D03*
X146000000Y-75000000D03*
X152000000Y-75000000D03*
X164000000Y-75000000D03*
X158000000Y-75000000D03*
X170000000Y-75000000D03*
X176000000Y-75000000D03*
X182000000Y-75000000D03*
X188000000Y-75000000D03*
X194000000Y-75000000D03*
X200000000Y-75000000D03*
X206000000Y-75000000D03*
X212000000Y-75000000D03*
X218000000Y-75000000D03*
X224000000Y-75000000D03*
X230000000Y-75000000D03*
X164000000Y-85750000D03*
X176000000Y-85750000D03*
X182000000Y-85750000D03*
X188000000Y-85750000D03*
X194000000Y-85750000D03*
X200000000Y-85750000D03*
X206000000Y-85750000D03*
X212000000Y-85750000D03*
X218000000Y-85750000D03*
X224000000Y-85750000D03*
X230000000Y-85750000D03*
X134000000Y-63000000D03*
X152000000Y-85724979D03*
X146000000Y-85724979D03*
X140000000Y-85724979D03*
X134000000Y-85724979D03*
X158000000Y-85724979D03*
D13*
G36*
X233623001Y-91623000D02*
G01*
X169984488Y-91623000D01*
X170177519Y-91543044D01*
X170370294Y-91414236D01*
X170534236Y-91250294D01*
X170663044Y-91057519D01*
X170751769Y-90843318D01*
X170797000Y-90615924D01*
X170797000Y-90384076D01*
X170751769Y-90156682D01*
X170663044Y-89942481D01*
X170534236Y-89749706D01*
X170370294Y-89585764D01*
X170177519Y-89456956D01*
X169963318Y-89368231D01*
X169735924Y-89323000D01*
X169504076Y-89323000D01*
X169276682Y-89368231D01*
X169062481Y-89456956D01*
X168869706Y-89585764D01*
X168705764Y-89749706D01*
X168576956Y-89942481D01*
X168488231Y-90156682D01*
X168443000Y-90384076D01*
X168443000Y-90615924D01*
X168488231Y-90843318D01*
X168576956Y-91057519D01*
X168705764Y-91250294D01*
X168869706Y-91414236D01*
X169062481Y-91543044D01*
X169255512Y-91623000D01*
X167444488Y-91623000D01*
X167637519Y-91543044D01*
X167830294Y-91414236D01*
X167994236Y-91250294D01*
X168123044Y-91057519D01*
X168211769Y-90843318D01*
X168257000Y-90615924D01*
X168257000Y-90384076D01*
X168211769Y-90156682D01*
X168123044Y-89942481D01*
X167994236Y-89749706D01*
X167830294Y-89585764D01*
X167637519Y-89456956D01*
X167423318Y-89368231D01*
X167195924Y-89323000D01*
X166964076Y-89323000D01*
X166736682Y-89368231D01*
X166522481Y-89456956D01*
X166329706Y-89585764D01*
X166165764Y-89749706D01*
X166036956Y-89942481D01*
X165948231Y-90156682D01*
X165903000Y-90384076D01*
X165903000Y-90615924D01*
X165948231Y-90843318D01*
X166036956Y-91057519D01*
X166165764Y-91250294D01*
X166329706Y-91414236D01*
X166522481Y-91543044D01*
X166715512Y-91623000D01*
X164904488Y-91623000D01*
X165097519Y-91543044D01*
X165290294Y-91414236D01*
X165454236Y-91250294D01*
X165583044Y-91057519D01*
X165671769Y-90843318D01*
X165717000Y-90615924D01*
X165717000Y-90384076D01*
X165671769Y-90156682D01*
X165583044Y-89942481D01*
X165454236Y-89749706D01*
X165290294Y-89585764D01*
X165097519Y-89456956D01*
X164883318Y-89368231D01*
X164655924Y-89323000D01*
X164424076Y-89323000D01*
X164196682Y-89368231D01*
X163982481Y-89456956D01*
X163789706Y-89585764D01*
X163625764Y-89749706D01*
X163496956Y-89942481D01*
X163408231Y-90156682D01*
X163363000Y-90384076D01*
X163363000Y-90615924D01*
X163408231Y-90843318D01*
X163496956Y-91057519D01*
X163625764Y-91250294D01*
X163789706Y-91414236D01*
X163982481Y-91543044D01*
X164175512Y-91623000D01*
X130377000Y-91623000D01*
X130377000Y-89310207D01*
X130573000Y-89310207D01*
X130573000Y-89689793D01*
X130647053Y-90062085D01*
X130792315Y-90412777D01*
X131003201Y-90728391D01*
X131271609Y-90996799D01*
X131587223Y-91207685D01*
X131937915Y-91352947D01*
X132310207Y-91427000D01*
X132689793Y-91427000D01*
X133062085Y-91352947D01*
X133412777Y-91207685D01*
X133728391Y-90996799D01*
X133996799Y-90728391D01*
X134207685Y-90412777D01*
X134352947Y-90062085D01*
X134427000Y-89689793D01*
X134427000Y-89310207D01*
X134352947Y-88937915D01*
X134314328Y-88844679D01*
X155423000Y-88844679D01*
X155423000Y-89155321D01*
X155483604Y-89459994D01*
X155602481Y-89746989D01*
X155775064Y-90005279D01*
X155994721Y-90224936D01*
X156253011Y-90397519D01*
X156540006Y-90516396D01*
X156844679Y-90577000D01*
X157155321Y-90577000D01*
X157459994Y-90516396D01*
X157746989Y-90397519D01*
X158005279Y-90224936D01*
X158224936Y-90005279D01*
X158397519Y-89746989D01*
X158516396Y-89459994D01*
X158577000Y-89155321D01*
X158577000Y-88844679D01*
X158516396Y-88540006D01*
X158397519Y-88253011D01*
X158224936Y-87994721D01*
X158074291Y-87844076D01*
X160823000Y-87844076D01*
X160823000Y-88075924D01*
X160868231Y-88303318D01*
X160956956Y-88517519D01*
X161085764Y-88710294D01*
X161249706Y-88874236D01*
X161442481Y-89003044D01*
X161656682Y-89091769D01*
X161884076Y-89137000D01*
X162115924Y-89137000D01*
X162343318Y-89091769D01*
X162557519Y-89003044D01*
X162750294Y-88874236D01*
X162914236Y-88710294D01*
X163043044Y-88517519D01*
X163131769Y-88303318D01*
X163177000Y-88075924D01*
X163177000Y-87844076D01*
X163363000Y-87844076D01*
X163363000Y-88075924D01*
X163408231Y-88303318D01*
X163496956Y-88517519D01*
X163625764Y-88710294D01*
X163789706Y-88874236D01*
X163982481Y-89003044D01*
X164196682Y-89091769D01*
X164424076Y-89137000D01*
X164655924Y-89137000D01*
X164883318Y-89091769D01*
X165097519Y-89003044D01*
X165290294Y-88874236D01*
X165454236Y-88710294D01*
X165583044Y-88517519D01*
X165671769Y-88303318D01*
X165717000Y-88075924D01*
X165717000Y-87844076D01*
X165903000Y-87844076D01*
X165903000Y-88075924D01*
X165948231Y-88303318D01*
X166036956Y-88517519D01*
X166165764Y-88710294D01*
X166329706Y-88874236D01*
X166522481Y-89003044D01*
X166736682Y-89091769D01*
X166964076Y-89137000D01*
X167195924Y-89137000D01*
X167423318Y-89091769D01*
X167637519Y-89003044D01*
X167830294Y-88874236D01*
X167994236Y-88710294D01*
X168123044Y-88517519D01*
X168211769Y-88303318D01*
X168257000Y-88075924D01*
X168257000Y-87844076D01*
X168443000Y-87844076D01*
X168443000Y-88075924D01*
X168488231Y-88303318D01*
X168576956Y-88517519D01*
X168705764Y-88710294D01*
X168869706Y-88874236D01*
X169062481Y-89003044D01*
X169276682Y-89091769D01*
X169504076Y-89137000D01*
X169735924Y-89137000D01*
X169963318Y-89091769D01*
X170177519Y-89003044D01*
X170370294Y-88874236D01*
X170399851Y-88844679D01*
X205423000Y-88844679D01*
X205423000Y-89155321D01*
X205483604Y-89459994D01*
X205602481Y-89746989D01*
X205775064Y-90005279D01*
X205994721Y-90224936D01*
X206253011Y-90397519D01*
X206540006Y-90516396D01*
X206844679Y-90577000D01*
X207155321Y-90577000D01*
X207459994Y-90516396D01*
X207746989Y-90397519D01*
X208005279Y-90224936D01*
X208224936Y-90005279D01*
X208397519Y-89746989D01*
X208516396Y-89459994D01*
X208546190Y-89310207D01*
X229573000Y-89310207D01*
X229573000Y-89689793D01*
X229647053Y-90062085D01*
X229792315Y-90412777D01*
X230003201Y-90728391D01*
X230271609Y-90996799D01*
X230587223Y-91207685D01*
X230937915Y-91352947D01*
X231310207Y-91427000D01*
X231689793Y-91427000D01*
X232062085Y-91352947D01*
X232412777Y-91207685D01*
X232728391Y-90996799D01*
X232996799Y-90728391D01*
X233207685Y-90412777D01*
X233352947Y-90062085D01*
X233427000Y-89689793D01*
X233427000Y-89310207D01*
X233352947Y-88937915D01*
X233207685Y-88587223D01*
X232996799Y-88271609D01*
X232728391Y-88003201D01*
X232412777Y-87792315D01*
X232062085Y-87647053D01*
X231689793Y-87573000D01*
X231310207Y-87573000D01*
X230937915Y-87647053D01*
X230587223Y-87792315D01*
X230271609Y-88003201D01*
X230003201Y-88271609D01*
X229792315Y-88587223D01*
X229647053Y-88937915D01*
X229573000Y-89310207D01*
X208546190Y-89310207D01*
X208577000Y-89155321D01*
X208577000Y-88844679D01*
X208516396Y-88540006D01*
X208397519Y-88253011D01*
X208224936Y-87994721D01*
X208005279Y-87775064D01*
X207746989Y-87602481D01*
X207459994Y-87483604D01*
X207155321Y-87423000D01*
X206844679Y-87423000D01*
X206540006Y-87483604D01*
X206253011Y-87602481D01*
X205994721Y-87775064D01*
X205775064Y-87994721D01*
X205602481Y-88253011D01*
X205483604Y-88540006D01*
X205423000Y-88844679D01*
X170399851Y-88844679D01*
X170534236Y-88710294D01*
X170663044Y-88517519D01*
X170751769Y-88303318D01*
X170797000Y-88075924D01*
X170797000Y-87844076D01*
X170751769Y-87616682D01*
X170663044Y-87402481D01*
X170534236Y-87209706D01*
X170370294Y-87045764D01*
X170177519Y-86916956D01*
X169963318Y-86828231D01*
X169735924Y-86783000D01*
X169504076Y-86783000D01*
X169276682Y-86828231D01*
X169062481Y-86916956D01*
X168869706Y-87045764D01*
X168705764Y-87209706D01*
X168576956Y-87402481D01*
X168488231Y-87616682D01*
X168443000Y-87844076D01*
X168257000Y-87844076D01*
X168211769Y-87616682D01*
X168123044Y-87402481D01*
X167994236Y-87209706D01*
X167830294Y-87045764D01*
X167637519Y-86916956D01*
X167423318Y-86828231D01*
X167195924Y-86783000D01*
X166964076Y-86783000D01*
X166736682Y-86828231D01*
X166522481Y-86916956D01*
X166329706Y-87045764D01*
X166165764Y-87209706D01*
X166036956Y-87402481D01*
X165948231Y-87616682D01*
X165903000Y-87844076D01*
X165717000Y-87844076D01*
X165671769Y-87616682D01*
X165583044Y-87402481D01*
X165454236Y-87209706D01*
X165290294Y-87045764D01*
X165097519Y-86916956D01*
X164883318Y-86828231D01*
X164655924Y-86783000D01*
X164424076Y-86783000D01*
X164196682Y-86828231D01*
X163982481Y-86916956D01*
X163789706Y-87045764D01*
X163625764Y-87209706D01*
X163496956Y-87402481D01*
X163408231Y-87616682D01*
X163363000Y-87844076D01*
X163177000Y-87844076D01*
X163131769Y-87616682D01*
X163043044Y-87402481D01*
X162914236Y-87209706D01*
X162750294Y-87045764D01*
X162557519Y-86916956D01*
X162343318Y-86828231D01*
X162115924Y-86783000D01*
X161884076Y-86783000D01*
X161656682Y-86828231D01*
X161442481Y-86916956D01*
X161249706Y-87045764D01*
X161085764Y-87209706D01*
X160956956Y-87402481D01*
X160868231Y-87616682D01*
X160823000Y-87844076D01*
X158074291Y-87844076D01*
X158005279Y-87775064D01*
X157746989Y-87602481D01*
X157459994Y-87483604D01*
X157155321Y-87423000D01*
X156844679Y-87423000D01*
X156540006Y-87483604D01*
X156253011Y-87602481D01*
X155994721Y-87775064D01*
X155775064Y-87994721D01*
X155602481Y-88253011D01*
X155483604Y-88540006D01*
X155423000Y-88844679D01*
X134314328Y-88844679D01*
X134207685Y-88587223D01*
X133996799Y-88271609D01*
X133728391Y-88003201D01*
X133412777Y-87792315D01*
X133062085Y-87647053D01*
X132689793Y-87573000D01*
X132310207Y-87573000D01*
X131937915Y-87647053D01*
X131587223Y-87792315D01*
X131271609Y-88003201D01*
X131003201Y-88271609D01*
X130792315Y-88587223D01*
X130647053Y-88937915D01*
X130573000Y-89310207D01*
X130377000Y-89310207D01*
X130377000Y-85653376D01*
X133273000Y-85653376D01*
X133273000Y-85796582D01*
X133300938Y-85937037D01*
X133355741Y-86069343D01*
X133435302Y-86188415D01*
X133536564Y-86289677D01*
X133655636Y-86369238D01*
X133787942Y-86424041D01*
X133928397Y-86451979D01*
X134071603Y-86451979D01*
X134212058Y-86424041D01*
X134344364Y-86369238D01*
X134463436Y-86289677D01*
X134564698Y-86188415D01*
X134644259Y-86069343D01*
X134699062Y-85937037D01*
X134727000Y-85796582D01*
X134727000Y-85653376D01*
X139273000Y-85653376D01*
X139273000Y-85796582D01*
X139300938Y-85937037D01*
X139355741Y-86069343D01*
X139435302Y-86188415D01*
X139536564Y-86289677D01*
X139655636Y-86369238D01*
X139787942Y-86424041D01*
X139928397Y-86451979D01*
X140071603Y-86451979D01*
X140212058Y-86424041D01*
X140344364Y-86369238D01*
X140463436Y-86289677D01*
X140564698Y-86188415D01*
X140644259Y-86069343D01*
X140699062Y-85937037D01*
X140727000Y-85796582D01*
X140727000Y-85653376D01*
X145273000Y-85653376D01*
X145273000Y-85796582D01*
X145300938Y-85937037D01*
X145355741Y-86069343D01*
X145435302Y-86188415D01*
X145536564Y-86289677D01*
X145655636Y-86369238D01*
X145787942Y-86424041D01*
X145928397Y-86451979D01*
X146071603Y-86451979D01*
X146212058Y-86424041D01*
X146344364Y-86369238D01*
X146463436Y-86289677D01*
X146564698Y-86188415D01*
X146644259Y-86069343D01*
X146699062Y-85937037D01*
X146727000Y-85796582D01*
X146727000Y-85653376D01*
X151273000Y-85653376D01*
X151273000Y-85796582D01*
X151300938Y-85937037D01*
X151355741Y-86069343D01*
X151435302Y-86188415D01*
X151536564Y-86289677D01*
X151655636Y-86369238D01*
X151787942Y-86424041D01*
X151928397Y-86451979D01*
X152071603Y-86451979D01*
X152212058Y-86424041D01*
X152344364Y-86369238D01*
X152463436Y-86289677D01*
X152564698Y-86188415D01*
X152644259Y-86069343D01*
X152699062Y-85937037D01*
X152727000Y-85796582D01*
X152727000Y-85653376D01*
X157273000Y-85653376D01*
X157273000Y-85796582D01*
X157300938Y-85937037D01*
X157355741Y-86069343D01*
X157435302Y-86188415D01*
X157536564Y-86289677D01*
X157655636Y-86369238D01*
X157787942Y-86424041D01*
X157928397Y-86451979D01*
X158071603Y-86451979D01*
X158212058Y-86424041D01*
X158344364Y-86369238D01*
X158463436Y-86289677D01*
X158564698Y-86188415D01*
X158644259Y-86069343D01*
X158699062Y-85937037D01*
X158727000Y-85796582D01*
X158727000Y-85678397D01*
X163273000Y-85678397D01*
X163273000Y-85821603D01*
X163300938Y-85962058D01*
X163355741Y-86094364D01*
X163435302Y-86213436D01*
X163536564Y-86314698D01*
X163655636Y-86394259D01*
X163787942Y-86449062D01*
X163928397Y-86477000D01*
X164071603Y-86477000D01*
X164212058Y-86449062D01*
X164344364Y-86394259D01*
X164463436Y-86314698D01*
X164564698Y-86213436D01*
X164644259Y-86094364D01*
X164699062Y-85962058D01*
X164727000Y-85821603D01*
X164727000Y-85678397D01*
X175273000Y-85678397D01*
X175273000Y-85821603D01*
X175300938Y-85962058D01*
X175355741Y-86094364D01*
X175435302Y-86213436D01*
X175536564Y-86314698D01*
X175655636Y-86394259D01*
X175787942Y-86449062D01*
X175928397Y-86477000D01*
X176071603Y-86477000D01*
X176212058Y-86449062D01*
X176344364Y-86394259D01*
X176463436Y-86314698D01*
X176564698Y-86213436D01*
X176644259Y-86094364D01*
X176699062Y-85962058D01*
X176727000Y-85821603D01*
X176727000Y-85678397D01*
X181273000Y-85678397D01*
X181273000Y-85821603D01*
X181300938Y-85962058D01*
X181355741Y-86094364D01*
X181435302Y-86213436D01*
X181536564Y-86314698D01*
X181655636Y-86394259D01*
X181787942Y-86449062D01*
X181928397Y-86477000D01*
X182071603Y-86477000D01*
X182212058Y-86449062D01*
X182344364Y-86394259D01*
X182463436Y-86314698D01*
X182564698Y-86213436D01*
X182644259Y-86094364D01*
X182699062Y-85962058D01*
X182727000Y-85821603D01*
X182727000Y-85678397D01*
X187273000Y-85678397D01*
X187273000Y-85821603D01*
X187300938Y-85962058D01*
X187355741Y-86094364D01*
X187435302Y-86213436D01*
X187536564Y-86314698D01*
X187655636Y-86394259D01*
X187787942Y-86449062D01*
X187928397Y-86477000D01*
X188071603Y-86477000D01*
X188212058Y-86449062D01*
X188344364Y-86394259D01*
X188463436Y-86314698D01*
X188564698Y-86213436D01*
X188644259Y-86094364D01*
X188699062Y-85962058D01*
X188727000Y-85821603D01*
X188727000Y-85678397D01*
X193273000Y-85678397D01*
X193273000Y-85821603D01*
X193300938Y-85962058D01*
X193355741Y-86094364D01*
X193435302Y-86213436D01*
X193536564Y-86314698D01*
X193655636Y-86394259D01*
X193787942Y-86449062D01*
X193928397Y-86477000D01*
X194071603Y-86477000D01*
X194212058Y-86449062D01*
X194344364Y-86394259D01*
X194463436Y-86314698D01*
X194564698Y-86213436D01*
X194644259Y-86094364D01*
X194699062Y-85962058D01*
X194727000Y-85821603D01*
X194727000Y-85678397D01*
X199273000Y-85678397D01*
X199273000Y-85821603D01*
X199300938Y-85962058D01*
X199355741Y-86094364D01*
X199435302Y-86213436D01*
X199536564Y-86314698D01*
X199655636Y-86394259D01*
X199787942Y-86449062D01*
X199928397Y-86477000D01*
X200071603Y-86477000D01*
X200212058Y-86449062D01*
X200344364Y-86394259D01*
X200463436Y-86314698D01*
X200564698Y-86213436D01*
X200644259Y-86094364D01*
X200699062Y-85962058D01*
X200727000Y-85821603D01*
X200727000Y-85678397D01*
X205273000Y-85678397D01*
X205273000Y-85821603D01*
X205300938Y-85962058D01*
X205355741Y-86094364D01*
X205435302Y-86213436D01*
X205536564Y-86314698D01*
X205655636Y-86394259D01*
X205787942Y-86449062D01*
X205928397Y-86477000D01*
X206071603Y-86477000D01*
X206212058Y-86449062D01*
X206344364Y-86394259D01*
X206463436Y-86314698D01*
X206564698Y-86213436D01*
X206644259Y-86094364D01*
X206699062Y-85962058D01*
X206727000Y-85821603D01*
X206727000Y-85678397D01*
X211273000Y-85678397D01*
X211273000Y-85821603D01*
X211300938Y-85962058D01*
X211355741Y-86094364D01*
X211435302Y-86213436D01*
X211536564Y-86314698D01*
X211655636Y-86394259D01*
X211787942Y-86449062D01*
X211928397Y-86477000D01*
X212071603Y-86477000D01*
X212212058Y-86449062D01*
X212344364Y-86394259D01*
X212463436Y-86314698D01*
X212564698Y-86213436D01*
X212644259Y-86094364D01*
X212699062Y-85962058D01*
X212727000Y-85821603D01*
X212727000Y-85678397D01*
X217273000Y-85678397D01*
X217273000Y-85821603D01*
X217300938Y-85962058D01*
X217355741Y-86094364D01*
X217435302Y-86213436D01*
X217536564Y-86314698D01*
X217655636Y-86394259D01*
X217787942Y-86449062D01*
X217928397Y-86477000D01*
X218071603Y-86477000D01*
X218212058Y-86449062D01*
X218344364Y-86394259D01*
X218463436Y-86314698D01*
X218564698Y-86213436D01*
X218644259Y-86094364D01*
X218699062Y-85962058D01*
X218727000Y-85821603D01*
X218727000Y-85678397D01*
X223273000Y-85678397D01*
X223273000Y-85821603D01*
X223300938Y-85962058D01*
X223355741Y-86094364D01*
X223435302Y-86213436D01*
X223536564Y-86314698D01*
X223655636Y-86394259D01*
X223787942Y-86449062D01*
X223928397Y-86477000D01*
X224071603Y-86477000D01*
X224212058Y-86449062D01*
X224344364Y-86394259D01*
X224463436Y-86314698D01*
X224564698Y-86213436D01*
X224644259Y-86094364D01*
X224699062Y-85962058D01*
X224727000Y-85821603D01*
X224727000Y-85678397D01*
X229273000Y-85678397D01*
X229273000Y-85821603D01*
X229300938Y-85962058D01*
X229355741Y-86094364D01*
X229435302Y-86213436D01*
X229536564Y-86314698D01*
X229655636Y-86394259D01*
X229787942Y-86449062D01*
X229928397Y-86477000D01*
X230071603Y-86477000D01*
X230212058Y-86449062D01*
X230344364Y-86394259D01*
X230463436Y-86314698D01*
X230564698Y-86213436D01*
X230644259Y-86094364D01*
X230699062Y-85962058D01*
X230727000Y-85821603D01*
X230727000Y-85678397D01*
X230699062Y-85537942D01*
X230644259Y-85405636D01*
X230564698Y-85286564D01*
X230463436Y-85185302D01*
X230344364Y-85105741D01*
X230212058Y-85050938D01*
X230071603Y-85023000D01*
X229928397Y-85023000D01*
X229787942Y-85050938D01*
X229655636Y-85105741D01*
X229536564Y-85185302D01*
X229435302Y-85286564D01*
X229355741Y-85405636D01*
X229300938Y-85537942D01*
X229273000Y-85678397D01*
X224727000Y-85678397D01*
X224699062Y-85537942D01*
X224644259Y-85405636D01*
X224564698Y-85286564D01*
X224463436Y-85185302D01*
X224344364Y-85105741D01*
X224212058Y-85050938D01*
X224071603Y-85023000D01*
X223928397Y-85023000D01*
X223787942Y-85050938D01*
X223655636Y-85105741D01*
X223536564Y-85185302D01*
X223435302Y-85286564D01*
X223355741Y-85405636D01*
X223300938Y-85537942D01*
X223273000Y-85678397D01*
X218727000Y-85678397D01*
X218699062Y-85537942D01*
X218644259Y-85405636D01*
X218564698Y-85286564D01*
X218463436Y-85185302D01*
X218344364Y-85105741D01*
X218212058Y-85050938D01*
X218071603Y-85023000D01*
X217928397Y-85023000D01*
X217787942Y-85050938D01*
X217655636Y-85105741D01*
X217536564Y-85185302D01*
X217435302Y-85286564D01*
X217355741Y-85405636D01*
X217300938Y-85537942D01*
X217273000Y-85678397D01*
X212727000Y-85678397D01*
X212699062Y-85537942D01*
X212644259Y-85405636D01*
X212564698Y-85286564D01*
X212463436Y-85185302D01*
X212344364Y-85105741D01*
X212212058Y-85050938D01*
X212071603Y-85023000D01*
X211928397Y-85023000D01*
X211787942Y-85050938D01*
X211655636Y-85105741D01*
X211536564Y-85185302D01*
X211435302Y-85286564D01*
X211355741Y-85405636D01*
X211300938Y-85537942D01*
X211273000Y-85678397D01*
X206727000Y-85678397D01*
X206699062Y-85537942D01*
X206644259Y-85405636D01*
X206564698Y-85286564D01*
X206463436Y-85185302D01*
X206344364Y-85105741D01*
X206212058Y-85050938D01*
X206071603Y-85023000D01*
X205928397Y-85023000D01*
X205787942Y-85050938D01*
X205655636Y-85105741D01*
X205536564Y-85185302D01*
X205435302Y-85286564D01*
X205355741Y-85405636D01*
X205300938Y-85537942D01*
X205273000Y-85678397D01*
X200727000Y-85678397D01*
X200699062Y-85537942D01*
X200644259Y-85405636D01*
X200564698Y-85286564D01*
X200463436Y-85185302D01*
X200344364Y-85105741D01*
X200212058Y-85050938D01*
X200071603Y-85023000D01*
X199928397Y-85023000D01*
X199787942Y-85050938D01*
X199655636Y-85105741D01*
X199536564Y-85185302D01*
X199435302Y-85286564D01*
X199355741Y-85405636D01*
X199300938Y-85537942D01*
X199273000Y-85678397D01*
X194727000Y-85678397D01*
X194699062Y-85537942D01*
X194644259Y-85405636D01*
X194564698Y-85286564D01*
X194463436Y-85185302D01*
X194344364Y-85105741D01*
X194212058Y-85050938D01*
X194071603Y-85023000D01*
X193928397Y-85023000D01*
X193787942Y-85050938D01*
X193655636Y-85105741D01*
X193536564Y-85185302D01*
X193435302Y-85286564D01*
X193355741Y-85405636D01*
X193300938Y-85537942D01*
X193273000Y-85678397D01*
X188727000Y-85678397D01*
X188699062Y-85537942D01*
X188644259Y-85405636D01*
X188564698Y-85286564D01*
X188463436Y-85185302D01*
X188344364Y-85105741D01*
X188212058Y-85050938D01*
X188071603Y-85023000D01*
X187928397Y-85023000D01*
X187787942Y-85050938D01*
X187655636Y-85105741D01*
X187536564Y-85185302D01*
X187435302Y-85286564D01*
X187355741Y-85405636D01*
X187300938Y-85537942D01*
X187273000Y-85678397D01*
X182727000Y-85678397D01*
X182699062Y-85537942D01*
X182644259Y-85405636D01*
X182564698Y-85286564D01*
X182463436Y-85185302D01*
X182344364Y-85105741D01*
X182212058Y-85050938D01*
X182071603Y-85023000D01*
X181928397Y-85023000D01*
X181787942Y-85050938D01*
X181655636Y-85105741D01*
X181536564Y-85185302D01*
X181435302Y-85286564D01*
X181355741Y-85405636D01*
X181300938Y-85537942D01*
X181273000Y-85678397D01*
X176727000Y-85678397D01*
X176699062Y-85537942D01*
X176644259Y-85405636D01*
X176564698Y-85286564D01*
X176463436Y-85185302D01*
X176344364Y-85105741D01*
X176212058Y-85050938D01*
X176071603Y-85023000D01*
X175928397Y-85023000D01*
X175787942Y-85050938D01*
X175655636Y-85105741D01*
X175536564Y-85185302D01*
X175435302Y-85286564D01*
X175355741Y-85405636D01*
X175300938Y-85537942D01*
X175273000Y-85678397D01*
X164727000Y-85678397D01*
X164699062Y-85537942D01*
X164644259Y-85405636D01*
X164564698Y-85286564D01*
X164463436Y-85185302D01*
X164344364Y-85105741D01*
X164212058Y-85050938D01*
X164071603Y-85023000D01*
X163928397Y-85023000D01*
X163787942Y-85050938D01*
X163655636Y-85105741D01*
X163536564Y-85185302D01*
X163435302Y-85286564D01*
X163355741Y-85405636D01*
X163300938Y-85537942D01*
X163273000Y-85678397D01*
X158727000Y-85678397D01*
X158727000Y-85653376D01*
X158699062Y-85512921D01*
X158644259Y-85380615D01*
X158564698Y-85261543D01*
X158463436Y-85160281D01*
X158344364Y-85080720D01*
X158212058Y-85025917D01*
X158071603Y-84997979D01*
X157928397Y-84997979D01*
X157787942Y-85025917D01*
X157655636Y-85080720D01*
X157536564Y-85160281D01*
X157435302Y-85261543D01*
X157355741Y-85380615D01*
X157300938Y-85512921D01*
X157273000Y-85653376D01*
X152727000Y-85653376D01*
X152699062Y-85512921D01*
X152644259Y-85380615D01*
X152564698Y-85261543D01*
X152463436Y-85160281D01*
X152344364Y-85080720D01*
X152212058Y-85025917D01*
X152071603Y-84997979D01*
X151928397Y-84997979D01*
X151787942Y-85025917D01*
X151655636Y-85080720D01*
X151536564Y-85160281D01*
X151435302Y-85261543D01*
X151355741Y-85380615D01*
X151300938Y-85512921D01*
X151273000Y-85653376D01*
X146727000Y-85653376D01*
X146699062Y-85512921D01*
X146644259Y-85380615D01*
X146564698Y-85261543D01*
X146463436Y-85160281D01*
X146344364Y-85080720D01*
X146212058Y-85025917D01*
X146071603Y-84997979D01*
X145928397Y-84997979D01*
X145787942Y-85025917D01*
X145655636Y-85080720D01*
X145536564Y-85160281D01*
X145435302Y-85261543D01*
X145355741Y-85380615D01*
X145300938Y-85512921D01*
X145273000Y-85653376D01*
X140727000Y-85653376D01*
X140699062Y-85512921D01*
X140644259Y-85380615D01*
X140564698Y-85261543D01*
X140463436Y-85160281D01*
X140344364Y-85080720D01*
X140212058Y-85025917D01*
X140071603Y-84997979D01*
X139928397Y-84997979D01*
X139787942Y-85025917D01*
X139655636Y-85080720D01*
X139536564Y-85160281D01*
X139435302Y-85261543D01*
X139355741Y-85380615D01*
X139300938Y-85512921D01*
X139273000Y-85653376D01*
X134727000Y-85653376D01*
X134699062Y-85512921D01*
X134644259Y-85380615D01*
X134564698Y-85261543D01*
X134463436Y-85160281D01*
X134344364Y-85080720D01*
X134212058Y-85025917D01*
X134071603Y-84997979D01*
X133928397Y-84997979D01*
X133787942Y-85025917D01*
X133655636Y-85080720D01*
X133536564Y-85160281D01*
X133435302Y-85261543D01*
X133355741Y-85380615D01*
X133300938Y-85512921D01*
X133273000Y-85653376D01*
X130377000Y-85653376D01*
X130377000Y-74928397D01*
X133273000Y-74928397D01*
X133273000Y-75071603D01*
X133300938Y-75212058D01*
X133355741Y-75344364D01*
X133435302Y-75463436D01*
X133536564Y-75564698D01*
X133655636Y-75644259D01*
X133787942Y-75699062D01*
X133928397Y-75727000D01*
X134071603Y-75727000D01*
X134212058Y-75699062D01*
X134344364Y-75644259D01*
X134463436Y-75564698D01*
X134564698Y-75463436D01*
X134644259Y-75344364D01*
X134699062Y-75212058D01*
X134727000Y-75071603D01*
X134727000Y-74928397D01*
X139273000Y-74928397D01*
X139273000Y-75071603D01*
X139300938Y-75212058D01*
X139355741Y-75344364D01*
X139435302Y-75463436D01*
X139536564Y-75564698D01*
X139655636Y-75644259D01*
X139787942Y-75699062D01*
X139928397Y-75727000D01*
X140071603Y-75727000D01*
X140212058Y-75699062D01*
X140344364Y-75644259D01*
X140463436Y-75564698D01*
X140564698Y-75463436D01*
X140644259Y-75344364D01*
X140699062Y-75212058D01*
X140727000Y-75071603D01*
X140727000Y-74928397D01*
X145273000Y-74928397D01*
X145273000Y-75071603D01*
X145300938Y-75212058D01*
X145355741Y-75344364D01*
X145435302Y-75463436D01*
X145536564Y-75564698D01*
X145655636Y-75644259D01*
X145787942Y-75699062D01*
X145928397Y-75727000D01*
X146071603Y-75727000D01*
X146212058Y-75699062D01*
X146344364Y-75644259D01*
X146463436Y-75564698D01*
X146564698Y-75463436D01*
X146644259Y-75344364D01*
X146699062Y-75212058D01*
X146727000Y-75071603D01*
X146727000Y-74928397D01*
X151273000Y-74928397D01*
X151273000Y-75071603D01*
X151300938Y-75212058D01*
X151355741Y-75344364D01*
X151435302Y-75463436D01*
X151536564Y-75564698D01*
X151655636Y-75644259D01*
X151787942Y-75699062D01*
X151928397Y-75727000D01*
X152071603Y-75727000D01*
X152212058Y-75699062D01*
X152344364Y-75644259D01*
X152463436Y-75564698D01*
X152564698Y-75463436D01*
X152644259Y-75344364D01*
X152699062Y-75212058D01*
X152727000Y-75071603D01*
X152727000Y-74928397D01*
X157273000Y-74928397D01*
X157273000Y-75071603D01*
X157300938Y-75212058D01*
X157355741Y-75344364D01*
X157435302Y-75463436D01*
X157536564Y-75564698D01*
X157655636Y-75644259D01*
X157787942Y-75699062D01*
X157928397Y-75727000D01*
X158071603Y-75727000D01*
X158212058Y-75699062D01*
X158344364Y-75644259D01*
X158463436Y-75564698D01*
X158564698Y-75463436D01*
X158644259Y-75344364D01*
X158699062Y-75212058D01*
X158727000Y-75071603D01*
X158727000Y-74928397D01*
X163273000Y-74928397D01*
X163273000Y-75071603D01*
X163300938Y-75212058D01*
X163355741Y-75344364D01*
X163435302Y-75463436D01*
X163536564Y-75564698D01*
X163655636Y-75644259D01*
X163787942Y-75699062D01*
X163928397Y-75727000D01*
X164071603Y-75727000D01*
X164212058Y-75699062D01*
X164344364Y-75644259D01*
X164463436Y-75564698D01*
X164564698Y-75463436D01*
X164644259Y-75344364D01*
X164699062Y-75212058D01*
X164727000Y-75071603D01*
X164727000Y-74928397D01*
X169273000Y-74928397D01*
X169273000Y-75071603D01*
X169300938Y-75212058D01*
X169355741Y-75344364D01*
X169435302Y-75463436D01*
X169536564Y-75564698D01*
X169655636Y-75644259D01*
X169787942Y-75699062D01*
X169928397Y-75727000D01*
X170071603Y-75727000D01*
X170212058Y-75699062D01*
X170344364Y-75644259D01*
X170463436Y-75564698D01*
X170564698Y-75463436D01*
X170644259Y-75344364D01*
X170699062Y-75212058D01*
X170727000Y-75071603D01*
X170727000Y-74928397D01*
X175273000Y-74928397D01*
X175273000Y-75071603D01*
X175300938Y-75212058D01*
X175355741Y-75344364D01*
X175435302Y-75463436D01*
X175536564Y-75564698D01*
X175655636Y-75644259D01*
X175787942Y-75699062D01*
X175928397Y-75727000D01*
X176071603Y-75727000D01*
X176212058Y-75699062D01*
X176344364Y-75644259D01*
X176463436Y-75564698D01*
X176564698Y-75463436D01*
X176644259Y-75344364D01*
X176699062Y-75212058D01*
X176727000Y-75071603D01*
X176727000Y-74928397D01*
X181273000Y-74928397D01*
X181273000Y-75071603D01*
X181300938Y-75212058D01*
X181355741Y-75344364D01*
X181435302Y-75463436D01*
X181536564Y-75564698D01*
X181655636Y-75644259D01*
X181787942Y-75699062D01*
X181928397Y-75727000D01*
X182071603Y-75727000D01*
X182212058Y-75699062D01*
X182344364Y-75644259D01*
X182463436Y-75564698D01*
X182564698Y-75463436D01*
X182644259Y-75344364D01*
X182699062Y-75212058D01*
X182727000Y-75071603D01*
X182727000Y-74928397D01*
X187273000Y-74928397D01*
X187273000Y-75071603D01*
X187300938Y-75212058D01*
X187355741Y-75344364D01*
X187435302Y-75463436D01*
X187536564Y-75564698D01*
X187655636Y-75644259D01*
X187787942Y-75699062D01*
X187928397Y-75727000D01*
X188071603Y-75727000D01*
X188212058Y-75699062D01*
X188344364Y-75644259D01*
X188463436Y-75564698D01*
X188564698Y-75463436D01*
X188644259Y-75344364D01*
X188699062Y-75212058D01*
X188727000Y-75071603D01*
X188727000Y-74928397D01*
X193273000Y-74928397D01*
X193273000Y-75071603D01*
X193300938Y-75212058D01*
X193355741Y-75344364D01*
X193435302Y-75463436D01*
X193536564Y-75564698D01*
X193655636Y-75644259D01*
X193787942Y-75699062D01*
X193928397Y-75727000D01*
X194071603Y-75727000D01*
X194212058Y-75699062D01*
X194344364Y-75644259D01*
X194463436Y-75564698D01*
X194564698Y-75463436D01*
X194644259Y-75344364D01*
X194699062Y-75212058D01*
X194727000Y-75071603D01*
X194727000Y-74928397D01*
X199273000Y-74928397D01*
X199273000Y-75071603D01*
X199300938Y-75212058D01*
X199355741Y-75344364D01*
X199435302Y-75463436D01*
X199536564Y-75564698D01*
X199655636Y-75644259D01*
X199787942Y-75699062D01*
X199928397Y-75727000D01*
X200071603Y-75727000D01*
X200212058Y-75699062D01*
X200344364Y-75644259D01*
X200463436Y-75564698D01*
X200564698Y-75463436D01*
X200644259Y-75344364D01*
X200699062Y-75212058D01*
X200727000Y-75071603D01*
X200727000Y-74928397D01*
X205273000Y-74928397D01*
X205273000Y-75071603D01*
X205300938Y-75212058D01*
X205355741Y-75344364D01*
X205435302Y-75463436D01*
X205536564Y-75564698D01*
X205655636Y-75644259D01*
X205787942Y-75699062D01*
X205928397Y-75727000D01*
X206071603Y-75727000D01*
X206212058Y-75699062D01*
X206344364Y-75644259D01*
X206463436Y-75564698D01*
X206564698Y-75463436D01*
X206644259Y-75344364D01*
X206699062Y-75212058D01*
X206727000Y-75071603D01*
X206727000Y-74928397D01*
X211273000Y-74928397D01*
X211273000Y-75071603D01*
X211300938Y-75212058D01*
X211355741Y-75344364D01*
X211435302Y-75463436D01*
X211536564Y-75564698D01*
X211655636Y-75644259D01*
X211787942Y-75699062D01*
X211928397Y-75727000D01*
X212071603Y-75727000D01*
X212212058Y-75699062D01*
X212344364Y-75644259D01*
X212463436Y-75564698D01*
X212564698Y-75463436D01*
X212644259Y-75344364D01*
X212699062Y-75212058D01*
X212727000Y-75071603D01*
X212727000Y-74928397D01*
X217273000Y-74928397D01*
X217273000Y-75071603D01*
X217300938Y-75212058D01*
X217355741Y-75344364D01*
X217435302Y-75463436D01*
X217536564Y-75564698D01*
X217655636Y-75644259D01*
X217787942Y-75699062D01*
X217928397Y-75727000D01*
X218071603Y-75727000D01*
X218212058Y-75699062D01*
X218344364Y-75644259D01*
X218463436Y-75564698D01*
X218564698Y-75463436D01*
X218644259Y-75344364D01*
X218699062Y-75212058D01*
X218727000Y-75071603D01*
X218727000Y-74928397D01*
X223273000Y-74928397D01*
X223273000Y-75071603D01*
X223300938Y-75212058D01*
X223355741Y-75344364D01*
X223435302Y-75463436D01*
X223536564Y-75564698D01*
X223655636Y-75644259D01*
X223787942Y-75699062D01*
X223928397Y-75727000D01*
X224071603Y-75727000D01*
X224212058Y-75699062D01*
X224344364Y-75644259D01*
X224463436Y-75564698D01*
X224564698Y-75463436D01*
X224644259Y-75344364D01*
X224699062Y-75212058D01*
X224727000Y-75071603D01*
X224727000Y-74928397D01*
X229273000Y-74928397D01*
X229273000Y-75071603D01*
X229300938Y-75212058D01*
X229355741Y-75344364D01*
X229435302Y-75463436D01*
X229536564Y-75564698D01*
X229655636Y-75644259D01*
X229787942Y-75699062D01*
X229928397Y-75727000D01*
X230071603Y-75727000D01*
X230212058Y-75699062D01*
X230344364Y-75644259D01*
X230463436Y-75564698D01*
X230564698Y-75463436D01*
X230644259Y-75344364D01*
X230699062Y-75212058D01*
X230727000Y-75071603D01*
X230727000Y-74928397D01*
X230699062Y-74787942D01*
X230644259Y-74655636D01*
X230564698Y-74536564D01*
X230463436Y-74435302D01*
X230344364Y-74355741D01*
X230212058Y-74300938D01*
X230071603Y-74273000D01*
X229928397Y-74273000D01*
X229787942Y-74300938D01*
X229655636Y-74355741D01*
X229536564Y-74435302D01*
X229435302Y-74536564D01*
X229355741Y-74655636D01*
X229300938Y-74787942D01*
X229273000Y-74928397D01*
X224727000Y-74928397D01*
X224699062Y-74787942D01*
X224644259Y-74655636D01*
X224564698Y-74536564D01*
X224463436Y-74435302D01*
X224344364Y-74355741D01*
X224212058Y-74300938D01*
X224071603Y-74273000D01*
X223928397Y-74273000D01*
X223787942Y-74300938D01*
X223655636Y-74355741D01*
X223536564Y-74435302D01*
X223435302Y-74536564D01*
X223355741Y-74655636D01*
X223300938Y-74787942D01*
X223273000Y-74928397D01*
X218727000Y-74928397D01*
X218699062Y-74787942D01*
X218644259Y-74655636D01*
X218564698Y-74536564D01*
X218463436Y-74435302D01*
X218344364Y-74355741D01*
X218212058Y-74300938D01*
X218071603Y-74273000D01*
X217928397Y-74273000D01*
X217787942Y-74300938D01*
X217655636Y-74355741D01*
X217536564Y-74435302D01*
X217435302Y-74536564D01*
X217355741Y-74655636D01*
X217300938Y-74787942D01*
X217273000Y-74928397D01*
X212727000Y-74928397D01*
X212699062Y-74787942D01*
X212644259Y-74655636D01*
X212564698Y-74536564D01*
X212463436Y-74435302D01*
X212344364Y-74355741D01*
X212212058Y-74300938D01*
X212071603Y-74273000D01*
X211928397Y-74273000D01*
X211787942Y-74300938D01*
X211655636Y-74355741D01*
X211536564Y-74435302D01*
X211435302Y-74536564D01*
X211355741Y-74655636D01*
X211300938Y-74787942D01*
X211273000Y-74928397D01*
X206727000Y-74928397D01*
X206699062Y-74787942D01*
X206644259Y-74655636D01*
X206564698Y-74536564D01*
X206463436Y-74435302D01*
X206344364Y-74355741D01*
X206212058Y-74300938D01*
X206071603Y-74273000D01*
X205928397Y-74273000D01*
X205787942Y-74300938D01*
X205655636Y-74355741D01*
X205536564Y-74435302D01*
X205435302Y-74536564D01*
X205355741Y-74655636D01*
X205300938Y-74787942D01*
X205273000Y-74928397D01*
X200727000Y-74928397D01*
X200699062Y-74787942D01*
X200644259Y-74655636D01*
X200564698Y-74536564D01*
X200463436Y-74435302D01*
X200344364Y-74355741D01*
X200212058Y-74300938D01*
X200071603Y-74273000D01*
X199928397Y-74273000D01*
X199787942Y-74300938D01*
X199655636Y-74355741D01*
X199536564Y-74435302D01*
X199435302Y-74536564D01*
X199355741Y-74655636D01*
X199300938Y-74787942D01*
X199273000Y-74928397D01*
X194727000Y-74928397D01*
X194699062Y-74787942D01*
X194644259Y-74655636D01*
X194564698Y-74536564D01*
X194463436Y-74435302D01*
X194344364Y-74355741D01*
X194212058Y-74300938D01*
X194071603Y-74273000D01*
X193928397Y-74273000D01*
X193787942Y-74300938D01*
X193655636Y-74355741D01*
X193536564Y-74435302D01*
X193435302Y-74536564D01*
X193355741Y-74655636D01*
X193300938Y-74787942D01*
X193273000Y-74928397D01*
X188727000Y-74928397D01*
X188699062Y-74787942D01*
X188644259Y-74655636D01*
X188564698Y-74536564D01*
X188463436Y-74435302D01*
X188344364Y-74355741D01*
X188212058Y-74300938D01*
X188071603Y-74273000D01*
X187928397Y-74273000D01*
X187787942Y-74300938D01*
X187655636Y-74355741D01*
X187536564Y-74435302D01*
X187435302Y-74536564D01*
X187355741Y-74655636D01*
X187300938Y-74787942D01*
X187273000Y-74928397D01*
X182727000Y-74928397D01*
X182699062Y-74787942D01*
X182644259Y-74655636D01*
X182564698Y-74536564D01*
X182463436Y-74435302D01*
X182344364Y-74355741D01*
X182212058Y-74300938D01*
X182071603Y-74273000D01*
X181928397Y-74273000D01*
X181787942Y-74300938D01*
X181655636Y-74355741D01*
X181536564Y-74435302D01*
X181435302Y-74536564D01*
X181355741Y-74655636D01*
X181300938Y-74787942D01*
X181273000Y-74928397D01*
X176727000Y-74928397D01*
X176699062Y-74787942D01*
X176644259Y-74655636D01*
X176564698Y-74536564D01*
X176463436Y-74435302D01*
X176344364Y-74355741D01*
X176212058Y-74300938D01*
X176071603Y-74273000D01*
X175928397Y-74273000D01*
X175787942Y-74300938D01*
X175655636Y-74355741D01*
X175536564Y-74435302D01*
X175435302Y-74536564D01*
X175355741Y-74655636D01*
X175300938Y-74787942D01*
X175273000Y-74928397D01*
X170727000Y-74928397D01*
X170699062Y-74787942D01*
X170644259Y-74655636D01*
X170564698Y-74536564D01*
X170463436Y-74435302D01*
X170344364Y-74355741D01*
X170212058Y-74300938D01*
X170071603Y-74273000D01*
X169928397Y-74273000D01*
X169787942Y-74300938D01*
X169655636Y-74355741D01*
X169536564Y-74435302D01*
X169435302Y-74536564D01*
X169355741Y-74655636D01*
X169300938Y-74787942D01*
X169273000Y-74928397D01*
X164727000Y-74928397D01*
X164699062Y-74787942D01*
X164644259Y-74655636D01*
X164564698Y-74536564D01*
X164463436Y-74435302D01*
X164344364Y-74355741D01*
X164212058Y-74300938D01*
X164071603Y-74273000D01*
X163928397Y-74273000D01*
X163787942Y-74300938D01*
X163655636Y-74355741D01*
X163536564Y-74435302D01*
X163435302Y-74536564D01*
X163355741Y-74655636D01*
X163300938Y-74787942D01*
X163273000Y-74928397D01*
X158727000Y-74928397D01*
X158699062Y-74787942D01*
X158644259Y-74655636D01*
X158564698Y-74536564D01*
X158463436Y-74435302D01*
X158344364Y-74355741D01*
X158212058Y-74300938D01*
X158071603Y-74273000D01*
X157928397Y-74273000D01*
X157787942Y-74300938D01*
X157655636Y-74355741D01*
X157536564Y-74435302D01*
X157435302Y-74536564D01*
X157355741Y-74655636D01*
X157300938Y-74787942D01*
X157273000Y-74928397D01*
X152727000Y-74928397D01*
X152699062Y-74787942D01*
X152644259Y-74655636D01*
X152564698Y-74536564D01*
X152463436Y-74435302D01*
X152344364Y-74355741D01*
X152212058Y-74300938D01*
X152071603Y-74273000D01*
X151928397Y-74273000D01*
X151787942Y-74300938D01*
X151655636Y-74355741D01*
X151536564Y-74435302D01*
X151435302Y-74536564D01*
X151355741Y-74655636D01*
X151300938Y-74787942D01*
X151273000Y-74928397D01*
X146727000Y-74928397D01*
X146699062Y-74787942D01*
X146644259Y-74655636D01*
X146564698Y-74536564D01*
X146463436Y-74435302D01*
X146344364Y-74355741D01*
X146212058Y-74300938D01*
X146071603Y-74273000D01*
X145928397Y-74273000D01*
X145787942Y-74300938D01*
X145655636Y-74355741D01*
X145536564Y-74435302D01*
X145435302Y-74536564D01*
X145355741Y-74655636D01*
X145300938Y-74787942D01*
X145273000Y-74928397D01*
X140727000Y-74928397D01*
X140699062Y-74787942D01*
X140644259Y-74655636D01*
X140564698Y-74536564D01*
X140463436Y-74435302D01*
X140344364Y-74355741D01*
X140212058Y-74300938D01*
X140071603Y-74273000D01*
X139928397Y-74273000D01*
X139787942Y-74300938D01*
X139655636Y-74355741D01*
X139536564Y-74435302D01*
X139435302Y-74536564D01*
X139355741Y-74655636D01*
X139300938Y-74787942D01*
X139273000Y-74928397D01*
X134727000Y-74928397D01*
X134699062Y-74787942D01*
X134644259Y-74655636D01*
X134564698Y-74536564D01*
X134463436Y-74435302D01*
X134344364Y-74355741D01*
X134212058Y-74300938D01*
X134071603Y-74273000D01*
X133928397Y-74273000D01*
X133787942Y-74300938D01*
X133655636Y-74355741D01*
X133536564Y-74435302D01*
X133435302Y-74536564D01*
X133355741Y-74655636D01*
X133300938Y-74787942D01*
X133273000Y-74928397D01*
X130377000Y-74928397D01*
X130377000Y-62928397D01*
X133273000Y-62928397D01*
X133273000Y-63071603D01*
X133300938Y-63212058D01*
X133355741Y-63344364D01*
X133435302Y-63463436D01*
X133536564Y-63564698D01*
X133655636Y-63644259D01*
X133787942Y-63699062D01*
X133928397Y-63727000D01*
X134071603Y-63727000D01*
X134212058Y-63699062D01*
X134344364Y-63644259D01*
X134463436Y-63564698D01*
X134564698Y-63463436D01*
X134644259Y-63344364D01*
X134699062Y-63212058D01*
X134727000Y-63071603D01*
X134727000Y-62928399D01*
X139273000Y-62928399D01*
X139273000Y-63071605D01*
X139300938Y-63212060D01*
X139355741Y-63344366D01*
X139435302Y-63463438D01*
X139536564Y-63564700D01*
X139655636Y-63644261D01*
X139787942Y-63699064D01*
X139928397Y-63727002D01*
X140071603Y-63727002D01*
X140212058Y-63699064D01*
X140344364Y-63644261D01*
X140463436Y-63564700D01*
X140564698Y-63463438D01*
X140644259Y-63344366D01*
X140699062Y-63212060D01*
X140727000Y-63071605D01*
X140727000Y-62928399D01*
X140727000Y-62928397D01*
X145273000Y-62928397D01*
X145273000Y-63071603D01*
X145300938Y-63212058D01*
X145355741Y-63344364D01*
X145435302Y-63463436D01*
X145536564Y-63564698D01*
X145655636Y-63644259D01*
X145787942Y-63699062D01*
X145928397Y-63727000D01*
X146071603Y-63727000D01*
X146212058Y-63699062D01*
X146344364Y-63644259D01*
X146463436Y-63564698D01*
X146564698Y-63463436D01*
X146644259Y-63344364D01*
X146699062Y-63212058D01*
X146727000Y-63071603D01*
X146727000Y-62928397D01*
X151273000Y-62928397D01*
X151273000Y-63071603D01*
X151300938Y-63212058D01*
X151355741Y-63344364D01*
X151435302Y-63463436D01*
X151536564Y-63564698D01*
X151655636Y-63644259D01*
X151787942Y-63699062D01*
X151928397Y-63727000D01*
X152071603Y-63727000D01*
X152212058Y-63699062D01*
X152344364Y-63644259D01*
X152463436Y-63564698D01*
X152564698Y-63463436D01*
X152644259Y-63344364D01*
X152699062Y-63212058D01*
X152727000Y-63071603D01*
X152727000Y-62928397D01*
X157272994Y-62928397D01*
X157272994Y-63071603D01*
X157300932Y-63212058D01*
X157355735Y-63344364D01*
X157435296Y-63463436D01*
X157536558Y-63564698D01*
X157655630Y-63644259D01*
X157787936Y-63699062D01*
X157928391Y-63727000D01*
X158071597Y-63727000D01*
X158212052Y-63699062D01*
X158344358Y-63644259D01*
X158463430Y-63564698D01*
X158564692Y-63463436D01*
X158644253Y-63344364D01*
X158699056Y-63212058D01*
X158726994Y-63071603D01*
X158726994Y-62928397D01*
X163273000Y-62928397D01*
X163273000Y-63071603D01*
X163300938Y-63212058D01*
X163355741Y-63344364D01*
X163435302Y-63463436D01*
X163536564Y-63564698D01*
X163655636Y-63644259D01*
X163787942Y-63699062D01*
X163928397Y-63727000D01*
X164071603Y-63727000D01*
X164212058Y-63699062D01*
X164344364Y-63644259D01*
X164463436Y-63564698D01*
X164564698Y-63463436D01*
X164644259Y-63344364D01*
X164699062Y-63212058D01*
X164727000Y-63071603D01*
X164727000Y-62928397D01*
X169273000Y-62928397D01*
X169273000Y-63071603D01*
X169300938Y-63212058D01*
X169355741Y-63344364D01*
X169435302Y-63463436D01*
X169536564Y-63564698D01*
X169655636Y-63644259D01*
X169787942Y-63699062D01*
X169928397Y-63727000D01*
X170071603Y-63727000D01*
X170212058Y-63699062D01*
X170344364Y-63644259D01*
X170463436Y-63564698D01*
X170564698Y-63463436D01*
X170644259Y-63344364D01*
X170699062Y-63212058D01*
X170727000Y-63071603D01*
X170727000Y-62928397D01*
X170726999Y-62928391D01*
X175273000Y-62928391D01*
X175273000Y-63071597D01*
X175300938Y-63212052D01*
X175355741Y-63344358D01*
X175435302Y-63463430D01*
X175536564Y-63564692D01*
X175655636Y-63644253D01*
X175787942Y-63699056D01*
X175928397Y-63726994D01*
X176071603Y-63726994D01*
X176212058Y-63699056D01*
X176344364Y-63644253D01*
X176463436Y-63564692D01*
X176564698Y-63463430D01*
X176644259Y-63344358D01*
X176699062Y-63212052D01*
X176727000Y-63071597D01*
X176727000Y-62928397D01*
X181273000Y-62928397D01*
X181273000Y-63071603D01*
X181300938Y-63212058D01*
X181355741Y-63344364D01*
X181435302Y-63463436D01*
X181536564Y-63564698D01*
X181655636Y-63644259D01*
X181787942Y-63699062D01*
X181928397Y-63727000D01*
X182071603Y-63727000D01*
X182212058Y-63699062D01*
X182344364Y-63644259D01*
X182463436Y-63564698D01*
X182564698Y-63463436D01*
X182644259Y-63344364D01*
X182699062Y-63212058D01*
X182727000Y-63071603D01*
X182727000Y-62928397D01*
X187273008Y-62928397D01*
X187273008Y-63071603D01*
X187300946Y-63212058D01*
X187355749Y-63344364D01*
X187435310Y-63463436D01*
X187536572Y-63564698D01*
X187655644Y-63644259D01*
X187787950Y-63699062D01*
X187928405Y-63727000D01*
X188071611Y-63727000D01*
X188212066Y-63699062D01*
X188344372Y-63644259D01*
X188463444Y-63564698D01*
X188564706Y-63463436D01*
X188644267Y-63344364D01*
X188699070Y-63212058D01*
X188727008Y-63071603D01*
X188727008Y-62928397D01*
X193273000Y-62928397D01*
X193273000Y-63071603D01*
X193300938Y-63212058D01*
X193355741Y-63344364D01*
X193435302Y-63463436D01*
X193536564Y-63564698D01*
X193655636Y-63644259D01*
X193787942Y-63699062D01*
X193928397Y-63727000D01*
X194071603Y-63727000D01*
X194212058Y-63699062D01*
X194344364Y-63644259D01*
X194463436Y-63564698D01*
X194564698Y-63463436D01*
X194644259Y-63344364D01*
X194699062Y-63212058D01*
X194727000Y-63071603D01*
X194727000Y-62928397D01*
X194726999Y-62928387D01*
X199273000Y-62928387D01*
X199273000Y-63071593D01*
X199300938Y-63212048D01*
X199355741Y-63344354D01*
X199435302Y-63463426D01*
X199536564Y-63564688D01*
X199655636Y-63644249D01*
X199787942Y-63699052D01*
X199928397Y-63726990D01*
X200071603Y-63726990D01*
X200212058Y-63699052D01*
X200344364Y-63644249D01*
X200463436Y-63564688D01*
X200564698Y-63463426D01*
X200644259Y-63344354D01*
X200699062Y-63212048D01*
X200727000Y-63071593D01*
X200727000Y-62928397D01*
X205273000Y-62928397D01*
X205273000Y-63071603D01*
X205300938Y-63212058D01*
X205355741Y-63344364D01*
X205435302Y-63463436D01*
X205536564Y-63564698D01*
X205655636Y-63644259D01*
X205787942Y-63699062D01*
X205928397Y-63727000D01*
X206071603Y-63727000D01*
X206212058Y-63699062D01*
X206344364Y-63644259D01*
X206463436Y-63564698D01*
X206564698Y-63463436D01*
X206644259Y-63344364D01*
X206699062Y-63212058D01*
X206727000Y-63071603D01*
X206727000Y-62928397D01*
X211273000Y-62928397D01*
X211273000Y-63071603D01*
X211300938Y-63212058D01*
X211355741Y-63344364D01*
X211435302Y-63463436D01*
X211536564Y-63564698D01*
X211655636Y-63644259D01*
X211787942Y-63699062D01*
X211928397Y-63727000D01*
X212071603Y-63727000D01*
X212212058Y-63699062D01*
X212344364Y-63644259D01*
X212463436Y-63564698D01*
X212564698Y-63463436D01*
X212644259Y-63344364D01*
X212699062Y-63212058D01*
X212727000Y-63071603D01*
X212727000Y-62928407D01*
X217273000Y-62928407D01*
X217273000Y-63071613D01*
X217300938Y-63212068D01*
X217355741Y-63344374D01*
X217435302Y-63463446D01*
X217536564Y-63564708D01*
X217655636Y-63644269D01*
X217787942Y-63699072D01*
X217928397Y-63727010D01*
X218071603Y-63727010D01*
X218212058Y-63699072D01*
X218344364Y-63644269D01*
X218463436Y-63564708D01*
X218564698Y-63463446D01*
X218644259Y-63344374D01*
X218699062Y-63212068D01*
X218727000Y-63071613D01*
X218727000Y-62928407D01*
X218727000Y-62928403D01*
X223273000Y-62928403D01*
X223273000Y-63071609D01*
X223300938Y-63212064D01*
X223355741Y-63344370D01*
X223435302Y-63463442D01*
X223536564Y-63564704D01*
X223655636Y-63644265D01*
X223787942Y-63699068D01*
X223928397Y-63727006D01*
X224071603Y-63727006D01*
X224212058Y-63699068D01*
X224344364Y-63644265D01*
X224463436Y-63564704D01*
X224564698Y-63463442D01*
X224644259Y-63344370D01*
X224699062Y-63212064D01*
X224727000Y-63071609D01*
X224727000Y-62928403D01*
X224726999Y-62928397D01*
X229273000Y-62928397D01*
X229273000Y-63071603D01*
X229300938Y-63212058D01*
X229355741Y-63344364D01*
X229435302Y-63463436D01*
X229536564Y-63564698D01*
X229655636Y-63644259D01*
X229787942Y-63699062D01*
X229928397Y-63727000D01*
X230071603Y-63727000D01*
X230212058Y-63699062D01*
X230344364Y-63644259D01*
X230463436Y-63564698D01*
X230564698Y-63463436D01*
X230644259Y-63344364D01*
X230699062Y-63212058D01*
X230727000Y-63071603D01*
X230727000Y-62928397D01*
X230699062Y-62787942D01*
X230644259Y-62655636D01*
X230564698Y-62536564D01*
X230463436Y-62435302D01*
X230344364Y-62355741D01*
X230212058Y-62300938D01*
X230071603Y-62273000D01*
X229928397Y-62273000D01*
X229787942Y-62300938D01*
X229655636Y-62355741D01*
X229536564Y-62435302D01*
X229435302Y-62536564D01*
X229355741Y-62655636D01*
X229300938Y-62787942D01*
X229273000Y-62928397D01*
X224726999Y-62928397D01*
X224699062Y-62787948D01*
X224644259Y-62655642D01*
X224564698Y-62536570D01*
X224463436Y-62435308D01*
X224344364Y-62355747D01*
X224212058Y-62300944D01*
X224071603Y-62273006D01*
X223928397Y-62273006D01*
X223787942Y-62300944D01*
X223655636Y-62355747D01*
X223536564Y-62435308D01*
X223435302Y-62536570D01*
X223355741Y-62655642D01*
X223300938Y-62787948D01*
X223273000Y-62928403D01*
X218727000Y-62928403D01*
X218699062Y-62787952D01*
X218644259Y-62655646D01*
X218564698Y-62536574D01*
X218463436Y-62435312D01*
X218344364Y-62355751D01*
X218212058Y-62300948D01*
X218071603Y-62273010D01*
X217928397Y-62273010D01*
X217787942Y-62300948D01*
X217655636Y-62355751D01*
X217536564Y-62435312D01*
X217435302Y-62536574D01*
X217355741Y-62655646D01*
X217300938Y-62787952D01*
X217273000Y-62928407D01*
X212727000Y-62928407D01*
X212727000Y-62928397D01*
X212699062Y-62787942D01*
X212644259Y-62655636D01*
X212564698Y-62536564D01*
X212463436Y-62435302D01*
X212344364Y-62355741D01*
X212212058Y-62300938D01*
X212071603Y-62273000D01*
X211928397Y-62273000D01*
X211787942Y-62300938D01*
X211655636Y-62355741D01*
X211536564Y-62435302D01*
X211435302Y-62536564D01*
X211355741Y-62655636D01*
X211300938Y-62787942D01*
X211273000Y-62928397D01*
X206727000Y-62928397D01*
X206699062Y-62787942D01*
X206644259Y-62655636D01*
X206564698Y-62536564D01*
X206463436Y-62435302D01*
X206344364Y-62355741D01*
X206212058Y-62300938D01*
X206071603Y-62273000D01*
X205928397Y-62273000D01*
X205787942Y-62300938D01*
X205655636Y-62355741D01*
X205536564Y-62435302D01*
X205435302Y-62536564D01*
X205355741Y-62655636D01*
X205300938Y-62787942D01*
X205273000Y-62928397D01*
X200727000Y-62928397D01*
X200727000Y-62928387D01*
X200699062Y-62787932D01*
X200644259Y-62655626D01*
X200564698Y-62536554D01*
X200463436Y-62435292D01*
X200344364Y-62355731D01*
X200212058Y-62300928D01*
X200071603Y-62272990D01*
X199928397Y-62272990D01*
X199787942Y-62300928D01*
X199655636Y-62355731D01*
X199536564Y-62435292D01*
X199435302Y-62536554D01*
X199355741Y-62655626D01*
X199300938Y-62787932D01*
X199273000Y-62928387D01*
X194726999Y-62928387D01*
X194699062Y-62787942D01*
X194644259Y-62655636D01*
X194564698Y-62536564D01*
X194463436Y-62435302D01*
X194344364Y-62355741D01*
X194212058Y-62300938D01*
X194071603Y-62273000D01*
X193928397Y-62273000D01*
X193787942Y-62300938D01*
X193655636Y-62355741D01*
X193536564Y-62435302D01*
X193435302Y-62536564D01*
X193355741Y-62655636D01*
X193300938Y-62787942D01*
X193273000Y-62928397D01*
X188727008Y-62928397D01*
X188699070Y-62787942D01*
X188644267Y-62655636D01*
X188564706Y-62536564D01*
X188463444Y-62435302D01*
X188344372Y-62355741D01*
X188212066Y-62300938D01*
X188071611Y-62273000D01*
X187928405Y-62273000D01*
X187787950Y-62300938D01*
X187655644Y-62355741D01*
X187536572Y-62435302D01*
X187435310Y-62536564D01*
X187355749Y-62655636D01*
X187300946Y-62787942D01*
X187273008Y-62928397D01*
X182727000Y-62928397D01*
X182699062Y-62787942D01*
X182644259Y-62655636D01*
X182564698Y-62536564D01*
X182463436Y-62435302D01*
X182344364Y-62355741D01*
X182212058Y-62300938D01*
X182071603Y-62273000D01*
X181928397Y-62273000D01*
X181787942Y-62300938D01*
X181655636Y-62355741D01*
X181536564Y-62435302D01*
X181435302Y-62536564D01*
X181355741Y-62655636D01*
X181300938Y-62787942D01*
X181273000Y-62928397D01*
X176727000Y-62928397D01*
X176727000Y-62928391D01*
X176699062Y-62787936D01*
X176644259Y-62655630D01*
X176564698Y-62536558D01*
X176463436Y-62435296D01*
X176344364Y-62355735D01*
X176212058Y-62300932D01*
X176071603Y-62272994D01*
X175928397Y-62272994D01*
X175787942Y-62300932D01*
X175655636Y-62355735D01*
X175536564Y-62435296D01*
X175435302Y-62536558D01*
X175355741Y-62655630D01*
X175300938Y-62787936D01*
X175273000Y-62928391D01*
X170726999Y-62928391D01*
X170699062Y-62787942D01*
X170644259Y-62655636D01*
X170564698Y-62536564D01*
X170463436Y-62435302D01*
X170344364Y-62355741D01*
X170212058Y-62300938D01*
X170071603Y-62273000D01*
X169928397Y-62273000D01*
X169787942Y-62300938D01*
X169655636Y-62355741D01*
X169536564Y-62435302D01*
X169435302Y-62536564D01*
X169355741Y-62655636D01*
X169300938Y-62787942D01*
X169273000Y-62928397D01*
X164727000Y-62928397D01*
X164699062Y-62787942D01*
X164644259Y-62655636D01*
X164564698Y-62536564D01*
X164463436Y-62435302D01*
X164344364Y-62355741D01*
X164212058Y-62300938D01*
X164071603Y-62273000D01*
X163928397Y-62273000D01*
X163787942Y-62300938D01*
X163655636Y-62355741D01*
X163536564Y-62435302D01*
X163435302Y-62536564D01*
X163355741Y-62655636D01*
X163300938Y-62787942D01*
X163273000Y-62928397D01*
X158726994Y-62928397D01*
X158699056Y-62787942D01*
X158644253Y-62655636D01*
X158564692Y-62536564D01*
X158463430Y-62435302D01*
X158344358Y-62355741D01*
X158212052Y-62300938D01*
X158071597Y-62273000D01*
X157928391Y-62273000D01*
X157787936Y-62300938D01*
X157655630Y-62355741D01*
X157536558Y-62435302D01*
X157435296Y-62536564D01*
X157355735Y-62655636D01*
X157300932Y-62787942D01*
X157272994Y-62928397D01*
X152727000Y-62928397D01*
X152699062Y-62787942D01*
X152644259Y-62655636D01*
X152564698Y-62536564D01*
X152463436Y-62435302D01*
X152344364Y-62355741D01*
X152212058Y-62300938D01*
X152071603Y-62273000D01*
X151928397Y-62273000D01*
X151787942Y-62300938D01*
X151655636Y-62355741D01*
X151536564Y-62435302D01*
X151435302Y-62536564D01*
X151355741Y-62655636D01*
X151300938Y-62787942D01*
X151273000Y-62928397D01*
X146727000Y-62928397D01*
X146699062Y-62787942D01*
X146644259Y-62655636D01*
X146564698Y-62536564D01*
X146463436Y-62435302D01*
X146344364Y-62355741D01*
X146212058Y-62300938D01*
X146071603Y-62273000D01*
X145928397Y-62273000D01*
X145787942Y-62300938D01*
X145655636Y-62355741D01*
X145536564Y-62435302D01*
X145435302Y-62536564D01*
X145355741Y-62655636D01*
X145300938Y-62787942D01*
X145273000Y-62928397D01*
X140727000Y-62928397D01*
X140699062Y-62787944D01*
X140644259Y-62655638D01*
X140564698Y-62536566D01*
X140463436Y-62435304D01*
X140344364Y-62355743D01*
X140212058Y-62300940D01*
X140071603Y-62273002D01*
X139928397Y-62273002D01*
X139787942Y-62300940D01*
X139655636Y-62355743D01*
X139536564Y-62435304D01*
X139435302Y-62536566D01*
X139355741Y-62655638D01*
X139300938Y-62787944D01*
X139273000Y-62928399D01*
X134727000Y-62928399D01*
X134727000Y-62928397D01*
X134699062Y-62787942D01*
X134644259Y-62655636D01*
X134564698Y-62536564D01*
X134463436Y-62435302D01*
X134344364Y-62355741D01*
X134212058Y-62300938D01*
X134071603Y-62273000D01*
X133928397Y-62273000D01*
X133787942Y-62300938D01*
X133655636Y-62355741D01*
X133536564Y-62435302D01*
X133435302Y-62536564D01*
X133355741Y-62655636D01*
X133300938Y-62787942D01*
X133273000Y-62928397D01*
X130377000Y-62928397D01*
X130377000Y-57127000D01*
X233623000Y-57127000D01*
X233623001Y-91623000D01*
G37*
X233623001Y-91623000D02*
X169984488Y-91623000D01*
X170177519Y-91543044D01*
X170370294Y-91414236D01*
X170534236Y-91250294D01*
X170663044Y-91057519D01*
X170751769Y-90843318D01*
X170797000Y-90615924D01*
X170797000Y-90384076D01*
X170751769Y-90156682D01*
X170663044Y-89942481D01*
X170534236Y-89749706D01*
X170370294Y-89585764D01*
X170177519Y-89456956D01*
X169963318Y-89368231D01*
X169735924Y-89323000D01*
X169504076Y-89323000D01*
X169276682Y-89368231D01*
X169062481Y-89456956D01*
X168869706Y-89585764D01*
X168705764Y-89749706D01*
X168576956Y-89942481D01*
X168488231Y-90156682D01*
X168443000Y-90384076D01*
X168443000Y-90615924D01*
X168488231Y-90843318D01*
X168576956Y-91057519D01*
X168705764Y-91250294D01*
X168869706Y-91414236D01*
X169062481Y-91543044D01*
X169255512Y-91623000D01*
X167444488Y-91623000D01*
X167637519Y-91543044D01*
X167830294Y-91414236D01*
X167994236Y-91250294D01*
X168123044Y-91057519D01*
X168211769Y-90843318D01*
X168257000Y-90615924D01*
X168257000Y-90384076D01*
X168211769Y-90156682D01*
X168123044Y-89942481D01*
X167994236Y-89749706D01*
X167830294Y-89585764D01*
X167637519Y-89456956D01*
X167423318Y-89368231D01*
X167195924Y-89323000D01*
X166964076Y-89323000D01*
X166736682Y-89368231D01*
X166522481Y-89456956D01*
X166329706Y-89585764D01*
X166165764Y-89749706D01*
X166036956Y-89942481D01*
X165948231Y-90156682D01*
X165903000Y-90384076D01*
X165903000Y-90615924D01*
X165948231Y-90843318D01*
X166036956Y-91057519D01*
X166165764Y-91250294D01*
X166329706Y-91414236D01*
X166522481Y-91543044D01*
X166715512Y-91623000D01*
X164904488Y-91623000D01*
X165097519Y-91543044D01*
X165290294Y-91414236D01*
X165454236Y-91250294D01*
X165583044Y-91057519D01*
X165671769Y-90843318D01*
X165717000Y-90615924D01*
X165717000Y-90384076D01*
X165671769Y-90156682D01*
X165583044Y-89942481D01*
X165454236Y-89749706D01*
X165290294Y-89585764D01*
X165097519Y-89456956D01*
X164883318Y-89368231D01*
X164655924Y-89323000D01*
X164424076Y-89323000D01*
X164196682Y-89368231D01*
X163982481Y-89456956D01*
X163789706Y-89585764D01*
X163625764Y-89749706D01*
X163496956Y-89942481D01*
X163408231Y-90156682D01*
X163363000Y-90384076D01*
X163363000Y-90615924D01*
X163408231Y-90843318D01*
X163496956Y-91057519D01*
X163625764Y-91250294D01*
X163789706Y-91414236D01*
X163982481Y-91543044D01*
X164175512Y-91623000D01*
X130377000Y-91623000D01*
X130377000Y-89310207D01*
X130573000Y-89310207D01*
X130573000Y-89689793D01*
X130647053Y-90062085D01*
X130792315Y-90412777D01*
X131003201Y-90728391D01*
X131271609Y-90996799D01*
X131587223Y-91207685D01*
X131937915Y-91352947D01*
X132310207Y-91427000D01*
X132689793Y-91427000D01*
X133062085Y-91352947D01*
X133412777Y-91207685D01*
X133728391Y-90996799D01*
X133996799Y-90728391D01*
X134207685Y-90412777D01*
X134352947Y-90062085D01*
X134427000Y-89689793D01*
X134427000Y-89310207D01*
X134352947Y-88937915D01*
X134314328Y-88844679D01*
X155423000Y-88844679D01*
X155423000Y-89155321D01*
X155483604Y-89459994D01*
X155602481Y-89746989D01*
X155775064Y-90005279D01*
X155994721Y-90224936D01*
X156253011Y-90397519D01*
X156540006Y-90516396D01*
X156844679Y-90577000D01*
X157155321Y-90577000D01*
X157459994Y-90516396D01*
X157746989Y-90397519D01*
X158005279Y-90224936D01*
X158224936Y-90005279D01*
X158397519Y-89746989D01*
X158516396Y-89459994D01*
X158577000Y-89155321D01*
X158577000Y-88844679D01*
X158516396Y-88540006D01*
X158397519Y-88253011D01*
X158224936Y-87994721D01*
X158074291Y-87844076D01*
X160823000Y-87844076D01*
X160823000Y-88075924D01*
X160868231Y-88303318D01*
X160956956Y-88517519D01*
X161085764Y-88710294D01*
X161249706Y-88874236D01*
X161442481Y-89003044D01*
X161656682Y-89091769D01*
X161884076Y-89137000D01*
X162115924Y-89137000D01*
X162343318Y-89091769D01*
X162557519Y-89003044D01*
X162750294Y-88874236D01*
X162914236Y-88710294D01*
X163043044Y-88517519D01*
X163131769Y-88303318D01*
X163177000Y-88075924D01*
X163177000Y-87844076D01*
X163363000Y-87844076D01*
X163363000Y-88075924D01*
X163408231Y-88303318D01*
X163496956Y-88517519D01*
X163625764Y-88710294D01*
X163789706Y-88874236D01*
X163982481Y-89003044D01*
X164196682Y-89091769D01*
X164424076Y-89137000D01*
X164655924Y-89137000D01*
X164883318Y-89091769D01*
X165097519Y-89003044D01*
X165290294Y-88874236D01*
X165454236Y-88710294D01*
X165583044Y-88517519D01*
X165671769Y-88303318D01*
X165717000Y-88075924D01*
X165717000Y-87844076D01*
X165903000Y-87844076D01*
X165903000Y-88075924D01*
X165948231Y-88303318D01*
X166036956Y-88517519D01*
X166165764Y-88710294D01*
X166329706Y-88874236D01*
X166522481Y-89003044D01*
X166736682Y-89091769D01*
X166964076Y-89137000D01*
X167195924Y-89137000D01*
X167423318Y-89091769D01*
X167637519Y-89003044D01*
X167830294Y-88874236D01*
X167994236Y-88710294D01*
X168123044Y-88517519D01*
X168211769Y-88303318D01*
X168257000Y-88075924D01*
X168257000Y-87844076D01*
X168443000Y-87844076D01*
X168443000Y-88075924D01*
X168488231Y-88303318D01*
X168576956Y-88517519D01*
X168705764Y-88710294D01*
X168869706Y-88874236D01*
X169062481Y-89003044D01*
X169276682Y-89091769D01*
X169504076Y-89137000D01*
X169735924Y-89137000D01*
X169963318Y-89091769D01*
X170177519Y-89003044D01*
X170370294Y-88874236D01*
X170399851Y-88844679D01*
X205423000Y-88844679D01*
X205423000Y-89155321D01*
X205483604Y-89459994D01*
X205602481Y-89746989D01*
X205775064Y-90005279D01*
X205994721Y-90224936D01*
X206253011Y-90397519D01*
X206540006Y-90516396D01*
X206844679Y-90577000D01*
X207155321Y-90577000D01*
X207459994Y-90516396D01*
X207746989Y-90397519D01*
X208005279Y-90224936D01*
X208224936Y-90005279D01*
X208397519Y-89746989D01*
X208516396Y-89459994D01*
X208546190Y-89310207D01*
X229573000Y-89310207D01*
X229573000Y-89689793D01*
X229647053Y-90062085D01*
X229792315Y-90412777D01*
X230003201Y-90728391D01*
X230271609Y-90996799D01*
X230587223Y-91207685D01*
X230937915Y-91352947D01*
X231310207Y-91427000D01*
X231689793Y-91427000D01*
X232062085Y-91352947D01*
X232412777Y-91207685D01*
X232728391Y-90996799D01*
X232996799Y-90728391D01*
X233207685Y-90412777D01*
X233352947Y-90062085D01*
X233427000Y-89689793D01*
X233427000Y-89310207D01*
X233352947Y-88937915D01*
X233207685Y-88587223D01*
X232996799Y-88271609D01*
X232728391Y-88003201D01*
X232412777Y-87792315D01*
X232062085Y-87647053D01*
X231689793Y-87573000D01*
X231310207Y-87573000D01*
X230937915Y-87647053D01*
X230587223Y-87792315D01*
X230271609Y-88003201D01*
X230003201Y-88271609D01*
X229792315Y-88587223D01*
X229647053Y-88937915D01*
X229573000Y-89310207D01*
X208546190Y-89310207D01*
X208577000Y-89155321D01*
X208577000Y-88844679D01*
X208516396Y-88540006D01*
X208397519Y-88253011D01*
X208224936Y-87994721D01*
X208005279Y-87775064D01*
X207746989Y-87602481D01*
X207459994Y-87483604D01*
X207155321Y-87423000D01*
X206844679Y-87423000D01*
X206540006Y-87483604D01*
X206253011Y-87602481D01*
X205994721Y-87775064D01*
X205775064Y-87994721D01*
X205602481Y-88253011D01*
X205483604Y-88540006D01*
X205423000Y-88844679D01*
X170399851Y-88844679D01*
X170534236Y-88710294D01*
X170663044Y-88517519D01*
X170751769Y-88303318D01*
X170797000Y-88075924D01*
X170797000Y-87844076D01*
X170751769Y-87616682D01*
X170663044Y-87402481D01*
X170534236Y-87209706D01*
X170370294Y-87045764D01*
X170177519Y-86916956D01*
X169963318Y-86828231D01*
X169735924Y-86783000D01*
X169504076Y-86783000D01*
X169276682Y-86828231D01*
X169062481Y-86916956D01*
X168869706Y-87045764D01*
X168705764Y-87209706D01*
X168576956Y-87402481D01*
X168488231Y-87616682D01*
X168443000Y-87844076D01*
X168257000Y-87844076D01*
X168211769Y-87616682D01*
X168123044Y-87402481D01*
X167994236Y-87209706D01*
X167830294Y-87045764D01*
X167637519Y-86916956D01*
X167423318Y-86828231D01*
X167195924Y-86783000D01*
X166964076Y-86783000D01*
X166736682Y-86828231D01*
X166522481Y-86916956D01*
X166329706Y-87045764D01*
X166165764Y-87209706D01*
X166036956Y-87402481D01*
X165948231Y-87616682D01*
X165903000Y-87844076D01*
X165717000Y-87844076D01*
X165671769Y-87616682D01*
X165583044Y-87402481D01*
X165454236Y-87209706D01*
X165290294Y-87045764D01*
X165097519Y-86916956D01*
X164883318Y-86828231D01*
X164655924Y-86783000D01*
X164424076Y-86783000D01*
X164196682Y-86828231D01*
X163982481Y-86916956D01*
X163789706Y-87045764D01*
X163625764Y-87209706D01*
X163496956Y-87402481D01*
X163408231Y-87616682D01*
X163363000Y-87844076D01*
X163177000Y-87844076D01*
X163131769Y-87616682D01*
X163043044Y-87402481D01*
X162914236Y-87209706D01*
X162750294Y-87045764D01*
X162557519Y-86916956D01*
X162343318Y-86828231D01*
X162115924Y-86783000D01*
X161884076Y-86783000D01*
X161656682Y-86828231D01*
X161442481Y-86916956D01*
X161249706Y-87045764D01*
X161085764Y-87209706D01*
X160956956Y-87402481D01*
X160868231Y-87616682D01*
X160823000Y-87844076D01*
X158074291Y-87844076D01*
X158005279Y-87775064D01*
X157746989Y-87602481D01*
X157459994Y-87483604D01*
X157155321Y-87423000D01*
X156844679Y-87423000D01*
X156540006Y-87483604D01*
X156253011Y-87602481D01*
X155994721Y-87775064D01*
X155775064Y-87994721D01*
X155602481Y-88253011D01*
X155483604Y-88540006D01*
X155423000Y-88844679D01*
X134314328Y-88844679D01*
X134207685Y-88587223D01*
X133996799Y-88271609D01*
X133728391Y-88003201D01*
X133412777Y-87792315D01*
X133062085Y-87647053D01*
X132689793Y-87573000D01*
X132310207Y-87573000D01*
X131937915Y-87647053D01*
X131587223Y-87792315D01*
X131271609Y-88003201D01*
X131003201Y-88271609D01*
X130792315Y-88587223D01*
X130647053Y-88937915D01*
X130573000Y-89310207D01*
X130377000Y-89310207D01*
X130377000Y-85653376D01*
X133273000Y-85653376D01*
X133273000Y-85796582D01*
X133300938Y-85937037D01*
X133355741Y-86069343D01*
X133435302Y-86188415D01*
X133536564Y-86289677D01*
X133655636Y-86369238D01*
X133787942Y-86424041D01*
X133928397Y-86451979D01*
X134071603Y-86451979D01*
X134212058Y-86424041D01*
X134344364Y-86369238D01*
X134463436Y-86289677D01*
X134564698Y-86188415D01*
X134644259Y-86069343D01*
X134699062Y-85937037D01*
X134727000Y-85796582D01*
X134727000Y-85653376D01*
X139273000Y-85653376D01*
X139273000Y-85796582D01*
X139300938Y-85937037D01*
X139355741Y-86069343D01*
X139435302Y-86188415D01*
X139536564Y-86289677D01*
X139655636Y-86369238D01*
X139787942Y-86424041D01*
X139928397Y-86451979D01*
X140071603Y-86451979D01*
X140212058Y-86424041D01*
X140344364Y-86369238D01*
X140463436Y-86289677D01*
X140564698Y-86188415D01*
X140644259Y-86069343D01*
X140699062Y-85937037D01*
X140727000Y-85796582D01*
X140727000Y-85653376D01*
X145273000Y-85653376D01*
X145273000Y-85796582D01*
X145300938Y-85937037D01*
X145355741Y-86069343D01*
X145435302Y-86188415D01*
X145536564Y-86289677D01*
X145655636Y-86369238D01*
X145787942Y-86424041D01*
X145928397Y-86451979D01*
X146071603Y-86451979D01*
X146212058Y-86424041D01*
X146344364Y-86369238D01*
X146463436Y-86289677D01*
X146564698Y-86188415D01*
X146644259Y-86069343D01*
X146699062Y-85937037D01*
X146727000Y-85796582D01*
X146727000Y-85653376D01*
X151273000Y-85653376D01*
X151273000Y-85796582D01*
X151300938Y-85937037D01*
X151355741Y-86069343D01*
X151435302Y-86188415D01*
X151536564Y-86289677D01*
X151655636Y-86369238D01*
X151787942Y-86424041D01*
X151928397Y-86451979D01*
X152071603Y-86451979D01*
X152212058Y-86424041D01*
X152344364Y-86369238D01*
X152463436Y-86289677D01*
X152564698Y-86188415D01*
X152644259Y-86069343D01*
X152699062Y-85937037D01*
X152727000Y-85796582D01*
X152727000Y-85653376D01*
X157273000Y-85653376D01*
X157273000Y-85796582D01*
X157300938Y-85937037D01*
X157355741Y-86069343D01*
X157435302Y-86188415D01*
X157536564Y-86289677D01*
X157655636Y-86369238D01*
X157787942Y-86424041D01*
X157928397Y-86451979D01*
X158071603Y-86451979D01*
X158212058Y-86424041D01*
X158344364Y-86369238D01*
X158463436Y-86289677D01*
X158564698Y-86188415D01*
X158644259Y-86069343D01*
X158699062Y-85937037D01*
X158727000Y-85796582D01*
X158727000Y-85678397D01*
X163273000Y-85678397D01*
X163273000Y-85821603D01*
X163300938Y-85962058D01*
X163355741Y-86094364D01*
X163435302Y-86213436D01*
X163536564Y-86314698D01*
X163655636Y-86394259D01*
X163787942Y-86449062D01*
X163928397Y-86477000D01*
X164071603Y-86477000D01*
X164212058Y-86449062D01*
X164344364Y-86394259D01*
X164463436Y-86314698D01*
X164564698Y-86213436D01*
X164644259Y-86094364D01*
X164699062Y-85962058D01*
X164727000Y-85821603D01*
X164727000Y-85678397D01*
X175273000Y-85678397D01*
X175273000Y-85821603D01*
X175300938Y-85962058D01*
X175355741Y-86094364D01*
X175435302Y-86213436D01*
X175536564Y-86314698D01*
X175655636Y-86394259D01*
X175787942Y-86449062D01*
X175928397Y-86477000D01*
X176071603Y-86477000D01*
X176212058Y-86449062D01*
X176344364Y-86394259D01*
X176463436Y-86314698D01*
X176564698Y-86213436D01*
X176644259Y-86094364D01*
X176699062Y-85962058D01*
X176727000Y-85821603D01*
X176727000Y-85678397D01*
X181273000Y-85678397D01*
X181273000Y-85821603D01*
X181300938Y-85962058D01*
X181355741Y-86094364D01*
X181435302Y-86213436D01*
X181536564Y-86314698D01*
X181655636Y-86394259D01*
X181787942Y-86449062D01*
X181928397Y-86477000D01*
X182071603Y-86477000D01*
X182212058Y-86449062D01*
X182344364Y-86394259D01*
X182463436Y-86314698D01*
X182564698Y-86213436D01*
X182644259Y-86094364D01*
X182699062Y-85962058D01*
X182727000Y-85821603D01*
X182727000Y-85678397D01*
X187273000Y-85678397D01*
X187273000Y-85821603D01*
X187300938Y-85962058D01*
X187355741Y-86094364D01*
X187435302Y-86213436D01*
X187536564Y-86314698D01*
X187655636Y-86394259D01*
X187787942Y-86449062D01*
X187928397Y-86477000D01*
X188071603Y-86477000D01*
X188212058Y-86449062D01*
X188344364Y-86394259D01*
X188463436Y-86314698D01*
X188564698Y-86213436D01*
X188644259Y-86094364D01*
X188699062Y-85962058D01*
X188727000Y-85821603D01*
X188727000Y-85678397D01*
X193273000Y-85678397D01*
X193273000Y-85821603D01*
X193300938Y-85962058D01*
X193355741Y-86094364D01*
X193435302Y-86213436D01*
X193536564Y-86314698D01*
X193655636Y-86394259D01*
X193787942Y-86449062D01*
X193928397Y-86477000D01*
X194071603Y-86477000D01*
X194212058Y-86449062D01*
X194344364Y-86394259D01*
X194463436Y-86314698D01*
X194564698Y-86213436D01*
X194644259Y-86094364D01*
X194699062Y-85962058D01*
X194727000Y-85821603D01*
X194727000Y-85678397D01*
X199273000Y-85678397D01*
X199273000Y-85821603D01*
X199300938Y-85962058D01*
X199355741Y-86094364D01*
X199435302Y-86213436D01*
X199536564Y-86314698D01*
X199655636Y-86394259D01*
X199787942Y-86449062D01*
X199928397Y-86477000D01*
X200071603Y-86477000D01*
X200212058Y-86449062D01*
X200344364Y-86394259D01*
X200463436Y-86314698D01*
X200564698Y-86213436D01*
X200644259Y-86094364D01*
X200699062Y-85962058D01*
X200727000Y-85821603D01*
X200727000Y-85678397D01*
X205273000Y-85678397D01*
X205273000Y-85821603D01*
X205300938Y-85962058D01*
X205355741Y-86094364D01*
X205435302Y-86213436D01*
X205536564Y-86314698D01*
X205655636Y-86394259D01*
X205787942Y-86449062D01*
X205928397Y-86477000D01*
X206071603Y-86477000D01*
X206212058Y-86449062D01*
X206344364Y-86394259D01*
X206463436Y-86314698D01*
X206564698Y-86213436D01*
X206644259Y-86094364D01*
X206699062Y-85962058D01*
X206727000Y-85821603D01*
X206727000Y-85678397D01*
X211273000Y-85678397D01*
X211273000Y-85821603D01*
X211300938Y-85962058D01*
X211355741Y-86094364D01*
X211435302Y-86213436D01*
X211536564Y-86314698D01*
X211655636Y-86394259D01*
X211787942Y-86449062D01*
X211928397Y-86477000D01*
X212071603Y-86477000D01*
X212212058Y-86449062D01*
X212344364Y-86394259D01*
X212463436Y-86314698D01*
X212564698Y-86213436D01*
X212644259Y-86094364D01*
X212699062Y-85962058D01*
X212727000Y-85821603D01*
X212727000Y-85678397D01*
X217273000Y-85678397D01*
X217273000Y-85821603D01*
X217300938Y-85962058D01*
X217355741Y-86094364D01*
X217435302Y-86213436D01*
X217536564Y-86314698D01*
X217655636Y-86394259D01*
X217787942Y-86449062D01*
X217928397Y-86477000D01*
X218071603Y-86477000D01*
X218212058Y-86449062D01*
X218344364Y-86394259D01*
X218463436Y-86314698D01*
X218564698Y-86213436D01*
X218644259Y-86094364D01*
X218699062Y-85962058D01*
X218727000Y-85821603D01*
X218727000Y-85678397D01*
X223273000Y-85678397D01*
X223273000Y-85821603D01*
X223300938Y-85962058D01*
X223355741Y-86094364D01*
X223435302Y-86213436D01*
X223536564Y-86314698D01*
X223655636Y-86394259D01*
X223787942Y-86449062D01*
X223928397Y-86477000D01*
X224071603Y-86477000D01*
X224212058Y-86449062D01*
X224344364Y-86394259D01*
X224463436Y-86314698D01*
X224564698Y-86213436D01*
X224644259Y-86094364D01*
X224699062Y-85962058D01*
X224727000Y-85821603D01*
X224727000Y-85678397D01*
X229273000Y-85678397D01*
X229273000Y-85821603D01*
X229300938Y-85962058D01*
X229355741Y-86094364D01*
X229435302Y-86213436D01*
X229536564Y-86314698D01*
X229655636Y-86394259D01*
X229787942Y-86449062D01*
X229928397Y-86477000D01*
X230071603Y-86477000D01*
X230212058Y-86449062D01*
X230344364Y-86394259D01*
X230463436Y-86314698D01*
X230564698Y-86213436D01*
X230644259Y-86094364D01*
X230699062Y-85962058D01*
X230727000Y-85821603D01*
X230727000Y-85678397D01*
X230699062Y-85537942D01*
X230644259Y-85405636D01*
X230564698Y-85286564D01*
X230463436Y-85185302D01*
X230344364Y-85105741D01*
X230212058Y-85050938D01*
X230071603Y-85023000D01*
X229928397Y-85023000D01*
X229787942Y-85050938D01*
X229655636Y-85105741D01*
X229536564Y-85185302D01*
X229435302Y-85286564D01*
X229355741Y-85405636D01*
X229300938Y-85537942D01*
X229273000Y-85678397D01*
X224727000Y-85678397D01*
X224699062Y-85537942D01*
X224644259Y-85405636D01*
X224564698Y-85286564D01*
X224463436Y-85185302D01*
X224344364Y-85105741D01*
X224212058Y-85050938D01*
X224071603Y-85023000D01*
X223928397Y-85023000D01*
X223787942Y-85050938D01*
X223655636Y-85105741D01*
X223536564Y-85185302D01*
X223435302Y-85286564D01*
X223355741Y-85405636D01*
X223300938Y-85537942D01*
X223273000Y-85678397D01*
X218727000Y-85678397D01*
X218699062Y-85537942D01*
X218644259Y-85405636D01*
X218564698Y-85286564D01*
X218463436Y-85185302D01*
X218344364Y-85105741D01*
X218212058Y-85050938D01*
X218071603Y-85023000D01*
X217928397Y-85023000D01*
X217787942Y-85050938D01*
X217655636Y-85105741D01*
X217536564Y-85185302D01*
X217435302Y-85286564D01*
X217355741Y-85405636D01*
X217300938Y-85537942D01*
X217273000Y-85678397D01*
X212727000Y-85678397D01*
X212699062Y-85537942D01*
X212644259Y-85405636D01*
X212564698Y-85286564D01*
X212463436Y-85185302D01*
X212344364Y-85105741D01*
X212212058Y-85050938D01*
X212071603Y-85023000D01*
X211928397Y-85023000D01*
X211787942Y-85050938D01*
X211655636Y-85105741D01*
X211536564Y-85185302D01*
X211435302Y-85286564D01*
X211355741Y-85405636D01*
X211300938Y-85537942D01*
X211273000Y-85678397D01*
X206727000Y-85678397D01*
X206699062Y-85537942D01*
X206644259Y-85405636D01*
X206564698Y-85286564D01*
X206463436Y-85185302D01*
X206344364Y-85105741D01*
X206212058Y-85050938D01*
X206071603Y-85023000D01*
X205928397Y-85023000D01*
X205787942Y-85050938D01*
X205655636Y-85105741D01*
X205536564Y-85185302D01*
X205435302Y-85286564D01*
X205355741Y-85405636D01*
X205300938Y-85537942D01*
X205273000Y-85678397D01*
X200727000Y-85678397D01*
X200699062Y-85537942D01*
X200644259Y-85405636D01*
X200564698Y-85286564D01*
X200463436Y-85185302D01*
X200344364Y-85105741D01*
X200212058Y-85050938D01*
X200071603Y-85023000D01*
X199928397Y-85023000D01*
X199787942Y-85050938D01*
X199655636Y-85105741D01*
X199536564Y-85185302D01*
X199435302Y-85286564D01*
X199355741Y-85405636D01*
X199300938Y-85537942D01*
X199273000Y-85678397D01*
X194727000Y-85678397D01*
X194699062Y-85537942D01*
X194644259Y-85405636D01*
X194564698Y-85286564D01*
X194463436Y-85185302D01*
X194344364Y-85105741D01*
X194212058Y-85050938D01*
X194071603Y-85023000D01*
X193928397Y-85023000D01*
X193787942Y-85050938D01*
X193655636Y-85105741D01*
X193536564Y-85185302D01*
X193435302Y-85286564D01*
X193355741Y-85405636D01*
X193300938Y-85537942D01*
X193273000Y-85678397D01*
X188727000Y-85678397D01*
X188699062Y-85537942D01*
X188644259Y-85405636D01*
X188564698Y-85286564D01*
X188463436Y-85185302D01*
X188344364Y-85105741D01*
X188212058Y-85050938D01*
X188071603Y-85023000D01*
X187928397Y-85023000D01*
X187787942Y-85050938D01*
X187655636Y-85105741D01*
X187536564Y-85185302D01*
X187435302Y-85286564D01*
X187355741Y-85405636D01*
X187300938Y-85537942D01*
X187273000Y-85678397D01*
X182727000Y-85678397D01*
X182699062Y-85537942D01*
X182644259Y-85405636D01*
X182564698Y-85286564D01*
X182463436Y-85185302D01*
X182344364Y-85105741D01*
X182212058Y-85050938D01*
X182071603Y-85023000D01*
X181928397Y-85023000D01*
X181787942Y-85050938D01*
X181655636Y-85105741D01*
X181536564Y-85185302D01*
X181435302Y-85286564D01*
X181355741Y-85405636D01*
X181300938Y-85537942D01*
X181273000Y-85678397D01*
X176727000Y-85678397D01*
X176699062Y-85537942D01*
X176644259Y-85405636D01*
X176564698Y-85286564D01*
X176463436Y-85185302D01*
X176344364Y-85105741D01*
X176212058Y-85050938D01*
X176071603Y-85023000D01*
X175928397Y-85023000D01*
X175787942Y-85050938D01*
X175655636Y-85105741D01*
X175536564Y-85185302D01*
X175435302Y-85286564D01*
X175355741Y-85405636D01*
X175300938Y-85537942D01*
X175273000Y-85678397D01*
X164727000Y-85678397D01*
X164699062Y-85537942D01*
X164644259Y-85405636D01*
X164564698Y-85286564D01*
X164463436Y-85185302D01*
X164344364Y-85105741D01*
X164212058Y-85050938D01*
X164071603Y-85023000D01*
X163928397Y-85023000D01*
X163787942Y-85050938D01*
X163655636Y-85105741D01*
X163536564Y-85185302D01*
X163435302Y-85286564D01*
X163355741Y-85405636D01*
X163300938Y-85537942D01*
X163273000Y-85678397D01*
X158727000Y-85678397D01*
X158727000Y-85653376D01*
X158699062Y-85512921D01*
X158644259Y-85380615D01*
X158564698Y-85261543D01*
X158463436Y-85160281D01*
X158344364Y-85080720D01*
X158212058Y-85025917D01*
X158071603Y-84997979D01*
X157928397Y-84997979D01*
X157787942Y-85025917D01*
X157655636Y-85080720D01*
X157536564Y-85160281D01*
X157435302Y-85261543D01*
X157355741Y-85380615D01*
X157300938Y-85512921D01*
X157273000Y-85653376D01*
X152727000Y-85653376D01*
X152699062Y-85512921D01*
X152644259Y-85380615D01*
X152564698Y-85261543D01*
X152463436Y-85160281D01*
X152344364Y-85080720D01*
X152212058Y-85025917D01*
X152071603Y-84997979D01*
X151928397Y-84997979D01*
X151787942Y-85025917D01*
X151655636Y-85080720D01*
X151536564Y-85160281D01*
X151435302Y-85261543D01*
X151355741Y-85380615D01*
X151300938Y-85512921D01*
X151273000Y-85653376D01*
X146727000Y-85653376D01*
X146699062Y-85512921D01*
X146644259Y-85380615D01*
X146564698Y-85261543D01*
X146463436Y-85160281D01*
X146344364Y-85080720D01*
X146212058Y-85025917D01*
X146071603Y-84997979D01*
X145928397Y-84997979D01*
X145787942Y-85025917D01*
X145655636Y-85080720D01*
X145536564Y-85160281D01*
X145435302Y-85261543D01*
X145355741Y-85380615D01*
X145300938Y-85512921D01*
X145273000Y-85653376D01*
X140727000Y-85653376D01*
X140699062Y-85512921D01*
X140644259Y-85380615D01*
X140564698Y-85261543D01*
X140463436Y-85160281D01*
X140344364Y-85080720D01*
X140212058Y-85025917D01*
X140071603Y-84997979D01*
X139928397Y-84997979D01*
X139787942Y-85025917D01*
X139655636Y-85080720D01*
X139536564Y-85160281D01*
X139435302Y-85261543D01*
X139355741Y-85380615D01*
X139300938Y-85512921D01*
X139273000Y-85653376D01*
X134727000Y-85653376D01*
X134699062Y-85512921D01*
X134644259Y-85380615D01*
X134564698Y-85261543D01*
X134463436Y-85160281D01*
X134344364Y-85080720D01*
X134212058Y-85025917D01*
X134071603Y-84997979D01*
X133928397Y-84997979D01*
X133787942Y-85025917D01*
X133655636Y-85080720D01*
X133536564Y-85160281D01*
X133435302Y-85261543D01*
X133355741Y-85380615D01*
X133300938Y-85512921D01*
X133273000Y-85653376D01*
X130377000Y-85653376D01*
X130377000Y-74928397D01*
X133273000Y-74928397D01*
X133273000Y-75071603D01*
X133300938Y-75212058D01*
X133355741Y-75344364D01*
X133435302Y-75463436D01*
X133536564Y-75564698D01*
X133655636Y-75644259D01*
X133787942Y-75699062D01*
X133928397Y-75727000D01*
X134071603Y-75727000D01*
X134212058Y-75699062D01*
X134344364Y-75644259D01*
X134463436Y-75564698D01*
X134564698Y-75463436D01*
X134644259Y-75344364D01*
X134699062Y-75212058D01*
X134727000Y-75071603D01*
X134727000Y-74928397D01*
X139273000Y-74928397D01*
X139273000Y-75071603D01*
X139300938Y-75212058D01*
X139355741Y-75344364D01*
X139435302Y-75463436D01*
X139536564Y-75564698D01*
X139655636Y-75644259D01*
X139787942Y-75699062D01*
X139928397Y-75727000D01*
X140071603Y-75727000D01*
X140212058Y-75699062D01*
X140344364Y-75644259D01*
X140463436Y-75564698D01*
X140564698Y-75463436D01*
X140644259Y-75344364D01*
X140699062Y-75212058D01*
X140727000Y-75071603D01*
X140727000Y-74928397D01*
X145273000Y-74928397D01*
X145273000Y-75071603D01*
X145300938Y-75212058D01*
X145355741Y-75344364D01*
X145435302Y-75463436D01*
X145536564Y-75564698D01*
X145655636Y-75644259D01*
X145787942Y-75699062D01*
X145928397Y-75727000D01*
X146071603Y-75727000D01*
X146212058Y-75699062D01*
X146344364Y-75644259D01*
X146463436Y-75564698D01*
X146564698Y-75463436D01*
X146644259Y-75344364D01*
X146699062Y-75212058D01*
X146727000Y-75071603D01*
X146727000Y-74928397D01*
X151273000Y-74928397D01*
X151273000Y-75071603D01*
X151300938Y-75212058D01*
X151355741Y-75344364D01*
X151435302Y-75463436D01*
X151536564Y-75564698D01*
X151655636Y-75644259D01*
X151787942Y-75699062D01*
X151928397Y-75727000D01*
X152071603Y-75727000D01*
X152212058Y-75699062D01*
X152344364Y-75644259D01*
X152463436Y-75564698D01*
X152564698Y-75463436D01*
X152644259Y-75344364D01*
X152699062Y-75212058D01*
X152727000Y-75071603D01*
X152727000Y-74928397D01*
X157273000Y-74928397D01*
X157273000Y-75071603D01*
X157300938Y-75212058D01*
X157355741Y-75344364D01*
X157435302Y-75463436D01*
X157536564Y-75564698D01*
X157655636Y-75644259D01*
X157787942Y-75699062D01*
X157928397Y-75727000D01*
X158071603Y-75727000D01*
X158212058Y-75699062D01*
X158344364Y-75644259D01*
X158463436Y-75564698D01*
X158564698Y-75463436D01*
X158644259Y-75344364D01*
X158699062Y-75212058D01*
X158727000Y-75071603D01*
X158727000Y-74928397D01*
X163273000Y-74928397D01*
X163273000Y-75071603D01*
X163300938Y-75212058D01*
X163355741Y-75344364D01*
X163435302Y-75463436D01*
X163536564Y-75564698D01*
X163655636Y-75644259D01*
X163787942Y-75699062D01*
X163928397Y-75727000D01*
X164071603Y-75727000D01*
X164212058Y-75699062D01*
X164344364Y-75644259D01*
X164463436Y-75564698D01*
X164564698Y-75463436D01*
X164644259Y-75344364D01*
X164699062Y-75212058D01*
X164727000Y-75071603D01*
X164727000Y-74928397D01*
X169273000Y-74928397D01*
X169273000Y-75071603D01*
X169300938Y-75212058D01*
X169355741Y-75344364D01*
X169435302Y-75463436D01*
X169536564Y-75564698D01*
X169655636Y-75644259D01*
X169787942Y-75699062D01*
X169928397Y-75727000D01*
X170071603Y-75727000D01*
X170212058Y-75699062D01*
X170344364Y-75644259D01*
X170463436Y-75564698D01*
X170564698Y-75463436D01*
X170644259Y-75344364D01*
X170699062Y-75212058D01*
X170727000Y-75071603D01*
X170727000Y-74928397D01*
X175273000Y-74928397D01*
X175273000Y-75071603D01*
X175300938Y-75212058D01*
X175355741Y-75344364D01*
X175435302Y-75463436D01*
X175536564Y-75564698D01*
X175655636Y-75644259D01*
X175787942Y-75699062D01*
X175928397Y-75727000D01*
X176071603Y-75727000D01*
X176212058Y-75699062D01*
X176344364Y-75644259D01*
X176463436Y-75564698D01*
X176564698Y-75463436D01*
X176644259Y-75344364D01*
X176699062Y-75212058D01*
X176727000Y-75071603D01*
X176727000Y-74928397D01*
X181273000Y-74928397D01*
X181273000Y-75071603D01*
X181300938Y-75212058D01*
X181355741Y-75344364D01*
X181435302Y-75463436D01*
X181536564Y-75564698D01*
X181655636Y-75644259D01*
X181787942Y-75699062D01*
X181928397Y-75727000D01*
X182071603Y-75727000D01*
X182212058Y-75699062D01*
X182344364Y-75644259D01*
X182463436Y-75564698D01*
X182564698Y-75463436D01*
X182644259Y-75344364D01*
X182699062Y-75212058D01*
X182727000Y-75071603D01*
X182727000Y-74928397D01*
X187273000Y-74928397D01*
X187273000Y-75071603D01*
X187300938Y-75212058D01*
X187355741Y-75344364D01*
X187435302Y-75463436D01*
X187536564Y-75564698D01*
X187655636Y-75644259D01*
X187787942Y-75699062D01*
X187928397Y-75727000D01*
X188071603Y-75727000D01*
X188212058Y-75699062D01*
X188344364Y-75644259D01*
X188463436Y-75564698D01*
X188564698Y-75463436D01*
X188644259Y-75344364D01*
X188699062Y-75212058D01*
X188727000Y-75071603D01*
X188727000Y-74928397D01*
X193273000Y-74928397D01*
X193273000Y-75071603D01*
X193300938Y-75212058D01*
X193355741Y-75344364D01*
X193435302Y-75463436D01*
X193536564Y-75564698D01*
X193655636Y-75644259D01*
X193787942Y-75699062D01*
X193928397Y-75727000D01*
X194071603Y-75727000D01*
X194212058Y-75699062D01*
X194344364Y-75644259D01*
X194463436Y-75564698D01*
X194564698Y-75463436D01*
X194644259Y-75344364D01*
X194699062Y-75212058D01*
X194727000Y-75071603D01*
X194727000Y-74928397D01*
X199273000Y-74928397D01*
X199273000Y-75071603D01*
X199300938Y-75212058D01*
X199355741Y-75344364D01*
X199435302Y-75463436D01*
X199536564Y-75564698D01*
X199655636Y-75644259D01*
X199787942Y-75699062D01*
X199928397Y-75727000D01*
X200071603Y-75727000D01*
X200212058Y-75699062D01*
X200344364Y-75644259D01*
X200463436Y-75564698D01*
X200564698Y-75463436D01*
X200644259Y-75344364D01*
X200699062Y-75212058D01*
X200727000Y-75071603D01*
X200727000Y-74928397D01*
X205273000Y-74928397D01*
X205273000Y-75071603D01*
X205300938Y-75212058D01*
X205355741Y-75344364D01*
X205435302Y-75463436D01*
X205536564Y-75564698D01*
X205655636Y-75644259D01*
X205787942Y-75699062D01*
X205928397Y-75727000D01*
X206071603Y-75727000D01*
X206212058Y-75699062D01*
X206344364Y-75644259D01*
X206463436Y-75564698D01*
X206564698Y-75463436D01*
X206644259Y-75344364D01*
X206699062Y-75212058D01*
X206727000Y-75071603D01*
X206727000Y-74928397D01*
X211273000Y-74928397D01*
X211273000Y-75071603D01*
X211300938Y-75212058D01*
X211355741Y-75344364D01*
X211435302Y-75463436D01*
X211536564Y-75564698D01*
X211655636Y-75644259D01*
X211787942Y-75699062D01*
X211928397Y-75727000D01*
X212071603Y-75727000D01*
X212212058Y-75699062D01*
X212344364Y-75644259D01*
X212463436Y-75564698D01*
X212564698Y-75463436D01*
X212644259Y-75344364D01*
X212699062Y-75212058D01*
X212727000Y-75071603D01*
X212727000Y-74928397D01*
X217273000Y-74928397D01*
X217273000Y-75071603D01*
X217300938Y-75212058D01*
X217355741Y-75344364D01*
X217435302Y-75463436D01*
X217536564Y-75564698D01*
X217655636Y-75644259D01*
X217787942Y-75699062D01*
X217928397Y-75727000D01*
X218071603Y-75727000D01*
X218212058Y-75699062D01*
X218344364Y-75644259D01*
X218463436Y-75564698D01*
X218564698Y-75463436D01*
X218644259Y-75344364D01*
X218699062Y-75212058D01*
X218727000Y-75071603D01*
X218727000Y-74928397D01*
X223273000Y-74928397D01*
X223273000Y-75071603D01*
X223300938Y-75212058D01*
X223355741Y-75344364D01*
X223435302Y-75463436D01*
X223536564Y-75564698D01*
X223655636Y-75644259D01*
X223787942Y-75699062D01*
X223928397Y-75727000D01*
X224071603Y-75727000D01*
X224212058Y-75699062D01*
X224344364Y-75644259D01*
X224463436Y-75564698D01*
X224564698Y-75463436D01*
X224644259Y-75344364D01*
X224699062Y-75212058D01*
X224727000Y-75071603D01*
X224727000Y-74928397D01*
X229273000Y-74928397D01*
X229273000Y-75071603D01*
X229300938Y-75212058D01*
X229355741Y-75344364D01*
X229435302Y-75463436D01*
X229536564Y-75564698D01*
X229655636Y-75644259D01*
X229787942Y-75699062D01*
X229928397Y-75727000D01*
X230071603Y-75727000D01*
X230212058Y-75699062D01*
X230344364Y-75644259D01*
X230463436Y-75564698D01*
X230564698Y-75463436D01*
X230644259Y-75344364D01*
X230699062Y-75212058D01*
X230727000Y-75071603D01*
X230727000Y-74928397D01*
X230699062Y-74787942D01*
X230644259Y-74655636D01*
X230564698Y-74536564D01*
X230463436Y-74435302D01*
X230344364Y-74355741D01*
X230212058Y-74300938D01*
X230071603Y-74273000D01*
X229928397Y-74273000D01*
X229787942Y-74300938D01*
X229655636Y-74355741D01*
X229536564Y-74435302D01*
X229435302Y-74536564D01*
X229355741Y-74655636D01*
X229300938Y-74787942D01*
X229273000Y-74928397D01*
X224727000Y-74928397D01*
X224699062Y-74787942D01*
X224644259Y-74655636D01*
X224564698Y-74536564D01*
X224463436Y-74435302D01*
X224344364Y-74355741D01*
X224212058Y-74300938D01*
X224071603Y-74273000D01*
X223928397Y-74273000D01*
X223787942Y-74300938D01*
X223655636Y-74355741D01*
X223536564Y-74435302D01*
X223435302Y-74536564D01*
X223355741Y-74655636D01*
X223300938Y-74787942D01*
X223273000Y-74928397D01*
X218727000Y-74928397D01*
X218699062Y-74787942D01*
X218644259Y-74655636D01*
X218564698Y-74536564D01*
X218463436Y-74435302D01*
X218344364Y-74355741D01*
X218212058Y-74300938D01*
X218071603Y-74273000D01*
X217928397Y-74273000D01*
X217787942Y-74300938D01*
X217655636Y-74355741D01*
X217536564Y-74435302D01*
X217435302Y-74536564D01*
X217355741Y-74655636D01*
X217300938Y-74787942D01*
X217273000Y-74928397D01*
X212727000Y-74928397D01*
X212699062Y-74787942D01*
X212644259Y-74655636D01*
X212564698Y-74536564D01*
X212463436Y-74435302D01*
X212344364Y-74355741D01*
X212212058Y-74300938D01*
X212071603Y-74273000D01*
X211928397Y-74273000D01*
X211787942Y-74300938D01*
X211655636Y-74355741D01*
X211536564Y-74435302D01*
X211435302Y-74536564D01*
X211355741Y-74655636D01*
X211300938Y-74787942D01*
X211273000Y-74928397D01*
X206727000Y-74928397D01*
X206699062Y-74787942D01*
X206644259Y-74655636D01*
X206564698Y-74536564D01*
X206463436Y-74435302D01*
X206344364Y-74355741D01*
X206212058Y-74300938D01*
X206071603Y-74273000D01*
X205928397Y-74273000D01*
X205787942Y-74300938D01*
X205655636Y-74355741D01*
X205536564Y-74435302D01*
X205435302Y-74536564D01*
X205355741Y-74655636D01*
X205300938Y-74787942D01*
X205273000Y-74928397D01*
X200727000Y-74928397D01*
X200699062Y-74787942D01*
X200644259Y-74655636D01*
X200564698Y-74536564D01*
X200463436Y-74435302D01*
X200344364Y-74355741D01*
X200212058Y-74300938D01*
X200071603Y-74273000D01*
X199928397Y-74273000D01*
X199787942Y-74300938D01*
X199655636Y-74355741D01*
X199536564Y-74435302D01*
X199435302Y-74536564D01*
X199355741Y-74655636D01*
X199300938Y-74787942D01*
X199273000Y-74928397D01*
X194727000Y-74928397D01*
X194699062Y-74787942D01*
X194644259Y-74655636D01*
X194564698Y-74536564D01*
X194463436Y-74435302D01*
X194344364Y-74355741D01*
X194212058Y-74300938D01*
X194071603Y-74273000D01*
X193928397Y-74273000D01*
X193787942Y-74300938D01*
X193655636Y-74355741D01*
X193536564Y-74435302D01*
X193435302Y-74536564D01*
X193355741Y-74655636D01*
X193300938Y-74787942D01*
X193273000Y-74928397D01*
X188727000Y-74928397D01*
X188699062Y-74787942D01*
X188644259Y-74655636D01*
X188564698Y-74536564D01*
X188463436Y-74435302D01*
X188344364Y-74355741D01*
X188212058Y-74300938D01*
X188071603Y-74273000D01*
X187928397Y-74273000D01*
X187787942Y-74300938D01*
X187655636Y-74355741D01*
X187536564Y-74435302D01*
X187435302Y-74536564D01*
X187355741Y-74655636D01*
X187300938Y-74787942D01*
X187273000Y-74928397D01*
X182727000Y-74928397D01*
X182699062Y-74787942D01*
X182644259Y-74655636D01*
X182564698Y-74536564D01*
X182463436Y-74435302D01*
X182344364Y-74355741D01*
X182212058Y-74300938D01*
X182071603Y-74273000D01*
X181928397Y-74273000D01*
X181787942Y-74300938D01*
X181655636Y-74355741D01*
X181536564Y-74435302D01*
X181435302Y-74536564D01*
X181355741Y-74655636D01*
X181300938Y-74787942D01*
X181273000Y-74928397D01*
X176727000Y-74928397D01*
X176699062Y-74787942D01*
X176644259Y-74655636D01*
X176564698Y-74536564D01*
X176463436Y-74435302D01*
X176344364Y-74355741D01*
X176212058Y-74300938D01*
X176071603Y-74273000D01*
X175928397Y-74273000D01*
X175787942Y-74300938D01*
X175655636Y-74355741D01*
X175536564Y-74435302D01*
X175435302Y-74536564D01*
X175355741Y-74655636D01*
X175300938Y-74787942D01*
X175273000Y-74928397D01*
X170727000Y-74928397D01*
X170699062Y-74787942D01*
X170644259Y-74655636D01*
X170564698Y-74536564D01*
X170463436Y-74435302D01*
X170344364Y-74355741D01*
X170212058Y-74300938D01*
X170071603Y-74273000D01*
X169928397Y-74273000D01*
X169787942Y-74300938D01*
X169655636Y-74355741D01*
X169536564Y-74435302D01*
X169435302Y-74536564D01*
X169355741Y-74655636D01*
X169300938Y-74787942D01*
X169273000Y-74928397D01*
X164727000Y-74928397D01*
X164699062Y-74787942D01*
X164644259Y-74655636D01*
X164564698Y-74536564D01*
X164463436Y-74435302D01*
X164344364Y-74355741D01*
X164212058Y-74300938D01*
X164071603Y-74273000D01*
X163928397Y-74273000D01*
X163787942Y-74300938D01*
X163655636Y-74355741D01*
X163536564Y-74435302D01*
X163435302Y-74536564D01*
X163355741Y-74655636D01*
X163300938Y-74787942D01*
X163273000Y-74928397D01*
X158727000Y-74928397D01*
X158699062Y-74787942D01*
X158644259Y-74655636D01*
X158564698Y-74536564D01*
X158463436Y-74435302D01*
X158344364Y-74355741D01*
X158212058Y-74300938D01*
X158071603Y-74273000D01*
X157928397Y-74273000D01*
X157787942Y-74300938D01*
X157655636Y-74355741D01*
X157536564Y-74435302D01*
X157435302Y-74536564D01*
X157355741Y-74655636D01*
X157300938Y-74787942D01*
X157273000Y-74928397D01*
X152727000Y-74928397D01*
X152699062Y-74787942D01*
X152644259Y-74655636D01*
X152564698Y-74536564D01*
X152463436Y-74435302D01*
X152344364Y-74355741D01*
X152212058Y-74300938D01*
X152071603Y-74273000D01*
X151928397Y-74273000D01*
X151787942Y-74300938D01*
X151655636Y-74355741D01*
X151536564Y-74435302D01*
X151435302Y-74536564D01*
X151355741Y-74655636D01*
X151300938Y-74787942D01*
X151273000Y-74928397D01*
X146727000Y-74928397D01*
X146699062Y-74787942D01*
X146644259Y-74655636D01*
X146564698Y-74536564D01*
X146463436Y-74435302D01*
X146344364Y-74355741D01*
X146212058Y-74300938D01*
X146071603Y-74273000D01*
X145928397Y-74273000D01*
X145787942Y-74300938D01*
X145655636Y-74355741D01*
X145536564Y-74435302D01*
X145435302Y-74536564D01*
X145355741Y-74655636D01*
X145300938Y-74787942D01*
X145273000Y-74928397D01*
X140727000Y-74928397D01*
X140699062Y-74787942D01*
X140644259Y-74655636D01*
X140564698Y-74536564D01*
X140463436Y-74435302D01*
X140344364Y-74355741D01*
X140212058Y-74300938D01*
X140071603Y-74273000D01*
X139928397Y-74273000D01*
X139787942Y-74300938D01*
X139655636Y-74355741D01*
X139536564Y-74435302D01*
X139435302Y-74536564D01*
X139355741Y-74655636D01*
X139300938Y-74787942D01*
X139273000Y-74928397D01*
X134727000Y-74928397D01*
X134699062Y-74787942D01*
X134644259Y-74655636D01*
X134564698Y-74536564D01*
X134463436Y-74435302D01*
X134344364Y-74355741D01*
X134212058Y-74300938D01*
X134071603Y-74273000D01*
X133928397Y-74273000D01*
X133787942Y-74300938D01*
X133655636Y-74355741D01*
X133536564Y-74435302D01*
X133435302Y-74536564D01*
X133355741Y-74655636D01*
X133300938Y-74787942D01*
X133273000Y-74928397D01*
X130377000Y-74928397D01*
X130377000Y-62928397D01*
X133273000Y-62928397D01*
X133273000Y-63071603D01*
X133300938Y-63212058D01*
X133355741Y-63344364D01*
X133435302Y-63463436D01*
X133536564Y-63564698D01*
X133655636Y-63644259D01*
X133787942Y-63699062D01*
X133928397Y-63727000D01*
X134071603Y-63727000D01*
X134212058Y-63699062D01*
X134344364Y-63644259D01*
X134463436Y-63564698D01*
X134564698Y-63463436D01*
X134644259Y-63344364D01*
X134699062Y-63212058D01*
X134727000Y-63071603D01*
X134727000Y-62928399D01*
X139273000Y-62928399D01*
X139273000Y-63071605D01*
X139300938Y-63212060D01*
X139355741Y-63344366D01*
X139435302Y-63463438D01*
X139536564Y-63564700D01*
X139655636Y-63644261D01*
X139787942Y-63699064D01*
X139928397Y-63727002D01*
X140071603Y-63727002D01*
X140212058Y-63699064D01*
X140344364Y-63644261D01*
X140463436Y-63564700D01*
X140564698Y-63463438D01*
X140644259Y-63344366D01*
X140699062Y-63212060D01*
X140727000Y-63071605D01*
X140727000Y-62928399D01*
X140727000Y-62928397D01*
X145273000Y-62928397D01*
X145273000Y-63071603D01*
X145300938Y-63212058D01*
X145355741Y-63344364D01*
X145435302Y-63463436D01*
X145536564Y-63564698D01*
X145655636Y-63644259D01*
X145787942Y-63699062D01*
X145928397Y-63727000D01*
X146071603Y-63727000D01*
X146212058Y-63699062D01*
X146344364Y-63644259D01*
X146463436Y-63564698D01*
X146564698Y-63463436D01*
X146644259Y-63344364D01*
X146699062Y-63212058D01*
X146727000Y-63071603D01*
X146727000Y-62928397D01*
X151273000Y-62928397D01*
X151273000Y-63071603D01*
X151300938Y-63212058D01*
X151355741Y-63344364D01*
X151435302Y-63463436D01*
X151536564Y-63564698D01*
X151655636Y-63644259D01*
X151787942Y-63699062D01*
X151928397Y-63727000D01*
X152071603Y-63727000D01*
X152212058Y-63699062D01*
X152344364Y-63644259D01*
X152463436Y-63564698D01*
X152564698Y-63463436D01*
X152644259Y-63344364D01*
X152699062Y-63212058D01*
X152727000Y-63071603D01*
X152727000Y-62928397D01*
X157272994Y-62928397D01*
X157272994Y-63071603D01*
X157300932Y-63212058D01*
X157355735Y-63344364D01*
X157435296Y-63463436D01*
X157536558Y-63564698D01*
X157655630Y-63644259D01*
X157787936Y-63699062D01*
X157928391Y-63727000D01*
X158071597Y-63727000D01*
X158212052Y-63699062D01*
X158344358Y-63644259D01*
X158463430Y-63564698D01*
X158564692Y-63463436D01*
X158644253Y-63344364D01*
X158699056Y-63212058D01*
X158726994Y-63071603D01*
X158726994Y-62928397D01*
X163273000Y-62928397D01*
X163273000Y-63071603D01*
X163300938Y-63212058D01*
X163355741Y-63344364D01*
X163435302Y-63463436D01*
X163536564Y-63564698D01*
X163655636Y-63644259D01*
X163787942Y-63699062D01*
X163928397Y-63727000D01*
X164071603Y-63727000D01*
X164212058Y-63699062D01*
X164344364Y-63644259D01*
X164463436Y-63564698D01*
X164564698Y-63463436D01*
X164644259Y-63344364D01*
X164699062Y-63212058D01*
X164727000Y-63071603D01*
X164727000Y-62928397D01*
X169273000Y-62928397D01*
X169273000Y-63071603D01*
X169300938Y-63212058D01*
X169355741Y-63344364D01*
X169435302Y-63463436D01*
X169536564Y-63564698D01*
X169655636Y-63644259D01*
X169787942Y-63699062D01*
X169928397Y-63727000D01*
X170071603Y-63727000D01*
X170212058Y-63699062D01*
X170344364Y-63644259D01*
X170463436Y-63564698D01*
X170564698Y-63463436D01*
X170644259Y-63344364D01*
X170699062Y-63212058D01*
X170727000Y-63071603D01*
X170727000Y-62928397D01*
X170726999Y-62928391D01*
X175273000Y-62928391D01*
X175273000Y-63071597D01*
X175300938Y-63212052D01*
X175355741Y-63344358D01*
X175435302Y-63463430D01*
X175536564Y-63564692D01*
X175655636Y-63644253D01*
X175787942Y-63699056D01*
X175928397Y-63726994D01*
X176071603Y-63726994D01*
X176212058Y-63699056D01*
X176344364Y-63644253D01*
X176463436Y-63564692D01*
X176564698Y-63463430D01*
X176644259Y-63344358D01*
X176699062Y-63212052D01*
X176727000Y-63071597D01*
X176727000Y-62928397D01*
X181273000Y-62928397D01*
X181273000Y-63071603D01*
X181300938Y-63212058D01*
X181355741Y-63344364D01*
X181435302Y-63463436D01*
X181536564Y-63564698D01*
X181655636Y-63644259D01*
X181787942Y-63699062D01*
X181928397Y-63727000D01*
X182071603Y-63727000D01*
X182212058Y-63699062D01*
X182344364Y-63644259D01*
X182463436Y-63564698D01*
X182564698Y-63463436D01*
X182644259Y-63344364D01*
X182699062Y-63212058D01*
X182727000Y-63071603D01*
X182727000Y-62928397D01*
X187273008Y-62928397D01*
X187273008Y-63071603D01*
X187300946Y-63212058D01*
X187355749Y-63344364D01*
X187435310Y-63463436D01*
X187536572Y-63564698D01*
X187655644Y-63644259D01*
X187787950Y-63699062D01*
X187928405Y-63727000D01*
X188071611Y-63727000D01*
X188212066Y-63699062D01*
X188344372Y-63644259D01*
X188463444Y-63564698D01*
X188564706Y-63463436D01*
X188644267Y-63344364D01*
X188699070Y-63212058D01*
X188727008Y-63071603D01*
X188727008Y-62928397D01*
X193273000Y-62928397D01*
X193273000Y-63071603D01*
X193300938Y-63212058D01*
X193355741Y-63344364D01*
X193435302Y-63463436D01*
X193536564Y-63564698D01*
X193655636Y-63644259D01*
X193787942Y-63699062D01*
X193928397Y-63727000D01*
X194071603Y-63727000D01*
X194212058Y-63699062D01*
X194344364Y-63644259D01*
X194463436Y-63564698D01*
X194564698Y-63463436D01*
X194644259Y-63344364D01*
X194699062Y-63212058D01*
X194727000Y-63071603D01*
X194727000Y-62928397D01*
X194726999Y-62928387D01*
X199273000Y-62928387D01*
X199273000Y-63071593D01*
X199300938Y-63212048D01*
X199355741Y-63344354D01*
X199435302Y-63463426D01*
X199536564Y-63564688D01*
X199655636Y-63644249D01*
X199787942Y-63699052D01*
X199928397Y-63726990D01*
X200071603Y-63726990D01*
X200212058Y-63699052D01*
X200344364Y-63644249D01*
X200463436Y-63564688D01*
X200564698Y-63463426D01*
X200644259Y-63344354D01*
X200699062Y-63212048D01*
X200727000Y-63071593D01*
X200727000Y-62928397D01*
X205273000Y-62928397D01*
X205273000Y-63071603D01*
X205300938Y-63212058D01*
X205355741Y-63344364D01*
X205435302Y-63463436D01*
X205536564Y-63564698D01*
X205655636Y-63644259D01*
X205787942Y-63699062D01*
X205928397Y-63727000D01*
X206071603Y-63727000D01*
X206212058Y-63699062D01*
X206344364Y-63644259D01*
X206463436Y-63564698D01*
X206564698Y-63463436D01*
X206644259Y-63344364D01*
X206699062Y-63212058D01*
X206727000Y-63071603D01*
X206727000Y-62928397D01*
X211273000Y-62928397D01*
X211273000Y-63071603D01*
X211300938Y-63212058D01*
X211355741Y-63344364D01*
X211435302Y-63463436D01*
X211536564Y-63564698D01*
X211655636Y-63644259D01*
X211787942Y-63699062D01*
X211928397Y-63727000D01*
X212071603Y-63727000D01*
X212212058Y-63699062D01*
X212344364Y-63644259D01*
X212463436Y-63564698D01*
X212564698Y-63463436D01*
X212644259Y-63344364D01*
X212699062Y-63212058D01*
X212727000Y-63071603D01*
X212727000Y-62928407D01*
X217273000Y-62928407D01*
X217273000Y-63071613D01*
X217300938Y-63212068D01*
X217355741Y-63344374D01*
X217435302Y-63463446D01*
X217536564Y-63564708D01*
X217655636Y-63644269D01*
X217787942Y-63699072D01*
X217928397Y-63727010D01*
X218071603Y-63727010D01*
X218212058Y-63699072D01*
X218344364Y-63644269D01*
X218463436Y-63564708D01*
X218564698Y-63463446D01*
X218644259Y-63344374D01*
X218699062Y-63212068D01*
X218727000Y-63071613D01*
X218727000Y-62928407D01*
X218727000Y-62928403D01*
X223273000Y-62928403D01*
X223273000Y-63071609D01*
X223300938Y-63212064D01*
X223355741Y-63344370D01*
X223435302Y-63463442D01*
X223536564Y-63564704D01*
X223655636Y-63644265D01*
X223787942Y-63699068D01*
X223928397Y-63727006D01*
X224071603Y-63727006D01*
X224212058Y-63699068D01*
X224344364Y-63644265D01*
X224463436Y-63564704D01*
X224564698Y-63463442D01*
X224644259Y-63344370D01*
X224699062Y-63212064D01*
X224727000Y-63071609D01*
X224727000Y-62928403D01*
X224726999Y-62928397D01*
X229273000Y-62928397D01*
X229273000Y-63071603D01*
X229300938Y-63212058D01*
X229355741Y-63344364D01*
X229435302Y-63463436D01*
X229536564Y-63564698D01*
X229655636Y-63644259D01*
X229787942Y-63699062D01*
X229928397Y-63727000D01*
X230071603Y-63727000D01*
X230212058Y-63699062D01*
X230344364Y-63644259D01*
X230463436Y-63564698D01*
X230564698Y-63463436D01*
X230644259Y-63344364D01*
X230699062Y-63212058D01*
X230727000Y-63071603D01*
X230727000Y-62928397D01*
X230699062Y-62787942D01*
X230644259Y-62655636D01*
X230564698Y-62536564D01*
X230463436Y-62435302D01*
X230344364Y-62355741D01*
X230212058Y-62300938D01*
X230071603Y-62273000D01*
X229928397Y-62273000D01*
X229787942Y-62300938D01*
X229655636Y-62355741D01*
X229536564Y-62435302D01*
X229435302Y-62536564D01*
X229355741Y-62655636D01*
X229300938Y-62787942D01*
X229273000Y-62928397D01*
X224726999Y-62928397D01*
X224699062Y-62787948D01*
X224644259Y-62655642D01*
X224564698Y-62536570D01*
X224463436Y-62435308D01*
X224344364Y-62355747D01*
X224212058Y-62300944D01*
X224071603Y-62273006D01*
X223928397Y-62273006D01*
X223787942Y-62300944D01*
X223655636Y-62355747D01*
X223536564Y-62435308D01*
X223435302Y-62536570D01*
X223355741Y-62655642D01*
X223300938Y-62787948D01*
X223273000Y-62928403D01*
X218727000Y-62928403D01*
X218699062Y-62787952D01*
X218644259Y-62655646D01*
X218564698Y-62536574D01*
X218463436Y-62435312D01*
X218344364Y-62355751D01*
X218212058Y-62300948D01*
X218071603Y-62273010D01*
X217928397Y-62273010D01*
X217787942Y-62300948D01*
X217655636Y-62355751D01*
X217536564Y-62435312D01*
X217435302Y-62536574D01*
X217355741Y-62655646D01*
X217300938Y-62787952D01*
X217273000Y-62928407D01*
X212727000Y-62928407D01*
X212727000Y-62928397D01*
X212699062Y-62787942D01*
X212644259Y-62655636D01*
X212564698Y-62536564D01*
X212463436Y-62435302D01*
X212344364Y-62355741D01*
X212212058Y-62300938D01*
X212071603Y-62273000D01*
X211928397Y-62273000D01*
X211787942Y-62300938D01*
X211655636Y-62355741D01*
X211536564Y-62435302D01*
X211435302Y-62536564D01*
X211355741Y-62655636D01*
X211300938Y-62787942D01*
X211273000Y-62928397D01*
X206727000Y-62928397D01*
X206699062Y-62787942D01*
X206644259Y-62655636D01*
X206564698Y-62536564D01*
X206463436Y-62435302D01*
X206344364Y-62355741D01*
X206212058Y-62300938D01*
X206071603Y-62273000D01*
X205928397Y-62273000D01*
X205787942Y-62300938D01*
X205655636Y-62355741D01*
X205536564Y-62435302D01*
X205435302Y-62536564D01*
X205355741Y-62655636D01*
X205300938Y-62787942D01*
X205273000Y-62928397D01*
X200727000Y-62928397D01*
X200727000Y-62928387D01*
X200699062Y-62787932D01*
X200644259Y-62655626D01*
X200564698Y-62536554D01*
X200463436Y-62435292D01*
X200344364Y-62355731D01*
X200212058Y-62300928D01*
X200071603Y-62272990D01*
X199928397Y-62272990D01*
X199787942Y-62300928D01*
X199655636Y-62355731D01*
X199536564Y-62435292D01*
X199435302Y-62536554D01*
X199355741Y-62655626D01*
X199300938Y-62787932D01*
X199273000Y-62928387D01*
X194726999Y-62928387D01*
X194699062Y-62787942D01*
X194644259Y-62655636D01*
X194564698Y-62536564D01*
X194463436Y-62435302D01*
X194344364Y-62355741D01*
X194212058Y-62300938D01*
X194071603Y-62273000D01*
X193928397Y-62273000D01*
X193787942Y-62300938D01*
X193655636Y-62355741D01*
X193536564Y-62435302D01*
X193435302Y-62536564D01*
X193355741Y-62655636D01*
X193300938Y-62787942D01*
X193273000Y-62928397D01*
X188727008Y-62928397D01*
X188699070Y-62787942D01*
X188644267Y-62655636D01*
X188564706Y-62536564D01*
X188463444Y-62435302D01*
X188344372Y-62355741D01*
X188212066Y-62300938D01*
X188071611Y-62273000D01*
X187928405Y-62273000D01*
X187787950Y-62300938D01*
X187655644Y-62355741D01*
X187536572Y-62435302D01*
X187435310Y-62536564D01*
X187355749Y-62655636D01*
X187300946Y-62787942D01*
X187273008Y-62928397D01*
X182727000Y-62928397D01*
X182699062Y-62787942D01*
X182644259Y-62655636D01*
X182564698Y-62536564D01*
X182463436Y-62435302D01*
X182344364Y-62355741D01*
X182212058Y-62300938D01*
X182071603Y-62273000D01*
X181928397Y-62273000D01*
X181787942Y-62300938D01*
X181655636Y-62355741D01*
X181536564Y-62435302D01*
X181435302Y-62536564D01*
X181355741Y-62655636D01*
X181300938Y-62787942D01*
X181273000Y-62928397D01*
X176727000Y-62928397D01*
X176727000Y-62928391D01*
X176699062Y-62787936D01*
X176644259Y-62655630D01*
X176564698Y-62536558D01*
X176463436Y-62435296D01*
X176344364Y-62355735D01*
X176212058Y-62300932D01*
X176071603Y-62272994D01*
X175928397Y-62272994D01*
X175787942Y-62300932D01*
X175655636Y-62355735D01*
X175536564Y-62435296D01*
X175435302Y-62536558D01*
X175355741Y-62655630D01*
X175300938Y-62787936D01*
X175273000Y-62928391D01*
X170726999Y-62928391D01*
X170699062Y-62787942D01*
X170644259Y-62655636D01*
X170564698Y-62536564D01*
X170463436Y-62435302D01*
X170344364Y-62355741D01*
X170212058Y-62300938D01*
X170071603Y-62273000D01*
X169928397Y-62273000D01*
X169787942Y-62300938D01*
X169655636Y-62355741D01*
X169536564Y-62435302D01*
X169435302Y-62536564D01*
X169355741Y-62655636D01*
X169300938Y-62787942D01*
X169273000Y-62928397D01*
X164727000Y-62928397D01*
X164699062Y-62787942D01*
X164644259Y-62655636D01*
X164564698Y-62536564D01*
X164463436Y-62435302D01*
X164344364Y-62355741D01*
X164212058Y-62300938D01*
X164071603Y-62273000D01*
X163928397Y-62273000D01*
X163787942Y-62300938D01*
X163655636Y-62355741D01*
X163536564Y-62435302D01*
X163435302Y-62536564D01*
X163355741Y-62655636D01*
X163300938Y-62787942D01*
X163273000Y-62928397D01*
X158726994Y-62928397D01*
X158699056Y-62787942D01*
X158644253Y-62655636D01*
X158564692Y-62536564D01*
X158463430Y-62435302D01*
X158344358Y-62355741D01*
X158212052Y-62300938D01*
X158071597Y-62273000D01*
X157928391Y-62273000D01*
X157787936Y-62300938D01*
X157655630Y-62355741D01*
X157536558Y-62435302D01*
X157435296Y-62536564D01*
X157355735Y-62655636D01*
X157300932Y-62787942D01*
X157272994Y-62928397D01*
X152727000Y-62928397D01*
X152699062Y-62787942D01*
X152644259Y-62655636D01*
X152564698Y-62536564D01*
X152463436Y-62435302D01*
X152344364Y-62355741D01*
X152212058Y-62300938D01*
X152071603Y-62273000D01*
X151928397Y-62273000D01*
X151787942Y-62300938D01*
X151655636Y-62355741D01*
X151536564Y-62435302D01*
X151435302Y-62536564D01*
X151355741Y-62655636D01*
X151300938Y-62787942D01*
X151273000Y-62928397D01*
X146727000Y-62928397D01*
X146699062Y-62787942D01*
X146644259Y-62655636D01*
X146564698Y-62536564D01*
X146463436Y-62435302D01*
X146344364Y-62355741D01*
X146212058Y-62300938D01*
X146071603Y-62273000D01*
X145928397Y-62273000D01*
X145787942Y-62300938D01*
X145655636Y-62355741D01*
X145536564Y-62435302D01*
X145435302Y-62536564D01*
X145355741Y-62655636D01*
X145300938Y-62787942D01*
X145273000Y-62928397D01*
X140727000Y-62928397D01*
X140699062Y-62787944D01*
X140644259Y-62655638D01*
X140564698Y-62536566D01*
X140463436Y-62435304D01*
X140344364Y-62355743D01*
X140212058Y-62300940D01*
X140071603Y-62273002D01*
X139928397Y-62273002D01*
X139787942Y-62300940D01*
X139655636Y-62355743D01*
X139536564Y-62435304D01*
X139435302Y-62536566D01*
X139355741Y-62655638D01*
X139300938Y-62787944D01*
X139273000Y-62928399D01*
X134727000Y-62928399D01*
X134727000Y-62928397D01*
X134699062Y-62787942D01*
X134644259Y-62655636D01*
X134564698Y-62536564D01*
X134463436Y-62435302D01*
X134344364Y-62355741D01*
X134212058Y-62300938D01*
X134071603Y-62273000D01*
X133928397Y-62273000D01*
X133787942Y-62300938D01*
X133655636Y-62355741D01*
X133536564Y-62435302D01*
X133435302Y-62536564D01*
X133355741Y-62655636D01*
X133300938Y-62787942D01*
X133273000Y-62928397D01*
X130377000Y-62928397D01*
X130377000Y-57127000D01*
X233623000Y-57127000D01*
X233623001Y-91623000D01*
M02*
