M48
; DRILL file {KiCad (5.1.5-0-10_14)} date Wednesday, 22 April 2020 at 00:01:57
; FORMAT={-:-/ absolute / inch / decimal}
; #@! TF.CreationDate,2020-04-22T00:01:57+01:00
; #@! TF.GenerationSoftware,Kicad,Pcbnew,(5.1.5-0-10_14)
FMAT,2
INCH
T1C0.0157
T2C0.0394
T3C0.0984
T4C0.1260
%
G90
G05
T1
X5.2756Y-2.2933
X5.2756Y-2.4803
X5.2756Y-2.7165
X5.2756Y-2.9528
X5.2756Y-3.189
X5.2756Y-3.375
X5.5118Y-2.2933
X5.5118Y-2.4803
X5.5118Y-2.7165
X5.5118Y-2.9528
X5.5118Y-3.189
X5.5118Y-3.375
X5.5866Y-2.5157
X5.5866Y-2.9882
X5.748Y-2.2933
X5.748Y-2.4803
X5.748Y-2.7165
X5.748Y-2.9528
X5.748Y-3.189
X5.748Y-3.375
X5.9843Y-2.2933
X5.9843Y-2.4803
X5.9843Y-2.7165
X5.9843Y-2.9528
X5.9843Y-3.189
X5.9843Y-3.375
X6.0591Y-2.5157
X6.0591Y-2.9882
X6.2205Y-2.4803
X6.2205Y-2.2933
X6.2205Y-2.7165
X6.2205Y-2.9528
X6.2205Y-3.189
X6.2205Y-3.375
X6.4567Y-2.2933
X6.4567Y-2.4803
X6.4567Y-2.7165
X6.4567Y-2.9528
X6.4567Y-3.189
X6.4567Y-3.376
X6.5315Y-2.5157
X6.5315Y-2.9882
X6.6929Y-2.2933
X6.6929Y-2.4803
X6.6929Y-2.7165
X6.6929Y-2.9528
X6.6929Y-3.189
X6.9291Y-2.2933
X6.9291Y-2.4803
X6.9291Y-2.7165
X6.9291Y-2.9528
X6.9291Y-3.189
X6.9291Y-3.376
X7.0039Y-2.5157
X7.0039Y-2.9882
X7.0591Y-3.5591
X7.1654Y-2.2933
X7.1654Y-2.4803
X7.1654Y-2.7165
X7.1654Y-2.9528
X7.1654Y-3.189
X7.1654Y-3.376
X7.4016Y-2.2933
X7.4016Y-2.7165
X7.4016Y-2.9528
X7.4016Y-3.189
X7.4016Y-3.376
X7.4016Y-2.4803
X7.4764Y-2.5157
X7.4764Y-2.9882
X7.6378Y-2.2933
X7.6378Y-2.4803
X7.6378Y-2.7165
X7.6378Y-2.9528
X7.6378Y-3.189
X7.6378Y-3.376
X7.874Y-2.2933
X7.874Y-2.4803
X7.874Y-2.7165
X7.874Y-2.9528
X7.874Y-3.189
X7.874Y-3.376
X7.9488Y-2.5157
X7.9488Y-2.9882
X8.1102Y-2.2933
X8.1102Y-2.4803
X8.1102Y-2.7165
X8.1102Y-2.9528
X8.1102Y-3.189
X8.1102Y-3.376
X8.3465Y-2.2933
X8.3465Y-2.4803
X8.3465Y-2.7165
X8.3465Y-2.9528
X8.3465Y-3.189
X8.3465Y-3.376
X8.4213Y-2.5157
X8.4213Y-2.9882
X8.5827Y-2.2933
X8.5827Y-2.4803
X8.5827Y-2.7165
X8.5827Y-2.9528
X8.5827Y-3.189
X8.5827Y-3.376
X8.8189Y-2.2933
X8.8189Y-2.4803
X8.8189Y-2.7165
X8.8189Y-2.9528
X8.8189Y-3.189
X8.8189Y-3.376
X8.8937Y-2.5157
X8.8937Y-2.9882
X9.0551Y-2.2933
X9.0551Y-2.4803
X9.0551Y-2.7165
X9.0551Y-2.9528
X9.0551Y-3.189
X9.0551Y-3.376
T2
X6.378Y-3.463
X6.378Y-3.563
X6.478Y-3.463
X6.478Y-3.563
X6.578Y-3.463
X6.578Y-3.563
X6.678Y-3.463
X6.678Y-3.563
T3
X6.1811Y-2.1654
X8.1496Y-2.1654
X6.1811Y-3.5039
X8.1496Y-3.5039
T4
X9.1142Y-3.5236
X9.1142Y-2.1457
X5.2165Y-3.5236
X5.2165Y-2.1457
T0
M30
