<?xml version="1.0" encoding="UTF-8"?>
<svg width="3300px" height="2200px" viewBox="0 0 3300 2200" version="1.1" xmlns="http://www.w3.org/2000/svg" xmlns:xlink="http://www.w3.org/1999/xlink">
    <title>Untitled 2</title>
    <g id="Page-1" stroke="none" stroke-width="1" fill="none" fill-rule="evenodd">
        <g id="wifi">
            <g id="Notes">
                <rect id="artboard" fill="#FFFFFF" fill-rule="nonzero" x="0" y="0" width="3300" height="2200"></rect>
                <line x1="263" y1="292" x2="3036" y2="292" id="Path" stroke="#000000" stroke-width="0.5"></line>
                <text id="Weight/Scale-Variations" fill="#000000" fill-rule="nonzero" font-family="Helvetica-Bold, Helvetica" font-size="13" font-weight="bold">
                    <tspan x="263" y="322">Weight/Scale Variations</tspan>
                </text>
                <text id="Ultralight" fill="#000000" fill-rule="nonzero" font-family="Helvetica" font-size="13" font-weight="normal">
                    <tspan x="533.711" y="322">Ultralight</tspan>
                </text>
                <text id="Thin" fill="#000000" fill-rule="nonzero" font-family="Helvetica" font-size="13" font-weight="normal">
                    <tspan x="843.422" y="322">Thin</tspan>
                </text>
                <text id="Light" fill="#000000" fill-rule="nonzero" font-family="Helvetica" font-size="13" font-weight="normal">
                    <tspan x="1138.63" y="322">Light</tspan>
                </text>
                <text id="Regular" fill="#000000" fill-rule="nonzero" font-family="Helvetica" font-size="13" font-weight="normal">
                    <tspan x="1426.84" y="322">Regular</tspan>
                </text>
                <text id="Medium" fill="#000000" fill-rule="nonzero" font-family="Helvetica" font-size="13" font-weight="normal">
                    <tspan x="1723.06" y="322">Medium</tspan>
                </text>
                <text id="Semibold" fill="#000000" fill-rule="nonzero" font-family="Helvetica" font-size="13" font-weight="normal">
                    <tspan x="2015.77" y="322">Semibold</tspan>
                </text>
                <text id="Bold" fill="#000000" fill-rule="nonzero" font-family="Helvetica" font-size="13" font-weight="normal">
                    <tspan x="2326.48" y="322">Bold</tspan>
                </text>
                <text id="Heavy" fill="#000000" fill-rule="nonzero" font-family="Helvetica" font-size="13" font-weight="normal">
                    <tspan x="2618.19" y="322">Heavy</tspan>
                </text>
                <text id="Black" fill="#000000" fill-rule="nonzero" font-family="Helvetica" font-size="13" font-weight="normal">
                    <tspan x="2917.4" y="322">Black</tspan>
                </text>
                <line x1="263" y1="1903" x2="3036" y2="1903" id="Path" stroke="#000000" stroke-width="0.5"></line>
                <g id="Group" transform="translate(264.000000, 1918.000000)" fill="#000000" fill-rule="nonzero">
                    <path d="M8.24805,15.830078 C12.5547,15.830078 16.1387,12.25586 16.1387,7.94922 C16.1387,3.6426 12.5449,0.0684 8.23828,0.0684 C3.94141,0.0684 0.36719,3.6426 0.36719,7.94922 C0.36719,12.25586 3.95117,15.830078 8.24805,15.830078 Z M8.24805,14.345703 C4.70312,14.345703 1.87109,11.50391 1.87109,7.94922 C1.87109,4.3945 4.69336,1.5527 8.23828,1.5527 C11.793,1.5527 14.6348,4.3945 14.6445252,7.94922 C14.6543,11.50391 11.8027,14.345703 8.24805,14.345703 Z M8.22852,11.57227 C8.69727,11.57227 8.9707,11.25977 8.9707,10.74219 L8.9707,8.68164 L11.1973,8.68164 C11.6953,8.68164 12.0371,8.42773 12.0371,7.95898 C12.0371,7.48047 11.7148,7.2168 11.1973,7.2168 L8.9707,7.2168 L8.9707,4.9902 C8.9707,4.4727 8.69727,4.1504 8.22852,4.1504 C7.75977,4.1504 7.50586,4.4922 7.50586,4.9902 L7.50586,7.2168 L5.29883,7.2168 C4.78125,7.2168 4.44922,7.48047 4.44922,7.95898 C4.44922,8.42773 4.80078,8.68164 5.29883,8.68164 L7.50586,8.68164 L7.50586,10.74219 C7.50586,11.24023 7.75977,11.57227 8.22852,11.57227 Z" id="Shape"></path>
                </g>
                <g id="Group" transform="translate(282.506000, 1915.000000)" fill="#000000" fill-rule="nonzero">
                    <path d="M10.709,20.91016 C16.1582,20.91016 20.6699,16.39844 20.6699,10.94922 C20.6699,5.5098 16.1484,0.9883 10.6992,0.9883 C5.25977,0.9883 0.74805,5.5098 0.74805,10.94922 C0.74805,16.39844 5.26953,20.91016 10.709,20.91016 Z M10.709,19.25 C6.09961,19.25 2.41797,15.55859 2.41797,10.94922 C2.41797,6.3496 6.08984,2.6484 10.6992,2.6484 C15.3086,2.6484 19,6.3496 19.009819,10.94922 C19.0195,15.55859 15.3184,19.25 10.709,19.25 Z M10.6895,15.58789 C11.207,15.58789 11.5195,15.22656 11.5195,14.66016 L11.5195,11.76953 L14.5762,11.76953 C15.123,11.76953 15.5039,11.48633 15.5039,10.96875 C15.5039,10.44141 15.1426,10.13867 14.5762,10.13867 L11.5195,10.13867 L11.5195,7.0723 C11.5195,6.4961 11.207,6.1445 10.6895,6.1445 C10.1719,6.1445 9.8789,6.5156 9.8789,7.0723 L9.8789,10.13867 L6.83203,10.13867 C6.26562,10.13867 5.89453,10.44141 5.89453,10.96875 C5.89453,11.48633 6.28516,11.76953 6.83203,11.76953 L9.8789,11.76953 L9.8789,14.66016 C9.8789,15.20703 10.1719,15.58789 10.6895,15.58789 Z" id="Shape"></path>
                </g>
                <g id="Group" transform="translate(306.924000, 1913.000000)" fill="#000000" fill-rule="nonzero">
                    <path d="M12.9707,25.67383 C19.9336,25.67383 25.6953,19.921875 25.6953,12.95898 C25.6953,5.9961 19.9238,0.2441 12.9609,0.2441 C6.00781,0.2441 0.25586,5.9961 0.25586,12.95898 C0.25586,19.921875 6.01758,25.67383 12.9707,25.67383 Z M12.9707,23.85742 C6.93555,23.85742 2.08203,18.99414 2.08203,12.95898 C2.08203,6.9238 6.92578,2.0605 12.9609,2.0605 C19.0059,2.0605 23.8594,6.9238 23.8691148,12.95898 C23.8789,18.99414 19.0156,23.85742 12.9707,23.85742 Z M12.9512,18.93555 C13.5176,18.93555 13.8691,18.54492 13.8691,17.93945 L13.8691,13.86719 L18.1074,13.86719 C18.6934,13.86719 19.1133,13.53516 19.1133,12.97852 C19.1133,12.40234 18.7227,12.06055 18.1074,12.06055 L13.8691,12.06055 L13.8691,7.8125 C13.8691,7.1973 13.5176,6.8066 12.9512,6.8066 C12.3848,6.8066 12.0625,7.2168 12.0625,7.8125 L12.0625,12.06055 L7.83398,12.06055 C7.21875,12.06055 6.80859,12.40234 6.80859,12.97852 C6.80859,13.53516 7.23828,13.86719 7.83398,13.86719 L12.0625,13.86719 L12.0625,17.93945 C12.0625,18.52539 12.3848,18.93555 12.9512,18.93555 Z" id="Shape"></path>
                </g>
                <text id="Design-Variations" fill="#000000" fill-rule="nonzero" font-family="Helvetica-Bold, Helvetica" font-size="13" font-weight="bold">
                    <tspan x="263" y="1953">Design Variations</tspan>
                </text>
                <text id="Symbols-are-supported-in-up-to-nine-weights-and-three-scales." fill="#000000" fill-rule="nonzero" font-family="Helvetica" font-size="13" font-weight="normal">
                    <tspan x="263" y="1971">Symbols are supported in up to nine weights and three scales.</tspan>
                </text>
                <text id="For-optimal-layout-with-text-and-other-symbols,-vertically-align" fill="#000000" fill-rule="nonzero" font-family="Helvetica" font-size="13" font-weight="normal">
                    <tspan x="263" y="1989">For optimal layout with text and other symbols, vertically align</tspan>
                </text>
                <text id="symbols-with-the-adjacent-text." fill="#000000" fill-rule="nonzero" font-family="Helvetica" font-size="13" font-weight="normal">
                    <tspan x="263" y="2007">symbols with the adjacent text.</tspan>
                </text>
                <rect id="Rectangle" fill="#00AEEF" fill-rule="nonzero" opacity="0.4" x="776" y="1919" width="3" height="14"></rect>
                <g id="Group" transform="translate(779.000000, 1918.000000)" fill="#000000" fill-rule="nonzero">
                    <path d="M10.5273,15 L12.373,15 L7.17773,0.9082 L5.43945,0.9082 L0.244141,15 L2.08984,15 L3.50586,10.9668 L9.11133,10.9668 L10.5273,15 Z M6.2793,3.0469 L6.33789,3.0469 L8.59375,9.47266 L4.02344,9.47266 L6.2793,3.0469 Z" id="Shape"></path>
                </g>
                <rect id="Rectangle" fill="#00AEEF" fill-rule="nonzero" opacity="0.4" x="791.617" y="1919" width="3" height="14"></rect>
                <text id="Margins" fill="#000000" fill-rule="nonzero" font-family="Helvetica-Bold, Helvetica" font-size="13" font-weight="bold">
                    <tspan x="776" y="1953">Margins</tspan>
                </text>
                <text id="Leading-and-trailing-margins-on-the-left-and-right-side-of-each-symbol" fill="#000000" fill-rule="nonzero" font-family="Helvetica" font-size="13" font-weight="normal">
                    <tspan x="776" y="1971">Leading and trailing margins on the left and right side of each symbol</tspan>
                </text>
                <text id="can-be-adjusted-by-modifying-the-width-of-the-blue-rectangles." fill="#000000" fill-rule="nonzero" font-family="Helvetica" font-size="13" font-weight="normal">
                    <tspan x="776" y="1989">can be adjusted by modifying the width of the blue rectangles.</tspan>
                </text>
                <text id="Modifications-are-automatically-applied-proportionally-to-all" fill="#000000" fill-rule="nonzero" font-family="Helvetica" font-size="13" font-weight="normal">
                    <tspan x="776" y="2007">Modifications are automatically applied proportionally to all</tspan>
                </text>
                <text id="scales-and-weights." fill="#000000" fill-rule="nonzero" font-family="Helvetica" font-size="13" font-weight="normal">
                    <tspan x="776" y="2025">scales and weights.</tspan>
                </text>
                <g id="Group" transform="translate(1291.000000, 1915.000000)" fill="#000000" fill-rule="nonzero">
                    <path d="M0.83203,21.11523 L2.375,22.6582 C3.22461,23.48828 4.19141,23.41992 5.06055,22.46289 L15.2754,11.33984 C15.7051,11.63281 16.0957,11.62305 16.5645,11.52539 L17.6094,11.31055 L18.3027,12.00391 L18.2539,12.52148 C18.1855,13.04883 18.3516,13.46875 18.8496,13.9668 L19.6602,14.77734 C20.168,15.28516 20.8223,15.31445 21.3008,14.83594 L24.5527,11.58398 C25.0312,11.10547 25.0117,10.45117 24.5039,9.94336 L23.6836,9.12305 C23.1855,8.625 22.7754,8.44922 22.2383,8.52734 L21.7109,8.58594 L21.0566,7.9219 L21.3398,6.7793 C21.4863,6.2129 21.3398,5.7441 20.7148,5.1387 L18.3027,2.7461 C14.7578,-0.7793 10.2266,-0.6719 7.11133,2.4629 C6.69141,2.8926 6.64258,3.4785 6.91602,3.9082 C7.15039,4.2793 7.62891,4.5039 8.2734,4.3379 C9.7871,3.957 11.3008,4.0742 12.7852,5.0801 L12.1602,6.6621 C11.9258,7.248 11.9453,7.7266 12.1797,8.16602 L1.01758,18.439453 C0.08008,19.30859 -0.02734,20.25586 0.83203,21.11523 Z M8.6738,2.8535 C11.3398,0.8613 14.6504,1.1738 17.0527,3.5859 L19.6797,6.1934 C19.9141,6.4277 19.9434,6.6133 19.8848,6.9062 L19.5039,8.46875 L21.0762,10.04102 L22.043,9.95312 C22.3262,9.92383 22.4141,9.94336 22.6387,10.16797 L23.2637,10.79297 L20.5098,13.53711 L19.8848,12.92188 C19.6602,12.69727 19.6406,12.59961 19.6699,12.31641 L19.7578,11.35938 L18.1953,9.79688 L16.5742,10.10938 C16.291,10.16797 16.1445,10.16797 15.9102,9.92383 L13.7324,7.7461 C13.5078,7.5117 13.4785,7.375 13.6055,7.0527 L14.5527,4.7773 C12.9512,3.2441 10.8418,2.3945 8.8008,3.0488 C8.7129,3.0781 8.6445,3.0586 8.6152,3.0195 C8.5859,2.9707 8.5859,2.9219 8.6738,2.8535 Z M2.10156,20.41211 C1.61328,19.91406 1.78906,19.61133 2.12109,19.30859 L13.0781,9.19141 L14.3086,10.42188 L4.15234,21.34961 C3.84961,21.68164 3.46875,21.7793 3.06836,21.37891 L2.10156,20.41211 Z" id="Shape"></path>
                </g>
                <text id="Exporting" fill="#000000" fill-rule="nonzero" font-family="Helvetica-Bold, Helvetica" font-size="13" font-weight="bold">
                    <tspan x="1289" y="1953">Exporting</tspan>
                </text>
                <text id="Symbols-should-be-outlined-when-exporting-to-ensure-the" fill="#000000" fill-rule="nonzero" font-family="Helvetica" font-size="13" font-weight="normal">
                    <tspan x="1289" y="1971">Symbols should be outlined when exporting to ensure the</tspan>
                </text>
                <text id="design-is-preserved-when-submitting-to-Xcode." fill="#000000" fill-rule="nonzero" font-family="Helvetica" font-size="13" font-weight="normal">
                    <tspan x="1289" y="1989">design is preserved when submitting to Xcode.</tspan>
                </text>
                <text id="template-version" fill="#000000" fill-rule="nonzero" font-family="Helvetica" font-size="13" font-weight="normal">
                    <tspan x="2952" y="1933">Template v.1.0</tspan>
                </text>
                <text id="Generated-from-wifi" fill="#000000" fill-rule="nonzero" font-family="Helvetica" font-size="13" font-weight="normal">
                    <tspan x="2922" y="1951">Generated from wifi</tspan>
                </text>
                <text id="Typeset-at-100-points" fill="#000000" fill-rule="nonzero" font-family="Helvetica" font-size="13" font-weight="normal">
                    <tspan x="2912" y="1969">Typeset at 100 points</tspan>
                </text>
                <text id="Small" fill="#000000" fill-rule="nonzero" font-family="Helvetica" font-size="13" font-weight="normal">
                    <tspan x="263" y="726">Small</tspan>
                </text>
                <text id="Medium" fill="#000000" fill-rule="nonzero" font-family="Helvetica" font-size="13" font-weight="normal">
                    <tspan x="263" y="1156">Medium</tspan>
                </text>
                <text id="Large" fill="#000000" fill-rule="nonzero" font-family="Helvetica" font-size="13" font-weight="normal">
                    <tspan x="263" y="1586">Large</tspan>
                </text>
            </g>
            <g id="Guides" transform="translate(263.000000, 625.000000)">
                <g id="H-reference" transform="translate(76.000000, 0.000000)" fill="#27AAE1" fill-rule="nonzero">
                    <path d="M54.9316,71 L57.666,71 L30.5664,0.541 L28.0762,0.541 L0.976562,71 L3.66211,71 L12.9395,46.5371 L45.7031,46.5371 L54.9316,71 Z M29.1992,3.9102 L29.4434,3.9102 L44.8242,44.291 L13.8184,44.291 L29.1992,3.9102 Z" id="Shape"></path>
                </g>
                <line x1="0" y1="71" x2="2773" y2="71" id="Baseline-S" stroke="#27AAE1" stroke-width="0.577"></line>
                <line x1="0" y1="0.541" x2="2773" y2="0.541" id="Capline-S" stroke="#27AAE1" stroke-width="0.577"></line>
                <g id="H-reference" transform="translate(76.000000, 430.000000)" fill="#27AAE1" fill-rule="nonzero">
                    <path d="M54.9316,71 L57.666,71 L30.5664,0.541 L28.0762,0.541 L0.976562,71 L3.66211,71 L12.9395,46.5371 L45.7031,46.5371 L54.9316,71 Z M29.1992,3.9102 L29.4434,3.9102 L44.8242,44.291 L13.8184,44.291 L29.1992,3.9102 Z" id="Shape"></path>
                </g>
                <line x1="0" y1="501" x2="2773" y2="501" id="Baseline-M" stroke="#27AAE1" stroke-width="0.577"></line>
                <line x1="0" y1="430.54" x2="2773" y2="430.54" id="Capline-M" stroke="#27AAE1" stroke-width="0.577"></line>
                <g id="H-reference" transform="translate(76.000000, 860.000000)" fill="#27AAE1" fill-rule="nonzero">
                    <path d="M54.9316,71 L57.666,71 L30.5664,0.541 L28.0762,0.541 L0.976562,71 L3.66211,71 L12.9395,46.5371 L45.7031,46.5371 L54.9316,71 Z M29.1992,3.9102 L29.4434,3.9102 L44.8242,44.291 L13.8184,44.291 L29.1992,3.9102 Z" id="Shape"></path>
                </g>
                <line x1="0" y1="931" x2="2773" y2="931" id="Baseline-L" stroke="#27AAE1" stroke-width="0.577"></line>
                <line x1="0" y1="860.54" x2="2773" y2="860.54" id="Capline-L" stroke="#27AAE1" stroke-width="0.577"></line>
                <rect id="left-margin" fill="#00AEEF" fill-rule="nonzero" opacity="0.4" x="1122.86" y="405.79" width="9.9535" height="119.336"></rect>
                <rect id="right-margin" fill="#00AEEF" fill-rule="nonzero" opacity="0.4" x="1240.89" y="405.79" width="9.94628" height="119.336"></rect>
            </g>
            <g id="Symbols" transform="translate(516.000000, 650.000000)" fill="#000000" fill-rule="nonzero">
                <g id="Black-L" transform="translate(2368.980000, 854.000000)">
                    <path d="M11.9492,35.5449 C13.7559,37.4492 16.4902,37.2539 18.2969,35.252 C25.91409,26.9512 37.2422,21.7754 48.4238,21.7754 C59.752,21.7754 71.178,27.1465 78.844,35.5449 C80.602,37.4004 83.141,37.4004 84.898,35.4961 L94.615,25.877 C96.227,24.3633 96.373,22.166 94.908,20.5059 C84.898,8.1523 67.125,0.0957 48.4238,0.0957 C29.7227,0.0957 11.9004,8.1523 1.8906,20.5059 C0.4746,22.166 0.6211,24.3145 2.1836,25.877 L11.9492,35.5449 Z M48.4238,68.9434 C50.2793,68.9434 51.8906,68.0156 54.4785,65.5254 L69.322,51.21875 C70.934,49.75391 71.129,47.3125 69.713,45.65234 C64.781,39.5488 56.7734,35.4473 48.4238,35.4473 C39.8789,35.4473 31.5293,39.6953 26.5488,46.43359 C25.5723,47.89844 26.0605,49.90039 27.5254,51.21875 L42.3203,65.5254 C44.9082,68.0156 46.5684,68.9434 48.4238,68.9434 Z" id="Shape"></path>
                </g>
                <g id="Heavy-L" transform="translate(2072.800000, 854.000000)">
                    <path d="M11.7051,35.1055 C13.3652,36.8633 15.8066,36.7168 17.4668,34.8125 C25.0352,26.6094 36.5098,21.2871 47.8867,21.2871 C59.4102,21.2871 70.982,26.7559 78.6,35.1055 C80.162,36.8145 82.457,36.8145 84.068,35.1055 L93.688,25.584 C95.104,24.2168 95.25,22.2148 93.932,20.75 C84.166,8.6406 66.588,0.584 47.8867,0.584 C29.2344,0.584 11.6074,8.6895 1.8418,20.75 C0.5234,22.2148 0.6699,24.168 2.0859,25.584 L11.7051,35.1055 Z M47.8867,68.4062 C49.5957,68.4062 51.1094,67.5762 53.5996,65.1348 L68.395,50.87695 C69.859,49.60742 70.006,47.45898 68.785,45.94531 C64.098,40.0859 56.2363,35.9844 47.8867,35.9844 C39.3418,35.9844 31.2363,40.2324 26.5488,46.58008 C25.6699,47.94727 26.0605,49.70508 27.3789,50.87695 L42.1738,65.1348 C44.6641,67.5762 46.1777,68.4062 47.8867,68.4062 Z" id="Shape"></path>
                </g>
                <g id="Bold-L" transform="translate(1776.680000, 855.000000)">
                    <path d="M11.4121,33.666 C12.9258,35.1797 15.0254,35.082 16.5391,33.373 C24.0098,25.1699 35.6797,19.7012 47.3008,19.75 C59.0684,19.7012 70.738,25.3652 78.307,33.6172 C79.723,35.1309 81.725,35.1309 83.189,33.6172 L92.613,24.291 C93.883,23.0703 93.98,21.3125 92.857,19.9941 C83.336,8.2266 65.953,0.1211 47.3008,0.1211 C28.6484,0.1211 11.2656,8.2266 1.7441,19.9941 C0.6211,21.3125 0.7188,23.0215 1.9883,24.291 L11.4121,33.666 Z M47.3008,66.8691 C48.8633,66.8691 50.2305,66.0879 52.623,63.7441 L67.369,49.58398 C68.639,48.41211 68.785,46.60547 67.711,45.23828 C63.3652,39.7207 55.6504,35.5215 47.3008,35.5215 C38.8047,35.5215 30.8945,39.8672 26.5,45.77539 C25.7188,46.94727 26.0605,48.46094 27.2324,49.58398 L41.9785,63.7441 C44.3711,66.0879 45.7383,66.8691 47.3008,66.8691 Z" id="Shape"></path>
                </g>
                <g id="Semibold-L" transform="translate(1480.360000, 855.000000)">
                    <path d="M11.2168,33.3242 C12.6328,34.7402 14.4883,34.5938 15.9043,33.0801 C23.3262,24.9258 35.0938,19.3105 46.9102,19.3594 C58.7754,19.3105 70.592,25.0723 78.111,33.2754 C79.43,34.6914 81.236,34.6914 82.555,33.2754 L91.881,24.0469 C93.053,22.9727 93.15,21.3613 92.125,20.1406 C82.75,8.6172 65.514,0.5117 46.9102,0.5117 C28.3066,0.5117 11.0703,8.6172 1.6953,20.1406 C0.6699,21.3613 0.7676,22.9238 1.9395,24.0469 L11.2168,33.3242 Z M46.9102,66.4785 C48.3262,66.4785 49.5957,65.7461 51.9395,63.4512 L66.637,49.33984 C67.809,48.31445 67.955,46.70312 66.979,45.43359 C62.8281,40.1113 55.2109,35.9121 46.9102,35.9121 C38.4141,35.9121 30.6504,40.2578 26.5,45.87305 C25.7676,46.99609 26.0605,48.31445 27.1348,49.33984 L41.832,63.4512 C44.1758,65.7949 45.4453,66.4785 46.9102,66.4785 Z" id="Shape"></path>
                </g>
                <g id="Medium-L" transform="translate(1183.960000, 855.000000)">
                    <path d="M11.0703,33.0801 C12.3887,34.3984 14.0977,34.3008 15.416,32.8359 C22.7891,24.6816 34.7031,19.0176 46.5684,19.0664 C58.6289,19.0176 70.445,24.8281 77.916,33.0312 C79.186,34.3496 80.846,34.3496 82.115,33.0312 L91.344,23.9004 C92.418,22.875 92.516,21.4102 91.539,20.2871 C82.311,8.9102 65.172,0.8047 46.5684,0.8047 C28.0137,0.8047 10.875,8.9102 1.6465,20.2871 C0.6699,21.4102 0.7676,22.8262 1.8418,23.9004 L11.0703,33.0801 Z M46.5684,66.1855 C47.9355,66.1855 49.1074,65.502 51.4512,63.2559 L66.1,49.14453 C67.174,48.2168 67.32,46.75195 66.441,45.58008 C62.4375,40.4531 54.918,36.2051 46.5684,36.2051 C38.1211,36.2051 30.4551,40.5996 26.5,45.9707 C25.8164,46.99609 26.0605,48.2168 27.0859,49.14453 L41.7344,63.2559 C44.0293,65.5508 45.25,66.1855 46.5684,66.1855 Z" id="Shape"></path>
                </g>
                <g id="Regular-L" transform="translate(887.640000, 856.000000)">
                    <path d="M10.875,31.7871 C12.0957,32.959 13.6094,32.8613 14.7812,31.543 C22.1543,23.4375 34.1172,17.627 46.1777,17.7246 C58.3359,17.627 70.299,23.584 77.721,31.6895 C78.893,32.9102 80.309,32.9102 81.48,31.7383 L90.611,22.7051 C91.588,21.7773 91.637,20.459 90.807,19.4824 C81.725,8.3008 64.732,0.1953 46.1777,0.1953 C27.623,0.1953 10.6797,8.3008 1.5488,19.4824 C0.7188,20.459 0.8164,21.7285 1.793,22.7051 L10.875,31.7871 Z M46.1777,64.8438 C47.3984,64.8438 48.5215,64.1602 50.7676,62.0117 L65.416,47.90039 C66.344,47.07031 66.49,45.84961 65.709,44.82422 C61.9004,39.8438 54.4785,35.5469 46.1777,35.5469 C37.7305,35.5469 30.2109,39.9902 26.4512,45.11719 C25.8652,45.99609 26.0605,47.07031 26.9883,47.90039 L41.5879,62.0117 C43.834,64.209 44.957,64.8438 46.1777,64.8438 Z" id="Shape"></path>
                </g>
                <g id="Light-L" transform="translate(591.520000, 856.000000)">
                    <path d="M10.4355,31.25 C11.5586,32.2754 12.877,32.2266 14.0488,31.0059 C21.4707,22.8516 33.6289,17.1387 45.5918,17.2363 C57.6523,17.1387 69.762,22.9492 77.281,31.1035 C78.355,32.2754 79.674,32.2754 80.748,31.2012 L89.488,22.5586 C90.367,21.6797 90.465,20.5078 89.684,19.5801 C80.748,8.4473 63.707,0.6348 45.5918,0.6348 C27.4766,0.6348 10.5332,8.4961 1.5,19.5801 C0.7676,20.5078 0.8164,21.6797 1.6953,22.5586 L10.4355,31.25 Z M45.5918,64.3555 C46.7148,64.3555 47.6914,63.7207 49.8398,61.6211 L64.342,47.70508 C65.172,46.97266 65.367,45.89844 64.586,44.87305 C61.0215,40.18555 53.5508,36.0352 45.5918,36.0352 C37.5352,36.0352 30.0645,40.2832 26.5,45.06836 C25.8652,45.99609 26.0117,46.97266 26.8906,47.70508 L41.3438,61.6211 C43.4922,63.7695 44.5176,64.3555 45.5918,64.3555 Z" id="Shape"></path>
                </g>
                <g id="Thin-L" transform="translate(295.587000, 857.000000)">
                    <path d="M9.8984,29.5176 C10.875,30.4453 11.998,30.4453 13.0234,29.2734 C20.6406,21.0703 32.9941,15.5039 44.8105,15.6016 C56.6758,15.5039 69.029,21.1191 76.646,29.2734 C77.721,30.4453 78.795,30.4453 79.771,29.5176 L88.023,21.3633 C88.805,20.582 88.854,19.5078 88.219,18.6777 C79.381,7.6914 62.3398,0.2695 44.8105,0.2695 C27.2812,0.2695 10.3379,7.7891 1.4512,18.6777 C0.7676,19.5078 0.8652,20.582 1.6465,21.3633 L9.8984,29.5176 Z M44.8105,62.7207 C45.7383,62.7207 46.6172,62.1348 48.668,60.1816 L62.9258,46.46094 C63.6582,45.77734 63.8535,44.99609 63.1211,44.01953 C59.8008,39.57617 52.3301,35.6699 44.8105,35.6699 C37.291,35.6699 29.8203,39.625 26.5,44.06836 C25.8652,44.99609 25.9629,45.77734 26.7441,46.46094 L41.002,60.1816 C43.0527,62.2324 43.8828,62.7207 44.8105,62.7207 Z" id="Shape"></path>
                </g>
                <g id="Ultralight-L" transform="translate(0.267000, 857.000000)">
                    <path d="M8.5566,29.1758 C9.5332,30.0059 10.5098,30.0059 11.5352,28.9316 C19.2012,20.6797 31.6523,15.1621 43.4199,15.2598 C55.2363,15.1621 67.639,20.6797 75.305,28.8828 C76.33,30.0059 77.355,30.0059 78.283,29.1758 L86.291,21.2656 C86.975,20.5332 87.072,19.5078 86.438,18.7266 C77.697,7.8379 60.6562,0.6113 43.4199,0.6113 C26.2324,0.6113 9.2402,7.9355 0.4023,18.7266 C-0.1836,19.5078 -0.1348,20.5332 0.5977,21.2656 L8.5566,29.1758 Z M43.4199,62.3789 C44.2988,62.3789 45.0312,61.8418 47.0332,59.9375 L61.1934,46.31445 C61.9258,45.67969 62.0723,45.04492 61.3398,44.06836 C58.2148,39.82031 50.7441,36.0117 43.4199,36.0117 C36.1445,36.0117 28.6738,39.77148 25.5488,44.01953 C24.9141,44.99609 24.9629,45.67969 25.6465,46.31445 L39.8555,59.9375 C41.8086,61.9395 42.5898,62.3789 43.4199,62.3789 Z" id="Shape"></path>
                </g>
                <g id="Black-M" transform="translate(2379.560000, 427.000000)">
                    <path d="M9.2559,28.5898 C10.8672,30.25 13.2598,30.1035 14.8223,28.3457 C20.877,21.8516 29.5195,18.0918 37.8203,18.0918 C46.2676,18.0918 55.0566,21.998 61.1113,28.5898 C62.625,30.25 64.9199,30.25 66.4336,28.5898 L73.953,21.1191 C75.32,19.8008 75.467,17.8477 74.197,16.3828 C66.1895,6.5195 52.1758,0.416 37.8203,0.416 C23.5137,0.416 9.5,6.5195 1.4922,16.3828 C0.2227,17.8477 0.3691,19.8008 1.7363,21.1191 L9.2559,28.5898 Z M37.8203,54.61523 C39.4316,54.61523 40.7988,53.83398 42.8496,51.83203 L54.3242,40.74805 C55.7891,39.47852 55.8867,37.2812 54.6172,35.8164 C50.5645,30.8359 44.168,27.8574 37.8203,27.8574 C31.375,27.8574 24.6855,30.9336 20.5352,36.5488 C19.6562,37.8672 20.0957,39.625 21.3652,40.74805 L32.8398,51.83203 C34.8906,53.83398 36.2578,54.61523 37.8203,54.61523 Z" id="Shape"></path>
                </g>
                <g id="Heavy-M" transform="translate(2083.280000, 427.000000)">
                    <path d="M9.1094,28.2969 C10.5254,29.7617 12.6738,29.6152 14.0898,28.0527 C20.0469,21.6074 28.8359,17.6523 37.4297,17.6523 C46.1211,17.6523 54.959,21.7539 60.9648,28.248 C62.332,29.7617 64.334,29.7617 65.7012,28.248 L73.172,20.875 C74.441,19.6543 74.539,17.9453 73.416,16.627 C65.6523,7.0078 51.7852,0.8555 37.4297,0.8555 C23.0254,0.8555 9.1582,7.0078 1.3945,16.627 C0.2715,17.9453 0.3691,19.6543 1.6387,20.875 L9.1094,28.2969 Z M37.4297,54.17578 C38.8457,54.17578 40.1152,53.49219 42.1172,51.53906 L53.5918,40.45508 C54.8613,39.33203 55.0078,37.4277 53.8848,36.1094 C50.0273,31.373 43.8262,28.248 37.4297,28.248 C30.8867,28.248 24.3926,31.4707 20.4863,36.6953 C19.7051,37.8672 20.0957,39.42969 21.2188,40.45508 L32.6934,51.53906 C34.6953,53.49219 35.9648,54.17578 37.4297,54.17578 Z" id="Shape"></path>
                </g>
                <g id="Bold-M" transform="translate(1787.060000, 428.000000)">
                    <path d="M8.9141,26.9062 C10.1836,28.2246 12.0391,28.127 13.2598,26.7109 C19.1191,20.3145 28.0547,16.1641 36.9414,16.2129 C45.877,16.1641 54.8613,20.4609 60.7695,26.9062 C61.9414,28.2246 63.6992,28.2246 64.9199,26.9062 L72.342,19.5332 C73.416,18.5078 73.514,16.9941 72.537,15.8711 C65.0176,6.5938 51.3945,0.2949 36.9414,0.2949 C22.4395,0.2949 8.8652,6.5938 1.2969,15.8711 C0.3203,16.9941 0.418,18.5078 1.4922,19.5332 L8.9141,26.9062 Z M36.9414,52.73633 C38.2109,52.73633 39.3828,52.05273 41.2871,50.19727 L52.7617,39.16211 C53.8359,38.18555 53.9824,36.5742 53.0547,35.4023 C49.4414,30.959 43.3867,27.7363 36.9414,27.7363 C30.3008,27.7363 24.0508,31.0566 20.4375,35.8906 C19.8027,36.916 20.0957,38.23438 21.1211,39.16211 L32.5469,50.19727 C34.4512,52.10156 35.623,52.73633 36.9414,52.73633 Z" id="Shape"></path>
                </g>
                <g id="Semibold-M" transform="translate(1490.690000, 428.000000)">
                    <path d="M8.7676,26.6621 C9.9395,27.8828 11.5996,27.7363 12.7227,26.4668 C18.4844,20.1191 27.5176,15.8223 36.5996,15.8711 C45.7305,15.8223 54.8125,20.2656 60.623,26.6621 C61.6973,27.834 63.2598,27.834 64.3828,26.6621 L71.7559,19.3379 C72.732,18.4102 72.83,17.0918 71.9512,16.0664 C64.5781,6.9844 51.1016,0.6367 36.5996,0.6367 C22.0488,0.6367 8.6211,6.9844 1.248,16.0664 C0.3691,17.0918 0.418,18.3613 1.4434,19.3379 L8.7676,26.6621 Z M36.5996,52.39453 C37.7715,52.39453 38.8457,51.80859 40.75,49.95312 L52.1758,38.9668 C53.1523,38.08789 53.25,36.6719 52.4688,35.6465 C49.0508,31.3496 43.0938,28.0293 36.5996,28.0293 C29.9102,28.0293 23.8066,31.4961 20.4375,36.0371 C19.8516,36.9648 20.0957,38.13672 21.0234,38.9668 L32.4492,49.95312 C34.3047,51.80859 35.3789,52.39453 36.5996,52.39453 Z" id="Shape"></path>
                </g>
                <g id="Medium-M" transform="translate(1194.220000, 428.000000)">
                    <path d="M8.6699,26.4668 C9.793,27.5898 11.2578,27.4922 12.2832,26.2715 C17.9961,19.9727 27.127,15.5781 36.3066,15.627 C45.6328,15.5781 54.7148,20.1191 60.5254,26.4668 C61.5508,27.541 62.918,27.541 63.9922,26.4668 L71.3164,19.1914 C72.195,18.3125 72.293,17.1406 71.4629,16.1641 C64.2363,7.2773 50.9062,0.8809 36.3066,0.8809 C21.7559,0.8809 8.4258,7.2773 1.1992,16.1641 C0.3691,17.1406 0.4668,18.3125 1.3457,19.1914 L8.6699,26.4668 Z M36.3066,52.15039 C37.4785,52.15039 38.4551,51.56445 40.3105,49.80664 L51.7363,38.77148 C52.6152,37.9902 52.7617,36.7207 52.0293,35.793 C48.7578,31.6426 42.8984,28.2734 36.3066,28.2734 C29.6172,28.2734 23.6113,31.7891 20.3887,36.1348 C19.8516,36.9648 20.0957,38.03906 20.9258,38.77148 L32.3516,49.80664 C34.207,51.61328 35.1836,52.15039 36.3066,52.15039 Z" id="Shape"></path>
                </g>
                <g id="Regular-M" transform="translate(897.860000, 429.000000)">
                    <path d="M8.5723,25.2227 C9.5488,26.248 10.8184,26.1504 11.7461,25.0762 C17.3613,18.7773 26.5898,14.2363 36.0137,14.334 C45.4863,14.2363 54.666,18.9238 60.3789,25.2227 C61.3066,26.1992 62.4785,26.1992 63.4551,25.1738 L70.7305,17.9961 C71.5117,17.2148 71.5605,16.1895 70.877,15.3594 C63.7969,6.6191 50.6133,0.1738 36.0137,0.1738 C21.3652,0.1738 8.2305,6.668 1.1016,15.3594 C0.418,16.1895 0.4668,17.166 1.2969,17.9961 L8.5723,25.2227 Z M36.0137,50.85742 C37.0391,50.85742 37.918,50.32031 39.7246,48.5625 L51.1504,37.57617 C51.9316,36.8926 52.0293,35.8184 51.4434,34.9883 C48.3672,31.0332 42.6055,27.6152 36.0137,27.6152 C29.2266,27.6152 23.416,31.1797 20.3887,35.2812 C19.9004,35.9648 20.0957,36.8926 20.8281,37.57617 L32.2539,48.5625 C34.0605,50.32031 34.9883,50.85742 36.0137,50.85742 Z" id="Shape"></path>
                </g>
                <g id="Light-M" transform="translate(601.660000, 429.000000)">
                    <path d="M8.1816,24.7832 C9.0605,25.6621 10.1836,25.5645 11.0625,24.5879 C16.8242,18.2891 26.1504,13.8457 35.4766,13.8945 C44.8516,13.8457 54.1777,18.3867 59.9395,24.6855 C60.8184,25.6133 61.8926,25.6133 62.7715,24.7344 L69.7051,17.8496 C70.4375,17.166 70.4863,16.1895 69.9004,15.457 C62.8691,6.8145 49.7344,0.6133 35.4766,0.6133 C21.2188,0.6133 8.084,6.8145 1.0527,15.457 C0.4668,16.1895 0.5156,17.1172 1.248,17.8496 L8.1816,24.7832 Z M35.4766,50.41797 C36.4043,50.41797 37.1855,49.92969 38.9434,48.26953 L50.2227,37.38086 C50.9062,36.7461 51.0039,35.8672 50.418,35.0859 C47.5371,31.3262 41.7754,28.0547 35.4766,28.0547 C29.0801,28.0547 23.2207,31.4238 20.3887,35.2812 C19.9004,35.9648 20.0469,36.7461 20.7305,37.38086 L32.0098,48.26953 C33.7676,49.92969 34.5488,50.41797 35.4766,50.41797 Z" id="Shape"></path>
                </g>
                <g id="Thin-M" transform="translate(305.629000, 430.000000)">
                    <path d="M7.6445,23.1484 C8.4258,23.8809 9.3535,23.832 10.1836,22.9531 C16.043,16.6055 25.5645,12.2598 34.793,12.3086 C44.0215,12.2598 53.543,16.6543 59.4023,22.9531 C60.2324,23.8809 61.1113,23.8809 61.8926,23.0996 L68.4355,16.7031 C69.0215,16.0684 69.0703,15.2383 68.5332,14.5547 C61.6973,6.0098 48.5137,0.1992 34.793,0.1992 C21.0723,0.1992 7.9375,6.0586 1.0039,14.5547 C0.4668,15.2383 0.5156,16.0684 1.1504,16.7031 L7.6445,23.1484 Z M34.793,48.83203 C35.5254,48.83203 36.209,48.39258 37.8203,46.830078 L48.9531,36.13672 C49.5391,35.5996 49.6855,34.9648 49.0996,34.1836 C46.4629,30.7168 40.7012,27.5918 34.793,27.5918 C28.8359,27.5918 23.0254,30.7168 20.4375,34.2324 C19.9492,34.9648 19.998,35.5996 20.6328,36.13672 L31.7168,46.830078 C33.3281,48.44141 34.0117,48.83203 34.793,48.83203 Z" id="Shape"></path>
                </g>
                <g id="Ultralight-M" transform="translate(9.284000, 430.000000)">
                    <path d="M7.4004,22.8066 C8.1328,23.4902 8.9141,23.4902 9.7441,22.6113 C15.6523,16.2637 25.2715,11.9668 34.4023,12.0156 C43.582,11.9668 53.2012,16.2637 59.1094,22.6113 C59.9395,23.4902 60.7207,23.4902 61.4531,22.8066 L67.752,16.6055 C68.2891,16.0195 68.3867,15.2383 67.8496,14.6035 C61.0625,6.1562 47.8789,0.4922 34.4023,0.4922 C20.9746,0.4922 7.8398,6.2051 1.0039,14.6035 C0.4668,15.2383 0.5645,16.0195 1.1016,16.6055 L7.4004,22.8066 Z M34.4023,48.53906 C35.0859,48.53906 35.7207,48.09961 37.2832,46.634766 L48.3184,36.03906 C48.8555,35.5508 49.002,34.9648 48.416,34.2324 C45.9258,30.8633 40.1641,27.8848 34.4023,27.8848 C28.6895,27.8848 22.9277,30.8633 20.4375,34.2324 C19.9492,34.9648 19.998,35.5508 20.5352,36.03906 L31.5703,46.634766 C33.1328,48.19727 33.7676,48.53906 34.4023,48.53906 Z" id="Shape"></path>
                </g>
                <g id="Black-S" transform="translate(2387.840000, 0.000000)">
                    <path d="M7.1992,22.3672 C8.4199,23.6367 10.2754,23.5391 11.4961,22.1719 C16.2324,17.0938 23.0195,14.1152 29.5625,14.1152 C36.2031,14.1152 43.0879,17.1914 47.8242,22.3672 C48.9961,23.6367 50.7539,23.6367 51.9258,22.3672 L57.834,16.5078 C58.9082,15.4824 59.0059,13.9688 58.0293,12.8457 C51.7793,5.1309 40.793,0.3457 29.5625,0.3457 C18.332,0.3457 7.3457,5.1309 1.0957,12.8457 C0.1191,13.9688 0.2168,15.4824 1.291,16.5078 L7.1992,22.3672 Z M29.5625,42.72852 C30.7832,42.72852 31.8574,42.14258 33.4688,40.58008 L42.4531,31.8887 C43.5762,30.9121 43.6738,29.2031 42.6973,28.0801 C39.5234,24.1738 34.543,21.8301 29.5625,21.8301 C24.4844,21.8301 19.2598,24.2715 16.0371,28.6172 C15.3535,29.6426 15.6953,31.0098 16.6719,31.8887 L25.6562,40.58008 C27.2676,42.14258 28.3418,42.72852 29.5625,42.72852 Z" id="Shape"></path>
                </g>
                <g id="Heavy-S" transform="translate(2091.390000, 0.000000)">
                    <path d="M7.1016,22.1719 C8.2246,23.3438 9.8848,23.2461 11.0078,21.9766 C15.6953,16.9473 22.5312,13.8223 29.2695,13.8223 C36.1543,13.8223 43.0879,17.0449 47.7266,22.1719 C48.8008,23.3438 50.4121,23.3438 51.4863,22.1719 L57.3457,16.3125 C58.3223,15.3848 58.4199,14.0176 57.541,12.9922 C51.4375,5.4727 40.6465,0.6387 29.2695,0.6387 C17.9414,0.6387 7.1504,5.4727 1.0469,12.9922 C0.168,14.0176 0.2656,15.3848 1.2422,16.3125 L7.1016,22.1719 Z M29.2695,42.43555 C30.4414,42.43555 31.418,41.89844 32.9805,40.38477 L42.0137,31.6934 C42.9902,30.8145 43.0879,29.3008 42.2578,28.2754 C39.2305,24.5645 34.3477,22.123 29.2695,22.123 C24.1426,22.123 19.0645,24.6621 15.9883,28.7637 C15.4023,29.6426 15.6953,30.9121 16.5742,31.6934 L25.5586,40.38477 C27.1699,41.89844 28.1465,42.43555 29.2695,42.43555 Z" id="Shape"></path>
                </g>
                <g id="Bold-S" transform="translate(1795.000000, 0.000000)">
                    <path d="M7.0039,21.9766 C8.0293,23.002 9.4941,22.9043 10.4707,21.7812 C15.0605,16.8008 21.9941,13.5293 28.9766,13.5293 C36.0566,13.5293 43.0391,16.9473 47.6289,21.9766 C48.6055,23.002 49.9727,23.002 50.9492,21.9277 L56.8086,16.1172 C57.6875,15.2871 57.7852,14.1152 57.0039,13.1875 C51.0957,5.9121 40.4512,0.9316 28.9766,0.9316 C17.5508,0.9316 6.9062,5.9121 0.9492,13.1875 C0.2168,14.1152 0.2656,15.2383 1.1445,16.1172 L7.0039,21.9766 Z M28.9766,42.14258 C30.002,42.14258 30.9297,41.6543 32.4922,40.14062 L41.4766,31.498 C42.3555,30.7168 42.4531,29.3984 41.7207,28.5195 C38.8887,24.9551 34.1523,22.416 28.9766,22.416 C23.7031,22.416 18.8203,25.0527 15.9883,28.9102 C15.4512,29.6914 15.6953,30.7656 16.4766,31.498 L25.5098,40.14062 C27.0234,41.6543 27.9512,42.14258 28.9766,42.14258 Z" id="Shape"></path>
                </g>
                <g id="Semibold-S" transform="translate(1498.490000, 1.000000)">
                    <path d="M6.9551,20.8301 C7.8828,21.7578 9.2012,21.6602 10.1289,20.6348 C14.6211,15.7031 21.6523,12.2852 28.7812,12.334 C36.0078,12.2852 43.0391,15.8496 47.5801,20.8301 C48.459,21.7578 49.6797,21.7578 50.6074,20.7812 L56.4668,14.9707 C57.248,14.1895 57.3457,13.1152 56.6133,12.334 C50.8027,5.2051 40.3047,0.127 28.7812,0.127 C17.2578,0.127 6.7109,5.2051 0.9004,12.334 C0.2168,13.1152 0.2656,14.1895 1.0957,14.9707 L6.9551,20.8301 Z M28.7812,40.94727 C29.7578,40.94727 30.5879,40.45898 32.1016,38.99414 L41.1348,30.3516 C41.916,29.6191 42.0137,28.4961 41.3789,27.666 C38.6445,24.248 34.0059,21.6113 28.7812,21.6113 C23.4102,21.6113 18.625,24.3457 15.9395,28.0078 C15.5,28.6914 15.6953,29.668 16.4277,30.3516 L25.4121,38.99414 C26.9258,40.45898 27.8047,40.94727 28.7812,40.94727 Z" id="Shape"></path>
                </g>
                <g id="Medium-S" transform="translate(1201.950000, 1.000000)">
                    <path d="M6.9062,20.6836 C7.7852,21.6113 9.0059,21.5137 9.8359,20.5371 C14.2793,15.6055 21.3594,12.1387 28.6348,12.1875 C35.959,12.1387 43.0391,15.752 47.5312,20.6836 C48.3125,21.5625 49.4844,21.5625 50.3145,20.6836 L56.1738,14.873 C56.9062,14.1406 57.0039,13.1641 56.3203,12.4316 C50.6074,5.4004 40.207,0.2734 28.6348,0.2734 C17.0137,0.2734 6.6133,5.4004 0.9004,12.4316 C0.2168,13.1641 0.3145,14.0918 1.0469,14.873 L6.9062,20.6836 Z M28.6348,40.80078 C29.5137,40.80078 30.3438,40.3125 31.8574,38.89648 L40.8418,30.2051 C41.5742,29.5703 41.6719,28.5449 41.0859,27.7637 C38.4492,24.4434 33.8594,21.7578 28.6348,21.7578 C23.2148,21.7578 18.5273,24.5898 15.9395,28.1055 C15.5,28.7402 15.6953,29.5703 16.3789,30.2051 L25.3633,38.89648 C26.877,40.3125 27.707,40.80078 28.6348,40.80078 Z" id="Shape"></path>
                </g>
                <g id="Regular-S" transform="translate(905.430000, 1.000000)">
                    <path d="M6.8574,20.5371 C7.6387,21.3672 8.7129,21.2695 9.4941,20.3906 C13.8398,15.5078 21.0176,11.9434 28.3906,11.9922 C35.9102,11.9434 42.9902,15.6543 47.4824,20.5371 C48.166,21.3184 49.1914,21.3184 49.9727,20.5371 L55.832,14.7266 C56.5156,14.0918 56.5645,13.2129 55.9785,12.5293 C50.3633,5.6934 40.0605,0.4688 28.3906,0.4688 C16.7695,0.4688 6.4668,5.6934 0.8516,12.5293 C0.2656,13.2129 0.3145,14.043 0.998,14.7266 L6.8574,20.5371 Z M28.3906,40.60547 C29.2695,40.60547 30.0508,40.16602 31.4668,38.75 L40.5,30.0586 C41.1348,29.5215 41.2324,28.5938 40.7441,27.9102 C38.2051,24.7363 33.7129,21.9531 28.3906,21.9531 C22.9219,21.9531 18.332,24.8828 15.8906,28.2031 C15.5488,28.7402 15.6953,29.5215 16.3301,30.0586 L25.3145,38.75 C26.7793,40.16602 27.5605,40.60547 28.3906,40.60547 Z" id="Shape"></path>
                </g>
                <g id="Light-S" transform="translate(609.180000, 1.000000)">
                    <path d="M6.5156,20.1465 C7.248,20.8789 8.1758,20.7812 8.9082,20 C13.3516,15.0684 20.627,11.5527 27.9512,11.6016 C35.3242,11.5527 42.5508,15.166 47.0918,20.0977 C47.7754,20.8301 48.6543,20.8301 49.3867,20.0977 L54.9531,14.5801 C55.5391,14.043 55.5879,13.2129 55.0996,12.627 C49.582,5.8398 39.2305,0.8594 27.9512,0.8594 C16.623,0.8594 6.3203,5.8398 0.8027,12.627 C0.2656,13.2129 0.3145,13.9941 0.9492,14.5801 L6.5156,20.1465 Z M27.9512,40.21484 C28.6836,40.21484 29.3672,39.82422 30.7344,38.45703 L39.6699,29.9121 C40.207,29.4238 40.3047,28.6426 39.8652,28.0078 C37.5215,24.9805 32.9805,22.3438 27.9512,22.3438 C22.7754,22.3438 18.2344,25.0781 15.8906,28.2031 C15.5488,28.7402 15.6465,29.4238 16.2324,29.9121 L25.1191,38.45703 C26.4863,39.82422 27.1699,40.21484 27.9512,40.21484 Z" id="Shape"></path>
                </g>
                <g id="Thin-S" transform="translate(313.081000, 2.000000)">
                    <path d="M6.0273,18.5605 C6.6621,19.1953 7.4434,19.1465 8.0781,18.4141 C12.668,13.4824 20.0898,10.0645 27.3164,10.1133 C34.5918,10.0645 42.0137,13.5312 46.6035,18.4629 C47.2383,19.1953 47.9707,19.1953 48.6055,18.5605 L53.7812,13.4336 C54.2695,12.9453 54.3184,12.2617 53.8789,11.7246 C48.5078,4.9863 38.1562,0.3477 27.3164,0.3477 C16.4766,0.3477 6.1738,5.0352 0.7539,11.7246 C0.3145,12.2617 0.3633,12.9453 0.8516,13.4336 L6.0273,18.5605 Z M27.3164,38.72656 C27.9512,38.72656 28.4883,38.33594 29.8066,37.11523 L38.5469,28.7168 C39.0352,28.2773 39.1328,27.6914 38.6445,27.1055 C36.5449,24.3223 32.0527,21.832 27.3164,21.832 C22.5801,21.832 18.0391,24.3223 15.9395,27.1543 C15.5488,27.7402 15.6465,28.2773 16.1348,28.7168 L24.875,37.11523 C26.1445,38.38477 26.6816,38.72656 27.3164,38.72656 Z" id="Shape"></path>
                </g>
                <g id="Ultralight-S" transform="translate(16.688000, 2.000000)">
                    <path d="M5.7832,18.2676 C6.418,18.8535 7.0527,18.8535 7.6875,18.1211 C12.3262,13.1406 19.8457,9.7715 27.0234,9.8203 C34.2012,9.7715 41.7207,13.1895 46.3105,18.1211 C46.9941,18.8535 47.6289,18.8535 48.2148,18.2676 L53.1953,13.3359 C53.6348,12.8965 53.6836,12.2617 53.293,11.7734 C47.9707,5.1328 37.6191,0.6406 27.0234,0.6406 C16.4277,0.6406 6.125,5.1328 0.7051,11.7734 C0.3145,12.2617 0.3633,12.8965 0.8027,13.3359 L5.7832,18.2676 Z M27.0234,38.43359 C27.5605,38.43359 28.0488,38.0918 29.3184,36.91992 L37.9609,28.6191 C38.4004,28.1797 38.498,27.7402 38.0586,27.1543 C36.1055,24.4688 31.5645,22.125 27.0234,22.125 C22.4824,22.125 17.9414,24.4688 15.9395,27.1543 C15.5488,27.7402 15.5977,28.1797 16.0859,28.6191 L24.7285,36.91992 C25.9492,38.14062 26.4375,38.43359 27.0234,38.43359 Z" id="Shape"></path>
                </g>
            </g>
        </g>
    </g>
</svg>