<?xml version="1.0" encoding="UTF-8"?>
<svg width="3300px" height="2200px" viewBox="0 0 3300 2200" version="1.1" xmlns="http://www.w3.org/2000/svg" xmlns:xlink="http://www.w3.org/1999/xlink">
    <title>Untitled 2</title>
    <g id="Page-1" stroke="none" stroke-width="1" fill="none" fill-rule="evenodd">
        <g id="wifi">
            <g id="Notes">
                <rect id="artboard" fill="#FFFFFF" fill-rule="nonzero" x="0" y="0" width="3300" height="2200"></rect>
                <line x1="263" y1="292" x2="3036" y2="292" id="Path" stroke="#000000" stroke-width="0.5"></line>
                <text id="Weight/Scale-Variations" fill="#000000" fill-rule="nonzero" font-family="Helvetica-Bold, Helvetica" font-size="13" font-weight="bold">
                    <tspan x="263" y="322">Weight/Scale Variations</tspan>
                </text>
                <text id="Ultralight" fill="#000000" fill-rule="nonzero" font-family="Helvetica" font-size="13" font-weight="normal">
                    <tspan x="533.711" y="322">Ultralight</tspan>
                </text>
                <text id="Thin" fill="#000000" fill-rule="nonzero" font-family="Helvetica" font-size="13" font-weight="normal">
                    <tspan x="843.422" y="322">Thin</tspan>
                </text>
                <text id="Light" fill="#000000" fill-rule="nonzero" font-family="Helvetica" font-size="13" font-weight="normal">
                    <tspan x="1138.63" y="322">Light</tspan>
                </text>
                <text id="Regular" fill="#000000" fill-rule="nonzero" font-family="Helvetica" font-size="13" font-weight="normal">
                    <tspan x="1426.84" y="322">Regular</tspan>
                </text>
                <text id="Medium" fill="#000000" fill-rule="nonzero" font-family="Helvetica" font-size="13" font-weight="normal">
                    <tspan x="1723.06" y="322">Medium</tspan>
                </text>
                <text id="Semibold" fill="#000000" fill-rule="nonzero" font-family="Helvetica" font-size="13" font-weight="normal">
                    <tspan x="2015.77" y="322">Semibold</tspan>
                </text>
                <text id="Bold" fill="#000000" fill-rule="nonzero" font-family="Helvetica" font-size="13" font-weight="normal">
                    <tspan x="2326.48" y="322">Bold</tspan>
                </text>
                <text id="Heavy" fill="#000000" fill-rule="nonzero" font-family="Helvetica" font-size="13" font-weight="normal">
                    <tspan x="2618.19" y="322">Heavy</tspan>
                </text>
                <text id="Black" fill="#000000" fill-rule="nonzero" font-family="Helvetica" font-size="13" font-weight="normal">
                    <tspan x="2917.4" y="322">Black</tspan>
                </text>
                <line x1="263" y1="1903" x2="3036" y2="1903" id="Path" stroke="#000000" stroke-width="0.5"></line>
                <g id="Group" transform="translate(264.000000, 1918.000000)" fill="#000000" fill-rule="nonzero">
                    <path d="M8.24805,15.830078 C12.5547,15.830078 16.1387,12.25586 16.1387,7.94922 C16.1387,3.6426 12.5449,0.0684 8.23828,0.0684 C3.94141,0.0684 0.36719,3.6426 0.36719,7.94922 C0.36719,12.25586 3.95117,15.830078 8.24805,15.830078 Z M8.24805,14.345703 C4.70312,14.345703 1.87109,11.50391 1.87109,7.94922 C1.87109,4.3945 4.69336,1.5527 8.23828,1.5527 C11.793,1.5527 14.6348,4.3945 14.6445252,7.94922 C14.6543,11.50391 11.8027,14.345703 8.24805,14.345703 Z M8.22852,11.57227 C8.69727,11.57227 8.9707,11.25977 8.9707,10.74219 L8.9707,8.68164 L11.1973,8.68164 C11.6953,8.68164 12.0371,8.42773 12.0371,7.95898 C12.0371,7.48047 11.7148,7.2168 11.1973,7.2168 L8.9707,7.2168 L8.9707,4.9902 C8.9707,4.4727 8.69727,4.1504 8.22852,4.1504 C7.75977,4.1504 7.50586,4.4922 7.50586,4.9902 L7.50586,7.2168 L5.29883,7.2168 C4.78125,7.2168 4.44922,7.48047 4.44922,7.95898 C4.44922,8.42773 4.80078,8.68164 5.29883,8.68164 L7.50586,8.68164 L7.50586,10.74219 C7.50586,11.24023 7.75977,11.57227 8.22852,11.57227 Z" id="Shape"></path>
                </g>
                <g id="Group" transform="translate(282.506000, 1915.000000)" fill="#000000" fill-rule="nonzero">
                    <path d="M10.709,20.91016 C16.1582,20.91016 20.6699,16.39844 20.6699,10.94922 C20.6699,5.5098 16.1484,0.9883 10.6992,0.9883 C5.25977,0.9883 0.74805,5.5098 0.74805,10.94922 C0.74805,16.39844 5.26953,20.91016 10.709,20.91016 Z M10.709,19.25 C6.09961,19.25 2.41797,15.55859 2.41797,10.94922 C2.41797,6.3496 6.08984,2.6484 10.6992,2.6484 C15.3086,2.6484 19,6.3496 19.009819,10.94922 C19.0195,15.55859 15.3184,19.25 10.709,19.25 Z M10.6895,15.58789 C11.207,15.58789 11.5195,15.22656 11.5195,14.66016 L11.5195,11.76953 L14.5762,11.76953 C15.123,11.76953 15.5039,11.48633 15.5039,10.96875 C15.5039,10.44141 15.1426,10.13867 14.5762,10.13867 L11.5195,10.13867 L11.5195,7.0723 C11.5195,6.4961 11.207,6.1445 10.6895,6.1445 C10.1719,6.1445 9.8789,6.5156 9.8789,7.0723 L9.8789,10.13867 L6.83203,10.13867 C6.26562,10.13867 5.89453,10.44141 5.89453,10.96875 C5.89453,11.48633 6.28516,11.76953 6.83203,11.76953 L9.8789,11.76953 L9.8789,14.66016 C9.8789,15.20703 10.1719,15.58789 10.6895,15.58789 Z" id="Shape"></path>
                </g>
                <g id="Group" transform="translate(306.924000, 1913.000000)" fill="#000000" fill-rule="nonzero">
                    <path d="M12.9707,25.67383 C19.9336,25.67383 25.6953,19.921875 25.6953,12.95898 C25.6953,5.9961 19.9238,0.2441 12.9609,0.2441 C6.00781,0.2441 0.25586,5.9961 0.25586,12.95898 C0.25586,19.921875 6.01758,25.67383 12.9707,25.67383 Z M12.9707,23.85742 C6.93555,23.85742 2.08203,18.99414 2.08203,12.95898 C2.08203,6.9238 6.92578,2.0605 12.9609,2.0605 C19.0059,2.0605 23.8594,6.9238 23.8691148,12.95898 C23.8789,18.99414 19.0156,23.85742 12.9707,23.85742 Z M12.9512,18.93555 C13.5176,18.93555 13.8691,18.54492 13.8691,17.93945 L13.8691,13.86719 L18.1074,13.86719 C18.6934,13.86719 19.1133,13.53516 19.1133,12.97852 C19.1133,12.40234 18.7227,12.06055 18.1074,12.06055 L13.8691,12.06055 L13.8691,7.8125 C13.8691,7.1973 13.5176,6.8066 12.9512,6.8066 C12.3848,6.8066 12.0625,7.2168 12.0625,7.8125 L12.0625,12.06055 L7.83398,12.06055 C7.21875,12.06055 6.80859,12.40234 6.80859,12.97852 C6.80859,13.53516 7.23828,13.86719 7.83398,13.86719 L12.0625,13.86719 L12.0625,17.93945 C12.0625,18.52539 12.3848,18.93555 12.9512,18.93555 Z" id="Shape"></path>
                </g>
                <text id="Design-Variations" fill="#000000" fill-rule="nonzero" font-family="Helvetica-Bold, Helvetica" font-size="13" font-weight="bold">
                    <tspan x="263" y="1953">Design Variations</tspan>
                </text>
                <text id="Symbols-are-supported-in-up-to-nine-weights-and-three-scales." fill="#000000" fill-rule="nonzero" font-family="Helvetica" font-size="13" font-weight="normal">
                    <tspan x="263" y="1971">Symbols are supported in up to nine weights and three scales.</tspan>
                </text>
                <text id="For-optimal-layout-with-text-and-other-symbols,-vertically-align" fill="#000000" fill-rule="nonzero" font-family="Helvetica" font-size="13" font-weight="normal">
                    <tspan x="263" y="1989">For optimal layout with text and other symbols, vertically align</tspan>
                </text>
                <text id="symbols-with-the-adjacent-text." fill="#000000" fill-rule="nonzero" font-family="Helvetica" font-size="13" font-weight="normal">
                    <tspan x="263" y="2007">symbols with the adjacent text.</tspan>
                </text>
                <rect id="Rectangle" fill="#00AEEF" fill-rule="nonzero" opacity="0.4" x="776" y="1919" width="3" height="14"></rect>
                <g id="Group" transform="translate(779.000000, 1918.000000)" fill="#000000" fill-rule="nonzero">
                    <path d="M10.5273,15 L12.373,15 L7.17773,0.9082 L5.43945,0.9082 L0.244141,15 L2.08984,15 L3.50586,10.9668 L9.11133,10.9668 L10.5273,15 Z M6.2793,3.0469 L6.33789,3.0469 L8.59375,9.47266 L4.02344,9.47266 L6.2793,3.0469 Z" id="Shape"></path>
                </g>
                <rect id="Rectangle" fill="#00AEEF" fill-rule="nonzero" opacity="0.4" x="791.617" y="1919" width="3" height="14"></rect>
                <text id="Margins" fill="#000000" fill-rule="nonzero" font-family="Helvetica-Bold, Helvetica" font-size="13" font-weight="bold">
                    <tspan x="776" y="1953">Margins</tspan>
                </text>
                <text id="Leading-and-trailing-margins-on-the-left-and-right-side-of-each-symbol" fill="#000000" fill-rule="nonzero" font-family="Helvetica" font-size="13" font-weight="normal">
                    <tspan x="776" y="1971">Leading and trailing margins on the left and right side of each symbol</tspan>
                </text>
                <text id="can-be-adjusted-by-modifying-the-width-of-the-blue-rectangles." fill="#000000" fill-rule="nonzero" font-family="Helvetica" font-size="13" font-weight="normal">
                    <tspan x="776" y="1989">can be adjusted by modifying the width of the blue rectangles.</tspan>
                </text>
                <text id="Modifications-are-automatically-applied-proportionally-to-all" fill="#000000" fill-rule="nonzero" font-family="Helvetica" font-size="13" font-weight="normal">
                    <tspan x="776" y="2007">Modifications are automatically applied proportionally to all</tspan>
                </text>
                <text id="scales-and-weights." fill="#000000" fill-rule="nonzero" font-family="Helvetica" font-size="13" font-weight="normal">
                    <tspan x="776" y="2025">scales and weights.</tspan>
                </text>
                <g id="Group" transform="translate(1291.000000, 1915.000000)" fill="#000000" fill-rule="nonzero">
                    <path d="M0.83203,21.11523 L2.375,22.6582 C3.22461,23.48828 4.19141,23.41992 5.06055,22.46289 L15.2754,11.33984 C15.7051,11.63281 16.0957,11.62305 16.5645,11.52539 L17.6094,11.31055 L18.3027,12.00391 L18.2539,12.52148 C18.1855,13.04883 18.3516,13.46875 18.8496,13.9668 L19.6602,14.77734 C20.168,15.28516 20.8223,15.31445 21.3008,14.83594 L24.5527,11.58398 C25.0312,11.10547 25.0117,10.45117 24.5039,9.94336 L23.6836,9.12305 C23.1855,8.625 22.7754,8.44922 22.2383,8.52734 L21.7109,8.58594 L21.0566,7.9219 L21.3398,6.7793 C21.4863,6.2129 21.3398,5.7441 20.7148,5.1387 L18.3027,2.7461 C14.7578,-0.7793 10.2266,-0.6719 7.11133,2.4629 C6.69141,2.8926 6.64258,3.4785 6.91602,3.9082 C7.15039,4.2793 7.62891,4.5039 8.2734,4.3379 C9.7871,3.957 11.3008,4.0742 12.7852,5.0801 L12.1602,6.6621 C11.9258,7.248 11.9453,7.7266 12.1797,8.16602 L1.01758,18.439453 C0.08008,19.30859 -0.02734,20.25586 0.83203,21.11523 Z M8.6738,2.8535 C11.3398,0.8613 14.6504,1.1738 17.0527,3.5859 L19.6797,6.1934 C19.9141,6.4277 19.9434,6.6133 19.8848,6.9062 L19.5039,8.46875 L21.0762,10.04102 L22.043,9.95312 C22.3262,9.92383 22.4141,9.94336 22.6387,10.16797 L23.2637,10.79297 L20.5098,13.53711 L19.8848,12.92188 C19.6602,12.69727 19.6406,12.59961 19.6699,12.31641 L19.7578,11.35938 L18.1953,9.79688 L16.5742,10.10938 C16.291,10.16797 16.1445,10.16797 15.9102,9.92383 L13.7324,7.7461 C13.5078,7.5117 13.4785,7.375 13.6055,7.0527 L14.5527,4.7773 C12.9512,3.2441 10.8418,2.3945 8.8008,3.0488 C8.7129,3.0781 8.6445,3.0586 8.6152,3.0195 C8.5859,2.9707 8.5859,2.9219 8.6738,2.8535 Z M2.10156,20.41211 C1.61328,19.91406 1.78906,19.61133 2.12109,19.30859 L13.0781,9.19141 L14.3086,10.42188 L4.15234,21.34961 C3.84961,21.68164 3.46875,21.7793 3.06836,21.37891 L2.10156,20.41211 Z" id="Shape"></path>
                </g>
                <text id="Exporting" fill="#000000" fill-rule="nonzero" font-family="Helvetica-Bold, Helvetica" font-size="13" font-weight="bold">
                    <tspan x="1289" y="1953">Exporting</tspan>
                </text>
                <text id="Symbols-should-be-outlined-when-exporting-to-ensure-the" fill="#000000" fill-rule="nonzero" font-family="Helvetica" font-size="13" font-weight="normal">
                    <tspan x="1289" y="1971">Symbols should be outlined when exporting to ensure the</tspan>
                </text>
                <text id="design-is-preserved-when-submitting-to-Xcode." fill="#000000" fill-rule="nonzero" font-family="Helvetica" font-size="13" font-weight="normal">
                    <tspan x="1289" y="1989">design is preserved when submitting to Xcode.</tspan>
                </text>
                <text id="template-version" fill="#000000" fill-rule="nonzero" font-family="Helvetica" font-size="13" font-weight="normal">
                    <tspan x="2952" y="1933">Template v.1.0</tspan>
                </text>
                <text id="Generated-from-wifi" fill="#000000" fill-rule="nonzero" font-family="Helvetica" font-size="13" font-weight="normal">
                    <tspan x="2922" y="1951">Generated from wifi</tspan>
                </text>
                <text id="Typeset-at-100-points" fill="#000000" fill-rule="nonzero" font-family="Helvetica" font-size="13" font-weight="normal">
                    <tspan x="2912" y="1969">Typeset at 100 points</tspan>
                </text>
                <text id="Small" fill="#000000" fill-rule="nonzero" font-family="Helvetica" font-size="13" font-weight="normal">
                    <tspan x="263" y="726">Small</tspan>
                </text>
                <text id="Medium" fill="#000000" fill-rule="nonzero" font-family="Helvetica" font-size="13" font-weight="normal">
                    <tspan x="263" y="1156">Medium</tspan>
                </text>
                <text id="Large" fill="#000000" fill-rule="nonzero" font-family="Helvetica" font-size="13" font-weight="normal">
                    <tspan x="263" y="1586">Large</tspan>
                </text>
            </g>
            <g id="Guides" transform="translate(263.000000, 625.000000)">
                <g id="H-reference" transform="translate(76.000000, 0.000000)" fill="#27AAE1" fill-rule="nonzero">
                    <path d="M54.9316,71 L57.666,71 L30.5664,0.541 L28.0762,0.541 L0.976562,71 L3.66211,71 L12.9395,46.5371 L45.7031,46.5371 L54.9316,71 Z M29.1992,3.9102 L29.4434,3.9102 L44.8242,44.291 L13.8184,44.291 L29.1992,3.9102 Z" id="Shape"></path>
                </g>
                <line x1="0" y1="71" x2="2773" y2="71" id="Baseline-S" stroke="#27AAE1" stroke-width="0.577"></line>
                <line x1="0" y1="0.541" x2="2773" y2="0.541" id="Capline-S" stroke="#27AAE1" stroke-width="0.577"></line>
                <g id="H-reference" transform="translate(76.000000, 430.000000)" fill="#27AAE1" fill-rule="nonzero">
                    <path d="M54.9316,71 L57.666,71 L30.5664,0.541 L28.0762,0.541 L0.976562,71 L3.66211,71 L12.9395,46.5371 L45.7031,46.5371 L54.9316,71 Z M29.1992,3.9102 L29.4434,3.9102 L44.8242,44.291 L13.8184,44.291 L29.1992,3.9102 Z" id="Shape"></path>
                </g>
                <line x1="0" y1="501" x2="2773" y2="501" id="Baseline-M" stroke="#27AAE1" stroke-width="0.577"></line>
                <line x1="0" y1="430.54" x2="2773" y2="430.54" id="Capline-M" stroke="#27AAE1" stroke-width="0.577"></line>
                <g id="H-reference" transform="translate(76.000000, 860.000000)" fill="#27AAE1" fill-rule="nonzero">
                    <path d="M54.9316,71 L57.666,71 L30.5664,0.541 L28.0762,0.541 L0.976562,71 L3.66211,71 L12.9395,46.5371 L45.7031,46.5371 L54.9316,71 Z M29.1992,3.9102 L29.4434,3.9102 L44.8242,44.291 L13.8184,44.291 L29.1992,3.9102 Z" id="Shape"></path>
                </g>
                <line x1="0" y1="931" x2="2773" y2="931" id="Baseline-L" stroke="#27AAE1" stroke-width="0.577"></line>
                <line x1="0" y1="860.54" x2="2773" y2="860.54" id="Capline-L" stroke="#27AAE1" stroke-width="0.577"></line>
                <rect id="left-margin" fill="#00AEEF" fill-rule="nonzero" opacity="0.4" x="1122.86" y="405.79" width="9.9535" height="119.336"></rect>
                <rect id="right-margin" fill="#00AEEF" fill-rule="nonzero" opacity="0.4" x="1240.89" y="405.79" width="9.94628" height="119.336"></rect>
            </g>
            <g id="Symbols" transform="translate(541.000000, 671.000000)" fill="#000000" fill-rule="nonzero">
                <g id="Black-L" transform="translate(2369.980000, 868.000000)">
                    <path d="M22.4238,33.9434 C24.2793,33.9434 25.8906,33.0156 28.4785,30.5254 L43.322,16.21875 C44.934,14.75391 45.129,12.3125 43.713,10.65234 C38.781,4.5488 30.7734,0.4473 22.4238,0.4473 C13.8789,0.4473 5.5293,4.6953 0.5488,11.43359 C-0.4277,12.89844 0.0605,14.90039 1.5254,16.21875 L16.3203,30.5254 C18.9082,33.0156 20.5684,33.9434 22.4238,33.9434 Z" id="Shape"></path>
                </g>
                <g id="Heavy-L" transform="translate(2073.800000, 868.000000)">
                    <path d="M21.8867,33.4062 C23.5957,33.4062 25.1094,32.5762 27.5996,30.1348 L42.395,15.87695 C43.859,14.60742 44.006,12.45898 42.785,10.94531 C38.098,5.0859 30.2363,0.9844 21.8867,0.9844 C13.3418,0.9844 5.2363,5.2324 0.5488,11.58008 C-0.3301,12.94727 0.0605,14.70508 1.3789,15.87695 L16.1738,30.1348 C18.6641,32.5762 20.1777,33.4062 21.8867,33.4062 Z" id="Shape"></path>
                </g>
                <g id="Bold-L" transform="translate(1777.680000, 869.000000)">
                    <path d="M21.3008,31.8691 C22.8633,31.8691 24.2305,31.0879 26.623,28.7441 L41.369,14.58398 C42.639,13.41211 42.785,11.60547 41.711,10.23828 C37.3652,4.7207 29.6504,0.5215 21.3008,0.5215 C12.8047,0.5215 4.8945,4.8672 0.5,10.77539 C-0.2812,11.94727 0.0605,13.46094 1.2324,14.58398 L15.9785,28.7441 C18.3711,31.0879 19.7383,31.8691 21.3008,31.8691 Z" id="Shape"></path>
                </g>
                <g id="Semibold-L" transform="translate(1481.360000, 869.000000)">
                    <path d="M20.9102,31.4785 C22.3262,31.4785 23.5957,30.7461 25.9395,28.4512 L40.637,14.33984 C41.809,13.31445 41.955,11.70312 40.979,10.43359 C36.8281,5.1113 29.2109,0.9121 20.9102,0.9121 C12.4141,0.9121 4.6504,5.2578 0.5,10.87305 C-0.2324,11.99609 0.0605,13.31445 1.1348,14.33984 L15.832,28.4512 C18.1758,30.7949 19.4453,31.4785 20.9102,31.4785 Z" id="Shape"></path>
                </g>
                <g id="Medium-L" transform="translate(1184.960000, 870.000000)">
                    <path d="M20.5684,30.1855 C21.9355,30.1855 23.1074,29.502 25.4512,27.2559 L40.1,13.14453 C41.174,12.2168 41.32,10.75195 40.441,9.58008 C36.4375,4.4531 28.918,0.2051 20.5684,0.2051 C12.1211,0.2051 4.4551,4.5996 0.5,9.9707 C-0.1836,10.99609 0.0605,12.2168 1.0859,13.14453 L15.7344,27.2559 C18.0293,29.5508 19.25,30.1855 20.5684,30.1855 Z" id="Shape"></path>
                </g>
                <g id="Regular-L" transform="translate(888.640000, 870.000000)">
                    <path d="M20.1777,29.8438 C21.3984,29.8438 22.5215,29.1602 24.7676,27.0117 L39.416,12.90039 C40.344,12.07031 40.49,10.84961 39.709,9.82422 C35.9004,4.8438 28.4785,0.5469 20.1777,0.5469 C11.7305,0.5469 4.2109,4.9902 0.4512,10.11719 C-0.1348,10.99609 0.0605,12.07031 0.9883,12.90039 L15.5879,27.0117 C17.834,29.209 18.957,29.8438 20.1777,29.8438 Z" id="Shape"></path>
                </g>
                <g id="Light-L" transform="translate(592.520000, 871.000000)">
                    <path d="M19.5918,28.3555 C20.7148,28.3555 21.6914,27.7207 23.8398,25.6211 L38.342,11.70508 C39.172,10.97266 39.367,9.89844 38.586,8.87305 C35.0215,4.18555 27.5508,0.0352 19.5918,0.0352 C11.5352,0.0352 4.0645,4.2832 0.5,9.06836 C-0.1348,9.99609 0.0117,10.97266 0.8906,11.70508 L15.3438,25.6211 C17.4922,27.7695 18.5176,28.3555 19.5918,28.3555 Z" id="Shape"></path>
                </g>
                <g id="Thin-L" transform="translate(296.587000, 871.000000)">
                    <path d="M18.8105,27.7207 C19.7383,27.7207 20.6172,27.1348 22.668,25.1816 L36.9258,11.46094 C37.6582,10.77734 37.8535,9.99609 37.1211,9.01953 C33.8008,4.57617 26.3301,0.6699 18.8105,0.6699 C11.291,0.6699 3.8203,4.625 0.5,9.06836 C-0.1348,9.99609 -0.0371,10.77734 0.7441,11.46094 L15.002,25.1816 C17.0527,27.2324 17.8828,27.7207 18.8105,27.7207 Z" id="Shape"></path>
                </g>
                <g id="Ultralight-L" transform="translate(0.267000, 872.000000)">
                    <path d="M18.4199,26.3789 C19.2988,26.3789 20.0312,25.8418 22.0332,23.9375 L36.1934,10.31445 C36.9258,9.67969 37.0723,9.04492 36.3398,8.06836 C33.2148,3.82031 25.7441,0.0117 18.4199,0.0117 C11.1445,0.0117 3.6738,3.77148 0.5488,8.01953 C-0.0859,8.99609 -0.0371,9.67969 0.6465,10.31445 L14.8555,23.9375 C16.8086,25.9395 17.5898,26.3789 18.4199,26.3789 Z" id="Shape"></path>
                </g>
                <g id="Black-M" transform="translate(2374.560000, 433.000000)">
                    <path d="M17.8203,27.61523 C19.4316,27.61523 20.7988,26.83398 22.8496,24.83203 L34.3242,13.74805 C35.7891,12.47852 35.8867,10.2812 34.6172,8.8164 C30.5645,3.8359 24.168,0.8574 17.8203,0.8574 C11.375,0.8574 4.6855,3.9336 0.5352,9.5488 C-0.3438,10.8672 0.0957,12.625 1.3652,13.74805 L12.8398,24.83203 C14.8906,26.83398 16.2578,27.61523 17.8203,27.61523 Z" id="Shape"></path>
                </g>
                <g id="Heavy-M" transform="translate(2078.280000, 434.000000)">
                    <path d="M17.4297,26.17578 C18.8457,26.17578 20.1152,25.49219 22.1172,23.53906 L33.5918,12.45508 C34.8613,11.33203 35.0078,9.4277 33.8848,8.1094 C30.0273,3.373 23.8262,0.248 17.4297,0.248 C10.8867,0.248 4.3926,3.4707 0.4863,8.6953 C-0.2949,9.8672 0.0957,11.42969 1.2188,12.45508 L12.6934,23.53906 C14.6953,25.49219 15.9648,26.17578 17.4297,26.17578 Z" id="Shape"></path>
                </g>
                <g id="Bold-M" transform="translate(1782.060000, 434.000000)">
                    <path d="M16.9414,25.73633 C18.2109,25.73633 19.3828,25.05273 21.2871,23.19727 L32.7617,12.16211 C33.8359,11.18555 33.9824,9.5742 33.0547,8.4023 C29.4414,3.959 23.3867,0.7363 16.9414,0.7363 C10.3008,0.7363 4.0508,4.0566 0.4375,8.8906 C-0.1973,9.916 0.0957,11.23438 1.1211,12.16211 L12.5469,23.19727 C14.4512,25.10156 15.623,25.73633 16.9414,25.73633 Z" id="Shape"></path>
                </g>
                <g id="Semibold-M" transform="translate(1485.690000, 435.000000)">
                    <path d="M16.5996,24.39453 C17.7715,24.39453 18.8457,23.80859 20.75,21.95312 L32.1758,10.9668 C33.1523,10.08789 33.25,8.6719 32.4688,7.6465 C29.0508,3.3496 23.0938,0.0293 16.5996,0.0293 C9.9102,0.0293 3.8066,3.4961 0.4375,8.0371 C-0.1484,8.9648 0.0957,10.13672 1.0234,10.9668 L12.4492,21.95312 C14.3047,23.80859 15.3789,24.39453 16.5996,24.39453 Z" id="Shape"></path>
                </g>
                <g id="Medium-M" transform="translate(1189.220000, 435.000000)">
                    <path d="M16.3066,24.15039 C17.4785,24.15039 18.4551,23.56445 20.3105,21.80664 L31.7363,10.77148 C32.6152,9.9902 32.7617,8.7207 32.0293,7.793 C28.7578,3.6426 22.8984,0.2734 16.3066,0.2734 C9.6172,0.2734 3.6113,3.7891 0.3887,8.1348 C-0.1484,8.9648 0.0957,10.03906 0.9258,10.77148 L12.3516,21.80664 C14.207,23.61328 15.1836,24.15039 16.3066,24.15039 Z" id="Shape"></path>
                </g>
                <g id="Regular-M" transform="translate(892.860000, 435.000000)">
                    <path d="M16.0137,23.85742 C17.0391,23.85742 17.918,23.32031 19.7246,21.5625 L31.1504,10.57617 C31.9316,9.8926 32.0293,8.8184 31.4434,7.9883 C28.3672,4.0332 22.6055,0.6152 16.0137,0.6152 C9.2266,0.6152 3.416,4.1797 0.3887,8.2812 C-0.0996,8.9648 0.0957,9.8926 0.8281,10.57617 L12.2539,21.5625 C14.0605,23.32031 14.9883,23.85742 16.0137,23.85742 Z" id="Shape"></path>
                </g>
                <g id="Light-M" transform="translate(596.660000, 436.000000)">
                    <path d="M15.4766,22.41797 C16.4043,22.41797 17.1855,21.92969 18.9434,20.26953 L30.2227,9.38086 C30.9062,8.7461 31.0039,7.8672 30.418,7.0859 C27.5371,3.3262 21.7754,0.0547 15.4766,0.0547 C9.0801,0.0547 3.2207,3.4238 0.3887,7.2812 C-0.0996,7.9648 0.0469,8.7461 0.7305,9.38086 L12.0098,20.26953 C13.7676,21.92969 14.5488,22.41797 15.4766,22.41797 Z" id="Shape"></path>
                </g>
                <g id="Thin-M" transform="translate(300.629000, 436.000000)">
                    <path d="M14.793,21.83203 C15.5254,21.83203 16.209,21.39258 17.8203,19.830078 L28.9531,9.13672 C29.5391,8.5996 29.6855,7.9648 29.0996,7.1836 C26.4629,3.7168 20.7012,0.5918 14.793,0.5918 C8.8359,0.5918 3.0254,3.7168 0.4375,7.2324 C-0.0508,7.9648 -0.002,8.5996 0.6328,9.13672 L11.7168,19.830078 C13.3281,21.44141 14.0117,21.83203 14.793,21.83203 Z" id="Shape"></path>
                </g>
                <g id="Ultralight-M" transform="translate(4.284000, 436.000000)">
                    <path d="M14.4023,21.53906 C15.0859,21.53906 15.7207,21.09961 17.2832,19.634766 L28.3184,9.03906 C28.8555,8.5508 29.002,7.9648 28.416,7.2324 C25.9258,3.8633 20.1641,0.8848 14.4023,0.8848 C8.6895,0.8848 2.9277,3.8633 0.4375,7.2324 C-0.0508,7.9648 -0.002,8.5508 0.5352,9.03906 L11.5703,19.634766 C13.1328,21.19727 13.7676,21.53906 14.4023,21.53906 Z" id="Shape"></path>
                </g>
                <g id="Black-S" transform="translate(2377.840000, 0.000000)">
                    <path d="M14.5625,21.72852 C15.7832,21.72852 16.8574,21.14258 18.4688,19.58008 L27.4531,10.8887 C28.5762,9.9121 28.6738,8.2031 27.6973,7.0801 C24.5234,3.1738 19.543,0.8301 14.5625,0.8301 C9.4844,0.8301 4.2598,3.2715 1.0371,7.6172 C0.3535,8.6426 0.6953,10.0098 1.6719,10.8887 L10.6562,19.58008 C12.2676,21.14258 13.3418,21.72852 14.5625,21.72852 Z" id="Shape"></path>
                </g>
                <g id="Heavy-S" transform="translate(2081.390000, 1.000000)">
                    <path d="M14.2695,20.43555 C15.4414,20.43555 16.418,19.89844 17.9805,18.38477 L27.0137,9.6934 C27.9902,8.8145 28.0879,7.3008 27.2578,6.2754 C24.2305,2.5645 19.3477,0.123 14.2695,0.123 C9.1426,0.123 4.0645,2.6621 0.9883,6.7637 C0.4023,7.6426 0.6953,8.9121 1.5742,9.6934 L10.5586,18.38477 C12.1699,19.89844 13.1465,20.43555 14.2695,20.43555 Z" id="Shape"></path>
                </g>
                <g id="Bold-S" transform="translate(1785.000000, 1.000000)">
                    <path d="M13.9766,20.14258 C15.002,20.14258 15.9297,19.6543 17.4922,18.14062 L26.4766,9.498 C27.3555,8.7168 27.4531,7.3984 26.7207,6.5195 C23.8887,2.9551 19.1523,0.416 13.9766,0.416 C8.7031,0.416 3.8203,3.0527 0.9883,6.9102 C0.4512,7.6914 0.6953,8.7656 1.4766,9.498 L10.5098,18.14062 C12.0234,19.6543 12.9512,20.14258 13.9766,20.14258 Z" id="Shape"></path>
                </g>
                <g id="Semibold-S" transform="translate(1488.490000, 1.000000)">
                    <path d="M13.7812,19.94727 C14.7578,19.94727 15.5879,19.45898 17.1016,17.99414 L26.1348,9.3516 C26.916,8.6191 27.0137,7.4961 26.3789,6.666 C23.6445,3.248 19.0059,0.6113 13.7812,0.6113 C8.4102,0.6113 3.625,3.3457 0.9395,7.0078 C0.5,7.6914 0.6953,8.668 1.4277,9.3516 L10.4121,17.99414 C11.9258,19.45898 12.8047,19.94727 13.7812,19.94727 Z" id="Shape"></path>
                </g>
                <g id="Medium-S" transform="translate(1191.950000, 1.000000)">
                    <path d="M13.6348,19.80078 C14.5137,19.80078 15.3438,19.3125 16.8574,17.89648 L25.8418,9.2051 C26.5742,8.5703 26.6719,7.5449 26.0859,6.7637 C23.4492,3.4434 18.8594,0.7578 13.6348,0.7578 C8.2148,0.7578 3.5273,3.5898 0.9395,7.1055 C0.5,7.7402 0.6953,8.5703 1.3789,9.2051 L10.3633,17.89648 C11.877,19.3125 12.707,19.80078 13.6348,19.80078 Z" id="Shape"></path>
                </g>
                <g id="Regular-S" transform="translate(895.430000, 1.000000)">
                    <path d="M13.3906,19.60547 C14.2695,19.60547 15.0508,19.16602 16.4668,17.75 L25.5,9.0586 C26.1348,8.5215 26.2324,7.5938 25.7441,6.9102 C23.2051,3.7363 18.7129,0.9531 13.3906,0.9531 C7.9219,0.9531 3.332,3.8828 0.8906,7.2031 C0.5488,7.7402 0.6953,8.5215 1.3301,9.0586 L10.3145,17.75 C11.7793,19.16602 12.5605,19.60547 13.3906,19.60547 Z" id="Shape"></path>
                </g>
                <g id="Light-S" transform="translate(599.180000, 2.000000)">
                    <path d="M12.9512,18.21484 C13.6836,18.21484 14.3672,17.82422 15.7344,16.45703 L24.6699,7.9121 C25.207,7.4238 25.3047,6.6426 24.8652,6.0078 C22.5215,2.9805 17.9805,0.3438 12.9512,0.3438 C7.7754,0.3438 3.2344,3.0781 0.8906,6.2031 C0.5488,6.7402 0.6465,7.4238 1.2324,7.9121 L10.1191,16.45703 C11.4863,17.82422 12.1699,18.21484 12.9512,18.21484 Z" id="Shape"></path>
                </g>
                <g id="Thin-S" transform="translate(303.081000, 2.000000)">
                    <path d="M12.3164,17.72656 C12.9512,17.72656 13.4883,17.33594 14.8066,16.11523 L23.5469,7.7168 C24.0352,7.2773 24.1328,6.6914 23.6445,6.1055 C21.5449,3.3223 17.0527,0.832 12.3164,0.832 C7.5801,0.832 3.0391,3.3223 0.9395,6.1543 C0.5488,6.7402 0.6465,7.2773 1.1348,7.7168 L9.875,16.11523 C11.1445,17.38477 11.6816,17.72656 12.3164,17.72656 Z" id="Shape"></path>
                </g>
                <g id="Ultralight-S" transform="translate(6.688000, 3.000000)">
                    <path d="M12.0234,16.43359 C12.5605,16.43359 13.0488,16.0918 14.3184,14.91992 L22.9609,6.6191 C23.4004,6.1797 23.498,5.7402 23.0586,5.1543 C21.1055,2.4688 16.5645,0.125 12.0234,0.125 C7.4824,0.125 2.9414,2.4688 0.9395,5.1543 C0.5488,5.7402 0.5977,6.1797 1.0859,6.6191 L9.7285,14.91992 C10.9492,16.14062 11.4375,16.43359 12.0234,16.43359 Z" id="Shape"></path>
                </g>
            </g>
        </g>
    </g>
</svg>