M48
; DRILL file {KiCad (5.1.5-0-10_14)} date Wednesday, 22 April 2020 at 23:35:20
; FORMAT={-:-/ absolute / inch / decimal}
; #@! TF.CreationDate,2020-04-22T23:35:20+01:00
; #@! TF.GenerationSoftware,Kicad,Pcbnew,(5.1.5-0-10_14)
FMAT,2
INCH
T1C0.0157
T2C0.0394
T3C0.0984
T4C0.1260
%
G90
G05
T1
X1.5Y-1.7205
X1.5Y-2.5079
X1.5Y-3.2953
X1.6063Y-1.7756
X1.6063Y-2.563
X1.6575Y-3.2953
X1.6693Y-1.8346
X1.6693Y-2.622
X1.874Y-3.2795
X1.8937Y-1.7205
X1.8937Y-2.5079
X2.0Y-1.7756
X2.0Y-2.563
X2.063Y-1.8346
X2.063Y-2.622
X2.063Y-3.2795
X2.2874Y-1.7205
X2.2874Y-2.5079
X2.2874Y-3.2953
X2.3937Y-1.7756
X2.3937Y-2.563
X2.4449Y-3.2953
X2.4567Y-1.8346
X2.4567Y-2.622
X2.6811Y-1.7205
X2.6811Y-2.5079
X2.6811Y-3.2953
X2.7874Y-1.7756
X2.7874Y-2.563
X2.8346Y-3.2953
X2.8504Y-1.8346
X2.8504Y-2.622
X3.0748Y-1.7205
X3.0748Y-2.5079
X3.0748Y-3.2953
X3.1811Y-1.7756
X3.1811Y-2.563
X3.2323Y-3.2953
X3.2441Y-1.8346
X3.2441Y-2.622
X3.4528Y-3.2795
X3.4685Y-1.7205
X3.4685Y-2.5079
X3.5748Y-1.7756
X3.5748Y-2.563
X3.6378Y-1.8346
X3.6378Y-2.622
X3.6378Y-3.2795
X3.8622Y-1.7205
X3.8622Y-2.5079
X3.8622Y-3.2953
X3.9685Y-1.7756
X3.9685Y-2.563
X4.0157Y-3.2953
X4.0315Y-1.8346
X4.0315Y-2.622
X4.2559Y-1.7205
X4.2559Y-2.5079
X4.2559Y-3.2953
X4.2559Y-3.2953
X4.3622Y-1.7756
X4.3622Y-2.563
X4.4213Y-3.2874
X4.4252Y-1.8346
X4.4252Y-2.622
X4.5787Y-3.5827
X4.6496Y-1.7205
X4.6496Y-2.5079
X4.6496Y-3.2953
X4.7559Y-1.7756
X4.7559Y-2.563
X4.8031Y-3.2953
X4.8189Y-1.8346
X4.8189Y-2.622
X5.0433Y-1.7205
X5.0433Y-2.5079
X5.0433Y-3.2953
X5.1496Y-1.7756
X5.1496Y-2.563
X5.2126Y-1.8346
X5.2126Y-2.622
X5.2126Y-3.2913
X5.437Y-1.7205
X5.437Y-2.5079
X5.437Y-3.2953
X5.5433Y-1.7756
X5.5433Y-2.563
X5.5906Y-3.2953
X5.6063Y-1.8346
X5.6063Y-2.622
X5.8307Y-1.7205
X5.8307Y-2.5079
X5.8307Y-3.2953
X5.937Y-1.7756
X5.937Y-2.563
X6.0Y-1.8346
X6.0Y-2.622
X6.0Y-3.2795
X6.2244Y-1.7205
X6.2244Y-2.5079
X6.2244Y-3.2953
X6.3307Y-1.7756
X6.3307Y-2.563
X6.3858Y-3.2992
X6.3937Y-1.8346
X6.3937Y-2.622
X6.6181Y-1.7205
X6.6181Y-2.5079
X6.6181Y-3.2953
X6.7244Y-1.7756
X6.7244Y-2.563
X6.7251Y-3.2953
X6.7874Y-1.8346
X6.7874Y-2.622
X7.0118Y-1.7205
X7.0118Y-2.5079
X7.0118Y-3.2953
X7.1181Y-1.7756
X7.1181Y-2.563
X7.1654Y-3.3071
X7.1811Y-1.8346
X7.1811Y-2.622
X7.4055Y-1.7205
X7.4055Y-2.5079
X7.4055Y-3.2953
X7.5118Y-1.7756
X7.5118Y-2.563
X7.5748Y-1.8346
X7.5748Y-2.622
X7.5787Y-3.2913
X7.7992Y-1.7205
X7.7992Y-2.5079
X7.7992Y-3.2953
X7.9055Y-1.7756
X7.9055Y-2.563
X7.9567Y-3.2953
X7.9685Y-1.8346
X7.9685Y-2.622
T2
X3.937Y-3.463
X3.937Y-3.563
X4.037Y-3.463
X4.037Y-3.563
X4.137Y-3.463
X4.137Y-3.563
X4.237Y-3.463
X4.237Y-3.563
T3
X3.7402Y-3.5039
X5.7087Y-3.5039
X3.7402Y-2.1654
X5.7087Y-2.1654
T4
X1.2598Y-1.2598
X1.2598Y-3.4646
X8.189Y-3.4646
X8.189Y-1.2598
T0
M30
