G04 #@! TF.GenerationSoftware,KiCad,Pcbnew,(5.1.5-0-10_14)*
G04 #@! TF.CreationDate,2020-04-22T23:35:31+01:00*
G04 #@! TF.ProjectId,Display,44697370-6c61-4792-9e6b-696361645f70,rev?*
G04 #@! TF.SameCoordinates,Original*
G04 #@! TF.FileFunction,Soldermask,Bot*
G04 #@! TF.FilePolarity,Negative*
%FSLAX46Y46*%
G04 Gerber Fmt 4.6, Leading zero omitted, Abs format (unit mm)*
G04 Created by KiCad (PCBNEW (5.1.5-0-10_14)) date 2020-04-22 23:35:31*
%MOMM*%
%LPD*%
G04 APERTURE LIST*
%ADD10C,0.100000*%
G04 APERTURE END LIST*
D10*
G36*
X107733512Y-89603927D02*
G01*
X107882812Y-89633624D01*
X108046784Y-89701544D01*
X108194354Y-89800147D01*
X108319853Y-89925646D01*
X108418456Y-90073216D01*
X108486376Y-90237188D01*
X108521000Y-90411259D01*
X108521000Y-90588741D01*
X108486376Y-90762812D01*
X108418456Y-90926784D01*
X108319853Y-91074354D01*
X108194354Y-91199853D01*
X108046784Y-91298456D01*
X107882812Y-91366376D01*
X107733512Y-91396073D01*
X107708742Y-91401000D01*
X107531258Y-91401000D01*
X107506488Y-91396073D01*
X107357188Y-91366376D01*
X107193216Y-91298456D01*
X107045646Y-91199853D01*
X106920147Y-91074354D01*
X106821544Y-90926784D01*
X106753624Y-90762812D01*
X106719000Y-90588741D01*
X106719000Y-90411259D01*
X106753624Y-90237188D01*
X106821544Y-90073216D01*
X106920147Y-89925646D01*
X107045646Y-89800147D01*
X107193216Y-89701544D01*
X107357188Y-89633624D01*
X107506488Y-89603927D01*
X107531258Y-89599000D01*
X107708742Y-89599000D01*
X107733512Y-89603927D01*
G37*
G36*
X105193512Y-89603927D02*
G01*
X105342812Y-89633624D01*
X105506784Y-89701544D01*
X105654354Y-89800147D01*
X105779853Y-89925646D01*
X105878456Y-90073216D01*
X105946376Y-90237188D01*
X105981000Y-90411259D01*
X105981000Y-90588741D01*
X105946376Y-90762812D01*
X105878456Y-90926784D01*
X105779853Y-91074354D01*
X105654354Y-91199853D01*
X105506784Y-91298456D01*
X105342812Y-91366376D01*
X105193512Y-91396073D01*
X105168742Y-91401000D01*
X104991258Y-91401000D01*
X104966488Y-91396073D01*
X104817188Y-91366376D01*
X104653216Y-91298456D01*
X104505646Y-91199853D01*
X104380147Y-91074354D01*
X104281544Y-90926784D01*
X104213624Y-90762812D01*
X104179000Y-90588741D01*
X104179000Y-90411259D01*
X104213624Y-90237188D01*
X104281544Y-90073216D01*
X104380147Y-89925646D01*
X104505646Y-89800147D01*
X104653216Y-89701544D01*
X104817188Y-89633624D01*
X104966488Y-89603927D01*
X104991258Y-89599000D01*
X105168742Y-89599000D01*
X105193512Y-89603927D01*
G37*
G36*
X102653512Y-89603927D02*
G01*
X102802812Y-89633624D01*
X102966784Y-89701544D01*
X103114354Y-89800147D01*
X103239853Y-89925646D01*
X103338456Y-90073216D01*
X103406376Y-90237188D01*
X103441000Y-90411259D01*
X103441000Y-90588741D01*
X103406376Y-90762812D01*
X103338456Y-90926784D01*
X103239853Y-91074354D01*
X103114354Y-91199853D01*
X102966784Y-91298456D01*
X102802812Y-91366376D01*
X102653512Y-91396073D01*
X102628742Y-91401000D01*
X102451258Y-91401000D01*
X102426488Y-91396073D01*
X102277188Y-91366376D01*
X102113216Y-91298456D01*
X101965646Y-91199853D01*
X101840147Y-91074354D01*
X101741544Y-90926784D01*
X101673624Y-90762812D01*
X101639000Y-90588741D01*
X101639000Y-90411259D01*
X101673624Y-90237188D01*
X101741544Y-90073216D01*
X101840147Y-89925646D01*
X101965646Y-89800147D01*
X102113216Y-89701544D01*
X102277188Y-89633624D01*
X102426488Y-89603927D01*
X102451258Y-89599000D01*
X102628742Y-89599000D01*
X102653512Y-89603927D01*
G37*
G36*
X100901000Y-91401000D02*
G01*
X99099000Y-91401000D01*
X99099000Y-89599000D01*
X100901000Y-89599000D01*
X100901000Y-91401000D01*
G37*
G36*
X145379487Y-87748996D02*
G01*
X145616253Y-87847068D01*
X145616255Y-87847069D01*
X145652456Y-87871258D01*
X145829339Y-87989447D01*
X146010553Y-88170661D01*
X146152932Y-88383747D01*
X146251004Y-88620513D01*
X146301000Y-88871861D01*
X146301000Y-89128139D01*
X146251004Y-89379487D01*
X146216371Y-89463097D01*
X146152931Y-89616255D01*
X146010553Y-89829339D01*
X145829339Y-90010553D01*
X145616255Y-90152931D01*
X145616254Y-90152932D01*
X145616253Y-90152932D01*
X145379487Y-90251004D01*
X145128139Y-90301000D01*
X144871861Y-90301000D01*
X144620513Y-90251004D01*
X144383747Y-90152932D01*
X144383746Y-90152932D01*
X144383745Y-90152931D01*
X144170661Y-90010553D01*
X143989447Y-89829339D01*
X143847069Y-89616255D01*
X143783629Y-89463097D01*
X143748996Y-89379487D01*
X143699000Y-89128139D01*
X143699000Y-88871861D01*
X143748996Y-88620513D01*
X143847068Y-88383747D01*
X143989447Y-88170661D01*
X144170661Y-87989447D01*
X144347544Y-87871258D01*
X144383745Y-87847069D01*
X144383747Y-87847068D01*
X144620513Y-87748996D01*
X144871861Y-87699000D01*
X145128139Y-87699000D01*
X145379487Y-87748996D01*
G37*
G36*
X95379487Y-87748996D02*
G01*
X95616253Y-87847068D01*
X95616255Y-87847069D01*
X95652456Y-87871258D01*
X95829339Y-87989447D01*
X96010553Y-88170661D01*
X96152932Y-88383747D01*
X96251004Y-88620513D01*
X96301000Y-88871861D01*
X96301000Y-89128139D01*
X96251004Y-89379487D01*
X96216371Y-89463097D01*
X96152931Y-89616255D01*
X96010553Y-89829339D01*
X95829339Y-90010553D01*
X95616255Y-90152931D01*
X95616254Y-90152932D01*
X95616253Y-90152932D01*
X95379487Y-90251004D01*
X95128139Y-90301000D01*
X94871861Y-90301000D01*
X94620513Y-90251004D01*
X94383747Y-90152932D01*
X94383746Y-90152932D01*
X94383745Y-90152931D01*
X94170661Y-90010553D01*
X93989447Y-89829339D01*
X93847069Y-89616255D01*
X93783629Y-89463097D01*
X93748996Y-89379487D01*
X93699000Y-89128139D01*
X93699000Y-88871861D01*
X93748996Y-88620513D01*
X93847068Y-88383747D01*
X93989447Y-88170661D01*
X94170661Y-87989447D01*
X94347544Y-87871258D01*
X94383745Y-87847069D01*
X94383747Y-87847068D01*
X94620513Y-87748996D01*
X94871861Y-87699000D01*
X95128139Y-87699000D01*
X95379487Y-87748996D01*
G37*
G36*
X32375256Y-86391298D02*
G01*
X32481579Y-86412447D01*
X32782042Y-86536903D01*
X33052451Y-86717585D01*
X33282415Y-86947549D01*
X33282416Y-86947551D01*
X33463098Y-87217960D01*
X33587553Y-87518422D01*
X33651000Y-87837389D01*
X33651000Y-88162611D01*
X33639025Y-88222811D01*
X33587553Y-88481579D01*
X33463097Y-88782042D01*
X33282415Y-89052451D01*
X33052451Y-89282415D01*
X32782042Y-89463097D01*
X32481579Y-89587553D01*
X32424031Y-89599000D01*
X32162611Y-89651000D01*
X31837389Y-89651000D01*
X31575969Y-89599000D01*
X31518421Y-89587553D01*
X31217958Y-89463097D01*
X30947549Y-89282415D01*
X30717585Y-89052451D01*
X30536903Y-88782042D01*
X30412447Y-88481579D01*
X30360975Y-88222811D01*
X30349000Y-88162611D01*
X30349000Y-87837389D01*
X30412447Y-87518422D01*
X30536902Y-87217960D01*
X30717584Y-86947551D01*
X30717585Y-86947549D01*
X30947549Y-86717585D01*
X31217958Y-86536903D01*
X31518421Y-86412447D01*
X31624744Y-86391298D01*
X31837389Y-86349000D01*
X32162611Y-86349000D01*
X32375256Y-86391298D01*
G37*
G36*
X208375256Y-86391298D02*
G01*
X208481579Y-86412447D01*
X208782042Y-86536903D01*
X209052451Y-86717585D01*
X209282415Y-86947549D01*
X209282416Y-86947551D01*
X209463098Y-87217960D01*
X209587553Y-87518422D01*
X209651000Y-87837389D01*
X209651000Y-88162611D01*
X209639025Y-88222811D01*
X209587553Y-88481579D01*
X209463097Y-88782042D01*
X209282415Y-89052451D01*
X209052451Y-89282415D01*
X208782042Y-89463097D01*
X208481579Y-89587553D01*
X208424031Y-89599000D01*
X208162611Y-89651000D01*
X207837389Y-89651000D01*
X207575969Y-89599000D01*
X207518421Y-89587553D01*
X207217958Y-89463097D01*
X206947549Y-89282415D01*
X206717585Y-89052451D01*
X206536903Y-88782042D01*
X206412447Y-88481579D01*
X206360975Y-88222811D01*
X206349000Y-88162611D01*
X206349000Y-87837389D01*
X206412447Y-87518422D01*
X206536902Y-87217960D01*
X206717584Y-86947551D01*
X206717585Y-86947549D01*
X206947549Y-86717585D01*
X207217958Y-86536903D01*
X207518421Y-86412447D01*
X207624744Y-86391298D01*
X207837389Y-86349000D01*
X208162611Y-86349000D01*
X208375256Y-86391298D01*
G37*
G36*
X107733512Y-87063927D02*
G01*
X107882812Y-87093624D01*
X108046784Y-87161544D01*
X108194354Y-87260147D01*
X108319853Y-87385646D01*
X108418456Y-87533216D01*
X108486376Y-87697188D01*
X108521000Y-87871259D01*
X108521000Y-88048741D01*
X108486376Y-88222812D01*
X108418456Y-88386784D01*
X108319853Y-88534354D01*
X108194354Y-88659853D01*
X108046784Y-88758456D01*
X107882812Y-88826376D01*
X107733512Y-88856073D01*
X107708742Y-88861000D01*
X107531258Y-88861000D01*
X107506488Y-88856073D01*
X107357188Y-88826376D01*
X107193216Y-88758456D01*
X107045646Y-88659853D01*
X106920147Y-88534354D01*
X106821544Y-88386784D01*
X106753624Y-88222812D01*
X106719000Y-88048741D01*
X106719000Y-87871259D01*
X106753624Y-87697188D01*
X106821544Y-87533216D01*
X106920147Y-87385646D01*
X107045646Y-87260147D01*
X107193216Y-87161544D01*
X107357188Y-87093624D01*
X107506488Y-87063927D01*
X107531258Y-87059000D01*
X107708742Y-87059000D01*
X107733512Y-87063927D01*
G37*
G36*
X100113512Y-87063927D02*
G01*
X100262812Y-87093624D01*
X100426784Y-87161544D01*
X100574354Y-87260147D01*
X100699853Y-87385646D01*
X100798456Y-87533216D01*
X100866376Y-87697188D01*
X100901000Y-87871259D01*
X100901000Y-88048741D01*
X100866376Y-88222812D01*
X100798456Y-88386784D01*
X100699853Y-88534354D01*
X100574354Y-88659853D01*
X100426784Y-88758456D01*
X100262812Y-88826376D01*
X100113512Y-88856073D01*
X100088742Y-88861000D01*
X99911258Y-88861000D01*
X99886488Y-88856073D01*
X99737188Y-88826376D01*
X99573216Y-88758456D01*
X99425646Y-88659853D01*
X99300147Y-88534354D01*
X99201544Y-88386784D01*
X99133624Y-88222812D01*
X99099000Y-88048741D01*
X99099000Y-87871259D01*
X99133624Y-87697188D01*
X99201544Y-87533216D01*
X99300147Y-87385646D01*
X99425646Y-87260147D01*
X99573216Y-87161544D01*
X99737188Y-87093624D01*
X99886488Y-87063927D01*
X99911258Y-87059000D01*
X100088742Y-87059000D01*
X100113512Y-87063927D01*
G37*
G36*
X105193512Y-87063927D02*
G01*
X105342812Y-87093624D01*
X105506784Y-87161544D01*
X105654354Y-87260147D01*
X105779853Y-87385646D01*
X105878456Y-87533216D01*
X105946376Y-87697188D01*
X105981000Y-87871259D01*
X105981000Y-88048741D01*
X105946376Y-88222812D01*
X105878456Y-88386784D01*
X105779853Y-88534354D01*
X105654354Y-88659853D01*
X105506784Y-88758456D01*
X105342812Y-88826376D01*
X105193512Y-88856073D01*
X105168742Y-88861000D01*
X104991258Y-88861000D01*
X104966488Y-88856073D01*
X104817188Y-88826376D01*
X104653216Y-88758456D01*
X104505646Y-88659853D01*
X104380147Y-88534354D01*
X104281544Y-88386784D01*
X104213624Y-88222812D01*
X104179000Y-88048741D01*
X104179000Y-87871259D01*
X104213624Y-87697188D01*
X104281544Y-87533216D01*
X104380147Y-87385646D01*
X104505646Y-87260147D01*
X104653216Y-87161544D01*
X104817188Y-87093624D01*
X104966488Y-87063927D01*
X104991258Y-87059000D01*
X105168742Y-87059000D01*
X105193512Y-87063927D01*
G37*
G36*
X102653512Y-87063927D02*
G01*
X102802812Y-87093624D01*
X102966784Y-87161544D01*
X103114354Y-87260147D01*
X103239853Y-87385646D01*
X103338456Y-87533216D01*
X103406376Y-87697188D01*
X103441000Y-87871259D01*
X103441000Y-88048741D01*
X103406376Y-88222812D01*
X103338456Y-88386784D01*
X103239853Y-88534354D01*
X103114354Y-88659853D01*
X102966784Y-88758456D01*
X102802812Y-88826376D01*
X102653512Y-88856073D01*
X102628742Y-88861000D01*
X102451258Y-88861000D01*
X102426488Y-88856073D01*
X102277188Y-88826376D01*
X102113216Y-88758456D01*
X101965646Y-88659853D01*
X101840147Y-88534354D01*
X101741544Y-88386784D01*
X101673624Y-88222812D01*
X101639000Y-88048741D01*
X101639000Y-87871259D01*
X101673624Y-87697188D01*
X101741544Y-87533216D01*
X101840147Y-87385646D01*
X101965646Y-87260147D01*
X102113216Y-87161544D01*
X102277188Y-87093624D01*
X102426488Y-87063927D01*
X102451258Y-87059000D01*
X102628742Y-87059000D01*
X102653512Y-87063927D01*
G37*
G36*
X95379487Y-53748996D02*
G01*
X95616253Y-53847068D01*
X95616255Y-53847069D01*
X95829339Y-53989447D01*
X96010553Y-54170661D01*
X96152932Y-54383747D01*
X96251004Y-54620513D01*
X96301000Y-54871861D01*
X96301000Y-55128139D01*
X96251004Y-55379487D01*
X96152932Y-55616253D01*
X96152931Y-55616255D01*
X96010553Y-55829339D01*
X95829339Y-56010553D01*
X95616255Y-56152931D01*
X95616254Y-56152932D01*
X95616253Y-56152932D01*
X95379487Y-56251004D01*
X95128139Y-56301000D01*
X94871861Y-56301000D01*
X94620513Y-56251004D01*
X94383747Y-56152932D01*
X94383746Y-56152932D01*
X94383745Y-56152931D01*
X94170661Y-56010553D01*
X93989447Y-55829339D01*
X93847069Y-55616255D01*
X93847068Y-55616253D01*
X93748996Y-55379487D01*
X93699000Y-55128139D01*
X93699000Y-54871861D01*
X93748996Y-54620513D01*
X93847068Y-54383747D01*
X93989447Y-54170661D01*
X94170661Y-53989447D01*
X94383745Y-53847069D01*
X94383747Y-53847068D01*
X94620513Y-53748996D01*
X94871861Y-53699000D01*
X95128139Y-53699000D01*
X95379487Y-53748996D01*
G37*
G36*
X145379487Y-53748996D02*
G01*
X145616253Y-53847068D01*
X145616255Y-53847069D01*
X145829339Y-53989447D01*
X146010553Y-54170661D01*
X146152932Y-54383747D01*
X146251004Y-54620513D01*
X146301000Y-54871861D01*
X146301000Y-55128139D01*
X146251004Y-55379487D01*
X146152932Y-55616253D01*
X146152931Y-55616255D01*
X146010553Y-55829339D01*
X145829339Y-56010553D01*
X145616255Y-56152931D01*
X145616254Y-56152932D01*
X145616253Y-56152932D01*
X145379487Y-56251004D01*
X145128139Y-56301000D01*
X144871861Y-56301000D01*
X144620513Y-56251004D01*
X144383747Y-56152932D01*
X144383746Y-56152932D01*
X144383745Y-56152931D01*
X144170661Y-56010553D01*
X143989447Y-55829339D01*
X143847069Y-55616255D01*
X143847068Y-55616253D01*
X143748996Y-55379487D01*
X143699000Y-55128139D01*
X143699000Y-54871861D01*
X143748996Y-54620513D01*
X143847068Y-54383747D01*
X143989447Y-54170661D01*
X144170661Y-53989447D01*
X144383745Y-53847069D01*
X144383747Y-53847068D01*
X144620513Y-53748996D01*
X144871861Y-53699000D01*
X145128139Y-53699000D01*
X145379487Y-53748996D01*
G37*
G36*
X208375256Y-30391298D02*
G01*
X208481579Y-30412447D01*
X208782042Y-30536903D01*
X209052451Y-30717585D01*
X209282415Y-30947549D01*
X209463097Y-31217958D01*
X209587553Y-31518421D01*
X209651000Y-31837391D01*
X209651000Y-32162609D01*
X209587553Y-32481579D01*
X209463097Y-32782042D01*
X209282415Y-33052451D01*
X209052451Y-33282415D01*
X208782042Y-33463097D01*
X208481579Y-33587553D01*
X208375256Y-33608702D01*
X208162611Y-33651000D01*
X207837389Y-33651000D01*
X207624744Y-33608702D01*
X207518421Y-33587553D01*
X207217958Y-33463097D01*
X206947549Y-33282415D01*
X206717585Y-33052451D01*
X206536903Y-32782042D01*
X206412447Y-32481579D01*
X206349000Y-32162609D01*
X206349000Y-31837391D01*
X206412447Y-31518421D01*
X206536903Y-31217958D01*
X206717585Y-30947549D01*
X206947549Y-30717585D01*
X207217958Y-30536903D01*
X207518421Y-30412447D01*
X207624744Y-30391298D01*
X207837389Y-30349000D01*
X208162611Y-30349000D01*
X208375256Y-30391298D01*
G37*
G36*
X32375256Y-30391298D02*
G01*
X32481579Y-30412447D01*
X32782042Y-30536903D01*
X33052451Y-30717585D01*
X33282415Y-30947549D01*
X33463097Y-31217958D01*
X33587553Y-31518421D01*
X33651000Y-31837391D01*
X33651000Y-32162609D01*
X33587553Y-32481579D01*
X33463097Y-32782042D01*
X33282415Y-33052451D01*
X33052451Y-33282415D01*
X32782042Y-33463097D01*
X32481579Y-33587553D01*
X32375256Y-33608702D01*
X32162611Y-33651000D01*
X31837389Y-33651000D01*
X31624744Y-33608702D01*
X31518421Y-33587553D01*
X31217958Y-33463097D01*
X30947549Y-33282415D01*
X30717585Y-33052451D01*
X30536903Y-32782042D01*
X30412447Y-32481579D01*
X30349000Y-32162609D01*
X30349000Y-31837391D01*
X30412447Y-31518421D01*
X30536903Y-31217958D01*
X30717585Y-30947549D01*
X30947549Y-30717585D01*
X31217958Y-30536903D01*
X31518421Y-30412447D01*
X31624744Y-30391298D01*
X31837389Y-30349000D01*
X32162611Y-30349000D01*
X32375256Y-30391298D01*
G37*
G36*
X145051000Y-33551000D02*
G01*
X94949000Y-33551000D01*
X94949000Y-28449000D01*
X145051000Y-28449000D01*
X145051000Y-33551000D01*
G37*
M02*
