G04 #@! TF.GenerationSoftware,KiCad,Pcbnew,(5.1.5-0-10_14)*
G04 #@! TF.CreationDate,2020-04-22T23:35:31+01:00*
G04 #@! TF.ProjectId,Display,44697370-6c61-4792-9e6b-696361645f70,rev?*
G04 #@! TF.SameCoordinates,Original*
G04 #@! TF.FileFunction,Legend,Top*
G04 #@! TF.FilePolarity,Positive*
%FSLAX46Y46*%
G04 Gerber Fmt 4.6, Leading zero omitted, Abs format (unit mm)*
G04 Created by KiCad (PCBNEW (5.1.5-0-10_14)) date 2020-04-22 23:35:31*
%MOMM*%
%LPD*%
G04 APERTURE LIST*
%ADD10C,0.300000*%
%ADD11C,0.150000*%
%ADD12C,0.120000*%
%ADD13C,0.010000*%
G04 APERTURE END LIST*
D10*
X42409285Y-33535714D02*
X42337857Y-33607142D01*
X42123571Y-33678571D01*
X41980714Y-33678571D01*
X41766428Y-33607142D01*
X41623571Y-33464285D01*
X41552142Y-33321428D01*
X41480714Y-33035714D01*
X41480714Y-32821428D01*
X41552142Y-32535714D01*
X41623571Y-32392857D01*
X41766428Y-32250000D01*
X41980714Y-32178571D01*
X42123571Y-32178571D01*
X42337857Y-32250000D01*
X42409285Y-32321428D01*
X43266428Y-33678571D02*
X43123571Y-33607142D01*
X43052142Y-33464285D01*
X43052142Y-32178571D01*
X44052142Y-33678571D02*
X43909285Y-33607142D01*
X43837857Y-33535714D01*
X43766428Y-33392857D01*
X43766428Y-32964285D01*
X43837857Y-32821428D01*
X43909285Y-32750000D01*
X44052142Y-32678571D01*
X44266428Y-32678571D01*
X44409285Y-32750000D01*
X44480714Y-32821428D01*
X44552142Y-32964285D01*
X44552142Y-33392857D01*
X44480714Y-33535714D01*
X44409285Y-33607142D01*
X44266428Y-33678571D01*
X44052142Y-33678571D01*
X45837857Y-33607142D02*
X45695000Y-33678571D01*
X45409285Y-33678571D01*
X45266428Y-33607142D01*
X45195000Y-33535714D01*
X45123571Y-33392857D01*
X45123571Y-32964285D01*
X45195000Y-32821428D01*
X45266428Y-32750000D01*
X45409285Y-32678571D01*
X45695000Y-32678571D01*
X45837857Y-32750000D01*
X46480714Y-33678571D02*
X46480714Y-32178571D01*
X46623571Y-33107142D02*
X47052142Y-33678571D01*
X47052142Y-32678571D02*
X46480714Y-33250000D01*
X47909285Y-33678571D02*
X47766428Y-33607142D01*
X47695000Y-33464285D01*
X47695000Y-32178571D01*
X49052142Y-33607142D02*
X48909285Y-33678571D01*
X48623571Y-33678571D01*
X48480714Y-33607142D01*
X48409285Y-33464285D01*
X48409285Y-32892857D01*
X48480714Y-32750000D01*
X48623571Y-32678571D01*
X48909285Y-32678571D01*
X49052142Y-32750000D01*
X49123571Y-32892857D01*
X49123571Y-33035714D01*
X48409285Y-33178571D01*
X49552142Y-32678571D02*
X50123571Y-32678571D01*
X49766428Y-32178571D02*
X49766428Y-33464285D01*
X49837857Y-33607142D01*
X49980714Y-33678571D01*
X50123571Y-33678571D01*
X52480714Y-32178571D02*
X51766428Y-32178571D01*
X51695000Y-32892857D01*
X51766428Y-32821428D01*
X51909285Y-32750000D01*
X52266428Y-32750000D01*
X52409285Y-32821428D01*
X52480714Y-32892857D01*
X52552142Y-33035714D01*
X52552142Y-33392857D01*
X52480714Y-33535714D01*
X52409285Y-33607142D01*
X52266428Y-33678571D01*
X51909285Y-33678571D01*
X51766428Y-33607142D01*
X51695000Y-33535714D01*
X54337857Y-33678571D02*
X54337857Y-32678571D01*
X54337857Y-32964285D02*
X54409285Y-32821428D01*
X54480714Y-32750000D01*
X54623571Y-32678571D01*
X54766428Y-32678571D01*
X55837857Y-33607142D02*
X55695000Y-33678571D01*
X55409285Y-33678571D01*
X55266428Y-33607142D01*
X55195000Y-33464285D01*
X55195000Y-32892857D01*
X55266428Y-32750000D01*
X55409285Y-32678571D01*
X55695000Y-32678571D01*
X55837857Y-32750000D01*
X55909285Y-32892857D01*
X55909285Y-33035714D01*
X55195000Y-33178571D01*
X56409285Y-32678571D02*
X56766428Y-33678571D01*
X57123571Y-32678571D01*
X59623571Y-33678571D02*
X58766428Y-33678571D01*
X59195000Y-33678571D02*
X59195000Y-32178571D01*
X59052142Y-32392857D01*
X58909285Y-32535714D01*
X58766428Y-32607142D01*
D11*
X41621309Y-30452380D02*
X41621309Y-31166666D01*
X41573690Y-31309523D01*
X41478452Y-31404761D01*
X41335595Y-31452380D01*
X41240357Y-31452380D01*
X42573690Y-31452380D02*
X42097500Y-31452380D01*
X42097500Y-30452380D01*
X43478452Y-31357142D02*
X43430833Y-31404761D01*
X43287976Y-31452380D01*
X43192738Y-31452380D01*
X43049880Y-31404761D01*
X42954642Y-31309523D01*
X42907023Y-31214285D01*
X42859404Y-31023809D01*
X42859404Y-30880952D01*
X42907023Y-30690476D01*
X42954642Y-30595238D01*
X43049880Y-30500000D01*
X43192738Y-30452380D01*
X43287976Y-30452380D01*
X43430833Y-30500000D01*
X43478452Y-30547619D01*
X44192738Y-30452380D02*
X44192738Y-31166666D01*
X44145119Y-31309523D01*
X44049880Y-31404761D01*
X43907023Y-31452380D01*
X43811785Y-31452380D01*
X45145119Y-31452380D02*
X44668928Y-31452380D01*
X44668928Y-30452380D01*
X46049880Y-31357142D02*
X46002261Y-31404761D01*
X45859404Y-31452380D01*
X45764166Y-31452380D01*
X45621309Y-31404761D01*
X45526071Y-31309523D01*
X45478452Y-31214285D01*
X45430833Y-31023809D01*
X45430833Y-30880952D01*
X45478452Y-30690476D01*
X45526071Y-30595238D01*
X45621309Y-30500000D01*
X45764166Y-30452380D01*
X45859404Y-30452380D01*
X46002261Y-30500000D01*
X46049880Y-30547619D01*
X46764166Y-30452380D02*
X46764166Y-31166666D01*
X46716547Y-31309523D01*
X46621309Y-31404761D01*
X46478452Y-31452380D01*
X46383214Y-31452380D01*
X47716547Y-31452380D02*
X47240357Y-31452380D01*
X47240357Y-30452380D01*
X48621309Y-31357142D02*
X48573690Y-31404761D01*
X48430833Y-31452380D01*
X48335595Y-31452380D01*
X48192738Y-31404761D01*
X48097500Y-31309523D01*
X48049880Y-31214285D01*
X48002261Y-31023809D01*
X48002261Y-30880952D01*
X48049880Y-30690476D01*
X48097500Y-30595238D01*
X48192738Y-30500000D01*
X48335595Y-30452380D01*
X48430833Y-30452380D01*
X48573690Y-30500000D01*
X48621309Y-30547619D01*
X49335595Y-30452380D02*
X49335595Y-31166666D01*
X49287976Y-31309523D01*
X49192738Y-31404761D01*
X49049880Y-31452380D01*
X48954642Y-31452380D01*
X50287976Y-31452380D02*
X49811785Y-31452380D01*
X49811785Y-30452380D01*
X51192738Y-31357142D02*
X51145119Y-31404761D01*
X51002261Y-31452380D01*
X50907023Y-31452380D01*
X50764166Y-31404761D01*
X50668928Y-31309523D01*
X50621309Y-31214285D01*
X50573690Y-31023809D01*
X50573690Y-30880952D01*
X50621309Y-30690476D01*
X50668928Y-30595238D01*
X50764166Y-30500000D01*
X50907023Y-30452380D01*
X51002261Y-30452380D01*
X51145119Y-30500000D01*
X51192738Y-30547619D01*
D12*
X50192779Y-64210000D02*
X49867221Y-64210000D01*
X50192779Y-63190000D02*
X49867221Y-63190000D01*
X160192779Y-84210000D02*
X159867221Y-84210000D01*
X160192779Y-83190000D02*
X159867221Y-83190000D01*
X180192779Y-44210000D02*
X179867221Y-44210000D01*
X180192779Y-43190000D02*
X179867221Y-43190000D01*
X160192779Y-44210000D02*
X159867221Y-44210000D01*
X160192779Y-43190000D02*
X159867221Y-43190000D01*
X140192779Y-44210000D02*
X139867221Y-44210000D01*
X140192779Y-43190000D02*
X139867221Y-43190000D01*
X200192779Y-84210000D02*
X199867221Y-84210000D01*
X200192779Y-83190000D02*
X199867221Y-83190000D01*
X180192779Y-84210000D02*
X179867221Y-84210000D01*
X180192779Y-83190000D02*
X179867221Y-83190000D01*
X140192779Y-84210000D02*
X139867221Y-84210000D01*
X140192779Y-83190000D02*
X139867221Y-83190000D01*
X120192779Y-84210000D02*
X119867221Y-84210000D01*
X120192779Y-83190000D02*
X119867221Y-83190000D01*
X100192779Y-84210000D02*
X99867221Y-84210000D01*
X100192779Y-83190000D02*
X99867221Y-83190000D01*
X80192779Y-84210000D02*
X79867221Y-84210000D01*
X80192779Y-83190000D02*
X79867221Y-83190000D01*
X60192779Y-84210000D02*
X59867221Y-84210000D01*
X60192779Y-83190000D02*
X59867221Y-83190000D01*
X40192779Y-84210000D02*
X39867221Y-84210000D01*
X40192779Y-83190000D02*
X39867221Y-83190000D01*
X190192779Y-64210000D02*
X189867221Y-64210000D01*
X190192779Y-63190000D02*
X189867221Y-63190000D01*
X170192779Y-64210000D02*
X169867221Y-64210000D01*
X170192779Y-63190000D02*
X169867221Y-63190000D01*
X150192779Y-64210000D02*
X149867221Y-64210000D01*
X150192779Y-63190000D02*
X149867221Y-63190000D01*
X130192779Y-64210000D02*
X129867221Y-64210000D01*
X130192779Y-63190000D02*
X129867221Y-63190000D01*
X110192779Y-64210000D02*
X109867221Y-64210000D01*
X110192779Y-63190000D02*
X109867221Y-63190000D01*
X90192779Y-64210000D02*
X89867221Y-64210000D01*
X90192779Y-63190000D02*
X89867221Y-63190000D01*
X70192779Y-64210000D02*
X69867221Y-64210000D01*
X70192779Y-63190000D02*
X69867221Y-63190000D01*
X200192779Y-44210000D02*
X199867221Y-44210000D01*
X200192779Y-43190000D02*
X199867221Y-43190000D01*
X120192779Y-44210000D02*
X119867221Y-44210000D01*
X120192779Y-43190000D02*
X119867221Y-43190000D01*
X100192779Y-44210000D02*
X99867221Y-44210000D01*
X100192779Y-43190000D02*
X99867221Y-43190000D01*
X80192779Y-44210000D02*
X79867221Y-44210000D01*
X80192779Y-43190000D02*
X79867221Y-43190000D01*
X60192779Y-44210000D02*
X59867221Y-44210000D01*
X60192779Y-43190000D02*
X59867221Y-43190000D01*
X196430000Y-77290000D02*
X202530000Y-77290000D01*
X196430000Y-78390000D02*
X196430000Y-77290000D01*
X202530000Y-82690000D02*
X197530000Y-82690000D01*
X186430000Y-77290000D02*
X192530000Y-77290000D01*
X186430000Y-78390000D02*
X186430000Y-77290000D01*
X192530000Y-82690000D02*
X187530000Y-82690000D01*
X176430000Y-77290000D02*
X182530000Y-77290000D01*
X176430000Y-78390000D02*
X176430000Y-77290000D01*
X182530000Y-82690000D02*
X177530000Y-82690000D01*
X166430000Y-77290000D02*
X172530000Y-77290000D01*
X166430000Y-78390000D02*
X166430000Y-77290000D01*
X172530000Y-82690000D02*
X167530000Y-82690000D01*
X156430000Y-77290000D02*
X162530000Y-77290000D01*
X156430000Y-78390000D02*
X156430000Y-77290000D01*
X162530000Y-82690000D02*
X157530000Y-82690000D01*
X146430000Y-77290000D02*
X152530000Y-77290000D01*
X146430000Y-78390000D02*
X146430000Y-77290000D01*
X152530000Y-82690000D02*
X147530000Y-82690000D01*
X136430000Y-77290000D02*
X142530000Y-77290000D01*
X136430000Y-78390000D02*
X136430000Y-77290000D01*
X142530000Y-82690000D02*
X137530000Y-82690000D01*
X126430000Y-77290000D02*
X132530000Y-77290000D01*
X126430000Y-78390000D02*
X126430000Y-77290000D01*
X132530000Y-82690000D02*
X127530000Y-82690000D01*
X116430000Y-77290000D02*
X122530000Y-77290000D01*
X116430000Y-78390000D02*
X116430000Y-77290000D01*
X122530000Y-82690000D02*
X117530000Y-82690000D01*
X106430000Y-77290000D02*
X112530000Y-77290000D01*
X106430000Y-78390000D02*
X106430000Y-77290000D01*
X112530000Y-82690000D02*
X107530000Y-82690000D01*
X96430000Y-77290000D02*
X102530000Y-77290000D01*
X96430000Y-78390000D02*
X96430000Y-77290000D01*
X102530000Y-82690000D02*
X97530000Y-82690000D01*
X86430000Y-77290000D02*
X92530000Y-77290000D01*
X86430000Y-78390000D02*
X86430000Y-77290000D01*
X92530000Y-82690000D02*
X87530000Y-82690000D01*
X76430000Y-77290000D02*
X82530000Y-77290000D01*
X76430000Y-78390000D02*
X76430000Y-77290000D01*
X82530000Y-82690000D02*
X77530000Y-82690000D01*
X66430000Y-77290000D02*
X72530000Y-77290000D01*
X66430000Y-78390000D02*
X66430000Y-77290000D01*
X72530000Y-82690000D02*
X67530000Y-82690000D01*
X56430000Y-77290000D02*
X62530000Y-77290000D01*
X56430000Y-78390000D02*
X56430000Y-77290000D01*
X62530000Y-82690000D02*
X57530000Y-82690000D01*
X46430000Y-77290000D02*
X52530000Y-77290000D01*
X46430000Y-78390000D02*
X46430000Y-77290000D01*
X52530000Y-82690000D02*
X47530000Y-82690000D01*
X36430000Y-77290000D02*
X42530000Y-77290000D01*
X36430000Y-78390000D02*
X36430000Y-77290000D01*
X42530000Y-82690000D02*
X37530000Y-82690000D01*
X196430000Y-57290000D02*
X202530000Y-57290000D01*
X196430000Y-58390000D02*
X196430000Y-57290000D01*
X202530000Y-62690000D02*
X197530000Y-62690000D01*
X186430000Y-57290000D02*
X192530000Y-57290000D01*
X186430000Y-58390000D02*
X186430000Y-57290000D01*
X192530000Y-62690000D02*
X187530000Y-62690000D01*
X176430000Y-57290000D02*
X182530000Y-57290000D01*
X176430000Y-58390000D02*
X176430000Y-57290000D01*
X182530000Y-62690000D02*
X177530000Y-62690000D01*
X166430000Y-57290000D02*
X172530000Y-57290000D01*
X166430000Y-58390000D02*
X166430000Y-57290000D01*
X172530000Y-62690000D02*
X167530000Y-62690000D01*
X156430000Y-57290000D02*
X162530000Y-57290000D01*
X156430000Y-58390000D02*
X156430000Y-57290000D01*
X162530000Y-62690000D02*
X157530000Y-62690000D01*
X146430000Y-57290000D02*
X152530000Y-57290000D01*
X146430000Y-58390000D02*
X146430000Y-57290000D01*
X152530000Y-62690000D02*
X147530000Y-62690000D01*
X136430000Y-57290000D02*
X142530000Y-57290000D01*
X136430000Y-58390000D02*
X136430000Y-57290000D01*
X142530000Y-62690000D02*
X137530000Y-62690000D01*
X126430000Y-57290000D02*
X132530000Y-57290000D01*
X126430000Y-58390000D02*
X126430000Y-57290000D01*
X132530000Y-62690000D02*
X127530000Y-62690000D01*
X116430000Y-57290000D02*
X122530000Y-57290000D01*
X116430000Y-58390000D02*
X116430000Y-57290000D01*
X122530000Y-62690000D02*
X117530000Y-62690000D01*
X106430000Y-57290000D02*
X112530000Y-57290000D01*
X106430000Y-58390000D02*
X106430000Y-57290000D01*
X112530000Y-62690000D02*
X107530000Y-62690000D01*
X96430000Y-57290000D02*
X102530000Y-57290000D01*
X96430000Y-58390000D02*
X96430000Y-57290000D01*
X102530000Y-62690000D02*
X97530000Y-62690000D01*
X86430000Y-57290000D02*
X92530000Y-57290000D01*
X86430000Y-58390000D02*
X86430000Y-57290000D01*
X92530000Y-62690000D02*
X87530000Y-62690000D01*
X76430000Y-57290000D02*
X82530000Y-57290000D01*
X76430000Y-58390000D02*
X76430000Y-57290000D01*
X82530000Y-62690000D02*
X77530000Y-62690000D01*
X66430000Y-57290000D02*
X72530000Y-57290000D01*
X66430000Y-58390000D02*
X66430000Y-57290000D01*
X72530000Y-62690000D02*
X67530000Y-62690000D01*
X56430000Y-57290000D02*
X62530000Y-57290000D01*
X56430000Y-58390000D02*
X56430000Y-57290000D01*
X62530000Y-62690000D02*
X57530000Y-62690000D01*
X46430000Y-57290000D02*
X52530000Y-57290000D01*
X46430000Y-58390000D02*
X46430000Y-57290000D01*
X52530000Y-62690000D02*
X47530000Y-62690000D01*
X36430000Y-57290000D02*
X42530000Y-57290000D01*
X36430000Y-58390000D02*
X36430000Y-57290000D01*
X42530000Y-62690000D02*
X37530000Y-62690000D01*
X196430000Y-37290000D02*
X202530000Y-37290000D01*
X196430000Y-38390000D02*
X196430000Y-37290000D01*
X202530000Y-42690000D02*
X197530000Y-42690000D01*
X186430000Y-37290000D02*
X192530000Y-37290000D01*
X186430000Y-38390000D02*
X186430000Y-37290000D01*
X192530000Y-42690000D02*
X187530000Y-42690000D01*
X176430000Y-37290000D02*
X182530000Y-37290000D01*
X176430000Y-38390000D02*
X176430000Y-37290000D01*
X182530000Y-42690000D02*
X177530000Y-42690000D01*
X166430000Y-37290000D02*
X172530000Y-37290000D01*
X166430000Y-38390000D02*
X166430000Y-37290000D01*
X172530000Y-42690000D02*
X167530000Y-42690000D01*
X156430000Y-37290000D02*
X162530000Y-37290000D01*
X156430000Y-38390000D02*
X156430000Y-37290000D01*
X162530000Y-42690000D02*
X157530000Y-42690000D01*
X146430000Y-37290000D02*
X152530000Y-37290000D01*
X146430000Y-38390000D02*
X146430000Y-37290000D01*
X152530000Y-42690000D02*
X147530000Y-42690000D01*
X136430000Y-37290000D02*
X142530000Y-37290000D01*
X136430000Y-38390000D02*
X136430000Y-37290000D01*
X142530000Y-42690000D02*
X137530000Y-42690000D01*
X126430000Y-37290000D02*
X132530000Y-37290000D01*
X126430000Y-38390000D02*
X126430000Y-37290000D01*
X132530000Y-42690000D02*
X127530000Y-42690000D01*
X116430000Y-37290000D02*
X122530000Y-37290000D01*
X116430000Y-38390000D02*
X116430000Y-37290000D01*
X122530000Y-42690000D02*
X117530000Y-42690000D01*
X106430000Y-37290000D02*
X112530000Y-37290000D01*
X106430000Y-38390000D02*
X106430000Y-37290000D01*
X112530000Y-42690000D02*
X107530000Y-42690000D01*
X96430000Y-37290000D02*
X102530000Y-37290000D01*
X96430000Y-38390000D02*
X96430000Y-37290000D01*
X102530000Y-42690000D02*
X97530000Y-42690000D01*
X86430000Y-37290000D02*
X92530000Y-37290000D01*
X86430000Y-38390000D02*
X86430000Y-37290000D01*
X92530000Y-42690000D02*
X87530000Y-42690000D01*
X76430000Y-37290000D02*
X82530000Y-37290000D01*
X76430000Y-38390000D02*
X76430000Y-37290000D01*
X82530000Y-42690000D02*
X77530000Y-42690000D01*
X66430000Y-37290000D02*
X72530000Y-37290000D01*
X66430000Y-38390000D02*
X66430000Y-37290000D01*
X72530000Y-42690000D02*
X67530000Y-42690000D01*
X56430000Y-37290000D02*
X62530000Y-37290000D01*
X56430000Y-38390000D02*
X56430000Y-37290000D01*
X62530000Y-42690000D02*
X57530000Y-42690000D01*
X46430000Y-37290000D02*
X52530000Y-37290000D01*
X46430000Y-38390000D02*
X46430000Y-37290000D01*
X52530000Y-42690000D02*
X47530000Y-42690000D01*
X197530000Y-67290000D02*
X202530000Y-67290000D01*
X203630000Y-71590000D02*
X203630000Y-72690000D01*
X203630000Y-72690000D02*
X197530000Y-72690000D01*
X187530000Y-67290000D02*
X192530000Y-67290000D01*
X193630000Y-71590000D02*
X193630000Y-72690000D01*
X193630000Y-72690000D02*
X187530000Y-72690000D01*
X177530000Y-67290000D02*
X182530000Y-67290000D01*
X183630000Y-71590000D02*
X183630000Y-72690000D01*
X183630000Y-72690000D02*
X177530000Y-72690000D01*
X167530000Y-67290000D02*
X172530000Y-67290000D01*
X173630000Y-71590000D02*
X173630000Y-72690000D01*
X173630000Y-72690000D02*
X167530000Y-72690000D01*
X157530000Y-67290000D02*
X162530000Y-67290000D01*
X163630000Y-71590000D02*
X163630000Y-72690000D01*
X163630000Y-72690000D02*
X157530000Y-72690000D01*
X147530000Y-67290000D02*
X152530000Y-67290000D01*
X153630000Y-71590000D02*
X153630000Y-72690000D01*
X153630000Y-72690000D02*
X147530000Y-72690000D01*
X137530000Y-67290000D02*
X142530000Y-67290000D01*
X143630000Y-71590000D02*
X143630000Y-72690000D01*
X143630000Y-72690000D02*
X137530000Y-72690000D01*
X127530000Y-67290000D02*
X132530000Y-67290000D01*
X133630000Y-71590000D02*
X133630000Y-72690000D01*
X133630000Y-72690000D02*
X127530000Y-72690000D01*
X117530000Y-67290000D02*
X122530000Y-67290000D01*
X123630000Y-71590000D02*
X123630000Y-72690000D01*
X123630000Y-72690000D02*
X117530000Y-72690000D01*
X107530000Y-67290000D02*
X112530000Y-67290000D01*
X113630000Y-71590000D02*
X113630000Y-72690000D01*
X113630000Y-72690000D02*
X107530000Y-72690000D01*
X97530000Y-67290000D02*
X102530000Y-67290000D01*
X103630000Y-71590000D02*
X103630000Y-72690000D01*
X103630000Y-72690000D02*
X97530000Y-72690000D01*
X87530000Y-67290000D02*
X92530000Y-67290000D01*
X93630000Y-71590000D02*
X93630000Y-72690000D01*
X93630000Y-72690000D02*
X87530000Y-72690000D01*
X77530000Y-67290000D02*
X82530000Y-67290000D01*
X83630000Y-71590000D02*
X83630000Y-72690000D01*
X83630000Y-72690000D02*
X77530000Y-72690000D01*
X67530000Y-67290000D02*
X72530000Y-67290000D01*
X73630000Y-71590000D02*
X73630000Y-72690000D01*
X73630000Y-72690000D02*
X67530000Y-72690000D01*
X57530000Y-67290000D02*
X62530000Y-67290000D01*
X63630000Y-71590000D02*
X63630000Y-72690000D01*
X63630000Y-72690000D02*
X57530000Y-72690000D01*
X47530000Y-67290000D02*
X52530000Y-67290000D01*
X53630000Y-71590000D02*
X53630000Y-72690000D01*
X53630000Y-72690000D02*
X47530000Y-72690000D01*
X37530000Y-67290000D02*
X42530000Y-67290000D01*
X43630000Y-71590000D02*
X43630000Y-72690000D01*
X43630000Y-72690000D02*
X37530000Y-72690000D01*
X197530000Y-47290000D02*
X202530000Y-47290000D01*
X203630000Y-51590000D02*
X203630000Y-52690000D01*
X203630000Y-52690000D02*
X197530000Y-52690000D01*
X187530000Y-47290000D02*
X192530000Y-47290000D01*
X193630000Y-51590000D02*
X193630000Y-52690000D01*
X193630000Y-52690000D02*
X187530000Y-52690000D01*
X177530000Y-47290000D02*
X182530000Y-47290000D01*
X183630000Y-51590000D02*
X183630000Y-52690000D01*
X183630000Y-52690000D02*
X177530000Y-52690000D01*
X167530000Y-47290000D02*
X172530000Y-47290000D01*
X173630000Y-51590000D02*
X173630000Y-52690000D01*
X173630000Y-52690000D02*
X167530000Y-52690000D01*
X157530000Y-47290000D02*
X162530000Y-47290000D01*
X163630000Y-51590000D02*
X163630000Y-52690000D01*
X163630000Y-52690000D02*
X157530000Y-52690000D01*
X147530000Y-47290000D02*
X152530000Y-47290000D01*
X153630000Y-51590000D02*
X153630000Y-52690000D01*
X153630000Y-52690000D02*
X147530000Y-52690000D01*
X137530000Y-47290000D02*
X142530000Y-47290000D01*
X143630000Y-51590000D02*
X143630000Y-52690000D01*
X143630000Y-52690000D02*
X137530000Y-52690000D01*
X127530000Y-47290000D02*
X132530000Y-47290000D01*
X133630000Y-51590000D02*
X133630000Y-52690000D01*
X133630000Y-52690000D02*
X127530000Y-52690000D01*
X117530000Y-47290000D02*
X122530000Y-47290000D01*
X123630000Y-51590000D02*
X123630000Y-52690000D01*
X123630000Y-52690000D02*
X117530000Y-52690000D01*
X107530000Y-47290000D02*
X112530000Y-47290000D01*
X113630000Y-51590000D02*
X113630000Y-52690000D01*
X113630000Y-52690000D02*
X107530000Y-52690000D01*
X97530000Y-47290000D02*
X102530000Y-47290000D01*
X103630000Y-51590000D02*
X103630000Y-52690000D01*
X103630000Y-52690000D02*
X97530000Y-52690000D01*
X87530000Y-47290000D02*
X92530000Y-47290000D01*
X93630000Y-51590000D02*
X93630000Y-52690000D01*
X93630000Y-52690000D02*
X87530000Y-52690000D01*
X77530000Y-47290000D02*
X82530000Y-47290000D01*
X83630000Y-51590000D02*
X83630000Y-52690000D01*
X83630000Y-52690000D02*
X77530000Y-52690000D01*
X67530000Y-47290000D02*
X72530000Y-47290000D01*
X73630000Y-51590000D02*
X73630000Y-52690000D01*
X73630000Y-52690000D02*
X67530000Y-52690000D01*
X57530000Y-47290000D02*
X62530000Y-47290000D01*
X63630000Y-51590000D02*
X63630000Y-52690000D01*
X63630000Y-52690000D02*
X57530000Y-52690000D01*
X47530000Y-47290000D02*
X52530000Y-47290000D01*
X53630000Y-51590000D02*
X53630000Y-52690000D01*
X53630000Y-52690000D02*
X47530000Y-52690000D01*
D13*
G36*
X120270000Y-89200000D02*
G01*
X120270000Y-89420000D01*
X120010000Y-89420000D01*
X120010000Y-89200000D01*
X120270000Y-89200000D01*
G37*
X120270000Y-89200000D02*
X120270000Y-89420000D01*
X120010000Y-89420000D01*
X120010000Y-89200000D01*
X120270000Y-89200000D01*
G36*
X119990000Y-89200000D02*
G01*
X119990000Y-89420000D01*
X119730000Y-89420000D01*
X119730000Y-89200000D01*
X119990000Y-89200000D01*
G37*
X119990000Y-89200000D02*
X119990000Y-89420000D01*
X119730000Y-89420000D01*
X119730000Y-89200000D01*
X119990000Y-89200000D01*
D12*
X115790000Y-89037221D02*
X115790000Y-89362779D01*
X116810000Y-89037221D02*
X116810000Y-89362779D01*
X113610000Y-89362779D02*
X113610000Y-89037221D01*
X112590000Y-89362779D02*
X112590000Y-89037221D01*
X110990000Y-89037221D02*
X110990000Y-89362779D01*
X112010000Y-89037221D02*
X112010000Y-89362779D01*
X98670000Y-91830000D02*
X98670000Y-90500000D01*
X100000000Y-91830000D02*
X98670000Y-91830000D01*
X98670000Y-89230000D02*
X98670000Y-86630000D01*
X101270000Y-89230000D02*
X98670000Y-89230000D01*
X101270000Y-91830000D02*
X101270000Y-89230000D01*
X98670000Y-86630000D02*
X108950000Y-86630000D01*
X101270000Y-91830000D02*
X108950000Y-91830000D01*
X108950000Y-91830000D02*
X108950000Y-86630000D01*
X114190000Y-89037221D02*
X114190000Y-89362779D01*
X115210000Y-89037221D02*
X115210000Y-89362779D01*
X43630000Y-52690000D02*
X37530000Y-52690000D01*
X43630000Y-51590000D02*
X43630000Y-52690000D01*
X37530000Y-47290000D02*
X42530000Y-47290000D01*
X42530000Y-42690000D02*
X37530000Y-42690000D01*
X36430000Y-38390000D02*
X36430000Y-37290000D01*
X36430000Y-37290000D02*
X42530000Y-37290000D01*
X40192779Y-43190000D02*
X39867221Y-43190000D01*
X40192779Y-44210000D02*
X39867221Y-44210000D01*
D11*
X49863333Y-65487142D02*
X49815714Y-65534761D01*
X49672857Y-65582380D01*
X49577619Y-65582380D01*
X49434761Y-65534761D01*
X49339523Y-65439523D01*
X49291904Y-65344285D01*
X49244285Y-65153809D01*
X49244285Y-65010952D01*
X49291904Y-64820476D01*
X49339523Y-64725238D01*
X49434761Y-64630000D01*
X49577619Y-64582380D01*
X49672857Y-64582380D01*
X49815714Y-64630000D01*
X49863333Y-64677619D01*
X50815714Y-65582380D02*
X50244285Y-65582380D01*
X50530000Y-65582380D02*
X50530000Y-64582380D01*
X50434761Y-64725238D01*
X50339523Y-64820476D01*
X50244285Y-64868095D01*
X159863333Y-85487142D02*
X159815714Y-85534761D01*
X159672857Y-85582380D01*
X159577619Y-85582380D01*
X159434761Y-85534761D01*
X159339523Y-85439523D01*
X159291904Y-85344285D01*
X159244285Y-85153809D01*
X159244285Y-85010952D01*
X159291904Y-84820476D01*
X159339523Y-84725238D01*
X159434761Y-84630000D01*
X159577619Y-84582380D01*
X159672857Y-84582380D01*
X159815714Y-84630000D01*
X159863333Y-84677619D01*
X160815714Y-85582380D02*
X160244285Y-85582380D01*
X160530000Y-85582380D02*
X160530000Y-84582380D01*
X160434761Y-84725238D01*
X160339523Y-84820476D01*
X160244285Y-84868095D01*
X179863333Y-45487142D02*
X179815714Y-45534761D01*
X179672857Y-45582380D01*
X179577619Y-45582380D01*
X179434761Y-45534761D01*
X179339523Y-45439523D01*
X179291904Y-45344285D01*
X179244285Y-45153809D01*
X179244285Y-45010952D01*
X179291904Y-44820476D01*
X179339523Y-44725238D01*
X179434761Y-44630000D01*
X179577619Y-44582380D01*
X179672857Y-44582380D01*
X179815714Y-44630000D01*
X179863333Y-44677619D01*
X180815714Y-45582380D02*
X180244285Y-45582380D01*
X180530000Y-45582380D02*
X180530000Y-44582380D01*
X180434761Y-44725238D01*
X180339523Y-44820476D01*
X180244285Y-44868095D01*
X159863333Y-45487142D02*
X159815714Y-45534761D01*
X159672857Y-45582380D01*
X159577619Y-45582380D01*
X159434761Y-45534761D01*
X159339523Y-45439523D01*
X159291904Y-45344285D01*
X159244285Y-45153809D01*
X159244285Y-45010952D01*
X159291904Y-44820476D01*
X159339523Y-44725238D01*
X159434761Y-44630000D01*
X159577619Y-44582380D01*
X159672857Y-44582380D01*
X159815714Y-44630000D01*
X159863333Y-44677619D01*
X160815714Y-45582380D02*
X160244285Y-45582380D01*
X160530000Y-45582380D02*
X160530000Y-44582380D01*
X160434761Y-44725238D01*
X160339523Y-44820476D01*
X160244285Y-44868095D01*
X139863333Y-45487142D02*
X139815714Y-45534761D01*
X139672857Y-45582380D01*
X139577619Y-45582380D01*
X139434761Y-45534761D01*
X139339523Y-45439523D01*
X139291904Y-45344285D01*
X139244285Y-45153809D01*
X139244285Y-45010952D01*
X139291904Y-44820476D01*
X139339523Y-44725238D01*
X139434761Y-44630000D01*
X139577619Y-44582380D01*
X139672857Y-44582380D01*
X139815714Y-44630000D01*
X139863333Y-44677619D01*
X140815714Y-45582380D02*
X140244285Y-45582380D01*
X140530000Y-45582380D02*
X140530000Y-44582380D01*
X140434761Y-44725238D01*
X140339523Y-44820476D01*
X140244285Y-44868095D01*
X199863333Y-85487142D02*
X199815714Y-85534761D01*
X199672857Y-85582380D01*
X199577619Y-85582380D01*
X199434761Y-85534761D01*
X199339523Y-85439523D01*
X199291904Y-85344285D01*
X199244285Y-85153809D01*
X199244285Y-85010952D01*
X199291904Y-84820476D01*
X199339523Y-84725238D01*
X199434761Y-84630000D01*
X199577619Y-84582380D01*
X199672857Y-84582380D01*
X199815714Y-84630000D01*
X199863333Y-84677619D01*
X200815714Y-85582380D02*
X200244285Y-85582380D01*
X200530000Y-85582380D02*
X200530000Y-84582380D01*
X200434761Y-84725238D01*
X200339523Y-84820476D01*
X200244285Y-84868095D01*
X179863333Y-85487142D02*
X179815714Y-85534761D01*
X179672857Y-85582380D01*
X179577619Y-85582380D01*
X179434761Y-85534761D01*
X179339523Y-85439523D01*
X179291904Y-85344285D01*
X179244285Y-85153809D01*
X179244285Y-85010952D01*
X179291904Y-84820476D01*
X179339523Y-84725238D01*
X179434761Y-84630000D01*
X179577619Y-84582380D01*
X179672857Y-84582380D01*
X179815714Y-84630000D01*
X179863333Y-84677619D01*
X180815714Y-85582380D02*
X180244285Y-85582380D01*
X180530000Y-85582380D02*
X180530000Y-84582380D01*
X180434761Y-84725238D01*
X180339523Y-84820476D01*
X180244285Y-84868095D01*
X139863333Y-85487142D02*
X139815714Y-85534761D01*
X139672857Y-85582380D01*
X139577619Y-85582380D01*
X139434761Y-85534761D01*
X139339523Y-85439523D01*
X139291904Y-85344285D01*
X139244285Y-85153809D01*
X139244285Y-85010952D01*
X139291904Y-84820476D01*
X139339523Y-84725238D01*
X139434761Y-84630000D01*
X139577619Y-84582380D01*
X139672857Y-84582380D01*
X139815714Y-84630000D01*
X139863333Y-84677619D01*
X140815714Y-85582380D02*
X140244285Y-85582380D01*
X140530000Y-85582380D02*
X140530000Y-84582380D01*
X140434761Y-84725238D01*
X140339523Y-84820476D01*
X140244285Y-84868095D01*
X119863333Y-85487142D02*
X119815714Y-85534761D01*
X119672857Y-85582380D01*
X119577619Y-85582380D01*
X119434761Y-85534761D01*
X119339523Y-85439523D01*
X119291904Y-85344285D01*
X119244285Y-85153809D01*
X119244285Y-85010952D01*
X119291904Y-84820476D01*
X119339523Y-84725238D01*
X119434761Y-84630000D01*
X119577619Y-84582380D01*
X119672857Y-84582380D01*
X119815714Y-84630000D01*
X119863333Y-84677619D01*
X120815714Y-85582380D02*
X120244285Y-85582380D01*
X120530000Y-85582380D02*
X120530000Y-84582380D01*
X120434761Y-84725238D01*
X120339523Y-84820476D01*
X120244285Y-84868095D01*
X99863333Y-85487142D02*
X99815714Y-85534761D01*
X99672857Y-85582380D01*
X99577619Y-85582380D01*
X99434761Y-85534761D01*
X99339523Y-85439523D01*
X99291904Y-85344285D01*
X99244285Y-85153809D01*
X99244285Y-85010952D01*
X99291904Y-84820476D01*
X99339523Y-84725238D01*
X99434761Y-84630000D01*
X99577619Y-84582380D01*
X99672857Y-84582380D01*
X99815714Y-84630000D01*
X99863333Y-84677619D01*
X100815714Y-85582380D02*
X100244285Y-85582380D01*
X100530000Y-85582380D02*
X100530000Y-84582380D01*
X100434761Y-84725238D01*
X100339523Y-84820476D01*
X100244285Y-84868095D01*
X79863333Y-85487142D02*
X79815714Y-85534761D01*
X79672857Y-85582380D01*
X79577619Y-85582380D01*
X79434761Y-85534761D01*
X79339523Y-85439523D01*
X79291904Y-85344285D01*
X79244285Y-85153809D01*
X79244285Y-85010952D01*
X79291904Y-84820476D01*
X79339523Y-84725238D01*
X79434761Y-84630000D01*
X79577619Y-84582380D01*
X79672857Y-84582380D01*
X79815714Y-84630000D01*
X79863333Y-84677619D01*
X80815714Y-85582380D02*
X80244285Y-85582380D01*
X80530000Y-85582380D02*
X80530000Y-84582380D01*
X80434761Y-84725238D01*
X80339523Y-84820476D01*
X80244285Y-84868095D01*
X59863333Y-85487142D02*
X59815714Y-85534761D01*
X59672857Y-85582380D01*
X59577619Y-85582380D01*
X59434761Y-85534761D01*
X59339523Y-85439523D01*
X59291904Y-85344285D01*
X59244285Y-85153809D01*
X59244285Y-85010952D01*
X59291904Y-84820476D01*
X59339523Y-84725238D01*
X59434761Y-84630000D01*
X59577619Y-84582380D01*
X59672857Y-84582380D01*
X59815714Y-84630000D01*
X59863333Y-84677619D01*
X60815714Y-85582380D02*
X60244285Y-85582380D01*
X60530000Y-85582380D02*
X60530000Y-84582380D01*
X60434761Y-84725238D01*
X60339523Y-84820476D01*
X60244285Y-84868095D01*
X39863333Y-85487142D02*
X39815714Y-85534761D01*
X39672857Y-85582380D01*
X39577619Y-85582380D01*
X39434761Y-85534761D01*
X39339523Y-85439523D01*
X39291904Y-85344285D01*
X39244285Y-85153809D01*
X39244285Y-85010952D01*
X39291904Y-84820476D01*
X39339523Y-84725238D01*
X39434761Y-84630000D01*
X39577619Y-84582380D01*
X39672857Y-84582380D01*
X39815714Y-84630000D01*
X39863333Y-84677619D01*
X40815714Y-85582380D02*
X40244285Y-85582380D01*
X40530000Y-85582380D02*
X40530000Y-84582380D01*
X40434761Y-84725238D01*
X40339523Y-84820476D01*
X40244285Y-84868095D01*
X189863333Y-65487142D02*
X189815714Y-65534761D01*
X189672857Y-65582380D01*
X189577619Y-65582380D01*
X189434761Y-65534761D01*
X189339523Y-65439523D01*
X189291904Y-65344285D01*
X189244285Y-65153809D01*
X189244285Y-65010952D01*
X189291904Y-64820476D01*
X189339523Y-64725238D01*
X189434761Y-64630000D01*
X189577619Y-64582380D01*
X189672857Y-64582380D01*
X189815714Y-64630000D01*
X189863333Y-64677619D01*
X190815714Y-65582380D02*
X190244285Y-65582380D01*
X190530000Y-65582380D02*
X190530000Y-64582380D01*
X190434761Y-64725238D01*
X190339523Y-64820476D01*
X190244285Y-64868095D01*
X169863333Y-65487142D02*
X169815714Y-65534761D01*
X169672857Y-65582380D01*
X169577619Y-65582380D01*
X169434761Y-65534761D01*
X169339523Y-65439523D01*
X169291904Y-65344285D01*
X169244285Y-65153809D01*
X169244285Y-65010952D01*
X169291904Y-64820476D01*
X169339523Y-64725238D01*
X169434761Y-64630000D01*
X169577619Y-64582380D01*
X169672857Y-64582380D01*
X169815714Y-64630000D01*
X169863333Y-64677619D01*
X170815714Y-65582380D02*
X170244285Y-65582380D01*
X170530000Y-65582380D02*
X170530000Y-64582380D01*
X170434761Y-64725238D01*
X170339523Y-64820476D01*
X170244285Y-64868095D01*
X149863333Y-65487142D02*
X149815714Y-65534761D01*
X149672857Y-65582380D01*
X149577619Y-65582380D01*
X149434761Y-65534761D01*
X149339523Y-65439523D01*
X149291904Y-65344285D01*
X149244285Y-65153809D01*
X149244285Y-65010952D01*
X149291904Y-64820476D01*
X149339523Y-64725238D01*
X149434761Y-64630000D01*
X149577619Y-64582380D01*
X149672857Y-64582380D01*
X149815714Y-64630000D01*
X149863333Y-64677619D01*
X150815714Y-65582380D02*
X150244285Y-65582380D01*
X150530000Y-65582380D02*
X150530000Y-64582380D01*
X150434761Y-64725238D01*
X150339523Y-64820476D01*
X150244285Y-64868095D01*
X129863333Y-65487142D02*
X129815714Y-65534761D01*
X129672857Y-65582380D01*
X129577619Y-65582380D01*
X129434761Y-65534761D01*
X129339523Y-65439523D01*
X129291904Y-65344285D01*
X129244285Y-65153809D01*
X129244285Y-65010952D01*
X129291904Y-64820476D01*
X129339523Y-64725238D01*
X129434761Y-64630000D01*
X129577619Y-64582380D01*
X129672857Y-64582380D01*
X129815714Y-64630000D01*
X129863333Y-64677619D01*
X130815714Y-65582380D02*
X130244285Y-65582380D01*
X130530000Y-65582380D02*
X130530000Y-64582380D01*
X130434761Y-64725238D01*
X130339523Y-64820476D01*
X130244285Y-64868095D01*
X109863333Y-65487142D02*
X109815714Y-65534761D01*
X109672857Y-65582380D01*
X109577619Y-65582380D01*
X109434761Y-65534761D01*
X109339523Y-65439523D01*
X109291904Y-65344285D01*
X109244285Y-65153809D01*
X109244285Y-65010952D01*
X109291904Y-64820476D01*
X109339523Y-64725238D01*
X109434761Y-64630000D01*
X109577619Y-64582380D01*
X109672857Y-64582380D01*
X109815714Y-64630000D01*
X109863333Y-64677619D01*
X110815714Y-65582380D02*
X110244285Y-65582380D01*
X110530000Y-65582380D02*
X110530000Y-64582380D01*
X110434761Y-64725238D01*
X110339523Y-64820476D01*
X110244285Y-64868095D01*
X89863333Y-65487142D02*
X89815714Y-65534761D01*
X89672857Y-65582380D01*
X89577619Y-65582380D01*
X89434761Y-65534761D01*
X89339523Y-65439523D01*
X89291904Y-65344285D01*
X89244285Y-65153809D01*
X89244285Y-65010952D01*
X89291904Y-64820476D01*
X89339523Y-64725238D01*
X89434761Y-64630000D01*
X89577619Y-64582380D01*
X89672857Y-64582380D01*
X89815714Y-64630000D01*
X89863333Y-64677619D01*
X90815714Y-65582380D02*
X90244285Y-65582380D01*
X90530000Y-65582380D02*
X90530000Y-64582380D01*
X90434761Y-64725238D01*
X90339523Y-64820476D01*
X90244285Y-64868095D01*
X69863333Y-65487142D02*
X69815714Y-65534761D01*
X69672857Y-65582380D01*
X69577619Y-65582380D01*
X69434761Y-65534761D01*
X69339523Y-65439523D01*
X69291904Y-65344285D01*
X69244285Y-65153809D01*
X69244285Y-65010952D01*
X69291904Y-64820476D01*
X69339523Y-64725238D01*
X69434761Y-64630000D01*
X69577619Y-64582380D01*
X69672857Y-64582380D01*
X69815714Y-64630000D01*
X69863333Y-64677619D01*
X70815714Y-65582380D02*
X70244285Y-65582380D01*
X70530000Y-65582380D02*
X70530000Y-64582380D01*
X70434761Y-64725238D01*
X70339523Y-64820476D01*
X70244285Y-64868095D01*
X199863333Y-45487142D02*
X199815714Y-45534761D01*
X199672857Y-45582380D01*
X199577619Y-45582380D01*
X199434761Y-45534761D01*
X199339523Y-45439523D01*
X199291904Y-45344285D01*
X199244285Y-45153809D01*
X199244285Y-45010952D01*
X199291904Y-44820476D01*
X199339523Y-44725238D01*
X199434761Y-44630000D01*
X199577619Y-44582380D01*
X199672857Y-44582380D01*
X199815714Y-44630000D01*
X199863333Y-44677619D01*
X200815714Y-45582380D02*
X200244285Y-45582380D01*
X200530000Y-45582380D02*
X200530000Y-44582380D01*
X200434761Y-44725238D01*
X200339523Y-44820476D01*
X200244285Y-44868095D01*
X119863333Y-45487142D02*
X119815714Y-45534761D01*
X119672857Y-45582380D01*
X119577619Y-45582380D01*
X119434761Y-45534761D01*
X119339523Y-45439523D01*
X119291904Y-45344285D01*
X119244285Y-45153809D01*
X119244285Y-45010952D01*
X119291904Y-44820476D01*
X119339523Y-44725238D01*
X119434761Y-44630000D01*
X119577619Y-44582380D01*
X119672857Y-44582380D01*
X119815714Y-44630000D01*
X119863333Y-44677619D01*
X120815714Y-45582380D02*
X120244285Y-45582380D01*
X120530000Y-45582380D02*
X120530000Y-44582380D01*
X120434761Y-44725238D01*
X120339523Y-44820476D01*
X120244285Y-44868095D01*
X99863333Y-45487142D02*
X99815714Y-45534761D01*
X99672857Y-45582380D01*
X99577619Y-45582380D01*
X99434761Y-45534761D01*
X99339523Y-45439523D01*
X99291904Y-45344285D01*
X99244285Y-45153809D01*
X99244285Y-45010952D01*
X99291904Y-44820476D01*
X99339523Y-44725238D01*
X99434761Y-44630000D01*
X99577619Y-44582380D01*
X99672857Y-44582380D01*
X99815714Y-44630000D01*
X99863333Y-44677619D01*
X100815714Y-45582380D02*
X100244285Y-45582380D01*
X100530000Y-45582380D02*
X100530000Y-44582380D01*
X100434761Y-44725238D01*
X100339523Y-44820476D01*
X100244285Y-44868095D01*
X79863333Y-45487142D02*
X79815714Y-45534761D01*
X79672857Y-45582380D01*
X79577619Y-45582380D01*
X79434761Y-45534761D01*
X79339523Y-45439523D01*
X79291904Y-45344285D01*
X79244285Y-45153809D01*
X79244285Y-45010952D01*
X79291904Y-44820476D01*
X79339523Y-44725238D01*
X79434761Y-44630000D01*
X79577619Y-44582380D01*
X79672857Y-44582380D01*
X79815714Y-44630000D01*
X79863333Y-44677619D01*
X80815714Y-45582380D02*
X80244285Y-45582380D01*
X80530000Y-45582380D02*
X80530000Y-44582380D01*
X80434761Y-44725238D01*
X80339523Y-44820476D01*
X80244285Y-44868095D01*
X59863333Y-45487142D02*
X59815714Y-45534761D01*
X59672857Y-45582380D01*
X59577619Y-45582380D01*
X59434761Y-45534761D01*
X59339523Y-45439523D01*
X59291904Y-45344285D01*
X59244285Y-45153809D01*
X59244285Y-45010952D01*
X59291904Y-44820476D01*
X59339523Y-44725238D01*
X59434761Y-44630000D01*
X59577619Y-44582380D01*
X59672857Y-44582380D01*
X59815714Y-44630000D01*
X59863333Y-44677619D01*
X60815714Y-45582380D02*
X60244285Y-45582380D01*
X60530000Y-45582380D02*
X60530000Y-44582380D01*
X60434761Y-44725238D01*
X60339523Y-44820476D01*
X60244285Y-44868095D01*
X199291904Y-76942380D02*
X199291904Y-75942380D01*
X199530000Y-75942380D01*
X199672857Y-75990000D01*
X199768095Y-76085238D01*
X199815714Y-76180476D01*
X199863333Y-76370952D01*
X199863333Y-76513809D01*
X199815714Y-76704285D01*
X199768095Y-76799523D01*
X199672857Y-76894761D01*
X199530000Y-76942380D01*
X199291904Y-76942380D01*
X200815714Y-76942380D02*
X200244285Y-76942380D01*
X200530000Y-76942380D02*
X200530000Y-75942380D01*
X200434761Y-76085238D01*
X200339523Y-76180476D01*
X200244285Y-76228095D01*
X189291904Y-76942380D02*
X189291904Y-75942380D01*
X189530000Y-75942380D01*
X189672857Y-75990000D01*
X189768095Y-76085238D01*
X189815714Y-76180476D01*
X189863333Y-76370952D01*
X189863333Y-76513809D01*
X189815714Y-76704285D01*
X189768095Y-76799523D01*
X189672857Y-76894761D01*
X189530000Y-76942380D01*
X189291904Y-76942380D01*
X190815714Y-76942380D02*
X190244285Y-76942380D01*
X190530000Y-76942380D02*
X190530000Y-75942380D01*
X190434761Y-76085238D01*
X190339523Y-76180476D01*
X190244285Y-76228095D01*
X179291904Y-76942380D02*
X179291904Y-75942380D01*
X179530000Y-75942380D01*
X179672857Y-75990000D01*
X179768095Y-76085238D01*
X179815714Y-76180476D01*
X179863333Y-76370952D01*
X179863333Y-76513809D01*
X179815714Y-76704285D01*
X179768095Y-76799523D01*
X179672857Y-76894761D01*
X179530000Y-76942380D01*
X179291904Y-76942380D01*
X180815714Y-76942380D02*
X180244285Y-76942380D01*
X180530000Y-76942380D02*
X180530000Y-75942380D01*
X180434761Y-76085238D01*
X180339523Y-76180476D01*
X180244285Y-76228095D01*
X169291904Y-76942380D02*
X169291904Y-75942380D01*
X169530000Y-75942380D01*
X169672857Y-75990000D01*
X169768095Y-76085238D01*
X169815714Y-76180476D01*
X169863333Y-76370952D01*
X169863333Y-76513809D01*
X169815714Y-76704285D01*
X169768095Y-76799523D01*
X169672857Y-76894761D01*
X169530000Y-76942380D01*
X169291904Y-76942380D01*
X170815714Y-76942380D02*
X170244285Y-76942380D01*
X170530000Y-76942380D02*
X170530000Y-75942380D01*
X170434761Y-76085238D01*
X170339523Y-76180476D01*
X170244285Y-76228095D01*
X159291904Y-76942380D02*
X159291904Y-75942380D01*
X159530000Y-75942380D01*
X159672857Y-75990000D01*
X159768095Y-76085238D01*
X159815714Y-76180476D01*
X159863333Y-76370952D01*
X159863333Y-76513809D01*
X159815714Y-76704285D01*
X159768095Y-76799523D01*
X159672857Y-76894761D01*
X159530000Y-76942380D01*
X159291904Y-76942380D01*
X160815714Y-76942380D02*
X160244285Y-76942380D01*
X160530000Y-76942380D02*
X160530000Y-75942380D01*
X160434761Y-76085238D01*
X160339523Y-76180476D01*
X160244285Y-76228095D01*
X149291904Y-76942380D02*
X149291904Y-75942380D01*
X149530000Y-75942380D01*
X149672857Y-75990000D01*
X149768095Y-76085238D01*
X149815714Y-76180476D01*
X149863333Y-76370952D01*
X149863333Y-76513809D01*
X149815714Y-76704285D01*
X149768095Y-76799523D01*
X149672857Y-76894761D01*
X149530000Y-76942380D01*
X149291904Y-76942380D01*
X150815714Y-76942380D02*
X150244285Y-76942380D01*
X150530000Y-76942380D02*
X150530000Y-75942380D01*
X150434761Y-76085238D01*
X150339523Y-76180476D01*
X150244285Y-76228095D01*
X139291904Y-76942380D02*
X139291904Y-75942380D01*
X139530000Y-75942380D01*
X139672857Y-75990000D01*
X139768095Y-76085238D01*
X139815714Y-76180476D01*
X139863333Y-76370952D01*
X139863333Y-76513809D01*
X139815714Y-76704285D01*
X139768095Y-76799523D01*
X139672857Y-76894761D01*
X139530000Y-76942380D01*
X139291904Y-76942380D01*
X140815714Y-76942380D02*
X140244285Y-76942380D01*
X140530000Y-76942380D02*
X140530000Y-75942380D01*
X140434761Y-76085238D01*
X140339523Y-76180476D01*
X140244285Y-76228095D01*
X129291904Y-76942380D02*
X129291904Y-75942380D01*
X129530000Y-75942380D01*
X129672857Y-75990000D01*
X129768095Y-76085238D01*
X129815714Y-76180476D01*
X129863333Y-76370952D01*
X129863333Y-76513809D01*
X129815714Y-76704285D01*
X129768095Y-76799523D01*
X129672857Y-76894761D01*
X129530000Y-76942380D01*
X129291904Y-76942380D01*
X130815714Y-76942380D02*
X130244285Y-76942380D01*
X130530000Y-76942380D02*
X130530000Y-75942380D01*
X130434761Y-76085238D01*
X130339523Y-76180476D01*
X130244285Y-76228095D01*
X119291904Y-76942380D02*
X119291904Y-75942380D01*
X119530000Y-75942380D01*
X119672857Y-75990000D01*
X119768095Y-76085238D01*
X119815714Y-76180476D01*
X119863333Y-76370952D01*
X119863333Y-76513809D01*
X119815714Y-76704285D01*
X119768095Y-76799523D01*
X119672857Y-76894761D01*
X119530000Y-76942380D01*
X119291904Y-76942380D01*
X120815714Y-76942380D02*
X120244285Y-76942380D01*
X120530000Y-76942380D02*
X120530000Y-75942380D01*
X120434761Y-76085238D01*
X120339523Y-76180476D01*
X120244285Y-76228095D01*
X109291904Y-76942380D02*
X109291904Y-75942380D01*
X109530000Y-75942380D01*
X109672857Y-75990000D01*
X109768095Y-76085238D01*
X109815714Y-76180476D01*
X109863333Y-76370952D01*
X109863333Y-76513809D01*
X109815714Y-76704285D01*
X109768095Y-76799523D01*
X109672857Y-76894761D01*
X109530000Y-76942380D01*
X109291904Y-76942380D01*
X110815714Y-76942380D02*
X110244285Y-76942380D01*
X110530000Y-76942380D02*
X110530000Y-75942380D01*
X110434761Y-76085238D01*
X110339523Y-76180476D01*
X110244285Y-76228095D01*
X99291904Y-76942380D02*
X99291904Y-75942380D01*
X99530000Y-75942380D01*
X99672857Y-75990000D01*
X99768095Y-76085238D01*
X99815714Y-76180476D01*
X99863333Y-76370952D01*
X99863333Y-76513809D01*
X99815714Y-76704285D01*
X99768095Y-76799523D01*
X99672857Y-76894761D01*
X99530000Y-76942380D01*
X99291904Y-76942380D01*
X100815714Y-76942380D02*
X100244285Y-76942380D01*
X100530000Y-76942380D02*
X100530000Y-75942380D01*
X100434761Y-76085238D01*
X100339523Y-76180476D01*
X100244285Y-76228095D01*
X89291904Y-76942380D02*
X89291904Y-75942380D01*
X89530000Y-75942380D01*
X89672857Y-75990000D01*
X89768095Y-76085238D01*
X89815714Y-76180476D01*
X89863333Y-76370952D01*
X89863333Y-76513809D01*
X89815714Y-76704285D01*
X89768095Y-76799523D01*
X89672857Y-76894761D01*
X89530000Y-76942380D01*
X89291904Y-76942380D01*
X90815714Y-76942380D02*
X90244285Y-76942380D01*
X90530000Y-76942380D02*
X90530000Y-75942380D01*
X90434761Y-76085238D01*
X90339523Y-76180476D01*
X90244285Y-76228095D01*
X79291904Y-76942380D02*
X79291904Y-75942380D01*
X79530000Y-75942380D01*
X79672857Y-75990000D01*
X79768095Y-76085238D01*
X79815714Y-76180476D01*
X79863333Y-76370952D01*
X79863333Y-76513809D01*
X79815714Y-76704285D01*
X79768095Y-76799523D01*
X79672857Y-76894761D01*
X79530000Y-76942380D01*
X79291904Y-76942380D01*
X80815714Y-76942380D02*
X80244285Y-76942380D01*
X80530000Y-76942380D02*
X80530000Y-75942380D01*
X80434761Y-76085238D01*
X80339523Y-76180476D01*
X80244285Y-76228095D01*
X69291904Y-76942380D02*
X69291904Y-75942380D01*
X69530000Y-75942380D01*
X69672857Y-75990000D01*
X69768095Y-76085238D01*
X69815714Y-76180476D01*
X69863333Y-76370952D01*
X69863333Y-76513809D01*
X69815714Y-76704285D01*
X69768095Y-76799523D01*
X69672857Y-76894761D01*
X69530000Y-76942380D01*
X69291904Y-76942380D01*
X70815714Y-76942380D02*
X70244285Y-76942380D01*
X70530000Y-76942380D02*
X70530000Y-75942380D01*
X70434761Y-76085238D01*
X70339523Y-76180476D01*
X70244285Y-76228095D01*
X59291904Y-76942380D02*
X59291904Y-75942380D01*
X59530000Y-75942380D01*
X59672857Y-75990000D01*
X59768095Y-76085238D01*
X59815714Y-76180476D01*
X59863333Y-76370952D01*
X59863333Y-76513809D01*
X59815714Y-76704285D01*
X59768095Y-76799523D01*
X59672857Y-76894761D01*
X59530000Y-76942380D01*
X59291904Y-76942380D01*
X60815714Y-76942380D02*
X60244285Y-76942380D01*
X60530000Y-76942380D02*
X60530000Y-75942380D01*
X60434761Y-76085238D01*
X60339523Y-76180476D01*
X60244285Y-76228095D01*
X49291904Y-76942380D02*
X49291904Y-75942380D01*
X49530000Y-75942380D01*
X49672857Y-75990000D01*
X49768095Y-76085238D01*
X49815714Y-76180476D01*
X49863333Y-76370952D01*
X49863333Y-76513809D01*
X49815714Y-76704285D01*
X49768095Y-76799523D01*
X49672857Y-76894761D01*
X49530000Y-76942380D01*
X49291904Y-76942380D01*
X50815714Y-76942380D02*
X50244285Y-76942380D01*
X50530000Y-76942380D02*
X50530000Y-75942380D01*
X50434761Y-76085238D01*
X50339523Y-76180476D01*
X50244285Y-76228095D01*
X39291904Y-76942380D02*
X39291904Y-75942380D01*
X39530000Y-75942380D01*
X39672857Y-75990000D01*
X39768095Y-76085238D01*
X39815714Y-76180476D01*
X39863333Y-76370952D01*
X39863333Y-76513809D01*
X39815714Y-76704285D01*
X39768095Y-76799523D01*
X39672857Y-76894761D01*
X39530000Y-76942380D01*
X39291904Y-76942380D01*
X40815714Y-76942380D02*
X40244285Y-76942380D01*
X40530000Y-76942380D02*
X40530000Y-75942380D01*
X40434761Y-76085238D01*
X40339523Y-76180476D01*
X40244285Y-76228095D01*
X199291904Y-56942380D02*
X199291904Y-55942380D01*
X199530000Y-55942380D01*
X199672857Y-55990000D01*
X199768095Y-56085238D01*
X199815714Y-56180476D01*
X199863333Y-56370952D01*
X199863333Y-56513809D01*
X199815714Y-56704285D01*
X199768095Y-56799523D01*
X199672857Y-56894761D01*
X199530000Y-56942380D01*
X199291904Y-56942380D01*
X200815714Y-56942380D02*
X200244285Y-56942380D01*
X200530000Y-56942380D02*
X200530000Y-55942380D01*
X200434761Y-56085238D01*
X200339523Y-56180476D01*
X200244285Y-56228095D01*
X189291904Y-56942380D02*
X189291904Y-55942380D01*
X189530000Y-55942380D01*
X189672857Y-55990000D01*
X189768095Y-56085238D01*
X189815714Y-56180476D01*
X189863333Y-56370952D01*
X189863333Y-56513809D01*
X189815714Y-56704285D01*
X189768095Y-56799523D01*
X189672857Y-56894761D01*
X189530000Y-56942380D01*
X189291904Y-56942380D01*
X190815714Y-56942380D02*
X190244285Y-56942380D01*
X190530000Y-56942380D02*
X190530000Y-55942380D01*
X190434761Y-56085238D01*
X190339523Y-56180476D01*
X190244285Y-56228095D01*
X179291904Y-56942380D02*
X179291904Y-55942380D01*
X179530000Y-55942380D01*
X179672857Y-55990000D01*
X179768095Y-56085238D01*
X179815714Y-56180476D01*
X179863333Y-56370952D01*
X179863333Y-56513809D01*
X179815714Y-56704285D01*
X179768095Y-56799523D01*
X179672857Y-56894761D01*
X179530000Y-56942380D01*
X179291904Y-56942380D01*
X180815714Y-56942380D02*
X180244285Y-56942380D01*
X180530000Y-56942380D02*
X180530000Y-55942380D01*
X180434761Y-56085238D01*
X180339523Y-56180476D01*
X180244285Y-56228095D01*
X169291904Y-56942380D02*
X169291904Y-55942380D01*
X169530000Y-55942380D01*
X169672857Y-55990000D01*
X169768095Y-56085238D01*
X169815714Y-56180476D01*
X169863333Y-56370952D01*
X169863333Y-56513809D01*
X169815714Y-56704285D01*
X169768095Y-56799523D01*
X169672857Y-56894761D01*
X169530000Y-56942380D01*
X169291904Y-56942380D01*
X170815714Y-56942380D02*
X170244285Y-56942380D01*
X170530000Y-56942380D02*
X170530000Y-55942380D01*
X170434761Y-56085238D01*
X170339523Y-56180476D01*
X170244285Y-56228095D01*
X159291904Y-56942380D02*
X159291904Y-55942380D01*
X159530000Y-55942380D01*
X159672857Y-55990000D01*
X159768095Y-56085238D01*
X159815714Y-56180476D01*
X159863333Y-56370952D01*
X159863333Y-56513809D01*
X159815714Y-56704285D01*
X159768095Y-56799523D01*
X159672857Y-56894761D01*
X159530000Y-56942380D01*
X159291904Y-56942380D01*
X160815714Y-56942380D02*
X160244285Y-56942380D01*
X160530000Y-56942380D02*
X160530000Y-55942380D01*
X160434761Y-56085238D01*
X160339523Y-56180476D01*
X160244285Y-56228095D01*
X149291904Y-56942380D02*
X149291904Y-55942380D01*
X149530000Y-55942380D01*
X149672857Y-55990000D01*
X149768095Y-56085238D01*
X149815714Y-56180476D01*
X149863333Y-56370952D01*
X149863333Y-56513809D01*
X149815714Y-56704285D01*
X149768095Y-56799523D01*
X149672857Y-56894761D01*
X149530000Y-56942380D01*
X149291904Y-56942380D01*
X150815714Y-56942380D02*
X150244285Y-56942380D01*
X150530000Y-56942380D02*
X150530000Y-55942380D01*
X150434761Y-56085238D01*
X150339523Y-56180476D01*
X150244285Y-56228095D01*
X139291904Y-56942380D02*
X139291904Y-55942380D01*
X139530000Y-55942380D01*
X139672857Y-55990000D01*
X139768095Y-56085238D01*
X139815714Y-56180476D01*
X139863333Y-56370952D01*
X139863333Y-56513809D01*
X139815714Y-56704285D01*
X139768095Y-56799523D01*
X139672857Y-56894761D01*
X139530000Y-56942380D01*
X139291904Y-56942380D01*
X140815714Y-56942380D02*
X140244285Y-56942380D01*
X140530000Y-56942380D02*
X140530000Y-55942380D01*
X140434761Y-56085238D01*
X140339523Y-56180476D01*
X140244285Y-56228095D01*
X129291904Y-56942380D02*
X129291904Y-55942380D01*
X129530000Y-55942380D01*
X129672857Y-55990000D01*
X129768095Y-56085238D01*
X129815714Y-56180476D01*
X129863333Y-56370952D01*
X129863333Y-56513809D01*
X129815714Y-56704285D01*
X129768095Y-56799523D01*
X129672857Y-56894761D01*
X129530000Y-56942380D01*
X129291904Y-56942380D01*
X130815714Y-56942380D02*
X130244285Y-56942380D01*
X130530000Y-56942380D02*
X130530000Y-55942380D01*
X130434761Y-56085238D01*
X130339523Y-56180476D01*
X130244285Y-56228095D01*
X119291904Y-56942380D02*
X119291904Y-55942380D01*
X119530000Y-55942380D01*
X119672857Y-55990000D01*
X119768095Y-56085238D01*
X119815714Y-56180476D01*
X119863333Y-56370952D01*
X119863333Y-56513809D01*
X119815714Y-56704285D01*
X119768095Y-56799523D01*
X119672857Y-56894761D01*
X119530000Y-56942380D01*
X119291904Y-56942380D01*
X120815714Y-56942380D02*
X120244285Y-56942380D01*
X120530000Y-56942380D02*
X120530000Y-55942380D01*
X120434761Y-56085238D01*
X120339523Y-56180476D01*
X120244285Y-56228095D01*
X109291904Y-56942380D02*
X109291904Y-55942380D01*
X109530000Y-55942380D01*
X109672857Y-55990000D01*
X109768095Y-56085238D01*
X109815714Y-56180476D01*
X109863333Y-56370952D01*
X109863333Y-56513809D01*
X109815714Y-56704285D01*
X109768095Y-56799523D01*
X109672857Y-56894761D01*
X109530000Y-56942380D01*
X109291904Y-56942380D01*
X110815714Y-56942380D02*
X110244285Y-56942380D01*
X110530000Y-56942380D02*
X110530000Y-55942380D01*
X110434761Y-56085238D01*
X110339523Y-56180476D01*
X110244285Y-56228095D01*
X99291904Y-56942380D02*
X99291904Y-55942380D01*
X99530000Y-55942380D01*
X99672857Y-55990000D01*
X99768095Y-56085238D01*
X99815714Y-56180476D01*
X99863333Y-56370952D01*
X99863333Y-56513809D01*
X99815714Y-56704285D01*
X99768095Y-56799523D01*
X99672857Y-56894761D01*
X99530000Y-56942380D01*
X99291904Y-56942380D01*
X100815714Y-56942380D02*
X100244285Y-56942380D01*
X100530000Y-56942380D02*
X100530000Y-55942380D01*
X100434761Y-56085238D01*
X100339523Y-56180476D01*
X100244285Y-56228095D01*
X89291904Y-56942380D02*
X89291904Y-55942380D01*
X89530000Y-55942380D01*
X89672857Y-55990000D01*
X89768095Y-56085238D01*
X89815714Y-56180476D01*
X89863333Y-56370952D01*
X89863333Y-56513809D01*
X89815714Y-56704285D01*
X89768095Y-56799523D01*
X89672857Y-56894761D01*
X89530000Y-56942380D01*
X89291904Y-56942380D01*
X90815714Y-56942380D02*
X90244285Y-56942380D01*
X90530000Y-56942380D02*
X90530000Y-55942380D01*
X90434761Y-56085238D01*
X90339523Y-56180476D01*
X90244285Y-56228095D01*
X79291904Y-56942380D02*
X79291904Y-55942380D01*
X79530000Y-55942380D01*
X79672857Y-55990000D01*
X79768095Y-56085238D01*
X79815714Y-56180476D01*
X79863333Y-56370952D01*
X79863333Y-56513809D01*
X79815714Y-56704285D01*
X79768095Y-56799523D01*
X79672857Y-56894761D01*
X79530000Y-56942380D01*
X79291904Y-56942380D01*
X80815714Y-56942380D02*
X80244285Y-56942380D01*
X80530000Y-56942380D02*
X80530000Y-55942380D01*
X80434761Y-56085238D01*
X80339523Y-56180476D01*
X80244285Y-56228095D01*
X69291904Y-56942380D02*
X69291904Y-55942380D01*
X69530000Y-55942380D01*
X69672857Y-55990000D01*
X69768095Y-56085238D01*
X69815714Y-56180476D01*
X69863333Y-56370952D01*
X69863333Y-56513809D01*
X69815714Y-56704285D01*
X69768095Y-56799523D01*
X69672857Y-56894761D01*
X69530000Y-56942380D01*
X69291904Y-56942380D01*
X70815714Y-56942380D02*
X70244285Y-56942380D01*
X70530000Y-56942380D02*
X70530000Y-55942380D01*
X70434761Y-56085238D01*
X70339523Y-56180476D01*
X70244285Y-56228095D01*
X59291904Y-56942380D02*
X59291904Y-55942380D01*
X59530000Y-55942380D01*
X59672857Y-55990000D01*
X59768095Y-56085238D01*
X59815714Y-56180476D01*
X59863333Y-56370952D01*
X59863333Y-56513809D01*
X59815714Y-56704285D01*
X59768095Y-56799523D01*
X59672857Y-56894761D01*
X59530000Y-56942380D01*
X59291904Y-56942380D01*
X60815714Y-56942380D02*
X60244285Y-56942380D01*
X60530000Y-56942380D02*
X60530000Y-55942380D01*
X60434761Y-56085238D01*
X60339523Y-56180476D01*
X60244285Y-56228095D01*
X49291904Y-56942380D02*
X49291904Y-55942380D01*
X49530000Y-55942380D01*
X49672857Y-55990000D01*
X49768095Y-56085238D01*
X49815714Y-56180476D01*
X49863333Y-56370952D01*
X49863333Y-56513809D01*
X49815714Y-56704285D01*
X49768095Y-56799523D01*
X49672857Y-56894761D01*
X49530000Y-56942380D01*
X49291904Y-56942380D01*
X50815714Y-56942380D02*
X50244285Y-56942380D01*
X50530000Y-56942380D02*
X50530000Y-55942380D01*
X50434761Y-56085238D01*
X50339523Y-56180476D01*
X50244285Y-56228095D01*
X39291904Y-56942380D02*
X39291904Y-55942380D01*
X39530000Y-55942380D01*
X39672857Y-55990000D01*
X39768095Y-56085238D01*
X39815714Y-56180476D01*
X39863333Y-56370952D01*
X39863333Y-56513809D01*
X39815714Y-56704285D01*
X39768095Y-56799523D01*
X39672857Y-56894761D01*
X39530000Y-56942380D01*
X39291904Y-56942380D01*
X40815714Y-56942380D02*
X40244285Y-56942380D01*
X40530000Y-56942380D02*
X40530000Y-55942380D01*
X40434761Y-56085238D01*
X40339523Y-56180476D01*
X40244285Y-56228095D01*
X199291904Y-36942380D02*
X199291904Y-35942380D01*
X199530000Y-35942380D01*
X199672857Y-35990000D01*
X199768095Y-36085238D01*
X199815714Y-36180476D01*
X199863333Y-36370952D01*
X199863333Y-36513809D01*
X199815714Y-36704285D01*
X199768095Y-36799523D01*
X199672857Y-36894761D01*
X199530000Y-36942380D01*
X199291904Y-36942380D01*
X200815714Y-36942380D02*
X200244285Y-36942380D01*
X200530000Y-36942380D02*
X200530000Y-35942380D01*
X200434761Y-36085238D01*
X200339523Y-36180476D01*
X200244285Y-36228095D01*
X189291904Y-36942380D02*
X189291904Y-35942380D01*
X189530000Y-35942380D01*
X189672857Y-35990000D01*
X189768095Y-36085238D01*
X189815714Y-36180476D01*
X189863333Y-36370952D01*
X189863333Y-36513809D01*
X189815714Y-36704285D01*
X189768095Y-36799523D01*
X189672857Y-36894761D01*
X189530000Y-36942380D01*
X189291904Y-36942380D01*
X190815714Y-36942380D02*
X190244285Y-36942380D01*
X190530000Y-36942380D02*
X190530000Y-35942380D01*
X190434761Y-36085238D01*
X190339523Y-36180476D01*
X190244285Y-36228095D01*
X179291904Y-36942380D02*
X179291904Y-35942380D01*
X179530000Y-35942380D01*
X179672857Y-35990000D01*
X179768095Y-36085238D01*
X179815714Y-36180476D01*
X179863333Y-36370952D01*
X179863333Y-36513809D01*
X179815714Y-36704285D01*
X179768095Y-36799523D01*
X179672857Y-36894761D01*
X179530000Y-36942380D01*
X179291904Y-36942380D01*
X180815714Y-36942380D02*
X180244285Y-36942380D01*
X180530000Y-36942380D02*
X180530000Y-35942380D01*
X180434761Y-36085238D01*
X180339523Y-36180476D01*
X180244285Y-36228095D01*
X169291904Y-36942380D02*
X169291904Y-35942380D01*
X169530000Y-35942380D01*
X169672857Y-35990000D01*
X169768095Y-36085238D01*
X169815714Y-36180476D01*
X169863333Y-36370952D01*
X169863333Y-36513809D01*
X169815714Y-36704285D01*
X169768095Y-36799523D01*
X169672857Y-36894761D01*
X169530000Y-36942380D01*
X169291904Y-36942380D01*
X170815714Y-36942380D02*
X170244285Y-36942380D01*
X170530000Y-36942380D02*
X170530000Y-35942380D01*
X170434761Y-36085238D01*
X170339523Y-36180476D01*
X170244285Y-36228095D01*
X159291904Y-36942380D02*
X159291904Y-35942380D01*
X159530000Y-35942380D01*
X159672857Y-35990000D01*
X159768095Y-36085238D01*
X159815714Y-36180476D01*
X159863333Y-36370952D01*
X159863333Y-36513809D01*
X159815714Y-36704285D01*
X159768095Y-36799523D01*
X159672857Y-36894761D01*
X159530000Y-36942380D01*
X159291904Y-36942380D01*
X160815714Y-36942380D02*
X160244285Y-36942380D01*
X160530000Y-36942380D02*
X160530000Y-35942380D01*
X160434761Y-36085238D01*
X160339523Y-36180476D01*
X160244285Y-36228095D01*
X149291904Y-36942380D02*
X149291904Y-35942380D01*
X149530000Y-35942380D01*
X149672857Y-35990000D01*
X149768095Y-36085238D01*
X149815714Y-36180476D01*
X149863333Y-36370952D01*
X149863333Y-36513809D01*
X149815714Y-36704285D01*
X149768095Y-36799523D01*
X149672857Y-36894761D01*
X149530000Y-36942380D01*
X149291904Y-36942380D01*
X150815714Y-36942380D02*
X150244285Y-36942380D01*
X150530000Y-36942380D02*
X150530000Y-35942380D01*
X150434761Y-36085238D01*
X150339523Y-36180476D01*
X150244285Y-36228095D01*
X139291904Y-36942380D02*
X139291904Y-35942380D01*
X139530000Y-35942380D01*
X139672857Y-35990000D01*
X139768095Y-36085238D01*
X139815714Y-36180476D01*
X139863333Y-36370952D01*
X139863333Y-36513809D01*
X139815714Y-36704285D01*
X139768095Y-36799523D01*
X139672857Y-36894761D01*
X139530000Y-36942380D01*
X139291904Y-36942380D01*
X140815714Y-36942380D02*
X140244285Y-36942380D01*
X140530000Y-36942380D02*
X140530000Y-35942380D01*
X140434761Y-36085238D01*
X140339523Y-36180476D01*
X140244285Y-36228095D01*
X129291904Y-36942380D02*
X129291904Y-35942380D01*
X129530000Y-35942380D01*
X129672857Y-35990000D01*
X129768095Y-36085238D01*
X129815714Y-36180476D01*
X129863333Y-36370952D01*
X129863333Y-36513809D01*
X129815714Y-36704285D01*
X129768095Y-36799523D01*
X129672857Y-36894761D01*
X129530000Y-36942380D01*
X129291904Y-36942380D01*
X130815714Y-36942380D02*
X130244285Y-36942380D01*
X130530000Y-36942380D02*
X130530000Y-35942380D01*
X130434761Y-36085238D01*
X130339523Y-36180476D01*
X130244285Y-36228095D01*
X119291904Y-36942380D02*
X119291904Y-35942380D01*
X119530000Y-35942380D01*
X119672857Y-35990000D01*
X119768095Y-36085238D01*
X119815714Y-36180476D01*
X119863333Y-36370952D01*
X119863333Y-36513809D01*
X119815714Y-36704285D01*
X119768095Y-36799523D01*
X119672857Y-36894761D01*
X119530000Y-36942380D01*
X119291904Y-36942380D01*
X120815714Y-36942380D02*
X120244285Y-36942380D01*
X120530000Y-36942380D02*
X120530000Y-35942380D01*
X120434761Y-36085238D01*
X120339523Y-36180476D01*
X120244285Y-36228095D01*
X109291904Y-36942380D02*
X109291904Y-35942380D01*
X109530000Y-35942380D01*
X109672857Y-35990000D01*
X109768095Y-36085238D01*
X109815714Y-36180476D01*
X109863333Y-36370952D01*
X109863333Y-36513809D01*
X109815714Y-36704285D01*
X109768095Y-36799523D01*
X109672857Y-36894761D01*
X109530000Y-36942380D01*
X109291904Y-36942380D01*
X110815714Y-36942380D02*
X110244285Y-36942380D01*
X110530000Y-36942380D02*
X110530000Y-35942380D01*
X110434761Y-36085238D01*
X110339523Y-36180476D01*
X110244285Y-36228095D01*
X99291904Y-36942380D02*
X99291904Y-35942380D01*
X99530000Y-35942380D01*
X99672857Y-35990000D01*
X99768095Y-36085238D01*
X99815714Y-36180476D01*
X99863333Y-36370952D01*
X99863333Y-36513809D01*
X99815714Y-36704285D01*
X99768095Y-36799523D01*
X99672857Y-36894761D01*
X99530000Y-36942380D01*
X99291904Y-36942380D01*
X100815714Y-36942380D02*
X100244285Y-36942380D01*
X100530000Y-36942380D02*
X100530000Y-35942380D01*
X100434761Y-36085238D01*
X100339523Y-36180476D01*
X100244285Y-36228095D01*
X89291904Y-36942380D02*
X89291904Y-35942380D01*
X89530000Y-35942380D01*
X89672857Y-35990000D01*
X89768095Y-36085238D01*
X89815714Y-36180476D01*
X89863333Y-36370952D01*
X89863333Y-36513809D01*
X89815714Y-36704285D01*
X89768095Y-36799523D01*
X89672857Y-36894761D01*
X89530000Y-36942380D01*
X89291904Y-36942380D01*
X90815714Y-36942380D02*
X90244285Y-36942380D01*
X90530000Y-36942380D02*
X90530000Y-35942380D01*
X90434761Y-36085238D01*
X90339523Y-36180476D01*
X90244285Y-36228095D01*
X79291904Y-36942380D02*
X79291904Y-35942380D01*
X79530000Y-35942380D01*
X79672857Y-35990000D01*
X79768095Y-36085238D01*
X79815714Y-36180476D01*
X79863333Y-36370952D01*
X79863333Y-36513809D01*
X79815714Y-36704285D01*
X79768095Y-36799523D01*
X79672857Y-36894761D01*
X79530000Y-36942380D01*
X79291904Y-36942380D01*
X80815714Y-36942380D02*
X80244285Y-36942380D01*
X80530000Y-36942380D02*
X80530000Y-35942380D01*
X80434761Y-36085238D01*
X80339523Y-36180476D01*
X80244285Y-36228095D01*
X69291904Y-36942380D02*
X69291904Y-35942380D01*
X69530000Y-35942380D01*
X69672857Y-35990000D01*
X69768095Y-36085238D01*
X69815714Y-36180476D01*
X69863333Y-36370952D01*
X69863333Y-36513809D01*
X69815714Y-36704285D01*
X69768095Y-36799523D01*
X69672857Y-36894761D01*
X69530000Y-36942380D01*
X69291904Y-36942380D01*
X70815714Y-36942380D02*
X70244285Y-36942380D01*
X70530000Y-36942380D02*
X70530000Y-35942380D01*
X70434761Y-36085238D01*
X70339523Y-36180476D01*
X70244285Y-36228095D01*
X59291904Y-36942380D02*
X59291904Y-35942380D01*
X59530000Y-35942380D01*
X59672857Y-35990000D01*
X59768095Y-36085238D01*
X59815714Y-36180476D01*
X59863333Y-36370952D01*
X59863333Y-36513809D01*
X59815714Y-36704285D01*
X59768095Y-36799523D01*
X59672857Y-36894761D01*
X59530000Y-36942380D01*
X59291904Y-36942380D01*
X60815714Y-36942380D02*
X60244285Y-36942380D01*
X60530000Y-36942380D02*
X60530000Y-35942380D01*
X60434761Y-36085238D01*
X60339523Y-36180476D01*
X60244285Y-36228095D01*
X49291904Y-36942380D02*
X49291904Y-35942380D01*
X49530000Y-35942380D01*
X49672857Y-35990000D01*
X49768095Y-36085238D01*
X49815714Y-36180476D01*
X49863333Y-36370952D01*
X49863333Y-36513809D01*
X49815714Y-36704285D01*
X49768095Y-36799523D01*
X49672857Y-36894761D01*
X49530000Y-36942380D01*
X49291904Y-36942380D01*
X50815714Y-36942380D02*
X50244285Y-36942380D01*
X50530000Y-36942380D02*
X50530000Y-35942380D01*
X50434761Y-36085238D01*
X50339523Y-36180476D01*
X50244285Y-36228095D01*
X199291904Y-73942380D02*
X199291904Y-72942380D01*
X199530000Y-72942380D01*
X199672857Y-72990000D01*
X199768095Y-73085238D01*
X199815714Y-73180476D01*
X199863333Y-73370952D01*
X199863333Y-73513809D01*
X199815714Y-73704285D01*
X199768095Y-73799523D01*
X199672857Y-73894761D01*
X199530000Y-73942380D01*
X199291904Y-73942380D01*
X200815714Y-73942380D02*
X200244285Y-73942380D01*
X200530000Y-73942380D02*
X200530000Y-72942380D01*
X200434761Y-73085238D01*
X200339523Y-73180476D01*
X200244285Y-73228095D01*
X189291904Y-73942380D02*
X189291904Y-72942380D01*
X189530000Y-72942380D01*
X189672857Y-72990000D01*
X189768095Y-73085238D01*
X189815714Y-73180476D01*
X189863333Y-73370952D01*
X189863333Y-73513809D01*
X189815714Y-73704285D01*
X189768095Y-73799523D01*
X189672857Y-73894761D01*
X189530000Y-73942380D01*
X189291904Y-73942380D01*
X190815714Y-73942380D02*
X190244285Y-73942380D01*
X190530000Y-73942380D02*
X190530000Y-72942380D01*
X190434761Y-73085238D01*
X190339523Y-73180476D01*
X190244285Y-73228095D01*
X179291904Y-73942380D02*
X179291904Y-72942380D01*
X179530000Y-72942380D01*
X179672857Y-72990000D01*
X179768095Y-73085238D01*
X179815714Y-73180476D01*
X179863333Y-73370952D01*
X179863333Y-73513809D01*
X179815714Y-73704285D01*
X179768095Y-73799523D01*
X179672857Y-73894761D01*
X179530000Y-73942380D01*
X179291904Y-73942380D01*
X180815714Y-73942380D02*
X180244285Y-73942380D01*
X180530000Y-73942380D02*
X180530000Y-72942380D01*
X180434761Y-73085238D01*
X180339523Y-73180476D01*
X180244285Y-73228095D01*
X169291904Y-73942380D02*
X169291904Y-72942380D01*
X169530000Y-72942380D01*
X169672857Y-72990000D01*
X169768095Y-73085238D01*
X169815714Y-73180476D01*
X169863333Y-73370952D01*
X169863333Y-73513809D01*
X169815714Y-73704285D01*
X169768095Y-73799523D01*
X169672857Y-73894761D01*
X169530000Y-73942380D01*
X169291904Y-73942380D01*
X170815714Y-73942380D02*
X170244285Y-73942380D01*
X170530000Y-73942380D02*
X170530000Y-72942380D01*
X170434761Y-73085238D01*
X170339523Y-73180476D01*
X170244285Y-73228095D01*
X159291904Y-73942380D02*
X159291904Y-72942380D01*
X159530000Y-72942380D01*
X159672857Y-72990000D01*
X159768095Y-73085238D01*
X159815714Y-73180476D01*
X159863333Y-73370952D01*
X159863333Y-73513809D01*
X159815714Y-73704285D01*
X159768095Y-73799523D01*
X159672857Y-73894761D01*
X159530000Y-73942380D01*
X159291904Y-73942380D01*
X160815714Y-73942380D02*
X160244285Y-73942380D01*
X160530000Y-73942380D02*
X160530000Y-72942380D01*
X160434761Y-73085238D01*
X160339523Y-73180476D01*
X160244285Y-73228095D01*
X149291904Y-73942380D02*
X149291904Y-72942380D01*
X149530000Y-72942380D01*
X149672857Y-72990000D01*
X149768095Y-73085238D01*
X149815714Y-73180476D01*
X149863333Y-73370952D01*
X149863333Y-73513809D01*
X149815714Y-73704285D01*
X149768095Y-73799523D01*
X149672857Y-73894761D01*
X149530000Y-73942380D01*
X149291904Y-73942380D01*
X150815714Y-73942380D02*
X150244285Y-73942380D01*
X150530000Y-73942380D02*
X150530000Y-72942380D01*
X150434761Y-73085238D01*
X150339523Y-73180476D01*
X150244285Y-73228095D01*
X139291904Y-73942380D02*
X139291904Y-72942380D01*
X139530000Y-72942380D01*
X139672857Y-72990000D01*
X139768095Y-73085238D01*
X139815714Y-73180476D01*
X139863333Y-73370952D01*
X139863333Y-73513809D01*
X139815714Y-73704285D01*
X139768095Y-73799523D01*
X139672857Y-73894761D01*
X139530000Y-73942380D01*
X139291904Y-73942380D01*
X140815714Y-73942380D02*
X140244285Y-73942380D01*
X140530000Y-73942380D02*
X140530000Y-72942380D01*
X140434761Y-73085238D01*
X140339523Y-73180476D01*
X140244285Y-73228095D01*
X129291904Y-73942380D02*
X129291904Y-72942380D01*
X129530000Y-72942380D01*
X129672857Y-72990000D01*
X129768095Y-73085238D01*
X129815714Y-73180476D01*
X129863333Y-73370952D01*
X129863333Y-73513809D01*
X129815714Y-73704285D01*
X129768095Y-73799523D01*
X129672857Y-73894761D01*
X129530000Y-73942380D01*
X129291904Y-73942380D01*
X130815714Y-73942380D02*
X130244285Y-73942380D01*
X130530000Y-73942380D02*
X130530000Y-72942380D01*
X130434761Y-73085238D01*
X130339523Y-73180476D01*
X130244285Y-73228095D01*
X119291904Y-73942380D02*
X119291904Y-72942380D01*
X119530000Y-72942380D01*
X119672857Y-72990000D01*
X119768095Y-73085238D01*
X119815714Y-73180476D01*
X119863333Y-73370952D01*
X119863333Y-73513809D01*
X119815714Y-73704285D01*
X119768095Y-73799523D01*
X119672857Y-73894761D01*
X119530000Y-73942380D01*
X119291904Y-73942380D01*
X120815714Y-73942380D02*
X120244285Y-73942380D01*
X120530000Y-73942380D02*
X120530000Y-72942380D01*
X120434761Y-73085238D01*
X120339523Y-73180476D01*
X120244285Y-73228095D01*
X109291904Y-73942380D02*
X109291904Y-72942380D01*
X109530000Y-72942380D01*
X109672857Y-72990000D01*
X109768095Y-73085238D01*
X109815714Y-73180476D01*
X109863333Y-73370952D01*
X109863333Y-73513809D01*
X109815714Y-73704285D01*
X109768095Y-73799523D01*
X109672857Y-73894761D01*
X109530000Y-73942380D01*
X109291904Y-73942380D01*
X110815714Y-73942380D02*
X110244285Y-73942380D01*
X110530000Y-73942380D02*
X110530000Y-72942380D01*
X110434761Y-73085238D01*
X110339523Y-73180476D01*
X110244285Y-73228095D01*
X99291904Y-73942380D02*
X99291904Y-72942380D01*
X99530000Y-72942380D01*
X99672857Y-72990000D01*
X99768095Y-73085238D01*
X99815714Y-73180476D01*
X99863333Y-73370952D01*
X99863333Y-73513809D01*
X99815714Y-73704285D01*
X99768095Y-73799523D01*
X99672857Y-73894761D01*
X99530000Y-73942380D01*
X99291904Y-73942380D01*
X100815714Y-73942380D02*
X100244285Y-73942380D01*
X100530000Y-73942380D02*
X100530000Y-72942380D01*
X100434761Y-73085238D01*
X100339523Y-73180476D01*
X100244285Y-73228095D01*
X89291904Y-73942380D02*
X89291904Y-72942380D01*
X89530000Y-72942380D01*
X89672857Y-72990000D01*
X89768095Y-73085238D01*
X89815714Y-73180476D01*
X89863333Y-73370952D01*
X89863333Y-73513809D01*
X89815714Y-73704285D01*
X89768095Y-73799523D01*
X89672857Y-73894761D01*
X89530000Y-73942380D01*
X89291904Y-73942380D01*
X90815714Y-73942380D02*
X90244285Y-73942380D01*
X90530000Y-73942380D02*
X90530000Y-72942380D01*
X90434761Y-73085238D01*
X90339523Y-73180476D01*
X90244285Y-73228095D01*
X79291904Y-73942380D02*
X79291904Y-72942380D01*
X79530000Y-72942380D01*
X79672857Y-72990000D01*
X79768095Y-73085238D01*
X79815714Y-73180476D01*
X79863333Y-73370952D01*
X79863333Y-73513809D01*
X79815714Y-73704285D01*
X79768095Y-73799523D01*
X79672857Y-73894761D01*
X79530000Y-73942380D01*
X79291904Y-73942380D01*
X80815714Y-73942380D02*
X80244285Y-73942380D01*
X80530000Y-73942380D02*
X80530000Y-72942380D01*
X80434761Y-73085238D01*
X80339523Y-73180476D01*
X80244285Y-73228095D01*
X69291904Y-73942380D02*
X69291904Y-72942380D01*
X69530000Y-72942380D01*
X69672857Y-72990000D01*
X69768095Y-73085238D01*
X69815714Y-73180476D01*
X69863333Y-73370952D01*
X69863333Y-73513809D01*
X69815714Y-73704285D01*
X69768095Y-73799523D01*
X69672857Y-73894761D01*
X69530000Y-73942380D01*
X69291904Y-73942380D01*
X70815714Y-73942380D02*
X70244285Y-73942380D01*
X70530000Y-73942380D02*
X70530000Y-72942380D01*
X70434761Y-73085238D01*
X70339523Y-73180476D01*
X70244285Y-73228095D01*
X59291904Y-73942380D02*
X59291904Y-72942380D01*
X59530000Y-72942380D01*
X59672857Y-72990000D01*
X59768095Y-73085238D01*
X59815714Y-73180476D01*
X59863333Y-73370952D01*
X59863333Y-73513809D01*
X59815714Y-73704285D01*
X59768095Y-73799523D01*
X59672857Y-73894761D01*
X59530000Y-73942380D01*
X59291904Y-73942380D01*
X60815714Y-73942380D02*
X60244285Y-73942380D01*
X60530000Y-73942380D02*
X60530000Y-72942380D01*
X60434761Y-73085238D01*
X60339523Y-73180476D01*
X60244285Y-73228095D01*
X49291904Y-73942380D02*
X49291904Y-72942380D01*
X49530000Y-72942380D01*
X49672857Y-72990000D01*
X49768095Y-73085238D01*
X49815714Y-73180476D01*
X49863333Y-73370952D01*
X49863333Y-73513809D01*
X49815714Y-73704285D01*
X49768095Y-73799523D01*
X49672857Y-73894761D01*
X49530000Y-73942380D01*
X49291904Y-73942380D01*
X50815714Y-73942380D02*
X50244285Y-73942380D01*
X50530000Y-73942380D02*
X50530000Y-72942380D01*
X50434761Y-73085238D01*
X50339523Y-73180476D01*
X50244285Y-73228095D01*
X39291904Y-73942380D02*
X39291904Y-72942380D01*
X39530000Y-72942380D01*
X39672857Y-72990000D01*
X39768095Y-73085238D01*
X39815714Y-73180476D01*
X39863333Y-73370952D01*
X39863333Y-73513809D01*
X39815714Y-73704285D01*
X39768095Y-73799523D01*
X39672857Y-73894761D01*
X39530000Y-73942380D01*
X39291904Y-73942380D01*
X40815714Y-73942380D02*
X40244285Y-73942380D01*
X40530000Y-73942380D02*
X40530000Y-72942380D01*
X40434761Y-73085238D01*
X40339523Y-73180476D01*
X40244285Y-73228095D01*
X199291904Y-53942380D02*
X199291904Y-52942380D01*
X199530000Y-52942380D01*
X199672857Y-52990000D01*
X199768095Y-53085238D01*
X199815714Y-53180476D01*
X199863333Y-53370952D01*
X199863333Y-53513809D01*
X199815714Y-53704285D01*
X199768095Y-53799523D01*
X199672857Y-53894761D01*
X199530000Y-53942380D01*
X199291904Y-53942380D01*
X200815714Y-53942380D02*
X200244285Y-53942380D01*
X200530000Y-53942380D02*
X200530000Y-52942380D01*
X200434761Y-53085238D01*
X200339523Y-53180476D01*
X200244285Y-53228095D01*
X189291904Y-53942380D02*
X189291904Y-52942380D01*
X189530000Y-52942380D01*
X189672857Y-52990000D01*
X189768095Y-53085238D01*
X189815714Y-53180476D01*
X189863333Y-53370952D01*
X189863333Y-53513809D01*
X189815714Y-53704285D01*
X189768095Y-53799523D01*
X189672857Y-53894761D01*
X189530000Y-53942380D01*
X189291904Y-53942380D01*
X190815714Y-53942380D02*
X190244285Y-53942380D01*
X190530000Y-53942380D02*
X190530000Y-52942380D01*
X190434761Y-53085238D01*
X190339523Y-53180476D01*
X190244285Y-53228095D01*
X179291904Y-53942380D02*
X179291904Y-52942380D01*
X179530000Y-52942380D01*
X179672857Y-52990000D01*
X179768095Y-53085238D01*
X179815714Y-53180476D01*
X179863333Y-53370952D01*
X179863333Y-53513809D01*
X179815714Y-53704285D01*
X179768095Y-53799523D01*
X179672857Y-53894761D01*
X179530000Y-53942380D01*
X179291904Y-53942380D01*
X180815714Y-53942380D02*
X180244285Y-53942380D01*
X180530000Y-53942380D02*
X180530000Y-52942380D01*
X180434761Y-53085238D01*
X180339523Y-53180476D01*
X180244285Y-53228095D01*
X169291904Y-53942380D02*
X169291904Y-52942380D01*
X169530000Y-52942380D01*
X169672857Y-52990000D01*
X169768095Y-53085238D01*
X169815714Y-53180476D01*
X169863333Y-53370952D01*
X169863333Y-53513809D01*
X169815714Y-53704285D01*
X169768095Y-53799523D01*
X169672857Y-53894761D01*
X169530000Y-53942380D01*
X169291904Y-53942380D01*
X170815714Y-53942380D02*
X170244285Y-53942380D01*
X170530000Y-53942380D02*
X170530000Y-52942380D01*
X170434761Y-53085238D01*
X170339523Y-53180476D01*
X170244285Y-53228095D01*
X159291904Y-53942380D02*
X159291904Y-52942380D01*
X159530000Y-52942380D01*
X159672857Y-52990000D01*
X159768095Y-53085238D01*
X159815714Y-53180476D01*
X159863333Y-53370952D01*
X159863333Y-53513809D01*
X159815714Y-53704285D01*
X159768095Y-53799523D01*
X159672857Y-53894761D01*
X159530000Y-53942380D01*
X159291904Y-53942380D01*
X160815714Y-53942380D02*
X160244285Y-53942380D01*
X160530000Y-53942380D02*
X160530000Y-52942380D01*
X160434761Y-53085238D01*
X160339523Y-53180476D01*
X160244285Y-53228095D01*
X149291904Y-53942380D02*
X149291904Y-52942380D01*
X149530000Y-52942380D01*
X149672857Y-52990000D01*
X149768095Y-53085238D01*
X149815714Y-53180476D01*
X149863333Y-53370952D01*
X149863333Y-53513809D01*
X149815714Y-53704285D01*
X149768095Y-53799523D01*
X149672857Y-53894761D01*
X149530000Y-53942380D01*
X149291904Y-53942380D01*
X150815714Y-53942380D02*
X150244285Y-53942380D01*
X150530000Y-53942380D02*
X150530000Y-52942380D01*
X150434761Y-53085238D01*
X150339523Y-53180476D01*
X150244285Y-53228095D01*
X139291904Y-53942380D02*
X139291904Y-52942380D01*
X139530000Y-52942380D01*
X139672857Y-52990000D01*
X139768095Y-53085238D01*
X139815714Y-53180476D01*
X139863333Y-53370952D01*
X139863333Y-53513809D01*
X139815714Y-53704285D01*
X139768095Y-53799523D01*
X139672857Y-53894761D01*
X139530000Y-53942380D01*
X139291904Y-53942380D01*
X140815714Y-53942380D02*
X140244285Y-53942380D01*
X140530000Y-53942380D02*
X140530000Y-52942380D01*
X140434761Y-53085238D01*
X140339523Y-53180476D01*
X140244285Y-53228095D01*
X129291904Y-53942380D02*
X129291904Y-52942380D01*
X129530000Y-52942380D01*
X129672857Y-52990000D01*
X129768095Y-53085238D01*
X129815714Y-53180476D01*
X129863333Y-53370952D01*
X129863333Y-53513809D01*
X129815714Y-53704285D01*
X129768095Y-53799523D01*
X129672857Y-53894761D01*
X129530000Y-53942380D01*
X129291904Y-53942380D01*
X130815714Y-53942380D02*
X130244285Y-53942380D01*
X130530000Y-53942380D02*
X130530000Y-52942380D01*
X130434761Y-53085238D01*
X130339523Y-53180476D01*
X130244285Y-53228095D01*
X119291904Y-53942380D02*
X119291904Y-52942380D01*
X119530000Y-52942380D01*
X119672857Y-52990000D01*
X119768095Y-53085238D01*
X119815714Y-53180476D01*
X119863333Y-53370952D01*
X119863333Y-53513809D01*
X119815714Y-53704285D01*
X119768095Y-53799523D01*
X119672857Y-53894761D01*
X119530000Y-53942380D01*
X119291904Y-53942380D01*
X120815714Y-53942380D02*
X120244285Y-53942380D01*
X120530000Y-53942380D02*
X120530000Y-52942380D01*
X120434761Y-53085238D01*
X120339523Y-53180476D01*
X120244285Y-53228095D01*
X109291904Y-53942380D02*
X109291904Y-52942380D01*
X109530000Y-52942380D01*
X109672857Y-52990000D01*
X109768095Y-53085238D01*
X109815714Y-53180476D01*
X109863333Y-53370952D01*
X109863333Y-53513809D01*
X109815714Y-53704285D01*
X109768095Y-53799523D01*
X109672857Y-53894761D01*
X109530000Y-53942380D01*
X109291904Y-53942380D01*
X110815714Y-53942380D02*
X110244285Y-53942380D01*
X110530000Y-53942380D02*
X110530000Y-52942380D01*
X110434761Y-53085238D01*
X110339523Y-53180476D01*
X110244285Y-53228095D01*
X99291904Y-53942380D02*
X99291904Y-52942380D01*
X99530000Y-52942380D01*
X99672857Y-52990000D01*
X99768095Y-53085238D01*
X99815714Y-53180476D01*
X99863333Y-53370952D01*
X99863333Y-53513809D01*
X99815714Y-53704285D01*
X99768095Y-53799523D01*
X99672857Y-53894761D01*
X99530000Y-53942380D01*
X99291904Y-53942380D01*
X100815714Y-53942380D02*
X100244285Y-53942380D01*
X100530000Y-53942380D02*
X100530000Y-52942380D01*
X100434761Y-53085238D01*
X100339523Y-53180476D01*
X100244285Y-53228095D01*
X89291904Y-53942380D02*
X89291904Y-52942380D01*
X89530000Y-52942380D01*
X89672857Y-52990000D01*
X89768095Y-53085238D01*
X89815714Y-53180476D01*
X89863333Y-53370952D01*
X89863333Y-53513809D01*
X89815714Y-53704285D01*
X89768095Y-53799523D01*
X89672857Y-53894761D01*
X89530000Y-53942380D01*
X89291904Y-53942380D01*
X90815714Y-53942380D02*
X90244285Y-53942380D01*
X90530000Y-53942380D02*
X90530000Y-52942380D01*
X90434761Y-53085238D01*
X90339523Y-53180476D01*
X90244285Y-53228095D01*
X79291904Y-53942380D02*
X79291904Y-52942380D01*
X79530000Y-52942380D01*
X79672857Y-52990000D01*
X79768095Y-53085238D01*
X79815714Y-53180476D01*
X79863333Y-53370952D01*
X79863333Y-53513809D01*
X79815714Y-53704285D01*
X79768095Y-53799523D01*
X79672857Y-53894761D01*
X79530000Y-53942380D01*
X79291904Y-53942380D01*
X80815714Y-53942380D02*
X80244285Y-53942380D01*
X80530000Y-53942380D02*
X80530000Y-52942380D01*
X80434761Y-53085238D01*
X80339523Y-53180476D01*
X80244285Y-53228095D01*
X69291904Y-53942380D02*
X69291904Y-52942380D01*
X69530000Y-52942380D01*
X69672857Y-52990000D01*
X69768095Y-53085238D01*
X69815714Y-53180476D01*
X69863333Y-53370952D01*
X69863333Y-53513809D01*
X69815714Y-53704285D01*
X69768095Y-53799523D01*
X69672857Y-53894761D01*
X69530000Y-53942380D01*
X69291904Y-53942380D01*
X70815714Y-53942380D02*
X70244285Y-53942380D01*
X70530000Y-53942380D02*
X70530000Y-52942380D01*
X70434761Y-53085238D01*
X70339523Y-53180476D01*
X70244285Y-53228095D01*
X59291904Y-53942380D02*
X59291904Y-52942380D01*
X59530000Y-52942380D01*
X59672857Y-52990000D01*
X59768095Y-53085238D01*
X59815714Y-53180476D01*
X59863333Y-53370952D01*
X59863333Y-53513809D01*
X59815714Y-53704285D01*
X59768095Y-53799523D01*
X59672857Y-53894761D01*
X59530000Y-53942380D01*
X59291904Y-53942380D01*
X60815714Y-53942380D02*
X60244285Y-53942380D01*
X60530000Y-53942380D02*
X60530000Y-52942380D01*
X60434761Y-53085238D01*
X60339523Y-53180476D01*
X60244285Y-53228095D01*
X49291904Y-53942380D02*
X49291904Y-52942380D01*
X49530000Y-52942380D01*
X49672857Y-52990000D01*
X49768095Y-53085238D01*
X49815714Y-53180476D01*
X49863333Y-53370952D01*
X49863333Y-53513809D01*
X49815714Y-53704285D01*
X49768095Y-53799523D01*
X49672857Y-53894761D01*
X49530000Y-53942380D01*
X49291904Y-53942380D01*
X50815714Y-53942380D02*
X50244285Y-53942380D01*
X50530000Y-53942380D02*
X50530000Y-52942380D01*
X50434761Y-53085238D01*
X50339523Y-53180476D01*
X50244285Y-53228095D01*
X121702380Y-89761904D02*
X122511904Y-89761904D01*
X122607142Y-89714285D01*
X122654761Y-89666666D01*
X122702380Y-89571428D01*
X122702380Y-89380952D01*
X122654761Y-89285714D01*
X122607142Y-89238095D01*
X122511904Y-89190476D01*
X121702380Y-89190476D01*
X122702380Y-88190476D02*
X122702380Y-88761904D01*
X122702380Y-88476190D02*
X121702380Y-88476190D01*
X121845238Y-88571428D01*
X121940476Y-88666666D01*
X121988095Y-88761904D01*
X116752380Y-86916666D02*
X116276190Y-87250000D01*
X116752380Y-87488095D02*
X115752380Y-87488095D01*
X115752380Y-87107142D01*
X115800000Y-87011904D01*
X115847619Y-86964285D01*
X115942857Y-86916666D01*
X116085714Y-86916666D01*
X116180952Y-86964285D01*
X116228571Y-87011904D01*
X116276190Y-87107142D01*
X116276190Y-87488095D01*
X115752380Y-86583333D02*
X115752380Y-85964285D01*
X116133333Y-86297619D01*
X116133333Y-86154761D01*
X116180952Y-86059523D01*
X116228571Y-86011904D01*
X116323809Y-85964285D01*
X116561904Y-85964285D01*
X116657142Y-86011904D01*
X116704761Y-86059523D01*
X116752380Y-86154761D01*
X116752380Y-86440476D01*
X116704761Y-86535714D01*
X116657142Y-86583333D01*
X113602380Y-86866666D02*
X113126190Y-87200000D01*
X113602380Y-87438095D02*
X112602380Y-87438095D01*
X112602380Y-87057142D01*
X112650000Y-86961904D01*
X112697619Y-86914285D01*
X112792857Y-86866666D01*
X112935714Y-86866666D01*
X113030952Y-86914285D01*
X113078571Y-86961904D01*
X113126190Y-87057142D01*
X113126190Y-87438095D01*
X112697619Y-86485714D02*
X112650000Y-86438095D01*
X112602380Y-86342857D01*
X112602380Y-86104761D01*
X112650000Y-86009523D01*
X112697619Y-85961904D01*
X112792857Y-85914285D01*
X112888095Y-85914285D01*
X113030952Y-85961904D01*
X113602380Y-86533333D01*
X113602380Y-85914285D01*
X111902380Y-86866666D02*
X111426190Y-87200000D01*
X111902380Y-87438095D02*
X110902380Y-87438095D01*
X110902380Y-87057142D01*
X110950000Y-86961904D01*
X110997619Y-86914285D01*
X111092857Y-86866666D01*
X111235714Y-86866666D01*
X111330952Y-86914285D01*
X111378571Y-86961904D01*
X111426190Y-87057142D01*
X111426190Y-87438095D01*
X111902380Y-85914285D02*
X111902380Y-86485714D01*
X111902380Y-86200000D02*
X110902380Y-86200000D01*
X111045238Y-86295238D01*
X111140476Y-86390476D01*
X111188095Y-86485714D01*
X105066666Y-84902380D02*
X105066666Y-85616666D01*
X105019047Y-85759523D01*
X104923809Y-85854761D01*
X104780952Y-85902380D01*
X104685714Y-85902380D01*
X106066666Y-85902380D02*
X105495238Y-85902380D01*
X105780952Y-85902380D02*
X105780952Y-84902380D01*
X105685714Y-85045238D01*
X105590476Y-85140476D01*
X105495238Y-85188095D01*
X115057142Y-86866666D02*
X115104761Y-86914285D01*
X115152380Y-87057142D01*
X115152380Y-87152380D01*
X115104761Y-87295238D01*
X115009523Y-87390476D01*
X114914285Y-87438095D01*
X114723809Y-87485714D01*
X114580952Y-87485714D01*
X114390476Y-87438095D01*
X114295238Y-87390476D01*
X114200000Y-87295238D01*
X114152380Y-87152380D01*
X114152380Y-87057142D01*
X114200000Y-86914285D01*
X114247619Y-86866666D01*
X114247619Y-86485714D02*
X114200000Y-86438095D01*
X114152380Y-86342857D01*
X114152380Y-86104761D01*
X114200000Y-86009523D01*
X114247619Y-85961904D01*
X114342857Y-85914285D01*
X114438095Y-85914285D01*
X114580952Y-85961904D01*
X115152380Y-86533333D01*
X115152380Y-85914285D01*
X39291904Y-53942380D02*
X39291904Y-52942380D01*
X39530000Y-52942380D01*
X39672857Y-52990000D01*
X39768095Y-53085238D01*
X39815714Y-53180476D01*
X39863333Y-53370952D01*
X39863333Y-53513809D01*
X39815714Y-53704285D01*
X39768095Y-53799523D01*
X39672857Y-53894761D01*
X39530000Y-53942380D01*
X39291904Y-53942380D01*
X40815714Y-53942380D02*
X40244285Y-53942380D01*
X40530000Y-53942380D02*
X40530000Y-52942380D01*
X40434761Y-53085238D01*
X40339523Y-53180476D01*
X40244285Y-53228095D01*
X39291904Y-36942380D02*
X39291904Y-35942380D01*
X39530000Y-35942380D01*
X39672857Y-35990000D01*
X39768095Y-36085238D01*
X39815714Y-36180476D01*
X39863333Y-36370952D01*
X39863333Y-36513809D01*
X39815714Y-36704285D01*
X39768095Y-36799523D01*
X39672857Y-36894761D01*
X39530000Y-36942380D01*
X39291904Y-36942380D01*
X40815714Y-36942380D02*
X40244285Y-36942380D01*
X40530000Y-36942380D02*
X40530000Y-35942380D01*
X40434761Y-36085238D01*
X40339523Y-36180476D01*
X40244285Y-36228095D01*
X39863333Y-45487142D02*
X39815714Y-45534761D01*
X39672857Y-45582380D01*
X39577619Y-45582380D01*
X39434761Y-45534761D01*
X39339523Y-45439523D01*
X39291904Y-45344285D01*
X39244285Y-45153809D01*
X39244285Y-45010952D01*
X39291904Y-44820476D01*
X39339523Y-44725238D01*
X39434761Y-44630000D01*
X39577619Y-44582380D01*
X39672857Y-44582380D01*
X39815714Y-44630000D01*
X39863333Y-44677619D01*
X40815714Y-45582380D02*
X40244285Y-45582380D01*
X40530000Y-45582380D02*
X40530000Y-44582380D01*
X40434761Y-44725238D01*
X40339523Y-44820476D01*
X40244285Y-44868095D01*
M02*
