G04 #@! TF.GenerationSoftware,KiCad,Pcbnew,(5.1.5-0-10_14)*
G04 #@! TF.CreationDate,2020-04-22T23:35:31+01:00*
G04 #@! TF.ProjectId,Display,44697370-6c61-4792-9e6b-696361645f70,rev?*
G04 #@! TF.SameCoordinates,Original*
G04 #@! TF.FileFunction,Soldermask,Top*
G04 #@! TF.FilePolarity,Negative*
%FSLAX46Y46*%
G04 Gerber Fmt 4.6, Leading zero omitted, Abs format (unit mm)*
G04 Created by KiCad (PCBNEW (5.1.5-0-10_14)) date 2020-04-22 23:35:31*
%MOMM*%
%LPD*%
G04 APERTURE LIST*
%ADD10C,0.100000*%
G04 APERTURE END LIST*
D10*
G36*
X107733512Y-89603927D02*
G01*
X107882812Y-89633624D01*
X108046784Y-89701544D01*
X108194354Y-89800147D01*
X108319853Y-89925646D01*
X108418456Y-90073216D01*
X108486376Y-90237188D01*
X108521000Y-90411259D01*
X108521000Y-90588741D01*
X108486376Y-90762812D01*
X108418456Y-90926784D01*
X108319853Y-91074354D01*
X108194354Y-91199853D01*
X108046784Y-91298456D01*
X107882812Y-91366376D01*
X107733512Y-91396073D01*
X107708742Y-91401000D01*
X107531258Y-91401000D01*
X107506488Y-91396073D01*
X107357188Y-91366376D01*
X107193216Y-91298456D01*
X107045646Y-91199853D01*
X106920147Y-91074354D01*
X106821544Y-90926784D01*
X106753624Y-90762812D01*
X106719000Y-90588741D01*
X106719000Y-90411259D01*
X106753624Y-90237188D01*
X106821544Y-90073216D01*
X106920147Y-89925646D01*
X107045646Y-89800147D01*
X107193216Y-89701544D01*
X107357188Y-89633624D01*
X107506488Y-89603927D01*
X107531258Y-89599000D01*
X107708742Y-89599000D01*
X107733512Y-89603927D01*
G37*
G36*
X105193512Y-89603927D02*
G01*
X105342812Y-89633624D01*
X105506784Y-89701544D01*
X105654354Y-89800147D01*
X105779853Y-89925646D01*
X105878456Y-90073216D01*
X105946376Y-90237188D01*
X105981000Y-90411259D01*
X105981000Y-90588741D01*
X105946376Y-90762812D01*
X105878456Y-90926784D01*
X105779853Y-91074354D01*
X105654354Y-91199853D01*
X105506784Y-91298456D01*
X105342812Y-91366376D01*
X105193512Y-91396073D01*
X105168742Y-91401000D01*
X104991258Y-91401000D01*
X104966488Y-91396073D01*
X104817188Y-91366376D01*
X104653216Y-91298456D01*
X104505646Y-91199853D01*
X104380147Y-91074354D01*
X104281544Y-90926784D01*
X104213624Y-90762812D01*
X104179000Y-90588741D01*
X104179000Y-90411259D01*
X104213624Y-90237188D01*
X104281544Y-90073216D01*
X104380147Y-89925646D01*
X104505646Y-89800147D01*
X104653216Y-89701544D01*
X104817188Y-89633624D01*
X104966488Y-89603927D01*
X104991258Y-89599000D01*
X105168742Y-89599000D01*
X105193512Y-89603927D01*
G37*
G36*
X102653512Y-89603927D02*
G01*
X102802812Y-89633624D01*
X102966784Y-89701544D01*
X103114354Y-89800147D01*
X103239853Y-89925646D01*
X103338456Y-90073216D01*
X103406376Y-90237188D01*
X103441000Y-90411259D01*
X103441000Y-90588741D01*
X103406376Y-90762812D01*
X103338456Y-90926784D01*
X103239853Y-91074354D01*
X103114354Y-91199853D01*
X102966784Y-91298456D01*
X102802812Y-91366376D01*
X102653512Y-91396073D01*
X102628742Y-91401000D01*
X102451258Y-91401000D01*
X102426488Y-91396073D01*
X102277188Y-91366376D01*
X102113216Y-91298456D01*
X101965646Y-91199853D01*
X101840147Y-91074354D01*
X101741544Y-90926784D01*
X101673624Y-90762812D01*
X101639000Y-90588741D01*
X101639000Y-90411259D01*
X101673624Y-90237188D01*
X101741544Y-90073216D01*
X101840147Y-89925646D01*
X101965646Y-89800147D01*
X102113216Y-89701544D01*
X102277188Y-89633624D01*
X102426488Y-89603927D01*
X102451258Y-89599000D01*
X102628742Y-89599000D01*
X102653512Y-89603927D01*
G37*
G36*
X100901000Y-91401000D02*
G01*
X99099000Y-91401000D01*
X99099000Y-89599000D01*
X100901000Y-89599000D01*
X100901000Y-91401000D01*
G37*
G36*
X202227290Y-89025619D02*
G01*
X202291689Y-89038429D01*
X202473678Y-89113811D01*
X202637463Y-89223249D01*
X202776751Y-89362537D01*
X202886189Y-89526322D01*
X202958768Y-89701544D01*
X202961571Y-89708312D01*
X203000000Y-89901507D01*
X203000000Y-90098493D01*
X202989171Y-90152932D01*
X202961571Y-90291689D01*
X202886189Y-90473678D01*
X202776751Y-90637463D01*
X202637463Y-90776751D01*
X202473678Y-90886189D01*
X202291689Y-90961571D01*
X202227290Y-90974381D01*
X202098493Y-91000000D01*
X201901507Y-91000000D01*
X201772710Y-90974381D01*
X201708311Y-90961571D01*
X201526322Y-90886189D01*
X201362537Y-90776751D01*
X201223249Y-90637463D01*
X201113811Y-90473678D01*
X201038429Y-90291689D01*
X201010829Y-90152932D01*
X201000000Y-90098493D01*
X201000000Y-89901507D01*
X201038429Y-89708312D01*
X201041232Y-89701544D01*
X201113811Y-89526322D01*
X201223249Y-89362537D01*
X201362537Y-89223249D01*
X201526322Y-89113811D01*
X201708311Y-89038429D01*
X201772710Y-89025619D01*
X201901507Y-89000000D01*
X202098493Y-89000000D01*
X202227290Y-89025619D01*
G37*
G36*
X38227290Y-89025619D02*
G01*
X38291689Y-89038429D01*
X38473678Y-89113811D01*
X38637463Y-89223249D01*
X38776751Y-89362537D01*
X38886189Y-89526322D01*
X38958768Y-89701544D01*
X38961571Y-89708312D01*
X39000000Y-89901507D01*
X39000000Y-90098493D01*
X38989171Y-90152932D01*
X38961571Y-90291689D01*
X38886189Y-90473678D01*
X38776751Y-90637463D01*
X38637463Y-90776751D01*
X38473678Y-90886189D01*
X38291689Y-90961571D01*
X38227290Y-90974381D01*
X38098493Y-91000000D01*
X37901507Y-91000000D01*
X37772710Y-90974381D01*
X37708311Y-90961571D01*
X37526322Y-90886189D01*
X37362537Y-90776751D01*
X37223249Y-90637463D01*
X37113811Y-90473678D01*
X37038429Y-90291689D01*
X37010829Y-90152932D01*
X37000000Y-90098493D01*
X37000000Y-89901507D01*
X37038429Y-89708312D01*
X37041232Y-89701544D01*
X37113811Y-89526322D01*
X37223249Y-89362537D01*
X37362537Y-89223249D01*
X37526322Y-89113811D01*
X37708311Y-89038429D01*
X37772710Y-89025619D01*
X37901507Y-89000000D01*
X38098493Y-89000000D01*
X38227290Y-89025619D01*
G37*
G36*
X116679591Y-89503085D02*
G01*
X116713569Y-89513393D01*
X116744890Y-89530134D01*
X116772339Y-89552661D01*
X116794866Y-89580110D01*
X116811607Y-89611431D01*
X116821915Y-89645409D01*
X116826000Y-89686890D01*
X116826000Y-90288110D01*
X116821915Y-90329591D01*
X116811607Y-90363569D01*
X116794866Y-90394890D01*
X116772339Y-90422339D01*
X116744890Y-90444866D01*
X116713569Y-90461607D01*
X116679591Y-90471915D01*
X116638110Y-90476000D01*
X115961890Y-90476000D01*
X115920409Y-90471915D01*
X115886431Y-90461607D01*
X115855110Y-90444866D01*
X115827661Y-90422339D01*
X115805134Y-90394890D01*
X115788393Y-90363569D01*
X115778085Y-90329591D01*
X115774000Y-90288110D01*
X115774000Y-89686890D01*
X115778085Y-89645409D01*
X115788393Y-89611431D01*
X115805134Y-89580110D01*
X115827661Y-89552661D01*
X115855110Y-89530134D01*
X115886431Y-89513393D01*
X115920409Y-89503085D01*
X115961890Y-89499000D01*
X116638110Y-89499000D01*
X116679591Y-89503085D01*
G37*
G36*
X115079591Y-89503085D02*
G01*
X115113569Y-89513393D01*
X115144890Y-89530134D01*
X115172339Y-89552661D01*
X115194866Y-89580110D01*
X115211607Y-89611431D01*
X115221915Y-89645409D01*
X115226000Y-89686890D01*
X115226000Y-90288110D01*
X115221915Y-90329591D01*
X115211607Y-90363569D01*
X115194866Y-90394890D01*
X115172339Y-90422339D01*
X115144890Y-90444866D01*
X115113569Y-90461607D01*
X115079591Y-90471915D01*
X115038110Y-90476000D01*
X114361890Y-90476000D01*
X114320409Y-90471915D01*
X114286431Y-90461607D01*
X114255110Y-90444866D01*
X114227661Y-90422339D01*
X114205134Y-90394890D01*
X114188393Y-90363569D01*
X114178085Y-90329591D01*
X114174000Y-90288110D01*
X114174000Y-89686890D01*
X114178085Y-89645409D01*
X114188393Y-89611431D01*
X114205134Y-89580110D01*
X114227661Y-89552661D01*
X114255110Y-89530134D01*
X114286431Y-89513393D01*
X114320409Y-89503085D01*
X114361890Y-89499000D01*
X115038110Y-89499000D01*
X115079591Y-89503085D01*
G37*
G36*
X113479591Y-89503085D02*
G01*
X113513569Y-89513393D01*
X113544890Y-89530134D01*
X113572339Y-89552661D01*
X113594866Y-89580110D01*
X113611607Y-89611431D01*
X113621915Y-89645409D01*
X113626000Y-89686890D01*
X113626000Y-90288110D01*
X113621915Y-90329591D01*
X113611607Y-90363569D01*
X113594866Y-90394890D01*
X113572339Y-90422339D01*
X113544890Y-90444866D01*
X113513569Y-90461607D01*
X113479591Y-90471915D01*
X113438110Y-90476000D01*
X112761890Y-90476000D01*
X112720409Y-90471915D01*
X112686431Y-90461607D01*
X112655110Y-90444866D01*
X112627661Y-90422339D01*
X112605134Y-90394890D01*
X112588393Y-90363569D01*
X112578085Y-90329591D01*
X112574000Y-90288110D01*
X112574000Y-89686890D01*
X112578085Y-89645409D01*
X112588393Y-89611431D01*
X112605134Y-89580110D01*
X112627661Y-89552661D01*
X112655110Y-89530134D01*
X112686431Y-89513393D01*
X112720409Y-89503085D01*
X112761890Y-89499000D01*
X113438110Y-89499000D01*
X113479591Y-89503085D01*
G37*
G36*
X111879591Y-89503085D02*
G01*
X111913569Y-89513393D01*
X111944890Y-89530134D01*
X111972339Y-89552661D01*
X111994866Y-89580110D01*
X112011607Y-89611431D01*
X112021915Y-89645409D01*
X112026000Y-89686890D01*
X112026000Y-90288110D01*
X112021915Y-90329591D01*
X112011607Y-90363569D01*
X111994866Y-90394890D01*
X111972339Y-90422339D01*
X111944890Y-90444866D01*
X111913569Y-90461607D01*
X111879591Y-90471915D01*
X111838110Y-90476000D01*
X111161890Y-90476000D01*
X111120409Y-90471915D01*
X111086431Y-90461607D01*
X111055110Y-90444866D01*
X111027661Y-90422339D01*
X111005134Y-90394890D01*
X110988393Y-90363569D01*
X110978085Y-90329591D01*
X110974000Y-90288110D01*
X110974000Y-89686890D01*
X110978085Y-89645409D01*
X110988393Y-89611431D01*
X111005134Y-89580110D01*
X111027661Y-89552661D01*
X111055110Y-89530134D01*
X111086431Y-89513393D01*
X111120409Y-89503085D01*
X111161890Y-89499000D01*
X111838110Y-89499000D01*
X111879591Y-89503085D01*
G37*
G36*
X145379487Y-87748996D02*
G01*
X145616253Y-87847068D01*
X145616255Y-87847069D01*
X145737504Y-87928085D01*
X145829339Y-87989447D01*
X146010553Y-88170661D01*
X146152932Y-88383747D01*
X146251004Y-88620513D01*
X146301000Y-88871861D01*
X146301000Y-89128139D01*
X146251004Y-89379487D01*
X146171867Y-89570539D01*
X146152931Y-89616255D01*
X146010553Y-89829339D01*
X145829339Y-90010553D01*
X145616255Y-90152931D01*
X145616254Y-90152932D01*
X145616253Y-90152932D01*
X145379487Y-90251004D01*
X145128139Y-90301000D01*
X144871861Y-90301000D01*
X144620513Y-90251004D01*
X144383747Y-90152932D01*
X144383746Y-90152932D01*
X144383745Y-90152931D01*
X144170661Y-90010553D01*
X143989447Y-89829339D01*
X143847069Y-89616255D01*
X143828133Y-89570539D01*
X143748996Y-89379487D01*
X143699000Y-89128139D01*
X143699000Y-88871861D01*
X143748996Y-88620513D01*
X143847068Y-88383747D01*
X143989447Y-88170661D01*
X144170661Y-87989447D01*
X144262496Y-87928085D01*
X144383745Y-87847069D01*
X144383747Y-87847068D01*
X144620513Y-87748996D01*
X144871861Y-87699000D01*
X145128139Y-87699000D01*
X145379487Y-87748996D01*
G37*
G36*
X95379487Y-87748996D02*
G01*
X95616253Y-87847068D01*
X95616255Y-87847069D01*
X95737504Y-87928085D01*
X95829339Y-87989447D01*
X96010553Y-88170661D01*
X96152932Y-88383747D01*
X96251004Y-88620513D01*
X96301000Y-88871861D01*
X96301000Y-89128139D01*
X96251004Y-89379487D01*
X96171867Y-89570539D01*
X96152931Y-89616255D01*
X96010553Y-89829339D01*
X95829339Y-90010553D01*
X95616255Y-90152931D01*
X95616254Y-90152932D01*
X95616253Y-90152932D01*
X95379487Y-90251004D01*
X95128139Y-90301000D01*
X94871861Y-90301000D01*
X94620513Y-90251004D01*
X94383747Y-90152932D01*
X94383746Y-90152932D01*
X94383745Y-90152931D01*
X94170661Y-90010553D01*
X93989447Y-89829339D01*
X93847069Y-89616255D01*
X93828133Y-89570539D01*
X93748996Y-89379487D01*
X93699000Y-89128139D01*
X93699000Y-88871861D01*
X93748996Y-88620513D01*
X93847068Y-88383747D01*
X93989447Y-88170661D01*
X94170661Y-87989447D01*
X94262496Y-87928085D01*
X94383745Y-87847069D01*
X94383747Y-87847068D01*
X94620513Y-87748996D01*
X94871861Y-87699000D01*
X95128139Y-87699000D01*
X95379487Y-87748996D01*
G37*
G36*
X119601000Y-89851000D02*
G01*
X119099000Y-89851000D01*
X119099000Y-88149000D01*
X119601000Y-88149000D01*
X119601000Y-89851000D01*
G37*
G36*
X120901000Y-89851000D02*
G01*
X120399000Y-89851000D01*
X120399000Y-88149000D01*
X120901000Y-88149000D01*
X120901000Y-89851000D01*
G37*
G36*
X208375256Y-86391298D02*
G01*
X208481579Y-86412447D01*
X208782042Y-86536903D01*
X209052451Y-86717585D01*
X209282415Y-86947549D01*
X209282416Y-86947551D01*
X209463098Y-87217960D01*
X209587553Y-87518422D01*
X209651000Y-87837389D01*
X209651000Y-88162611D01*
X209639025Y-88222811D01*
X209587553Y-88481579D01*
X209463097Y-88782042D01*
X209282415Y-89052451D01*
X209052451Y-89282415D01*
X208782042Y-89463097D01*
X208481579Y-89587553D01*
X208424031Y-89599000D01*
X208162611Y-89651000D01*
X207837389Y-89651000D01*
X207575969Y-89599000D01*
X207518421Y-89587553D01*
X207217958Y-89463097D01*
X206947549Y-89282415D01*
X206717585Y-89052451D01*
X206536903Y-88782042D01*
X206412447Y-88481579D01*
X206360975Y-88222811D01*
X206349000Y-88162611D01*
X206349000Y-87837389D01*
X206412447Y-87518422D01*
X206536902Y-87217960D01*
X206717584Y-86947551D01*
X206717585Y-86947549D01*
X206947549Y-86717585D01*
X207217958Y-86536903D01*
X207518421Y-86412447D01*
X207624744Y-86391298D01*
X207837389Y-86349000D01*
X208162611Y-86349000D01*
X208375256Y-86391298D01*
G37*
G36*
X32375256Y-86391298D02*
G01*
X32481579Y-86412447D01*
X32782042Y-86536903D01*
X33052451Y-86717585D01*
X33282415Y-86947549D01*
X33282416Y-86947551D01*
X33463098Y-87217960D01*
X33587553Y-87518422D01*
X33651000Y-87837389D01*
X33651000Y-88162611D01*
X33639025Y-88222811D01*
X33587553Y-88481579D01*
X33463097Y-88782042D01*
X33282415Y-89052451D01*
X33052451Y-89282415D01*
X32782042Y-89463097D01*
X32481579Y-89587553D01*
X32424031Y-89599000D01*
X32162611Y-89651000D01*
X31837389Y-89651000D01*
X31575969Y-89599000D01*
X31518421Y-89587553D01*
X31217958Y-89463097D01*
X30947549Y-89282415D01*
X30717585Y-89052451D01*
X30536903Y-88782042D01*
X30412447Y-88481579D01*
X30360975Y-88222811D01*
X30349000Y-88162611D01*
X30349000Y-87837389D01*
X30412447Y-87518422D01*
X30536902Y-87217960D01*
X30717584Y-86947551D01*
X30717585Y-86947549D01*
X30947549Y-86717585D01*
X31217958Y-86536903D01*
X31518421Y-86412447D01*
X31624744Y-86391298D01*
X31837389Y-86349000D01*
X32162611Y-86349000D01*
X32375256Y-86391298D01*
G37*
G36*
X116679591Y-87928085D02*
G01*
X116713569Y-87938393D01*
X116744890Y-87955134D01*
X116772339Y-87977661D01*
X116794866Y-88005110D01*
X116811607Y-88036431D01*
X116821915Y-88070409D01*
X116826000Y-88111890D01*
X116826000Y-88713110D01*
X116821915Y-88754591D01*
X116811607Y-88788569D01*
X116794866Y-88819890D01*
X116772339Y-88847339D01*
X116744890Y-88869866D01*
X116713569Y-88886607D01*
X116679591Y-88896915D01*
X116638110Y-88901000D01*
X115961890Y-88901000D01*
X115920409Y-88896915D01*
X115886431Y-88886607D01*
X115855110Y-88869866D01*
X115827661Y-88847339D01*
X115805134Y-88819890D01*
X115788393Y-88788569D01*
X115778085Y-88754591D01*
X115774000Y-88713110D01*
X115774000Y-88111890D01*
X115778085Y-88070409D01*
X115788393Y-88036431D01*
X115805134Y-88005110D01*
X115827661Y-87977661D01*
X115855110Y-87955134D01*
X115886431Y-87938393D01*
X115920409Y-87928085D01*
X115961890Y-87924000D01*
X116638110Y-87924000D01*
X116679591Y-87928085D01*
G37*
G36*
X113479591Y-87928085D02*
G01*
X113513569Y-87938393D01*
X113544890Y-87955134D01*
X113572339Y-87977661D01*
X113594866Y-88005110D01*
X113611607Y-88036431D01*
X113621915Y-88070409D01*
X113626000Y-88111890D01*
X113626000Y-88713110D01*
X113621915Y-88754591D01*
X113611607Y-88788569D01*
X113594866Y-88819890D01*
X113572339Y-88847339D01*
X113544890Y-88869866D01*
X113513569Y-88886607D01*
X113479591Y-88896915D01*
X113438110Y-88901000D01*
X112761890Y-88901000D01*
X112720409Y-88896915D01*
X112686431Y-88886607D01*
X112655110Y-88869866D01*
X112627661Y-88847339D01*
X112605134Y-88819890D01*
X112588393Y-88788569D01*
X112578085Y-88754591D01*
X112574000Y-88713110D01*
X112574000Y-88111890D01*
X112578085Y-88070409D01*
X112588393Y-88036431D01*
X112605134Y-88005110D01*
X112627661Y-87977661D01*
X112655110Y-87955134D01*
X112686431Y-87938393D01*
X112720409Y-87928085D01*
X112761890Y-87924000D01*
X113438110Y-87924000D01*
X113479591Y-87928085D01*
G37*
G36*
X111879591Y-87928085D02*
G01*
X111913569Y-87938393D01*
X111944890Y-87955134D01*
X111972339Y-87977661D01*
X111994866Y-88005110D01*
X112011607Y-88036431D01*
X112021915Y-88070409D01*
X112026000Y-88111890D01*
X112026000Y-88713110D01*
X112021915Y-88754591D01*
X112011607Y-88788569D01*
X111994866Y-88819890D01*
X111972339Y-88847339D01*
X111944890Y-88869866D01*
X111913569Y-88886607D01*
X111879591Y-88896915D01*
X111838110Y-88901000D01*
X111161890Y-88901000D01*
X111120409Y-88896915D01*
X111086431Y-88886607D01*
X111055110Y-88869866D01*
X111027661Y-88847339D01*
X111005134Y-88819890D01*
X110988393Y-88788569D01*
X110978085Y-88754591D01*
X110974000Y-88713110D01*
X110974000Y-88111890D01*
X110978085Y-88070409D01*
X110988393Y-88036431D01*
X111005134Y-88005110D01*
X111027661Y-87977661D01*
X111055110Y-87955134D01*
X111086431Y-87938393D01*
X111120409Y-87928085D01*
X111161890Y-87924000D01*
X111838110Y-87924000D01*
X111879591Y-87928085D01*
G37*
G36*
X115079591Y-87928085D02*
G01*
X115113569Y-87938393D01*
X115144890Y-87955134D01*
X115172339Y-87977661D01*
X115194866Y-88005110D01*
X115211607Y-88036431D01*
X115221915Y-88070409D01*
X115226000Y-88111890D01*
X115226000Y-88713110D01*
X115221915Y-88754591D01*
X115211607Y-88788569D01*
X115194866Y-88819890D01*
X115172339Y-88847339D01*
X115144890Y-88869866D01*
X115113569Y-88886607D01*
X115079591Y-88896915D01*
X115038110Y-88901000D01*
X114361890Y-88901000D01*
X114320409Y-88896915D01*
X114286431Y-88886607D01*
X114255110Y-88869866D01*
X114227661Y-88847339D01*
X114205134Y-88819890D01*
X114188393Y-88788569D01*
X114178085Y-88754591D01*
X114174000Y-88713110D01*
X114174000Y-88111890D01*
X114178085Y-88070409D01*
X114188393Y-88036431D01*
X114205134Y-88005110D01*
X114227661Y-87977661D01*
X114255110Y-87955134D01*
X114286431Y-87938393D01*
X114320409Y-87928085D01*
X114361890Y-87924000D01*
X115038110Y-87924000D01*
X115079591Y-87928085D01*
G37*
G36*
X105193512Y-87063927D02*
G01*
X105342812Y-87093624D01*
X105506784Y-87161544D01*
X105654354Y-87260147D01*
X105779853Y-87385646D01*
X105878456Y-87533216D01*
X105946376Y-87697188D01*
X105981000Y-87871259D01*
X105981000Y-88048741D01*
X105946376Y-88222812D01*
X105878456Y-88386784D01*
X105779853Y-88534354D01*
X105654354Y-88659853D01*
X105506784Y-88758456D01*
X105342812Y-88826376D01*
X105193512Y-88856073D01*
X105168742Y-88861000D01*
X104991258Y-88861000D01*
X104966488Y-88856073D01*
X104817188Y-88826376D01*
X104653216Y-88758456D01*
X104505646Y-88659853D01*
X104380147Y-88534354D01*
X104281544Y-88386784D01*
X104213624Y-88222812D01*
X104179000Y-88048741D01*
X104179000Y-87871259D01*
X104213624Y-87697188D01*
X104281544Y-87533216D01*
X104380147Y-87385646D01*
X104505646Y-87260147D01*
X104653216Y-87161544D01*
X104817188Y-87093624D01*
X104966488Y-87063927D01*
X104991258Y-87059000D01*
X105168742Y-87059000D01*
X105193512Y-87063927D01*
G37*
G36*
X107733512Y-87063927D02*
G01*
X107882812Y-87093624D01*
X108046784Y-87161544D01*
X108194354Y-87260147D01*
X108319853Y-87385646D01*
X108418456Y-87533216D01*
X108486376Y-87697188D01*
X108521000Y-87871259D01*
X108521000Y-88048741D01*
X108486376Y-88222812D01*
X108418456Y-88386784D01*
X108319853Y-88534354D01*
X108194354Y-88659853D01*
X108046784Y-88758456D01*
X107882812Y-88826376D01*
X107733512Y-88856073D01*
X107708742Y-88861000D01*
X107531258Y-88861000D01*
X107506488Y-88856073D01*
X107357188Y-88826376D01*
X107193216Y-88758456D01*
X107045646Y-88659853D01*
X106920147Y-88534354D01*
X106821544Y-88386784D01*
X106753624Y-88222812D01*
X106719000Y-88048741D01*
X106719000Y-87871259D01*
X106753624Y-87697188D01*
X106821544Y-87533216D01*
X106920147Y-87385646D01*
X107045646Y-87260147D01*
X107193216Y-87161544D01*
X107357188Y-87093624D01*
X107506488Y-87063927D01*
X107531258Y-87059000D01*
X107708742Y-87059000D01*
X107733512Y-87063927D01*
G37*
G36*
X100113512Y-87063927D02*
G01*
X100262812Y-87093624D01*
X100426784Y-87161544D01*
X100574354Y-87260147D01*
X100699853Y-87385646D01*
X100798456Y-87533216D01*
X100866376Y-87697188D01*
X100901000Y-87871259D01*
X100901000Y-88048741D01*
X100866376Y-88222812D01*
X100798456Y-88386784D01*
X100699853Y-88534354D01*
X100574354Y-88659853D01*
X100426784Y-88758456D01*
X100262812Y-88826376D01*
X100113512Y-88856073D01*
X100088742Y-88861000D01*
X99911258Y-88861000D01*
X99886488Y-88856073D01*
X99737188Y-88826376D01*
X99573216Y-88758456D01*
X99425646Y-88659853D01*
X99300147Y-88534354D01*
X99201544Y-88386784D01*
X99133624Y-88222812D01*
X99099000Y-88048741D01*
X99099000Y-87871259D01*
X99133624Y-87697188D01*
X99201544Y-87533216D01*
X99300147Y-87385646D01*
X99425646Y-87260147D01*
X99573216Y-87161544D01*
X99737188Y-87093624D01*
X99886488Y-87063927D01*
X99911258Y-87059000D01*
X100088742Y-87059000D01*
X100113512Y-87063927D01*
G37*
G36*
X102653512Y-87063927D02*
G01*
X102802812Y-87093624D01*
X102966784Y-87161544D01*
X103114354Y-87260147D01*
X103239853Y-87385646D01*
X103338456Y-87533216D01*
X103406376Y-87697188D01*
X103441000Y-87871259D01*
X103441000Y-88048741D01*
X103406376Y-88222812D01*
X103338456Y-88386784D01*
X103239853Y-88534354D01*
X103114354Y-88659853D01*
X102966784Y-88758456D01*
X102802812Y-88826376D01*
X102653512Y-88856073D01*
X102628742Y-88861000D01*
X102451258Y-88861000D01*
X102426488Y-88856073D01*
X102277188Y-88826376D01*
X102113216Y-88758456D01*
X101965646Y-88659853D01*
X101840147Y-88534354D01*
X101741544Y-88386784D01*
X101673624Y-88222812D01*
X101639000Y-88048741D01*
X101639000Y-87871259D01*
X101673624Y-87697188D01*
X101741544Y-87533216D01*
X101840147Y-87385646D01*
X101965646Y-87260147D01*
X102113216Y-87161544D01*
X102277188Y-87093624D01*
X102426488Y-87063927D01*
X102451258Y-87059000D01*
X102628742Y-87059000D01*
X102653512Y-87063927D01*
G37*
G36*
X139584591Y-83178085D02*
G01*
X139618569Y-83188393D01*
X139649890Y-83205134D01*
X139677339Y-83227661D01*
X139699866Y-83255110D01*
X139716607Y-83286431D01*
X139726915Y-83320409D01*
X139731000Y-83361890D01*
X139731000Y-84038110D01*
X139726915Y-84079591D01*
X139716607Y-84113569D01*
X139699866Y-84144890D01*
X139677339Y-84172339D01*
X139649890Y-84194866D01*
X139618569Y-84211607D01*
X139584591Y-84221915D01*
X139543110Y-84226000D01*
X138941890Y-84226000D01*
X138900409Y-84221915D01*
X138866431Y-84211607D01*
X138835110Y-84194866D01*
X138807661Y-84172339D01*
X138785134Y-84144890D01*
X138768393Y-84113569D01*
X138758085Y-84079591D01*
X138754000Y-84038110D01*
X138754000Y-83361890D01*
X138758085Y-83320409D01*
X138768393Y-83286431D01*
X138785134Y-83255110D01*
X138807661Y-83227661D01*
X138835110Y-83205134D01*
X138866431Y-83188393D01*
X138900409Y-83178085D01*
X138941890Y-83174000D01*
X139543110Y-83174000D01*
X139584591Y-83178085D01*
G37*
G36*
X121159591Y-83178085D02*
G01*
X121193569Y-83188393D01*
X121224890Y-83205134D01*
X121252339Y-83227661D01*
X121274866Y-83255110D01*
X121291607Y-83286431D01*
X121301915Y-83320409D01*
X121306000Y-83361890D01*
X121306000Y-84038110D01*
X121301915Y-84079591D01*
X121291607Y-84113569D01*
X121274866Y-84144890D01*
X121252339Y-84172339D01*
X121224890Y-84194866D01*
X121193569Y-84211607D01*
X121159591Y-84221915D01*
X121118110Y-84226000D01*
X120516890Y-84226000D01*
X120475409Y-84221915D01*
X120441431Y-84211607D01*
X120410110Y-84194866D01*
X120382661Y-84172339D01*
X120360134Y-84144890D01*
X120343393Y-84113569D01*
X120333085Y-84079591D01*
X120329000Y-84038110D01*
X120329000Y-83361890D01*
X120333085Y-83320409D01*
X120343393Y-83286431D01*
X120360134Y-83255110D01*
X120382661Y-83227661D01*
X120410110Y-83205134D01*
X120441431Y-83188393D01*
X120475409Y-83178085D01*
X120516890Y-83174000D01*
X121118110Y-83174000D01*
X121159591Y-83178085D01*
G37*
G36*
X119584591Y-83178085D02*
G01*
X119618569Y-83188393D01*
X119649890Y-83205134D01*
X119677339Y-83227661D01*
X119699866Y-83255110D01*
X119716607Y-83286431D01*
X119726915Y-83320409D01*
X119731000Y-83361890D01*
X119731000Y-84038110D01*
X119726915Y-84079591D01*
X119716607Y-84113569D01*
X119699866Y-84144890D01*
X119677339Y-84172339D01*
X119649890Y-84194866D01*
X119618569Y-84211607D01*
X119584591Y-84221915D01*
X119543110Y-84226000D01*
X118941890Y-84226000D01*
X118900409Y-84221915D01*
X118866431Y-84211607D01*
X118835110Y-84194866D01*
X118807661Y-84172339D01*
X118785134Y-84144890D01*
X118768393Y-84113569D01*
X118758085Y-84079591D01*
X118754000Y-84038110D01*
X118754000Y-83361890D01*
X118758085Y-83320409D01*
X118768393Y-83286431D01*
X118785134Y-83255110D01*
X118807661Y-83227661D01*
X118835110Y-83205134D01*
X118866431Y-83188393D01*
X118900409Y-83178085D01*
X118941890Y-83174000D01*
X119543110Y-83174000D01*
X119584591Y-83178085D01*
G37*
G36*
X101159591Y-83178085D02*
G01*
X101193569Y-83188393D01*
X101224890Y-83205134D01*
X101252339Y-83227661D01*
X101274866Y-83255110D01*
X101291607Y-83286431D01*
X101301915Y-83320409D01*
X101306000Y-83361890D01*
X101306000Y-84038110D01*
X101301915Y-84079591D01*
X101291607Y-84113569D01*
X101274866Y-84144890D01*
X101252339Y-84172339D01*
X101224890Y-84194866D01*
X101193569Y-84211607D01*
X101159591Y-84221915D01*
X101118110Y-84226000D01*
X100516890Y-84226000D01*
X100475409Y-84221915D01*
X100441431Y-84211607D01*
X100410110Y-84194866D01*
X100382661Y-84172339D01*
X100360134Y-84144890D01*
X100343393Y-84113569D01*
X100333085Y-84079591D01*
X100329000Y-84038110D01*
X100329000Y-83361890D01*
X100333085Y-83320409D01*
X100343393Y-83286431D01*
X100360134Y-83255110D01*
X100382661Y-83227661D01*
X100410110Y-83205134D01*
X100441431Y-83188393D01*
X100475409Y-83178085D01*
X100516890Y-83174000D01*
X101118110Y-83174000D01*
X101159591Y-83178085D01*
G37*
G36*
X99584591Y-83178085D02*
G01*
X99618569Y-83188393D01*
X99649890Y-83205134D01*
X99677339Y-83227661D01*
X99699866Y-83255110D01*
X99716607Y-83286431D01*
X99726915Y-83320409D01*
X99731000Y-83361890D01*
X99731000Y-84038110D01*
X99726915Y-84079591D01*
X99716607Y-84113569D01*
X99699866Y-84144890D01*
X99677339Y-84172339D01*
X99649890Y-84194866D01*
X99618569Y-84211607D01*
X99584591Y-84221915D01*
X99543110Y-84226000D01*
X98941890Y-84226000D01*
X98900409Y-84221915D01*
X98866431Y-84211607D01*
X98835110Y-84194866D01*
X98807661Y-84172339D01*
X98785134Y-84144890D01*
X98768393Y-84113569D01*
X98758085Y-84079591D01*
X98754000Y-84038110D01*
X98754000Y-83361890D01*
X98758085Y-83320409D01*
X98768393Y-83286431D01*
X98785134Y-83255110D01*
X98807661Y-83227661D01*
X98835110Y-83205134D01*
X98866431Y-83188393D01*
X98900409Y-83178085D01*
X98941890Y-83174000D01*
X99543110Y-83174000D01*
X99584591Y-83178085D01*
G37*
G36*
X81159591Y-83178085D02*
G01*
X81193569Y-83188393D01*
X81224890Y-83205134D01*
X81252339Y-83227661D01*
X81274866Y-83255110D01*
X81291607Y-83286431D01*
X81301915Y-83320409D01*
X81306000Y-83361890D01*
X81306000Y-84038110D01*
X81301915Y-84079591D01*
X81291607Y-84113569D01*
X81274866Y-84144890D01*
X81252339Y-84172339D01*
X81224890Y-84194866D01*
X81193569Y-84211607D01*
X81159591Y-84221915D01*
X81118110Y-84226000D01*
X80516890Y-84226000D01*
X80475409Y-84221915D01*
X80441431Y-84211607D01*
X80410110Y-84194866D01*
X80382661Y-84172339D01*
X80360134Y-84144890D01*
X80343393Y-84113569D01*
X80333085Y-84079591D01*
X80329000Y-84038110D01*
X80329000Y-83361890D01*
X80333085Y-83320409D01*
X80343393Y-83286431D01*
X80360134Y-83255110D01*
X80382661Y-83227661D01*
X80410110Y-83205134D01*
X80441431Y-83188393D01*
X80475409Y-83178085D01*
X80516890Y-83174000D01*
X81118110Y-83174000D01*
X81159591Y-83178085D01*
G37*
G36*
X79584591Y-83178085D02*
G01*
X79618569Y-83188393D01*
X79649890Y-83205134D01*
X79677339Y-83227661D01*
X79699866Y-83255110D01*
X79716607Y-83286431D01*
X79726915Y-83320409D01*
X79731000Y-83361890D01*
X79731000Y-84038110D01*
X79726915Y-84079591D01*
X79716607Y-84113569D01*
X79699866Y-84144890D01*
X79677339Y-84172339D01*
X79649890Y-84194866D01*
X79618569Y-84211607D01*
X79584591Y-84221915D01*
X79543110Y-84226000D01*
X78941890Y-84226000D01*
X78900409Y-84221915D01*
X78866431Y-84211607D01*
X78835110Y-84194866D01*
X78807661Y-84172339D01*
X78785134Y-84144890D01*
X78768393Y-84113569D01*
X78758085Y-84079591D01*
X78754000Y-84038110D01*
X78754000Y-83361890D01*
X78758085Y-83320409D01*
X78768393Y-83286431D01*
X78785134Y-83255110D01*
X78807661Y-83227661D01*
X78835110Y-83205134D01*
X78866431Y-83188393D01*
X78900409Y-83178085D01*
X78941890Y-83174000D01*
X79543110Y-83174000D01*
X79584591Y-83178085D01*
G37*
G36*
X61159591Y-83178085D02*
G01*
X61193569Y-83188393D01*
X61224890Y-83205134D01*
X61252339Y-83227661D01*
X61274866Y-83255110D01*
X61291607Y-83286431D01*
X61301915Y-83320409D01*
X61306000Y-83361890D01*
X61306000Y-84038110D01*
X61301915Y-84079591D01*
X61291607Y-84113569D01*
X61274866Y-84144890D01*
X61252339Y-84172339D01*
X61224890Y-84194866D01*
X61193569Y-84211607D01*
X61159591Y-84221915D01*
X61118110Y-84226000D01*
X60516890Y-84226000D01*
X60475409Y-84221915D01*
X60441431Y-84211607D01*
X60410110Y-84194866D01*
X60382661Y-84172339D01*
X60360134Y-84144890D01*
X60343393Y-84113569D01*
X60333085Y-84079591D01*
X60329000Y-84038110D01*
X60329000Y-83361890D01*
X60333085Y-83320409D01*
X60343393Y-83286431D01*
X60360134Y-83255110D01*
X60382661Y-83227661D01*
X60410110Y-83205134D01*
X60441431Y-83188393D01*
X60475409Y-83178085D01*
X60516890Y-83174000D01*
X61118110Y-83174000D01*
X61159591Y-83178085D01*
G37*
G36*
X59584591Y-83178085D02*
G01*
X59618569Y-83188393D01*
X59649890Y-83205134D01*
X59677339Y-83227661D01*
X59699866Y-83255110D01*
X59716607Y-83286431D01*
X59726915Y-83320409D01*
X59731000Y-83361890D01*
X59731000Y-84038110D01*
X59726915Y-84079591D01*
X59716607Y-84113569D01*
X59699866Y-84144890D01*
X59677339Y-84172339D01*
X59649890Y-84194866D01*
X59618569Y-84211607D01*
X59584591Y-84221915D01*
X59543110Y-84226000D01*
X58941890Y-84226000D01*
X58900409Y-84221915D01*
X58866431Y-84211607D01*
X58835110Y-84194866D01*
X58807661Y-84172339D01*
X58785134Y-84144890D01*
X58768393Y-84113569D01*
X58758085Y-84079591D01*
X58754000Y-84038110D01*
X58754000Y-83361890D01*
X58758085Y-83320409D01*
X58768393Y-83286431D01*
X58785134Y-83255110D01*
X58807661Y-83227661D01*
X58835110Y-83205134D01*
X58866431Y-83188393D01*
X58900409Y-83178085D01*
X58941890Y-83174000D01*
X59543110Y-83174000D01*
X59584591Y-83178085D01*
G37*
G36*
X41159591Y-83178085D02*
G01*
X41193569Y-83188393D01*
X41224890Y-83205134D01*
X41252339Y-83227661D01*
X41274866Y-83255110D01*
X41291607Y-83286431D01*
X41301915Y-83320409D01*
X41306000Y-83361890D01*
X41306000Y-84038110D01*
X41301915Y-84079591D01*
X41291607Y-84113569D01*
X41274866Y-84144890D01*
X41252339Y-84172339D01*
X41224890Y-84194866D01*
X41193569Y-84211607D01*
X41159591Y-84221915D01*
X41118110Y-84226000D01*
X40516890Y-84226000D01*
X40475409Y-84221915D01*
X40441431Y-84211607D01*
X40410110Y-84194866D01*
X40382661Y-84172339D01*
X40360134Y-84144890D01*
X40343393Y-84113569D01*
X40333085Y-84079591D01*
X40329000Y-84038110D01*
X40329000Y-83361890D01*
X40333085Y-83320409D01*
X40343393Y-83286431D01*
X40360134Y-83255110D01*
X40382661Y-83227661D01*
X40410110Y-83205134D01*
X40441431Y-83188393D01*
X40475409Y-83178085D01*
X40516890Y-83174000D01*
X41118110Y-83174000D01*
X41159591Y-83178085D01*
G37*
G36*
X39584591Y-83178085D02*
G01*
X39618569Y-83188393D01*
X39649890Y-83205134D01*
X39677339Y-83227661D01*
X39699866Y-83255110D01*
X39716607Y-83286431D01*
X39726915Y-83320409D01*
X39731000Y-83361890D01*
X39731000Y-84038110D01*
X39726915Y-84079591D01*
X39716607Y-84113569D01*
X39699866Y-84144890D01*
X39677339Y-84172339D01*
X39649890Y-84194866D01*
X39618569Y-84211607D01*
X39584591Y-84221915D01*
X39543110Y-84226000D01*
X38941890Y-84226000D01*
X38900409Y-84221915D01*
X38866431Y-84211607D01*
X38835110Y-84194866D01*
X38807661Y-84172339D01*
X38785134Y-84144890D01*
X38768393Y-84113569D01*
X38758085Y-84079591D01*
X38754000Y-84038110D01*
X38754000Y-83361890D01*
X38758085Y-83320409D01*
X38768393Y-83286431D01*
X38785134Y-83255110D01*
X38807661Y-83227661D01*
X38835110Y-83205134D01*
X38866431Y-83188393D01*
X38900409Y-83178085D01*
X38941890Y-83174000D01*
X39543110Y-83174000D01*
X39584591Y-83178085D01*
G37*
G36*
X141159591Y-83178085D02*
G01*
X141193569Y-83188393D01*
X141224890Y-83205134D01*
X141252339Y-83227661D01*
X141274866Y-83255110D01*
X141291607Y-83286431D01*
X141301915Y-83320409D01*
X141306000Y-83361890D01*
X141306000Y-84038110D01*
X141301915Y-84079591D01*
X141291607Y-84113569D01*
X141274866Y-84144890D01*
X141252339Y-84172339D01*
X141224890Y-84194866D01*
X141193569Y-84211607D01*
X141159591Y-84221915D01*
X141118110Y-84226000D01*
X140516890Y-84226000D01*
X140475409Y-84221915D01*
X140441431Y-84211607D01*
X140410110Y-84194866D01*
X140382661Y-84172339D01*
X140360134Y-84144890D01*
X140343393Y-84113569D01*
X140333085Y-84079591D01*
X140329000Y-84038110D01*
X140329000Y-83361890D01*
X140333085Y-83320409D01*
X140343393Y-83286431D01*
X140360134Y-83255110D01*
X140382661Y-83227661D01*
X140410110Y-83205134D01*
X140441431Y-83188393D01*
X140475409Y-83178085D01*
X140516890Y-83174000D01*
X141118110Y-83174000D01*
X141159591Y-83178085D01*
G37*
G36*
X179584591Y-83178085D02*
G01*
X179618569Y-83188393D01*
X179649890Y-83205134D01*
X179677339Y-83227661D01*
X179699866Y-83255110D01*
X179716607Y-83286431D01*
X179726915Y-83320409D01*
X179731000Y-83361890D01*
X179731000Y-84038110D01*
X179726915Y-84079591D01*
X179716607Y-84113569D01*
X179699866Y-84144890D01*
X179677339Y-84172339D01*
X179649890Y-84194866D01*
X179618569Y-84211607D01*
X179584591Y-84221915D01*
X179543110Y-84226000D01*
X178941890Y-84226000D01*
X178900409Y-84221915D01*
X178866431Y-84211607D01*
X178835110Y-84194866D01*
X178807661Y-84172339D01*
X178785134Y-84144890D01*
X178768393Y-84113569D01*
X178758085Y-84079591D01*
X178754000Y-84038110D01*
X178754000Y-83361890D01*
X178758085Y-83320409D01*
X178768393Y-83286431D01*
X178785134Y-83255110D01*
X178807661Y-83227661D01*
X178835110Y-83205134D01*
X178866431Y-83188393D01*
X178900409Y-83178085D01*
X178941890Y-83174000D01*
X179543110Y-83174000D01*
X179584591Y-83178085D01*
G37*
G36*
X201159591Y-83178085D02*
G01*
X201193569Y-83188393D01*
X201224890Y-83205134D01*
X201252339Y-83227661D01*
X201274866Y-83255110D01*
X201291607Y-83286431D01*
X201301915Y-83320409D01*
X201306000Y-83361890D01*
X201306000Y-84038110D01*
X201301915Y-84079591D01*
X201291607Y-84113569D01*
X201274866Y-84144890D01*
X201252339Y-84172339D01*
X201224890Y-84194866D01*
X201193569Y-84211607D01*
X201159591Y-84221915D01*
X201118110Y-84226000D01*
X200516890Y-84226000D01*
X200475409Y-84221915D01*
X200441431Y-84211607D01*
X200410110Y-84194866D01*
X200382661Y-84172339D01*
X200360134Y-84144890D01*
X200343393Y-84113569D01*
X200333085Y-84079591D01*
X200329000Y-84038110D01*
X200329000Y-83361890D01*
X200333085Y-83320409D01*
X200343393Y-83286431D01*
X200360134Y-83255110D01*
X200382661Y-83227661D01*
X200410110Y-83205134D01*
X200441431Y-83188393D01*
X200475409Y-83178085D01*
X200516890Y-83174000D01*
X201118110Y-83174000D01*
X201159591Y-83178085D01*
G37*
G36*
X199584591Y-83178085D02*
G01*
X199618569Y-83188393D01*
X199649890Y-83205134D01*
X199677339Y-83227661D01*
X199699866Y-83255110D01*
X199716607Y-83286431D01*
X199726915Y-83320409D01*
X199731000Y-83361890D01*
X199731000Y-84038110D01*
X199726915Y-84079591D01*
X199716607Y-84113569D01*
X199699866Y-84144890D01*
X199677339Y-84172339D01*
X199649890Y-84194866D01*
X199618569Y-84211607D01*
X199584591Y-84221915D01*
X199543110Y-84226000D01*
X198941890Y-84226000D01*
X198900409Y-84221915D01*
X198866431Y-84211607D01*
X198835110Y-84194866D01*
X198807661Y-84172339D01*
X198785134Y-84144890D01*
X198768393Y-84113569D01*
X198758085Y-84079591D01*
X198754000Y-84038110D01*
X198754000Y-83361890D01*
X198758085Y-83320409D01*
X198768393Y-83286431D01*
X198785134Y-83255110D01*
X198807661Y-83227661D01*
X198835110Y-83205134D01*
X198866431Y-83188393D01*
X198900409Y-83178085D01*
X198941890Y-83174000D01*
X199543110Y-83174000D01*
X199584591Y-83178085D01*
G37*
G36*
X181159591Y-83178085D02*
G01*
X181193569Y-83188393D01*
X181224890Y-83205134D01*
X181252339Y-83227661D01*
X181274866Y-83255110D01*
X181291607Y-83286431D01*
X181301915Y-83320409D01*
X181306000Y-83361890D01*
X181306000Y-84038110D01*
X181301915Y-84079591D01*
X181291607Y-84113569D01*
X181274866Y-84144890D01*
X181252339Y-84172339D01*
X181224890Y-84194866D01*
X181193569Y-84211607D01*
X181159591Y-84221915D01*
X181118110Y-84226000D01*
X180516890Y-84226000D01*
X180475409Y-84221915D01*
X180441431Y-84211607D01*
X180410110Y-84194866D01*
X180382661Y-84172339D01*
X180360134Y-84144890D01*
X180343393Y-84113569D01*
X180333085Y-84079591D01*
X180329000Y-84038110D01*
X180329000Y-83361890D01*
X180333085Y-83320409D01*
X180343393Y-83286431D01*
X180360134Y-83255110D01*
X180382661Y-83227661D01*
X180410110Y-83205134D01*
X180441431Y-83188393D01*
X180475409Y-83178085D01*
X180516890Y-83174000D01*
X181118110Y-83174000D01*
X181159591Y-83178085D01*
G37*
G36*
X161159591Y-83178085D02*
G01*
X161193569Y-83188393D01*
X161224890Y-83205134D01*
X161252339Y-83227661D01*
X161274866Y-83255110D01*
X161291607Y-83286431D01*
X161301915Y-83320409D01*
X161306000Y-83361890D01*
X161306000Y-84038110D01*
X161301915Y-84079591D01*
X161291607Y-84113569D01*
X161274866Y-84144890D01*
X161252339Y-84172339D01*
X161224890Y-84194866D01*
X161193569Y-84211607D01*
X161159591Y-84221915D01*
X161118110Y-84226000D01*
X160516890Y-84226000D01*
X160475409Y-84221915D01*
X160441431Y-84211607D01*
X160410110Y-84194866D01*
X160382661Y-84172339D01*
X160360134Y-84144890D01*
X160343393Y-84113569D01*
X160333085Y-84079591D01*
X160329000Y-84038110D01*
X160329000Y-83361890D01*
X160333085Y-83320409D01*
X160343393Y-83286431D01*
X160360134Y-83255110D01*
X160382661Y-83227661D01*
X160410110Y-83205134D01*
X160441431Y-83188393D01*
X160475409Y-83178085D01*
X160516890Y-83174000D01*
X161118110Y-83174000D01*
X161159591Y-83178085D01*
G37*
G36*
X159584591Y-83178085D02*
G01*
X159618569Y-83188393D01*
X159649890Y-83205134D01*
X159677339Y-83227661D01*
X159699866Y-83255110D01*
X159716607Y-83286431D01*
X159726915Y-83320409D01*
X159731000Y-83361890D01*
X159731000Y-84038110D01*
X159726915Y-84079591D01*
X159716607Y-84113569D01*
X159699866Y-84144890D01*
X159677339Y-84172339D01*
X159649890Y-84194866D01*
X159618569Y-84211607D01*
X159584591Y-84221915D01*
X159543110Y-84226000D01*
X158941890Y-84226000D01*
X158900409Y-84221915D01*
X158866431Y-84211607D01*
X158835110Y-84194866D01*
X158807661Y-84172339D01*
X158785134Y-84144890D01*
X158768393Y-84113569D01*
X158758085Y-84079591D01*
X158754000Y-84038110D01*
X158754000Y-83361890D01*
X158758085Y-83320409D01*
X158768393Y-83286431D01*
X158785134Y-83255110D01*
X158807661Y-83227661D01*
X158835110Y-83205134D01*
X158866431Y-83188393D01*
X158900409Y-83178085D01*
X158941890Y-83174000D01*
X159543110Y-83174000D01*
X159584591Y-83178085D01*
G37*
G36*
X198681000Y-82291000D02*
G01*
X196579000Y-82291000D01*
X196579000Y-81089000D01*
X198681000Y-81089000D01*
X198681000Y-82291000D01*
G37*
G36*
X163481000Y-82291000D02*
G01*
X161379000Y-82291000D01*
X161379000Y-81089000D01*
X163481000Y-81089000D01*
X163481000Y-82291000D01*
G37*
G36*
X203481000Y-82291000D02*
G01*
X201379000Y-82291000D01*
X201379000Y-81089000D01*
X203481000Y-81089000D01*
X203481000Y-82291000D01*
G37*
G36*
X38681000Y-82291000D02*
G01*
X36579000Y-82291000D01*
X36579000Y-81089000D01*
X38681000Y-81089000D01*
X38681000Y-82291000D01*
G37*
G36*
X43481000Y-82291000D02*
G01*
X41379000Y-82291000D01*
X41379000Y-81089000D01*
X43481000Y-81089000D01*
X43481000Y-82291000D01*
G37*
G36*
X48681000Y-82291000D02*
G01*
X46579000Y-82291000D01*
X46579000Y-81089000D01*
X48681000Y-81089000D01*
X48681000Y-82291000D01*
G37*
G36*
X53481000Y-82291000D02*
G01*
X51379000Y-82291000D01*
X51379000Y-81089000D01*
X53481000Y-81089000D01*
X53481000Y-82291000D01*
G37*
G36*
X58681000Y-82291000D02*
G01*
X56579000Y-82291000D01*
X56579000Y-81089000D01*
X58681000Y-81089000D01*
X58681000Y-82291000D01*
G37*
G36*
X63481000Y-82291000D02*
G01*
X61379000Y-82291000D01*
X61379000Y-81089000D01*
X63481000Y-81089000D01*
X63481000Y-82291000D01*
G37*
G36*
X68681000Y-82291000D02*
G01*
X66579000Y-82291000D01*
X66579000Y-81089000D01*
X68681000Y-81089000D01*
X68681000Y-82291000D01*
G37*
G36*
X73481000Y-82291000D02*
G01*
X71379000Y-82291000D01*
X71379000Y-81089000D01*
X73481000Y-81089000D01*
X73481000Y-82291000D01*
G37*
G36*
X78681000Y-82291000D02*
G01*
X76579000Y-82291000D01*
X76579000Y-81089000D01*
X78681000Y-81089000D01*
X78681000Y-82291000D01*
G37*
G36*
X83481000Y-82291000D02*
G01*
X81379000Y-82291000D01*
X81379000Y-81089000D01*
X83481000Y-81089000D01*
X83481000Y-82291000D01*
G37*
G36*
X88681000Y-82291000D02*
G01*
X86579000Y-82291000D01*
X86579000Y-81089000D01*
X88681000Y-81089000D01*
X88681000Y-82291000D01*
G37*
G36*
X93481000Y-82291000D02*
G01*
X91379000Y-82291000D01*
X91379000Y-81089000D01*
X93481000Y-81089000D01*
X93481000Y-82291000D01*
G37*
G36*
X98681000Y-82291000D02*
G01*
X96579000Y-82291000D01*
X96579000Y-81089000D01*
X98681000Y-81089000D01*
X98681000Y-82291000D01*
G37*
G36*
X103481000Y-82291000D02*
G01*
X101379000Y-82291000D01*
X101379000Y-81089000D01*
X103481000Y-81089000D01*
X103481000Y-82291000D01*
G37*
G36*
X113481000Y-82291000D02*
G01*
X111379000Y-82291000D01*
X111379000Y-81089000D01*
X113481000Y-81089000D01*
X113481000Y-82291000D01*
G37*
G36*
X108681000Y-82291000D02*
G01*
X106579000Y-82291000D01*
X106579000Y-81089000D01*
X108681000Y-81089000D01*
X108681000Y-82291000D01*
G37*
G36*
X123481000Y-82291000D02*
G01*
X121379000Y-82291000D01*
X121379000Y-81089000D01*
X123481000Y-81089000D01*
X123481000Y-82291000D01*
G37*
G36*
X118681000Y-82291000D02*
G01*
X116579000Y-82291000D01*
X116579000Y-81089000D01*
X118681000Y-81089000D01*
X118681000Y-82291000D01*
G37*
G36*
X133481000Y-82291000D02*
G01*
X131379000Y-82291000D01*
X131379000Y-81089000D01*
X133481000Y-81089000D01*
X133481000Y-82291000D01*
G37*
G36*
X128681000Y-82291000D02*
G01*
X126579000Y-82291000D01*
X126579000Y-81089000D01*
X128681000Y-81089000D01*
X128681000Y-82291000D01*
G37*
G36*
X143481000Y-82291000D02*
G01*
X141379000Y-82291000D01*
X141379000Y-81089000D01*
X143481000Y-81089000D01*
X143481000Y-82291000D01*
G37*
G36*
X138681000Y-82291000D02*
G01*
X136579000Y-82291000D01*
X136579000Y-81089000D01*
X138681000Y-81089000D01*
X138681000Y-82291000D01*
G37*
G36*
X153481000Y-82291000D02*
G01*
X151379000Y-82291000D01*
X151379000Y-81089000D01*
X153481000Y-81089000D01*
X153481000Y-82291000D01*
G37*
G36*
X148681000Y-82291000D02*
G01*
X146579000Y-82291000D01*
X146579000Y-81089000D01*
X148681000Y-81089000D01*
X148681000Y-82291000D01*
G37*
G36*
X158681000Y-82291000D02*
G01*
X156579000Y-82291000D01*
X156579000Y-81089000D01*
X158681000Y-81089000D01*
X158681000Y-82291000D01*
G37*
G36*
X173481000Y-82291000D02*
G01*
X171379000Y-82291000D01*
X171379000Y-81089000D01*
X173481000Y-81089000D01*
X173481000Y-82291000D01*
G37*
G36*
X168681000Y-82291000D02*
G01*
X166579000Y-82291000D01*
X166579000Y-81089000D01*
X168681000Y-81089000D01*
X168681000Y-82291000D01*
G37*
G36*
X183481000Y-82291000D02*
G01*
X181379000Y-82291000D01*
X181379000Y-81089000D01*
X183481000Y-81089000D01*
X183481000Y-82291000D01*
G37*
G36*
X178681000Y-82291000D02*
G01*
X176579000Y-82291000D01*
X176579000Y-81089000D01*
X178681000Y-81089000D01*
X178681000Y-82291000D01*
G37*
G36*
X193481000Y-82291000D02*
G01*
X191379000Y-82291000D01*
X191379000Y-81089000D01*
X193481000Y-81089000D01*
X193481000Y-82291000D01*
G37*
G36*
X188681000Y-82291000D02*
G01*
X186579000Y-82291000D01*
X186579000Y-81089000D01*
X188681000Y-81089000D01*
X188681000Y-82291000D01*
G37*
G36*
X138681000Y-80591000D02*
G01*
X136579000Y-80591000D01*
X136579000Y-79389000D01*
X138681000Y-79389000D01*
X138681000Y-80591000D01*
G37*
G36*
X98681000Y-80591000D02*
G01*
X96579000Y-80591000D01*
X96579000Y-79389000D01*
X98681000Y-79389000D01*
X98681000Y-80591000D01*
G37*
G36*
X153481000Y-80591000D02*
G01*
X151379000Y-80591000D01*
X151379000Y-79389000D01*
X153481000Y-79389000D01*
X153481000Y-80591000D01*
G37*
G36*
X158681000Y-80591000D02*
G01*
X156579000Y-80591000D01*
X156579000Y-79389000D01*
X158681000Y-79389000D01*
X158681000Y-80591000D01*
G37*
G36*
X163481000Y-80591000D02*
G01*
X161379000Y-80591000D01*
X161379000Y-79389000D01*
X163481000Y-79389000D01*
X163481000Y-80591000D01*
G37*
G36*
X168681000Y-80591000D02*
G01*
X166579000Y-80591000D01*
X166579000Y-79389000D01*
X168681000Y-79389000D01*
X168681000Y-80591000D01*
G37*
G36*
X173481000Y-80591000D02*
G01*
X171379000Y-80591000D01*
X171379000Y-79389000D01*
X173481000Y-79389000D01*
X173481000Y-80591000D01*
G37*
G36*
X178681000Y-80591000D02*
G01*
X176579000Y-80591000D01*
X176579000Y-79389000D01*
X178681000Y-79389000D01*
X178681000Y-80591000D01*
G37*
G36*
X198681000Y-80591000D02*
G01*
X196579000Y-80591000D01*
X196579000Y-79389000D01*
X198681000Y-79389000D01*
X198681000Y-80591000D01*
G37*
G36*
X183481000Y-80591000D02*
G01*
X181379000Y-80591000D01*
X181379000Y-79389000D01*
X183481000Y-79389000D01*
X183481000Y-80591000D01*
G37*
G36*
X188681000Y-80591000D02*
G01*
X186579000Y-80591000D01*
X186579000Y-79389000D01*
X188681000Y-79389000D01*
X188681000Y-80591000D01*
G37*
G36*
X203481000Y-80591000D02*
G01*
X201379000Y-80591000D01*
X201379000Y-79389000D01*
X203481000Y-79389000D01*
X203481000Y-80591000D01*
G37*
G36*
X193481000Y-80591000D02*
G01*
X191379000Y-80591000D01*
X191379000Y-79389000D01*
X193481000Y-79389000D01*
X193481000Y-80591000D01*
G37*
G36*
X133481000Y-80591000D02*
G01*
X131379000Y-80591000D01*
X131379000Y-79389000D01*
X133481000Y-79389000D01*
X133481000Y-80591000D01*
G37*
G36*
X128681000Y-80591000D02*
G01*
X126579000Y-80591000D01*
X126579000Y-79389000D01*
X128681000Y-79389000D01*
X128681000Y-80591000D01*
G37*
G36*
X123481000Y-80591000D02*
G01*
X121379000Y-80591000D01*
X121379000Y-79389000D01*
X123481000Y-79389000D01*
X123481000Y-80591000D01*
G37*
G36*
X118681000Y-80591000D02*
G01*
X116579000Y-80591000D01*
X116579000Y-79389000D01*
X118681000Y-79389000D01*
X118681000Y-80591000D01*
G37*
G36*
X113481000Y-80591000D02*
G01*
X111379000Y-80591000D01*
X111379000Y-79389000D01*
X113481000Y-79389000D01*
X113481000Y-80591000D01*
G37*
G36*
X108681000Y-80591000D02*
G01*
X106579000Y-80591000D01*
X106579000Y-79389000D01*
X108681000Y-79389000D01*
X108681000Y-80591000D01*
G37*
G36*
X103481000Y-80591000D02*
G01*
X101379000Y-80591000D01*
X101379000Y-79389000D01*
X103481000Y-79389000D01*
X103481000Y-80591000D01*
G37*
G36*
X93481000Y-80591000D02*
G01*
X91379000Y-80591000D01*
X91379000Y-79389000D01*
X93481000Y-79389000D01*
X93481000Y-80591000D01*
G37*
G36*
X88681000Y-80591000D02*
G01*
X86579000Y-80591000D01*
X86579000Y-79389000D01*
X88681000Y-79389000D01*
X88681000Y-80591000D01*
G37*
G36*
X143481000Y-80591000D02*
G01*
X141379000Y-80591000D01*
X141379000Y-79389000D01*
X143481000Y-79389000D01*
X143481000Y-80591000D01*
G37*
G36*
X83481000Y-80591000D02*
G01*
X81379000Y-80591000D01*
X81379000Y-79389000D01*
X83481000Y-79389000D01*
X83481000Y-80591000D01*
G37*
G36*
X78681000Y-80591000D02*
G01*
X76579000Y-80591000D01*
X76579000Y-79389000D01*
X78681000Y-79389000D01*
X78681000Y-80591000D01*
G37*
G36*
X73481000Y-80591000D02*
G01*
X71379000Y-80591000D01*
X71379000Y-79389000D01*
X73481000Y-79389000D01*
X73481000Y-80591000D01*
G37*
G36*
X68681000Y-80591000D02*
G01*
X66579000Y-80591000D01*
X66579000Y-79389000D01*
X68681000Y-79389000D01*
X68681000Y-80591000D01*
G37*
G36*
X148681000Y-80591000D02*
G01*
X146579000Y-80591000D01*
X146579000Y-79389000D01*
X148681000Y-79389000D01*
X148681000Y-80591000D01*
G37*
G36*
X43481000Y-80591000D02*
G01*
X41379000Y-80591000D01*
X41379000Y-79389000D01*
X43481000Y-79389000D01*
X43481000Y-80591000D01*
G37*
G36*
X63481000Y-80591000D02*
G01*
X61379000Y-80591000D01*
X61379000Y-79389000D01*
X63481000Y-79389000D01*
X63481000Y-80591000D01*
G37*
G36*
X58681000Y-80591000D02*
G01*
X56579000Y-80591000D01*
X56579000Y-79389000D01*
X58681000Y-79389000D01*
X58681000Y-80591000D01*
G37*
G36*
X38681000Y-80591000D02*
G01*
X36579000Y-80591000D01*
X36579000Y-79389000D01*
X38681000Y-79389000D01*
X38681000Y-80591000D01*
G37*
G36*
X53481000Y-80591000D02*
G01*
X51379000Y-80591000D01*
X51379000Y-79389000D01*
X53481000Y-79389000D01*
X53481000Y-80591000D01*
G37*
G36*
X48681000Y-80591000D02*
G01*
X46579000Y-80591000D01*
X46579000Y-79389000D01*
X48681000Y-79389000D01*
X48681000Y-80591000D01*
G37*
G36*
X98681000Y-78891000D02*
G01*
X96579000Y-78891000D01*
X96579000Y-77689000D01*
X98681000Y-77689000D01*
X98681000Y-78891000D01*
G37*
G36*
X168681000Y-78891000D02*
G01*
X166579000Y-78891000D01*
X166579000Y-77689000D01*
X168681000Y-77689000D01*
X168681000Y-78891000D01*
G37*
G36*
X173481000Y-78891000D02*
G01*
X171379000Y-78891000D01*
X171379000Y-77689000D01*
X173481000Y-77689000D01*
X173481000Y-78891000D01*
G37*
G36*
X113481000Y-78891000D02*
G01*
X111379000Y-78891000D01*
X111379000Y-77689000D01*
X113481000Y-77689000D01*
X113481000Y-78891000D01*
G37*
G36*
X103481000Y-78891000D02*
G01*
X101379000Y-78891000D01*
X101379000Y-77689000D01*
X103481000Y-77689000D01*
X103481000Y-78891000D01*
G37*
G36*
X88681000Y-78891000D02*
G01*
X86579000Y-78891000D01*
X86579000Y-77689000D01*
X88681000Y-77689000D01*
X88681000Y-78891000D01*
G37*
G36*
X163481000Y-78891000D02*
G01*
X161379000Y-78891000D01*
X161379000Y-77689000D01*
X163481000Y-77689000D01*
X163481000Y-78891000D01*
G37*
G36*
X178681000Y-78891000D02*
G01*
X176579000Y-78891000D01*
X176579000Y-77689000D01*
X178681000Y-77689000D01*
X178681000Y-78891000D01*
G37*
G36*
X183481000Y-78891000D02*
G01*
X181379000Y-78891000D01*
X181379000Y-77689000D01*
X183481000Y-77689000D01*
X183481000Y-78891000D01*
G37*
G36*
X158681000Y-78891000D02*
G01*
X156579000Y-78891000D01*
X156579000Y-77689000D01*
X158681000Y-77689000D01*
X158681000Y-78891000D01*
G37*
G36*
X93481000Y-78891000D02*
G01*
X91379000Y-78891000D01*
X91379000Y-77689000D01*
X93481000Y-77689000D01*
X93481000Y-78891000D01*
G37*
G36*
X78681000Y-78891000D02*
G01*
X76579000Y-78891000D01*
X76579000Y-77689000D01*
X78681000Y-77689000D01*
X78681000Y-78891000D01*
G37*
G36*
X108681000Y-78891000D02*
G01*
X106579000Y-78891000D01*
X106579000Y-77689000D01*
X108681000Y-77689000D01*
X108681000Y-78891000D01*
G37*
G36*
X188681000Y-78891000D02*
G01*
X186579000Y-78891000D01*
X186579000Y-77689000D01*
X188681000Y-77689000D01*
X188681000Y-78891000D01*
G37*
G36*
X193481000Y-78891000D02*
G01*
X191379000Y-78891000D01*
X191379000Y-77689000D01*
X193481000Y-77689000D01*
X193481000Y-78891000D01*
G37*
G36*
X123481000Y-78891000D02*
G01*
X121379000Y-78891000D01*
X121379000Y-77689000D01*
X123481000Y-77689000D01*
X123481000Y-78891000D01*
G37*
G36*
X83481000Y-78891000D02*
G01*
X81379000Y-78891000D01*
X81379000Y-77689000D01*
X83481000Y-77689000D01*
X83481000Y-78891000D01*
G37*
G36*
X68681000Y-78891000D02*
G01*
X66579000Y-78891000D01*
X66579000Y-77689000D01*
X68681000Y-77689000D01*
X68681000Y-78891000D01*
G37*
G36*
X153481000Y-78891000D02*
G01*
X151379000Y-78891000D01*
X151379000Y-77689000D01*
X153481000Y-77689000D01*
X153481000Y-78891000D01*
G37*
G36*
X198681000Y-78891000D02*
G01*
X196579000Y-78891000D01*
X196579000Y-77689000D01*
X198681000Y-77689000D01*
X198681000Y-78891000D01*
G37*
G36*
X203481000Y-78891000D02*
G01*
X201379000Y-78891000D01*
X201379000Y-77689000D01*
X203481000Y-77689000D01*
X203481000Y-78891000D01*
G37*
G36*
X148681000Y-78891000D02*
G01*
X146579000Y-78891000D01*
X146579000Y-77689000D01*
X148681000Y-77689000D01*
X148681000Y-78891000D01*
G37*
G36*
X73481000Y-78891000D02*
G01*
X71379000Y-78891000D01*
X71379000Y-77689000D01*
X73481000Y-77689000D01*
X73481000Y-78891000D01*
G37*
G36*
X58681000Y-78891000D02*
G01*
X56579000Y-78891000D01*
X56579000Y-77689000D01*
X58681000Y-77689000D01*
X58681000Y-78891000D01*
G37*
G36*
X118681000Y-78891000D02*
G01*
X116579000Y-78891000D01*
X116579000Y-77689000D01*
X118681000Y-77689000D01*
X118681000Y-78891000D01*
G37*
G36*
X133481000Y-78891000D02*
G01*
X131379000Y-78891000D01*
X131379000Y-77689000D01*
X133481000Y-77689000D01*
X133481000Y-78891000D01*
G37*
G36*
X143481000Y-78891000D02*
G01*
X141379000Y-78891000D01*
X141379000Y-77689000D01*
X143481000Y-77689000D01*
X143481000Y-78891000D01*
G37*
G36*
X138681000Y-78891000D02*
G01*
X136579000Y-78891000D01*
X136579000Y-77689000D01*
X138681000Y-77689000D01*
X138681000Y-78891000D01*
G37*
G36*
X63481000Y-78891000D02*
G01*
X61379000Y-78891000D01*
X61379000Y-77689000D01*
X63481000Y-77689000D01*
X63481000Y-78891000D01*
G37*
G36*
X48681000Y-78891000D02*
G01*
X46579000Y-78891000D01*
X46579000Y-77689000D01*
X48681000Y-77689000D01*
X48681000Y-78891000D01*
G37*
G36*
X128681000Y-78891000D02*
G01*
X126579000Y-78891000D01*
X126579000Y-77689000D01*
X128681000Y-77689000D01*
X128681000Y-78891000D01*
G37*
G36*
X53481000Y-78891000D02*
G01*
X51379000Y-78891000D01*
X51379000Y-77689000D01*
X53481000Y-77689000D01*
X53481000Y-78891000D01*
G37*
G36*
X38681000Y-78891000D02*
G01*
X36579000Y-78891000D01*
X36579000Y-77689000D01*
X38681000Y-77689000D01*
X38681000Y-78891000D01*
G37*
G36*
X43481000Y-78891000D02*
G01*
X41379000Y-78891000D01*
X41379000Y-77689000D01*
X43481000Y-77689000D01*
X43481000Y-78891000D01*
G37*
G36*
X73481000Y-72291000D02*
G01*
X71379000Y-72291000D01*
X71379000Y-71089000D01*
X73481000Y-71089000D01*
X73481000Y-72291000D01*
G37*
G36*
X103481000Y-72291000D02*
G01*
X101379000Y-72291000D01*
X101379000Y-71089000D01*
X103481000Y-71089000D01*
X103481000Y-72291000D01*
G37*
G36*
X203481000Y-72291000D02*
G01*
X201379000Y-72291000D01*
X201379000Y-71089000D01*
X203481000Y-71089000D01*
X203481000Y-72291000D01*
G37*
G36*
X198681000Y-72291000D02*
G01*
X196579000Y-72291000D01*
X196579000Y-71089000D01*
X198681000Y-71089000D01*
X198681000Y-72291000D01*
G37*
G36*
X193481000Y-72291000D02*
G01*
X191379000Y-72291000D01*
X191379000Y-71089000D01*
X193481000Y-71089000D01*
X193481000Y-72291000D01*
G37*
G36*
X188681000Y-72291000D02*
G01*
X186579000Y-72291000D01*
X186579000Y-71089000D01*
X188681000Y-71089000D01*
X188681000Y-72291000D01*
G37*
G36*
X183481000Y-72291000D02*
G01*
X181379000Y-72291000D01*
X181379000Y-71089000D01*
X183481000Y-71089000D01*
X183481000Y-72291000D01*
G37*
G36*
X178681000Y-72291000D02*
G01*
X176579000Y-72291000D01*
X176579000Y-71089000D01*
X178681000Y-71089000D01*
X178681000Y-72291000D01*
G37*
G36*
X173481000Y-72291000D02*
G01*
X171379000Y-72291000D01*
X171379000Y-71089000D01*
X173481000Y-71089000D01*
X173481000Y-72291000D01*
G37*
G36*
X168681000Y-72291000D02*
G01*
X166579000Y-72291000D01*
X166579000Y-71089000D01*
X168681000Y-71089000D01*
X168681000Y-72291000D01*
G37*
G36*
X163481000Y-72291000D02*
G01*
X161379000Y-72291000D01*
X161379000Y-71089000D01*
X163481000Y-71089000D01*
X163481000Y-72291000D01*
G37*
G36*
X158681000Y-72291000D02*
G01*
X156579000Y-72291000D01*
X156579000Y-71089000D01*
X158681000Y-71089000D01*
X158681000Y-72291000D01*
G37*
G36*
X153481000Y-72291000D02*
G01*
X151379000Y-72291000D01*
X151379000Y-71089000D01*
X153481000Y-71089000D01*
X153481000Y-72291000D01*
G37*
G36*
X148681000Y-72291000D02*
G01*
X146579000Y-72291000D01*
X146579000Y-71089000D01*
X148681000Y-71089000D01*
X148681000Y-72291000D01*
G37*
G36*
X143481000Y-72291000D02*
G01*
X141379000Y-72291000D01*
X141379000Y-71089000D01*
X143481000Y-71089000D01*
X143481000Y-72291000D01*
G37*
G36*
X138681000Y-72291000D02*
G01*
X136579000Y-72291000D01*
X136579000Y-71089000D01*
X138681000Y-71089000D01*
X138681000Y-72291000D01*
G37*
G36*
X133481000Y-72291000D02*
G01*
X131379000Y-72291000D01*
X131379000Y-71089000D01*
X133481000Y-71089000D01*
X133481000Y-72291000D01*
G37*
G36*
X128681000Y-72291000D02*
G01*
X126579000Y-72291000D01*
X126579000Y-71089000D01*
X128681000Y-71089000D01*
X128681000Y-72291000D01*
G37*
G36*
X123481000Y-72291000D02*
G01*
X121379000Y-72291000D01*
X121379000Y-71089000D01*
X123481000Y-71089000D01*
X123481000Y-72291000D01*
G37*
G36*
X118681000Y-72291000D02*
G01*
X116579000Y-72291000D01*
X116579000Y-71089000D01*
X118681000Y-71089000D01*
X118681000Y-72291000D01*
G37*
G36*
X113481000Y-72291000D02*
G01*
X111379000Y-72291000D01*
X111379000Y-71089000D01*
X113481000Y-71089000D01*
X113481000Y-72291000D01*
G37*
G36*
X98681000Y-72291000D02*
G01*
X96579000Y-72291000D01*
X96579000Y-71089000D01*
X98681000Y-71089000D01*
X98681000Y-72291000D01*
G37*
G36*
X93481000Y-72291000D02*
G01*
X91379000Y-72291000D01*
X91379000Y-71089000D01*
X93481000Y-71089000D01*
X93481000Y-72291000D01*
G37*
G36*
X88681000Y-72291000D02*
G01*
X86579000Y-72291000D01*
X86579000Y-71089000D01*
X88681000Y-71089000D01*
X88681000Y-72291000D01*
G37*
G36*
X83481000Y-72291000D02*
G01*
X81379000Y-72291000D01*
X81379000Y-71089000D01*
X83481000Y-71089000D01*
X83481000Y-72291000D01*
G37*
G36*
X78681000Y-72291000D02*
G01*
X76579000Y-72291000D01*
X76579000Y-71089000D01*
X78681000Y-71089000D01*
X78681000Y-72291000D01*
G37*
G36*
X43481000Y-72291000D02*
G01*
X41379000Y-72291000D01*
X41379000Y-71089000D01*
X43481000Y-71089000D01*
X43481000Y-72291000D01*
G37*
G36*
X68681000Y-72291000D02*
G01*
X66579000Y-72291000D01*
X66579000Y-71089000D01*
X68681000Y-71089000D01*
X68681000Y-72291000D01*
G37*
G36*
X38681000Y-72291000D02*
G01*
X36579000Y-72291000D01*
X36579000Y-71089000D01*
X38681000Y-71089000D01*
X38681000Y-72291000D01*
G37*
G36*
X53481000Y-72291000D02*
G01*
X51379000Y-72291000D01*
X51379000Y-71089000D01*
X53481000Y-71089000D01*
X53481000Y-72291000D01*
G37*
G36*
X63481000Y-72291000D02*
G01*
X61379000Y-72291000D01*
X61379000Y-71089000D01*
X63481000Y-71089000D01*
X63481000Y-72291000D01*
G37*
G36*
X58681000Y-72291000D02*
G01*
X56579000Y-72291000D01*
X56579000Y-71089000D01*
X58681000Y-71089000D01*
X58681000Y-72291000D01*
G37*
G36*
X48681000Y-72291000D02*
G01*
X46579000Y-72291000D01*
X46579000Y-71089000D01*
X48681000Y-71089000D01*
X48681000Y-72291000D01*
G37*
G36*
X108681000Y-72291000D02*
G01*
X106579000Y-72291000D01*
X106579000Y-71089000D01*
X108681000Y-71089000D01*
X108681000Y-72291000D01*
G37*
G36*
X88681000Y-70591000D02*
G01*
X86579000Y-70591000D01*
X86579000Y-69389000D01*
X88681000Y-69389000D01*
X88681000Y-70591000D01*
G37*
G36*
X103481000Y-70591000D02*
G01*
X101379000Y-70591000D01*
X101379000Y-69389000D01*
X103481000Y-69389000D01*
X103481000Y-70591000D01*
G37*
G36*
X163481000Y-70591000D02*
G01*
X161379000Y-70591000D01*
X161379000Y-69389000D01*
X163481000Y-69389000D01*
X163481000Y-70591000D01*
G37*
G36*
X168681000Y-70591000D02*
G01*
X166579000Y-70591000D01*
X166579000Y-69389000D01*
X168681000Y-69389000D01*
X168681000Y-70591000D01*
G37*
G36*
X98681000Y-70591000D02*
G01*
X96579000Y-70591000D01*
X96579000Y-69389000D01*
X98681000Y-69389000D01*
X98681000Y-70591000D01*
G37*
G36*
X158681000Y-70591000D02*
G01*
X156579000Y-70591000D01*
X156579000Y-69389000D01*
X158681000Y-69389000D01*
X158681000Y-70591000D01*
G37*
G36*
X153481000Y-70591000D02*
G01*
X151379000Y-70591000D01*
X151379000Y-69389000D01*
X153481000Y-69389000D01*
X153481000Y-70591000D01*
G37*
G36*
X113481000Y-70591000D02*
G01*
X111379000Y-70591000D01*
X111379000Y-69389000D01*
X113481000Y-69389000D01*
X113481000Y-70591000D01*
G37*
G36*
X173481000Y-70591000D02*
G01*
X171379000Y-70591000D01*
X171379000Y-69389000D01*
X173481000Y-69389000D01*
X173481000Y-70591000D01*
G37*
G36*
X178681000Y-70591000D02*
G01*
X176579000Y-70591000D01*
X176579000Y-69389000D01*
X178681000Y-69389000D01*
X178681000Y-70591000D01*
G37*
G36*
X108681000Y-70591000D02*
G01*
X106579000Y-70591000D01*
X106579000Y-69389000D01*
X108681000Y-69389000D01*
X108681000Y-70591000D01*
G37*
G36*
X93481000Y-70591000D02*
G01*
X91379000Y-70591000D01*
X91379000Y-69389000D01*
X93481000Y-69389000D01*
X93481000Y-70591000D01*
G37*
G36*
X78681000Y-70591000D02*
G01*
X76579000Y-70591000D01*
X76579000Y-69389000D01*
X78681000Y-69389000D01*
X78681000Y-70591000D01*
G37*
G36*
X123481000Y-70591000D02*
G01*
X121379000Y-70591000D01*
X121379000Y-69389000D01*
X123481000Y-69389000D01*
X123481000Y-70591000D01*
G37*
G36*
X183481000Y-70591000D02*
G01*
X181379000Y-70591000D01*
X181379000Y-69389000D01*
X183481000Y-69389000D01*
X183481000Y-70591000D01*
G37*
G36*
X188681000Y-70591000D02*
G01*
X186579000Y-70591000D01*
X186579000Y-69389000D01*
X188681000Y-69389000D01*
X188681000Y-70591000D01*
G37*
G36*
X118681000Y-70591000D02*
G01*
X116579000Y-70591000D01*
X116579000Y-69389000D01*
X118681000Y-69389000D01*
X118681000Y-70591000D01*
G37*
G36*
X148681000Y-70591000D02*
G01*
X146579000Y-70591000D01*
X146579000Y-69389000D01*
X148681000Y-69389000D01*
X148681000Y-70591000D01*
G37*
G36*
X143481000Y-70591000D02*
G01*
X141379000Y-70591000D01*
X141379000Y-69389000D01*
X143481000Y-69389000D01*
X143481000Y-70591000D01*
G37*
G36*
X133481000Y-70591000D02*
G01*
X131379000Y-70591000D01*
X131379000Y-69389000D01*
X133481000Y-69389000D01*
X133481000Y-70591000D01*
G37*
G36*
X193481000Y-70591000D02*
G01*
X191379000Y-70591000D01*
X191379000Y-69389000D01*
X193481000Y-69389000D01*
X193481000Y-70591000D01*
G37*
G36*
X198681000Y-70591000D02*
G01*
X196579000Y-70591000D01*
X196579000Y-69389000D01*
X198681000Y-69389000D01*
X198681000Y-70591000D01*
G37*
G36*
X128681000Y-70591000D02*
G01*
X126579000Y-70591000D01*
X126579000Y-69389000D01*
X128681000Y-69389000D01*
X128681000Y-70591000D01*
G37*
G36*
X83481000Y-70591000D02*
G01*
X81379000Y-70591000D01*
X81379000Y-69389000D01*
X83481000Y-69389000D01*
X83481000Y-70591000D01*
G37*
G36*
X68681000Y-70591000D02*
G01*
X66579000Y-70591000D01*
X66579000Y-69389000D01*
X68681000Y-69389000D01*
X68681000Y-70591000D01*
G37*
G36*
X203481000Y-70591000D02*
G01*
X201379000Y-70591000D01*
X201379000Y-69389000D01*
X203481000Y-69389000D01*
X203481000Y-70591000D01*
G37*
G36*
X138681000Y-70591000D02*
G01*
X136579000Y-70591000D01*
X136579000Y-69389000D01*
X138681000Y-69389000D01*
X138681000Y-70591000D01*
G37*
G36*
X73481000Y-70591000D02*
G01*
X71379000Y-70591000D01*
X71379000Y-69389000D01*
X73481000Y-69389000D01*
X73481000Y-70591000D01*
G37*
G36*
X58681000Y-70591000D02*
G01*
X56579000Y-70591000D01*
X56579000Y-69389000D01*
X58681000Y-69389000D01*
X58681000Y-70591000D01*
G37*
G36*
X63481000Y-70591000D02*
G01*
X61379000Y-70591000D01*
X61379000Y-69389000D01*
X63481000Y-69389000D01*
X63481000Y-70591000D01*
G37*
G36*
X48681000Y-70591000D02*
G01*
X46579000Y-70591000D01*
X46579000Y-69389000D01*
X48681000Y-69389000D01*
X48681000Y-70591000D01*
G37*
G36*
X38681000Y-70591000D02*
G01*
X36579000Y-70591000D01*
X36579000Y-69389000D01*
X38681000Y-69389000D01*
X38681000Y-70591000D01*
G37*
G36*
X53481000Y-70591000D02*
G01*
X51379000Y-70591000D01*
X51379000Y-69389000D01*
X53481000Y-69389000D01*
X53481000Y-70591000D01*
G37*
G36*
X43481000Y-70591000D02*
G01*
X41379000Y-70591000D01*
X41379000Y-69389000D01*
X43481000Y-69389000D01*
X43481000Y-70591000D01*
G37*
G36*
X183481000Y-68891000D02*
G01*
X181379000Y-68891000D01*
X181379000Y-67689000D01*
X183481000Y-67689000D01*
X183481000Y-68891000D01*
G37*
G36*
X43481000Y-68891000D02*
G01*
X41379000Y-68891000D01*
X41379000Y-67689000D01*
X43481000Y-67689000D01*
X43481000Y-68891000D01*
G37*
G36*
X38681000Y-68891000D02*
G01*
X36579000Y-68891000D01*
X36579000Y-67689000D01*
X38681000Y-67689000D01*
X38681000Y-68891000D01*
G37*
G36*
X198681000Y-68891000D02*
G01*
X196579000Y-68891000D01*
X196579000Y-67689000D01*
X198681000Y-67689000D01*
X198681000Y-68891000D01*
G37*
G36*
X203481000Y-68891000D02*
G01*
X201379000Y-68891000D01*
X201379000Y-67689000D01*
X203481000Y-67689000D01*
X203481000Y-68891000D01*
G37*
G36*
X188681000Y-68891000D02*
G01*
X186579000Y-68891000D01*
X186579000Y-67689000D01*
X188681000Y-67689000D01*
X188681000Y-68891000D01*
G37*
G36*
X193481000Y-68891000D02*
G01*
X191379000Y-68891000D01*
X191379000Y-67689000D01*
X193481000Y-67689000D01*
X193481000Y-68891000D01*
G37*
G36*
X178681000Y-68891000D02*
G01*
X176579000Y-68891000D01*
X176579000Y-67689000D01*
X178681000Y-67689000D01*
X178681000Y-68891000D01*
G37*
G36*
X53481000Y-68891000D02*
G01*
X51379000Y-68891000D01*
X51379000Y-67689000D01*
X53481000Y-67689000D01*
X53481000Y-68891000D01*
G37*
G36*
X168681000Y-68891000D02*
G01*
X166579000Y-68891000D01*
X166579000Y-67689000D01*
X168681000Y-67689000D01*
X168681000Y-68891000D01*
G37*
G36*
X173481000Y-68891000D02*
G01*
X171379000Y-68891000D01*
X171379000Y-67689000D01*
X173481000Y-67689000D01*
X173481000Y-68891000D01*
G37*
G36*
X158681000Y-68891000D02*
G01*
X156579000Y-68891000D01*
X156579000Y-67689000D01*
X158681000Y-67689000D01*
X158681000Y-68891000D01*
G37*
G36*
X163481000Y-68891000D02*
G01*
X161379000Y-68891000D01*
X161379000Y-67689000D01*
X163481000Y-67689000D01*
X163481000Y-68891000D01*
G37*
G36*
X148681000Y-68891000D02*
G01*
X146579000Y-68891000D01*
X146579000Y-67689000D01*
X148681000Y-67689000D01*
X148681000Y-68891000D01*
G37*
G36*
X153481000Y-68891000D02*
G01*
X151379000Y-68891000D01*
X151379000Y-67689000D01*
X153481000Y-67689000D01*
X153481000Y-68891000D01*
G37*
G36*
X138681000Y-68891000D02*
G01*
X136579000Y-68891000D01*
X136579000Y-67689000D01*
X138681000Y-67689000D01*
X138681000Y-68891000D01*
G37*
G36*
X143481000Y-68891000D02*
G01*
X141379000Y-68891000D01*
X141379000Y-67689000D01*
X143481000Y-67689000D01*
X143481000Y-68891000D01*
G37*
G36*
X128681000Y-68891000D02*
G01*
X126579000Y-68891000D01*
X126579000Y-67689000D01*
X128681000Y-67689000D01*
X128681000Y-68891000D01*
G37*
G36*
X133481000Y-68891000D02*
G01*
X131379000Y-68891000D01*
X131379000Y-67689000D01*
X133481000Y-67689000D01*
X133481000Y-68891000D01*
G37*
G36*
X118681000Y-68891000D02*
G01*
X116579000Y-68891000D01*
X116579000Y-67689000D01*
X118681000Y-67689000D01*
X118681000Y-68891000D01*
G37*
G36*
X123481000Y-68891000D02*
G01*
X121379000Y-68891000D01*
X121379000Y-67689000D01*
X123481000Y-67689000D01*
X123481000Y-68891000D01*
G37*
G36*
X108681000Y-68891000D02*
G01*
X106579000Y-68891000D01*
X106579000Y-67689000D01*
X108681000Y-67689000D01*
X108681000Y-68891000D01*
G37*
G36*
X113481000Y-68891000D02*
G01*
X111379000Y-68891000D01*
X111379000Y-67689000D01*
X113481000Y-67689000D01*
X113481000Y-68891000D01*
G37*
G36*
X98681000Y-68891000D02*
G01*
X96579000Y-68891000D01*
X96579000Y-67689000D01*
X98681000Y-67689000D01*
X98681000Y-68891000D01*
G37*
G36*
X103481000Y-68891000D02*
G01*
X101379000Y-68891000D01*
X101379000Y-67689000D01*
X103481000Y-67689000D01*
X103481000Y-68891000D01*
G37*
G36*
X88681000Y-68891000D02*
G01*
X86579000Y-68891000D01*
X86579000Y-67689000D01*
X88681000Y-67689000D01*
X88681000Y-68891000D01*
G37*
G36*
X93481000Y-68891000D02*
G01*
X91379000Y-68891000D01*
X91379000Y-67689000D01*
X93481000Y-67689000D01*
X93481000Y-68891000D01*
G37*
G36*
X78681000Y-68891000D02*
G01*
X76579000Y-68891000D01*
X76579000Y-67689000D01*
X78681000Y-67689000D01*
X78681000Y-68891000D01*
G37*
G36*
X83481000Y-68891000D02*
G01*
X81379000Y-68891000D01*
X81379000Y-67689000D01*
X83481000Y-67689000D01*
X83481000Y-68891000D01*
G37*
G36*
X68681000Y-68891000D02*
G01*
X66579000Y-68891000D01*
X66579000Y-67689000D01*
X68681000Y-67689000D01*
X68681000Y-68891000D01*
G37*
G36*
X73481000Y-68891000D02*
G01*
X71379000Y-68891000D01*
X71379000Y-67689000D01*
X73481000Y-67689000D01*
X73481000Y-68891000D01*
G37*
G36*
X58681000Y-68891000D02*
G01*
X56579000Y-68891000D01*
X56579000Y-67689000D01*
X58681000Y-67689000D01*
X58681000Y-68891000D01*
G37*
G36*
X63481000Y-68891000D02*
G01*
X61379000Y-68891000D01*
X61379000Y-67689000D01*
X63481000Y-67689000D01*
X63481000Y-68891000D01*
G37*
G36*
X48681000Y-68891000D02*
G01*
X46579000Y-68891000D01*
X46579000Y-67689000D01*
X48681000Y-67689000D01*
X48681000Y-68891000D01*
G37*
G36*
X191159591Y-63178085D02*
G01*
X191193569Y-63188393D01*
X191224890Y-63205134D01*
X191252339Y-63227661D01*
X191274866Y-63255110D01*
X191291607Y-63286431D01*
X191301915Y-63320409D01*
X191306000Y-63361890D01*
X191306000Y-64038110D01*
X191301915Y-64079591D01*
X191291607Y-64113569D01*
X191274866Y-64144890D01*
X191252339Y-64172339D01*
X191224890Y-64194866D01*
X191193569Y-64211607D01*
X191159591Y-64221915D01*
X191118110Y-64226000D01*
X190516890Y-64226000D01*
X190475409Y-64221915D01*
X190441431Y-64211607D01*
X190410110Y-64194866D01*
X190382661Y-64172339D01*
X190360134Y-64144890D01*
X190343393Y-64113569D01*
X190333085Y-64079591D01*
X190329000Y-64038110D01*
X190329000Y-63361890D01*
X190333085Y-63320409D01*
X190343393Y-63286431D01*
X190360134Y-63255110D01*
X190382661Y-63227661D01*
X190410110Y-63205134D01*
X190441431Y-63188393D01*
X190475409Y-63178085D01*
X190516890Y-63174000D01*
X191118110Y-63174000D01*
X191159591Y-63178085D01*
G37*
G36*
X189584591Y-63178085D02*
G01*
X189618569Y-63188393D01*
X189649890Y-63205134D01*
X189677339Y-63227661D01*
X189699866Y-63255110D01*
X189716607Y-63286431D01*
X189726915Y-63320409D01*
X189731000Y-63361890D01*
X189731000Y-64038110D01*
X189726915Y-64079591D01*
X189716607Y-64113569D01*
X189699866Y-64144890D01*
X189677339Y-64172339D01*
X189649890Y-64194866D01*
X189618569Y-64211607D01*
X189584591Y-64221915D01*
X189543110Y-64226000D01*
X188941890Y-64226000D01*
X188900409Y-64221915D01*
X188866431Y-64211607D01*
X188835110Y-64194866D01*
X188807661Y-64172339D01*
X188785134Y-64144890D01*
X188768393Y-64113569D01*
X188758085Y-64079591D01*
X188754000Y-64038110D01*
X188754000Y-63361890D01*
X188758085Y-63320409D01*
X188768393Y-63286431D01*
X188785134Y-63255110D01*
X188807661Y-63227661D01*
X188835110Y-63205134D01*
X188866431Y-63188393D01*
X188900409Y-63178085D01*
X188941890Y-63174000D01*
X189543110Y-63174000D01*
X189584591Y-63178085D01*
G37*
G36*
X171159591Y-63178085D02*
G01*
X171193569Y-63188393D01*
X171224890Y-63205134D01*
X171252339Y-63227661D01*
X171274866Y-63255110D01*
X171291607Y-63286431D01*
X171301915Y-63320409D01*
X171306000Y-63361890D01*
X171306000Y-64038110D01*
X171301915Y-64079591D01*
X171291607Y-64113569D01*
X171274866Y-64144890D01*
X171252339Y-64172339D01*
X171224890Y-64194866D01*
X171193569Y-64211607D01*
X171159591Y-64221915D01*
X171118110Y-64226000D01*
X170516890Y-64226000D01*
X170475409Y-64221915D01*
X170441431Y-64211607D01*
X170410110Y-64194866D01*
X170382661Y-64172339D01*
X170360134Y-64144890D01*
X170343393Y-64113569D01*
X170333085Y-64079591D01*
X170329000Y-64038110D01*
X170329000Y-63361890D01*
X170333085Y-63320409D01*
X170343393Y-63286431D01*
X170360134Y-63255110D01*
X170382661Y-63227661D01*
X170410110Y-63205134D01*
X170441431Y-63188393D01*
X170475409Y-63178085D01*
X170516890Y-63174000D01*
X171118110Y-63174000D01*
X171159591Y-63178085D01*
G37*
G36*
X169584591Y-63178085D02*
G01*
X169618569Y-63188393D01*
X169649890Y-63205134D01*
X169677339Y-63227661D01*
X169699866Y-63255110D01*
X169716607Y-63286431D01*
X169726915Y-63320409D01*
X169731000Y-63361890D01*
X169731000Y-64038110D01*
X169726915Y-64079591D01*
X169716607Y-64113569D01*
X169699866Y-64144890D01*
X169677339Y-64172339D01*
X169649890Y-64194866D01*
X169618569Y-64211607D01*
X169584591Y-64221915D01*
X169543110Y-64226000D01*
X168941890Y-64226000D01*
X168900409Y-64221915D01*
X168866431Y-64211607D01*
X168835110Y-64194866D01*
X168807661Y-64172339D01*
X168785134Y-64144890D01*
X168768393Y-64113569D01*
X168758085Y-64079591D01*
X168754000Y-64038110D01*
X168754000Y-63361890D01*
X168758085Y-63320409D01*
X168768393Y-63286431D01*
X168785134Y-63255110D01*
X168807661Y-63227661D01*
X168835110Y-63205134D01*
X168866431Y-63188393D01*
X168900409Y-63178085D01*
X168941890Y-63174000D01*
X169543110Y-63174000D01*
X169584591Y-63178085D01*
G37*
G36*
X151159591Y-63178085D02*
G01*
X151193569Y-63188393D01*
X151224890Y-63205134D01*
X151252339Y-63227661D01*
X151274866Y-63255110D01*
X151291607Y-63286431D01*
X151301915Y-63320409D01*
X151306000Y-63361890D01*
X151306000Y-64038110D01*
X151301915Y-64079591D01*
X151291607Y-64113569D01*
X151274866Y-64144890D01*
X151252339Y-64172339D01*
X151224890Y-64194866D01*
X151193569Y-64211607D01*
X151159591Y-64221915D01*
X151118110Y-64226000D01*
X150516890Y-64226000D01*
X150475409Y-64221915D01*
X150441431Y-64211607D01*
X150410110Y-64194866D01*
X150382661Y-64172339D01*
X150360134Y-64144890D01*
X150343393Y-64113569D01*
X150333085Y-64079591D01*
X150329000Y-64038110D01*
X150329000Y-63361890D01*
X150333085Y-63320409D01*
X150343393Y-63286431D01*
X150360134Y-63255110D01*
X150382661Y-63227661D01*
X150410110Y-63205134D01*
X150441431Y-63188393D01*
X150475409Y-63178085D01*
X150516890Y-63174000D01*
X151118110Y-63174000D01*
X151159591Y-63178085D01*
G37*
G36*
X149584591Y-63178085D02*
G01*
X149618569Y-63188393D01*
X149649890Y-63205134D01*
X149677339Y-63227661D01*
X149699866Y-63255110D01*
X149716607Y-63286431D01*
X149726915Y-63320409D01*
X149731000Y-63361890D01*
X149731000Y-64038110D01*
X149726915Y-64079591D01*
X149716607Y-64113569D01*
X149699866Y-64144890D01*
X149677339Y-64172339D01*
X149649890Y-64194866D01*
X149618569Y-64211607D01*
X149584591Y-64221915D01*
X149543110Y-64226000D01*
X148941890Y-64226000D01*
X148900409Y-64221915D01*
X148866431Y-64211607D01*
X148835110Y-64194866D01*
X148807661Y-64172339D01*
X148785134Y-64144890D01*
X148768393Y-64113569D01*
X148758085Y-64079591D01*
X148754000Y-64038110D01*
X148754000Y-63361890D01*
X148758085Y-63320409D01*
X148768393Y-63286431D01*
X148785134Y-63255110D01*
X148807661Y-63227661D01*
X148835110Y-63205134D01*
X148866431Y-63188393D01*
X148900409Y-63178085D01*
X148941890Y-63174000D01*
X149543110Y-63174000D01*
X149584591Y-63178085D01*
G37*
G36*
X131159591Y-63178085D02*
G01*
X131193569Y-63188393D01*
X131224890Y-63205134D01*
X131252339Y-63227661D01*
X131274866Y-63255110D01*
X131291607Y-63286431D01*
X131301915Y-63320409D01*
X131306000Y-63361890D01*
X131306000Y-64038110D01*
X131301915Y-64079591D01*
X131291607Y-64113569D01*
X131274866Y-64144890D01*
X131252339Y-64172339D01*
X131224890Y-64194866D01*
X131193569Y-64211607D01*
X131159591Y-64221915D01*
X131118110Y-64226000D01*
X130516890Y-64226000D01*
X130475409Y-64221915D01*
X130441431Y-64211607D01*
X130410110Y-64194866D01*
X130382661Y-64172339D01*
X130360134Y-64144890D01*
X130343393Y-64113569D01*
X130333085Y-64079591D01*
X130329000Y-64038110D01*
X130329000Y-63361890D01*
X130333085Y-63320409D01*
X130343393Y-63286431D01*
X130360134Y-63255110D01*
X130382661Y-63227661D01*
X130410110Y-63205134D01*
X130441431Y-63188393D01*
X130475409Y-63178085D01*
X130516890Y-63174000D01*
X131118110Y-63174000D01*
X131159591Y-63178085D01*
G37*
G36*
X129584591Y-63178085D02*
G01*
X129618569Y-63188393D01*
X129649890Y-63205134D01*
X129677339Y-63227661D01*
X129699866Y-63255110D01*
X129716607Y-63286431D01*
X129726915Y-63320409D01*
X129731000Y-63361890D01*
X129731000Y-64038110D01*
X129726915Y-64079591D01*
X129716607Y-64113569D01*
X129699866Y-64144890D01*
X129677339Y-64172339D01*
X129649890Y-64194866D01*
X129618569Y-64211607D01*
X129584591Y-64221915D01*
X129543110Y-64226000D01*
X128941890Y-64226000D01*
X128900409Y-64221915D01*
X128866431Y-64211607D01*
X128835110Y-64194866D01*
X128807661Y-64172339D01*
X128785134Y-64144890D01*
X128768393Y-64113569D01*
X128758085Y-64079591D01*
X128754000Y-64038110D01*
X128754000Y-63361890D01*
X128758085Y-63320409D01*
X128768393Y-63286431D01*
X128785134Y-63255110D01*
X128807661Y-63227661D01*
X128835110Y-63205134D01*
X128866431Y-63188393D01*
X128900409Y-63178085D01*
X128941890Y-63174000D01*
X129543110Y-63174000D01*
X129584591Y-63178085D01*
G37*
G36*
X111159591Y-63178085D02*
G01*
X111193569Y-63188393D01*
X111224890Y-63205134D01*
X111252339Y-63227661D01*
X111274866Y-63255110D01*
X111291607Y-63286431D01*
X111301915Y-63320409D01*
X111306000Y-63361890D01*
X111306000Y-64038110D01*
X111301915Y-64079591D01*
X111291607Y-64113569D01*
X111274866Y-64144890D01*
X111252339Y-64172339D01*
X111224890Y-64194866D01*
X111193569Y-64211607D01*
X111159591Y-64221915D01*
X111118110Y-64226000D01*
X110516890Y-64226000D01*
X110475409Y-64221915D01*
X110441431Y-64211607D01*
X110410110Y-64194866D01*
X110382661Y-64172339D01*
X110360134Y-64144890D01*
X110343393Y-64113569D01*
X110333085Y-64079591D01*
X110329000Y-64038110D01*
X110329000Y-63361890D01*
X110333085Y-63320409D01*
X110343393Y-63286431D01*
X110360134Y-63255110D01*
X110382661Y-63227661D01*
X110410110Y-63205134D01*
X110441431Y-63188393D01*
X110475409Y-63178085D01*
X110516890Y-63174000D01*
X111118110Y-63174000D01*
X111159591Y-63178085D01*
G37*
G36*
X109584591Y-63178085D02*
G01*
X109618569Y-63188393D01*
X109649890Y-63205134D01*
X109677339Y-63227661D01*
X109699866Y-63255110D01*
X109716607Y-63286431D01*
X109726915Y-63320409D01*
X109731000Y-63361890D01*
X109731000Y-64038110D01*
X109726915Y-64079591D01*
X109716607Y-64113569D01*
X109699866Y-64144890D01*
X109677339Y-64172339D01*
X109649890Y-64194866D01*
X109618569Y-64211607D01*
X109584591Y-64221915D01*
X109543110Y-64226000D01*
X108941890Y-64226000D01*
X108900409Y-64221915D01*
X108866431Y-64211607D01*
X108835110Y-64194866D01*
X108807661Y-64172339D01*
X108785134Y-64144890D01*
X108768393Y-64113569D01*
X108758085Y-64079591D01*
X108754000Y-64038110D01*
X108754000Y-63361890D01*
X108758085Y-63320409D01*
X108768393Y-63286431D01*
X108785134Y-63255110D01*
X108807661Y-63227661D01*
X108835110Y-63205134D01*
X108866431Y-63188393D01*
X108900409Y-63178085D01*
X108941890Y-63174000D01*
X109543110Y-63174000D01*
X109584591Y-63178085D01*
G37*
G36*
X91159591Y-63178085D02*
G01*
X91193569Y-63188393D01*
X91224890Y-63205134D01*
X91252339Y-63227661D01*
X91274866Y-63255110D01*
X91291607Y-63286431D01*
X91301915Y-63320409D01*
X91306000Y-63361890D01*
X91306000Y-64038110D01*
X91301915Y-64079591D01*
X91291607Y-64113569D01*
X91274866Y-64144890D01*
X91252339Y-64172339D01*
X91224890Y-64194866D01*
X91193569Y-64211607D01*
X91159591Y-64221915D01*
X91118110Y-64226000D01*
X90516890Y-64226000D01*
X90475409Y-64221915D01*
X90441431Y-64211607D01*
X90410110Y-64194866D01*
X90382661Y-64172339D01*
X90360134Y-64144890D01*
X90343393Y-64113569D01*
X90333085Y-64079591D01*
X90329000Y-64038110D01*
X90329000Y-63361890D01*
X90333085Y-63320409D01*
X90343393Y-63286431D01*
X90360134Y-63255110D01*
X90382661Y-63227661D01*
X90410110Y-63205134D01*
X90441431Y-63188393D01*
X90475409Y-63178085D01*
X90516890Y-63174000D01*
X91118110Y-63174000D01*
X91159591Y-63178085D01*
G37*
G36*
X89584591Y-63178085D02*
G01*
X89618569Y-63188393D01*
X89649890Y-63205134D01*
X89677339Y-63227661D01*
X89699866Y-63255110D01*
X89716607Y-63286431D01*
X89726915Y-63320409D01*
X89731000Y-63361890D01*
X89731000Y-64038110D01*
X89726915Y-64079591D01*
X89716607Y-64113569D01*
X89699866Y-64144890D01*
X89677339Y-64172339D01*
X89649890Y-64194866D01*
X89618569Y-64211607D01*
X89584591Y-64221915D01*
X89543110Y-64226000D01*
X88941890Y-64226000D01*
X88900409Y-64221915D01*
X88866431Y-64211607D01*
X88835110Y-64194866D01*
X88807661Y-64172339D01*
X88785134Y-64144890D01*
X88768393Y-64113569D01*
X88758085Y-64079591D01*
X88754000Y-64038110D01*
X88754000Y-63361890D01*
X88758085Y-63320409D01*
X88768393Y-63286431D01*
X88785134Y-63255110D01*
X88807661Y-63227661D01*
X88835110Y-63205134D01*
X88866431Y-63188393D01*
X88900409Y-63178085D01*
X88941890Y-63174000D01*
X89543110Y-63174000D01*
X89584591Y-63178085D01*
G37*
G36*
X71159591Y-63178085D02*
G01*
X71193569Y-63188393D01*
X71224890Y-63205134D01*
X71252339Y-63227661D01*
X71274866Y-63255110D01*
X71291607Y-63286431D01*
X71301915Y-63320409D01*
X71306000Y-63361890D01*
X71306000Y-64038110D01*
X71301915Y-64079591D01*
X71291607Y-64113569D01*
X71274866Y-64144890D01*
X71252339Y-64172339D01*
X71224890Y-64194866D01*
X71193569Y-64211607D01*
X71159591Y-64221915D01*
X71118110Y-64226000D01*
X70516890Y-64226000D01*
X70475409Y-64221915D01*
X70441431Y-64211607D01*
X70410110Y-64194866D01*
X70382661Y-64172339D01*
X70360134Y-64144890D01*
X70343393Y-64113569D01*
X70333085Y-64079591D01*
X70329000Y-64038110D01*
X70329000Y-63361890D01*
X70333085Y-63320409D01*
X70343393Y-63286431D01*
X70360134Y-63255110D01*
X70382661Y-63227661D01*
X70410110Y-63205134D01*
X70441431Y-63188393D01*
X70475409Y-63178085D01*
X70516890Y-63174000D01*
X71118110Y-63174000D01*
X71159591Y-63178085D01*
G37*
G36*
X69584591Y-63178085D02*
G01*
X69618569Y-63188393D01*
X69649890Y-63205134D01*
X69677339Y-63227661D01*
X69699866Y-63255110D01*
X69716607Y-63286431D01*
X69726915Y-63320409D01*
X69731000Y-63361890D01*
X69731000Y-64038110D01*
X69726915Y-64079591D01*
X69716607Y-64113569D01*
X69699866Y-64144890D01*
X69677339Y-64172339D01*
X69649890Y-64194866D01*
X69618569Y-64211607D01*
X69584591Y-64221915D01*
X69543110Y-64226000D01*
X68941890Y-64226000D01*
X68900409Y-64221915D01*
X68866431Y-64211607D01*
X68835110Y-64194866D01*
X68807661Y-64172339D01*
X68785134Y-64144890D01*
X68768393Y-64113569D01*
X68758085Y-64079591D01*
X68754000Y-64038110D01*
X68754000Y-63361890D01*
X68758085Y-63320409D01*
X68768393Y-63286431D01*
X68785134Y-63255110D01*
X68807661Y-63227661D01*
X68835110Y-63205134D01*
X68866431Y-63188393D01*
X68900409Y-63178085D01*
X68941890Y-63174000D01*
X69543110Y-63174000D01*
X69584591Y-63178085D01*
G37*
G36*
X51159591Y-63178085D02*
G01*
X51193569Y-63188393D01*
X51224890Y-63205134D01*
X51252339Y-63227661D01*
X51274866Y-63255110D01*
X51291607Y-63286431D01*
X51301915Y-63320409D01*
X51306000Y-63361890D01*
X51306000Y-64038110D01*
X51301915Y-64079591D01*
X51291607Y-64113569D01*
X51274866Y-64144890D01*
X51252339Y-64172339D01*
X51224890Y-64194866D01*
X51193569Y-64211607D01*
X51159591Y-64221915D01*
X51118110Y-64226000D01*
X50516890Y-64226000D01*
X50475409Y-64221915D01*
X50441431Y-64211607D01*
X50410110Y-64194866D01*
X50382661Y-64172339D01*
X50360134Y-64144890D01*
X50343393Y-64113569D01*
X50333085Y-64079591D01*
X50329000Y-64038110D01*
X50329000Y-63361890D01*
X50333085Y-63320409D01*
X50343393Y-63286431D01*
X50360134Y-63255110D01*
X50382661Y-63227661D01*
X50410110Y-63205134D01*
X50441431Y-63188393D01*
X50475409Y-63178085D01*
X50516890Y-63174000D01*
X51118110Y-63174000D01*
X51159591Y-63178085D01*
G37*
G36*
X49584591Y-63178085D02*
G01*
X49618569Y-63188393D01*
X49649890Y-63205134D01*
X49677339Y-63227661D01*
X49699866Y-63255110D01*
X49716607Y-63286431D01*
X49726915Y-63320409D01*
X49731000Y-63361890D01*
X49731000Y-64038110D01*
X49726915Y-64079591D01*
X49716607Y-64113569D01*
X49699866Y-64144890D01*
X49677339Y-64172339D01*
X49649890Y-64194866D01*
X49618569Y-64211607D01*
X49584591Y-64221915D01*
X49543110Y-64226000D01*
X48941890Y-64226000D01*
X48900409Y-64221915D01*
X48866431Y-64211607D01*
X48835110Y-64194866D01*
X48807661Y-64172339D01*
X48785134Y-64144890D01*
X48768393Y-64113569D01*
X48758085Y-64079591D01*
X48754000Y-64038110D01*
X48754000Y-63361890D01*
X48758085Y-63320409D01*
X48768393Y-63286431D01*
X48785134Y-63255110D01*
X48807661Y-63227661D01*
X48835110Y-63205134D01*
X48866431Y-63188393D01*
X48900409Y-63178085D01*
X48941890Y-63174000D01*
X49543110Y-63174000D01*
X49584591Y-63178085D01*
G37*
G36*
X203481000Y-62291000D02*
G01*
X201379000Y-62291000D01*
X201379000Y-61089000D01*
X203481000Y-61089000D01*
X203481000Y-62291000D01*
G37*
G36*
X198681000Y-62291000D02*
G01*
X196579000Y-62291000D01*
X196579000Y-61089000D01*
X198681000Y-61089000D01*
X198681000Y-62291000D01*
G37*
G36*
X193481000Y-62291000D02*
G01*
X191379000Y-62291000D01*
X191379000Y-61089000D01*
X193481000Y-61089000D01*
X193481000Y-62291000D01*
G37*
G36*
X188681000Y-62291000D02*
G01*
X186579000Y-62291000D01*
X186579000Y-61089000D01*
X188681000Y-61089000D01*
X188681000Y-62291000D01*
G37*
G36*
X178681000Y-62291000D02*
G01*
X176579000Y-62291000D01*
X176579000Y-61089000D01*
X178681000Y-61089000D01*
X178681000Y-62291000D01*
G37*
G36*
X183481000Y-62291000D02*
G01*
X181379000Y-62291000D01*
X181379000Y-61089000D01*
X183481000Y-61089000D01*
X183481000Y-62291000D01*
G37*
G36*
X168681000Y-62291000D02*
G01*
X166579000Y-62291000D01*
X166579000Y-61089000D01*
X168681000Y-61089000D01*
X168681000Y-62291000D01*
G37*
G36*
X173481000Y-62291000D02*
G01*
X171379000Y-62291000D01*
X171379000Y-61089000D01*
X173481000Y-61089000D01*
X173481000Y-62291000D01*
G37*
G36*
X158681000Y-62291000D02*
G01*
X156579000Y-62291000D01*
X156579000Y-61089000D01*
X158681000Y-61089000D01*
X158681000Y-62291000D01*
G37*
G36*
X163481000Y-62291000D02*
G01*
X161379000Y-62291000D01*
X161379000Y-61089000D01*
X163481000Y-61089000D01*
X163481000Y-62291000D01*
G37*
G36*
X148681000Y-62291000D02*
G01*
X146579000Y-62291000D01*
X146579000Y-61089000D01*
X148681000Y-61089000D01*
X148681000Y-62291000D01*
G37*
G36*
X153481000Y-62291000D02*
G01*
X151379000Y-62291000D01*
X151379000Y-61089000D01*
X153481000Y-61089000D01*
X153481000Y-62291000D01*
G37*
G36*
X138681000Y-62291000D02*
G01*
X136579000Y-62291000D01*
X136579000Y-61089000D01*
X138681000Y-61089000D01*
X138681000Y-62291000D01*
G37*
G36*
X143481000Y-62291000D02*
G01*
X141379000Y-62291000D01*
X141379000Y-61089000D01*
X143481000Y-61089000D01*
X143481000Y-62291000D01*
G37*
G36*
X128681000Y-62291000D02*
G01*
X126579000Y-62291000D01*
X126579000Y-61089000D01*
X128681000Y-61089000D01*
X128681000Y-62291000D01*
G37*
G36*
X48681000Y-62291000D02*
G01*
X46579000Y-62291000D01*
X46579000Y-61089000D01*
X48681000Y-61089000D01*
X48681000Y-62291000D01*
G37*
G36*
X118681000Y-62291000D02*
G01*
X116579000Y-62291000D01*
X116579000Y-61089000D01*
X118681000Y-61089000D01*
X118681000Y-62291000D01*
G37*
G36*
X123481000Y-62291000D02*
G01*
X121379000Y-62291000D01*
X121379000Y-61089000D01*
X123481000Y-61089000D01*
X123481000Y-62291000D01*
G37*
G36*
X108681000Y-62291000D02*
G01*
X106579000Y-62291000D01*
X106579000Y-61089000D01*
X108681000Y-61089000D01*
X108681000Y-62291000D01*
G37*
G36*
X113481000Y-62291000D02*
G01*
X111379000Y-62291000D01*
X111379000Y-61089000D01*
X113481000Y-61089000D01*
X113481000Y-62291000D01*
G37*
G36*
X98681000Y-62291000D02*
G01*
X96579000Y-62291000D01*
X96579000Y-61089000D01*
X98681000Y-61089000D01*
X98681000Y-62291000D01*
G37*
G36*
X103481000Y-62291000D02*
G01*
X101379000Y-62291000D01*
X101379000Y-61089000D01*
X103481000Y-61089000D01*
X103481000Y-62291000D01*
G37*
G36*
X88681000Y-62291000D02*
G01*
X86579000Y-62291000D01*
X86579000Y-61089000D01*
X88681000Y-61089000D01*
X88681000Y-62291000D01*
G37*
G36*
X93481000Y-62291000D02*
G01*
X91379000Y-62291000D01*
X91379000Y-61089000D01*
X93481000Y-61089000D01*
X93481000Y-62291000D01*
G37*
G36*
X78681000Y-62291000D02*
G01*
X76579000Y-62291000D01*
X76579000Y-61089000D01*
X78681000Y-61089000D01*
X78681000Y-62291000D01*
G37*
G36*
X83481000Y-62291000D02*
G01*
X81379000Y-62291000D01*
X81379000Y-61089000D01*
X83481000Y-61089000D01*
X83481000Y-62291000D01*
G37*
G36*
X68681000Y-62291000D02*
G01*
X66579000Y-62291000D01*
X66579000Y-61089000D01*
X68681000Y-61089000D01*
X68681000Y-62291000D01*
G37*
G36*
X73481000Y-62291000D02*
G01*
X71379000Y-62291000D01*
X71379000Y-61089000D01*
X73481000Y-61089000D01*
X73481000Y-62291000D01*
G37*
G36*
X58681000Y-62291000D02*
G01*
X56579000Y-62291000D01*
X56579000Y-61089000D01*
X58681000Y-61089000D01*
X58681000Y-62291000D01*
G37*
G36*
X63481000Y-62291000D02*
G01*
X61379000Y-62291000D01*
X61379000Y-61089000D01*
X63481000Y-61089000D01*
X63481000Y-62291000D01*
G37*
G36*
X53481000Y-62291000D02*
G01*
X51379000Y-62291000D01*
X51379000Y-61089000D01*
X53481000Y-61089000D01*
X53481000Y-62291000D01*
G37*
G36*
X38681000Y-62291000D02*
G01*
X36579000Y-62291000D01*
X36579000Y-61089000D01*
X38681000Y-61089000D01*
X38681000Y-62291000D01*
G37*
G36*
X43481000Y-62291000D02*
G01*
X41379000Y-62291000D01*
X41379000Y-61089000D01*
X43481000Y-61089000D01*
X43481000Y-62291000D01*
G37*
G36*
X133481000Y-62291000D02*
G01*
X131379000Y-62291000D01*
X131379000Y-61089000D01*
X133481000Y-61089000D01*
X133481000Y-62291000D01*
G37*
G36*
X198681000Y-60591000D02*
G01*
X196579000Y-60591000D01*
X196579000Y-59389000D01*
X198681000Y-59389000D01*
X198681000Y-60591000D01*
G37*
G36*
X53481000Y-60591000D02*
G01*
X51379000Y-60591000D01*
X51379000Y-59389000D01*
X53481000Y-59389000D01*
X53481000Y-60591000D01*
G37*
G36*
X48681000Y-60591000D02*
G01*
X46579000Y-60591000D01*
X46579000Y-59389000D01*
X48681000Y-59389000D01*
X48681000Y-60591000D01*
G37*
G36*
X43481000Y-60591000D02*
G01*
X41379000Y-60591000D01*
X41379000Y-59389000D01*
X43481000Y-59389000D01*
X43481000Y-60591000D01*
G37*
G36*
X38681000Y-60591000D02*
G01*
X36579000Y-60591000D01*
X36579000Y-59389000D01*
X38681000Y-59389000D01*
X38681000Y-60591000D01*
G37*
G36*
X63481000Y-60591000D02*
G01*
X61379000Y-60591000D01*
X61379000Y-59389000D01*
X63481000Y-59389000D01*
X63481000Y-60591000D01*
G37*
G36*
X73481000Y-60591000D02*
G01*
X71379000Y-60591000D01*
X71379000Y-59389000D01*
X73481000Y-59389000D01*
X73481000Y-60591000D01*
G37*
G36*
X113481000Y-60591000D02*
G01*
X111379000Y-60591000D01*
X111379000Y-59389000D01*
X113481000Y-59389000D01*
X113481000Y-60591000D01*
G37*
G36*
X108681000Y-60591000D02*
G01*
X106579000Y-60591000D01*
X106579000Y-59389000D01*
X108681000Y-59389000D01*
X108681000Y-60591000D01*
G37*
G36*
X68681000Y-60591000D02*
G01*
X66579000Y-60591000D01*
X66579000Y-59389000D01*
X68681000Y-59389000D01*
X68681000Y-60591000D01*
G37*
G36*
X83481000Y-60591000D02*
G01*
X81379000Y-60591000D01*
X81379000Y-59389000D01*
X83481000Y-59389000D01*
X83481000Y-60591000D01*
G37*
G36*
X78681000Y-60591000D02*
G01*
X76579000Y-60591000D01*
X76579000Y-59389000D01*
X78681000Y-59389000D01*
X78681000Y-60591000D01*
G37*
G36*
X203481000Y-60591000D02*
G01*
X201379000Y-60591000D01*
X201379000Y-59389000D01*
X203481000Y-59389000D01*
X203481000Y-60591000D01*
G37*
G36*
X93481000Y-60591000D02*
G01*
X91379000Y-60591000D01*
X91379000Y-59389000D01*
X93481000Y-59389000D01*
X93481000Y-60591000D01*
G37*
G36*
X193481000Y-60591000D02*
G01*
X191379000Y-60591000D01*
X191379000Y-59389000D01*
X193481000Y-59389000D01*
X193481000Y-60591000D01*
G37*
G36*
X188681000Y-60591000D02*
G01*
X186579000Y-60591000D01*
X186579000Y-59389000D01*
X188681000Y-59389000D01*
X188681000Y-60591000D01*
G37*
G36*
X183481000Y-60591000D02*
G01*
X181379000Y-60591000D01*
X181379000Y-59389000D01*
X183481000Y-59389000D01*
X183481000Y-60591000D01*
G37*
G36*
X178681000Y-60591000D02*
G01*
X176579000Y-60591000D01*
X176579000Y-59389000D01*
X178681000Y-59389000D01*
X178681000Y-60591000D01*
G37*
G36*
X173481000Y-60591000D02*
G01*
X171379000Y-60591000D01*
X171379000Y-59389000D01*
X173481000Y-59389000D01*
X173481000Y-60591000D01*
G37*
G36*
X168681000Y-60591000D02*
G01*
X166579000Y-60591000D01*
X166579000Y-59389000D01*
X168681000Y-59389000D01*
X168681000Y-60591000D01*
G37*
G36*
X163481000Y-60591000D02*
G01*
X161379000Y-60591000D01*
X161379000Y-59389000D01*
X163481000Y-59389000D01*
X163481000Y-60591000D01*
G37*
G36*
X158681000Y-60591000D02*
G01*
X156579000Y-60591000D01*
X156579000Y-59389000D01*
X158681000Y-59389000D01*
X158681000Y-60591000D01*
G37*
G36*
X153481000Y-60591000D02*
G01*
X151379000Y-60591000D01*
X151379000Y-59389000D01*
X153481000Y-59389000D01*
X153481000Y-60591000D01*
G37*
G36*
X148681000Y-60591000D02*
G01*
X146579000Y-60591000D01*
X146579000Y-59389000D01*
X148681000Y-59389000D01*
X148681000Y-60591000D01*
G37*
G36*
X143481000Y-60591000D02*
G01*
X141379000Y-60591000D01*
X141379000Y-59389000D01*
X143481000Y-59389000D01*
X143481000Y-60591000D01*
G37*
G36*
X138681000Y-60591000D02*
G01*
X136579000Y-60591000D01*
X136579000Y-59389000D01*
X138681000Y-59389000D01*
X138681000Y-60591000D01*
G37*
G36*
X133481000Y-60591000D02*
G01*
X131379000Y-60591000D01*
X131379000Y-59389000D01*
X133481000Y-59389000D01*
X133481000Y-60591000D01*
G37*
G36*
X128681000Y-60591000D02*
G01*
X126579000Y-60591000D01*
X126579000Y-59389000D01*
X128681000Y-59389000D01*
X128681000Y-60591000D01*
G37*
G36*
X123481000Y-60591000D02*
G01*
X121379000Y-60591000D01*
X121379000Y-59389000D01*
X123481000Y-59389000D01*
X123481000Y-60591000D01*
G37*
G36*
X118681000Y-60591000D02*
G01*
X116579000Y-60591000D01*
X116579000Y-59389000D01*
X118681000Y-59389000D01*
X118681000Y-60591000D01*
G37*
G36*
X88681000Y-60591000D02*
G01*
X86579000Y-60591000D01*
X86579000Y-59389000D01*
X88681000Y-59389000D01*
X88681000Y-60591000D01*
G37*
G36*
X58681000Y-60591000D02*
G01*
X56579000Y-60591000D01*
X56579000Y-59389000D01*
X58681000Y-59389000D01*
X58681000Y-60591000D01*
G37*
G36*
X103481000Y-60591000D02*
G01*
X101379000Y-60591000D01*
X101379000Y-59389000D01*
X103481000Y-59389000D01*
X103481000Y-60591000D01*
G37*
G36*
X98681000Y-60591000D02*
G01*
X96579000Y-60591000D01*
X96579000Y-59389000D01*
X98681000Y-59389000D01*
X98681000Y-60591000D01*
G37*
G36*
X128681000Y-58891000D02*
G01*
X126579000Y-58891000D01*
X126579000Y-57689000D01*
X128681000Y-57689000D01*
X128681000Y-58891000D01*
G37*
G36*
X143481000Y-58891000D02*
G01*
X141379000Y-58891000D01*
X141379000Y-57689000D01*
X143481000Y-57689000D01*
X143481000Y-58891000D01*
G37*
G36*
X98681000Y-58891000D02*
G01*
X96579000Y-58891000D01*
X96579000Y-57689000D01*
X98681000Y-57689000D01*
X98681000Y-58891000D01*
G37*
G36*
X88681000Y-58891000D02*
G01*
X86579000Y-58891000D01*
X86579000Y-57689000D01*
X88681000Y-57689000D01*
X88681000Y-58891000D01*
G37*
G36*
X103481000Y-58891000D02*
G01*
X101379000Y-58891000D01*
X101379000Y-57689000D01*
X103481000Y-57689000D01*
X103481000Y-58891000D01*
G37*
G36*
X133481000Y-58891000D02*
G01*
X131379000Y-58891000D01*
X131379000Y-57689000D01*
X133481000Y-57689000D01*
X133481000Y-58891000D01*
G37*
G36*
X138681000Y-58891000D02*
G01*
X136579000Y-58891000D01*
X136579000Y-57689000D01*
X138681000Y-57689000D01*
X138681000Y-58891000D01*
G37*
G36*
X83481000Y-58891000D02*
G01*
X81379000Y-58891000D01*
X81379000Y-57689000D01*
X83481000Y-57689000D01*
X83481000Y-58891000D01*
G37*
G36*
X78681000Y-58891000D02*
G01*
X76579000Y-58891000D01*
X76579000Y-57689000D01*
X78681000Y-57689000D01*
X78681000Y-58891000D01*
G37*
G36*
X153481000Y-58891000D02*
G01*
X151379000Y-58891000D01*
X151379000Y-57689000D01*
X153481000Y-57689000D01*
X153481000Y-58891000D01*
G37*
G36*
X118681000Y-58891000D02*
G01*
X116579000Y-58891000D01*
X116579000Y-57689000D01*
X118681000Y-57689000D01*
X118681000Y-58891000D01*
G37*
G36*
X108681000Y-58891000D02*
G01*
X106579000Y-58891000D01*
X106579000Y-57689000D01*
X108681000Y-57689000D01*
X108681000Y-58891000D01*
G37*
G36*
X148681000Y-58891000D02*
G01*
X146579000Y-58891000D01*
X146579000Y-57689000D01*
X148681000Y-57689000D01*
X148681000Y-58891000D01*
G37*
G36*
X73481000Y-58891000D02*
G01*
X71379000Y-58891000D01*
X71379000Y-57689000D01*
X73481000Y-57689000D01*
X73481000Y-58891000D01*
G37*
G36*
X68681000Y-58891000D02*
G01*
X66579000Y-58891000D01*
X66579000Y-57689000D01*
X68681000Y-57689000D01*
X68681000Y-58891000D01*
G37*
G36*
X163481000Y-58891000D02*
G01*
X161379000Y-58891000D01*
X161379000Y-57689000D01*
X163481000Y-57689000D01*
X163481000Y-58891000D01*
G37*
G36*
X113481000Y-58891000D02*
G01*
X111379000Y-58891000D01*
X111379000Y-57689000D01*
X113481000Y-57689000D01*
X113481000Y-58891000D01*
G37*
G36*
X43481000Y-58891000D02*
G01*
X41379000Y-58891000D01*
X41379000Y-57689000D01*
X43481000Y-57689000D01*
X43481000Y-58891000D01*
G37*
G36*
X63481000Y-58891000D02*
G01*
X61379000Y-58891000D01*
X61379000Y-57689000D01*
X63481000Y-57689000D01*
X63481000Y-58891000D01*
G37*
G36*
X58681000Y-58891000D02*
G01*
X56579000Y-58891000D01*
X56579000Y-57689000D01*
X58681000Y-57689000D01*
X58681000Y-58891000D01*
G37*
G36*
X53481000Y-58891000D02*
G01*
X51379000Y-58891000D01*
X51379000Y-57689000D01*
X53481000Y-57689000D01*
X53481000Y-58891000D01*
G37*
G36*
X48681000Y-58891000D02*
G01*
X46579000Y-58891000D01*
X46579000Y-57689000D01*
X48681000Y-57689000D01*
X48681000Y-58891000D01*
G37*
G36*
X38681000Y-58891000D02*
G01*
X36579000Y-58891000D01*
X36579000Y-57689000D01*
X38681000Y-57689000D01*
X38681000Y-58891000D01*
G37*
G36*
X93481000Y-58891000D02*
G01*
X91379000Y-58891000D01*
X91379000Y-57689000D01*
X93481000Y-57689000D01*
X93481000Y-58891000D01*
G37*
G36*
X203481000Y-58891000D02*
G01*
X201379000Y-58891000D01*
X201379000Y-57689000D01*
X203481000Y-57689000D01*
X203481000Y-58891000D01*
G37*
G36*
X158681000Y-58891000D02*
G01*
X156579000Y-58891000D01*
X156579000Y-57689000D01*
X158681000Y-57689000D01*
X158681000Y-58891000D01*
G37*
G36*
X173481000Y-58891000D02*
G01*
X171379000Y-58891000D01*
X171379000Y-57689000D01*
X173481000Y-57689000D01*
X173481000Y-58891000D01*
G37*
G36*
X123481000Y-58891000D02*
G01*
X121379000Y-58891000D01*
X121379000Y-57689000D01*
X123481000Y-57689000D01*
X123481000Y-58891000D01*
G37*
G36*
X168681000Y-58891000D02*
G01*
X166579000Y-58891000D01*
X166579000Y-57689000D01*
X168681000Y-57689000D01*
X168681000Y-58891000D01*
G37*
G36*
X183481000Y-58891000D02*
G01*
X181379000Y-58891000D01*
X181379000Y-57689000D01*
X183481000Y-57689000D01*
X183481000Y-58891000D01*
G37*
G36*
X178681000Y-58891000D02*
G01*
X176579000Y-58891000D01*
X176579000Y-57689000D01*
X178681000Y-57689000D01*
X178681000Y-58891000D01*
G37*
G36*
X193481000Y-58891000D02*
G01*
X191379000Y-58891000D01*
X191379000Y-57689000D01*
X193481000Y-57689000D01*
X193481000Y-58891000D01*
G37*
G36*
X188681000Y-58891000D02*
G01*
X186579000Y-58891000D01*
X186579000Y-57689000D01*
X188681000Y-57689000D01*
X188681000Y-58891000D01*
G37*
G36*
X198681000Y-58891000D02*
G01*
X196579000Y-58891000D01*
X196579000Y-57689000D01*
X198681000Y-57689000D01*
X198681000Y-58891000D01*
G37*
G36*
X145379487Y-53748996D02*
G01*
X145616253Y-53847068D01*
X145616255Y-53847069D01*
X145829339Y-53989447D01*
X146010553Y-54170661D01*
X146152932Y-54383747D01*
X146251004Y-54620513D01*
X146301000Y-54871861D01*
X146301000Y-55128139D01*
X146251004Y-55379487D01*
X146152932Y-55616253D01*
X146152931Y-55616255D01*
X146010553Y-55829339D01*
X145829339Y-56010553D01*
X145616255Y-56152931D01*
X145616254Y-56152932D01*
X145616253Y-56152932D01*
X145379487Y-56251004D01*
X145128139Y-56301000D01*
X144871861Y-56301000D01*
X144620513Y-56251004D01*
X144383747Y-56152932D01*
X144383746Y-56152932D01*
X144383745Y-56152931D01*
X144170661Y-56010553D01*
X143989447Y-55829339D01*
X143847069Y-55616255D01*
X143847068Y-55616253D01*
X143748996Y-55379487D01*
X143699000Y-55128139D01*
X143699000Y-54871861D01*
X143748996Y-54620513D01*
X143847068Y-54383747D01*
X143989447Y-54170661D01*
X144170661Y-53989447D01*
X144383745Y-53847069D01*
X144383747Y-53847068D01*
X144620513Y-53748996D01*
X144871861Y-53699000D01*
X145128139Y-53699000D01*
X145379487Y-53748996D01*
G37*
G36*
X95379487Y-53748996D02*
G01*
X95616253Y-53847068D01*
X95616255Y-53847069D01*
X95829339Y-53989447D01*
X96010553Y-54170661D01*
X96152932Y-54383747D01*
X96251004Y-54620513D01*
X96301000Y-54871861D01*
X96301000Y-55128139D01*
X96251004Y-55379487D01*
X96152932Y-55616253D01*
X96152931Y-55616255D01*
X96010553Y-55829339D01*
X95829339Y-56010553D01*
X95616255Y-56152931D01*
X95616254Y-56152932D01*
X95616253Y-56152932D01*
X95379487Y-56251004D01*
X95128139Y-56301000D01*
X94871861Y-56301000D01*
X94620513Y-56251004D01*
X94383747Y-56152932D01*
X94383746Y-56152932D01*
X94383745Y-56152931D01*
X94170661Y-56010553D01*
X93989447Y-55829339D01*
X93847069Y-55616255D01*
X93847068Y-55616253D01*
X93748996Y-55379487D01*
X93699000Y-55128139D01*
X93699000Y-54871861D01*
X93748996Y-54620513D01*
X93847068Y-54383747D01*
X93989447Y-54170661D01*
X94170661Y-53989447D01*
X94383745Y-53847069D01*
X94383747Y-53847068D01*
X94620513Y-53748996D01*
X94871861Y-53699000D01*
X95128139Y-53699000D01*
X95379487Y-53748996D01*
G37*
G36*
X38681000Y-52291000D02*
G01*
X36579000Y-52291000D01*
X36579000Y-51089000D01*
X38681000Y-51089000D01*
X38681000Y-52291000D01*
G37*
G36*
X43481000Y-52291000D02*
G01*
X41379000Y-52291000D01*
X41379000Y-51089000D01*
X43481000Y-51089000D01*
X43481000Y-52291000D01*
G37*
G36*
X48681000Y-52291000D02*
G01*
X46579000Y-52291000D01*
X46579000Y-51089000D01*
X48681000Y-51089000D01*
X48681000Y-52291000D01*
G37*
G36*
X53481000Y-52291000D02*
G01*
X51379000Y-52291000D01*
X51379000Y-51089000D01*
X53481000Y-51089000D01*
X53481000Y-52291000D01*
G37*
G36*
X58681000Y-52291000D02*
G01*
X56579000Y-52291000D01*
X56579000Y-51089000D01*
X58681000Y-51089000D01*
X58681000Y-52291000D01*
G37*
G36*
X63481000Y-52291000D02*
G01*
X61379000Y-52291000D01*
X61379000Y-51089000D01*
X63481000Y-51089000D01*
X63481000Y-52291000D01*
G37*
G36*
X68681000Y-52291000D02*
G01*
X66579000Y-52291000D01*
X66579000Y-51089000D01*
X68681000Y-51089000D01*
X68681000Y-52291000D01*
G37*
G36*
X158681000Y-52291000D02*
G01*
X156579000Y-52291000D01*
X156579000Y-51089000D01*
X158681000Y-51089000D01*
X158681000Y-52291000D01*
G37*
G36*
X73481000Y-52291000D02*
G01*
X71379000Y-52291000D01*
X71379000Y-51089000D01*
X73481000Y-51089000D01*
X73481000Y-52291000D01*
G37*
G36*
X78681000Y-52291000D02*
G01*
X76579000Y-52291000D01*
X76579000Y-51089000D01*
X78681000Y-51089000D01*
X78681000Y-52291000D01*
G37*
G36*
X83481000Y-52291000D02*
G01*
X81379000Y-52291000D01*
X81379000Y-51089000D01*
X83481000Y-51089000D01*
X83481000Y-52291000D01*
G37*
G36*
X88681000Y-52291000D02*
G01*
X86579000Y-52291000D01*
X86579000Y-51089000D01*
X88681000Y-51089000D01*
X88681000Y-52291000D01*
G37*
G36*
X93481000Y-52291000D02*
G01*
X91379000Y-52291000D01*
X91379000Y-51089000D01*
X93481000Y-51089000D01*
X93481000Y-52291000D01*
G37*
G36*
X98681000Y-52291000D02*
G01*
X96579000Y-52291000D01*
X96579000Y-51089000D01*
X98681000Y-51089000D01*
X98681000Y-52291000D01*
G37*
G36*
X103481000Y-52291000D02*
G01*
X101379000Y-52291000D01*
X101379000Y-51089000D01*
X103481000Y-51089000D01*
X103481000Y-52291000D01*
G37*
G36*
X108681000Y-52291000D02*
G01*
X106579000Y-52291000D01*
X106579000Y-51089000D01*
X108681000Y-51089000D01*
X108681000Y-52291000D01*
G37*
G36*
X113481000Y-52291000D02*
G01*
X111379000Y-52291000D01*
X111379000Y-51089000D01*
X113481000Y-51089000D01*
X113481000Y-52291000D01*
G37*
G36*
X118681000Y-52291000D02*
G01*
X116579000Y-52291000D01*
X116579000Y-51089000D01*
X118681000Y-51089000D01*
X118681000Y-52291000D01*
G37*
G36*
X173481000Y-52291000D02*
G01*
X171379000Y-52291000D01*
X171379000Y-51089000D01*
X173481000Y-51089000D01*
X173481000Y-52291000D01*
G37*
G36*
X123481000Y-52291000D02*
G01*
X121379000Y-52291000D01*
X121379000Y-51089000D01*
X123481000Y-51089000D01*
X123481000Y-52291000D01*
G37*
G36*
X128681000Y-52291000D02*
G01*
X126579000Y-52291000D01*
X126579000Y-51089000D01*
X128681000Y-51089000D01*
X128681000Y-52291000D01*
G37*
G36*
X133481000Y-52291000D02*
G01*
X131379000Y-52291000D01*
X131379000Y-51089000D01*
X133481000Y-51089000D01*
X133481000Y-52291000D01*
G37*
G36*
X138681000Y-52291000D02*
G01*
X136579000Y-52291000D01*
X136579000Y-51089000D01*
X138681000Y-51089000D01*
X138681000Y-52291000D01*
G37*
G36*
X143481000Y-52291000D02*
G01*
X141379000Y-52291000D01*
X141379000Y-51089000D01*
X143481000Y-51089000D01*
X143481000Y-52291000D01*
G37*
G36*
X148681000Y-52291000D02*
G01*
X146579000Y-52291000D01*
X146579000Y-51089000D01*
X148681000Y-51089000D01*
X148681000Y-52291000D01*
G37*
G36*
X153481000Y-52291000D02*
G01*
X151379000Y-52291000D01*
X151379000Y-51089000D01*
X153481000Y-51089000D01*
X153481000Y-52291000D01*
G37*
G36*
X163481000Y-52291000D02*
G01*
X161379000Y-52291000D01*
X161379000Y-51089000D01*
X163481000Y-51089000D01*
X163481000Y-52291000D01*
G37*
G36*
X168681000Y-52291000D02*
G01*
X166579000Y-52291000D01*
X166579000Y-51089000D01*
X168681000Y-51089000D01*
X168681000Y-52291000D01*
G37*
G36*
X178681000Y-52291000D02*
G01*
X176579000Y-52291000D01*
X176579000Y-51089000D01*
X178681000Y-51089000D01*
X178681000Y-52291000D01*
G37*
G36*
X183481000Y-52291000D02*
G01*
X181379000Y-52291000D01*
X181379000Y-51089000D01*
X183481000Y-51089000D01*
X183481000Y-52291000D01*
G37*
G36*
X188681000Y-52291000D02*
G01*
X186579000Y-52291000D01*
X186579000Y-51089000D01*
X188681000Y-51089000D01*
X188681000Y-52291000D01*
G37*
G36*
X193481000Y-52291000D02*
G01*
X191379000Y-52291000D01*
X191379000Y-51089000D01*
X193481000Y-51089000D01*
X193481000Y-52291000D01*
G37*
G36*
X198681000Y-52291000D02*
G01*
X196579000Y-52291000D01*
X196579000Y-51089000D01*
X198681000Y-51089000D01*
X198681000Y-52291000D01*
G37*
G36*
X203481000Y-52291000D02*
G01*
X201379000Y-52291000D01*
X201379000Y-51089000D01*
X203481000Y-51089000D01*
X203481000Y-52291000D01*
G37*
G36*
X183481000Y-50591000D02*
G01*
X181379000Y-50591000D01*
X181379000Y-49389000D01*
X183481000Y-49389000D01*
X183481000Y-50591000D01*
G37*
G36*
X178681000Y-50591000D02*
G01*
X176579000Y-50591000D01*
X176579000Y-49389000D01*
X178681000Y-49389000D01*
X178681000Y-50591000D01*
G37*
G36*
X193481000Y-50591000D02*
G01*
X191379000Y-50591000D01*
X191379000Y-49389000D01*
X193481000Y-49389000D01*
X193481000Y-50591000D01*
G37*
G36*
X188681000Y-50591000D02*
G01*
X186579000Y-50591000D01*
X186579000Y-49389000D01*
X188681000Y-49389000D01*
X188681000Y-50591000D01*
G37*
G36*
X203481000Y-50591000D02*
G01*
X201379000Y-50591000D01*
X201379000Y-49389000D01*
X203481000Y-49389000D01*
X203481000Y-50591000D01*
G37*
G36*
X168681000Y-50591000D02*
G01*
X166579000Y-50591000D01*
X166579000Y-49389000D01*
X168681000Y-49389000D01*
X168681000Y-50591000D01*
G37*
G36*
X198681000Y-50591000D02*
G01*
X196579000Y-50591000D01*
X196579000Y-49389000D01*
X198681000Y-49389000D01*
X198681000Y-50591000D01*
G37*
G36*
X78681000Y-50591000D02*
G01*
X76579000Y-50591000D01*
X76579000Y-49389000D01*
X78681000Y-49389000D01*
X78681000Y-50591000D01*
G37*
G36*
X83481000Y-50591000D02*
G01*
X81379000Y-50591000D01*
X81379000Y-49389000D01*
X83481000Y-49389000D01*
X83481000Y-50591000D01*
G37*
G36*
X88681000Y-50591000D02*
G01*
X86579000Y-50591000D01*
X86579000Y-49389000D01*
X88681000Y-49389000D01*
X88681000Y-50591000D01*
G37*
G36*
X173481000Y-50591000D02*
G01*
X171379000Y-50591000D01*
X171379000Y-49389000D01*
X173481000Y-49389000D01*
X173481000Y-50591000D01*
G37*
G36*
X93481000Y-50591000D02*
G01*
X91379000Y-50591000D01*
X91379000Y-49389000D01*
X93481000Y-49389000D01*
X93481000Y-50591000D01*
G37*
G36*
X98681000Y-50591000D02*
G01*
X96579000Y-50591000D01*
X96579000Y-49389000D01*
X98681000Y-49389000D01*
X98681000Y-50591000D01*
G37*
G36*
X103481000Y-50591000D02*
G01*
X101379000Y-50591000D01*
X101379000Y-49389000D01*
X103481000Y-49389000D01*
X103481000Y-50591000D01*
G37*
G36*
X108681000Y-50591000D02*
G01*
X106579000Y-50591000D01*
X106579000Y-49389000D01*
X108681000Y-49389000D01*
X108681000Y-50591000D01*
G37*
G36*
X113481000Y-50591000D02*
G01*
X111379000Y-50591000D01*
X111379000Y-49389000D01*
X113481000Y-49389000D01*
X113481000Y-50591000D01*
G37*
G36*
X118681000Y-50591000D02*
G01*
X116579000Y-50591000D01*
X116579000Y-49389000D01*
X118681000Y-49389000D01*
X118681000Y-50591000D01*
G37*
G36*
X158681000Y-50591000D02*
G01*
X156579000Y-50591000D01*
X156579000Y-49389000D01*
X158681000Y-49389000D01*
X158681000Y-50591000D01*
G37*
G36*
X123481000Y-50591000D02*
G01*
X121379000Y-50591000D01*
X121379000Y-49389000D01*
X123481000Y-49389000D01*
X123481000Y-50591000D01*
G37*
G36*
X128681000Y-50591000D02*
G01*
X126579000Y-50591000D01*
X126579000Y-49389000D01*
X128681000Y-49389000D01*
X128681000Y-50591000D01*
G37*
G36*
X133481000Y-50591000D02*
G01*
X131379000Y-50591000D01*
X131379000Y-49389000D01*
X133481000Y-49389000D01*
X133481000Y-50591000D01*
G37*
G36*
X138681000Y-50591000D02*
G01*
X136579000Y-50591000D01*
X136579000Y-49389000D01*
X138681000Y-49389000D01*
X138681000Y-50591000D01*
G37*
G36*
X38681000Y-50591000D02*
G01*
X36579000Y-50591000D01*
X36579000Y-49389000D01*
X38681000Y-49389000D01*
X38681000Y-50591000D01*
G37*
G36*
X43481000Y-50591000D02*
G01*
X41379000Y-50591000D01*
X41379000Y-49389000D01*
X43481000Y-49389000D01*
X43481000Y-50591000D01*
G37*
G36*
X143481000Y-50591000D02*
G01*
X141379000Y-50591000D01*
X141379000Y-49389000D01*
X143481000Y-49389000D01*
X143481000Y-50591000D01*
G37*
G36*
X148681000Y-50591000D02*
G01*
X146579000Y-50591000D01*
X146579000Y-49389000D01*
X148681000Y-49389000D01*
X148681000Y-50591000D01*
G37*
G36*
X153481000Y-50591000D02*
G01*
X151379000Y-50591000D01*
X151379000Y-49389000D01*
X153481000Y-49389000D01*
X153481000Y-50591000D01*
G37*
G36*
X48681000Y-50591000D02*
G01*
X46579000Y-50591000D01*
X46579000Y-49389000D01*
X48681000Y-49389000D01*
X48681000Y-50591000D01*
G37*
G36*
X53481000Y-50591000D02*
G01*
X51379000Y-50591000D01*
X51379000Y-49389000D01*
X53481000Y-49389000D01*
X53481000Y-50591000D01*
G37*
G36*
X163481000Y-50591000D02*
G01*
X161379000Y-50591000D01*
X161379000Y-49389000D01*
X163481000Y-49389000D01*
X163481000Y-50591000D01*
G37*
G36*
X58681000Y-50591000D02*
G01*
X56579000Y-50591000D01*
X56579000Y-49389000D01*
X58681000Y-49389000D01*
X58681000Y-50591000D01*
G37*
G36*
X63481000Y-50591000D02*
G01*
X61379000Y-50591000D01*
X61379000Y-49389000D01*
X63481000Y-49389000D01*
X63481000Y-50591000D01*
G37*
G36*
X68681000Y-50591000D02*
G01*
X66579000Y-50591000D01*
X66579000Y-49389000D01*
X68681000Y-49389000D01*
X68681000Y-50591000D01*
G37*
G36*
X73481000Y-50591000D02*
G01*
X71379000Y-50591000D01*
X71379000Y-49389000D01*
X73481000Y-49389000D01*
X73481000Y-50591000D01*
G37*
G36*
X133481000Y-48891000D02*
G01*
X131379000Y-48891000D01*
X131379000Y-47689000D01*
X133481000Y-47689000D01*
X133481000Y-48891000D01*
G37*
G36*
X128681000Y-48891000D02*
G01*
X126579000Y-48891000D01*
X126579000Y-47689000D01*
X128681000Y-47689000D01*
X128681000Y-48891000D01*
G37*
G36*
X38681000Y-48891000D02*
G01*
X36579000Y-48891000D01*
X36579000Y-47689000D01*
X38681000Y-47689000D01*
X38681000Y-48891000D01*
G37*
G36*
X43481000Y-48891000D02*
G01*
X41379000Y-48891000D01*
X41379000Y-47689000D01*
X43481000Y-47689000D01*
X43481000Y-48891000D01*
G37*
G36*
X53481000Y-48891000D02*
G01*
X51379000Y-48891000D01*
X51379000Y-47689000D01*
X53481000Y-47689000D01*
X53481000Y-48891000D01*
G37*
G36*
X48681000Y-48891000D02*
G01*
X46579000Y-48891000D01*
X46579000Y-47689000D01*
X48681000Y-47689000D01*
X48681000Y-48891000D01*
G37*
G36*
X118681000Y-48891000D02*
G01*
X116579000Y-48891000D01*
X116579000Y-47689000D01*
X118681000Y-47689000D01*
X118681000Y-48891000D01*
G37*
G36*
X123481000Y-48891000D02*
G01*
X121379000Y-48891000D01*
X121379000Y-47689000D01*
X123481000Y-47689000D01*
X123481000Y-48891000D01*
G37*
G36*
X63481000Y-48891000D02*
G01*
X61379000Y-48891000D01*
X61379000Y-47689000D01*
X63481000Y-47689000D01*
X63481000Y-48891000D01*
G37*
G36*
X58681000Y-48891000D02*
G01*
X56579000Y-48891000D01*
X56579000Y-47689000D01*
X58681000Y-47689000D01*
X58681000Y-48891000D01*
G37*
G36*
X143481000Y-48891000D02*
G01*
X141379000Y-48891000D01*
X141379000Y-47689000D01*
X143481000Y-47689000D01*
X143481000Y-48891000D01*
G37*
G36*
X138681000Y-48891000D02*
G01*
X136579000Y-48891000D01*
X136579000Y-47689000D01*
X138681000Y-47689000D01*
X138681000Y-48891000D01*
G37*
G36*
X73481000Y-48891000D02*
G01*
X71379000Y-48891000D01*
X71379000Y-47689000D01*
X73481000Y-47689000D01*
X73481000Y-48891000D01*
G37*
G36*
X68681000Y-48891000D02*
G01*
X66579000Y-48891000D01*
X66579000Y-47689000D01*
X68681000Y-47689000D01*
X68681000Y-48891000D01*
G37*
G36*
X83481000Y-48891000D02*
G01*
X81379000Y-48891000D01*
X81379000Y-47689000D01*
X83481000Y-47689000D01*
X83481000Y-48891000D01*
G37*
G36*
X78681000Y-48891000D02*
G01*
X76579000Y-48891000D01*
X76579000Y-47689000D01*
X78681000Y-47689000D01*
X78681000Y-48891000D01*
G37*
G36*
X93481000Y-48891000D02*
G01*
X91379000Y-48891000D01*
X91379000Y-47689000D01*
X93481000Y-47689000D01*
X93481000Y-48891000D01*
G37*
G36*
X88681000Y-48891000D02*
G01*
X86579000Y-48891000D01*
X86579000Y-47689000D01*
X88681000Y-47689000D01*
X88681000Y-48891000D01*
G37*
G36*
X153481000Y-48891000D02*
G01*
X151379000Y-48891000D01*
X151379000Y-47689000D01*
X153481000Y-47689000D01*
X153481000Y-48891000D01*
G37*
G36*
X103481000Y-48891000D02*
G01*
X101379000Y-48891000D01*
X101379000Y-47689000D01*
X103481000Y-47689000D01*
X103481000Y-48891000D01*
G37*
G36*
X148681000Y-48891000D02*
G01*
X146579000Y-48891000D01*
X146579000Y-47689000D01*
X148681000Y-47689000D01*
X148681000Y-48891000D01*
G37*
G36*
X98681000Y-48891000D02*
G01*
X96579000Y-48891000D01*
X96579000Y-47689000D01*
X98681000Y-47689000D01*
X98681000Y-48891000D01*
G37*
G36*
X108681000Y-48891000D02*
G01*
X106579000Y-48891000D01*
X106579000Y-47689000D01*
X108681000Y-47689000D01*
X108681000Y-48891000D01*
G37*
G36*
X113481000Y-48891000D02*
G01*
X111379000Y-48891000D01*
X111379000Y-47689000D01*
X113481000Y-47689000D01*
X113481000Y-48891000D01*
G37*
G36*
X163481000Y-48891000D02*
G01*
X161379000Y-48891000D01*
X161379000Y-47689000D01*
X163481000Y-47689000D01*
X163481000Y-48891000D01*
G37*
G36*
X158681000Y-48891000D02*
G01*
X156579000Y-48891000D01*
X156579000Y-47689000D01*
X158681000Y-47689000D01*
X158681000Y-48891000D01*
G37*
G36*
X203481000Y-48891000D02*
G01*
X201379000Y-48891000D01*
X201379000Y-47689000D01*
X203481000Y-47689000D01*
X203481000Y-48891000D01*
G37*
G36*
X198681000Y-48891000D02*
G01*
X196579000Y-48891000D01*
X196579000Y-47689000D01*
X198681000Y-47689000D01*
X198681000Y-48891000D01*
G37*
G36*
X193481000Y-48891000D02*
G01*
X191379000Y-48891000D01*
X191379000Y-47689000D01*
X193481000Y-47689000D01*
X193481000Y-48891000D01*
G37*
G36*
X188681000Y-48891000D02*
G01*
X186579000Y-48891000D01*
X186579000Y-47689000D01*
X188681000Y-47689000D01*
X188681000Y-48891000D01*
G37*
G36*
X173481000Y-48891000D02*
G01*
X171379000Y-48891000D01*
X171379000Y-47689000D01*
X173481000Y-47689000D01*
X173481000Y-48891000D01*
G37*
G36*
X168681000Y-48891000D02*
G01*
X166579000Y-48891000D01*
X166579000Y-47689000D01*
X168681000Y-47689000D01*
X168681000Y-48891000D01*
G37*
G36*
X183481000Y-48891000D02*
G01*
X181379000Y-48891000D01*
X181379000Y-47689000D01*
X183481000Y-47689000D01*
X183481000Y-48891000D01*
G37*
G36*
X178681000Y-48891000D02*
G01*
X176579000Y-48891000D01*
X176579000Y-47689000D01*
X178681000Y-47689000D01*
X178681000Y-48891000D01*
G37*
G36*
X201159591Y-43178085D02*
G01*
X201193569Y-43188393D01*
X201224890Y-43205134D01*
X201252339Y-43227661D01*
X201274866Y-43255110D01*
X201291607Y-43286431D01*
X201301915Y-43320409D01*
X201306000Y-43361890D01*
X201306000Y-44038110D01*
X201301915Y-44079591D01*
X201291607Y-44113569D01*
X201274866Y-44144890D01*
X201252339Y-44172339D01*
X201224890Y-44194866D01*
X201193569Y-44211607D01*
X201159591Y-44221915D01*
X201118110Y-44226000D01*
X200516890Y-44226000D01*
X200475409Y-44221915D01*
X200441431Y-44211607D01*
X200410110Y-44194866D01*
X200382661Y-44172339D01*
X200360134Y-44144890D01*
X200343393Y-44113569D01*
X200333085Y-44079591D01*
X200329000Y-44038110D01*
X200329000Y-43361890D01*
X200333085Y-43320409D01*
X200343393Y-43286431D01*
X200360134Y-43255110D01*
X200382661Y-43227661D01*
X200410110Y-43205134D01*
X200441431Y-43188393D01*
X200475409Y-43178085D01*
X200516890Y-43174000D01*
X201118110Y-43174000D01*
X201159591Y-43178085D01*
G37*
G36*
X181159591Y-43178085D02*
G01*
X181193569Y-43188393D01*
X181224890Y-43205134D01*
X181252339Y-43227661D01*
X181274866Y-43255110D01*
X181291607Y-43286431D01*
X181301915Y-43320409D01*
X181306000Y-43361890D01*
X181306000Y-44038110D01*
X181301915Y-44079591D01*
X181291607Y-44113569D01*
X181274866Y-44144890D01*
X181252339Y-44172339D01*
X181224890Y-44194866D01*
X181193569Y-44211607D01*
X181159591Y-44221915D01*
X181118110Y-44226000D01*
X180516890Y-44226000D01*
X180475409Y-44221915D01*
X180441431Y-44211607D01*
X180410110Y-44194866D01*
X180382661Y-44172339D01*
X180360134Y-44144890D01*
X180343393Y-44113569D01*
X180333085Y-44079591D01*
X180329000Y-44038110D01*
X180329000Y-43361890D01*
X180333085Y-43320409D01*
X180343393Y-43286431D01*
X180360134Y-43255110D01*
X180382661Y-43227661D01*
X180410110Y-43205134D01*
X180441431Y-43188393D01*
X180475409Y-43178085D01*
X180516890Y-43174000D01*
X181118110Y-43174000D01*
X181159591Y-43178085D01*
G37*
G36*
X179584591Y-43178085D02*
G01*
X179618569Y-43188393D01*
X179649890Y-43205134D01*
X179677339Y-43227661D01*
X179699866Y-43255110D01*
X179716607Y-43286431D01*
X179726915Y-43320409D01*
X179731000Y-43361890D01*
X179731000Y-44038110D01*
X179726915Y-44079591D01*
X179716607Y-44113569D01*
X179699866Y-44144890D01*
X179677339Y-44172339D01*
X179649890Y-44194866D01*
X179618569Y-44211607D01*
X179584591Y-44221915D01*
X179543110Y-44226000D01*
X178941890Y-44226000D01*
X178900409Y-44221915D01*
X178866431Y-44211607D01*
X178835110Y-44194866D01*
X178807661Y-44172339D01*
X178785134Y-44144890D01*
X178768393Y-44113569D01*
X178758085Y-44079591D01*
X178754000Y-44038110D01*
X178754000Y-43361890D01*
X178758085Y-43320409D01*
X178768393Y-43286431D01*
X178785134Y-43255110D01*
X178807661Y-43227661D01*
X178835110Y-43205134D01*
X178866431Y-43188393D01*
X178900409Y-43178085D01*
X178941890Y-43174000D01*
X179543110Y-43174000D01*
X179584591Y-43178085D01*
G37*
G36*
X161159591Y-43178085D02*
G01*
X161193569Y-43188393D01*
X161224890Y-43205134D01*
X161252339Y-43227661D01*
X161274866Y-43255110D01*
X161291607Y-43286431D01*
X161301915Y-43320409D01*
X161306000Y-43361890D01*
X161306000Y-44038110D01*
X161301915Y-44079591D01*
X161291607Y-44113569D01*
X161274866Y-44144890D01*
X161252339Y-44172339D01*
X161224890Y-44194866D01*
X161193569Y-44211607D01*
X161159591Y-44221915D01*
X161118110Y-44226000D01*
X160516890Y-44226000D01*
X160475409Y-44221915D01*
X160441431Y-44211607D01*
X160410110Y-44194866D01*
X160382661Y-44172339D01*
X160360134Y-44144890D01*
X160343393Y-44113569D01*
X160333085Y-44079591D01*
X160329000Y-44038110D01*
X160329000Y-43361890D01*
X160333085Y-43320409D01*
X160343393Y-43286431D01*
X160360134Y-43255110D01*
X160382661Y-43227661D01*
X160410110Y-43205134D01*
X160441431Y-43188393D01*
X160475409Y-43178085D01*
X160516890Y-43174000D01*
X161118110Y-43174000D01*
X161159591Y-43178085D01*
G37*
G36*
X159584591Y-43178085D02*
G01*
X159618569Y-43188393D01*
X159649890Y-43205134D01*
X159677339Y-43227661D01*
X159699866Y-43255110D01*
X159716607Y-43286431D01*
X159726915Y-43320409D01*
X159731000Y-43361890D01*
X159731000Y-44038110D01*
X159726915Y-44079591D01*
X159716607Y-44113569D01*
X159699866Y-44144890D01*
X159677339Y-44172339D01*
X159649890Y-44194866D01*
X159618569Y-44211607D01*
X159584591Y-44221915D01*
X159543110Y-44226000D01*
X158941890Y-44226000D01*
X158900409Y-44221915D01*
X158866431Y-44211607D01*
X158835110Y-44194866D01*
X158807661Y-44172339D01*
X158785134Y-44144890D01*
X158768393Y-44113569D01*
X158758085Y-44079591D01*
X158754000Y-44038110D01*
X158754000Y-43361890D01*
X158758085Y-43320409D01*
X158768393Y-43286431D01*
X158785134Y-43255110D01*
X158807661Y-43227661D01*
X158835110Y-43205134D01*
X158866431Y-43188393D01*
X158900409Y-43178085D01*
X158941890Y-43174000D01*
X159543110Y-43174000D01*
X159584591Y-43178085D01*
G37*
G36*
X141159591Y-43178085D02*
G01*
X141193569Y-43188393D01*
X141224890Y-43205134D01*
X141252339Y-43227661D01*
X141274866Y-43255110D01*
X141291607Y-43286431D01*
X141301915Y-43320409D01*
X141306000Y-43361890D01*
X141306000Y-44038110D01*
X141301915Y-44079591D01*
X141291607Y-44113569D01*
X141274866Y-44144890D01*
X141252339Y-44172339D01*
X141224890Y-44194866D01*
X141193569Y-44211607D01*
X141159591Y-44221915D01*
X141118110Y-44226000D01*
X140516890Y-44226000D01*
X140475409Y-44221915D01*
X140441431Y-44211607D01*
X140410110Y-44194866D01*
X140382661Y-44172339D01*
X140360134Y-44144890D01*
X140343393Y-44113569D01*
X140333085Y-44079591D01*
X140329000Y-44038110D01*
X140329000Y-43361890D01*
X140333085Y-43320409D01*
X140343393Y-43286431D01*
X140360134Y-43255110D01*
X140382661Y-43227661D01*
X140410110Y-43205134D01*
X140441431Y-43188393D01*
X140475409Y-43178085D01*
X140516890Y-43174000D01*
X141118110Y-43174000D01*
X141159591Y-43178085D01*
G37*
G36*
X139584591Y-43178085D02*
G01*
X139618569Y-43188393D01*
X139649890Y-43205134D01*
X139677339Y-43227661D01*
X139699866Y-43255110D01*
X139716607Y-43286431D01*
X139726915Y-43320409D01*
X139731000Y-43361890D01*
X139731000Y-44038110D01*
X139726915Y-44079591D01*
X139716607Y-44113569D01*
X139699866Y-44144890D01*
X139677339Y-44172339D01*
X139649890Y-44194866D01*
X139618569Y-44211607D01*
X139584591Y-44221915D01*
X139543110Y-44226000D01*
X138941890Y-44226000D01*
X138900409Y-44221915D01*
X138866431Y-44211607D01*
X138835110Y-44194866D01*
X138807661Y-44172339D01*
X138785134Y-44144890D01*
X138768393Y-44113569D01*
X138758085Y-44079591D01*
X138754000Y-44038110D01*
X138754000Y-43361890D01*
X138758085Y-43320409D01*
X138768393Y-43286431D01*
X138785134Y-43255110D01*
X138807661Y-43227661D01*
X138835110Y-43205134D01*
X138866431Y-43188393D01*
X138900409Y-43178085D01*
X138941890Y-43174000D01*
X139543110Y-43174000D01*
X139584591Y-43178085D01*
G37*
G36*
X39584591Y-43178085D02*
G01*
X39618569Y-43188393D01*
X39649890Y-43205134D01*
X39677339Y-43227661D01*
X39699866Y-43255110D01*
X39716607Y-43286431D01*
X39726915Y-43320409D01*
X39731000Y-43361890D01*
X39731000Y-44038110D01*
X39726915Y-44079591D01*
X39716607Y-44113569D01*
X39699866Y-44144890D01*
X39677339Y-44172339D01*
X39649890Y-44194866D01*
X39618569Y-44211607D01*
X39584591Y-44221915D01*
X39543110Y-44226000D01*
X38941890Y-44226000D01*
X38900409Y-44221915D01*
X38866431Y-44211607D01*
X38835110Y-44194866D01*
X38807661Y-44172339D01*
X38785134Y-44144890D01*
X38768393Y-44113569D01*
X38758085Y-44079591D01*
X38754000Y-44038110D01*
X38754000Y-43361890D01*
X38758085Y-43320409D01*
X38768393Y-43286431D01*
X38785134Y-43255110D01*
X38807661Y-43227661D01*
X38835110Y-43205134D01*
X38866431Y-43188393D01*
X38900409Y-43178085D01*
X38941890Y-43174000D01*
X39543110Y-43174000D01*
X39584591Y-43178085D01*
G37*
G36*
X199584591Y-43178085D02*
G01*
X199618569Y-43188393D01*
X199649890Y-43205134D01*
X199677339Y-43227661D01*
X199699866Y-43255110D01*
X199716607Y-43286431D01*
X199726915Y-43320409D01*
X199731000Y-43361890D01*
X199731000Y-44038110D01*
X199726915Y-44079591D01*
X199716607Y-44113569D01*
X199699866Y-44144890D01*
X199677339Y-44172339D01*
X199649890Y-44194866D01*
X199618569Y-44211607D01*
X199584591Y-44221915D01*
X199543110Y-44226000D01*
X198941890Y-44226000D01*
X198900409Y-44221915D01*
X198866431Y-44211607D01*
X198835110Y-44194866D01*
X198807661Y-44172339D01*
X198785134Y-44144890D01*
X198768393Y-44113569D01*
X198758085Y-44079591D01*
X198754000Y-44038110D01*
X198754000Y-43361890D01*
X198758085Y-43320409D01*
X198768393Y-43286431D01*
X198785134Y-43255110D01*
X198807661Y-43227661D01*
X198835110Y-43205134D01*
X198866431Y-43188393D01*
X198900409Y-43178085D01*
X198941890Y-43174000D01*
X199543110Y-43174000D01*
X199584591Y-43178085D01*
G37*
G36*
X121159591Y-43178085D02*
G01*
X121193569Y-43188393D01*
X121224890Y-43205134D01*
X121252339Y-43227661D01*
X121274866Y-43255110D01*
X121291607Y-43286431D01*
X121301915Y-43320409D01*
X121306000Y-43361890D01*
X121306000Y-44038110D01*
X121301915Y-44079591D01*
X121291607Y-44113569D01*
X121274866Y-44144890D01*
X121252339Y-44172339D01*
X121224890Y-44194866D01*
X121193569Y-44211607D01*
X121159591Y-44221915D01*
X121118110Y-44226000D01*
X120516890Y-44226000D01*
X120475409Y-44221915D01*
X120441431Y-44211607D01*
X120410110Y-44194866D01*
X120382661Y-44172339D01*
X120360134Y-44144890D01*
X120343393Y-44113569D01*
X120333085Y-44079591D01*
X120329000Y-44038110D01*
X120329000Y-43361890D01*
X120333085Y-43320409D01*
X120343393Y-43286431D01*
X120360134Y-43255110D01*
X120382661Y-43227661D01*
X120410110Y-43205134D01*
X120441431Y-43188393D01*
X120475409Y-43178085D01*
X120516890Y-43174000D01*
X121118110Y-43174000D01*
X121159591Y-43178085D01*
G37*
G36*
X119584591Y-43178085D02*
G01*
X119618569Y-43188393D01*
X119649890Y-43205134D01*
X119677339Y-43227661D01*
X119699866Y-43255110D01*
X119716607Y-43286431D01*
X119726915Y-43320409D01*
X119731000Y-43361890D01*
X119731000Y-44038110D01*
X119726915Y-44079591D01*
X119716607Y-44113569D01*
X119699866Y-44144890D01*
X119677339Y-44172339D01*
X119649890Y-44194866D01*
X119618569Y-44211607D01*
X119584591Y-44221915D01*
X119543110Y-44226000D01*
X118941890Y-44226000D01*
X118900409Y-44221915D01*
X118866431Y-44211607D01*
X118835110Y-44194866D01*
X118807661Y-44172339D01*
X118785134Y-44144890D01*
X118768393Y-44113569D01*
X118758085Y-44079591D01*
X118754000Y-44038110D01*
X118754000Y-43361890D01*
X118758085Y-43320409D01*
X118768393Y-43286431D01*
X118785134Y-43255110D01*
X118807661Y-43227661D01*
X118835110Y-43205134D01*
X118866431Y-43188393D01*
X118900409Y-43178085D01*
X118941890Y-43174000D01*
X119543110Y-43174000D01*
X119584591Y-43178085D01*
G37*
G36*
X101159591Y-43178085D02*
G01*
X101193569Y-43188393D01*
X101224890Y-43205134D01*
X101252339Y-43227661D01*
X101274866Y-43255110D01*
X101291607Y-43286431D01*
X101301915Y-43320409D01*
X101306000Y-43361890D01*
X101306000Y-44038110D01*
X101301915Y-44079591D01*
X101291607Y-44113569D01*
X101274866Y-44144890D01*
X101252339Y-44172339D01*
X101224890Y-44194866D01*
X101193569Y-44211607D01*
X101159591Y-44221915D01*
X101118110Y-44226000D01*
X100516890Y-44226000D01*
X100475409Y-44221915D01*
X100441431Y-44211607D01*
X100410110Y-44194866D01*
X100382661Y-44172339D01*
X100360134Y-44144890D01*
X100343393Y-44113569D01*
X100333085Y-44079591D01*
X100329000Y-44038110D01*
X100329000Y-43361890D01*
X100333085Y-43320409D01*
X100343393Y-43286431D01*
X100360134Y-43255110D01*
X100382661Y-43227661D01*
X100410110Y-43205134D01*
X100441431Y-43188393D01*
X100475409Y-43178085D01*
X100516890Y-43174000D01*
X101118110Y-43174000D01*
X101159591Y-43178085D01*
G37*
G36*
X99584591Y-43178085D02*
G01*
X99618569Y-43188393D01*
X99649890Y-43205134D01*
X99677339Y-43227661D01*
X99699866Y-43255110D01*
X99716607Y-43286431D01*
X99726915Y-43320409D01*
X99731000Y-43361890D01*
X99731000Y-44038110D01*
X99726915Y-44079591D01*
X99716607Y-44113569D01*
X99699866Y-44144890D01*
X99677339Y-44172339D01*
X99649890Y-44194866D01*
X99618569Y-44211607D01*
X99584591Y-44221915D01*
X99543110Y-44226000D01*
X98941890Y-44226000D01*
X98900409Y-44221915D01*
X98866431Y-44211607D01*
X98835110Y-44194866D01*
X98807661Y-44172339D01*
X98785134Y-44144890D01*
X98768393Y-44113569D01*
X98758085Y-44079591D01*
X98754000Y-44038110D01*
X98754000Y-43361890D01*
X98758085Y-43320409D01*
X98768393Y-43286431D01*
X98785134Y-43255110D01*
X98807661Y-43227661D01*
X98835110Y-43205134D01*
X98866431Y-43188393D01*
X98900409Y-43178085D01*
X98941890Y-43174000D01*
X99543110Y-43174000D01*
X99584591Y-43178085D01*
G37*
G36*
X81159591Y-43178085D02*
G01*
X81193569Y-43188393D01*
X81224890Y-43205134D01*
X81252339Y-43227661D01*
X81274866Y-43255110D01*
X81291607Y-43286431D01*
X81301915Y-43320409D01*
X81306000Y-43361890D01*
X81306000Y-44038110D01*
X81301915Y-44079591D01*
X81291607Y-44113569D01*
X81274866Y-44144890D01*
X81252339Y-44172339D01*
X81224890Y-44194866D01*
X81193569Y-44211607D01*
X81159591Y-44221915D01*
X81118110Y-44226000D01*
X80516890Y-44226000D01*
X80475409Y-44221915D01*
X80441431Y-44211607D01*
X80410110Y-44194866D01*
X80382661Y-44172339D01*
X80360134Y-44144890D01*
X80343393Y-44113569D01*
X80333085Y-44079591D01*
X80329000Y-44038110D01*
X80329000Y-43361890D01*
X80333085Y-43320409D01*
X80343393Y-43286431D01*
X80360134Y-43255110D01*
X80382661Y-43227661D01*
X80410110Y-43205134D01*
X80441431Y-43188393D01*
X80475409Y-43178085D01*
X80516890Y-43174000D01*
X81118110Y-43174000D01*
X81159591Y-43178085D01*
G37*
G36*
X79584591Y-43178085D02*
G01*
X79618569Y-43188393D01*
X79649890Y-43205134D01*
X79677339Y-43227661D01*
X79699866Y-43255110D01*
X79716607Y-43286431D01*
X79726915Y-43320409D01*
X79731000Y-43361890D01*
X79731000Y-44038110D01*
X79726915Y-44079591D01*
X79716607Y-44113569D01*
X79699866Y-44144890D01*
X79677339Y-44172339D01*
X79649890Y-44194866D01*
X79618569Y-44211607D01*
X79584591Y-44221915D01*
X79543110Y-44226000D01*
X78941890Y-44226000D01*
X78900409Y-44221915D01*
X78866431Y-44211607D01*
X78835110Y-44194866D01*
X78807661Y-44172339D01*
X78785134Y-44144890D01*
X78768393Y-44113569D01*
X78758085Y-44079591D01*
X78754000Y-44038110D01*
X78754000Y-43361890D01*
X78758085Y-43320409D01*
X78768393Y-43286431D01*
X78785134Y-43255110D01*
X78807661Y-43227661D01*
X78835110Y-43205134D01*
X78866431Y-43188393D01*
X78900409Y-43178085D01*
X78941890Y-43174000D01*
X79543110Y-43174000D01*
X79584591Y-43178085D01*
G37*
G36*
X61159591Y-43178085D02*
G01*
X61193569Y-43188393D01*
X61224890Y-43205134D01*
X61252339Y-43227661D01*
X61274866Y-43255110D01*
X61291607Y-43286431D01*
X61301915Y-43320409D01*
X61306000Y-43361890D01*
X61306000Y-44038110D01*
X61301915Y-44079591D01*
X61291607Y-44113569D01*
X61274866Y-44144890D01*
X61252339Y-44172339D01*
X61224890Y-44194866D01*
X61193569Y-44211607D01*
X61159591Y-44221915D01*
X61118110Y-44226000D01*
X60516890Y-44226000D01*
X60475409Y-44221915D01*
X60441431Y-44211607D01*
X60410110Y-44194866D01*
X60382661Y-44172339D01*
X60360134Y-44144890D01*
X60343393Y-44113569D01*
X60333085Y-44079591D01*
X60329000Y-44038110D01*
X60329000Y-43361890D01*
X60333085Y-43320409D01*
X60343393Y-43286431D01*
X60360134Y-43255110D01*
X60382661Y-43227661D01*
X60410110Y-43205134D01*
X60441431Y-43188393D01*
X60475409Y-43178085D01*
X60516890Y-43174000D01*
X61118110Y-43174000D01*
X61159591Y-43178085D01*
G37*
G36*
X59584591Y-43178085D02*
G01*
X59618569Y-43188393D01*
X59649890Y-43205134D01*
X59677339Y-43227661D01*
X59699866Y-43255110D01*
X59716607Y-43286431D01*
X59726915Y-43320409D01*
X59731000Y-43361890D01*
X59731000Y-44038110D01*
X59726915Y-44079591D01*
X59716607Y-44113569D01*
X59699866Y-44144890D01*
X59677339Y-44172339D01*
X59649890Y-44194866D01*
X59618569Y-44211607D01*
X59584591Y-44221915D01*
X59543110Y-44226000D01*
X58941890Y-44226000D01*
X58900409Y-44221915D01*
X58866431Y-44211607D01*
X58835110Y-44194866D01*
X58807661Y-44172339D01*
X58785134Y-44144890D01*
X58768393Y-44113569D01*
X58758085Y-44079591D01*
X58754000Y-44038110D01*
X58754000Y-43361890D01*
X58758085Y-43320409D01*
X58768393Y-43286431D01*
X58785134Y-43255110D01*
X58807661Y-43227661D01*
X58835110Y-43205134D01*
X58866431Y-43188393D01*
X58900409Y-43178085D01*
X58941890Y-43174000D01*
X59543110Y-43174000D01*
X59584591Y-43178085D01*
G37*
G36*
X41159591Y-43178085D02*
G01*
X41193569Y-43188393D01*
X41224890Y-43205134D01*
X41252339Y-43227661D01*
X41274866Y-43255110D01*
X41291607Y-43286431D01*
X41301915Y-43320409D01*
X41306000Y-43361890D01*
X41306000Y-44038110D01*
X41301915Y-44079591D01*
X41291607Y-44113569D01*
X41274866Y-44144890D01*
X41252339Y-44172339D01*
X41224890Y-44194866D01*
X41193569Y-44211607D01*
X41159591Y-44221915D01*
X41118110Y-44226000D01*
X40516890Y-44226000D01*
X40475409Y-44221915D01*
X40441431Y-44211607D01*
X40410110Y-44194866D01*
X40382661Y-44172339D01*
X40360134Y-44144890D01*
X40343393Y-44113569D01*
X40333085Y-44079591D01*
X40329000Y-44038110D01*
X40329000Y-43361890D01*
X40333085Y-43320409D01*
X40343393Y-43286431D01*
X40360134Y-43255110D01*
X40382661Y-43227661D01*
X40410110Y-43205134D01*
X40441431Y-43188393D01*
X40475409Y-43178085D01*
X40516890Y-43174000D01*
X41118110Y-43174000D01*
X41159591Y-43178085D01*
G37*
G36*
X203481000Y-42291000D02*
G01*
X201379000Y-42291000D01*
X201379000Y-41089000D01*
X203481000Y-41089000D01*
X203481000Y-42291000D01*
G37*
G36*
X198681000Y-42291000D02*
G01*
X196579000Y-42291000D01*
X196579000Y-41089000D01*
X198681000Y-41089000D01*
X198681000Y-42291000D01*
G37*
G36*
X193481000Y-42291000D02*
G01*
X191379000Y-42291000D01*
X191379000Y-41089000D01*
X193481000Y-41089000D01*
X193481000Y-42291000D01*
G37*
G36*
X188681000Y-42291000D02*
G01*
X186579000Y-42291000D01*
X186579000Y-41089000D01*
X188681000Y-41089000D01*
X188681000Y-42291000D01*
G37*
G36*
X183481000Y-42291000D02*
G01*
X181379000Y-42291000D01*
X181379000Y-41089000D01*
X183481000Y-41089000D01*
X183481000Y-42291000D01*
G37*
G36*
X178681000Y-42291000D02*
G01*
X176579000Y-42291000D01*
X176579000Y-41089000D01*
X178681000Y-41089000D01*
X178681000Y-42291000D01*
G37*
G36*
X173481000Y-42291000D02*
G01*
X171379000Y-42291000D01*
X171379000Y-41089000D01*
X173481000Y-41089000D01*
X173481000Y-42291000D01*
G37*
G36*
X168681000Y-42291000D02*
G01*
X166579000Y-42291000D01*
X166579000Y-41089000D01*
X168681000Y-41089000D01*
X168681000Y-42291000D01*
G37*
G36*
X163481000Y-42291000D02*
G01*
X161379000Y-42291000D01*
X161379000Y-41089000D01*
X163481000Y-41089000D01*
X163481000Y-42291000D01*
G37*
G36*
X158681000Y-42291000D02*
G01*
X156579000Y-42291000D01*
X156579000Y-41089000D01*
X158681000Y-41089000D01*
X158681000Y-42291000D01*
G37*
G36*
X153481000Y-42291000D02*
G01*
X151379000Y-42291000D01*
X151379000Y-41089000D01*
X153481000Y-41089000D01*
X153481000Y-42291000D01*
G37*
G36*
X148681000Y-42291000D02*
G01*
X146579000Y-42291000D01*
X146579000Y-41089000D01*
X148681000Y-41089000D01*
X148681000Y-42291000D01*
G37*
G36*
X143481000Y-42291000D02*
G01*
X141379000Y-42291000D01*
X141379000Y-41089000D01*
X143481000Y-41089000D01*
X143481000Y-42291000D01*
G37*
G36*
X138681000Y-42291000D02*
G01*
X136579000Y-42291000D01*
X136579000Y-41089000D01*
X138681000Y-41089000D01*
X138681000Y-42291000D01*
G37*
G36*
X133481000Y-42291000D02*
G01*
X131379000Y-42291000D01*
X131379000Y-41089000D01*
X133481000Y-41089000D01*
X133481000Y-42291000D01*
G37*
G36*
X128681000Y-42291000D02*
G01*
X126579000Y-42291000D01*
X126579000Y-41089000D01*
X128681000Y-41089000D01*
X128681000Y-42291000D01*
G37*
G36*
X123481000Y-42291000D02*
G01*
X121379000Y-42291000D01*
X121379000Y-41089000D01*
X123481000Y-41089000D01*
X123481000Y-42291000D01*
G37*
G36*
X118681000Y-42291000D02*
G01*
X116579000Y-42291000D01*
X116579000Y-41089000D01*
X118681000Y-41089000D01*
X118681000Y-42291000D01*
G37*
G36*
X113481000Y-42291000D02*
G01*
X111379000Y-42291000D01*
X111379000Y-41089000D01*
X113481000Y-41089000D01*
X113481000Y-42291000D01*
G37*
G36*
X108681000Y-42291000D02*
G01*
X106579000Y-42291000D01*
X106579000Y-41089000D01*
X108681000Y-41089000D01*
X108681000Y-42291000D01*
G37*
G36*
X103481000Y-42291000D02*
G01*
X101379000Y-42291000D01*
X101379000Y-41089000D01*
X103481000Y-41089000D01*
X103481000Y-42291000D01*
G37*
G36*
X98681000Y-42291000D02*
G01*
X96579000Y-42291000D01*
X96579000Y-41089000D01*
X98681000Y-41089000D01*
X98681000Y-42291000D01*
G37*
G36*
X93481000Y-42291000D02*
G01*
X91379000Y-42291000D01*
X91379000Y-41089000D01*
X93481000Y-41089000D01*
X93481000Y-42291000D01*
G37*
G36*
X88681000Y-42291000D02*
G01*
X86579000Y-42291000D01*
X86579000Y-41089000D01*
X88681000Y-41089000D01*
X88681000Y-42291000D01*
G37*
G36*
X83481000Y-42291000D02*
G01*
X81379000Y-42291000D01*
X81379000Y-41089000D01*
X83481000Y-41089000D01*
X83481000Y-42291000D01*
G37*
G36*
X78681000Y-42291000D02*
G01*
X76579000Y-42291000D01*
X76579000Y-41089000D01*
X78681000Y-41089000D01*
X78681000Y-42291000D01*
G37*
G36*
X73481000Y-42291000D02*
G01*
X71379000Y-42291000D01*
X71379000Y-41089000D01*
X73481000Y-41089000D01*
X73481000Y-42291000D01*
G37*
G36*
X68681000Y-42291000D02*
G01*
X66579000Y-42291000D01*
X66579000Y-41089000D01*
X68681000Y-41089000D01*
X68681000Y-42291000D01*
G37*
G36*
X63481000Y-42291000D02*
G01*
X61379000Y-42291000D01*
X61379000Y-41089000D01*
X63481000Y-41089000D01*
X63481000Y-42291000D01*
G37*
G36*
X58681000Y-42291000D02*
G01*
X56579000Y-42291000D01*
X56579000Y-41089000D01*
X58681000Y-41089000D01*
X58681000Y-42291000D01*
G37*
G36*
X53481000Y-42291000D02*
G01*
X51379000Y-42291000D01*
X51379000Y-41089000D01*
X53481000Y-41089000D01*
X53481000Y-42291000D01*
G37*
G36*
X48681000Y-42291000D02*
G01*
X46579000Y-42291000D01*
X46579000Y-41089000D01*
X48681000Y-41089000D01*
X48681000Y-42291000D01*
G37*
G36*
X43481000Y-42291000D02*
G01*
X41379000Y-42291000D01*
X41379000Y-41089000D01*
X43481000Y-41089000D01*
X43481000Y-42291000D01*
G37*
G36*
X38681000Y-42291000D02*
G01*
X36579000Y-42291000D01*
X36579000Y-41089000D01*
X38681000Y-41089000D01*
X38681000Y-42291000D01*
G37*
G36*
X128681000Y-40591000D02*
G01*
X126579000Y-40591000D01*
X126579000Y-39389000D01*
X128681000Y-39389000D01*
X128681000Y-40591000D01*
G37*
G36*
X53481000Y-40591000D02*
G01*
X51379000Y-40591000D01*
X51379000Y-39389000D01*
X53481000Y-39389000D01*
X53481000Y-40591000D01*
G37*
G36*
X48681000Y-40591000D02*
G01*
X46579000Y-40591000D01*
X46579000Y-39389000D01*
X48681000Y-39389000D01*
X48681000Y-40591000D01*
G37*
G36*
X38681000Y-40591000D02*
G01*
X36579000Y-40591000D01*
X36579000Y-39389000D01*
X38681000Y-39389000D01*
X38681000Y-40591000D01*
G37*
G36*
X43481000Y-40591000D02*
G01*
X41379000Y-40591000D01*
X41379000Y-39389000D01*
X43481000Y-39389000D01*
X43481000Y-40591000D01*
G37*
G36*
X63481000Y-40591000D02*
G01*
X61379000Y-40591000D01*
X61379000Y-39389000D01*
X63481000Y-39389000D01*
X63481000Y-40591000D01*
G37*
G36*
X58681000Y-40591000D02*
G01*
X56579000Y-40591000D01*
X56579000Y-39389000D01*
X58681000Y-39389000D01*
X58681000Y-40591000D01*
G37*
G36*
X73481000Y-40591000D02*
G01*
X71379000Y-40591000D01*
X71379000Y-39389000D01*
X73481000Y-39389000D01*
X73481000Y-40591000D01*
G37*
G36*
X68681000Y-40591000D02*
G01*
X66579000Y-40591000D01*
X66579000Y-39389000D01*
X68681000Y-39389000D01*
X68681000Y-40591000D01*
G37*
G36*
X83481000Y-40591000D02*
G01*
X81379000Y-40591000D01*
X81379000Y-39389000D01*
X83481000Y-39389000D01*
X83481000Y-40591000D01*
G37*
G36*
X78681000Y-40591000D02*
G01*
X76579000Y-40591000D01*
X76579000Y-39389000D01*
X78681000Y-39389000D01*
X78681000Y-40591000D01*
G37*
G36*
X93481000Y-40591000D02*
G01*
X91379000Y-40591000D01*
X91379000Y-39389000D01*
X93481000Y-39389000D01*
X93481000Y-40591000D01*
G37*
G36*
X88681000Y-40591000D02*
G01*
X86579000Y-40591000D01*
X86579000Y-39389000D01*
X88681000Y-39389000D01*
X88681000Y-40591000D01*
G37*
G36*
X103481000Y-40591000D02*
G01*
X101379000Y-40591000D01*
X101379000Y-39389000D01*
X103481000Y-39389000D01*
X103481000Y-40591000D01*
G37*
G36*
X98681000Y-40591000D02*
G01*
X96579000Y-40591000D01*
X96579000Y-39389000D01*
X98681000Y-39389000D01*
X98681000Y-40591000D01*
G37*
G36*
X113481000Y-40591000D02*
G01*
X111379000Y-40591000D01*
X111379000Y-39389000D01*
X113481000Y-39389000D01*
X113481000Y-40591000D01*
G37*
G36*
X108681000Y-40591000D02*
G01*
X106579000Y-40591000D01*
X106579000Y-39389000D01*
X108681000Y-39389000D01*
X108681000Y-40591000D01*
G37*
G36*
X123481000Y-40591000D02*
G01*
X121379000Y-40591000D01*
X121379000Y-39389000D01*
X123481000Y-39389000D01*
X123481000Y-40591000D01*
G37*
G36*
X118681000Y-40591000D02*
G01*
X116579000Y-40591000D01*
X116579000Y-39389000D01*
X118681000Y-39389000D01*
X118681000Y-40591000D01*
G37*
G36*
X133481000Y-40591000D02*
G01*
X131379000Y-40591000D01*
X131379000Y-39389000D01*
X133481000Y-39389000D01*
X133481000Y-40591000D01*
G37*
G36*
X143481000Y-40591000D02*
G01*
X141379000Y-40591000D01*
X141379000Y-39389000D01*
X143481000Y-39389000D01*
X143481000Y-40591000D01*
G37*
G36*
X138681000Y-40591000D02*
G01*
X136579000Y-40591000D01*
X136579000Y-39389000D01*
X138681000Y-39389000D01*
X138681000Y-40591000D01*
G37*
G36*
X153481000Y-40591000D02*
G01*
X151379000Y-40591000D01*
X151379000Y-39389000D01*
X153481000Y-39389000D01*
X153481000Y-40591000D01*
G37*
G36*
X148681000Y-40591000D02*
G01*
X146579000Y-40591000D01*
X146579000Y-39389000D01*
X148681000Y-39389000D01*
X148681000Y-40591000D01*
G37*
G36*
X163481000Y-40591000D02*
G01*
X161379000Y-40591000D01*
X161379000Y-39389000D01*
X163481000Y-39389000D01*
X163481000Y-40591000D01*
G37*
G36*
X158681000Y-40591000D02*
G01*
X156579000Y-40591000D01*
X156579000Y-39389000D01*
X158681000Y-39389000D01*
X158681000Y-40591000D01*
G37*
G36*
X173481000Y-40591000D02*
G01*
X171379000Y-40591000D01*
X171379000Y-39389000D01*
X173481000Y-39389000D01*
X173481000Y-40591000D01*
G37*
G36*
X168681000Y-40591000D02*
G01*
X166579000Y-40591000D01*
X166579000Y-39389000D01*
X168681000Y-39389000D01*
X168681000Y-40591000D01*
G37*
G36*
X183481000Y-40591000D02*
G01*
X181379000Y-40591000D01*
X181379000Y-39389000D01*
X183481000Y-39389000D01*
X183481000Y-40591000D01*
G37*
G36*
X178681000Y-40591000D02*
G01*
X176579000Y-40591000D01*
X176579000Y-39389000D01*
X178681000Y-39389000D01*
X178681000Y-40591000D01*
G37*
G36*
X193481000Y-40591000D02*
G01*
X191379000Y-40591000D01*
X191379000Y-39389000D01*
X193481000Y-39389000D01*
X193481000Y-40591000D01*
G37*
G36*
X188681000Y-40591000D02*
G01*
X186579000Y-40591000D01*
X186579000Y-39389000D01*
X188681000Y-39389000D01*
X188681000Y-40591000D01*
G37*
G36*
X203481000Y-40591000D02*
G01*
X201379000Y-40591000D01*
X201379000Y-39389000D01*
X203481000Y-39389000D01*
X203481000Y-40591000D01*
G37*
G36*
X198681000Y-40591000D02*
G01*
X196579000Y-40591000D01*
X196579000Y-39389000D01*
X198681000Y-39389000D01*
X198681000Y-40591000D01*
G37*
G36*
X198681000Y-38891000D02*
G01*
X196579000Y-38891000D01*
X196579000Y-37689000D01*
X198681000Y-37689000D01*
X198681000Y-38891000D01*
G37*
G36*
X203481000Y-38891000D02*
G01*
X201379000Y-38891000D01*
X201379000Y-37689000D01*
X203481000Y-37689000D01*
X203481000Y-38891000D01*
G37*
G36*
X188681000Y-38891000D02*
G01*
X186579000Y-38891000D01*
X186579000Y-37689000D01*
X188681000Y-37689000D01*
X188681000Y-38891000D01*
G37*
G36*
X193481000Y-38891000D02*
G01*
X191379000Y-38891000D01*
X191379000Y-37689000D01*
X193481000Y-37689000D01*
X193481000Y-38891000D01*
G37*
G36*
X178681000Y-38891000D02*
G01*
X176579000Y-38891000D01*
X176579000Y-37689000D01*
X178681000Y-37689000D01*
X178681000Y-38891000D01*
G37*
G36*
X183481000Y-38891000D02*
G01*
X181379000Y-38891000D01*
X181379000Y-37689000D01*
X183481000Y-37689000D01*
X183481000Y-38891000D01*
G37*
G36*
X168681000Y-38891000D02*
G01*
X166579000Y-38891000D01*
X166579000Y-37689000D01*
X168681000Y-37689000D01*
X168681000Y-38891000D01*
G37*
G36*
X173481000Y-38891000D02*
G01*
X171379000Y-38891000D01*
X171379000Y-37689000D01*
X173481000Y-37689000D01*
X173481000Y-38891000D01*
G37*
G36*
X158681000Y-38891000D02*
G01*
X156579000Y-38891000D01*
X156579000Y-37689000D01*
X158681000Y-37689000D01*
X158681000Y-38891000D01*
G37*
G36*
X163481000Y-38891000D02*
G01*
X161379000Y-38891000D01*
X161379000Y-37689000D01*
X163481000Y-37689000D01*
X163481000Y-38891000D01*
G37*
G36*
X148681000Y-38891000D02*
G01*
X146579000Y-38891000D01*
X146579000Y-37689000D01*
X148681000Y-37689000D01*
X148681000Y-38891000D01*
G37*
G36*
X153481000Y-38891000D02*
G01*
X151379000Y-38891000D01*
X151379000Y-37689000D01*
X153481000Y-37689000D01*
X153481000Y-38891000D01*
G37*
G36*
X138681000Y-38891000D02*
G01*
X136579000Y-38891000D01*
X136579000Y-37689000D01*
X138681000Y-37689000D01*
X138681000Y-38891000D01*
G37*
G36*
X143481000Y-38891000D02*
G01*
X141379000Y-38891000D01*
X141379000Y-37689000D01*
X143481000Y-37689000D01*
X143481000Y-38891000D01*
G37*
G36*
X128681000Y-38891000D02*
G01*
X126579000Y-38891000D01*
X126579000Y-37689000D01*
X128681000Y-37689000D01*
X128681000Y-38891000D01*
G37*
G36*
X53481000Y-38891000D02*
G01*
X51379000Y-38891000D01*
X51379000Y-37689000D01*
X53481000Y-37689000D01*
X53481000Y-38891000D01*
G37*
G36*
X133481000Y-38891000D02*
G01*
X131379000Y-38891000D01*
X131379000Y-37689000D01*
X133481000Y-37689000D01*
X133481000Y-38891000D01*
G37*
G36*
X118681000Y-38891000D02*
G01*
X116579000Y-38891000D01*
X116579000Y-37689000D01*
X118681000Y-37689000D01*
X118681000Y-38891000D01*
G37*
G36*
X123481000Y-38891000D02*
G01*
X121379000Y-38891000D01*
X121379000Y-37689000D01*
X123481000Y-37689000D01*
X123481000Y-38891000D01*
G37*
G36*
X108681000Y-38891000D02*
G01*
X106579000Y-38891000D01*
X106579000Y-37689000D01*
X108681000Y-37689000D01*
X108681000Y-38891000D01*
G37*
G36*
X113481000Y-38891000D02*
G01*
X111379000Y-38891000D01*
X111379000Y-37689000D01*
X113481000Y-37689000D01*
X113481000Y-38891000D01*
G37*
G36*
X98681000Y-38891000D02*
G01*
X96579000Y-38891000D01*
X96579000Y-37689000D01*
X98681000Y-37689000D01*
X98681000Y-38891000D01*
G37*
G36*
X103481000Y-38891000D02*
G01*
X101379000Y-38891000D01*
X101379000Y-37689000D01*
X103481000Y-37689000D01*
X103481000Y-38891000D01*
G37*
G36*
X88681000Y-38891000D02*
G01*
X86579000Y-38891000D01*
X86579000Y-37689000D01*
X88681000Y-37689000D01*
X88681000Y-38891000D01*
G37*
G36*
X93481000Y-38891000D02*
G01*
X91379000Y-38891000D01*
X91379000Y-37689000D01*
X93481000Y-37689000D01*
X93481000Y-38891000D01*
G37*
G36*
X78681000Y-38891000D02*
G01*
X76579000Y-38891000D01*
X76579000Y-37689000D01*
X78681000Y-37689000D01*
X78681000Y-38891000D01*
G37*
G36*
X83481000Y-38891000D02*
G01*
X81379000Y-38891000D01*
X81379000Y-37689000D01*
X83481000Y-37689000D01*
X83481000Y-38891000D01*
G37*
G36*
X68681000Y-38891000D02*
G01*
X66579000Y-38891000D01*
X66579000Y-37689000D01*
X68681000Y-37689000D01*
X68681000Y-38891000D01*
G37*
G36*
X73481000Y-38891000D02*
G01*
X71379000Y-38891000D01*
X71379000Y-37689000D01*
X73481000Y-37689000D01*
X73481000Y-38891000D01*
G37*
G36*
X58681000Y-38891000D02*
G01*
X56579000Y-38891000D01*
X56579000Y-37689000D01*
X58681000Y-37689000D01*
X58681000Y-38891000D01*
G37*
G36*
X38681000Y-38891000D02*
G01*
X36579000Y-38891000D01*
X36579000Y-37689000D01*
X38681000Y-37689000D01*
X38681000Y-38891000D01*
G37*
G36*
X48681000Y-38891000D02*
G01*
X46579000Y-38891000D01*
X46579000Y-37689000D01*
X48681000Y-37689000D01*
X48681000Y-38891000D01*
G37*
G36*
X63481000Y-38891000D02*
G01*
X61379000Y-38891000D01*
X61379000Y-37689000D01*
X63481000Y-37689000D01*
X63481000Y-38891000D01*
G37*
G36*
X43481000Y-38891000D02*
G01*
X41379000Y-38891000D01*
X41379000Y-37689000D01*
X43481000Y-37689000D01*
X43481000Y-38891000D01*
G37*
G36*
X208375256Y-30391298D02*
G01*
X208481579Y-30412447D01*
X208782042Y-30536903D01*
X209052451Y-30717585D01*
X209282415Y-30947549D01*
X209463097Y-31217958D01*
X209587553Y-31518421D01*
X209651000Y-31837391D01*
X209651000Y-32162609D01*
X209587553Y-32481579D01*
X209463097Y-32782042D01*
X209282415Y-33052451D01*
X209052451Y-33282415D01*
X208782042Y-33463097D01*
X208481579Y-33587553D01*
X208375256Y-33608702D01*
X208162611Y-33651000D01*
X207837389Y-33651000D01*
X207624744Y-33608702D01*
X207518421Y-33587553D01*
X207217958Y-33463097D01*
X206947549Y-33282415D01*
X206717585Y-33052451D01*
X206536903Y-32782042D01*
X206412447Y-32481579D01*
X206349000Y-32162609D01*
X206349000Y-31837391D01*
X206412447Y-31518421D01*
X206536903Y-31217958D01*
X206717585Y-30947549D01*
X206947549Y-30717585D01*
X207217958Y-30536903D01*
X207518421Y-30412447D01*
X207624744Y-30391298D01*
X207837389Y-30349000D01*
X208162611Y-30349000D01*
X208375256Y-30391298D01*
G37*
G36*
X32375256Y-30391298D02*
G01*
X32481579Y-30412447D01*
X32782042Y-30536903D01*
X33052451Y-30717585D01*
X33282415Y-30947549D01*
X33463097Y-31217958D01*
X33587553Y-31518421D01*
X33651000Y-31837391D01*
X33651000Y-32162609D01*
X33587553Y-32481579D01*
X33463097Y-32782042D01*
X33282415Y-33052451D01*
X33052451Y-33282415D01*
X32782042Y-33463097D01*
X32481579Y-33587553D01*
X32375256Y-33608702D01*
X32162611Y-33651000D01*
X31837389Y-33651000D01*
X31624744Y-33608702D01*
X31518421Y-33587553D01*
X31217958Y-33463097D01*
X30947549Y-33282415D01*
X30717585Y-33052451D01*
X30536903Y-32782042D01*
X30412447Y-32481579D01*
X30349000Y-32162609D01*
X30349000Y-31837391D01*
X30412447Y-31518421D01*
X30536903Y-31217958D01*
X30717585Y-30947549D01*
X30947549Y-30717585D01*
X31217958Y-30536903D01*
X31518421Y-30412447D01*
X31624744Y-30391298D01*
X31837389Y-30349000D01*
X32162611Y-30349000D01*
X32375256Y-30391298D01*
G37*
G36*
X202227290Y-29025619D02*
G01*
X202291689Y-29038429D01*
X202473678Y-29113811D01*
X202637463Y-29223249D01*
X202776751Y-29362537D01*
X202886189Y-29526322D01*
X202961571Y-29708311D01*
X203000000Y-29901509D01*
X203000000Y-30098491D01*
X202961571Y-30291689D01*
X202886189Y-30473678D01*
X202776751Y-30637463D01*
X202637463Y-30776751D01*
X202473678Y-30886189D01*
X202291689Y-30961571D01*
X202227290Y-30974381D01*
X202098493Y-31000000D01*
X201901507Y-31000000D01*
X201772710Y-30974381D01*
X201708311Y-30961571D01*
X201526322Y-30886189D01*
X201362537Y-30776751D01*
X201223249Y-30637463D01*
X201113811Y-30473678D01*
X201038429Y-30291689D01*
X201000000Y-30098491D01*
X201000000Y-29901509D01*
X201038429Y-29708311D01*
X201113811Y-29526322D01*
X201223249Y-29362537D01*
X201362537Y-29223249D01*
X201526322Y-29113811D01*
X201708311Y-29038429D01*
X201772710Y-29025619D01*
X201901507Y-29000000D01*
X202098493Y-29000000D01*
X202227290Y-29025619D01*
G37*
G36*
X38227290Y-29025619D02*
G01*
X38291689Y-29038429D01*
X38473678Y-29113811D01*
X38637463Y-29223249D01*
X38776751Y-29362537D01*
X38886189Y-29526322D01*
X38961571Y-29708311D01*
X39000000Y-29901509D01*
X39000000Y-30098491D01*
X38961571Y-30291689D01*
X38886189Y-30473678D01*
X38776751Y-30637463D01*
X38637463Y-30776751D01*
X38473678Y-30886189D01*
X38291689Y-30961571D01*
X38227290Y-30974381D01*
X38098493Y-31000000D01*
X37901507Y-31000000D01*
X37772710Y-30974381D01*
X37708311Y-30961571D01*
X37526322Y-30886189D01*
X37362537Y-30776751D01*
X37223249Y-30637463D01*
X37113811Y-30473678D01*
X37038429Y-30291689D01*
X37000000Y-30098491D01*
X37000000Y-29901509D01*
X37038429Y-29708311D01*
X37113811Y-29526322D01*
X37223249Y-29362537D01*
X37362537Y-29223249D01*
X37526322Y-29113811D01*
X37708311Y-29038429D01*
X37772710Y-29025619D01*
X37901507Y-29000000D01*
X38098493Y-29000000D01*
X38227290Y-29025619D01*
G37*
M02*
